<svg xmlns="http://www.w3.org/2000/svg" viewBox="0 0 512 512">
	<path d="M475 414c0 3 0 6-1 9 0 1-2 3-3 4 0 1 0 1-2 3l-75 75c-4 5-10 6-16 6s-11-1-16-6c-8-8-8-22 0-31l39-39H256c-12 0-22-9-22-21 0-11 10-21 22-21h145l-39-39c-8-8-8-21 0-30 9-8 23-8 32 0l75 74c2 2 2 2 2 3 1 2 3 3 3 5 1 2 1 5 1 8zM147 46L83 76v166l56-26c1 0 4-1 5-1h8c1 0 2 1 4 1h1l77 36 66-30V56l-56 26c-3 2-6 3-8 3h-2c-3 0-5-1-8-3zm79 250l-79-36-64 30v124c0 12-11 21-23 21-11 0-21-9-21-21V22C39 11 49 1 60 1c12 0 23 10 23 21v7l56-27h4s3-1 4-1h5c1 0 2 1 4 1h1l77 37 79-37h4c1 0 3-1 4-1h4c2 0 3 1 5 1 1 0 3 2 4 3 1 2 1 0 3 2 1 1 1 2 3 4 0 1 1 1 1 3 0 1 2 3 2 4s1 3 1 4v214c0 3 0 4-1 7l-2 2c-1 1-3 4-4 5 0 0 0 2-2 2-1 1-2 1-4 3l-87 41c-3 1-6 1-8 1h-2c-3 0-5 0-8-1z"/>
</svg>