<svg xmlns="http://www.w3.org/2000/svg" viewBox="0 0 512 512">
	<path d="M319 480c-48 0-93-19-127-54-9-9-9-26 0-36 10-9 27-8 36 2 25 25 57 38 91 38 70 0 126-57 126-127 0-69-56-125-126-125-52 0-97 30-117 79-6 13-19 18-32 13-14-5-19-19-14-32 27-67 91-110 163-110 98 0 176 78 176 175 0 98-78 177-176 177zM194 353c-98 0-177-78-177-175C17 80 96 1 194 1c46 0 91 19 124 52 9 10 9 26 0 35s-27 9-36 0c-24-24-55-38-88-38-70 0-127 58-127 128 0 69 57 125 127 125 48 0 92-28 113-72 6-12 22-16 34-11 12 6 16 22 11 34-30 60-91 99-158 99z"/>
</svg>