<svg xmlns="http://www.w3.org/2000/svg" viewBox="0 0 512 512">
	<path d="M194 173H96c-15 0-24-9-24-24s9-25 24-25h320c15 0 25 10 25 25s-10 24-25 24h-98v193c0 15-9 25-24 25s-25-10-25-25v-70h-24v70c0 15-10 25-25 25s-26-10-26-25V173zm63-74c-27 0-49-21-49-49 0-27 22-49 49-49s49 22 49 49c0 28-22 49-49 49zm129 208c71 9 113 42 113 84 0 67-125 98-242 98S13 458 13 391c0-59 71-75 114-84 14-3 28 4 30 17 3 14-5 27-19 30-53 12-76 23-76 37 0 12 67 49 195 49 126 0 193-37 193-49s-27-30-71-35c-13-2-23-15-21-29 1-14 15-22 28-20z"/>
</svg>