<svg xmlns="http://www.w3.org/2000/svg" viewBox="0 0 512 512">
	<path d="M43.125 399c-6 0-13-1-17-6-10-10-10-25 0-34l355-350c9-9 24-9 34 0 9 9 9 24 0 34l-356 350c-4 4-9 6-16 6zm0-133c-6 0-12-3-16-8-9-9-9-24 0-34l219-215c10-9 25-9 34 0 10 9 10 24 0 34l-219 216c-4 4-11 7-18 7zm-1-135c-7 0-14-1-18-6-9-10-9-24 0-34l85-83c10-10 24-10 34 0 9 9 9 24 0 33l-85 84c-4 4-9 6-16 6zm73 349c-7 0-14-1-18-7-9-9-9-24 0-33l359-356c10-9 25-9 34 0 9 10 9 25 0 34l-359 355c-4 4-10 7-16 7zm144 0c-7 0-14-1-18-7-9-9-9-25 0-35l215-212c10-10 25-8 34 1s9 24 0 34l-215 212c-4 4-10 7-16 7zm127 0c-6 0-13-1-17-7-10-9-10-24 0-33l85-84c9-9 24-9 33 0 10 10 10 24 0 34l-84 83c-4 4-10 7-17 7z"/>
</svg>