<svg xmlns="http://www.w3.org/2000/svg" viewBox="0 0 512 512">
	<path d="M481.184 112l18 38c11 21 6 51-16 64l-22 17v1l-43-29c3-5 7-10 13-14l22-17-18-35h-1l-30 12c-8 3-15 4-21 4-11 0-20-4-26-9l-43-24c-15-11-21-22-24-32l-9-36-36-1-1 1-7 33c-3 8-11 27-27 36l-42 24c-8 5-24 12-45 5l-33-13-18 36 24 17c13 8 20 24 20 41v52c0 17-7 33-21 42l-22 16 17 35c0 1 1 1 1 1l31-12c7-3 14-4 19-4 12 0 21 5 28 8l20 12-24 46-24-14-30 12c-7 2-13 3-20 3-18 0-35-9-46-26l-19-38c-10-21-6-51 17-64l21-17v-52l-23-18c-19-15-26-41-15-63l18-36c7-18 25-29 46-29 6 0 13 1 20 4l31 13 44-26c0-1 1-3 2-5l7-30c5-25 25-41 51-41h36c25 0 45 16 51 41l7 33 1 1 44 26 31-12c7-3 14-4 20-4 18 0 35 10 46 27zm-42 400h-174c-30 0-54-24-54-53V298c0-29 24-52 54-52h174c30 0 55 23 55 52v161c0 29-25 53-55 53zm-177-213v24h181v-25c-1 0-2-1-4-1h-174c-2 0-3 1-3 2zm0 75v85s2 1 3 1h174c2 0 3-1 4-1v-85h-181z"/>
</svg>