<svg xmlns="http://www.w3.org/2000/svg" viewBox="0 0 512 512">
	<path d="M127 381q0 3 4 3h113q3 0 3-3v-83q0-4-3-4H131q-4 0-4 4v83zm334-163H51v211q0 14 9.5 23t22.5 9h346q14 0 23-9t9-23V218zm0-135q0-13-9-22.5T429 51H83q-13 0-22.5 9.5T51 83v83h410V83zM83 381v-83q0-20 14-34t34-14h113q20 0 34 14t14 34v83q0 20-14 34t-34 14H131q-20 0-34-14t-14-34zM512 83v346q0 35-24 59t-59 24H83q-35 0-59-24T0 429V83q0-35 24-59T83 0h346q35 0 59 24t24 59zm-84 26q0 11-7 18t-18 7h-61q-11 0-18.5-7t-7.5-18 7.5-18.5T342 83h61q11 0 18 7.5t7 18.5z"/>
</svg>