<svg xmlns="http://www.w3.org/2000/svg" viewBox="0 0 512 512">
	<path d="M479.5 204c14 0 26 12 26 26v51c0 14-12 26-26 26h-51c-14 0-26-12-26-26v-1c-1 1-4 1-5 1h-97v41l87 87h41c14 0 25 12 25 25v52c0 14-11 26-25 26h-51c-15 0-26-12-26-26v-40l-83-83-99 44c-3 2-6 2-10 2s-7 0-10-2h-1l-115-52c-9-4-15-13-15-23V177c1-3 1-5 2-8 2-4 4-6 5-8 4-3 6-4 8-5l115-52c7-3 15-2 21 0l99 45 83-83V25c0-14 11-25 26-25h51c14 0 25 11 25 25v52c0 13-11 25-25 25h-41l-87 87v41h97c1 0 4 0 5 1v-1c0-14 12-26 26-26h51zm-320-48l-52 23 52 23 52-23zm-90 62v98l64 28v-98zm115 28v98l65-28v-98z"/>
</svg>