<svg xmlns="http://www.w3.org/2000/svg" viewBox="0 0 512 512">
	<path d="M337 13c3 2 5 5 5 10-2 9-6 13-11 13-1 0-3-1-4-1l-25-5c-15-3-34-6-50-6-7 0-13 1-20 2-8 0-13-3-14-10 0-8 3-13 10-14 3-1 7-2 11-2h13c36 0 79 12 81 12 3 0 3 1 4 1zm-158-2c5 0 9 3 11 8 1 1 1 3 1 5 0 5-3 9-8 10 0 1-58 25-82 49-2 3-5 4-8 4-4 0-7-1-9-4-3-2-4-5-4-9 0-3 1-6 3-8 28-28 88-54 92-54 1 0 1-1 4-1zm285 93c1 1 1 3 1 5 0 3-1 6-4 9-1 1-4 2-7 2-5 0-8-1-10-4l-1-1-2-2-2-2-2-2-1-1-2-2-1-1-3-3-3-3-1-1-3-3-1-1-3-3v-1c-15-13-32-29-48-36-5-1-7-5-7-10 0-2 0-4 1-5 2-5 6-8 12-8 3 0 3 1 4 1 33 16 70 58 79 67 3 3 4 4 4 5zM260 46h21c5 2 8 6 8 12 0 7-5 12-12 12h-17c-17 0-44 1-63 10-1 1-3 1-6 1-5 0-8-2-10-6-1-1-1-3-1-5 0-5 2-8 7-11 23-12 54-13 73-13zm152 68c1 3 2 5 2 6 0 3-1 5-3 7-2 3-5 5-9 5-3 0-6-1-8-3l-1-1-1-1-2-2-2-2c-10-10-38-32-61-38-7-2-10-6-10-11 0-1 1-3 1-4 3-6 6-9 11-9 1 0 3 1 4 1 38 11 75 47 77 49 1 1 2 2 2 3zM140 82c1-1 3-1 5-1 3 0 6 2 9 5 1 1 2 4 2 7 0 4-1 7-4 9 0 0-41 30-54 59-2 5-5 7-10 7-3 0-5 0-6-1-5-1-7-5-7-11 0-2 0-4 1-5 16-36 58-64 61-67 1-1 2-2 3-2zm-91 23l3-3c3-1 5-2 7-2 1 0 3 1 7 2 3 3 5 7 5 10 0 1-1 3-2 6 0 0-36 54-39 88-1 7-5 10-11 10-9-1-13-6-13-13 5-39 43-95 43-98zm207 23c71 0 128 57 128 128s-57 128-128 128-128-57-128-128 57-128 128-128zm255 134c-1 5-5 8-11 8-7 0-12-5-12-12l-3-36c-3-20-6-43-14-58-1-1-1-3-1-5 0-5 2-8 7-11 1-1 3-1 5-1 5 0 9 2 11 6 16 35 19 102 19 105 0 2 0 3-1 4zm-48-18v4c-1 5-5 9-11 10-7 0-12-4-13-11-1-9-2-19-4-28-3-16-8-34-17-49-1-1-2-4-2-7 0-5 2-8 5-10 3-1 5-2 6-2 4 0 8 2 11 6 21 31 25 84 25 87zM256 360c57 0 104-47 104-104s-47-104-104-104-104 47-104 104 47 104 104 104zM56 196c4-4 8-6 11-6 8 1 12 5 12 12-1 3-7 27-7 52 0 11 1 21 4 30 0 1 1 3 1 4 0 5-3 8-9 11-1 0-3 1-4 1-5 0-8-3-11-9-3-13-5-26-5-37 0-27 6-51 7-54 0-3 1-3 1-4zm260 68c8 0 12 4 12 12s-4 12-12 12h-84v-84c0-7 5-12 12-12 8 0 12 4 12 12v60h60zM1 251c1-5 4-8 11-9 7 0 12 5 12 12 0 0 2 65 18 94 1 1 1 3 1 6 0 5-2 8-6 10-1 1-3 1-6 1-5 0-8-2-11-6C1 324 0 258 0 255c0-2 0-3 1-4zm415 133c-1 1-4 2-7 2s-5-1-6-2c-3-1-5-5-5-10 0-3 1-6 2-7 5-7 11-15 16-23 8-15 18-31 21-48 1-7 5-10 12-10 8 1 12 5 12 12-8 42-40 81-42 83 0 1-1 2-3 3zm43 29c-1 1-3 2-6 2s-6-1-7-2c-4-2-6-5-6-10 0-1 1-3 2-6l2-2v-2h1c1-1 2-3 3-5 11-16 30-55 34-78 1-7 6-11 13-11 7 1 11 5 11 12-6 41-42 97-44 99 0 1-1 2-3 3zM63 332c0-5 2-8 6-10 1-1 3-1 6-1 5 0 8 2 10 6 1 0 21 45 48 64 3 2 5 5 5 10 0 3-1 6-2 7-3 3-7 5-10 5-2 0-4-1-7-2-31-23-55-70-55-73-1-1-1-3-1-6zm-19 70v-4c0-4 1-7 4-10 2-1 5-2 8-2 4 0 7 1 9 4l4 4c10 13 42 50 66 61 5 3 7 6 7 11 0 2 0 4-1 5-3 5-6 7-11 7-2 0-4 0-5-1-36-17-77-70-79-72 0-1-1-2-2-3zm252 59c-6 0-10-3-11-8 0-1-1-3-1-4 0-5 3-9 9-11l27-9c15-7 33-14 45-26 2-2 5-3 8-3 4 0 7 1 9 4 3 4 4 7 4 9 0 3-1 5-4 8-24 23-62 34-77 38-1 0-2 1-3 1-3 0-3 1-6 1zm-135-20c-3-3-4-6-4-9 0-2 0-4 1-5 2-5 6-8 11-8 1 0 3 1 4 1s39 19 71 19h7c9 0 13 4 13 11s-4 12-11 13h-8c-37 0-78-20-81-20-1-1-2-2-3-2zm167 62c-6 0-10-3-11-8-1-1-1-2-1-4 0-6 3-10 8-12 11-4 22-9 33-14 19-8 38-20 50-32 3-3 6-4 9-4s5 1 8 4c3 2 4 5 4 9 0 3-1 6-3 8-28 28-90 52-93 52-1 0-3 1-4 1zm-154-5l-4-2c-3-3-4-6-4-10 2-8 6-12 12-12 1 0 2 1 3 1h1c1 1 3 1 5 1v1h2c15 4 45 11 71 11 7 0 13 0 16-1 7 0 12 3 14 10 0 7-3 11-10 14-3 1-6 1-9 1h-9c-37 0-86-14-88-14z"/>
</svg>