<svg xmlns="http://www.w3.org/2000/svg" viewBox="0 0 512 512">
	<path d="M256 512C115 512 0 397 0 256S115 0 256 0s256 115 256 256-115 256-256 256zm0-461C143 51 51 144 51 256c0 113 92 205 205 205s205-92 205-205c0-112-92-205-205-205zm0 384c-99 0-179-80-179-179 0-98 80-179 179-179s179 81 179 179c0 99-80 179-179 179zm0-307c-72 0-128 56-128 128s56 128 128 128 128-56 128-128-56-128-128-128zm0 204c-41 0-76-34-76-76 0-41 35-75 76-75 42 0 75 34 75 75 0 42-33 76-75 76zm0-125c-27 0-50 22-50 49 0 28 23 51 50 51 28 0 50-23 50-51 0-27-22-49-50-49zm24 66h-24c-7 0-13-6-13-13v-31c0-7 6-13 13-13s13 6 13 13v18h11c7 0 12 6 12 13s-5 13-12 13z"/>
</svg>