<svg xmlns="http://www.w3.org/2000/svg" viewBox="0 0 512 512">
	<path d="M473.5 102h-435c-21 0-38-17-38-38s17-38 38-38h435c21 0 38 17 38 38s-17 38-38 38zm0 174h-435c-21 0-38-17-38-38s17-39 38-39h435c21 0 38 18 38 39s-17 38-38 38zm-7 236c-7 0-14-2-19-8l-52-52-52 52c-5 6-12 8-19 8-6 0-13-2-18-8-10-10-10-26 0-36l53-52-53-53c-10-9-10-26 0-36 5-5 12-8 18-8 7 0 14 3 19 8l52 53 52-53c5-5 12-8 18-8 7 0 14 3 18 8 11 10 10 26 0 36l-52 53 52 52c10 11 11 26 0 36-4 6-11 8-17 8zm-248-64h-180c-21 0-38-18-38-39s17-38 38-38h180c22 0 39 17 39 38s-17 39-39 39z"/>
</svg>