<svg xmlns="http://www.w3.org/2000/svg" viewBox="0 0 512 512">
	<path d="M383.5 178c50 0 90 41 90 90 0 50-40 90-90 90-49 0-89-40-89-90 0-15 3-30 10-43l-44-44c-6 3-11 5-17 7v148c37 11 64 46 64 86 0 50-40 90-90 90-49 0-89-40-89-90 0-40 27-75 64-86V188c-37-11-64-46-64-86 0-16 3-30 10-43l-15-15c-10-10-10-26 0-36 5-5 12-8 18-8 7 0 13 3 18 8l15 15c13-7 28-11 43-11 50 0 90 40 90 90 0 15-4 30-11 43l45 44c12-7 27-11 42-11zm-140-47c7-7 12-16 13-29 0-21-18-39-39-39-22 2-37 17-38 37 0 12 4 22 13 30 6 7 15 10 25 10s18-3 26-9zm140 175c21 0 39-17 39-38 0-23-19-38-41-38-19 1-35 16-36 36 0 22 15 40 38 40zm-127 116c0-21-18-38-39-38-10 0-19 4-25 10-8 7-13 17-13 28 0 21 17 39 38 39s39-18 39-39z"/>
</svg>