<svg xmlns="http://www.w3.org/2000/svg" viewBox="0 0 512 512">
	<path d="M1 283c0-2 1-4 2-5l83-176c2-6 7-9 14-9 2 0 4 1 7 2 8 3 9 11 9 15 0 2 0 4-1 6L35 285l80 170c1 2 1 4 1 6 0 4-1 12-9 15-3 1-5 2-7 2-7 0-12-3-14-9L5 297c-3-3-4-7-4-10v-4zM406 95c3-1 5-2 7-2 7 0 12 3 15 9l82 176c1 1 2 3 2 5 1 1 1 3 1 4 0 4-1 7-4 10l-81 172c-3 6-8 9-15 9-2 0-4-1-7-2-8-3-9-10-9-14 0-2 1-4 2-7l80-170-80-169c-1-3-2-5-2-7 0-4 1-11 9-14zM129 244v-18c-1-3-1-5-1-8 0-15 7-22 14-25 3-3 8-4 13-4h29v27h-27v29c0 15-6 25-13 32-4 3-9 6-14 9 5 3 9 7 13 11 7 7 13 17 13 30 1 14 1 23 1 28h27v27h-24c-20-1-31-15-31-32v-23c0-24-21-28-28-28v-27c8 0 28-3 28-28zm102-28v-27h29c5 0 10 1 14 4 7 3 13 10 13 21v12c-1 3-1 9-1 18 0 25 20 28 28 28v27c-7 0-28 4-28 28v23c0 17-11 31-31 32h-24v-27h28v-28c0-13 7-23 14-30 3-4 8-8 13-11-1 1-27-11-27-41v-29h-28zm90 152c0-2 0-3 1-3l57-152c2-7 6-10 13-10 8 0 14 6 14 13v4l-57 152c-2 7-6 10-13 10-8 0-15-7-15-14z"/>
</svg>