<svg xmlns="http://www.w3.org/2000/svg" viewBox="0 0 512 512">
	<path d="M205 512h-9c-59 0-106-43-106-95v-54c0-12-7-24-19-34L9 275c-5-5-9-12-9-20 0-7 4-14 9-19l62-54c12-10 19-22 19-34V94c0-52 47-94 106-94h9c14 0 26 11 26 25s-12 26-26 26h-9c-30 0-55 19-55 43v54c0 28-13 54-36 73l-40 34 40 35c23 20 36 46 36 73v54c0 24 25 43 55 43h9c14 0 26 12 26 26s-12 26-26 26zm111 0h-9c-14 0-25-12-25-26s11-26 25-26h9c31 0 55-19 55-43v-54c0-27 13-53 36-73l40-35-40-34c-23-19-36-45-36-73V94c0-24-24-43-55-43h-9c-14 0-25-12-25-26s11-25 25-25h9c59 0 106 42 106 94v54c0 12 7 24 19 34l62 54c6 5 9 12 9 19 0 8-3 15-9 20l-62 54c-12 10-19 22-19 34v54c0 52-47 95-106 95z"/>
</svg>