<svg xmlns="http://www.w3.org/2000/svg" viewBox="0 0 512 512">
	<path d="M256.5 513c-5 0-8-1-12-3l-196-93c-31-18-48-43-48-70V167c0-30 20-59 49-71l195-92c7-4 16-4 23 0l197 92c30 18 47 43 47 71v180c0 30-20 58-49 71l-195 92c-3 1-7 3-11 3zm0-56l184-87c10-5 17-15 17-23V167c0-12-13-21-19-24l-182-86-185 87c-10 4-17 14-17 23v180c0 12 12 21 19 24zm-26-78h-4c-29 0-53-21-53-46v-25c0-6-3-11-8-16l-30-25c-3-3-5-7-5-10 0-4 2-8 5-11l30-25c5-4 8-9 8-15v-25c0-26 24-46 53-46h4c8 0 14 5 14 13 0 7-6 13-14 13h-4c-14 0-26 9-26 20v25c0 13-6 26-18 36l-18 15 18 15c12 10 18 23 18 36v25c0 11 12 20 26 20h4c8 0 14 6 14 13s-6 13-14 13zm54 0h-4c-8 0-13-6-13-13s5-13 13-13h4c15 0 26-9 26-20v-25c0-13 6-27 17-36l19-15-19-15c-11-9-17-23-17-36v-25c0-11-11-20-26-20h-4c-8 0-13-6-13-13 0-8 5-13 13-13h4c29 0 53 20 53 46v25c0 6 3 11 9 15l30 25c2 3 4 7 4 11 0 3-2 7-4 10l-30 25c-6 5-9 10-9 16v25c0 25-24 46-53 46z"/>
</svg>