<svg xmlns="http://www.w3.org/2000/svg" viewBox="0 0 512 512">
	<path d="M269 512c-111 0-231-33-231-103V102C38 32 158 0 269 0c110 0 230 32 230 102v307c0 70-120 103-230 103zm0-461C150 51 89 87 89 102s61 51 180 51c118 0 179-36 179-51s-61-51-179-51zm0 153c-66 0-135-11-180-35v35c0 16 61 51 180 51 118 0 179-35 179-51v-35c-45 24-114 35-179 35zm0 103c-66 0-135-11-180-35v35c0 15 61 51 180 51 118 0 179-36 179-51v-35c-45 24-114 35-179 35zm0 102c-66 0-135-11-180-35v35c0 16 61 51 180 51 118 0 179-35 179-51v-35c-45 24-114 35-179 35z"/>
</svg>