<svg xmlns="http://www.w3.org/2000/svg" viewBox="0 0 512 512">
	<path d="M14.5 426V87c0-76 189-87 242-87 51 0 241 10 241 88v338c0 58-114 77-159 82-7 0-12 1-19 2h-2c-7 0-11 1-18 1h-3c-3 1-6 1-9 1h-62c-3 0-7 0-10-1h-3c-7 0-11-1-18-1h-2c-7-1-12-2-19-2-45-5-159-24-159-82zm163 45c19 3 38 3 58 4h41c20-1 39-1 58-4 84-11 126-34 126-45V87c0-1-1-3-2-4-11-17-78-45-202-45h-33c-49 3-128 11-166 41l-2 2c-1 1-1 1-2 1l-1 2c0 1-1 2-1 5v337c0 11 42 34 126 45zm89-80l-87-88 111-110-99-98 20-20 119 119-109 106 68 69 11-56 22-23v136h-136l23-22z"/>
</svg>