<svg xmlns="http://www.w3.org/2000/svg" viewBox="0 0 512 512">
	<path d="M165.5 506h-102c-14 0-25-12-25-26V176c0-6 3-12 8-17l151-152c5-5 12-7 18-7h203c14 0 25 11 25 25v151c0 14-11 26-25 26s-25-12-25-26V50h-168l-10 10v66c0 28-22 50-50 50l-66 1-11 10v268h77c14 0 25 11 25 25s-11 26-25 26zm219-92c-5 0-10-2-13-5-8-8-8-20 0-28 7-6 10-15 10-24s-3-18-10-25l-37-37c-7-7-16-11-25-11-20 0-35 16-35 36 0 9 3 17 10 24l19 19c7 7 7 20 0 27-8 7-20 7-27 0l-18-19c-14-14-22-32-22-51 0-40 33-74 73-74 19 0 37 7 51 22l37 38c14 14 22 32 22 51 0 17-13 57-35 57zm41 98c-18 0-37-8-51-22l-38-37c-29-29-29-74 0-103 4-4 9-6 14-6 4 0 9 2 13 6 7 7 7 19 0 26-14 14-14 35 0 49l37 38c7 7 16 10 25 10s18-3 25-10c6-7 10-15 10-24s-3-19-10-25l-19-19c-8-7-8-19 0-27 7-7 20-7 27 0l18 19c14 14 22 32 22 52 0 39-34 73-73 73z"/>
</svg>