<svg xmlns="http://www.w3.org/2000/svg" viewBox="0 0 512 512">
	<path d="M256 51q-42 0-79.5 16.5t-65.5 44-44 65T51 256q0 43 16 80t44 65 65.5 44 79.5 16 79.5-16 65.5-44 44-65 16-80q0-42-16-79.5t-44-65-65.5-44T256 51zm52 184l-26 28q-4 4-12 4-6 0-10-6l-24-41-30 68 21-23q3-5 10-5 9 2 12 7l28 42zm-52 277q-53 0-99.5-20T75 437t-55-81.5T0 256t20-99.5T75 75t81.5-55T256 0t99.5 20T437 75t55 81.5 20 99.5-20 99.5-55 81.5-81.5 55-99.5 20zm104-356q6 6 6 13 0 3-1 5l-73 170q-3 8-12 8-7 0-12-6l-32-49-65 72q-7 5-11 5-14 0-14-15 0-3 1-5l73-170q5-8 11-8 10 0 13 6l29 48 70-72q2-4 8-4 1 0 9 2z"/>
</svg>