<svg xmlns="http://www.w3.org/2000/svg" viewBox="0 0 512 512">
	<path d="M232 26c-7 0-12-3-14-10 0-7 3-12 10-14 4-1 8-2 11-2h13c9 0 17 1 28 2 9 1 18 1 26 4h2l1 1h4l1 1h2c3 1 6 1 8 2 3 1 6 2 9 2 1 0 2 0 3 1 0 1 0 1 1 1 3 1 5 4 5 9-2 9-6 13-11 13h-2c0-1-1-1-2-1l-25-5c-8-1-15-1-24-4-11-1-18-2-26-2-3 0-7 1-10 1-3 1-6 1-10 1zM93 87c-4 0-7-1-9-3-3-3-4-6-4-10 0-3 1-6 3-8 5-5 14-12 25-20 11-7 21-12 30-17 1-1 2-1 3-1l1-1h1l1-1 2-1c1 0 1 0 2-1s1-1 2-1h1v-1h1c4-2 8-4 11-5 8-3 12-5 12-5h4c5 0 9 2 11 7 1 1 1 3 1 5 0 5-3 9-8 11l-2 1c-1 0-4 1-8 3-7 3-14 7-23 11-10 5-19 10-26 15-9 7-16 12-23 19-2 2-5 3-8 3zm278-33c-5-1-7-4-7-10 0-2 0-4 1-5 2-5 6-8 12-8 1 0 2 1 3 1 0 1 0 1 1 1 8 3 16 8 25 15s16 13 24 20c7 7 14 12 19 19s8 10 11 13c3 2 4 4 4 5 1 1 1 2 1 4 0 4-1 7-4 10-3 1-5 2-7 2-5 0-8-2-10-5l-1-1-1-1c-2-2-4-4-6-5-5-5-10-11-17-18s-15-14-23-21c-9-7-17-12-25-16zM191 81c-5 0-8-2-10-6-1-1-1-2-1-5 0-5 2-9 7-11 11-6 24-9 38-10 14-2 26-3 35-3h21c5 3 8 7 8 12 0 4-1 7-4 9-2 2-5 3-8 3h-17c-9 0-19 1-31 2-11 1-22 3-32 8-1 1-3 1-6 1zm140-19c1 1 1 1 2 1 9 2 18 6 28 11 8 5 17 9 24 16 7 5 13 10 18 15 4 3 6 6 7 7l2 2c1 4 2 6 2 7s-1 4-3 7c-3 3-6 4-9 4s-6-1-8-3c-1 0-1 0-1-1l-5-5c-4-4-8-8-15-13-7-4-14-9-22-14-7-5-15-8-24-10-7-2-10-6-10-12v-2c1 0 1-1 1-2 3-6 7-9 11-9 1 0 1 0 2 1zM145 81c1 0 4 2 9 5 1 3 2 5 2 7 0 4-1 7-4 9-1 1-1 1-2 1-1 1-3 3-5 4-4 4-8 7-15 14-7 5-13 12-18 19-7 8-11 15-14 21-2 5-5 7-10 7-3 0-5 0-6-1-5-1-7-5-7-11 0-3 1-2 1-5 4-8 9-16 16-25 7-7 12-14 19-21s13-10 18-14c3-2 5-4 6-5l2-2c1-1 2-2 3-2 1-1 2-1 5-1zM19 216c-5 0-8-2-10-5-2-2-3-5-3-8 1-9 4-20 9-31 4-11 9-20 14-31 1-1 1-2 1-3l1-1v-1l1-1 1-2c0-1 0-1 1-2s1-1 1-2v-1h1v-1c2-4 4-8 7-11 4-7 6-11 6-11l3-3c4-1 6-2 7-2l2 1c2 0 4 0 5 1 3 5 5 8 5 10 0 3-1 5-2 7-1 1-1 1-1 2-1 1-2 3-4 7-4 5-8 13-13 22s-8 18-13 29c-5 10-7 19-8 28-1 6-4 9-11 9zm493 30v12c0 3 0 4-1 5-1 5-5 7-11 7-3 0-6-1-8-3-3-2-4-5-4-9-1-12 0-23-3-36-1-11-2-20-5-31-2-11-5-19-9-26 0-3-1-3-1-6 0-5 2-8 7-10 1-1 3-2 5-2 5 0 9 2 11 6 4 9 7 19 10 31 3 11 5 22 6 34 1 10 2 19 3 28zm-62-62c4 9 5 18 8 27s3 16 4 23c1 2 1 4 1 7v8c-3 5-6 8-11 9-8 0-12-4-13-11-1-9-1-17-4-28-1-7-3-16-6-25-1-4-3-8-5-12-1-1-1-1-1-2v-1l-1-1v-1l-2-2v-1c0-1 0-1-1-2 0-1 0-1-1-2s-2-4-2-7c0-4 2-7 5-10h1c1-1 1-1 2-1h1c1-1 2-1 2-1 5 0 8 2 11 7 5 7 9 15 12 26zM169 332c-2-1-3-3-3-4l86-172c2-2 3-3 4-3h1v1h1c1 1 1 1 1 2l86 172c0 2 0 3-1 4h-4l-84-55-84 55h-3zM79 202c-1 1-2 7-4 18-2 10-3 21-3 34 0 7 0 13 1 16 0 5 2 9 3 14v3h1v1c0 5-3 9-9 12h-4c-4 0-8-3-11-9-3-15-5-27-5-37 0-13 1-25 3-36 1-2 1-4 1-5v-1c1-1 1-1 1-2v-2c1-1 1-1 1-2 1-3 1-5 1-6v-2c1 0 1-1 1-2 5-3 8-5 11-5 8 1 12 4 12 11zm177-6l-37 73c0 1 0 1 1 2h1l35-23 35 23h2c0-1 1-1 1-2l-37-72v-1h-1zM32 321c3 12 7 21 10 28 1 1 1 2 1 5 0 5-2 9-6 11h-6c-5 0-9-2-11-6-5-8-8-19-11-30-3-12-5-23-6-34-1-5-2-10-2-15v-12c0-4-1-6-1-9v-3c0-3 0-4 1-5 0-3 4-6 11-9 3 0 5 1 8 4 3 2 4 5 4 8v11c1 8 2 17 3 26 3 9 2 19 5 30zm429-23c-2 10-5 20-9 30-5 11-9 19-14 27-4 8-9 14-12 18-4 5-6 8-7 8 0 2-1 3-3 3-1 1-3 2-7 2-3 0-5-1-6-2-3-1-5-5-5-10 0-2 1-4 2-7 7-7 11-15 16-23 5-7 8-14 13-23 4-7 7-16 8-25 1-7 5-10 12-10 8 2 12 6 12 12zm34 2c7 1 11 5 11 11-1 11-5 21-9 33-5 12-10 21-15 32-4 11-9 17-13 24-4 6-6 9-7 10 0 1-1 3-3 4-1 1-3 2-6 2s-6-1-7-2c-4-3-6-7-6-11 0-2 1-4 2-6l1-1 1-1c1-3 3-4 4-7 3-5 8-12 13-22 1-1 1-1 1-2v-1c1-1 1-1 1-2v-1c1-1 1-1 1-2h1c0-1 0-2 1-3 0-1 0-2 1-3l6-15c5-9 6-19 9-27 1-7 5-10 13-10zM69 323c3-1 5-2 6-2 5 0 8 2 10 7l1 2c1 1 2 3 3 5 3 5 6 10 10 17 5 7 9 14 16 21 5 8 11 14 18 18 3 2 5 5 5 10 0 3-1 5-2 8-3 3-7 5-10 5-1 0-4-1-7-3-8-7-15-13-22-21-7-9-13-16-17-23-5-7-9-14-11-19l-1-1v-2h-1v-2l-1-1c0-1 0-1-1-1v-2h-1v-1c0-1-1-2-1-6 0-5 2-8 6-9zm66 133c5 2 7 5 7 10 0 3 0 5-1 6-3 5-7 7-11 7-1 0-2-1-5-2-5-2-9-5-13-8-2-1-4-3-6-4l-1-1c-3-1-5-3-7-5-9-8-18-15-25-23s-14-15-18-20c-5-7-8-10-9-11s-1-1-2-3v-4c0-4 1-7 4-10 3-1 5-2 8-2s6 1 9 4l4 4c3 3 7 8 11 14 5 7 10 10 17 17s12 11 19 18 12 10 19 13zm247-35c-12 11-26 21-42 26-16 7-27 11-35 12-1 0-1 1-2 1h-1c-1 0-2 0-3 1h-3c-5 0-9-3-11-8v-2c-1 0-1-1-1-2 0-7 3-10 9-11 9-3 18-5 27-8 7-4 15-7 23-12 9-4 16-9 22-15 2-2 5-3 8-3s6 1 9 4c3 5 4 8 4 10s-1 4-4 7zm-190 33c-2-1-4-1-5-2h-1c-1 0-1 0-2-1-1 0-1 0-2-1l-9-3c-5-3-8-3-9-3-1-1-2-2-3-2-3-3-4-6-4-10 0-2 0-3 1-4 2-6 6-9 11-9 1 0 2 0 2 1 1 0 1 1 2 1h2c1 0 2 1 5 2 5 3 10 4 17 7s14 4 23 7c8 1 16 2 24 2h7c9 0 13 4 13 12 0 7-4 11-11 12h-8c-9 0-17 0-28-3-9-3-18-3-25-6zm224-24c4 0 7 1 8 3 3 2 4 5 4 9s-1 7-3 9h-1v1l-1 1h-1v1h-1v1h-1l-1 1-1 1h-1v1h-1v1h-1l-1 1v1h-1c-4 3-9 6-14 9s-10 6-15 8v1c-1 0-2 0-3 1h-1c0 1 0 1-1 1s-1 0-2 1c-1 0-1 0-1 1h-2v1h-2v1h-2v1h-1c-9 5-18 9-25 12-8 4-11 4-12 4s-1 0-2 1h-2c-7 0-10-3-11-8-1 0-1-1-1-4 0-6 3-10 8-12 13-4 24-9 33-14 9-4 17-9 28-14 8-5 15-11 22-18 2-2 5-3 9-3zm-140 57c7 0 12 3 14 10 0 7-3 12-10 14-1 1-3 1-4 1h-14c-11 0-18-1-29-2s-19-3-28-4c-9-3-15-2-22-5-5-1-8-3-9-3l-4-2c-3-2-4-5-4-10 2-8 6-12 12-12 1 0 1 0 2 1h1l2 1c3 0 5 0 6 1 5 3 12 2 19 5h2c1 1 2 1 3 1h2c1 0 2 0 3 1h2c4 1 9 1 14 2s9 2 13 2h13c9 0 14 0 16-1z"/>
</svg>