<svg xmlns="http://www.w3.org/2000/svg" viewBox="0 0 512 512">
	<path d="M256 0c141 0 256 115 256 256S397 512 256 512 0 397 0 256 115 0 256 0zm0 461c113 0 205-92 205-205 0-112-92-205-205-205S51 144 51 256c0 113 92 205 205 205zm0-384c99 0 179 81 179 179 0 99-80 179-179 179S77 355 77 256c0-98 80-179 179-179zm0 307c72 0 128-56 128-128s-56-128-128-128-128 56-128 128 56 128 128 128zm0-211c1 1 2 1 3 1l68 136c0 1-1 3-2 3-1 1-1 1-3 0l-66-44-66 44c-1 1-3 1-3 0-1 0-2-2-2-3l68-136c1 0 2-1 3-1zm28 92s1 0 1-1l-28-57h-2l-28 57c0 1 1 1 2 1l27-18z"/>
</svg>