<svg xmlns="http://www.w3.org/2000/svg" viewBox="0 0 512 512">
	<path d="M186.295 75c0-1 1-2 2-4l7-31c6-24 25-40 50-40h36c26 0 46 16 51 41l7 32c1 1 2 1 2 1l43 26 31-12c6-2 13-3 19-3 18 0 36 9 46 27l19 37c5 11 7 23 4 34-3 13-11 24-20 30l-22 17v51l23 19c19 14 25 40 15 62l-18 35c-8 18-26 30-46 30-7 0-14-2-20-4l-31-13-43 26c0 1-2 3-2 4l-7 32c-5 23-25 40-51 40h-36c-25 0-46-17-51-41l-7-33c0-1 0-1-1-1l-43-26-31 12c-6 2-13 3-19 3-19 0-36-9-46-26l-19-38c-6-12-7-27-3-39 4-11 11-19 19-25l22-17v-51l-23-18c-19-15-26-41-15-63l18-35c7-18 26-30 45-30 7 0 14 1 20 4l32 14zm-43 284c12 0 21 5 27 8l43 26c15 9 20 21 23 31l9 36h36l9-33c2-9 9-27 26-36l42-24c8-5 24-12 44-5l32 13 19-36-24-17c-12-8-20-23-20-41v-51c0-18 8-33 22-42l21-16-17-35c0-1-1-1-1-1l-30 13c-22 7-38 0-47-5l-42-25c-16-10-21-22-25-32l-8-36h-37l-8 34c-2 8-10 26-26 35l-42 24c-9 5-24 12-44 5l-33-13-19 36 24 17c13 8 21 23 21 41v51c0 18-8 33-22 42l-22 16 18 35c0 1 1 1 1 1l30-13c7-2 14-3 20-3zm57-115c-3 0-6 0-8-1-9-4-14-16-9-25 14-32 45-52 81-52 19 0 38 7 53 18l3-3c5-5 14-7 21-4 7 4 12 11 12 18v30c0 11-9 19-19 19h-30c-8 0-14-4-18-12-3-6-1-14 4-20-8-5-17-8-26-8-21 0-38 12-46 29-4 7-11 11-18 11zm64 101c-20 0-39-7-55-18l-3 3c-3 3-8 5-13 5-3 0-5 0-8-1-7-3-12-10-12-18v-30c0-11 10-19 20-19h30c8 0 14 4 18 12 2 6 1 14-4 20 8 5 17 8 27 8 19 0 37-12 45-29 5-10 16-15 26-10 9 4 13 16 9 26-15 31-45 51-80 51z"/>
</svg>