<svg xmlns="http://www.w3.org/2000/svg" viewBox="0 0 512 512">
	<path d="M261 504c-22 0-42-8-58-24L36 312c-31-31-31-82 0-113L203 32c16-16 37-24 57-24 21 0 41 8 57 24l167 167c32 31 32 82 0 113L317 480c-15 15-36 24-56 24zm0-442c-7 0-14 3-20 8L75 237c-6 5-9 12-9 19 0 6 3 13 9 19l166 166c6 5 12 8 19 8s14-3 19-8l167-166c6-6 9-13 9-19 0-7-3-14-9-19L279 70c-5-5-12-8-18-8zm57 278c-7 0-14-3-20-8l-38-38-38 38c-5 5-12 8-19 8-6 0-13-3-19-8-10-11-10-28 0-38l38-38-38-39c-10-10-10-27 0-37 5-6 12-8 19-8s14 2 19 8l38 38 38-38c6-6 12-8 19-8s14 2 19 8c11 11 11 26 0 37l-38 39 38 38c11 11 11 27 0 38-5 5-11 8-18 8z"/>
</svg>