<svg xmlns="http://www.w3.org/2000/svg" viewBox="0 0 512 512">
	<path d="M256.5 13c141 0 255 114 255 255 0 113-73 209-174 243-14 2-18-6-18-12v-71c0-23-8-39-17-47 57-6 117-28 117-126 0-28-10-51-26-69 2-6 11-32-3-67 0 0-22-7-70 26-21-6-42-9-64-9s-44 3-65 9c-48-33-70-26-70-26-13 35-5 61-2 67-16 18-26 41-26 69 0 98 59 120 116 126-7 7-14 18-16 34-6 3-17 7-30 7-15 0-32-6-44-27 0 0-14-25-40-27 0 0-25 0-2 15 0 0 17 8 29 38 0 0 15 49 86 34v44s-4 14-17 12C74.5 478 .5 381 .5 268c0-141 114-255 256-255z"/>
</svg>