<svg xmlns="http://www.w3.org/2000/svg" viewBox="0 0 512 512">
	<path d="M403.5 37c-7 0-13-5-13-12V14c0-8 6-14 13-14s13 6 13 14v11c0 7-6 12-13 12zm-64 25c-4 0-6-2-9-4l-9-8c-4-5-4-13 0-18 6-6 14-6 19 0l8 7c5 5 5 14 0 19-3 2-6 4-9 4zm130 0c-3 0-6-2-9-4-5-5-5-14 0-19l8-7c5-6 14-6 19 0 4 5 4 13 0 18l-9 8c-3 2-5 4-9 4zm-124 37c1-17 7-29 18-39 12-9 25-14 40-14 32 0 57 21 59 53 1 15-4 29-15 39-2 4-5 7-8 11-1 2-2 4-3 7-1 4-2 7-3 11-2 4-3 7-4 11-1 3-2 6-3 8h-46c-1-2-2-5-3-8-1-4-2-7-3-11s-2-7-4-11c-1-3-2-5-3-7-1-1-3-3-4-5-2-3-3-5-4-6-11-10-16-24-14-39zm26 32c11 13 14 22 19 38h27c0-3 2-8 5-15s6-12 7-14c1-1 2-3 4-5l3-4c8-8 12-19 12-31-2-23-22-40-45-40-12 0-22 5-30 12-9 7-13 17-14 28 0 11 4 22 12 31zm32 381h-314c-43 0-78-35-78-78V173c0-43 35-78 78-78h157c14 0 26 12 26 26s-12 26-26 26h-157c-14 0-26 12-26 26v186l33-33c-2-5-4-10-4-14 0-9 4-16 9-22 6-6 14-9 22-9 9 0 17 3 22 9 6 6 9 13 9 22 0 4-1 9-4 14l51 50c5-2 10-3 14-3l45-97c-9-7-14-16-14-25 0-18 13-30 31-30 9 0 17 2 22 8 6 6 9 13 9 22 0 8-3 15-9 22l37 100c8 0 14 1 19 4l73-70v-17c0-14 12-25 26-25 15 0 27 11 27 25v144c0 43-36 78-78 78zm-81-386h-11c-7 0-13-5-13-12 0-8 6-14 13-14h11c7 0 13 6 13 14 0 7-6 12-13 12zm172 0h-11c-7 0-13-5-13-12 0-8 6-14 13-14h11c8 0 13 6 13 14 0 7-5 12-13 12zm-112 67h42c4 0 6 2 6 5v12c0 3-3 6-6 6h-42c-3 0-5-2-5-6v-12c0-3 2-5 5-5zm21 11c0 4 2 6 6 6 3 0 5-2 5-6s-2-6-5-6c-4 0-6 2-6 6zm-19 21l-4-4h46l-2 4c-6 6-12 8-21 8-8 0-15-2-19-8zm-321 155v54c0 14 12 26 26 26h314c14 0 25-12 25-26V328l-62 61c2 6 3 11 3 14 0 9-3 16-8 22-6 5-14 9-23 9s-16-4-21-9c-7-6-9-13-9-22 0-10 4-20 14-26l-38-98c-2 2-4 2-7 2h-3l-43 96c9 7 15 14 15 26 0 9-3 16-8 22-6 5-14 9-23 9-8 0-16-4-21-9-7-6-10-13-10-22 0-6 3-11 5-16l-49-50c-6 4-11 5-17 5s-11-1-16-5z"/>
</svg>