<svg xmlns="http://www.w3.org/2000/svg" viewBox="0 0 512 512">
	<path d="M498.5 117v277c0 10-5 19-15 24l-204 92c-4 1-7 2-11 2s-7-1-10-2h-1l-204-92c-9-5-15-14-15-24V117c1-3 1-6 2-8 0-2 0-2 1-3 1-2 3-4 5-5v-2c3-2 5-3 7-4l204-92c7-3 15-3 22 0l204 92c3 1 5 2 7 4v2c3 1 4 3 5 5 0 1 0 1 1 2 1 3 1 6 2 9zm-88 1l-142-64-142 64 142 64zm-142 45c-32 0-57-20-57-45 0-24 25-45 57-45 33 0 58 21 58 45 0 25-25 45-58 45zm0-51c-11 0-18 5-19 7 1 1 8 6 19 6 12 0 19-5 19-7 0-1-7-6-19-6zm26 115v83l153-70v-82zm-51 0l-154-69v85l154 63v-79zm51 220l153-69v-82l-153 70v81zm-205-69l154 69v-85l-154-64v80z"/>
</svg>