<svg xmlns="http://www.w3.org/2000/svg" viewBox="0 0 512 512">
	<path d="M89.5 378l154 69v-85l-154-64v80zm0-220v85l154 63v-79zm205 289l153-69v-82l-153 70v81zm-26-335q-8 0-13 2.5t-6 4.5q1 1 6 3.5t13 2.5q9 0 14-2.5t5-4.5q0-1-5-3.5t-14-2.5zm0-58l-142 64 142 64 142-64zm179 186v-82l-153 69v83zm-179-77q-24 0-41-13t-17-32q0-18 17-31.5t41-13.5q25 0 41.5 13.5t16.5 31.5q0 19-16.5 32t-41.5 13zm230-46v277q0 16-15 24l-204 92h-1q-6 2-10 2t-10-2h-1l-204-92q-15-8-15-24V117q1-2 1-4t1-4v-1q0-1 .5-1t.5-1q2-3 5-5v-2q2-2 3.5-2.5t3.5-1.5l204-92q11-5 22 0l204 92q5 1 7 4v2q3 1 5 5 0 1 .5 1t.5 1v1q1 2 1 4t1 4z"/>
</svg>