<svg xmlns="http://www.w3.org/2000/svg" viewBox="0 0 512 512">
	<path d="M243 307h66v40H197v-34l43-76c7-11 13-19 17-26 4-8 4-14 7-22 2-7 3-15 3-23s0-15-3-20c-2-4-6-6-11-6s-9 2-12 5c-3 4-5 11-7 21l-36-8c3-19 9-33 18-44s21-16 37-16c11 0 20 3 29 8 8 6 14 14 18 23 4 11 6 22 6 35s-1 24-4 33-5 18-10 26c-4 8-11 16-18 29zm97 28c-9-13-15-27-17-44l35-8c1 9 4 16 7 21 4 4 9 6 14 6 6 0 11-3 14-8s5-14 5-27c0-21-8-32-25-32h-11v-41h10c8 0 14-2 17-6 4-4 5-15 5-26 0-10-1-18-3-24-2-5-6-7-13-7-2 0-5 1-8 3-1 1-3 3-5 7-1 3-3 7-4 12l-34-8c2-18 8-32 17-41 9-8 20-14 35-14 12 0 23 4 30 9 9 7 15 15 18 24 3 11 5 22 5 32 0 16-2 29-7 38s-13 16-23 21c8 1 14 5 19 10 4 4 8 12 11 19 3 8 4 17 4 28 0 23-6 41-14 53-10 13-24 20-42 20-17 0-30-6-40-17zM76 347v-40h38V153l-35 37v-48l38-40h34v205h29v40H76z"/>
</svg>