<svg xmlns="http://www.w3.org/2000/svg" viewBox="0 0 512 512">
	<path d="M485.5 204c14 0 26 11 26 26v51c0 14-12 25-26 25h-51c-14 0-25-11-25-25h-54l25 37c3 5 5 12 3 19s-6 13-12 16l-19 12 42 43h40c14 0 26 12 26 26v51c0 14-12 25-26 25h-51c-14 0-25-11-25-25v-41l-38-40c-1 0-2 1-3 2l-115 51c-3 1-7 2-10 2-4 0-7-1-10-2l-116-51c-9-4-14-13-14-23v-10l-37-19c-7-3-11-9-14-16-2-7 0-15 4-21l47-70v-10l-47-70c-4-7-6-14-4-22 3-7 8-13 16-16l127-51c13-5 27 1 32 12l16 31 16-31c6-11 19-17 32-12l75 30 43-43V25c0-14 11-25 25-25h51c14 0 26 11 26 25v52c0 13-12 25-26 25h-40l-27 27c7 3 13 9 16 16 2 7 1 15-3 22l-41 63h70c0-15 11-26 25-26h51zm-344-70l-77 31 22 32 71-31zm102 0l-16 31 72 32 21-32zm-51 144l81-36-81-35-81 35zm98 65l32-20-23-37-75 34 19 50zm-132 26l6-48-78-34-23 34z"/>
</svg>