<svg xmlns="http://www.w3.org/2000/svg" viewBox="0 0 512 512">
	<path d="M128.5 430c14 0 26 11 26 25s-12 25-26 25h-103c-14 0-25-11-25-25s11-25 25-25h27V123h-27c-14 0-25-12-25-26s11-26 25-26h52c14 0 25 12 25 26v333h26zm179-359c14 0 25 12 25 26v179c0 14-11 25-25 25h-77v129h77c14 0 25 11 25 25s-11 25-25 25h-102c-14 0-26-11-26-25V276c0-14 12-26 26-26h76V123h-76c-14 0-26-12-26-26s12-26 26-26h102zm179 0c14 0 25 12 25 26v358c0 14-11 25-25 25h-90c-14 0-25-11-25-25s11-25 25-25h65V301h-65c-14 0-25-11-25-25s11-26 25-26h65V123h-65c-14 0-25-12-25-26s11-26 25-26h90z"/>
</svg>