<svg xmlns="http://www.w3.org/2000/svg" viewBox="0 0 512 512">
	<path d="M267 2l224 85c14 5 21 15 21 30v278c0 15-7 25-21 30l-224 85c-2 1-6 2-11 2s-8-1-11-2L21 425c-14-5-21-15-21-30V117c0-15 7-25 21-30L245 2c3-1 6-2 11-2s9 1 11 2zm-11 478l224-85V117L256 32 32 117v278zM128 356V156c0-16 12-28 27-28h202c15 0 27 12 27 28v200c0 16-12 28-27 28H155c-15 0-27-12-27-28zm232 0V156c0-3-1-4-3-4H155c-2 0-3 1-3 4v200c0 3 1 4 3 4h202c2 0 3-1 3-4zm-134-39l-54-54c-2-2-3-4-3-7s1-5 3-6l54-55c2-2 4-3 7-3 4 0 9 5 9 9 0 3-1 5-3 7l-45 45c-1 1-1 2-1 3s0 2 1 3l45 45c2 2 3 4 3 6 0 3-2 9-10 9-1 0-3-1-6-2zm114-54l-54 54c-3 1-5 2-6 2-8 0-10-6-10-9 0-2 1-4 3-6l45-45c1-1 2-2 2-3s-1-2-2-3l-45-45c-2-2-3-4-3-7 0-4 5-9 9-9 3 0 5 1 7 3l54 55c2 1 3 3 3 6s-1 5-3 7z"/>
</svg>