<svg xmlns="http://www.w3.org/2000/svg" viewBox="0 0 512 512">
	<path d="M268.5 14c11 0 20 4 27 13 3 5 6 10 9 16 7-7 15-10 24-10 11 0 20 4 27 13 7 7 10 17 10 29v24c6-6 14-9 23-9s17 3 23 9c5 5 9 12 11 21 3 8 5 20 5 48v123c0 31 0 71-5 108-7 45-16 60-32 79-10 13-25 23-45 29-19 5-36 5-51 5-13 0-25-1-36-3-12-3-23-6-34-13-22-11-40-29-53-54-27-51-51-78-76-119 0-1-1-2-2-3s-1-1-1-2c-7-9-8-15-8-27s4-23 11-32c8-9 18-14 30-14 15 0 20 4 31 15l15 22V90c0-12 3-22 10-29 7-9 16-13 27-13 8 0 16 3 23 8 0-12 3-22 10-29 7-9 16-13 27-13zm0 15c-13 0-23 12-23 27v179c0 6-2 9-7 9s-7-3-7-9V90c0-15-10-27-23-27-12 0-23 12-23 27v218c0 4-2 6-6 6-1 0-3-1-5-3-5-7-12-18-19-27l-1-1v-1h-1v-1l-1-1-1-1v-1c-1 0-1 0-1-1l-1-1-1-1v-1h-1v-1l-1-1-1-1v-1h-1v-1c-1 0-1 0-1-1-5-6-11-9-18-9-15 0-27 13-27 32 0 5 1 10 4 17 1 3 3 5 5 8 27 44 52 72 77 119s63 63 110 63c31 0 63-4 86-29 30-35 33-116 33-178 0-27-1-52-1-79 0-13 1-28 1-44 0-33-2-64-25-64-12 0-22 12-22 28v121c0 6-3 9-8 9s-7-3-7-9V75c0-15-11-27-23-27-13 0-22 12-22 27v167c0 6-3 9-8 9s-7-3-7-9V56c0-15-10-27-23-27z"/>
</svg>