<svg xmlns="http://www.w3.org/2000/svg" viewBox="0 0 512 512">
	<path d="M474 93H38C17 93 0 76 0 55s17-39 38-39h436c21 0 38 18 38 39s-17 38-38 38zm0 174H38c-21 0-38-17-38-38s17-38 38-38h436c21 0 38 17 38 38s-17 38-38 38zM247 512h-28l77-201h29l82 201h-30l-23-61h-85zm31-83h68l-37-97zm-110 10H38c-21 0-38-17-38-39 0-21 17-38 38-38h130c21 0 38 17 38 38 0 22-17 39-38 39zm265 71h-16V368h17v50c8-8 18-13 29-13 16 0 26 5 33 16 6 11 10 23 10 36 0 27-14 55-44 55-12 0-22-5-29-15v13zm0-52c0 9 2 18 6 26 3 9 11 13 21 13 11 0 19-4 22-13 5-9 6-18 6-26 0-9-1-18-6-27-3-8-11-11-21-11-8 0-15 3-20 9-5 7-8 16-8 29z"/>
</svg>