<svg xmlns="http://www.w3.org/2000/svg" viewBox="0 0 512 512">
	<path d="M256 422q35 0 65.5-13t53-35.5 35-52.5 12.5-65-12.5-65.5-35-53-53-35.5T256 89t-65.5 13-53 35.5-35.5 53T89 256t13 65 35.5 52.5 53 35.5 65.5 13zm115-224v111q0 17-11.5 28.5T331 349H181q-17 0-28.5-11.5T141 309V198l96 61q8 5 19 5t17-5zm-112 39q-4 4-8 0l-99-63q12-12 29-12h150q15 0 29 12zM256 0q53 0 99.5 20T437 74.5t55 81.5 20 100-20 99.5-55 81-81.5 54.5-99.5 20-99.5-20T75 436.5t-55-81T0 256t20-100 55-81.5T156.5 20 256 0z"/>
</svg>