<svg xmlns="http://www.w3.org/2000/svg" viewBox="0 0 512 512">
	<path d="M47.375 16c13 4 21 18 17 32-11 38-11 80 0 119 4 14-4 28-17 32-2 1-5 1-7 1-11 0-21-7-24-18-15-49-15-100 0-149 4-13 18-21 31-17zm452 17c15 49 15 100 0 149-3 11-13 18-24 18-3 0-5 0-7-1-14-4-21-18-17-32 11-39 11-81 0-119-4-14 3-27 17-32 13-3 27 4 31 17zm-189 128l98 318c4 14-4 27-16 31-3 1-6 2-8 2-11 0-21-7-24-18l-18-58h-169l-18 58c-3 11-13 18-24 18-3 0-5-1-8-2-12-4-20-17-16-31l98-318c-14-13-24-32-24-53 0-42 34-76 76-76 43 0 77 34 77 76 0 21-10 40-24 53zm115-95c6 27 6 56 0 83-5 18-16 19-31 19-14-4-22-17-19-31 5-19 5-40 0-59 0-2 0-5-1-7-4-14 3-27 17-31 13-4 27 3 31 17zm-304 102c-15 0-26-1-31-19-6-27-6-56 0-83l3-9c4-14 18-21 31-17 14 4 21 17 17 31-1 2-1 5-1 7-5 19-5 40 0 59 3 14-5 27-19 31zm136-86c-13 0-25 12-25 26 0 13 12 24 25 24 14 0 26-11 26-24 0-14-12-26-26-26zm0 101h-6l-17 56h47l-17-56h-7zm-39 106l-6 20h91l-6-20h-79zm-22 71l-8 25h138l-7-25h-123z"/>
</svg>