<svg xmlns="http://www.w3.org/2000/svg" viewBox="0 0 512 512">
	<path d="M83 399h11c22 0 45-2 67-5 0-3 1-5 1-8-13-11-25-24-37-36-41-46-70-98-87-146-4 17-6 34-6 52 0 55 19 104 51 143zm173 81c24 0 47-3 69-11-31-6-60-17-86-31-9 7-19 12-31 12-18 0-33-10-42-24-14 2-27 3-38 4-5 0-9 0-13 1 39 31 88 49 141 49zm122-35c12-8 23-17 33-27-11-7-22-14-32-22-6 4-14 6-22 6-16 0-31-8-39-21-21 10-42 18-62 24 0 2-1 4-1 6 36 18 77 31 123 34zM199 40c-53 13-99 47-129 91 48 32 102 55 157 72 2-3 4-6 7-8-3-6-5-12-7-18-15-45-21-90-28-137zM76 173c-6-4-12-8-17-11 17 75 66 147 123 199 8-5 17-7 26-7 16 0 31 8 39 20 21-6 41-14 62-24 1-6 2-11 4-16-15-19-28-38-40-57h-6c-25 0-45-19-47-43-51-14-98-35-144-61zm238 44c49 3 103-2 157-22-26-94-113-163-215-163-8 0-17 1-25 2 1 7 1 17 3 28 3 27 10 64 24 104 1 5 3 10 5 15h4c23 0 42 15 47 36zm-12 46c10 16 21 32 34 48 6-4 13-5 21-5 7 0 13 1 19 4 28-20 54-45 77-76-49 14-97 18-142 15-2 5-5 10-9 14zm178-7v-4c-24 32-52 59-80 80 3 7 5 14 5 22 0 6-1 13-4 19 10 7 21 14 32 21 29-38 47-86 47-138zM256 0c141 0 256 115 256 256 0 142-115 256-256 256S0 398 0 256c0-38 9-75 24-108 0-1 0-2-1-3l3-1C67 59 155 0 256 0z"/>
</svg>