<svg xmlns="http://www.w3.org/2000/svg" viewBox="0 0 512 512">
	<path d="M433.75 102c-6 0-12-2-17-7-10-10-11-26 0-36l50-49c5-5 11-8 18-8 6 0 12 3 17 8 10 10 10 25 0 35l-50 50c-4 5-11 7-18 7zm-99 100c-6 0-13-2-18-7-10-10-10-26 0-36l50-50c5-5 12-7 18-7s13 2 17 7c10 10 10 26 0 36l-50 50c-5 5-11 7-17 7zm-100 100c-7 0-13-3-18-8-10-9-10-25 0-35l50-49c5-5 11-8 18-8 6 0 12 3 17 8 10 9 10 25 0 34l-49 50c-5 5-12 8-18 8zm-100 100c-6 0-13-2-18-7-10-10-10-26 0-36l50-50c5-5 12-8 18-8 7 0 13 3 18 8 9 10 9 26 0 36l-51 50c-4 5-11 7-17 7zm-102 110c-6 0-13-2-18-7-9-10-9-26 0-36l50-50c5-5 12-8 18-8s13 3 17 8c10 10 10 26 0 36l-50 50c-5 5-11 7-17 7z"/>
</svg>