<svg xmlns="http://www.w3.org/2000/svg" viewBox="0 0 512 512">
	<path d="M205 95V6c0-4 2-6 7-6h89c4 0 7 2 7 6v89c0 5-3 7-7 7h-89c-5 0-7-2-7-7zM102 197v-88c0-5 2-7 7-7h90c4 0 6 2 6 7v88c0 5-2 7-6 7h-90c-5 0-7-2-7-7zm206 1v-89c0-5 1-7 5-7h90c4 0 6 2 6 7v89c0 5-2 7-6 7h-90c-4 0-5-2-5-7zM205 301v-89c0-5 2-7 7-7h89c4 0 7 2 7 7v89c0 5-3 7-7 7h-89c-5 0-7-2-7-7zm204 0v-89c0-5 3-7 7-7h90c4 0 6 2 6 7v89c0 5-2 7-6 7h-90c-4 0-7-2-7-7zM0 301v-89c0-5 2-7 6-7h90c4 0 6 2 6 7v89c0 5-2 7-6 7H6c-4 0-6-2-6-7zm407 7h2v95c0 4-2 6-6 6h-90c-4 0-5-2-5-6v-90c0-4 1-6 5-6h90c3 0 3 0 4 1zm-298 0h90c4 0 6 2 6 6v90c0 4-2 6-6 6h-90c-5 0-7-2-7-6v-90c0-4 2-6 7-6zm96 198v-90c0-5 2-7 7-7h89c4 0 7 2 7 7v90c0 3-3 6-7 6h-89c-5 0-7-3-7-6z"/>
</svg>