<svg xmlns="http://www.w3.org/2000/svg" viewBox="0 0 512 512">
	<path d="M381.255 478.066H108.788q-21.958 0-41.919-9.481t-34.931-25.95T8.483 404.71 0 358.3t8.483-46.41 22.956-37.925 33.434-26.448 40.92-9.98q3.993-29.942 17.466-56.39t33.435-45.412 45.411-29.942 53.396-10.978q42.916 0 79.844 25.95t56.889 69.863q25.95 1.996 47.407 13.972t37.926 31.439 25.45 44.413T512 334.347q0 29.941-9.98 56.39t-27.946 45.91-41.918 30.44-50.9 10.98zm-272.467-189.63q-23.954 0-40.92 20.46T50.9 358.3t16.966 48.905 40.92 19.96h272.468q32.936 0 55.891-26.947t22.955-65.871q0-39.922-22.955-66.87t-55.89-26.947h-5.989q-18.963 0-24.951-15.969-10.979-34.931-37.427-56.888T255.5 145.715q-20.96 0-38.924 8.983t-31.439 24.951-21.458 37.427-7.984 46.41q0 10.978-6.986 17.964t-17.965 6.987h-21.957zm179.649 109.786h-74.854q-16.967 0-27.447-10.48t-10.48-27.446v-55.89q0-23.954 18.964-32.936v-22.955q0-22.956 16.468-39.423t40.42-16.468q22.956 0 39.424 16.468t16.468 39.423v22.955q17.965 9.98 17.965 32.935v55.891q0 16.967-10.48 27.447t-26.448 10.48zm-75.852-92.818l1.996 54.892h73.856l-.998-54.892h-74.854zm20.959-38.924h34.932v-17.965q0-7.985-4.99-12.975t-11.977-4.99q-7.985 0-12.975 4.99t-4.99 12.975v17.965z"/>
</svg>