<svg xmlns="http://www.w3.org/2000/svg" viewBox="0 0 512 512">
	<path d="M27 413q0 27 16 46.5T85 484V344q-26 5-42 24t-16 45zm84-69v51l48-18q-8-13-20-22t-28-11zm58 69q0-8-1-12l-57 22v61q26-5 42-24.5t16-46.5zm172-258q8 8 13 19t7 22h29q1-5 6-16 5-8 7-15 2-2 4.5-5t3.5-5q13-15 13-33-3-19-16-30-12-12-32-12-19 0-33 12-13 13-14 30-1 16 12 33zm35 78q0 6 6 6t6-6-6-6-6 6zM98 511h-1q-20 0-37.5-7.5t-30.5-21T8.5 451 1 413q0-40 28-68t68-29h1q20 0 37.5 8t31 21 21 30.5T195 413t-7.5 38-21 31.5-31 21T98 511zm167 1q-8 0-13-6-6-5-6-13t6-14l60-61-60-60q-6-6-6-14t6-14 14-6q7 0 13 6l74 75q6 6 6 13 0 6-6 14l-74 74q-5 6-14 6zm75 0q-8 0-14-6-5-5-5-13.5t5-13.5l61-61-61-60q-5-6-5-14.5t5-13.5q6-6 14-6t14 6l74 75q6 4 6 13 0 8-6 14l-74 74q-6 6-14 6zm79 0q-6 0-14-6-5-5-5.5-13.5T405 478l61-60-61-60q-6-6-5.5-14.5T405 330q6-6 13.5-5.5T432 330l75 74q6 6 6 14 0 7-6 13l-75 75q-6 6-13 6zM3 147q0-3 4-3h44q4 0 4 3v114q0 3-4 3H7q-4 0-4-3V147zm75-86q0-4 5-4h42q5 0 5 4v200q0 3-5 3H83q-5 0-5-3V61zm78 132h43q4 0 4 4v63q0 4-4 4h-43q-4 0-4-4v-63q0-4 4-4zm133-44h-11q-13 0-13-13t13-13h11q13 0 13 13t-13 13zm18-69q-5 0-9-4l-9-8q-9-9 0-18 4-4 9.5-4t9.5 4l9 8q9 9 0 18-4 4-10 4zm6 41q3-26 20-42 20-15 43-15 27 0 43.5 15.5T439 121q1 23-16 42l-9 12q0 1-1 3l-2 4q-4 13-8 23 0 3-1 5t-1 4h-50l-3-9q-1-3-1.5-5.5T345 194q-2-4-2-6.5t-2-5.5q-1-5-4-7-2-2-2-3.5t-2-3.5q-1-2-4-5-18-18-16-42zm38 131h50l-3 4q-10 8-22 8-13 0-21-8zm24-197q-13 0-13-13V29q0-13 13-13t13 13v13q0 13-13 13zm-21 166h44q6 0 6 6v12q0 3-1 5-2 2-5 2h-44q-6 0-6-7v-12q0-6 6-6zm92-141q-5 0-9-4-9-9 0-18l9-8q9-9 18 0t0 18l-9 8q-3 4-9 4zm28 69h-13q-13 0-13-13t13-13h13q13 0 13 13t-13 13z"/>
</svg>