<svg xmlns="http://www.w3.org/2000/svg" viewBox="0 0 512 512">
	<path d="M467.5 256c-14 0-25-12-25-26v-61l-190-119c-12-7-15-23-8-34 5-8 13-12 22-12 4 0 9 1 13 4l201 126c8 5 12 12 12 21v75c0 14-11 26-25 26zm-252 226c-4 0-9-1-14-5l-151-100c-7-4-11-13-11-21V155c0-9 4-16 12-21l101-64c8-4 18-4 26 0l201 126c8 5 12 13 12 22v88c0 14-11 25-25 25s-25-11-25-25v-74l-176-110-76 47v174l140 93c11 7 15 23 7 34-5 8-13 12-21 12zm0-106c-4 0-9-1-13-3l-51-34c-11-7-15-23-7-35 5-7 13-11 20-11 5 0 10 2 15 5l50 32c11 8 15 23 7 35-5 8-13 11-21 11zm67 136c-5 0-9 0-13-5-8-7-8-19 0-27l43-43-43-42c-8-7-8-20 0-27 4-4 9-6 14-6s10 2 13 6l56 56c3 4 5 8 5 13 0 6-2 10-5 14l-56 56c-3 5-9 5-14 5zm70 0c-4 0-9 0-13-5-8-7-8-19 0-27l43-43-43-42c-8-7-8-20 0-27 4-4 9-6 14-6 4 0 9 2 13 6l56 56c4 3 6 8 6 13 0 6-2 11-6 14l-56 56c-4 5-9 5-14 5zm71 0c-5 0-10 0-14-5-7-7-7-19 0-27l43-43-43-42c-7-7-7-20 0-27 4-4 9-6 14-6s10 2 13 6l56 56c4 3 6 8 6 13 0 6-2 11-6 14l-56 56c-4 5-8 5-13 5z"/>
</svg>