<svg xmlns="http://www.w3.org/2000/svg" viewBox="0 0 512 512">
	<path d="M32 80h256c19 0 32 13 32 32v256c0 19-13 32-32 32H32c-19 0-32-13-32-32V112c0-19 13-32 32-32zm256 288V112H32v256h256zM89 240l55 56c3 3 5 5 5 8s-2 6-5 9c-2 2-5 3-8 3s-6-1-8-3l-58-58c-8-7-8-23 0-30l57-58c3-2 6-3 9-3s6 1 8 3c3 3 5 6 5 9s-2 5-5 8zm103-73l58 58c8 7 8 23 0 30l-57 58c-2 2-5 3-8 3s-6-1-9-3c-3-3-4-6-4-9s1-5 4-8l55-56-55-56c-3-3-4-5-4-8s1-6 4-9c2-2 5-3 8-3s6 1 8 3zm313 59c5 7 7 18 7 33 0 35-20 58-55 65-11 1-19 2-30 2h-30v74h-45V192h75c29 0 63 5 78 34zm-46 57c5-5 8-13 8-23 0-9-3-17-8-22-7-5-17-8-31-8h-31v61h31c14 0 24-3 31-8z"/>
</svg>