<svg xmlns="http://www.w3.org/2000/svg" viewBox="0 0 512 512">
	<path d="M303.5 412q-9 0-16 7-7 6-7 16 0 11 7 17 6 6 16 6 9 0 16-6 6-6 6-17 0-10-6-16-9-7-16-7zm-193-83q0-33 10-61.5t36-49.5q17-12 40-12h127q32 0 38-6 7-6 7-16V68q0-20-15-32.5t-33-15.5q-13-1-35-3h-67l-27 3q-8 2-14.5 3.5T165.5 27q-8 4-13.5 9.5T146.5 51q-2 10-2 17v30h121v48h-183q-49 0-59 49-4 16-5.5 31t.5 29q1 14 3.5 30t5.5 33q12 50 50 50h33v-39zm86-106q-18 0-32.5 10.5T141.5 261q-9 15-12 34-4 17-4 34v55h-48q-27 0-43-17-17-23-24-52.5t-9-58.5q-3-30 6-65 7-28 28-46 21-15 47-15h167v-16h-122V68q0-26 12-41 6-9 19.5-14t29-8 31.5-4 27-1h2q19 0 38 .5t37 4.5q24 5 42.5 21t18.5 42v116q0 13-5.5 21t-14 12-19.5 5-22 1h-127zm305-32q10 36 10 66 0 11-2 25t-6 28.5-10 27-13 21.5q-12 16-39 16h-192v16h122v46q0 20-12.5 34t-30.5 22-38.5 11.5-37.5 3.5q-12 0-24-3-17-2-34-8t-27-20q-4-8-6.5-17.5t-2.5-22.5V331q0-12 5-26.5t13-23.5q4-6 9-10l10-8q11-7 24-7h121q31 0 53-21 23-19 23-51v-54h25q28 0 41.5 18.5t18.5 42.5zm-298-154q8 0 17 7 6 6 6 16 0 23-23 23-9 0-15-6-7-9-7-17t7-15.5 15-7.5z"/>
</svg>