<svg xmlns="http://www.w3.org/2000/svg" viewBox="0 0 512 512">
	<path d="M224.89 265.87L484.763 5.997C487.762 3 491.76 1 495.758 1s7.996 1.999 10.995 4.997c6.996 6.997 6.996 14.993 0 21.99L246.879 288.858h88.957c10.995 0 15.992 4.998 15.992 15.992s-4.997 15.992-15.992 15.992H208.898c-10.995 0-15.992-4.997-15.992-15.992V174.914c0-7.996 6.996-13.993 15.992-13.993 7.996 0 15.992 7.997 15.992 15.993v88.956zM495.758 96.953c7.996 0 15.992 6.996 15.992 15.992v282.862c0 12.993-8.995 24.988-20.99 29.985l-223.89 84.959c-3.998 1-7.996 1.999-10.995 1.999s-6.997-1-11.994-2L20.99 425.793C6.997 420.795 0 410.8 0 395.807V117.942c0-14.992 6.997-24.987 20.99-29.985L244.88 3c3.998-1 6.997-2 10.995-2 2.999 0 6.997 1 10.995 2l90.955 34.982c18.991 6.997 19.99 13.994 19.99 18.991 0 1 0 2.999-.999 4.998-2.999 6.996-7.996 9.995-14.993 9.995-3.998 0-8.995-1-15.992-3.998l-89.956-34.983-223.89 84.958v277.865l223.89 84.958 223.89-84.958V112.945c0-8.996 4.998-14.993 15.993-15.992z"/>
</svg>