<svg xmlns="http://www.w3.org/2000/svg" viewBox="0 0 512 512">
	<path d="M1 400v-96c0-27 21-48 48-48h32V115c0-13 6-19 19-19h9c11 0 20 8 20 19v141h256V115c0-13 6-19 19-19h11c11 0 18 8 18 19v141h32c27 0 48 21 48 48v96c0 27-21 48-48 48H49c-27 0-48-21-48-48zm32-93v89c0 11 8 20 19 20h9c15 0 20-11 20-20v-89c0-11-9-19-20-19h-9c-11 0-19 8-19 17v2zm320 1v88c0 11 8 20 19 20h9c11 0 20-9 20-20v-88c0-11-9-20-20-20h-9c-11 0-19 9-19 20zm80 0v88c0 11 8 20 19 20h9c11 0 20-9 20-20v-88c0-11-9-20-20-20h-9c-11 0-19 9-19 20zm-160 0v88c0 11 8 20 19 20h9c11 0 20-9 20-20v-88c0-11-9-20-20-20h-9c-11 0-19 9-19 20zm-80 0v88c0 11 8 20 19 20h9c11 0 20-9 20-20v-88c0-11-9-20-20-20h-9c-11 0-19 9-19 20zm-61 108h9c11 0 20-9 20-20v-88c0-11-9-20-20-20h-9c-11 0-19 9-19 20v88c0 11 8 20 19 20z"/>
</svg>