<svg xmlns="http://www.w3.org/2000/svg" viewBox="0 0 512 512">
	<path d="M410 224c58 0 102 39 102 88v81c0 49-44 87-102 87H102C45 480 0 442 0 393v-81c0-49 45-88 102-88V96c0-14 12-26 27-26 14 0 25 12 25 26v128h205V96c0-14 12-26 26-26s25 12 25 26v128zm52 179V301c0-14-12-25-27-25-14 0-25 11-25 25v102c0 14 11 27 25 27 15 0 27-13 27-27zm-90 0V301c0-14-12-25-26-25s-25 11-25 25v102c0 14 11 27 25 27s26-13 26-27zm-90 0V301c0-14-12-25-26-25s-25 11-25 25v102c0 14 11 27 25 27s26-13 26-27zm-90 0V301c0-14-11-25-25-25-15 0-26 11-26 25v102c0 14 11 27 26 27 14 0 25-13 25-27zm-90 0V301c0-14-11-25-25-25s-25 11-25 25v102c0 14 11 27 25 27s25-13 25-27z"/>
</svg>