<svg xmlns="http://www.w3.org/2000/svg" viewBox="0 0 512 512">
	<path d="M483.5 60h-453c-16 0-28-13-28-29 0-15 12-28 28-28h453c15 0 28 13 28 28 0 16-13 29-28 29zm0 113h-227c-15 0-28-13-28-29 0-15 13-28 28-28h227c15 0 28 13 28 28 0 16-13 29-28 29zm-453 198c-7 0-14-3-20-9-11-11-11-28 0-39l65-65-65-65c-11-12-11-29 0-40 6-6 13-8 20-8s15 2 20 8l85 84c11 11 11 30 0 41l-85 84c-6 6-13 9-20 9zm453-85h-227c-15 0-28-13-28-28 0-16 13-28 28-28h227c15 0 28 12 28 28 0 15-13 28-28 28zm0 113h-227c-15 0-28-13-28-28 0-16 13-29 28-29h227c15 0 28 13 28 29 0 15-13 28-28 28zm0 113h-453c-16 0-28-12-28-28s12-29 28-29h453c15 0 28 13 28 29s-13 28-28 28z"/>
</svg>