<svg xmlns="http://www.w3.org/2000/svg" viewBox="0 0 512 512">
	<path d="M114.776 311.392L3.992 203.602C.998 200.608 0 198.612 0 196.616c0-2.994 1.996-4.99 4.99-7.984l24.952-25.95c2.994-1.996 5.988-2.994 7.984-2.994 2.994 0 4.99.998 6.986 2.994l149.708 148.71c2.994 1.996 3.992 3.992 3.992 6.986s-.998 4.99-3.992 7.985L44.912 476.07c-2.994.998-4.99 1.996-6.986 1.996-.998 0-3.992-.998-7.984-1.996l-25.95-25.95C.998 447.128 0 444.134 0 442.137c0-2.994.998-4.99 3.992-6.986l110.784-108.787c3.992-3.993 3.992-11.977 0-14.971zm77.848-95.813v-47.906c0-4.99 2.994-7.985 7.984-7.985h303.408c4.99 0 7.984 2.994 7.984 7.985v47.906c0 4.99-2.994 7.984-7.984 7.984H200.608c-4.99 0-7.984-2.994-7.984-7.984zm96.81 127.75v-47.906c0-4.99 2.995-7.984 7.985-7.984h206.597c4.99 0 7.984 2.994 7.984 7.984v47.906c0 4.99-2.994 7.985-7.984 7.985H297.419c-4.99 0-7.984-2.994-7.984-7.985zm-96.81 127.75v-47.906c0-4.99 2.994-7.984 7.984-7.984h303.408c4.99 0 7.984 2.994 7.984 7.984v47.907c0 4.99-2.994 7.984-7.984 7.984H200.608c-4.99 0-7.984-2.994-7.984-7.984z"/>
</svg>