<svg xmlns="http://www.w3.org/2000/svg" viewBox="0 0 512 512">
	<path d="M7 151c4-5 10-7 17-7h21l9-22-15-15c-5-5-7-11-7-17s2-11 7-16l35-35c5-5 10-7 16-7 7 0 12 2 17 7l15 15 22-9V24c0-7 2-13 7-17 4-5 10-7 17-7h48c7 0 13 2 17 7 5 4 7 10 7 17v21l22 9 15-15c5-5 10-7 17-7 6 0 12 2 17 7l34 35c5 4 7 9 7 16 0 5-2 10-5 15h-34l15-15-34-34-28 27-50-21V24h-48v38l-50 21-28-27-34 34 27 28-21 50H24v48h38l21 50-27 28 34 34 15-16v32c-5 5-10 8-15 8-7 0-12-2-16-7l-35-34c-5-5-7-11-7-17 0-7 2-12 7-17l15-15-9-22H24c-7 0-13-2-17-7-5-5-7-10-7-17v-48c0-7 2-13 7-17zm121 193v-48c0-7 2-13 7-17 4-5 10-7 17-7h21l9-22-15-15c-5-5-7-10-7-17s2-12 7-16l34-35c5-5 11-7 17-7 7 0 12 2 17 7l15 15 22-9v-21c0-7 2-13 7-17 4-5 10-7 17-7h48c7 0 13 2 17 7 5 4 7 10 7 17v21l22 9 15-15c5-5 10-7 17-7 6 0 11 2 16 7l35 35c5 5 7 10 7 16s-2 12-7 17l-15 15 9 22h21c7 0 13 2 17 7 5 4 7 10 7 17v48c0 7-2 12-7 17-4 5-10 7-17 7h-21l-9 22 15 15c5 5 7 11 7 17s-2 12-7 17l-35 34c-4 5-9 7-16 7s-13-2-17-7l-15-15-22 9v21c0 7-2 12-7 17-4 5-10 7-17 7h-48c-7 0-13-2-17-7-5-5-7-10-7-17v-21l-22-9-15 15c-4 5-10 7-17 7s-12-2-17-7l-34-34c-5-5-7-10-7-17s2-12 7-17l15-15-9-22h-21c-7 0-13-2-17-7-5-5-7-10-7-17zm62-48h-38v48h38l21 51-27 27 34 34 28-28 50 21v39h48v-39l50-21 28 28 34-34-28-27 21-51h39v-48h-39l-21-50 28-28-34-34-28 27-23-10-3 3v-4l-24-10v-38h-48v38l-50 21-28-27-34 34 27 28zm58 28c0-39 27-76 68-76 39 0 56 16 72 48 3 7 4 13 4 20 0 39-27 76-68 76-11 0-20-1-28-4-3-1-4-2-7-3-23-11-41-34-41-61zm48-45c-15 11-24 22-24 41 0 27 21 48 48 48 9 0 17-2 24-6 15-7 24-27 24-42 0-8-2-16-7-24-11-15-22-24-41-24-9 0-17 2-24 7z"/>
</svg>