<svg xmlns="http://www.w3.org/2000/svg" viewBox="0 0 512 512">
	<path d="M171.441 316l3 14-35 44c-5-6-9-13-11-21l-5-21-26-16-18 8c-5 2-10 3-16 3-15 0-29-8-38-23l-14-27c-10-19-3-43 14-53l12-10v-29l-14-11c-16-12-21-34-12-53l13-24c6-15 21-25 37-25 6 0 12 1 18 4l18 7 26-15 5-22c5-20 21-34 42-34h26c21 0 38 14 43 35l4 21 26 15 18-7c5-3 11-4 17-4 15 0 29 9 38 23l13 27s0 1 1 2h-56l-15 6c-7 2-12 3-18 3-9 0-17-3-22-7l-30-17c-12-8-17-18-19-26l-5-21h-15l-5 18c-2 7-8 23-22 30l-29 17c-7 5-20 10-37 4l-17-7-7 14 11 9c10 7 17 20 17 35v36c0 14-7 27-18 35l-10 8 7 14 16-7c18-5 31 0 39 4l30 18c12 8 19 18 20 26zm321 34c17 12 22 34 12 53l-12 25c-6 14-21 23-38 23-6 0-11-1-17-3l-18-7-26 15-5 22c-5 20-21 34-43 34h-25c-21 0-39-14-43-35l-4-20-27-16-17 7c-6 2-12 4-17 4-15 0-29-9-38-23l-14-26c-9-20-3-43 15-54l12-10v-29l-14-11c-16-12-22-34-13-53l13-25c6-15 21-24 38-24 6 0 11 1 17 3l18 8 26-16 5-21c5-20 22-34 43-34h25c22 0 38 14 43 34l5 21 26 16 18-7c5-2 11-3 16-3 15 0 29 7 38 22l13 26c5 9 6 19 4 29-2 11-9 20-17 25l-13 10v29zm-42 50l7-14-12-9c-10-7-17-20-17-34v-37c0-14 7-27 19-35l10-8-7-14-16 7c-18 6-32 0-39-5l-30-17c-13-9-17-18-20-26l-5-21h-15l-4 19c-2 7-9 22-23 28l-29 18c-7 4-19 10-36 4l-18-7-7 14 12 9c10 7 16 20 16 34v37c0 14-6 27-18 34l-10 9 7 14 16-7c19-6 31-1 40 5l29 17c13 9 18 18 20 26l5 21h15l4-19c3-7 8-22 23-29l28-17c7-5 20-10 38-4zm-117-154c44 0 79 34 79 79 0 44-35 78-79 78-45 0-80-34-80-78 0-45 35-79 80-79zm0 107c17 0 29-12 29-28 0-17-12-30-29-30s-30 13-30 30c0 16 13 28 30 28z"/>
</svg>