<svg xmlns="http://www.w3.org/2000/svg" viewBox="0 0 512 512">
	<path d="M256 0c142 0 256 116 256 256 0 143-115 256-256 256C114 512 0 396 0 256 0 114 116 0 256 0zm0 486c127 0 230-104 230-230 0-128-104-230-230-230C128 26 25 129 25 256c0 128 106 230 231 230zm0-358c34 0 64 12 91 37 25 27 37 57 37 91 0 71-58 128-128 128-35 0-67-13-90-38-25-23-38-55-38-90 0-71 58-128 128-128zm0 232c59 0 104-47 104-104 0-27-10-52-30-74-22-20-47-30-74-30-59 0-104 47-104 104 0 27 11 54 31 73 19 20 46 31 73 31zm0-96h60c8 0 12 4 12 12s-4 12-12 12h-84v-84c0-8 4-12 12-12s12 4 12 12v60z"/>
</svg>