<svg xmlns="http://www.w3.org/2000/svg" viewBox="0 0 512 512">
	<path d="M389.5 473q35 0 59.5-24t24.5-59-24.5-59.5-59.5-24.5-59 24.5-24 59.5 24 59 59 24zm-5-265q-37 0-69.5 14t-56.5 38-38 56-14 68q0 21 4.5 39.5t12.5 35.5h-197q-14 0-23-12-7-15 1-26l237-404q8-12 22-12 16 0 22 12l113 191h-14zm5 60q25 0 47.5 9.5t39 26 26 38.5 9.5 48q0 25-9.5 47.5t-26 39-39 26-47.5 9.5-47.5-9.5-39-26-26-39-9.5-47.5q0-26 9.5-48t26-38.5 39-26 47.5-9.5zm38 109q8 0 14 5.5t6 13.5-6 14-14 6h-38q-8 0-13.5-6t-5.5-14v-51q0-19 19-19 8 0 13.5 5.5t5.5 13.5v32h19z"/>
</svg>