<svg xmlns="http://www.w3.org/2000/svg" viewBox="0 0 512 512">
	<path d="M389.5 474q17 0 32.5-6.5t26.5-18T466 423t6.5-33q0-34-24-58.5t-59-24.5q-34 0-58.5 24.5T306.5 390q0 18 6.5 33t18 26.5 26.5 18 32 6.5zm0-264q-35 0-66.5 12.5t-55.5 35-39 53-17 66.5q-2 30 6.5 58.5t24.5 51.5h-193q-20 0-34-14.5T1.5 438V49q0-20 14-34.5T49.5 0h390q20 0 34.5 14.5T488.5 49v193q-44-32-99-32zm0 59q25 0 47.5 9.5t39 26 26 38.5 9.5 47-9.5 47.5-26 39-39 26-47.5 9.5-47.5-9.5-39-26-26-39-9.5-47.5 9.5-47 26-38.5 39-26 47.5-9.5zm39 109q8 0 13.5 5.5t5.5 13.5-5.5 13.5-13.5 5.5h-39q-8 0-13.5-5.5t-5.5-13.5v-51q0-8 5.5-13.5t13.5-5.5 14 5.5 6 13.5v32h19z"/>
</svg>