<svg xmlns="http://www.w3.org/2000/svg" viewBox="0 0 512 512">
	<path d="M305.5 120c-22 0-39 17-39 38v97c-36 33-58 80-58 131 0 37 11 71 31 100h-190c-26 0-48-22-48-49V49c0-27 22-49 48-49h389c27 0 48 22 48 49v194c-28-21-64-34-102-34-14 0-28 2-41 6v-57c0-21-18-38-38-38zm-96 208V158c0-21-16-38-38-38-21 0-38 17-38 38v170c0 21 17 38 38 38 22 0 38-17 38-38zm180-59c67 0 122 55 122 122s-55 121-122 121c-66 0-121-54-121-121s55-122 121-122zm0 205c46 0 83-37 83-83s-37-83-83-83c-45 0-83 37-83 83s38 83 83 83zm39-96c10 0 18 9 18 19 0 11-8 19-18 19h-39c-10 0-19-8-19-19v-51c0-10 9-19 19-19 11 0 20 9 20 19v32h19z"/>
</svg>