<svg xmlns="http://www.w3.org/2000/svg" viewBox="0 0 512 512">
	<path d="M98 70c31 0 56 31 56 70v340h-52V300H52v180H0V140c0-39 25-70 55-70h43zm389 128c-14 0-25-11-25-25v-40c0-7-6-11-13-11h-28c-6 0-11 4-11 11v284c0 7 5 13 11 13h28c7 0 13-6 13-13v-39c0-14 11-25 25-25s25 11 25 25v39c0 35-28 63-63 63h-28c-34 0-62-28-62-63V133c0-35 28-63 62-63h28c35 0 63 28 63 63v40c0 14-11 25-25 25zM257 70c42 0 76 34 76 77v76c0 20-7 38-19 52 12 13 19 32 19 52v76c0 43-34 77-76 77h-78V70h78zM52 249h50V140c0-11-4-18-6-19l-41 1c1 0-3 7-3 18v109zm230-26v-76c0-14-11-25-25-25h-26v127h25c15 0 26-11 26-26zm0 180v-76c0-15-11-26-25-26h-26v129h26c14 0 25-13 25-27z"/>
</svg>