<svg xmlns="http://www.w3.org/2000/svg" viewBox="0 0 512 512">
	<path d="M154 512H77c-43 0-77-37-77-83V83C0 37 34 0 77 0h358c43 0 77 37 77 83v87c0 14-11 25-25 25-15 0-26-11-26-25V83c0-17-12-32-26-32H77c-14 0-26 15-26 32v346c0 17 12 32 26 32h77c14 0 25 11 25 26 0 14-11 25-25 25zm96-286c-29 0-59-4-81-13v107c3 6 31 19 81 19 11 0 19 9 19 20 0 10-8 19-19 19-60 0-120-18-120-57V169c0-39 60-57 120-57s121 18 121 57v87c0 11-9 20-20 20-10 0-19-9-19-20v-43c-22 9-52 13-82 13zm-81-57c6 7 34 19 81 19 48 0 75-12 81-19-6-6-33-18-81-18-47 0-75 12-81 18zm318 254h-1c-2 7-5 13-8 20l4 3c10 11 10 26 0 36-6 6-11 8-18 8s-12-2-18-8l-4-4c-6 4-13 6-20 8v1c0 14-11 25-26 25-13 0-25-11-25-25v-1c-7-2-13-4-20-8l-3 4c-6 6-12 8-19 8-6 0-12-2-18-8-10-10-10-26 0-36l5-4c-4-6-6-12-8-19h-1c-14 0-25-12-25-26s11-25 25-25h1c1-7 4-14 7-20l-4-4c-10-10-10-26 0-37 5-5 12-7 18-7 7 0 14 2 19 7l4 5c6-4 12-6 19-8v-1c0-14 12-25 25-25 15 0 26 11 26 25v1c7 2 14 5 20 8l4-5c5-5 12-7 18-7 7 0 13 2 18 7 10 11 10 26 0 37l-4 4c3 6 6 13 8 20h1c14 0 25 11 25 25s-11 26-25 26zm-91-68c-23 0-41 18-41 42s18 42 41 42c25 0 42-18 42-42s-17-42-42-42z"/>
</svg>