<svg xmlns="http://www.w3.org/2000/svg" viewBox="0 0 512 512">
	<path d="M26 512c-15 0-26-11-26-25V26C0 11 11 0 26 0h461c14 0 25 11 25 26v461c0 14-11 25-25 25H26zM51 51v410h410V51H51zm359 173h-39v13h39c10 0 19 9 19 19 0 11-9 20-19 20h-39v12h39c10 0 19 9 19 19 0 11-9 20-19 20h-39v19c0 14-11 26-26 26h-18v38c0 11-9 19-20 19-10 0-19-8-19-19v-38h-12v38c0 11-10 19-20 19-11 0-19-8-19-19v-38h-13v38c0 11-9 19-19 19-11 0-20-8-20-19v-38h-19c-14 0-25-12-25-26v-19h-39c-10 0-19-9-19-20 0-10 9-19 19-19h39v-12h-39c-10 0-19-9-19-20 0-10 9-19 19-19h39v-13h-39c-10 0-19-8-19-19 0-10 9-19 19-19h39v-19c0-14 11-26 25-26h19v-39c0-10 9-19 20-19 10 0 19 9 19 19v39h13v-39c0-10 8-19 19-19 10 0 20 9 20 19v39h12v-39c0-10 9-19 19-19 11 0 20 9 20 19v39h18c15 0 26 12 26 26v19h39c10 0 19 9 19 19 0 11-9 19-19 19zm-218 97h128V193H192v128z"/>
</svg>