<svg xmlns="http://www.w3.org/2000/svg" viewBox="0 0 512 512">
	<path d="M48 32h384c16 0 31 15 31 32v149h-31V64H48v384h128v32H48c-19 0-32-14-32-31V64c0-17 13-32 32-32zm42 282V159c0-33 69-45 116-45 55 0 114 13 114 45v54h-28v-22c-23 9-51 14-86 14s-66-4-89-15v124c3 4 29 17 93 17h6v28h-6c-59 0-120-12-120-45zm27-154c3 3 29 18 89 18s85-16 88-20c-3-3-28-16-88-16s-86 14-89 18zm155 223v-31h34c3-11 6-20 11-28l-23-24 22-22 24 23c8-5 18-9 29-11v-34h31v34c11 3 20 4 28 11l24-23 22 22-23 24c7 8 8 17 11 28h34v31h-34c-2 11-6 21-11 29l23 24-22 22-24-23c-9 5-18 9-28 11v34h-31v-34c-9-1-19-5-29-11l-24 23-22-22 23-24c-5-9-8-18-11-29h-34zm97-60c-19 5-32 26-32 45 0 3 1 8 2 15 5 15 15 26 30 30 5 2 10 3 15 3 20 0 39-14 46-33 2-5 3-10 3-15 0-27-22-48-49-48-5 0-10 1-15 3z"/>
</svg>