<svg xmlns="http://www.w3.org/2000/svg" viewBox="0 0 512 512">
	<path d="M32 448V64c0-17 13-32 32-32h384c17 0 32 15 32 32v384c0 19-15 32-32 32H64c-19 0-32-13-32-32zM448 64H64v384h384V64zM255 265c-33-29-46-47-46-62 0-5 2-11 5-17 12-17 35-30 52-46s25-31 25-46c0-5-1-11-2-16 6 7 9 15 9 24 0 16-8 38-43 66-28 21-27 34-27 42 0 9 3 21 15 34 5 7 9 14 12 21zm15-24c-11-12-16-23-16-33 0-7 3-23 26-38 13-9 31-17 52-23-58 33-58 48-58 55s6 14 15 27c4 5 6 9 6 14 0 3-2 11-10 20-5 5-11 9-18 14 3-3 6-7 8-11 3-7 4-16-5-25zm69 23c2-1 4-2 7-2h6c16 0 28 11 28 23 0-2 7 27-52 44v-1c29-16 39-30 39-42 2 1-3-19-22-19h-4c-3 0-4 1-5 1-1 1-1 1-2 1 1-1 1-1 1-2 2-2 3-3 4-3zm-27 22c-24 7-56 9-87 9-52 0-75-10-69-11 0-2 2-4 6-6 15-7 29-9 38-12 6-1 11-1 16-1-11 3-19 5-26 8-11 5-9 8-9 8 0 2 4 4 13 5 4 1 9 1 14 1h17c35 0 68-4 103-9-2 1-4 1-5 2-2 1-6 3-11 6zm3 35c-27 8-52 11-75 11-39 0-57-9-57-15 0-3-2-6 18-13-3 2-4 4-4 6v1c0 3 4 5 12 7 5 1 11 1 16 1h15c17 0 35-1 60-5 1 1 3 2 4 3s3 1 5 2h1l1 1h2l1 1h1zm-7 37c-20 8-40 12-61 12-36 0-53-11-53-17 0-1-2-6 17-11-2 1-3 3-4 4 0 3 2 4 13 5 5 1 10 2 15 2h13c13 0 27-1 42-4 1 1 3 2 5 3 5 3 10 5 13 6zm-163 38c-21-4-17-9-17-9 0-9 28-21 47-21 3 0 5 1 8 2h-3c-1 0-4 1-9 2-9 0-24 12-21 11 0 1 1 2 3 3 17 7 53 10 92 10 41 0 83-3 104-10 11-4 12-7 12-10 0-1-1-3-2-4 5 2 7 4 7 6 0 3-1 7-24 14-23 8-60 13-105 13-28 0-59-2-92-7zm29 13c19 3 41 5 68 5 23 0 131-6 139-28-3 24-68 33-126 33-19 0-70-2-81-10z"/>
</svg>