<svg xmlns="http://www.w3.org/2000/svg" viewBox="0 0 512 512">
	<path d="M485 512H27c-15 0-27-12-27-26V27C0 12 12 0 27 0h458c15 0 27 12 27 27v459c0 14-12 26-27 26zM53 53v406h406V53H53zm211 209c-16-14-29-27-38-40s-10-25-3-38c6-9 14-17 25-24 9-7 18-14 27-22s15-17 20-26c5-10 6-22 3-35 6 7 9 15 9 23 0 9-3 18-8 29-6 10-18 23-35 37-14 10-22 20-25 29s-3 18 0 25c3 8 7 15 13 22 5 6 10 13 12 20zm15-23c-14-16-19-30-14-42 13-30 47-44 76-52-19 11-33 20-41 27-9 8-14 15-16 21s-1 11 2 16c4 5 7 11 12 18 6 6 7 12 5 18s-5 10-9 15-11 9-18 14c3-3 6-7 8-11 1-3 2-7 2-11s-2-9-7-13zm69 22c2-1 4-1 6-1h6c9 0 15 2 20 7 7 5 9 11 8 18s-5 14-12 22c-8 7-21 14-40 19v-1c15-8 26-16 31-23 6-7 8-14 8-19-2-13-9-18-22-18h-7c-2 1-3 1-3 1 2-4 4-5 5-5zm-27 22c-28 7-58 9-87 9-12 0-23 0-33-2-7 0-30-3-35-8-1-2 0-4 6-7 7-3 14-6 20-7 7-2 13-3 18-5 5-1 11-1 15-1-10 3-19 5-26 8-5 3-7 5-8 8-1 2 3 4 13 5 4 1 8 1 14 1 22 0 45 0 67-3 17-1 35-3 51-6-2 1-3 1-5 2-2 2-5 4-10 6zm3 35c-24 7-50 11-75 11-12 0-22-1-31-3-10-1-17-3-21-6s-6-6-4-9c1-3 8-7 18-10-3 2-5 4-5 6-1 3 3 6 12 8 6 1 11 1 16 1 25 0 50-1 75-5 1 0 2 2 4 3 1 1 2 1 4 2 3 0 5 1 7 2zm-7 37c-20 7-40 12-61 12-12 0-39-2-48-11-4-3-6-6-4-9s7-6 16-8c-2 1-2 2-3 4 0 1 1 2 2 3 1 0 5 1 10 2 6 1 11 2 15 2 19 0 36-2 55-4 1 0 3 1 5 2 5 3 9 5 13 7zm-162 38c-11-3-17-5-17-9s3-7 7-10c9-6 29-12 40-12 2 0 5 1 7 3-4 0-8 1-12 2-5 0-11 2-15 5-2 2-3 3-5 4-1 2 0 3 3 5 30 8 60 9 91 9 35 0 68-2 103-9 6-2 9-5 10-6 2-1 2-3 2-5 0-1 0-2-2-3 7 2 8 5 5 9s-10 7-22 11c-34 9-68 13-104 13-30 0-61-3-91-7zm29 12c22 5 45 5 67 5 25 0 51-1 75-6 15-2 56-7 64-21-1 5-5 10-13 15-8 4-18 7-29 10-12 2-26 4-41 6-15 0-29 1-43 1h-19c-8-1-16-1-24-1-7-1-33-5-37-9z"/>
</svg>