<svg xmlns="http://www.w3.org/2000/svg" viewBox="0 0 512 512">
	<path d="M485 512H27c-15 0-27-12-27-26V27C0 12 12 0 27 0h458c15 0 27 12 27 27v459c0 14-12 26-27 26zM53 53v406h406V53H53zm202 182c-21 0-70-4-70-35v-5l3-5c2-3 5-7 7-11 4-5 6-8 8-12 3-5 5-10 9-15l23-37c7-11 16-13 21-13 10 0 19 5 23 14l45 79v5c0 7-2 14-7 18-14 14-44 17-62 17zm-22-42c5 1 12 2 22 2 12 0 19-1 23-2l-22-37-11 17c-2 5-5 9-8 13-1 3-3 5-4 7zm22 206c-14 0-28-1-41-2-14-2-27-4-37-8-13-4-22-8-29-14-12-8-18-18-18-31l1-8 45-83c4-9 13-15 23-15 6 0 12 2 23 7 0 0 7 3 33 3 21 0 29-2 32-4 12-4 19-6 26-6 11 0 19 6 23 15l42 78c2 3 4 8 4 13 0 50-92 55-127 55zm-49-118l-34 63c4 2 8 4 16 7 9 2 20 4 31 6 24 3 50 3 73 0 12-2 22-4 30-6 7-3 14-5 18-7l-34-64c-1 1-2 1-4 1-10 5-26 7-47 7-24 0-39-2-49-7zm-37 69l-1 1z"/>
</svg>