<svg xmlns="http://www.w3.org/2000/svg" viewBox="0 0 512 512">
	<path d="M144.32 79.338c-6.998 3-13.996 3.999-19.995 3.999-6.998-2-11.996-5.998-15.995-11.997-3.999-6.998-5.998-13.996-3.999-19.994 1-7.998 4.999-13.996 11.997-17.995C140.32 17.356 168.313 8.358 196.305.361c7.998-1 14.996 0 21.994 3.998 5.998 4 10.997 9.998 11.996 15.996 1 6.998 0 13.996-3.999 19.994-3.998 6.998-8.997 10.997-16.995 12.997-11.996 1.999-22.993 5.998-32.99 10.996-10.997 4-21.994 8.998-31.991 14.996zm155.955-25.992c-6.998-2-11.996-5.999-14.995-12.997-3-5.998-4-12.996-3-19.994 1-5.998 5-11.997 10.997-15.996C300.275.361 306.274-.639 313.272.361c28.992 5.998 55.984 16.995 80.977 32.99 6.998 4 10.997 9.997 11.996 17.995 2 5.998 0 12.996-3.998 19.994-4 5.999-9.998 9.998-16.996 11.997-6.998 0-12.996-1-19.994-3.999-18.995-11.996-39.989-20.994-64.982-25.992zM459.23 206.302c-1.999-11.996-5.998-22.993-10.996-32.99-4-10.997-8.998-21.994-14.996-31.991-4-5.999-4.999-11.997-4-17.995 2-6.998 6-11.997 11.997-15.996 6.999-3.999 13.997-5.998 19.995-3.999 6.998 1 11.996 4.999 15.995 11.997 14.996 20.994 30.991 54.984 33.99 80.977 2 5.998 0 12.996-3.998 19.994-3 5.999-8.998 9.997-16.995 10.997-5.999 1-12.997 0-19.995-2.999-5.998-3.999-8.997-9.997-10.997-17.995zM71.34 107.33c5.999 4 9.998 8.998 11.997 16.995 1 5.999 0 12.997-3.999 19.995-12.996 19.994-21.994 40.988-26.992 64.981-1 5.999-4.999 11.997-11.997 16.995-5.998 4-11.996 5-18.994 4-5.999-1-11.997-5-16.996-10.998C.361 213.3-.639 206.302.361 198.304c5.998-27.992 16.995-55.984 33.99-79.977 3.999-6.998 9.997-10.997 16.995-12.996 7.998-3 13.996-2 19.994 2zm418.882 174.95c6.998 1 11.996 5 15.995 11.997 4.999 5.998 6.998 11.997 4.999 18.995-4 13.996-7.998 27.992-13.996 41.988-4.999 13.996-11.997 26.992-19.995 38.989-3.999 6.998-8.997 10.997-15.995 11.996-5.998 1-12.996-1-19.995-4.998-5.998-3-9.997-7.998-11.996-14.996-1-6.998 0-13.996 3.999-20.994 11.996-19.994 20.994-41.988 25.992-64.982 2-6.998 4.999-11.996 10.997-14.995 6.998-3 13.996-4 19.995-3zM52.346 302.276c2.999 11.997 6.998 22.993 11.996 33.99 4 10.997 8.998 20.994 14.996 31.991 3.999 6.998 4.999 12.997 3.999 19.995-2 6.998-5.998 11.996-11.997 15.995-6.998 3.999-13.996 5.998-20.994 3.999C27.353 404.246 4.36 335.265.361 315.27c-1-6.998 0-13.996 3.998-20.994 4.999-6.998 10.997-10.997 16.996-11.996 6.998-1 12.996 0 18.994 3.998 6.998 3 10.997 8.998 11.997 15.996zm315.91 130.963c4.999-4 10.997-4.999 17.995-4s11.997 5 15.996 10.998c3.998 6.998 5.998 13.996 3.998 20.994-1 6.998-4.998 11.996-11.996 15.995-10.997 7.998-23.993 13.996-37.99 18.995-13.995 5.998-27.991 10.997-42.987 14.996-6.998 2-12.997 0-19.995-4-5.998-3.998-9.997-8.997-10.996-16.994-1-5.999 0-12.997 2.999-18.995 3.999-5.998 9.997-9.997 17.995-11.997 22.993-5.998 43.987-14.995 64.981-25.992zM209.301 459.23c7.998 2 12.997 5.999 16.995 11.997s5 12.996 4 18.995c-1 6.998-5.999 11.996-11.997 15.995-6.998 4.999-13.996 6.998-21.994 4.999-13.996-4-27.992-8.998-41.988-14.996-13.996-4.999-26.992-10.997-37.99-18.995-6.997-3.999-10.996-8.997-11.996-15.995-2-6.998 0-13.996 3.999-20.994 3.999-4.999 8.997-7.998 15.995-9.997 5.999-2 12.997-1 19.995 2.999 18.994 11.996 42.988 20.994 64.981 25.992z"/>
</svg>