<svg xmlns="http://www.w3.org/2000/svg" viewBox="0 0 512 512">
	<path d="M256 510.008c-2.988 0-7.969 0-10.957-1.992l-197.23-92.639C16.933 398.444 0 372.545 0 345.65v-179.3c0-30.88 19.922-58.77 48.81-70.724L245.042 3.984c6.973-3.984 14.941-3.984 21.914 0l198.226 91.642C495.066 113.556 512 138.46 512 166.35v179.3c0 29.883-18.926 57.774-48.81 69.727l-196.233 92.639c-2.988 1.992-6.973 1.992-10.957 1.992zm0-54.786l186.272-86.662c10.958-4.98 17.93-14.941 17.93-22.91v-179.3c0-11.953-13.945-20.918-18.926-23.906L256 55.782 69.728 143.44c-9.961 4.98-16.934 13.945-16.934 22.91v179.3c0 7.969 6.973 16.934 18.926 22.91zm-61.759-272.934c11.954 0 21.915 7.969 21.915 20.918 0 8.965-5.977 16.934-14.942 18.926v23.907l25.899 15.938 45.82-25.9-19.921-13.945c-1.993 0-3.985-1.992-3.985-4.98v-47.813c-8.965-2.989-13.945-10.958-13.945-19.923 0-5.976 2.988-10.957 5.976-14.941 4.98-4.98 8.965-6.973 14.942-6.973 10.957 0 20.918 10.957 20.918 21.914 0 8.965-4.98 16.934-14.941 19.923v43.828l23.906 15.938 24.903-13.945v-13.946c-8.965-3.984-13.946-10.957-13.946-19.922 0-10.957 7.97-20.918 19.923-20.918 5.976 0 10.957 1.992 14.941 5.976 4.98 3.985 6.973 8.965 6.973 14.942 0 9.96-4.98 16.934-14.942 19.922v16.934c0 3.984-.996 3.984-2.988 5.977l-22.91 11.953 22.91 13.945c1.992.996 2.988 1.993 2.988 4.98v33.869c9.961 2.988 14.942 8.965 14.942 20.918 0 4.98-1.992 9.961-6.973 13.945-3.984 3.985-8.965 5.977-14.941 5.977-4.98 0-9.961-1.992-13.946-5.977-4.98-3.984-5.977-8.965-5.977-13.945 0-11.953 4.981-18.926 13.946-20.918v-29.884l-24.903-15.937-44.825 25.898 18.926 12.95c.997 1.992 1.993 3.984 1.993 5.976v54.786c9.96 2.989 14.941 8.965 14.941 19.923 0 5.976-2.988 9.96-5.976 14.941-3.985 3.985-8.965 6.973-14.942 6.973s-10.957-2.988-14.942-6.973c-3.984-4.98-5.976-8.965-5.976-14.941 0-10.958 4.98-16.934 13.945-19.923v-51.797l-21.914-12.95-25.899 13.946v17.93c9.961 3.984 14.942 9.961 14.942 19.922 0 5.977-1.993 10.957-5.977 15.938-3.984 3.984-9.961 5.976-15.938 5.976s-10.957-1.992-13.945-5.976c-4.98-4.98-5.977-9.961-5.977-15.938 0-3.984.996-8.965 2.988-11.953 2.989-3.985 5.977-5.977 9.961-7.97v-21.914c0-1.992.997-3.984 3.985-5.976l22.91-12.95-22.91-14.941c-2.988-.996-3.985-2.989-3.985-5.977v-25.899c-3.984-.996-6.972-2.988-9.96-6.972-1.993-3.985-2.989-7.97-2.989-11.954 0-5.976.996-10.957 5.977-14.941 2.988-3.985 7.969-5.977 13.945-5.977zm53.79-32.872c0 4.98 2.988 6.973 7.969 6.973 5.977 0 7.969-1.992 7.969-6.973s-1.992-7.969-7.969-7.969c-4.98 0-7.969 2.989-7.969 7.97zm61.759 31.876c0 4.98 1.992 7.969 6.973 7.969 5.976 0 8.965-2.989 8.965-7.97 0-1.991-.996-3.984-1.993-5.976-1.992-1.992-3.984-1.992-6.972-1.992-4.98 0-6.973 2.988-6.973 7.969zM194.24 210.179c5.977 0 8.965-1.992 8.965-6.973 0-5.976-2.988-8.965-8.965-8.965-4.98 0-7.969 2.989-7.969 8.965 0 4.98 2.989 6.973 7.97 6.973zm115.549 99.61c0 3.985 1.992 6.974 6.973 6.974 5.976 0 8.965-2.989 8.965-6.973 0-5.977-2.989-8.965-8.965-8.965-4.98 0-6.973 2.988-6.973 8.965zm-123.518 19.923c0 5.977 2.989 7.969 7.97 7.969 5.976 0 8.964-1.992 8.964-7.969 0-3.984-5.976-7.969-8.965-7.969s-7.969 4.98-7.969 7.97zm61.76 32.872c0 5.976 2.987 7.969 7.968 7.969 5.977 0 7.969-1.993 7.969-7.97s-1.992-8.964-7.969-8.964c-4.98 0-7.969 2.988-7.969 8.965z"/>
</svg>