<svg xmlns="http://www.w3.org/2000/svg" viewBox="0 0 512 512">
	<path d="M256 438C112 438 0 351 0 240 0 127 112 40 256 40s256 87 256 200c0 111-112 198-256 198zm0-347c-84 0-156 37-188 89h376c-32-52-104-89-188-89zm203 141H52c-1 2-1 5-1 8 0 81 92 147 205 147s205-66 205-147c0-3 0-6-2-8zm-256 69c0 14-11 26-25 26s-26-12-26-26c0-15 12-25 26-25s25 10 25 25zm77 0c0 14-11 26-26 26-13 0-25-12-25-26 0-15 12-25 25-25 15 0 26 10 26 25zm77 0c0 14-11 26-25 26-15 0-26-12-26-26 0-15 11-25 26-25 14 0 25 10 25 25z"/>
</svg>