<svg xmlns="http://www.w3.org/2000/svg" viewBox="0 0 512 512">
	<path d="M4 390l92-114c5-7 7-14 7-20 0-7-2-13-7-20L4 122c-3-3-4-7-4-10s1-5 2-7c3-6 8-9 15-9h361c10 0 18 4 25 12l102 128c5 5 7 12 7 20s-2 15-7 20L403 404c-7 8-15 12-25 12H17c-7 0-12-3-15-9-1-3-2-5-2-7 0-3 1-7 4-10zm46-6h328l102-128-102-128H50l71 88c9 11 14 25 14 40s-5 29-14 40zm154-92l27-4c2 11 8 19 18 26v-47c-27-9-41-25-41-48 0-24 17-41 41-44v-15h16v15c23 1 37 18 41 38l-29 4c0-9-4-16-12-19v44c14 2 26 7 35 16 6 9 9 19 9 30 0 27-17 46-44 49v15h-16v-14c-24-3-45-21-45-46zm45-55v-39c-9 3-14 10-14 19 0 10 5 17 14 20zm34 60c1-1 1-3 1-5 0-8-7-18-19-21v43c11-1 17-7 18-17z"/>
</svg>