<svg xmlns="http://www.w3.org/2000/svg" viewBox="0 0 512 512">
	<path d="M146 381q-12 0-20-8L13 260q-7-9-7.5-20.5T13 220l113-112q9-9 20-9 13 0 20 9 8 8 8 19.5t-8 19.5l-93 93 93 93q8 8 8 20t-8 20-20 8zm2-134q0-13 7.5-21t21.5-8q12 0 19.5 8t7.5 21q0 12-7.5 20t-19.5 8q-14 0-21.5-8t-7.5-20zm85 0q0-13 7.5-21t21.5-8q12 0 19.5 8t7.5 21q0 12-7.5 20t-19.5 8q-14 0-21.5-8t-7.5-20zm85 0q0-13 7-21t19-8q13 0 20.5 8t7.5 21q0 12-7.5 20t-20.5 8q-12 0-19-8t-7-20zm52 134q-12 0-20-8t-8-20 8-20l92-93-92-93q-8-8-8-19.5t8-19.5q9-9 20-9 13 0 20 9l112 112q8 8 8 19.5t-8 20.5L390 373q-8 8-20 8z"/>
</svg>