<svg xmlns="http://www.w3.org/2000/svg" viewBox="0 0 512 512">
	<path d="M355.75 428h-329c-9 0-18-5-22-13-4-9-4-19 1-27l93-138-93-139c-5-8-5-18-1-27 4-8 13-13 22-13h329c27 0 50 12 65 34l86 130c6 9 6 20 0 29l-86 130c-15 22-38 34-65 34zm-205-164l-76 113h281c10 0 17-4 23-12l77-115-77-116c-6-8-13-12-23-12h-281l76 113c6 9 6 20 0 29zm116 62h-48c-11 0-19-9-19-19 0-11 8-19 19-19h48c4 0 9-5 9-10s-5-9-9-9h-20c-25 0-47-22-47-48 0-23 17-43 38-48v-19c0-11 8-19 19-19s19 8 19 19v19h19c11 0 19 9 19 19 0 11-8 19-19 19h-48c-4 0-9 5-9 10s5 9 9 9h20c25 0 47 22 47 48s-22 48-47 48z"/>
</svg>