<svg xmlns="http://www.w3.org/2000/svg" viewBox="0 0 512 512">
	<path d="M32 33h264c12-20 33-33 57-33h62c24 0 45 13 57 33h8c19 0 32 13 32 32s-13 32-32 32h-8c-12 20-33 33-57 33h-62c-24 0-45-13-57-33H32C13 97 0 84 0 65s13-32 32-32zm383-9h-62c-20 0-36 13-40 33-1 2-1 5-1 8s0 6 1 8c4 20 20 33 40 33h62c20 0 36-13 40-33 1-2 1-5 1-8s0-6-1-8c-4-20-20-33-40-33zM24 65c0 5 3 8 8 8h257c-1-3-1-5-1-8s0-5 1-8H32c-5 0-8 3-8 8zm455 8h1c5 0 8-3 8-8s-3-8-8-8h-1c1 3 1 5 1 8s0 5-1 8zM0 240c0-19 13-32 32-32h40c12-20 33-33 57-33h62c24 0 45 13 57 33h232c19 0 32 13 32 32s-13 32-32 32H248c-12 20-33 33-57 33h-62c-24 0-45-13-57-33H32c-19 0-32-13-32-32zm89 8c4 20 20 33 40 33h62c20 0 36-13 40-33 1-2 1-5 1-8s0-6-1-8c-4-20-20-33-40-33h-62c-20 0-36 13-40 33-1 2-1 5-1 8s0 6 1 8zm166 0h225c5 0 8-3 8-8s-3-8-8-8H255c1 3 1 5 1 8s0 5-1 8zm-223 0h33c-1-3-1-5-1-8s0-5 1-8H32c-5 0-8 3-8 8s3 8 8 8zM0 415c0-19 13-32 32-32h168c12-20 33-33 57-33h62c24 0 45 13 57 33h104c19 0 32 13 32 32s-13 32-32 32H376c-12 20-33 33-57 33h-62c-24 0-45-13-57-33H32c-19 0-32-13-32-32zm217 8c4 20 20 33 40 33h62c20 0 36-13 40-33 1-2 1-5 1-8s0-6-1-8c-4-20-20-33-40-33h-62c-20 0-36 13-40 33-1 2-1 5-1 8s0 6 1 8zm-193-8c0 5 3 8 8 8h161c-1-3-1-5-1-8s0-5 1-8H32c-5 0-8 3-8 8zm359 8h97c5 0 8-3 8-8s-3-8-8-8h-97c1 3 1 5 1 8s0 5-1 8z"/>
</svg>