<svg xmlns="http://www.w3.org/2000/svg" viewBox="0 0 512 512">
	<path d="M187 265q6-5 0-11l-55-59q-12-10 0-24 11-9 22 0l61 65q9 10 8.5 23.5T215 282l-58 65q-12 10-23 0t0-23zM464 64q6 0 11 4.5t5 11.5-5 11.5-11 4.5H48q-16 0-16-16t16-16h416zm0 96q6 0 11 4.5t5 11.5-5 11.5-11 4.5H304q-16 0-16-16t16-16h160zm0 96q6 0 11 4.5t5 11.5-5 11.5-11 4.5H304q-16 0-16-16t16-16h160zm0 96q6 0 11 4.5t5 11.5-5 11.5-11 4.5H304q-16 0-16-16t16-16h160zm0 96q6 0 11 4.5t5 11.5-5 11.5-11 4.5H48q-16 0-16-16t16-16h416z"/>
</svg>