<svg xmlns="http://www.w3.org/2000/svg" viewBox="0 0 512 512">
	<path d="M32 64q14 0 23 9.5T64 96q0 14-9 23t-23 9q-13 0-22.5-9T0 96q0-13 9.5-22.5T32 64zm0 160q14 0 23 9.5t9 22.5q0 14-9 23t-23 9q-13 0-22.5-9T0 256q0-13 9.5-22.5T32 224zm0 160q14 0 23 9.5t9 22.5q0 14-9 23t-23 9q-13 0-22.5-9T0 416q0-13 9.5-22.5T32 384zm128-255q-13 0-22.5-9.5T128 97q0-14 9.5-23t22.5-9h320q14 0 23 9t9 23q0 13-9 22.5t-23 9.5H160zm0 159q-13 0-22.5-9.5T128 256q0-14 9.5-23t22.5-9h320q14 0 23 9t9 23q0 13-9 22.5t-23 9.5H160zm0 159q-13 0-22.5-9.5T128 415q0-14 9.5-23t22.5-9h320q14 0 23 9t9 23q0 13-9 22.5t-23 9.5H160z"/>
</svg>