<svg xmlns="http://www.w3.org/2000/svg" viewBox="0 0 512 512">
	<path d="M512 76v38H51v321q0 11 7.5 18t18.5 7h13q11 0 18 7.5t7 18.5-7 18.5-18 7.5H77q-32 0-54.5-22.5T0 435V67l2-9q6-25 26.5-41.5T77 0h362q32 0 52.5 22T512 76zm-3 191q-2 34-11.5 71.5T459 401q-10 10-23 5-13-3-16-17-6-26-12-51t-13-51q-2-7-4-13.5t-5-13.5q-1-2-5-8-7 17-8 31-1 10-8.5 16.5T347 304q-11-1-17-8.5t-5-17.5q5-36 24-67-10-8-21-12.5t-24-4.5h-8l-9 2q-1 1-1 2t-1 3q-1 5-.5 12t.5 14q1 8 2 15t2 12q1 2 1 5t1 6q2 10-3 18t-14 11q-7 2-12.5 0t-11.5-4q-5-1-11-2t-14-2q-8 0-14.5-.5t-13.5.5q-8 2-9 2-4 18 1 33t16 27q20-15 44-22.5t48-7.5 46.5 6.5T385 345q8 6 9.5 16t-4.5 18q-7 10-19 10-7 0-14-5-25-18-60-18-29 0-54 14 2 2 6 4l12 6q29 14 62 20t64 14q14 3 17 16 5 13-5 23-24 27-59 36t-67 9q-10 0-25.5-1t-31-3.5-30-7T164 485q-8-8-8-18 0-20 5.5-41t13.5-40q-20-20-31.5-50.5T145 265q1-5 7-11 9-8 19.5-11t19.5-4q10-2 20-1.5t18 1.5q6 0 9 1v-8q-1-9-1.5-18.5T238 194q2-8 5.5-18.5T256 157q11-7 23-9.5t24-2.5q25 0 45 9.5t35 22.5q19-11 42.5-17.5T471 153q12 0 19 9t9 20q7 20 8.5 41.5T509 267zM205 452q30 9 64 9 22 0 47-5-17-5-35-8.5T246 436q-15-7-32-17-3 8-5 16.5t-4 16.5zm250-249q-9 2-20 5t-20 7q16 23 23.5 50t13.5 54l1 1q7-26 8-54 0-16-1-31.5t-5-31.5z"/>
</svg>