<svg xmlns="http://www.w3.org/2000/svg" viewBox="0 0 512 512">
	<path d="M461 435h-26v25h26v-25zM256 188q0-3-1-4.5t-1-2.5l-56 1q-19 0-34-12l-19-17H52q-1 0-1 7v166q0 6 3 6h201q1 0 1-6V188zM435 77h26V51h-26v26zm0 191h26v-25h-26v25zm-117-38h66v-13q0-11 7.5-18t18.5-7h77q11 0 18 7t7 18v77q0 11-7 18.5t-18 7.5h-77q-11 0-18.5-7.5T384 294v-13h-66l102 102h67q11 0 18 7.5t7 18.5v77q0 11-7 18t-18 7h-77q-11 0-18.5-7t-7.5-18v-66l-79-79q-5 18-18.5 30T255 383H52q-21 0-36.5-16.5T0 326V160q0-24 15.5-41T52 102h113l33 29h57q17 0 30.5 11.5T304 171l80-80V26q0-11 7.5-18.5T410 0h77q11 0 18 7.5t7 18.5v76q0 11-7 18.5t-18 7.5h-67z"/>
</svg>