<svg width="32" height="32" viewBox="0 0 32 32" fill="none" xmlns="http://www.w3.org/2000/svg">
<path fill-rule="evenodd" clip-rule="evenodd" d="M15.9511 0C7.14373 0 0 7.34292 0 16.3958C0 23.6382 4.59939 29.774 10.8624 31.987C11.6453 32.0876 11.9388 31.5846 11.9388 31.1823C11.9388 30.7799 11.9388 29.774 11.9388 28.3658C7.53517 29.3717 6.55657 26.1529 6.55657 26.1529C5.87156 24.2417 4.79511 23.7388 4.79511 23.7388C3.32722 22.7329 4.89297 22.7329 4.89297 22.7329C6.45872 22.8335 7.33945 24.4429 7.33945 24.4429C8.80734 26.9576 11.0581 26.2535 11.9388 25.8511C12.0367 24.7446 12.526 24.0405 12.9174 23.6382C9.3945 23.2358 5.67584 21.8276 5.67584 15.4906C5.67584 13.68 6.263 12.2717 7.33945 11.0647C7.14373 10.6623 6.65443 8.95233 7.53517 6.7394C7.53517 6.7394 8.9052 6.33704 11.9388 8.44939C13.211 8.04704 14.581 7.94645 15.9511 7.94645C17.3211 7.94645 18.6911 8.14763 19.9633 8.44939C22.9969 6.33704 24.367 6.7394 24.367 6.7394C25.2477 8.95233 24.6605 10.6623 24.5627 11.0647C25.5413 12.1711 26.2263 13.68 26.2263 15.4906C26.2263 21.8276 22.5076 23.1352 18.9847 23.5376C19.5719 24.0405 20.0612 25.0464 20.0612 26.5552C20.0612 28.7682 20.0612 30.4782 20.0612 31.0817C20.0612 31.484 20.3547 31.987 21.1376 31.8864C27.4985 29.6735 32 23.5376 32 16.2953C31.9021 7.34293 24.7584 0 15.9511 0Z" fill="black"/>
</svg>
