<?xml version="1.0" encoding="UTF-8"?>
<svg width="30px" height="48px" viewBox="0 0 30 48" version="1.1" xmlns="http://www.w3.org/2000/svg" xmlns:xlink="http://www.w3.org/1999/xlink">
    <!-- Generator: Sketch 52.5 (67469) - http://www.bohemiancoding.com/sketch -->
    <title>bulb</title>
    <desc>Created with Sketch.</desc>
    <g id="Demokit-Like" stroke="none" stroke-width="1" fill="none" fill-rule="evenodd">
        <path d="M15,0 C17.0625103,0 18.9843661,0.37499625 20.765625,1.125 C22.5468839,1.87500375 24.1249931,2.90624344 25.5,4.21875 C26.8750069,5.53125656 27.9531211,7.10936578 28.734375,8.953125 C29.5156289,10.7968842 29.90625,12.8124891 29.90625,15 C29.90625,16.5000075 29.6718773,17.8281192 29.203125,18.984375 C28.7343727,20.1406308 28.1718783,21.2031202 27.515625,22.171875 C26.8593717,23.1406298 26.1875034,24.0156211 25.5,24.796875 C24.8124966,25.5781289 24.3125016,26.3124966 24,27 C23.9374997,27.0625003 23.7500016,27.5624953 23.4375,28.5 L22.40625,31.59375 C21.9687478,32.9062566 21.5000025,34.3749919 21,36 L9,36 L7.5,31.5 C7.12499813,30.3749944 6.78125156,29.3593795 6.46875,28.453125 C6.15624844,27.5468705 6,27.0625003 6,27 C5.68749844,26.3124966 5.18750344,25.5781289 4.5,24.796875 C3.81249656,24.0156211 3.14062828,23.1562547 2.484375,22.21875 C1.82812172,21.2812453 1.2500025,20.2187559 0.75,19.03125 C0.2499975,17.8437441 0,16.4687578 0,14.90625 C0,12.7187391 0.390621094,10.7031342 1.171875,8.859375 C1.95312891,7.01561578 3.03124313,5.43750656 4.40625,4.125 C5.78125687,2.81249344 7.37499094,1.79687859 9.1875,1.078125 C11.0000091,0.359371406 12.9374897,0 15,0 Z M23.4375,22.5 C24.3125044,21.4374947 25.1093714,20.3281308 25.828125,19.171875 C26.5468786,18.0156192 26.90625,16.6250081 26.90625,15 C26.90625,13.3124916 26.609378,11.7343823 26.015625,10.265625 C25.421872,8.79686766 24.5781305,7.51563047 23.484375,6.421875 C22.3906195,5.32811953 21.1250072,4.48437797 19.6875,3.890625 C18.2499928,3.29687203 16.6875084,3 15,3 C13.3124916,3 11.7343823,3.28124719 10.265625,3.84375 C8.79686766,4.40625281 7.53125531,5.21874469 6.46875,6.28125 C4.15623844,8.53126125 3,11.4062325 3,14.90625 C3,16.5312581 3.34374656,17.9062444 4.03125,19.03125 C4.71875344,20.1562556 5.49999562,21.2499947 6.375,22.3125 C6.8750025,22.8750028 7.31249813,23.4374972 7.6875,24 C8.06250187,24.5625028 8.40624844,25.1562469 8.71875,25.78125 C8.71875,25.8437503 8.74999969,25.9218745 8.8125,26.015625 C8.87500031,26.1093755 8.96874938,26.3906227 9.09375,26.859375 C9.21875062,27.3281273 9.45312328,28.0312453 9.796875,28.96875 C10.1406267,29.9062547 10.5937472,31.2499912 11.15625,33 L18.75,33 C19.3125028,31.2499912 19.7656233,29.9062547 20.109375,28.96875 C20.4531267,28.0312453 20.7031242,27.3281273 20.859375,26.859375 C21.0156258,26.3906227 21.1249997,26.0937506 21.1875,25.96875 C21.2500003,25.8437494 21.28125,25.7500003 21.28125,25.6875 C21.5937516,25.1249972 21.9218733,24.5937525 22.265625,24.09375 C22.6093767,23.5937475 22.9999978,23.0625028 23.4375,22.5 Z M9,45 L21,45 L20.0625,45.9375 C18.6874931,47.3125069 17.00001,48 15,48 C12.9374897,48 11.2187569,47.3125069 9.84375,45.9375 L9,45 Z M20.34375,37.5 C20.7187519,37.5 21.0468736,37.6406236 21.328125,37.921875 C21.6093764,38.2031264 21.75,38.5624978 21.75,39 L21.75,42 C21.75,42.4375022 21.6093764,42.7968736 21.328125,43.078125 C21.0468736,43.3593764 20.7187519,43.5 20.34375,43.5 L9.5625,43.5 C8.68749562,43.5 8.25,43.000005 8.25,42 L8.25,39 C8.25,37.999995 8.68749562,37.5 9.5625,37.5 L20.34375,37.5 Z M16.3125,42 C17.1875044,42 17.625,41.500005 17.625,40.5 C17.625,39.499995 17.1875044,39 16.3125,39 C15.4374956,39 15,39.499995 15,40.5 C15,41.500005 15.4374956,42 16.3125,42 Z" id="bulb" fill="#FF5316"></path>
    </g>
</svg>