<svg xmlns="http://www.w3.org/2000/svg" viewBox="0 0 512 512">
	<path d="M486.5 480h-102q-11 0-18.5-7t-7.5-18 7.5-18 18.5-7h77V123h-77q-11 0-18.5-7.5T358.5 97t7.5-18.5 18.5-7.5h102q11 0 18 7.5t7 18.5v358q0 11-7 18t-18 7zm-358 0h-103q-11 0-18-7t-7-18V97q0-11 7-18.5t18-7.5h103q11 0 18.5 7.5t7.5 18.5-7.5 18.5-18.5 7.5h-76v307h76q11 0 18.5 7t7.5 18-7.5 18-18.5 7zm166-204q0 16-11 27t-27 11q-17 0-27.5-11t-10.5-27 10.5-27.5 27.5-11.5q16 0 27 11.5t11 27.5zm128 0q0 16-11 27t-27 11-27.5-11-11.5-27 11.5-27.5 27.5-11.5 27 11.5 11 27.5zm-256 0q0 16-11 27t-27 11-27.5-11-11.5-27 11.5-27.5 27.5-11.5 27 11.5 11 27.5z"/>
</svg>