<svg xmlns="http://www.w3.org/2000/svg" viewBox="0 0 512 512">
	<path d="M21.938 232q-10-3-15-12.5t-2-20.5q6-20 14-38.5t19-38.5q7-13 22-13 7 0 13 3 10 5 12.5 15t-2.5 20q-9 17-16 33.5t-12 33.5q-6 19-26 19-4 0-7-1zm438-18q-5-17-12-33.5t-17-33.5q-5-10-2-20t12-15q6-3 13-3 15 0 22 13 11 20 19 38.5t15 38.5q3 11-2 20.5t-16 12.5q-2 1-7 1-19 0-25-19zm-405 89q5 17 12 33.5t16 33.5q5 10 2.5 20t-12.5 15q-8 4-12 4-15 0-23-14-11-20-19-39t-14-39q-3-10 2-19t15-13q11-3 20 2t13 16zm437-18q11 4 16 13t2 19q-7 20-15 39t-19 39q-8 14-22 14-5 0-13-4-9-5-12-15t2-20q19-33 29-67 3-11 12-16t20-2zm-359-197q-12 0-21-11-6-8-4.5-18.5t10.5-17.5q7-6 18.5-12t24-11.5 24.5-9 21-3.5 16 6 9 15q2 11-4 19.5t-17 10.5q-37 8-62 27-7 5-15 5zm77 373q11 2 17 10.5t4 19.5-10.5 16-19.5 5q-49-11-83-37-9-7-11-17t5-19q7-10 21-10 8 0 15 5 25 19 62 27zm94-405q-11-2-17-10.5t-4-19.5q2-9 9.5-15t16.5-6 21 3.5 24.5 9 24 12 18.5 11.5q8 7 10 17.5t-5 18.5q-8 11-20 11-9 0-16-5-12-10-28.5-16.5t-33.5-10.5zm62 378q7-5 15-5 14 0 21 10 7 9 5 19.5t-10 16.5q-17 14-38.5 23t-44.5 14q-11 0-19.5-4.5t-11.5-16.5q-2-11 4-19.5t17-10.5q17-4 33.5-10.5t28.5-16.5zm-271-186q-11-3-16-12t-2-20q9-29 23-54 8-14 24-14 6 0 12 3 9 5 12 15.5t-2 20.5q-13 21-19 43-6 19-25 19-5 0-7-1zm284-97q6-3 12-3 10 0 17.5 8t13.5 18.5 9.5 22 5.5 19.5q3 11-1.5 20t-15.5 12q-3 1-8 1-19 0-24-19-3-11-8-21.5t-12-21.5q-5-10-2-20.5t13-15.5zm-243 215q-6 3-13 3-15 0-23-13-14-27-23-55-3-10 2-19.5t16-12.5q2-1 7-1 8 0 15.5 5t9.5 13q6 21 19 45 5 9 2 19.5t-12 15.5zm284-97q11 3 15.5 12.5t1.5 19.5q-4 14-9.5 27.5t-13.5 27.5q-8 13-23 13-7 0-12-3-10-6-13-16t2-19q7-12 12-23t8-22q3-10 12-15t20-2zm-263-165q11-8 31-17.5t34-9.5q9 0 16 6t9 15q2 11-3.5 20t-16.5 11q-22 4-39 17-7 4-15 4-14 0-21-10-6-8-4.5-19t9.5-17zm70 284q11 2 16.5 11t3.5 20q-2 12-10.5 16t-19.5 4q-36-8-60-25-8-7-9.5-18t4.5-19q7-10 21-10 10 0 15 5 8 5 18 9.5t21 6.5zm61-259q-11-2-17-11t-4-20q2-9 9-15t16-6q14 0 34 9t31 18q9 6 10.5 17t-4.5 19q-9 10-21 10-10 0-15-4-17-12-39-17zm9 310q-11 0-19-4.5t-11-15.5q-2-11 4-20t17-11 21-6.5 18-9.5q5-5 15-5 14 0 21 10 6 8 4.5 18.5t-10.5 18.5q-25 17-60 25zm-40-130q21 0 36-15t15-36-15-35.5-36-14.5-35.5 14.5-14.5 35.5 14.5 36 35.5 15zm77-51q0 32-22.5 54.5t-54.5 22.5-54-22.5-22-54.5q0-31 22-53.5t54-22.5 54.5 22.5 22.5 53.5zm-53-9q5 0 9 4.5t4 9.5-4 9-9 4h-24q-5 0-8.5-4t-3.5-9v-33q0-5 3.5-8.5t8.5-3.5q6 0 9.5 3.5t3.5 8.5v19h11z"/>
</svg>