<svg xmlns="http://www.w3.org/2000/svg" viewBox="0 0 512 512">
	<path d="M238 296q-6-17-6-33 0-14 6.5-35.5T282 192q14-5 27-5 3 0 13 1t23 9.5 22.5 22.5 13.5 32q1 5 4.5 6.5t5.5 1.5q3 0 5-1 3-2 4.5-4.5t1.5-4.5-1-4l-37-101q-1-5-1-9 0-3 1-7.5t3-9.5q13-26 33-34t34-8q13 0 27 5 30 11 40.5 33.5T512 154q0 14-5 27l-73 201q-7 19-29 36t-51 17-52.5-13.5T269 383zM6 181q-5-13-5-27 0-16 10.5-38.5T52 82q13-5 27-5 16 0 38 10.5t33 40.5l73 201q4 12 4 25 0 2-.5 11t-6.5 22.5-17 24-26 15.5q-13 5-27 5-16 0-38-10.5T79 381z"/>
</svg>