<svg xmlns="http://www.w3.org/2000/svg" viewBox="0 0 512 512">
	<path d="M365 181l-112 91-112-90v140l66-66 11 12-65 66h200l-65-66 12-12 65 66V181zm-207-7l95 76 95-76H158zm98 312q48 0 89.5-18t73-49.5 49.5-73 18-89.5-18-89.5-49.5-73-73-49.5T256 26t-90 18-73.5 49.5-49.5 73T25 256t18 89.5 49.5 73T166 468t90 18zm0-415q-36 0-69.5 14t-59 38.5-41 58.5T71 256q0 36 14 69.5t39 59 59 41 73 15.5q36 0 69.5-14.5t59-39T425 329t15-73q0-35-13.5-68.5T389 128t-58-41.5T256 71zm109 87q16 0 16 16v160q0 6-4 11t-12 5H141q-6 0-11-5t-5-11V174q0-8 5-12t11-4h224zM256 465q-41 0-78.5-15.5t-67-43-47-66T46 256q0-40 15-77.5t43-66.5 66.5-47T256 47q41 0 78.5 15.5T401 106t46.5 66 17.5 84q0 40-15 77.5t-43 67-66.5 47T256 465zm0-465q53 0 99.5 20T437 75t55 81.5 20 99.5-20 99.5-55 81.5-81.5 55-99.5 20-100-20-81.5-55T20 355.5 0 256t20-99.5T74.5 75 156 20 256 0z"/>
</svg>