<svg xmlns="http://www.w3.org/2000/svg" viewBox="0 0 512 512">
	<path d="M1 283q0-3 2-5l83-176q3-9 14-9 3 0 7 2 6 2 7.5 7t1.5 8-1 6L35 285l80 170q1 3 1 6t-1.5 8-7.5 7q-4 2-7 2-11 0-14-9L5 297q-4-5-4-10v-4zm128-39v-18q-1-4-1-8 0-11 4.5-17t9.5-8q5-4 13-4h29v27h-27v29q0 11-4 19t-9 13q-6 5-14 9 7 5 13 11 5 5 9 12.5t4 17.5q1 21 1 28h27v27h-24q-15-1-23-10t-8-22v-23q0-18-11.5-23t-16.5-5v-27q6 0 17-4.5t11-23.5zm102-55h29q8 0 14 4 5 2 9 7.5t4 13.5v12q-1 5-1 18 0 19 11 23.5t17 4.5v27q-5 0-16.5 5T286 327v23q0 13-8 22t-23 10h-24v-27h28v-28q0-10 4.5-17.5T273 297q5-6 13-11l-4-2q-5-2-10-7t-9-13-4-19v-29h-28v-27zm90 179q0-3 1-3l57-152q3-10 13-10 6 0 10 4t4 9v4l-57 152q-3 10-13 10-6 0-10.5-4.5T321 368zm85-273q4-2 7-2 11 0 15 9l82 176q2 2 2 5 1 2 1 4 0 6-4 10l-81 172q-4 9-15 9-3 0-7-2-6-2-7.5-6.5T397 462t2-7l80-170-80-169q-2-4-2-7t1.5-7.5T406 95z"/>
</svg>