<svg xmlns="http://www.w3.org/2000/svg" viewBox="0 0 512 512">
	<path d="M457.5 167q0-9-7-15.5t-12-8.5l-183-86-184 87q-17 7-17 23v180q0 9 7 15.5t12 8.5l182 86 185-87q17-9 17-23V167zm-227 212h-4q-22 0-37.5-13.5T173.5 333v-25q0-8-8-16l-30-25q-5-5-5-10 0-7 5-10l30-26q8-6 8-15v-25q0-20 15.5-33t37.5-13h4q14 0 14 13t-14 13h-4q-11 0-18.5 6t-7.5 14v25q0 21-18 36l-18 15 18 15q18 15 18 36v25q0 8 7.5 14t18.5 6h4q14 0 14 13t-14 13zM.5 167q0-23 13.5-42.5T49.5 96l195-92q12-7 23 0l196 92q48 28 48 71v180q0 23-13.5 42t-35.5 29l-195 92q-6 2-12 2-7 0-11-2l-196-93q-48-28-48-70V167zm284 212h-4q-13 0-13-13t13-13h4q11 0 18.5-6t7.5-14v-25q0-22 17-36l19-15-19-15q-17-14-17-36v-25q0-8-7.5-14t-18.5-6h-4q-13 0-13-13t13-13h4q22 0 37.5 13t15.5 33v25q0 9 9 15l30 26q4 4 4 10 0 4-4 10l-30 25q-9 7-9 16v25q0 19-15.5 32.5T284.5 379z"/>
</svg>