<svg xmlns="http://www.w3.org/2000/svg" viewBox="0 0 512 512">
	<path d="M203 60v66q0 21-14.5 36T153 177H87l-11 10v268h77q11 0 18 7t7 18-7 18.5-18 7.5H51q-11 0-18-7.5T26 480V177q0-10 8-18L185 7q7-7 18-7h203q11 0 18 7t7 18v152q0 11-7 18t-18 7-18.5-7-7.5-18V50H213zm169 354q-8 0-13-5-6-6-6-14t6-14q10-9 10-24t-10-25l-37-37q-11-11-25-11-15 0-25 10.5T262 320q0 14 10 24l19 19q5 5 5 13.5t-5 13.5q-6 5-14 5t-13-5l-18-19q-22-22-22-51 0-30 21.5-52t51.5-22 51 22l37 38q22 22 22 51 0 7-2.5 16.5t-7 18.5-11 15.5T372 414zm41 97q-30 0-51-21l-38-37q-22-22-22-51.5t22-51.5q6-6 14-6 7 0 13 6 5 5 5 13t-5 14q-11 10-11 23.5t11 24.5l37 38q10 10 25 10t25-10q10-12 10-24 0-16-10-25l-19-19q-6-5-6-13t6-14q5-5 13.5-5t13.5 5l18 19q22 22 22 52t-22 51-51 21z"/>
</svg>