<svg xmlns="http://www.w3.org/2000/svg" viewBox="0 0 512 512">
	<path d="M256 461q42 0 79.5-16t65.5-44 44-65 16-80q0-42-16-79.5t-44-65-65.5-44T256 51t-79.5 16.5-65.5 44-44 65T51 256q0 43 16 80t44 65 65.5 44 79.5 16zm0-461q53 0 99.5 20T437 75t55 81.5 20 99.5-20 99.5-55 81.5-81.5 55-99.5 20-99.5-20T75 437t-55-81.5T0 256t20-99.5T75 75t81.5-55T256 0zm0 384q27 0 50.5-10t40.5-27 27-40.5 10-50.5-10-50.5-27-40.5-40.5-27-50.5-10-50.5 10-40.5 27-27 40.5-10 50.5 10 50.5 27 40.5 40.5 27 50.5 10zm0-307q37 0 69.5 14t57 38.5 38.5 57 14 69.5-14 69.5-38.5 57-57 38.5-69.5 14-69.5-14-57-38.5-38.5-57T77 256t14-69.5 38.5-57 57-38.5T256 77zm29 188v-1l-28-57h-2l-28 57q0 1 2 1l27-18 28 18h1zm-26-91l68 136q0 3-2 3-1 1-3 0l-66-43-66 43q-3 3-3 0-2 0-2-3l68-136q1 0 1.5-.5t1.5-.5q1 1 3 1z"/>
</svg>