<svg xmlns="http://www.w3.org/2000/svg" viewBox="0 0 512 512">
	<path d="M138.333 359q9 0 15.5 3t11.5 5l43 26q11 7 16 15t7 16l9 36h36l8-33q2-7 8-18t19-18l42-24q5-2 11.5-5t15.5-3q8 0 17 3l32 13 19-36-24-17q-20-13-20-41v-51q0-26 22-42l21-16-17-35-1-1-31 13q-9 3-18 3t-16-3-12-5l-42-25q-12-8-17-16t-8-16l-8-36h-37l-8 34q-2 6-8 17.5t-19 17.5l-41 24q-5 2-11.5 5t-16.5 3q-8 0-17-3l-32-13-19 36 24 17q20 14 20 41v51q0 28-21 42l-22 16 18 35 1 1 30-12q9-4 20-4zm50-24q-5 0-8-1-12-5-12-18v-30q0-8 6-13.5t14-5.5h30q12 0 18 12 4 11-4 20 13 8 27 8t26.5-8 18.5-21q4-8 11-11t15 1q7 3 9.5 10.5t-.5 15.5q-11 23-32.5 37t-47.5 14q-29 0-55-18l-3 3q-5 5-13 5zm88 176h-36q-19 0-33-11t-18-29l-7-33q0-1-1-1l-43-26-31 12q-9 3-19 3-31 0-46-26l-19-38q-10-19-3-39 5-15 19-25l22-17v-51l-23-18q-14-11-18.5-28.5t3.5-34.5l18-35q5-14 18-22t27-8q12 0 20 4l32 14 43-27 2-4 7-31q5-18 18-29t32-11h36q20 0 33.5 11t17.5 30l7 32 45 27 31-12q9-3 19-3 14 0 26 6.5t20 20.5l19 37q8 18 4 35-5 19-21 29l-21 17v51l23 19q14 11 18.5 28t-3.5 34l-18 35q-6 14-18.5 22t-27.5 8q-5 0-10-1t-10-3l-31-13-43 26q0 1-1 2t-1 2l-7 32q-4 17-17.5 28t-33.5 11zm53-267h-31q-12 0-17-12-5-10 4-20-11-7-26-7-16 0-28 7.5t-19 20.5q-5 11-17 11-6 0-8-1-7-3-10-10.5t1-14.5q11-24 32.5-38t48.5-14q14 0 28 5t25 13l3-3q9-9 21-4 12 7 12 18v30q0 8-5.5 13.5t-13.5 5.5zm-147-169h-1 1zm154 361v1-1z"/>
</svg>