<svg xmlns="http://www.w3.org/2000/svg" viewBox="0 0 512 512">
	<path d="M261 62q-10 0-20 8L75 237q-9 7-9 19 0 10 9 19l166 166q10 8 19 8 11 0 19-8l167-166q9-9 9-19 0-12-9-19L279 70q-8-8-18-8zm0 442q-34 0-58-24L36 312q-24-23-24-56t24-57L203 32q12-12 27-18t30-6q33 0 57 24l167 167q24 24 24 57t-24 56L317 480q-24 24-56 24zm-58-164q-9 0-19-8-8-8-8-19t8-19l38-38-38-39q-8-8-8-18.5t8-18.5q7-8 19-8t19 8l38 38 38-38q8-8 19-8 12 0 19 8 8 8 8 18.5t-8 18.5l-38 39 38 38q8 8 8 19t-8 19-18 8-20-8l-38-38-38 38q-10 8-19 8z"/>
</svg>