<svg xmlns="http://www.w3.org/2000/svg" viewBox="0 0 512 512">
	<path d="M228.554 474.074q2.994 0 4.99.998 10.978 2.994 22.955 3.992t23.953.998q14.971 0 30.44-2.994t27.447-8.982q9.98-3.992 14.97-11.977 0-.998-.997-1.996-1.996 0-3.493-.499t-3.493-.499q-3.993-.998-11.977-.998-2.994-.998-5.988-.998t-5.989-.998q-6.986-.998-13.972-1.497t-13.973-1.497q-4.99-1.996-11.478-3.493t-11.477-3.494l-11.977-7.984-11.976-8.983q-2.995 3.993-6.987 11.977-2.994 3.992-4.99 11.977l-3.992 15.969-1.996 10.978zm245.52-246.518q-2.994 0-4.99.998-15.969 3.992-28.944 9.98-4.99 1.996-7.984 3.992t-6.986 3.993q17.965 22.955 22.456 46.908t4.491 52.897q0 2.994.998 4.49t.998 2.496h.998q2.994 2.994 2.994-.998 10.979-18.963 14.971-38.924t4.99-38.924q0-14.97-.998-26.947t-2.994-19.961zm36.928-179.65v135.735q-7.984-5.988-15.969-7.984t-10.978-2.994h-4.99v-27.946H31.937v318.379q0 5.988 4.49 10.978t11.478 4.99h125.755q0 3.993.998 5.989 0 13.972 9.98 25.949H47.906q-19.96 0-33.933-13.973T0 463.096V47.906q0-19.96 13.973-33.933T47.906 0h415.19q19.96 0 33.933 13.973t13.973 33.933zm-8.983 162.683q2.995 8.982 5.49 25.949t2.495 37.926q0 11.977-2.495 30.44t-8.484 36.43-16.467 30.939-26.449 12.975-25.95-11.478-9.98-27.446q0-2.995.5-5.49t.498-4.49q0-9.981-.998-14.972 0-11.976-8.982-36.928-.998-2.994-2.994-5.988t-3.992-6.986q-7.985 11.976-12.476 26.448t-6.487 29.443q-3.993 15.968-18.963 12.974-6.987-.998-10.979-6.487t-1.996-11.478q2.994-18.963 9.98-38.924t18.963-36.927q-.998 0-2.994-1.997-12.974-9.98-27.945-17.465t-31.938-9.482q0 .998-.499.998t-.499.998q-1.996 3.992-1.996 10.979v14.97q0 18.963 2.994 33.934v5.988q.998 5.989 1.497 10.98t.5 8.982q0 5.988-4.99 10.978-6.987 4.99-12.976 3.992h-4.49l-5.49-.998q-8.983-.998-20.96-2.495t-25.948-1.497q-17.965 0-25.95 2.994h-1.996q2.994 25.95 21.957 52.897 1.996 1.996 5.989 7.984 34.931-26.947 77.847-26.947 22.956 0 46.41 9.481t43.415 29.443v.998l8.982 8.982q9.981 11.977-.998 22.956-11.976 9.98-22.955-.999l-7.984-8.982q-15.969-15.969-33.435-22.955t-34.433-6.986q-28.943 0-53.894 16.966 4.99 2.995 8.483 5.989t7.485 4.99q2.995 1.996 13.973 2.994 4.99 1.996 11.478 2.495t13.473 1.497q7.985 0 11.977.998 2.994 0 6.487.5t5.49.498 4.49.5 4.492.498q7.985 0 15.969 7.486t9.98 14.472q4.99 11.976 0 22.955-4.99 13.972-16.966 22.456t-26.948 13.474-30.44 6.986T281.45 512q-5.988 0-15.47-.499t-19.461-1.996-18.963-2.994-13.973-4.492q-.998 0-5.988-1.996-8.983-3.992-9.981-11.976-.998-1.996-.998-4.99v-7.985q0-3.992.499-8.483t1.497-9.482q1.996-8.982 4.99-19.462t7.985-18.464q1.996-4.99 4.99-9.481t6.986-8.484l-8.982-11.976q-10.979-14.971-18.464-32.936t-9.482-36.928q-.998-11.976 6.987-21.957 6.986-6.986 16.967-9.98 14.97-3.993 36.928-3.993 10.978 0 20.959.998t18.963 1.997v-2.995q-.998-7.984-1.997-17.465t-.998-19.462q0-8.983.5-18.963t3.493-17.965q1.996-10.979 10.978-17.466t19.961-6.488q23.953 1.997 43.914 11.977t35.93 21.957q.998 1.996 1.996 2.495t1.996 1.497q10.979-8.982 27.946-16.467t30.94-10.48q4.99-.998 9.48-1.497t9.482.499q4.99 0 11.977 2.994t8.982 11.977z"/>
</svg>