<svg xmlns="http://www.w3.org/2000/svg" viewBox="0 0 512 512">
	<path d="M256.5 12q53 0 99.5 20t81 54.5 54.5 81.5 20 100q0 42-13 80.5t-36 70-55 55-70 36.5q-3 1-6 1-6 0-9-4t-3-9v-70q0-18-5-30t-12-18q21-2 42-8t37.5-20 27-37.5 10.5-60.5q0-21-7-38t-19-30q1-3 2.5-9t2-11.5.5-7.5q0-7-1.5-17t-6.5-23h-5q-5 0-12 1-8 2-21.5 7t-31.5 18q-16-5-31.5-6.5t-32.5-1.5-33 1.5-32 6.5q-18-13-31-18t-22-7q-7-1-12-1h-5q-8 20-8 36 0 4 2 15.5t4 16.5q-12 13-19 30t-7 38q0 37 10 60.5T130 352t37.5 20 42 8q-5 5-9.5 13.5t-6.5 21.5q-6 2-14 4.5t-17 2.5q-2 0-8-.5T138 415t-18.5-21q-4-7-10-13-5-5-12.5-9t-17.5-4q-7 0-10 1-1 1-1 3 0 1 .5 3t8.5 8q5 2 10 7t9.5 12 9.5 18q5 14 16 23 10 8 22.5 11.5t22.5 3.5q11 0 25-3v43q0 5-3 9t-8 4q-3 0-6-1-38-12-70-36T50 418.5t-36.5-70T.5 268q0-53 20-100T75 86.5 156.5 32t100-20z"/>
</svg>