<svg xmlns="http://www.w3.org/2000/svg" viewBox="0 0 512 512">
	<path d="M115 146q4 2 12 2h259q7 0 11-2V81q-4-2-11-2H127q-8 0-12 2v65zm12 53q-28 0-46-12.5T63 154V74q0-20 18-33t46-13h259q26 0 44 13t18 33v80q0 20-18 32.5T386 199H127zm334 102q0-11-7.5-18.5T435 275t-18 7.5-7 18.5v102q0 11 7 19t18 8 18.5-8 7.5-19V301zm-90 0q0-11-7-18.5t-18-7.5-18.5 7.5T320 301v102q0 11 7.5 19t18.5 8 18-8 7-19V301zm-90 0q0-11-7-18.5t-18-7.5-18.5 7.5T230 301v102q0 11 7.5 19t18.5 8 18-8 7-19V301zm-89 0q0-11-7.5-18.5T166 275t-18 7.5-7 18.5v102q0 11 7 19t18 8 18.5-8 7.5-19V301zm-90 0q0-11-7-18.5T77 275t-18.5 7.5T51 301v102q0 11 7.5 19t18.5 8 18-8 7-19V301zm308-76q43 0 72.5 25t29.5 62v81q0 37-29.5 62T410 480H102q-43 0-72.5-25T0 393v-81q0-37 29.5-62t72.5-25h308z"/>
</svg>