<svg xmlns="http://www.w3.org/2000/svg" viewBox="0 0 512 512">
	<path d="M60 380v54q0 11 7.5 18.5T86 460h314q11 0 18-7.5t7-18.5V328l-63 61q4 8 4 14 0 12-8 22-11 9-23 9t-21-9q-10-9-10-22 0-17 15-26l-38-98q-2 2-7 2h-3l-43 96q7 5 11 11t4 15q0 12-8 22-11 9-23 9-11 0-22-9-9-9-9-22 0-5 1.5-8.5t3.5-7.5l-49-50q-7 5-17 5t-16-5zm308-249q6 7 12 18 4 9 7 20h27q0-3 5-15 2-5 4-8.5t3-5.5q1-1 1.5-2t2.5-3q15-15 15-35-2-17-15-28.5T400 60q-16 0-31 12-11 10-13 28 0 17 12 31zm32 74q0 5 6 5 5 0 5-5 0-7-5-7-6 0-6 7zm0 307H86q-32 0-55-23T8 434V173q0-32 23-55t55-23h157q11 0 18.5 7.5T269 121t-7.5 18.5T243 147H86q-11 0-18.5 7.5T60 173v186l33-33q-4-10-4-14 0-11 9-22 9-9 22-9 15 0 22 9 9 9 9 22 0 7-4 14l51 51q7-4 14-4l45-97q-14-11-14-25t8.5-22 22.5-8q30 0 30 30 0 13-8 22l37 100q12 0 19 4l73-70v-16q0-11 7.5-18.5T451 265t19 7.5 8 18.5v143q0 16-6.5 30.5t-17 25T430 506t-30 6zm-81-386h-11q-13 0-13-12 0-14 13-14h11q13 0 13 14 0 12-13 12zm17-64q-3 0-5-1t-4-3l-9-8q-7-9 0-18 10-10 19 0l8 7q4 4 4 9.5t-4 9.5q-6 4-9 4zm6 37q1-24 18-39 19-14 40-14 24 0 40.5 14.5T459 99t-15 39q-2 3-4 5.5t-4 5.5q-2 4-3 7t-1.5 5.5-1.5 5.5q-2 5-4 11t-3 8h-47q0-2-2-8-1-3-1.5-5.5T371 167q-1-6-4-11-1-3-3-7-3-3-4-5l-4-6q-17-16-14-39zm34 122h47l-2 4q-8 8-21 8-14 0-19-8zm24-184q-13 0-13-12V14q0-14 13-14t13 14v11q0 12-13 12zm-21 156h42q6 0 6 5v12q0 6-6 6h-42q-5 0-5-6v-12q0-5 5-5zm87-131q-3 0-5-1t-4-3q-4-4-4-9.5t4-9.5l8-7q4-5 9.5-5t8.5 5q9 9 0 18l-8 8q-6 4-9 4zm25 64h-11q-13 0-13-12 0-14 13-14h11q13 0 13 14 0 12-13 12z"/>
</svg>