<svg xmlns="http://www.w3.org/2000/svg" viewBox="0 0 512 512">
	<path d="M416 335l-68 66q4 7 4 15 0 9-7 19-8 11-16 12t-10 1q-11 0-20-7-11-8-12-16t-1-10q0-11 7-20 6-6 10-8l-37-98q-4 2-14 2l-43 97q6 4 9 8 6 9 6 19 0 3-1 11t-12 16q-8 6-18 6-3 0-11.5-1.5T165 434q-7-7-7-17 0-1 .5-6.5T164 397l-50-50q-9 6-18 6-8 0-17-6l-47 47v85h384V335zm10-171q15-15 15-40-2-21-17.5-35T387 75h-6q-21 0-36.5 14T328 124v4q0 9 3.5 18.5T343 164q2 2 4 5.5t4 5.5q4 5 9 18t7 19h34q2-6 7.5-19t8.5-18q2-2 4.5-5.5t4.5-5.5zm-35 101q6 0 6-8 0-7-6-7-7 0-7 7 0 8 7 8zm-54 123l16-16q11-11 22.5-22t21-20 11.5-11h40v161q0 13-9 22-9 10-23 10H32q-13 0-22-10-10-9-10-22V159q0-14 9-23t23-9h174v33H32v211l36-37q-4-8-4-16 0-3 1.5-10.5T78 293q9-6 19-6 2 0 10 1t16 12q7 9 7 19 0 8-5 17l52 51q5-4 15-4l44-99q-4-3-8-10-4-8-4-15 0-5 2.5-13.5T241 230q8-4 16-4 4 0 13 2.5t16 14.5q4 8 4 16 0 12-10 22l39 102q11 0 18 5zm-44-237h-38v-20h38v20zm91-96q29 0 50.5 18t24.5 50v5q0 26-19 45-4 6-10 14-2 3-8 22-3 8-5 15t-3 11h-60q-1-4-3-11t-4-14.5-4.5-13.5-4.5-9q-6-8-10-14-19-19-19-45v-5q3-32 24.5-50T384 55zm-30 225h60l-4 4q-11 11-26 11-16 0-25-11zm64-15q0 3-2 5t-5 2h-54q-6 0-6-7v-15q0-8 6-8h54q3 0 5 2 2 4 2 6v15zM304 76l-27-27 15-15 27 27zm90-38h-20V0h20v38zm97 11l-27 27-14-15 27-27zm21 82v20h-38v-20h38z"/>
</svg>