<svg xmlns="http://www.w3.org/2000/svg" viewBox="0 0 512 512">
	<path d="M51 277v96l112 38V311q-2 0-2.5.5t-2.5.5h-5zm144 34v100l113-38v-96l-103 35h-5q-2 0-2.5-.5t-2.5-.5zm189 105v64h64v-64h-64zM46 171l111-38-9-28-112 38zm-10 68l15 4 97 33 9-28-111-37zm51-48l92 31 92-31-78-27-14-4zm123 85l98-33v-31l-107 36zm-9-143l111 38 10-28-112-38zm247-37V32h-64v64h64zm-32 192h64v-64h-64v64zM1 243l18-52-18-53q-1-2-1-5t2.5-8 8.5-7l142-48q1-1 5-1 10 0 15 11l6 18 6-18q5-11 15-11 4 0 5 1l135 45 14-11-2-8V32q0-14 9-23t23-9h64q14 0 23 9t9 23v64q0 14-9 23t-23 9h-64l-8-2-21 18-16 47 17 49h28v-16q0-14 9-23t23-9h64q14 0 23 9t9 23v64q0 14-9 23t-23 9h-64q-14 0-23-9t-9-23v-16h-45v92l37 22 8-2h64q14 0 23 9t9 23v64q0 14-9 23t-23 9h-64q-14 0-23-9t-9-23v-64l2-8-21-12q-2 1-2.5 2t-2.5 1l-141 48q-1 1-8 1-6 0-8-1L30 399q-11-5-11-15V266l-8-2q-6-2-8.5-7T0 248q0-2 1-5z"/>
</svg>