<svg xmlns="http://www.w3.org/2000/svg" viewBox="0 0 512 512">
	<path d="M90.5 477q-22-4-24-12-1-8 10-16 6-3 13-6t16-6q18-5 31-5 6 0 12 3h-5q-1 0-13 3-1 0-11 2-7 3-12 6-7 5-8 7-2 2 3 6 15 5 32.5 8t36 4.5 37 2 33.5.5q36 0 78.5-2t77.5-13q11-4 15-8 3-3 3-7 0-3-3-6 15 6 7 14-11 11-36 18t-54 11-56.5 5.5-43.5 1.5q-35 0-69.5-3t-69.5-8zm189-233q-31-35-21-63 6-17 19-29.5t28.5-22 33-16 33.5-10.5q-9 5-22.5 13t-26.5 17.5-23.5 20-13.5 21.5q-5 14 3 25 4 5 8.5 11.5t9.5 14.5q12 16 7 28-4 13-13 23-10 10-27 21 8-8 12-16 3-8 3-17 0-11-10-21zm56 176q-45 18-91 18-15 0-38.5-3t-35.5-13q-9-6-5-13 3-7 25-13-3 2-7 6 0 2 5 5 2 0 5.5 1t9.5 1q6 2 11.5 3t10.5 1q22 0 42.5-1t41.5-5q1 0 7 4 14 7 19 9zm11-55q-28 7-56 11.5t-57 4.5q-7 0-18-.5t-23-2-22-4.5-16-7q-9-6-6-13 4-7 26-15-5 5-5 9-3 7 18 12 12 2 23 2h23q23 0 45-2t45-6q4 2 7 4t7 4q2 1 4.5 1t4.5 2zm-91-84q-18-17-32.5-32.5T198.5 219q-21-28-4-57 14-20 36-36 23-15 41-32.5t32-40.5q11-22 4-53 13 16 13 36 0 32-21 56.5t-44 42.5q-16 12-24.5 22.5T218.5 179q-4 21 0 37 8 19 19 33 13 15 18 32zm86 31q-32 9-64.5 11t-65.5 2H185l-23.5-2q-3 0-11-1t-17-2.5-16-3.5-9-5q-4-5 8-11 16-7 32-12 13-3 25-6 7-1 13-1h11q-24 4-39 12-11 4-13 11-2 5 19 8 5 1 10 1.5t12 .5q45 0 89.5-3.5t89.5-10.5q-3 1-7 3-3 2-17 9zm41-33q5-3 10-3h10q19 0 30 11 12 11 12 27-3 14-11 24t-19 17.5-24 13-25 8.5v-2q33-17 46-35 14-15 12-29 0-12-10-20-10-7-22-7h-10q-2 1-4 1-1 1-3 1l2-1v-1q5-5 6-5zm-248 218q11 2 22.5 2.5t24.5 2.5q12 1 26 1.5t30 .5q58 0 112-9 7-1 22-3.5T402 485t28-10 15.5-13q-1 9-8 16t-17 11.5-20 7-18 3.5q-32 7-63.5 9t-63.5 2h-28q-9-1-18-1.5t-19-.5q-4 0-12-1.5t-17-3T145 501t-10.5-4z"/>
</svg>