<svg xmlns="http://www.w3.org/2000/svg" viewBox="0 0 512 512">
	<path d="M256 26V5q0-5 6-5h52q7 0 7 5v21q0 6-7 6h-52q-6 0-6-6zM0 58V5q0-5 6-5h20q6 0 6 5v53q0 7-6 7H6q-6 0-6-7zM160 5q0-5 6-5h52q6 0 6 5v21q0 6-6 6h-52q-6 0-6-6V5zm198-5h52q6 0 6 5v21q0 6-6 6h-52q-6 0-6-6V5q0-5 6-5zm97 0h51q6 0 6 5v21q0 6-6 6h-51q-6 0-6-6V5q0-5 6-5zM71 0h51q6 0 6 5v21q0 6-6 6H71q-6 0-6-6V5q0-5 6-5zm415 65h20q6 0 6 5v52q0 6-6 6h-20q-6 0-6-6V70q0-5 6-5zM0 102q0-5 6-5h20q6 0 6 5v52q0 6-6 6H6q-6 0-6-6v-52zm486 58h20q6 0 6 5v53q0 6-6 6h-20q-6 0-6-6v-53q0-5 6-5zM0 198q0-5 6-5h20q6 0 6 5v52q0 6-6 6H6q-6 0-6-6v-52zm480 116v-53q0-5 6-5h20q6 0 6 5v53q0 7-6 7h-20q-6 0-6-7zM0 293q0-5 6-5h20q6 0 6 5v53q0 6-6 6H6q-6 0-6-6v-53zm486 59h20q6 0 6 5v53q0 6-6 6h-20q-6 0-6-6v-53q0-5 6-5zM0 389q0-5 6-5h20q6 0 6 5v53q0 7-6 7H6q-6 0-6-7v-53zm486 60h20q6 0 6 5v52q0 6-6 6h-20q-6 0-6-6v-52q0-5 6-5zM0 485q0-5 6-5h52q7 0 7 5v21q0 6-7 6H6q-6 0-6-6v-21zm390-5h52q7 0 7 5v21q0 6-7 6h-52q-6 0-6-6v-21q0-5 6-5zm-102 26v-21q0-5 6-5h52q6 0 6 5v21q0 6-6 6h-52q-6 0-6-6zm-95-21q0-5 6-5h51q6 0 6 5v21q0 6-6 6h-51q-6 0-6-6v-21zm-96 0q0-5 6-5h51q6 0 6 5v21q0 6-6 6h-51q-6 0-6-6v-21z"/>
</svg>