<svg xmlns="http://www.w3.org/2000/svg" viewBox="0 0 512 512">
	<path d="M0 389q0-5 6-5h20q6 0 6 5v53q0 7-6 7H6q-6 0-6-7v-53zm0-96q0-5 6-5h20q6 0 6 5v53q0 6-6 6H6q-6 0-6-6v-53zm480 21v-53q0-5 6-5h20q6 0 6 5v53q0 7-6 7h-20q-6 0-6-7zm6 38h20q6 0 6 5v53q0 6-6 6h-20q-6 0-6-6v-53q0-5 6-5zM0 58V5q0-5 6-5h20q6 0 6 5v53q0 7-6 7H6q-6 0-6-7zm0 44q0-5 6-5h20q6 0 6 5v52q0 6-6 6H6q-6 0-6-6v-52zm0 96q0-5 6-5h20q6 0 6 5v52q0 6-6 6H6q-6 0-6-6v-52zM71 0h51q6 0 6 5v21q0 6-6 6H71q-6 0-6-6V5q0-5 6-5zm89 5q0-5 6-5h52q6 0 6 5v21q0 6-6 6h-52q-6 0-6-6V5zm96 21V5q0-5 6-5h52q7 0 7 5v21q0 6-7 6h-52q-6 0-6-6zM358 0h52q6 0 6 5v21q0 6-6 6h-52q-6 0-6-6V5q0-5 6-5zm97 0h51q6 0 6 5v21q0 6-6 6h-51q-6 0-6-6V5q0-5 6-5zm31 160h20q6 0 6 5v53q0 6-6 6h-20q-6 0-6-6v-53q0-5 6-5zm0-95h20q6 0 6 5v52q0 6-6 6h-20q-6 0-6-6V70q0-5 6-5zM0 485q0-5 6-5h52q7 0 7 5v21q0 6-7 6H6q-6 0-6-6v-21zm97 0q0-5 6-5h51q6 0 6 5v21q0 6-6 6h-51q-6 0-6-6v-21zm96 0q0-5 6-5h51q6 0 6 5v21q0 6-6 6h-51q-6 0-6-6v-21zm95 21v-21q0-5 6-5h52q6 0 6 5v21q0 6-6 6h-52q-6 0-6-6zm102-26h52q7 0 7 5v21q0 6-7 6h-52q-6 0-6-6v-21q0-5 6-5zm96-31h20q6 0 6 5v52q0 6-6 6h-20q-6 0-6-6v-52q0-5 6-5z"/>
</svg>