<svg xmlns="http://www.w3.org/2000/svg" viewBox="0 0 512 512">
	<path d="M432.5 102q-10 0-17-7-8-8-8-18t8-18l50-49q8-8 18-8 9 0 17 8t8 17.5-8 17.5l-50 50q-6 7-18 7zm-401 410q-11 0-18-7-7-8-7-18t7-18l50-50q8-8 18-8 11 0 17 8 8 8 8 18t-8 18l-50 50q-7 7-17 7zm102-110q-11 0-18-7-8-8-8-18t8-18l50-50q8-8 18-8t18 8q7 8 7 18t-7 18l-51 50q-6 7-17 7zm100-100q-10 0-18-8-8-7-8-17t8-18l50-49q8-8 18-8 9 0 17 8 8 7 8 17t-8 17l-49 50q-8 8-18 8zm100-100q-11 0-18-7-8-8-8-18t8-18l50-50q7-7 18-7t17 7q8 8 8 18t-8 18l-50 50q-7 7-17 7z"/>
</svg>