<svg xmlns="http://www.w3.org/2000/svg" viewBox="0 0 512 512">
	<path d="M36 378l163 82v41L0 400V110l109-55 218 109v62l-37 16v-55L109 95l-73 37v246zm37-68l77 37v47l-77-38v-46zM190 55l-40-20 68-35 218 110v134l-36 18V132L218 41zm236 346q5 5 5 11t-5 12l-66 82q-5 6-12 6t-12-5-5-12 5-12l48-63q4-4 4-8t-4-7l-49-64q-5-5-5-11.5t5-11.5q6-6 12-6t12 6zm-82 0q5 5 5 11t-5 12l-67 82q-5 6-11.5 6t-11.5-5q-6-6-6-13 0-5 5-11l49-63q4-4 4-8t-4-7l-49-64q-5-6-5-11 0-6 5-12 5-5 12-5t12 5zm163 0q5 6 5 12 0 5-5 11l-67 82q-5 6-12 6t-12-5q-5-6-5-12t5-12l49-63q4-4 4-8t-4-7l-49-64q-5-5-5-11.5t5-11.5 12-5 12 5z"/>
</svg>