<svg xmlns="http://www.w3.org/2000/svg" viewBox="0 0 512 512">
	<path d="M392 69q-20 0-35 13t-16 33v5q0 17 13 31 2 2 4.5 5t3.5 5q3 4 8 16t7 17h31q2-5 6.5-17t7.5-16q4-6 8-10 13-14 13-31v-5q-1-20-16-33t-35-13zm6 173q6 0 6-7t-6-7-6 7 6 7zM116 456q18 0 34-11l43 37q-15 14-34.5 22t-42.5 8q-24 0-45-9t-37-25-25-37-9-45q0-45 29.5-77t73.5-37v56q-20 5-33.5 21T56 396q0 25 17.5 42.5T116 456zm11-175q26 3 48 16t36 34l-49 28q-12-17-35-22v-56zm96 71q9 21 9 44 0 19-6 36.5T210 464l-43-37q4-7 6.5-14.5T176 396q0-8-3-15zm-10-114h-49v-75h49v75zm151 148q4 5 4 11 0 5-4 10l-62 76q-4 5-10.5 5t-10.5-5q-5-5-5-11 0-5 4-10l46-60q3-3 3-6t-3-5l-47-61q-5-5-5-10l.5-3.5 5-7.5 8-4.5 3.5-.5q5 0 10 5zm72 0q4 5 4 11 0 5-4 10l-62 76q-5 5-11 5t-11-5q-4-6-4-11t4-10l46-60q3-3 3-6t-3-5l-47-61q-5-5-5-10l.5-3.5 5-7.5 8-4.5 3.5-.5q5 0 10 5zm72 0q4 5 4 11 0 5-4 10l-62 76q-5 5-11 5t-11-5-5-10l.5-3 4.5-8 46-60q3-3 3-5 0-3-3-6l-47-61q-5-5-5-10l.5-3.5 5-7.5 8-4.5 3.5-.5q5 0 10 5zM65 238H18V98h47v140zm74 0H90V61h49v177zm168-115v19h-36v-19h36zm43 49q-2-3-4.5-7t-4.5-6q-17-17-17-40v-5q2-29 22-45.5T392 52t46 16.5 22 45.5v5q0 23-17 40-2 2-4.5 6t-4.5 7q-4 5-8.5 20.5T419 215h-54q-2-7-6.5-22.5T350 172zm15 84h55l-5 4q-9 9-23 9t-23-9zM331 58l-14 13-25-25 13-14zm92 184q0 3-2 5t-4 2h-49q-6 0-6-7v-14q0-6 6-6h49q3 0 4 1 2 4 2 5v14zM401 36h-19V0h19v36zm78-4l13 14-25 25-14-13zm33 91v19h-36v-19h36z"/>
</svg>