<svg xmlns="http://www.w3.org/2000/svg" viewBox="0 0 512 512">
	<path d="M144 296q5 4 5 8t-5 9q-3 3-8 3t-8-3l-58-58q-6-5-6-15t6-15l57-58q5-3 9-3 5 0 8 3 5 4 5 9 0 4-5 8l-55 56zM288 80q14 0 23 9t9 23v256q0 14-9 23t-23 9H32q-14 0-23-9t-9-23V112q0-14 9-23t23-9h256zm0 32H32v256h256V112zm-38 113q6 5 6 15t-6 15l-57 58q-3 3-8 3-4 0-9-3-4-5-4-9t4-8l55-56-55-56q-4-4-4-8 0-5 4-9 3-3 8-3t8 3zm255 1q7 11 7 33 0 26-14.5 43T457 324q-8 1-15 1.5t-15 .5h-30v74h-45V192h75q22 0 44.5 6t33.5 28zm-46 57q8-8 8-23 0-14-8-22-10-8-31-8h-31v61h31q21 0 31-8z"/>
</svg>