<svg xmlns="http://www.w3.org/2000/svg" viewBox="0 0 512 512">
	<path d="M.5 167q0-23 13.5-42.5T49.5 96l195-92q12-7 23 0l49 23q10 5 13.5 15t-1.5 20q-7 15-24 15-6 0-12-3l-37-17-184 87q-17 7-17 23v180q0 9 7 15.5t12 8.5l182 86 185-87q17-9 17-23V167q0-11 8-19t19-8 19 8 8 19v180q0 23-13.5 42t-35.5 29l-195 92q-6 2-12 2-7 0-11-2l-196-93q-48-28-48-70V167zm352 122h-115q-11 0-18.5-7.5t-7.5-18.5V152q0-11 7.5-18.5t18.5-7.5q12 0 20 7.5t8 18.5v48l182-178q8-8 19-8 10 0 18 8t8 18.5-8 18.5l-181 178h49q11 0 18.5 7.5t7.5 18.5-7.5 18.5-18.5 7.5z"/>
</svg>