<svg xmlns="http://www.w3.org/2000/svg" viewBox="0 0 512 512">
	<path d="M32 396q0 8 6 14t14 6h9q8 0 13.5-6t5.5-14v-88q0-8-5.5-14T61 288h-9q-8 0-14 6t-6 14v88zm100 20h9q8 0 13.5-6t5.5-14v-88q0-8-5.5-14t-13.5-6h-9q-8 0-14 6t-6 14v88q0 8 6 14t14 6zm60-20q0 8 6 14t14 6h9q8 0 13.5-6t5.5-14v-88q0-8-5.5-14t-13.5-6h-9q-8 0-14 6t-6 14v88zm80 0q0 8 6 14t14 6h9q8 0 13.5-6t5.5-14v-88q0-8-5.5-14t-13.5-6h-9q-8 0-14 6t-6 14v88zm80 0q0 8 6 14t14 6h9q8 0 13.5-6t5.5-14v-88q0-8-5.5-14t-13.5-6h-9q-8 0-14 6t-6 14v88zm80-88v88q0 8 6 14t14 6h9q8 0 13.5-6t5.5-14v-88q0-8-5.5-14t-13.5-6h-9q-8 0-14 6t-6 14zM143 32q8 0 11 1l-15-14q-4-4-4-8 0-3 2.5-7t9.5-4q4 0 8 3l31 29q6 6 6 14v2q0 9-6 17l-31 27q-3 3-7 3-12 0-12-12 0-6 5.5-10t10.5-8q-3-1-9-1-19 0-33 14t-14 34 14 34 34 14q9 0 16-3v33q-4 1-7.5 1.5t-8.5.5q-33 0-56.5-23.5T64 112q0-34 23.5-57T143 32zM0 304q0-20 14-34t34-14h184V115q0-8 6-13.5t14-5.5h9q19 0 19 19v141h184q20 0 34 14t14 34v96q0 20-14 34t-34 14H48q-20 0-34-14T0 400v-96zm327-146l31-27q2-3 8-3 12 0 12 11 0 4-4 8l-13 11q3 1 8 1 18-1 32.5-16t14.5-34q0-18-14-31.5T368 64q-7 0-16 3V33q5-1 16-1 34 0 57 23t23 57q0 35-24 57t-57 22h-8l15 13q4 4 4 8 0 2-2 6.5t-9 4.5q-4 0-9-3l-31-28q-7-7-7-17 2-10 7-17z"/>
</svg>