<svg xmlns="http://www.w3.org/2000/svg" viewBox="0 0 512 512">
	<path d="M134 187q-33 0-56-24-24-23-24-56t23-56.5T133 27q4 0 6.5.5t4.5.5l-15-14q-6-7-3-13t11-6q4 0 8 3l31 29q6 6 6 16 0 9-6 17l-31 27q-3 3-7 3-12 0-12-12 0-7 5-10l6-4 5-4q-2-1-9-1-20 0-33.5 14T86 107q0 21 14 34 13 14 34 14 9 0 16-3v33q-2 0-4 .5t-4 .5q-2 1-8 1zm209-26q-8-6-8-17 2-5 3.5-9t4.5-8l31-26q1-3 8-3 11 0 11 11 0 4-3 7l-14 11q2 1 4 1.5t5 .5q19-2 32.5-17T431 78q0-18-13-31-16-14-35-14-6 0-15 3V2h8q36 0 62 20.5T464 81q0 35-24 57t-58 22h-8l16 14q6 6 3 12t-11 6q-5 0-8-3zm118 140q0-11-7.5-18t-18.5-7-18 7-7 18v102q0 11 7 18.5t18 7.5 18.5-7.5T461 403V301zm-90 0q0-11-7.5-18t-18.5-7-18 7-7 18v102q0 11 7 18.5t18 7.5 18.5-7.5T371 403V301zm-90 0q0-11-7-18t-18-7-18.5 7-7.5 18v102q0 11 7.5 18.5T256 429t18-7.5 7-18.5V301zm-89 0q0-11-7.5-18t-18.5-7-18 7-7 18v102q0 11 7 18.5t18 7.5 18.5-7.5T192 403V301zm-89 0q0-11-7.5-18T77 276t-18.5 7-7.5 18v102q0 11 7.5 18.5T77 429t18.5-7.5T103 403V301zm307-77q43 0 72.5 25t29.5 62v82q0 37-29.5 62T410 480H103q-44 0-73.5-25T0 393v-82q0-37 29.5-62t73.5-25h127V96q0-11 7.5-18.5T256 70t18 7.5 7 18.5v128h129z"/>
</svg>