<svg xmlns="http://www.w3.org/2000/svg" viewBox="0 0 512 512">
	<path d="M1 304q0-20 14-34t34-14h32V115q0-19 19-19h9q8 0 14 5.5t6 13.5v141h256V115q0-19 19-19h11q8 0 13 5.5t5 13.5v141h32q20 0 34 14t14 34v96q0 20-14 34t-34 14H49q-20 0-34-14T1 400v-96zm32 3v89q0 8 5.5 14t13.5 6h9q11 0 15.5-6.5T81 396v-89q0-8-6-13.5T61 288h-9q-8 0-13.5 5T33 305v2zm320 89q0 8 5.5 14t13.5 6h9q8 0 14-6t6-14v-88q0-8-6-14t-14-6h-9q-8 0-13.5 6t-5.5 14v88zm80-88v88q0 8 5.5 14t13.5 6h9q8 0 14-6t6-14v-88q0-8-6-14t-14-6h-9q-8 0-13.5 6t-5.5 14zm-160 88q0 8 5.5 14t13.5 6h9q8 0 14-6t6-14v-88q0-8-6-14t-14-6h-9q-8 0-13.5 6t-5.5 14v88zm-80-88v88q0 8 5.5 14t13.5 6h9q8 0 14-6t6-14v-88q0-8-6-14t-14-6h-9q-8 0-13.5 6t-5.5 14zm-61 108h9q8 0 14-6t6-14v-88q0-8-6-14t-14-6h-9q-8 0-13.5 6t-5.5 14v88q0 8 5.5 14t13.5 6z"/>
</svg>