<svg xmlns="http://www.w3.org/2000/svg" viewBox="0 0 512 512">
	<path d="M456.848 474.074q18.963-8.982 22.457-28.444t-15.47-33.435L225.3 186.635q-19.961-25.949-10.979-56.888 4.99-16.967.998-34.932-4.99-29.942-30.94-46.41t-54.892-16.467q-11.977 0-23.953 2.994l27.945 18.963q21.957 13.972 24.452 38.425t-11.477 45.411q-8.983 14.97-22.955 25.45t-30.94 10.48q-13.973 0-27.945-8.983L32.677 143.72q3.992 24.952 22.456 47.408t44.413 26.448q12.975 2.994 28.944-1.996 10.978-3.992 22.955-3.992 21.957 0 40.92 18.963l214.58 225.56q7.985 7.984 16.469 14.97t19.462 6.986q6.986 0 13.972-3.992zM7.726 512L30.68 398.222q1.996-6.986 4.99-9.98L136.474 286.44q5.988-5.989 12.975-5.989 7.984 0 12.975 6.488t2.994 14.471q-.998 4.99-6.987 10.979l-93.816 93.817q-2.995 2.994-1.997 3.992l42.917 42.916 97.809-98.807q3.992-2.994 6.986-4.99 9.98-1.996 15.969 4.99 4.99 4.99 4.99 12.476t-4.99 12.475L125.496 481.06q-1.996 1.997-7.985 3.993zm502.02-82.838q2.993 16.967-1.997 31.937t-15.47 25.95-23.953 17.466-28.444 6.487q-24.952 0-42.917-18.963L170.408 254.503q-.998-1.996-4.99-3.992-4.99-6.987-12.975-5.989-3.992 0-11.977 1.997-3.992 0-5.988.998-10.978 1.996-20.46 2.994t-18.464-.998q-20.959-2.994-40.92-16.967T21.199 199.11 2.236 156.195t2.495-44.413q1.997-1.996 2.995-5.989 1.996-9.98 4.99-9.98 1.996-1.996 3.992 0l66.87 41.918q4.99 3.992 10.978 3.992 11.977 0 20.96-13.973t10.978-24.95q2.994-14.972-10.979-22.956L55.632 39.922q-4.99-1.996-1.996-5.988t5.988-6.987Q75.594 10.98 92.061 5.49T130.486 0q41.918 0 74.854 23.454t40.92 62.378q2.994 13.973 2.495 25.45t-2.495 22.457q-1.996 7.984-1.996 16.967t4.99 13.972L485.792 389.24q7.984 7.984 15.47 17.466t8.483 22.456zM437.885 5.988l67.867 66.87q10.978 10.978 0 22.955l-122.76 124.756q-3.992 2.994-7.985 3.992-2.994.998-6.986.5t-8.983-4.492q-3.992-4.99-4.49-8.982t.498-6.987q.998-3.992 3.992-7.984l111.782-112.78-43.914-41.918-112.78 113.778q-3.992 2.994-6.986 3.992-8.983 3.992-16.967-3.992t-3.992-16.967q.998-2.994 3.992-6.986L414.93 5.988q4.99-4.99 11.478-4.99t11.477 4.99z"/>
</svg>