<svg xmlns="http://www.w3.org/2000/svg" viewBox="0 0 512 512">
	<path d="M126 278l-13-70q-1-11-5-28 0-2-.5-3t-.5-2v-2q0 2-2 11t-5 24l-12 70h38zm132-52q11 0 17-7 5-9 5-25 0-13-1-17-5-8-9-10-3-2-5.5-2.5t-7.5-.5h-18v62h19zm5 109q10 0 18-10 5-8 5-27 0-9-2-16t-4-11q-7-9-20-9h-21v73h24zm-130-17H79l-10 56H31l53-248h45l52 248h-37zm67-192h59q28 0 43 15 10 8 13.5 19.5T319 186q0 23-8 36-5 8-9.5 13.5T289 243q19 3 28 19 8 16 8 41 0 12-2 22t-4 16q-5 10-11 15t-12 9q-15 9-31 9h-65V126zm176 233q-16-13-24-44-5-14-7.5-31t-2.5-37q0-19 3-35.5t7-30.5 9.5-25 14.5-19q17-15 39-15 8 0 29 7 5 3 10.5 7t10.5 12q8 12 13 35l-33 15q-3-8-5.5-14t-6.5-11q-5-6-18-6-33 0-33 80 0 41 8 63 8 24 26 24 8 0 14-5 2-2 4-4.5t5-6.5q2-4 3-9t3-10l36 16q-5 14-11 25t-14 19q-16 16-40 16-12 0-21.5-3.5T376 359z"/>
</svg>