<svg xmlns="http://www.w3.org/2000/svg" viewBox="0 0 512 512">
	<path d="M77 71q-11 0-18.5 7T51 96v307q0 11 7.5 18.5T77 429h358q11 0 18.5-7.5T461 403V148q0-11-7.5-18.5T435 122H256q-12 0-18-8l-44-43H77zm358 409H77q-32 0-54.5-22.5T0 403V96q0-32 22.5-54.5T77 19h127q11 0 19 8l43 44h169q32 0 54.5 22.5T512 148v255q0 32-22.5 54.5T435 480zM229 263H78l-1-1V161q0-1 1-1h151l1 1v101q0 1-1 1zm0 128H78q-1 0-1-2V289q0-1 1-1h151q1 0 1 1v100q0 2-1 2zm205-128H283l-2-1V161q1-1 2-1h151l1 1v101zm0 128H283q-2 0-2-2V289q0-1 2-1h151q1 0 1 1v100z"/>
</svg>