<svg xmlns="http://www.w3.org/2000/svg" viewBox="0 0 512 512">
	<path d="M233 193q4 1 9 1.5t13 .5q9 0 14.5-.5t8.5-1.5l-22-37-11 17q-2 5-8 13-1 2-2 3.5t-2 3.5zm-61 151q19 10 40.5 12.5T256 359q19 0 43-3t41-12l-34-64q-1 1-4 1-14 7-47 7-35 0-49-7zM53 459h406V53H53v406zm202-224q-37 0-52-9-3-2-10.5-8.5T185 200v-5l3-4q2-3 3.5-6t3.5-6q5-7 8-12 2-4 4-7.5t5-7.5l23-37q5-8 11-10.5t10-2.5q17 0 23 14l45 79v5q0 12-7 18-11 11-29.5 14t-32.5 3zm230 277H27q-11 0-19-7.5T0 486V27Q0 16 8 8t19-8h458q11 0 19 8t8 19v459q0 11-8 18.5t-19 7.5zM255 399q-11 0-21-.5t-20-1.5q-11-2-20-3.5t-17-4.5q-20-6-29-14-18-12-18-31l1-8 45-83q7-15 23-15 5 0 9.5 1.5T222 245q2 1 7 1 4 1 10 1.5t16 .5q15 0 22.5-1t9.5-3q18-6 26-6 16 0 23 15l42 78q4 6 4 13 0 18-14.5 29T333 390t-42 7.5-36 1.5zm-123-65q0 1-1 1zm37 16l-1 2q0-1 .5-1t.5-1z"/>
</svg>