<svg xmlns="http://www.w3.org/2000/svg" viewBox="0 0 512 512">
	<path d="M64 64v384h384V64H64zm248 222q-18 5-41 7t-46 2q-18 0-33-1.5t-24-3.5-10.5-4l-1.5-2q0-3 6-6 11-5 21-7.5t17-4.5q9-1 16-1-16 4-26 8-8 4-8.5 6l-.5 2q0 3 13 5 6 1 31 1 26 0 51.5-2.5T328 278q-3 1-5 2-3 2-11 6zm3 35q-20 6-39 8.5t-36 2.5q-18 0-32-2.5t-19.5-6-5.5-6.5q0-2 1.5-5t16.5-8q-4 3-4 6v1q0 4 12 7 8 1 31 1 13 0 27-1t33-4q2 1 4 3 2 1 11 4zm-170 75q-16-3-16.5-6l-.5-3q0-5 7.5-9.5t19-8T175 366q4 0 8 2h-3q-1 0-9 2-2 0-7 1.5t-8.5 4-4.5 4l-1 1.5q0 2 3 3 13 5 38 7.5t54 2.5q31 0 59.5-2.5T349 384q8-3 10-5.5t2-4.5-2-4q7 3 7 6 0 2-3.5 5.5t-20.5 9-44 9-61 3.5q-21 0-44-1.5t-48-5.5zm163-38q-30 12-61 12-16 0-29.5-3t-18.5-7-5-7q0-1 1.5-4t15.5-7q-3 2-4 4 0 2 2.5 3t10.5 2q8 2 28 2 19 0 42-4 2 1 5 3 8 4 13 6zm-134 51q14 2 31 3.5t37 1.5q9 0 30.5-1.5T317 408t42-8.5 22-13.5q-1 9-12.5 15.5t-29.5 10-40.5 5.5-43.5 2q-7 0-19-.5t-24.5-1.5-23-3-14.5-5zm81-144q-25-22-35.5-36.5T209 203q0-8 5-17 9-13 24-23.5t28-22.5 19-23.5 6-22.5q0-8-2-16 9 11 9 24 0 12-8.5 28.5T255 168q-21 16-24 26t-3 16q0 7 3 15.5t11.5 18.5 12.5 21zM32 448V64q0-13 9-22.5T64 32h384q13 0 22.5 9.5T480 64v384q0 14-9.5 23t-22.5 9H64q-14 0-23-9t-9-23zm238-207q-16-18-16-33 0-5 4.5-16t21.5-22q20-14 52-23-28 16-41 27.5T276 192t-2 10q0 5 4 11t11 16q6 7 6 14 0 2-2 7.5t-8 12.5q-7 7-18 14 5-5 8-11 2-5 2-11.5t-7-13.5zm69 23q3-2 13-2 12 0 20 7t8 16q0 1-.5 7t-12 17.5T328 329v-1q22-12 30.5-22.5T367 286l-.5-4.5-7-9.5-14.5-5h-4q-2 0-3 .5t-2 .5q-1 1-2 1 1-1 1-2 3-3 4-3z"/>
</svg>