<svg xmlns="http://www.w3.org/2000/svg" viewBox="0 0 512 512">
	<path d="M88 0h114q37 0 62.5 26T290 88v24h24q36 0 61.5 25.5T401 199v24h24q36 0 61.5 25.5T512 311v114q0 36-25.5 61.5T425 512H311q-37 0-62.5-25.5T223 425v-24h-24q-36 0-61.5-25.5T112 314v-24H88q-37 0-62.5-25.5T0 202V88q0-36 25.5-62T88 0zM29 191q0 70 70 70h13v-62q0-14 3-24l26 25v106q0 38 20 52t49 14h10l3-61q0-14 4-25l26 25q-1 3-1 11v92q0 34 18.5 52t51.5 18h92q38-1 54-21t16-49v-92q0-33-18.5-51.5T414 252h-92q-8 0-11 1l-27-26q12-4 27-4h61v-12q0-29-16-49t-54-21H200l-27-25q9-4 26-4h62V93q0-31-20.5-47.5T191 29H99q-29 0-49.5 16T29 99v92zM79 64q4 0 9 4l329 331v-68q0-4 3.5-7.5t8.5-3.5q4 0 7.5 2.5t3.5 8.5v87q0 9-7 15.5t-17 6.5h-85q-4 0-7.5-3.5T320 428t3.5-8.5 7.5-3.5h71L71 85q-4-3-4-8t3.5-9 8.5-4z"/>
</svg>