<svg xmlns="http://www.w3.org/2000/svg" viewBox="0 0 512 512">
	<path d="M256 51q-42 0-79.5 16T111 111t-44 65.5T51 256t16 79.5 44 65 65.5 43.5 79.5 16 79.5-16 65.5-43.5 44-65 16-79.5-16-79.5-44-65.5-65.5-44T256 51zm0 77q-27 0-50.5 10T165 165t-27 40.5-10 50.5 10 50 27 40.5 40.5 27T256 383t50.5-9.5 40.5-27 27-40.5 10-50-10-50.5-27-40.5-40.5-27-50.5-10zm0 307q-37 0-69.5-14t-57-38.5-38.5-57T77 256t14-69.5 38.5-57 57-38.5T256 77t69.5 14 57 38.5 38.5 57 14 69.5-14 69.5-38.5 57-57 38.5-69.5 14zm0 76q-53 0-99.5-20T75 436.5t-55-81T0 256t20-100 55-81.5T156.5 20 256 0t99.5 20T437 74.5t55 81.5 20 100-20 99.5-55 81-81.5 54.5-99.5 20zm3-274q-3 1-7 0l-65-42q9-9 19-9h100q10 0 19 9l-17 12zm74-26v74q0 11-8 18.5t-19 7.5H206q-11 0-19-7.5t-8-18.5v-71q0-1 .5-1.5t.5-1.5l14 10 49 30q8 4 13 4 4 0 12-4z"/>
</svg>