<svg xmlns="http://www.w3.org/2000/svg" viewBox="0 0 512 512">
	<path d="M369.5 381q-12 0-20-8t-8-20 8-20l92-93-92-93q-8-8-8-19.5t8-19.5q9-9 20-9 13 0 20 9l112 112q8 8 8 19.5t-8 20.5l-112 113q-8 8-20 8zm-224 0q-12 0-20-8l-113-113q-7-9-7.5-20.5t7.5-19.5l113-112q9-9 20-9 13 0 20 9 8 8 8 19.5t-8 19.5l-93 93 93 93q8 8 8 20t-8 20-20 8zm172-134q0-13 7-21t19-8q13 0 20.5 8t7.5 21q0 12-7.5 20t-20.5 8q-12 0-19-8t-7-20zm-85 0q0-13 7.5-21t21.5-8q12 0 19.5 8t7.5 21q0 12-7.5 20t-19.5 8q-14 0-21.5-8t-7.5-20zm-85 0q0-13 7.5-21t21.5-8q12 0 19.5 8t7.5 21q0 12-7.5 20t-19.5 8q-14 0-21.5-8t-7.5-20z"/>
</svg>