<svg xmlns="http://www.w3.org/2000/svg" viewBox="0 0 512 512">
	<path d="M32 248h33q-1-4-1-8t1-8H32q-8 0-8 8t8 8zm-8 167q0 8 8 8h161q-1-4-1-8t1-8H32q-8 0-8 8zm65-167q3 15 14 24t26 9h62q15 0 26-9t14-24q1-3 1-8t-1-8q-3-15-14-24t-26-9h-62q-15 0-26 9t-14 24q-1 3-1 8t1 8zm128 175q3 15 14 24t26 9h62q15 0 26-9t14-24q1-3 1-8t-1-8q-3-15-14-24t-26-9h-62q-15 0-26 9t-14 24q-1 3-1 8t1 8zm263 0q8 0 8-8t-8-8h-97q1 4 1 8t-1 8h97zM24 65q0 8 8 8h257q-1-4-1-8t1-8H32q-8 0-8 8zm231 183h225q8 0 8-8t-8-8H255q1 4 1 8t-1 8zm98-224q-15 0-26 9t-14 24q-1 3-1 8t1 8q3 15 14 24t26 9h62q15 0 26-9t14-24q1-3 1-8t-1-8q-3-15-14-24t-26-9h-62zm126 49h1q8 0 8-8t-8-8h-1q1 4 1 8t-1 8zM32 33h264q9-15 24-24t33-9h62q18 0 33 9t24 24h8q14 0 23 9t9 23-9 23-23 9h-8q-9 15-24 24t-33 9h-62q-18 0-33-9t-24-24H32q-14 0-23-9T0 65t9-23 23-9zM0 240q0-14 9-23t23-9h40q9-15 24-24t33-9h62q18 0 33 9t24 24h232q14 0 23 9t9 23-9 23-23 9H248q-9 15-24 24t-33 9h-62q-18 0-33-9t-24-24H32q-14 0-23-9t-9-23zm0 175q0-14 9-23t23-9h168q9-15 24-24t33-9h62q18 0 33 9t24 24h104q14 0 23 9t9 23-9 23-23 9H376q-9 15-24 24t-33 9h-62q-18 0-33-9t-24-24H32q-14 0-23-9t-9-23z"/>
</svg>