<svg xmlns="http://www.w3.org/2000/svg" viewBox="0 0 512 512">
	<path d="M142 227q-11 0-19.5 8.5T114 256t8.5 20 19.5 8q12 0 20.5-8t8.5-20-8.5-20.5T142 227zm171 171q-12 0-20 8.5t-8 19.5q0 12 8 20.5t20 8.5 20-8.5 8-20.5q0-11-8-19.5t-20-8.5zm57-342q-12 0-20.5 9T341 85t8.5 20 20.5 9q11 0 20-9t9-20-9-20-20-9zM142 455H29q-12 0-20.5-8.5T0 426q0-11 8.5-19.5T29 398h113q12 0 20.5 8.5T171 426q0 12-8.5 20.5T142 455zm57-341H29q-12 0-20.5-8.5T0 85q0-11 8.5-20T29 56h170q12 0 20 9t8 20q0 12-8 20.5t-20 8.5zM62 284H29q-12 0-20.5-8T0 256t8.5-20.5T29 227h33q9-25 30.5-41t49.5-16q18 0 33.5 7t27 18.5 18 27T227 256q0 17-6.5 32.5t-18 27-27 18.5-33.5 7q-28 0-49.5-16T62 284zm251 227q-35 0-60.5-24.5T227 426q0-18 7-33.5t18.5-27 27-18T313 341q28 0 50 16t31 41h90q11 0 19.5 8.5T512 426q0 12-8.5 20.5T484 455h-90q-9 25-31 40.5T313 511zm171-227H313q-12 0-20-8t-8-20 8-20.5 20-8.5h171q11 0 19.5 8.5T512 256t-8.5 20-19.5 8zM370 170q-35 0-60-25t-25-60 25-60 60-25q28 0 49.5 15.5T450 56h34q11 0 19.5 9t8.5 20q0 12-8.5 20.5T484 114h-34q-9 25-30.5 40.5T370 170z"/>
</svg>