<svg xmlns="http://www.w3.org/2000/svg" viewBox="0 0 512 512">
	<path d="M4 390l92-114q7-11 7-20 0-10-7-20L4 122q-4-5-4-10 0-4 2-7 5-9 15-9h361q15 0 25 12l102 128q7 8 7 20t-7 20L403 404q-10 12-25 12H17q-10 0-15-9-2-4-2-7 0-5 4-10zm374-6l102-128-102-128H50l71 88q14 17 14 40t-14 40l-71 88h328zm-174-92l27-4q3 16 18 26v-47q-41-13-41-48 0-18 11.5-30t29.5-14v-15h16v15q17 1 27.5 12t13.5 26l-29 4q0-14-12-19v44q21 3 35 16 9 13 9 30 0 20-12 33.5T265 337v15h-16v-14q-18-2-31.5-14.5T204 292zm79 5q1-2 1-5 0-6-5-12.5t-14-8.5v43q16-2 18-17zm-34-60v-39q-14 5-14 19 0 15 14 20z"/>
</svg>