<svg xmlns="http://www.w3.org/2000/svg" viewBox="0 0 512 512">
	<path d="M51.5 158q4 32 27 53.5t56 21.5q36 0 60.5-24.5t24.5-59.5q0-33-21.5-57t-53.5-26l31 30q7 9 7 18t-7 18l-58 56q-7 7-17 7-11 0-18-7zm193 71q-15 18-30 29l161 161 30-30zm-110 54q-28 0-52.5-10.5T39.5 244 11 201.5.5 149q0-17 3.5-30t8.5-25q4-10 18-14 12-1 22 7l48 48 21-21-48-48q-5-4-6.5-10t-.5-11q2-14 14-19 21-11 54-11 29 0 53.5 10t42.5 28T259 95.5t10.5 53.5q0 15-3 29l192 194q8 8 7.5 17.5t-7.5 17.5l-65 66q-7 7-18 7t-18-7l-193-193q-13 3-30 3zm289-126q-11 0-18.5-7.5t-7.5-18.5q0-17 12-26.5t23-14.5q15-8 21.5-14.5t6.5-17.5q0-12-11-20t-26-8q-17 0-27.5 8t-10.5 20q0 11-7.5 18t-18.5 7-18-7-7-18q0-33 25.5-55.5T423.5-20q37 0 62.5 22.5T511.5 58q0 18-6 30.5T491 110t-18 14.5-17.5 9.5q-2 2-4 3t-4 3q-7 17-24 17zm0 80q-13 0-22.5-9.5t-9.5-22.5 9.5-22 22.5-9 22 9 9 22-9 22.5-22 9.5z"/>
</svg>