<svg id="Layer_16" data-name="Layer 16" xmlns="http://www.w3.org/2000/svg" viewBox="0 0 150 150"><defs><style>.cls-1{fill:#999;}.cls-2{fill:#0faaff;stroke:#00aeef;stroke-miterlimit:10;stroke-width:5px;}.cls-3{fill:#ccc;}.cls-4{fill:#fff;}</style></defs><title>get-started-with-the-mobile-development-kit</title><circle class="cls-1" cx="75" cy="75" r="74.5"/><polygon class="cls-2" points="101.35 64.5 77.15 47.75 51.66 64.5 51.51 93 75.93 106.58 101.23 92.95 101.35 64.5"/><path class="cls-3" d="M119.29,78.29A44.26,44.26,0,0,1,45.22,111l9.72-4.88L25.56,86.71l-2.09,35.12,10.6-5.3a56.05,56.05,0,0,0,97-38.25V78l-11.76.05v0.21h0Z"/><path class="cls-3" d="M68.37,34.44a44.34,44.34,0,0,1,37.05,11.67L95.62,50.8l29,19.92,2.76-35.07-10.69,5.11A56,56,0,0,0,18.95,77.34l11.78,0.18A44.1,44.1,0,0,1,68.37,34.44Z"/><path class="cls-4" d="M77.18,65.77L67,71.6V83.85l10.22,6.6,10.23-5.83V72.37Z"/><path class="cls-4" d="M65.51,54.8V55l11.81,7,11.25-6.58V55.21L77.32,47.75Z"/><path class="cls-4" d="M77.18,94.23L67,87.68l-0.05,0V100l10.22,6.6,10.23-5.83V88.49l-0.07,0Z"/><path class="cls-4" d="M101.12,76.87V64.6L90.91,58l-10,5.69,10.2,6.58V82.52Z"/><path class="cls-4" d="M52.4,76.87V64.6L62.61,58l10,5.69L62.37,70.27V82.52Z"/><path class="cls-4" d="M91.15,97.9V85.64l10-5.67,0.11,12.92Z"/><path class="cls-4" d="M62.52,97.84V85.59l-10-5.67L52.45,92.84Z"/></svg>