<svg width="47" height="51" viewBox="0 0 47 51" fill="none" xmlns="http://www.w3.org/2000/svg">
<path d="M14.5469 29.8048C14.5469 31.0126 14.7266 32.1107 15.0938 33.099C15.4844 34.0716 15.9922 34.9422 16.6406 35.703C17.2891 36.4638 18.0469 37.1148 18.9375 37.6638C19.7969 38.2129 20.7344 38.6678 21.7344 39.0207C22.7266 39.3815 23.7656 39.6482 24.8203 39.8207C25.8906 39.9933 26.9297 40.0796 27.9844 40.0796C29.3125 40.0796 30.5469 39.9776 31.7187 39.7658C32.8906 39.5462 34.0312 39.256 35.1562 38.8874C36.2812 38.5187 37.3672 38.0795 38.4531 37.5775C39.5469 37.0756 40.6562 36.5265 41.7969 35.9147V46.5503C40.5234 47.1778 39.2734 47.7033 38.0234 48.1582C36.7734 48.5975 35.5234 48.9818 34.25 49.2877C32.9766 49.6014 31.6875 49.8367 30.3672 49.9779C29.0469 50.1191 27.6953 50.1975 26.2891 50.1975C24.4141 50.1975 22.6016 49.9779 20.8594 49.5465C19.1172 49.1151 17.4844 48.4955 15.9531 47.6798C14.4219 46.8641 13.0234 45.8758 11.75 44.715C10.4688 43.5542 9.38281 42.2443 8.46875 40.7933C7.55469 39.3423 6.85156 37.7501 6.34375 36.0402C5.85156 34.3304 5.60156 32.5107 5.60156 30.5813C5.60156 28.5185 5.88281 26.5576 6.44531 24.6831C7.01562 22.8006 7.82031 21.0908 8.88281 19.5221C9.9375 17.9535 11.2266 16.5573 12.75 15.3416C14.2734 14.1259 15.9844 13.1298 17.8906 12.3611C16.8516 13.4043 16.0391 14.6357 15.4687 16.071C14.8828 17.4985 14.5156 18.9339 14.3516 20.3692H32.1484C32.1484 18.5652 31.9688 16.9966 31.6016 15.6475C31.2344 14.2984 30.6484 13.1768 29.8281 12.2905C29.0156 11.3964 27.9688 10.7219 26.6797 10.2826C25.3906 9.83557 23.8359 9.60812 22.0156 9.60812C19.8672 9.60812 17.7188 9.92185 15.5703 10.5729C13.4219 11.2003 11.3828 12.1023 9.44531 13.2396C7.50781 14.3926 5.72656 15.7495 4.10156 17.3025C2.47656 18.8711 1.10938 20.5574 0 22.385C0.234375 20.2672 0.703125 18.228 1.35156 16.2907C2 14.3534 2.85938 12.5494 3.89062 10.8787C4.92188 9.23164 6.13281 7.72571 7.51562 6.37665C8.89844 5.02759 10.4297 3.86678 12.125 2.92557C13.8203 1.98437 15.6172 1.22356 17.5703 0.713746C19.5234 0.266674 21.6016 0 23.7891 0C25.0703 0 26.3437 0.11765 27.6172 0.345108C28.8906 0.580409 30.1328 0.894143 31.3438 1.302C33.75 2.13339 35.8984 3.29421 37.7891 4.76876C39.6797 6.259 41.2656 7.95317 42.5547 9.89048C43.8438 11.8278 44.8203 13.969 45.4922 16.2985C46.1641 18.628 46.5078 21.0516 46.5078 23.5693V29.8048H14.5469Z" fill="#0078D7"/>
</svg>
