<svg width="54" height="54" viewBox="0 0 54 54" fill="none" xmlns="http://www.w3.org/2000/svg">
<g opacity="0.53" filter="url(#filter0_f_494_9987)">
<path d="M50.8513 28.0273C50.8513 31.0703 50.2313 34.0835 49.0268 36.8948C47.8222 39.7062 46.0567 42.2606 43.8309 44.4123C41.6052 46.564 38.9629 48.2709 36.0548 49.4354C33.1467 50.5999 30.0299 51.1992 26.8822 51.1992C23.7345 51.1992 20.6177 50.5999 17.7096 49.4354C14.8015 48.2709 12.1592 46.564 9.93348 44.4123C7.70774 42.2606 5.94219 39.7062 4.73763 36.8948C3.53307 34.0835 2.91309 31.0703 2.91309 28.0273C2.91309 21.8818 5.4384 15.9879 9.93348 11.6424C14.4286 7.29678 20.5252 4.85547 26.8822 4.85547C30.0299 4.85547 33.1467 5.45483 36.0548 6.61932C38.9629 7.78382 41.6052 9.49065 43.8309 11.6424C46.0567 13.7941 47.8222 16.3485 49.0268 19.1599C50.2313 21.9712 50.8513 24.9844 50.8513 28.0273Z" fill="black"/>
</g>
<path d="M51.7638 25.98C51.7638 29.2604 51.1202 32.5087 49.8698 35.5394C48.6193 38.5701 46.7866 41.3239 44.4761 43.6435C42.1656 45.9631 39.4226 47.8031 36.4038 49.0585C33.385 50.3138 30.1494 50.96 26.8819 50.96C20.2828 50.96 13.954 48.3282 9.28773 43.6435C4.62147 38.9588 2 32.6051 2 25.98C2 19.3549 4.62147 13.0011 9.28773 8.31647C13.954 3.63182 20.2828 1 26.8819 1C30.1494 1 33.385 1.64613 36.4038 2.90149C39.4226 4.15685 42.1656 5.99687 44.4761 8.31647C46.7866 10.6361 48.6193 13.3898 49.8698 16.4206C51.1202 19.4513 51.7638 22.6996 51.7638 25.98Z" fill="url(#paint0_linear_494_9987)" stroke="#CDCDCD" stroke-width="0.0930123" stroke-linecap="round" stroke-linejoin="round"/>
<path d="M49.8146 25.9797C49.8146 32.0857 47.3985 37.9417 43.0979 42.2592C38.7973 46.5768 32.9644 49.0024 26.8824 49.0024C20.8004 49.0024 14.9675 46.5768 10.6669 42.2592C6.36626 37.9417 3.9502 32.0857 3.9502 25.9797C3.9502 19.8737 6.36626 14.0178 10.6669 9.70023C14.9675 5.38263 20.8004 2.95703 26.8824 2.95703C32.9644 2.95703 38.7973 5.38263 43.0979 9.70023C47.3985 14.0178 49.8146 19.8737 49.8146 25.9797Z" fill="url(#paint1_radial_494_9987)"/>
<path d="M26.8813 4.15625C26.696 4.15625 26.5469 4.30594 26.5469 4.49191V8.36368C26.5469 8.54964 26.696 8.69933 26.8813 8.69933C27.0665 8.69933 27.2156 8.54964 27.2156 8.36368V4.49191C27.2156 4.30594 27.0665 4.15625 26.8813 4.15625ZM24.694 4.29504C24.6719 4.29265 24.6491 4.29265 24.626 4.29532C24.4418 4.31462 24.309 4.47904 24.3282 4.664L24.4967 6.28378C24.5159 6.46874 24.6797 6.60211 24.864 6.5828C25.0482 6.5635 25.1811 6.39906 25.1618 6.2141L24.9934 4.59434C24.9766 4.4325 24.849 4.31015 24.694 4.29504H24.694ZM29.0838 4.29663C28.9288 4.31163 28.8012 4.43396 28.7843 4.59578L28.6146 6.21542C28.5952 6.40036 28.7281 6.56495 28.9123 6.5844C29.0965 6.60386 29.2603 6.47062 29.2796 6.28567L29.4494 4.6659C29.4687 4.48096 29.3359 4.3165 29.1517 4.29706C29.1286 4.29467 29.106 4.29467 29.0838 4.29665V4.29663ZM22.4471 4.62214C22.4249 4.62232 22.4023 4.62454 22.3796 4.62932C22.1984 4.66784 22.0834 4.84535 22.1218 5.02728L22.9205 8.81502C22.9588 8.99695 23.1356 9.11241 23.3168 9.07391C23.4981 9.03539 23.6131 8.85802 23.5747 8.67609L22.776 4.88821C22.7424 4.72902 22.6029 4.62072 22.4472 4.62194L22.4471 4.62214ZM31.3306 4.62534C31.1748 4.62375 31.0352 4.73215 31.0016 4.89132L30.2001 8.67861C30.1616 8.86052 30.2765 9.03807 30.4577 9.07672C30.6389 9.11539 30.8157 9 30.8542 8.81812L31.6557 5.03081C31.6942 4.84891 31.5792 4.67135 31.3981 4.63272C31.3754 4.62793 31.3528 4.62554 31.3306 4.62554L31.3306 4.62534ZM20.3029 5.22914C20.2596 5.22515 20.2149 5.22994 20.1708 5.24462C19.9947 5.30211 19.8989 5.49063 19.9561 5.66748L20.4574 7.21643C20.5147 7.39329 20.7026 7.48945 20.8788 7.43199C21.0549 7.37449 21.1506 7.18583 21.0933 7.00897L20.5921 5.46004C20.5492 5.32739 20.4327 5.2402 20.3029 5.22911V5.22914ZM33.4627 5.22994C33.3329 5.24103 33.2165 5.32822 33.1735 5.46086L32.6719 7.00965C32.6147 7.1865 32.7104 7.37518 32.8865 7.43267C33.0627 7.49016 33.2506 7.39407 33.3079 7.21725L33.8094 5.66831C33.8667 5.49145 33.771 5.30279 33.5949 5.2453C33.5509 5.23094 33.506 5.22624 33.4627 5.22991V5.22994ZM18.1824 6.00818C18.139 6.00898 18.095 6.01854 18.0527 6.03744C17.8835 6.11296 17.8078 6.31052 17.883 6.48045L19.4494 10.0184C19.5246 10.1884 19.7213 10.2643 19.8906 10.1888C20.0598 10.1133 20.1357 9.91572 20.0605 9.74579L18.4939 6.20781C18.4376 6.08035 18.3127 6.00564 18.1824 6.00818ZM35.6071 6.02006C35.4768 6.01766 35.3519 6.0919 35.2953 6.21925L33.7242 9.75507C33.6487 9.92489 33.7241 10.1226 33.8933 10.1984C34.0625 10.2741 34.2594 10.1984 34.3349 10.0286L35.906 6.49278C35.9814 6.32294 35.906 6.12523 35.7369 6.04947C35.6946 6.03057 35.6506 6.021 35.6071 6.02004V6.02006ZM16.2142 7.0537C16.15 7.04892 16.0839 7.06326 16.0237 7.09819C15.8633 7.19117 15.8087 7.39566 15.9013 7.55671L16.7124 8.96715C16.8051 9.12821 17.0087 9.18297 17.1692 9.08999C17.3296 8.99701 17.3841 8.79254 17.2915 8.63148L16.4804 7.22105C16.4225 7.12039 16.3212 7.06123 16.2142 7.05371V7.0537ZM37.5484 7.0537C37.4414 7.06088 37.3402 7.12036 37.2823 7.22103L36.471 8.63146C36.3784 8.79251 36.4332 8.99698 36.5936 9.08997C36.754 9.18295 36.9576 9.12818 37.0502 8.96713L37.8614 7.55668C37.954 7.39564 37.8994 7.19115 37.739 7.09817C37.6789 7.06332 37.6126 7.04921 37.5484 7.05368V7.0537ZM14.303 8.25045C14.2386 8.25284 14.1742 8.27358 14.118 8.31449C13.968 8.42369 13.9349 8.63277 14.0437 8.78329L16.3082 11.9172C16.4169 12.0678 16.6253 12.101 16.7753 11.9919C16.9252 11.8827 16.9583 11.6736 16.8495 11.5231L14.5849 8.38913C14.5169 8.29505 14.4101 8.24681 14.303 8.25049V8.25045ZM39.4835 8.26752C39.3764 8.26354 39.2695 8.31178 39.2014 8.40573L36.9327 11.5366C36.8237 11.687 36.8566 11.8962 37.0064 12.0056C37.1562 12.115 37.3645 12.082 37.4735 11.9317L39.7421 8.80083C39.8511 8.65044 39.8181 8.44128 39.6684 8.33188C39.6122 8.29089 39.5479 8.26984 39.4835 8.26752ZM12.5946 9.68882C12.5093 9.68404 12.4222 9.71267 12.3533 9.77488C12.2157 9.89929 12.2046 10.1107 12.3286 10.2489L13.414 11.4594C13.5379 11.5976 13.7484 11.6087 13.8861 11.4843C14.0238 11.3599 14.0349 11.1484 13.9109 11.0101L12.8256 9.79976C12.7637 9.73062 12.68 9.69329 12.5946 9.68879V9.68882ZM41.1704 9.69122C41.085 9.696 41.0013 9.73308 40.9394 9.80218L39.854 11.0124C39.73 11.1506 39.741 11.3621 39.8787 11.4866C40.0163 11.611 40.2269 11.5999 40.3508 11.4617L41.4364 10.2515C41.5603 10.1133 41.5492 9.90174 41.4116 9.77731C41.3427 9.71511 41.2558 9.68677 41.1705 9.69126L41.1704 9.69122ZM10.9573 11.2678C10.8719 11.2726 10.7883 11.3097 10.7264 11.3788C10.6024 11.517 10.6135 11.7284 10.7512 11.8528L13.6174 14.4432C13.755 14.5676 13.9656 14.5565 14.0895 14.4183C14.2134 14.2801 14.2025 14.0687 14.0648 13.9443L11.1985 11.3539C11.1296 11.2917 11.0426 11.2634 10.9572 11.2679L10.9573 11.2678ZM42.8157 11.2791C42.7303 11.2744 42.6431 11.3029 42.5743 11.3651L39.7063 13.9534C39.5686 14.0777 39.5573 14.2891 39.6811 14.4274C39.8049 14.5657 40.0156 14.577 40.1534 14.4526L43.0214 11.8643C43.1592 11.7399 43.1704 11.5286 43.0465 11.3903C42.9846 11.3211 42.901 11.2837 42.8157 11.2791H42.8157ZM9.59566 13.0255C9.48847 13.0216 9.38161 13.07 9.31357 13.164C9.2047 13.3145 9.23772 13.5235 9.3876 13.6328L10.7 14.5901C10.8498 14.6994 11.058 14.6664 11.1669 14.516C11.2758 14.3655 11.2429 14.1563 11.0931 14.047L9.78066 13.0897C9.7245 13.0487 9.65999 13.0278 9.59568 13.0255L9.59566 13.0255ZM44.176 13.0377C44.1116 13.0401 44.0472 13.0608 43.991 13.1018L42.678 14.0582C42.5281 14.1674 42.4949 14.3766 42.6037 14.5272C42.7125 14.6777 42.9207 14.7108 43.0706 14.6016L44.3837 13.6452C44.5337 13.536 44.5667 13.3269 44.4579 13.1764C44.3899 13.0823 44.2832 13.0341 44.176 13.0378V13.0377ZM8.32326 14.9005C8.21627 14.9076 8.11506 14.9671 8.05717 15.0678C7.96455 15.2288 8.01912 15.4333 8.17953 15.5263L11.5193 17.4622C11.6797 17.5552 11.8834 17.5004 11.976 17.3393C12.0686 17.1783 12.0141 16.9738 11.8537 16.8808L8.51386 14.9449C8.45373 14.9101 8.38744 14.896 8.32326 14.9004V14.9005ZM45.4393 14.9005C45.3751 14.8957 45.3088 14.91 45.2487 14.945L41.9089 16.8808C41.7485 16.9738 41.6939 17.1783 41.7866 17.3394C41.8792 17.5004 42.0828 17.5552 42.2432 17.4622L45.5832 15.5263C45.7436 15.4334 45.7981 15.2289 45.7055 15.0678C45.6476 14.9672 45.5463 14.908 45.4393 14.9005V14.9005ZM7.3612 16.8989C7.23091 16.8957 7.10597 16.9706 7.04937 17.098C6.97391 17.2678 7.04933 17.4655 7.2185 17.5413L8.70015 18.2048C8.86932 18.2805 9.06626 18.2048 9.14171 18.035C9.21717 17.8652 9.1416 17.6674 8.97244 17.5917L7.49094 16.9282C7.44868 16.9092 7.40463 16.8998 7.3612 16.8989ZM46.4078 16.9127C46.3644 16.9135 46.3203 16.9231 46.278 16.942L44.796 17.6043C44.6268 17.68 44.5511 17.8776 44.6265 18.0475C44.7018 18.2174 44.8988 18.2933 45.068 18.2177L46.55 17.5552C46.7192 17.4796 46.7947 17.282 46.7194 17.1121C46.6629 16.9847 46.5381 16.9101 46.4078 16.9127ZM6.5038 18.9877C6.37393 18.9986 6.25752 19.0857 6.21449 19.2183C6.15714 19.3951 6.25259 19.5839 6.42875 19.6415L10.0955 20.841C10.2716 20.8986 10.4596 20.8026 10.517 20.6259C10.5744 20.4491 10.4789 20.2603 10.3027 20.2027L6.63598 19.0032C6.59197 18.9887 6.54708 18.984 6.5038 18.9877V18.9877ZM47.2637 19.002C47.2204 18.9981 47.1757 19.0028 47.1316 19.0175L43.464 20.2144C43.2879 20.2719 43.1922 20.4606 43.2494 20.6374C43.3067 20.8143 43.4946 20.9103 43.6708 20.8529L47.3383 19.656C47.5144 19.5985 47.6102 19.4098 47.553 19.2329C47.51 19.1003 47.3935 19.0131 47.2637 19.002V19.002ZM5.96961 21.1803C5.81385 21.1787 5.67414 21.2872 5.64045 21.4464C5.60192 21.6283 5.71687 21.8058 5.89803 21.8445L7.48488 22.1831C7.66606 22.2218 7.84289 22.1064 7.8814 21.9245C7.91993 21.7426 7.80501 21.565 7.62385 21.5264L6.03714 21.1878C6.01451 21.183 5.99185 21.1806 5.96961 21.1806V21.1803ZM47.7937 21.1835C47.7714 21.1837 47.749 21.1867 47.7263 21.1907L46.1395 21.5291C45.9583 21.5678 45.8434 21.7451 45.8819 21.927C45.9204 22.1089 46.0972 22.2244 46.2784 22.1858L47.8651 21.8474C48.0463 21.8087 48.1613 21.6312 48.1229 21.4493C48.0892 21.2901 47.9495 21.1818 47.7937 21.1831L47.7937 21.1835ZM5.56528 23.3858C5.41023 23.4007 5.2826 23.5228 5.26557 23.6846C5.24611 23.8696 5.37863 24.0342 5.56283 24.0538L9.39798 24.4608C9.58218 24.4804 9.7462 24.3472 9.76566 24.1623C9.78512 23.9773 9.65246 23.8127 9.46825 23.7932L5.6331 23.3861C5.61007 23.3837 5.58744 23.3837 5.56528 23.3858V23.3858ZM48.2009 23.4147C48.1787 23.4123 48.1559 23.4123 48.1329 23.415L44.2973 23.8169C44.1131 23.8362 43.9803 24.0006 43.9995 24.1856C44.0187 24.3705 44.1825 24.5039 44.3667 24.4846L48.2023 24.0827C48.3865 24.0634 48.5193 23.899 48.5001 23.714C48.4833 23.5522 48.3559 23.4298 48.2009 23.4147L48.2009 23.4147ZM5.50034 25.6434C5.31511 25.6434 5.16602 25.7931 5.16602 25.9791C5.16602 26.165 5.31511 26.3147 5.50034 26.3147H7.12256C7.30778 26.3147 7.45702 26.165 7.45702 25.9791C7.45702 25.7931 7.30778 25.6434 7.12256 25.6434H5.50034ZM46.64 25.6434C46.4548 25.6434 46.3057 25.7931 46.3057 25.9791C46.3057 26.165 46.4548 26.3147 46.64 26.3147H48.2622C48.4474 26.3147 48.5966 26.165 48.5966 25.9791C48.5966 25.7931 48.4474 25.6434 48.2622 25.6434H46.64ZM9.46379 27.4732C9.44163 27.4708 9.41898 27.4708 9.39594 27.4735L5.56021 27.8754C5.37598 27.8947 5.24319 28.0591 5.2624 28.2441C5.28162 28.429 5.44539 28.5624 5.62961 28.5431L9.46537 28.1412C9.6496 28.1219 9.78239 27.9575 9.76318 27.7725C9.74635 27.6107 9.6188 27.4884 9.46377 27.4732H9.46379ZM44.2967 27.497C44.1417 27.5119 44.0141 27.634 43.997 27.7959C43.9776 27.9808 44.1101 28.1454 44.2943 28.165L48.1295 28.5721C48.3137 28.5916 48.4777 28.4584 48.4971 28.2735C48.5166 28.0886 48.3839 27.9239 48.1997 27.9044L44.3647 27.4973C44.3417 27.4949 44.3189 27.4949 44.2967 27.497L44.2967 27.497ZM7.55183 29.7646C7.52959 29.7648 7.50696 29.767 7.48432 29.7718L5.89747 30.1102C5.71628 30.1489 5.60141 30.3264 5.63989 30.5083C5.67842 30.6902 5.85525 30.8055 6.03644 30.7669L7.62329 30.4286C7.80447 30.39 7.91933 30.2124 7.88084 30.0305C7.84717 29.8714 7.70761 29.7631 7.55185 29.7644L7.55183 29.7646ZM46.2103 29.7678C46.0545 29.7662 45.915 29.8746 45.8813 30.0338C45.8428 30.2157 45.9576 30.3932 46.1387 30.4319L47.7256 30.7705C47.9067 30.8091 48.0836 30.6939 48.1221 30.512C48.1606 30.3301 48.0457 30.1524 47.8645 30.1138L46.2778 29.7752C46.2552 29.7704 46.2325 29.768 46.2103 29.768L46.2103 29.7678ZM10.2239 31.0899C10.1807 31.0859 10.136 31.0907 10.0919 31.1054L6.42429 32.3023C6.24812 32.3598 6.15245 32.5484 6.20971 32.7253C6.26698 32.9021 6.4549 32.9982 6.63106 32.9407L10.2986 31.7438C10.4747 31.6863 10.5705 31.4976 10.5133 31.3208C10.4703 31.1881 10.3538 31.1009 10.2239 31.0899V31.0899ZM43.535 31.1018C43.4052 31.1127 43.2887 31.1998 43.2457 31.3324C43.1883 31.5092 43.2838 31.698 43.46 31.7556L47.1267 32.9551C47.3029 33.0127 47.4909 32.9167 47.5482 32.7399C47.6057 32.5631 47.5101 32.3744 47.3339 32.3168L43.6672 31.1173C43.6232 31.1028 43.5783 31.0981 43.535 31.1018V31.1018ZM8.8244 33.7114C8.78095 33.7122 8.73697 33.7216 8.69467 33.7405L7.21258 34.403C7.04336 34.4786 6.96784 34.6763 7.04317 34.8462C7.11855 35.0161 7.31537 35.0919 7.48459 35.0163L8.96667 34.3539C9.13588 34.2783 9.21142 34.0806 9.13609 33.9108C9.07961 33.7833 8.95469 33.7088 8.8244 33.7114V33.7114ZM44.9328 33.7242C44.8025 33.721 44.6776 33.7959 44.621 33.9233C44.5455 34.0931 44.6209 34.2908 44.7901 34.3665L46.2716 35.03C46.4408 35.1058 46.6377 35.0301 46.7132 34.8602C46.7886 34.6904 46.7132 34.4927 46.544 34.417L45.0625 33.7535C45.0203 33.7345 44.9762 33.7251 44.9328 33.7242V33.7242ZM11.7099 34.4516C11.6458 34.4468 11.5795 34.4611 11.5193 34.4961L8.17953 36.432C8.01912 36.5249 7.96455 36.7294 8.05717 36.8905C8.14979 37.0515 8.35345 37.1063 8.51386 37.0133L11.8537 35.0776C12.0141 34.9846 12.0686 34.78 11.976 34.6189C11.9181 34.5183 11.8169 34.4591 11.7099 34.4516V34.4516ZM42.0528 34.4516C41.9458 34.4588 41.8444 34.5182 41.7866 34.6189C41.6939 34.7799 41.7485 34.9846 41.9089 35.0776L45.2487 37.0133C45.4091 37.1063 45.6129 37.0515 45.7055 36.8904C45.7981 36.7294 45.7436 36.5249 45.5832 36.4319L42.2432 34.4961C42.1831 34.4612 42.117 34.4471 42.0528 34.4516V34.4516ZM10.8769 37.2924C10.8125 37.2948 10.7481 37.3157 10.6919 37.3566L9.37893 38.3131C9.229 38.4223 9.19584 38.6313 9.30458 38.7819C9.41336 38.9324 9.62162 38.9657 9.77155 38.8564L11.0847 37.9C11.2346 37.7908 11.2677 37.5817 11.159 37.4312C11.091 37.3371 10.9841 37.2887 10.8769 37.2924V37.2924ZM42.8777 37.3038C42.7706 37.2998 42.6637 37.3483 42.5956 37.4423C42.4867 37.5927 42.5198 37.8019 42.6697 37.9112L43.9821 38.8685C44.1319 38.9778 44.3401 38.9447 44.449 38.7942C44.5579 38.6437 44.5249 38.4347 44.3751 38.3254L43.0627 37.3681C43.0066 37.3271 42.9421 37.306 42.8778 37.3037L42.8777 37.3038ZM13.8506 37.4197C13.7652 37.4149 13.6782 37.4434 13.6093 37.5056L10.7413 40.0939C10.6035 40.2183 10.5923 40.4297 10.7161 40.568C10.84 40.7062 11.0505 40.7175 11.1883 40.5932L14.0564 38.0048C14.1941 37.8805 14.2053 37.6691 14.0815 37.5308C14.0196 37.4616 13.9359 37.4242 13.8506 37.4197ZM39.904 37.4289C39.8187 37.4337 39.735 37.4708 39.673 37.5399C39.5491 37.6781 39.5602 37.8895 39.6978 38.0139L42.564 40.6043C42.7017 40.7287 42.9123 40.7176 43.0363 40.5794C43.1602 40.4412 43.1491 40.2298 43.0115 40.1054L40.1451 37.515C40.0763 37.4528 39.9894 37.4245 39.904 37.429V37.4289ZM16.5715 39.8879C16.4643 39.8839 16.3573 39.9321 16.2892 40.0261L14.0206 43.157C13.9116 43.3074 13.9444 43.5166 14.0941 43.626C14.2439 43.7354 14.4522 43.7024 14.5612 43.552L16.8299 40.4211C16.9388 40.2708 16.9061 40.0616 16.7563 39.9522C16.7002 39.9112 16.6358 39.8902 16.5715 39.8879ZM37.1725 39.902C37.1081 39.9043 37.0437 39.925 36.9875 39.966C36.8376 40.0752 36.8044 40.2843 36.9131 40.4348L39.1776 43.5687C39.2863 43.7193 39.4946 43.7525 39.6446 43.6434C39.7945 43.5342 39.8276 43.3251 39.7189 43.1746L37.4544 40.0406C37.3864 39.9466 37.2797 39.8983 37.1725 39.902V39.902ZM13.6428 40.3855C13.5574 40.3903 13.4737 40.4274 13.4118 40.4965L12.3264 41.7067C12.2024 41.8449 12.2134 42.0565 12.3511 42.1809C12.4887 42.3053 12.6993 42.2942 12.8232 42.1559L13.9088 40.9457C14.0327 40.8075 14.0216 40.596 13.884 40.4715C13.8151 40.4093 13.7282 40.381 13.6428 40.3855L13.6428 40.3855ZM40.1177 40.3871C40.0324 40.3823 39.9455 40.411 39.8766 40.4732C39.7389 40.5976 39.7279 40.809 39.8518 40.9472L40.937 42.1577C41.061 42.2959 41.2715 42.307 41.4092 42.1826C41.5468 42.0582 41.5579 41.8467 41.434 41.7084L40.3487 40.4981C40.2867 40.4289 40.203 40.3916 40.1177 40.3871L40.1177 40.3871ZM19.7395 41.7298C19.6093 41.7266 19.4845 41.8015 19.4279 41.9288L17.8566 45.4646C17.7811 45.6345 17.8566 45.8322 18.0257 45.9079C18.1949 45.9837 18.3918 45.908 18.4673 45.7381L20.0385 42.2023C20.114 42.0325 20.0386 41.8348 19.8694 41.759C19.8271 41.7401 19.783 41.7306 19.7395 41.7298ZM34.0018 41.7395C33.9584 41.7403 33.9143 41.7497 33.8719 41.7686C33.7028 41.8441 33.627 42.0417 33.7023 42.2116L35.2686 45.7496C35.3438 45.9194 35.5407 45.9955 35.71 45.92C35.8792 45.8444 35.9549 45.6469 35.8797 45.477L34.3133 41.939C34.2569 41.8116 34.1321 41.737 34.0018 41.7395ZM16.9785 42.823C16.8716 42.8301 16.7703 42.8896 16.7124 42.9903L15.9013 44.4007C15.8087 44.5618 15.8633 44.7663 16.0237 44.8592C16.1841 44.9522 16.3878 44.8974 16.4804 44.7364L17.2915 43.3259C17.3841 43.1649 17.3296 42.9604 17.1692 42.8674C17.109 42.8326 17.0427 42.8185 16.9785 42.8229V42.823ZM36.784 42.823C36.7198 42.8182 36.6537 42.8326 36.5936 42.8675C36.4331 42.9604 36.3786 43.1649 36.4712 43.326L37.2823 44.7364C37.3749 44.8975 37.5786 44.9522 37.739 44.8593C37.8994 44.7663 37.954 44.5618 37.8614 44.4008L37.0502 42.9903C36.9923 42.8897 36.891 42.8305 36.784 42.823V42.823ZM23.2375 42.8735C23.0817 42.8719 22.9421 42.9803 22.9085 43.1395L22.107 46.9268C22.0685 47.1087 22.1834 47.2863 22.3646 47.3249C22.5458 47.3636 22.7226 47.2482 22.7611 47.0663L23.5626 43.279C23.6011 43.0971 23.4861 42.9196 23.305 42.8809C23.2824 42.8761 23.2597 42.8737 23.2375 42.8737L23.2375 42.8735ZM30.5133 42.8759C30.491 42.8761 30.4685 42.8783 30.4459 42.8831C30.2647 42.9216 30.1497 43.099 30.188 43.2809L30.9867 47.0688C31.0251 47.2507 31.2019 47.3662 31.3831 47.3277C31.5643 47.2892 31.6793 47.1117 31.641 46.9297L30.8421 43.1421C30.8085 42.9829 30.669 42.8746 30.5133 42.8758L30.5133 42.8759ZM26.8813 43.2579C26.696 43.2579 26.5469 43.4076 26.5469 43.5936V47.4654C26.5469 47.6513 26.696 47.801 26.8813 47.801C27.0665 47.801 27.2156 47.6513 27.2156 47.4654V43.5936C27.2156 43.4076 27.0665 43.2579 26.8813 43.2579ZM20.744 44.509C20.6141 44.5201 20.4976 44.6073 20.4547 44.7399L19.9532 46.2889C19.896 46.4657 19.9917 46.6544 20.1678 46.7119C20.344 46.7694 20.5319 46.6731 20.5892 46.4963L21.0906 44.9475C21.1479 44.7707 21.0522 44.582 20.876 44.5245C20.832 44.5102 20.7873 44.5054 20.744 44.5091V44.509ZM33.016 44.5098C32.9727 44.5058 32.928 44.5106 32.8839 44.5252C32.7078 44.5827 32.612 44.7714 32.6692 44.9482L33.1705 46.4972C33.2278 46.674 33.4157 46.7701 33.5919 46.7126C33.768 46.6551 33.8638 46.4666 33.8066 46.2897L33.3052 44.7408C33.2622 44.6081 33.1458 44.5209 33.016 44.5099V44.5098ZM24.7826 45.3725C24.6276 45.3875 24.4998 45.5097 24.4829 45.6715L24.3133 47.2913C24.294 47.4762 24.4267 47.6407 24.6109 47.6601C24.7951 47.6796 24.959 47.5464 24.9784 47.3614L25.148 45.7418C25.1673 45.5568 25.0346 45.3923 24.8504 45.3728C24.8274 45.3704 24.8047 45.3704 24.7826 45.3725L24.7826 45.3725ZM28.9665 45.3741C28.9444 45.3717 28.9216 45.3717 28.8985 45.3744C28.7143 45.3937 28.5815 45.5581 28.6007 45.7431L28.7692 47.363C28.7885 47.5479 28.9522 47.6812 29.1365 47.6619C29.3207 47.6426 29.4536 47.4781 29.4343 47.2932L29.2659 45.6734C29.2491 45.5116 29.1215 45.3892 28.9665 45.3741L28.9665 45.3741Z" fill="#F4F2F3"/>
<g opacity="0.409" filter="url(#filter1_f_494_9987)">
<path d="M42.5526 12.5547L24.2601 23.2246L12.6943 41.5044L29.6142 28.9226L42.5526 12.5547Z" fill="black"/>
</g>
<path d="M29.5039 28.7368L24.2608 23.2244L42.8603 10.6631L29.5039 28.7368Z" fill="#FF5150"/>
<path d="M29.5041 28.7375L24.2609 23.225L10.9045 41.299L29.5041 28.7375Z" fill="#F1F1F1"/>
<path opacity="0.243" d="M10.9043 41.2996L29.5039 28.7381L42.8604 10.6641L10.9043 41.2996Z" fill="black"/>
<defs>
<filter id="filter0_f_494_9987" x="0.544165" y="2.48655" width="52.6758" height="51.0816" filterUnits="userSpaceOnUse" color-interpolation-filters="sRGB">
<feFlood flood-opacity="0" result="BackgroundImageFix"/>
<feBlend mode="normal" in="SourceGraphic" in2="BackgroundImageFix" result="shape"/>
<feGaussianBlur stdDeviation="1.18446" result="effect1_foregroundBlur_494_9987"/>
</filter>
<filter id="filter1_f_494_9987" x="12.021" y="11.8814" width="31.2051" height="30.2959" filterUnits="userSpaceOnUse" color-interpolation-filters="sRGB">
<feFlood flood-opacity="0" result="BackgroundImageFix"/>
<feBlend mode="normal" in="SourceGraphic" in2="BackgroundImageFix" result="shape"/>
<feGaussianBlur stdDeviation="0.336663" result="effect1_foregroundBlur_494_9987"/>
</filter>
<linearGradient id="paint0_linear_494_9987" x1="26.8819" y1="50.96" x2="26.8819" y2="1" gradientUnits="userSpaceOnUse">
<stop stop-color="#BDBDBD"/>
<stop offset="1" stop-color="white"/>
</linearGradient>
<radialGradient id="paint1_radial_494_9987" cx="0" cy="0" r="1" gradientUnits="userSpaceOnUse" gradientTransform="translate(26.9868 22.623) scale(24.882 24.9802)">
<stop stop-color="#06C2E7"/>
<stop offset="0.25" stop-color="#0DB8EC"/>
<stop offset="0.5" stop-color="#12AEF1"/>
<stop offset="0.75" stop-color="#1F86F9"/>
<stop offset="1" stop-color="#107DDD"/>
</radialGradient>
</defs>
</svg>
