<svg xmlns="http://www.w3.org/2000/svg" viewBox="0 0 512 512">
	<path d="M2.994 259.493c3.992-4.99 10.979-5.988 11.977-5.988h34.932v-21.957c0-7.985 2.994-12.975 8.982-15.97.998-.997 3.992-1.995 6.986-1.995h61.88c12.974 0 17.964 10.978 17.964 17.965v21.957h26.948c12.974 0 16.967 10.978 16.967 17.965v12.974l308.397-.998c4.99 0 8.983 1.996 11.977 5.989.998 2.994 1.996 4.99 1.996 6.986 0 .998-.998 5.988-1.996 6.986l-17.965 36.928c-4.99 10.979-15.969 12.975-20.96 12.975H46.91c-11.977 0-16.967-6.986-19.962-13.973l-24.95-65.871C.997 270.472 0 268.476 0 266.48c0-2.995.998-4.99 2.994-6.987zm62.877-5.988h63.876v-21.957c0-.998-.998-1.996-1.997-1.996H67.867c-.998 0-1.996.998-1.996 1.996v21.957zM15.97 269.474l24.951 64.873c0 2.994 1.996 3.992 5.988 3.992H471.08c2.994 0 4.99-.998 6.986-3.992l16.967-35.93-320.374.998V271.47c0-.998-.998-1.996-1.996-1.996H15.969z"/>
</svg>