<svg xmlns="http://www.w3.org/2000/svg" viewBox="0 0 512 512">
	<path d="M455.5 29l29 29c18 18 27 38 27 61 0 24-9 44-27 61l-30 29-5-4c14-17 21-35 21-56 0-19-6-34-17-45l-39-37-27 27c-2 0-3-1-3-2V0h94l2 4zm-80 107c32 35 49 75 49 122 0 91-76 167-165 167s-165-76-165-167c0-95 74-170 165-170 45 0 84 16 116 48zm-2 198c15-24 22-49 22-76 0-79-60-142-136-142-79 0-138 65-138 142 0 73 63 138 138 138 47 0 89-19 114-62zm-114-78h110v28h-138V172h28v84zm-202 227l-29-29c-18-18-27-38-27-61s9-44 27-61l30-29 5 4c-14 17-21 36-21 56 0 19 6 34 17 45l39 37 27-27c2 0 3 1 3 2v92h-96 1v-1c0-1 0-2-1-3z"/>
</svg>