<svg xmlns="http://www.w3.org/2000/svg" viewBox="0 0 512 512">
	<path d="M439 252c6 8 8 19 8 32v170c0 13-6 26-18 38-11 13-24 19-36 19H119c-10 0-19-3-27-8-6-3-13-9-19-16-5-8-8-19-8-33V284c0-13 3-24 8-32 6-8 13-14 19-18 8-4 17-7 27-7V114c0-7 2-17 6-29s12-25 22-37c10-13 24-24 43-33 17-10 40-14 68-14 27 0 49 3 66 10 18 7 31 16 42 27 10 11 17 22 20 36 4 14 7 27 7 40v113c10 0 19 3 27 7 7 4 13 10 19 18zm-101-25V114c0-2-1-7-1-13-1-7-3-13-8-20-5-6-13-12-24-17-11-4-27-7-47-7-21 0-36 3-47 9s-19 13-25 20c-2 4-5 9-7 13s-4 9-5 15v113h164z"/>
</svg>