<svg xmlns="http://www.w3.org/2000/svg" viewBox="0 0 512 512">
	<path d="M0 259C0 171 72 99 160 99c36 0 68 11 96 33 28-22 60-33 96-33 88 0 160 72 160 160s-72 160-160 160c-36 0-69-13-96-33-27 20-60 33-96 33C72 419 0 347 0 259zm297-83l4 7c12 20 19 53 19 76 0 32-8 54-23 82-5 8-12 18-17 23 21 15 45 23 72 23 71 0 128-57 128-128s-57-128-128-128c-27 0-51 8-72 23 0 0 9 11 17 22zM160 387c27 0 52-8 73-23h-1c-1-1-3-4-6-7l-10-16c-15-27-24-51-24-82 0-36 13-78 40-105h1c-21-15-46-23-73-23-71 0-128 57-128 128s57 128 128 128z"/>
</svg>