<svg xmlns="http://www.w3.org/2000/svg" viewBox="0 0 512 512">
	<path d="M0 378V247c0-10 5-15 16-15h28c11 0 16 8 16 15v11h115v-35c0-10 5-15 16-15h36v-8h-17c-11 0-16-9-16-16v-27c0-11 5-16 16-16h17v-6c0-7 3-12 9-14 3-1 5-2 7-2h26c11 0 16 8 16 16v6h16c11 0 16 8 16 16v27c0 6-3 11-8 14h-2l-2 1h-2c-1 1-1 1-2 1h-16v8h35c11 0 16 8 16 15v35h116v-11c0-10 5-15 16-15h28c11 0 16 8 16 15v131c0 11-5 16-16 16h-28c-11 0-16-8-16-16v-11H60v11c0 11-5 16-16 16H16c-11 0-16-8-16-16zm20-126v122h19v-27h433v27h20V252h-20v27H316v-51h-52v-49h33v-18h-33v-22h-17v22h-32v18h32v49h-51v51H39v-27H20z"/>
</svg>