<svg xmlns="http://www.w3.org/2000/svg" viewBox="0 0 512 512">
	<path d="M308.77 33.145h158.746C491.94 33.145 512 52.334 512 77.629v81.117c0 24.423-20.061 43.612-44.484 43.612h-52.334v12.211c0 114.262-93.329 207.591-207.59 207.591S0 328.831 0 214.57C0 99.434 93.329 6.978 207.591 6.978c38.378 0 71.523 8.722 101.179 26.167zm166.596 118.623V84.606c0-9.594-7.85-17.444-17.444-17.444H294.814l-10.466-6.106c-1.745-.872-4.362-1.744-9.595-3.489l-.872-.872c-.872-.872-1.745-1.744-2.617-1.744l-4.361-.873c-.872-.872-1.745-.872-2.617-.872s-1.744-.872-1.744-1.744c-16.573-5.234-34.89-7.85-54.95-7.85-94.202 0-170.086 76.756-170.086 170.957 0 93.329 75.884 170.085 170.085 170.085S378.55 307.898 378.55 214.57v-12.211c-1.745-12.211-3.49-22.678-6.106-33.145-6.106-22.678-14.828-40.995-27.04-55.823h43.612c9.595 16.573 17.445 34.89 21.806 55.823h47.1c9.595 0 17.445-8.722 17.445-17.445z"/>
</svg>