<svg xmlns="http://www.w3.org/2000/svg" viewBox="0 0 512 512">
	<path d="M463 33H49c-9 0-16 7-16 16v414c0 9 7 16 16 16h414c9 0 16-7 16-16V49c0-9-7-16-16-16zm0-32c27 0 48 21 48 48v414c0 26-21 48-48 48H49c-27 0-48-22-48-48V49C1 22 22 1 49 1h414zm-80 64v63H65V65h318zm64 111v48H161v-48h286zm-358 0c13 0 24 11 24 24s-11 24-24 24c-14 0-24-11-24-24s10-24 24-24zm358 104v48H161v-48h286zm-358 0c13 0 24 10 24 24 0 13-11 24-24 24-14 0-24-11-24-24 0-14 10-24 24-24zm358 103v48H256v-48h191zm-262 0c12 0 23 11 23 24s-11 24-23 24c-14 0-24-11-24-24s10-24 24-24z"/>
</svg>