<svg xmlns="http://www.w3.org/2000/svg" viewBox="0 0 512 512">
	<path d="M79.504 210.357V0h63.504v210.357H79.504zM222.388 67.473h63.503v142.884h-63.503V67.473zm206.387 142.884h-63.504v-79.38h63.504v79.38zm63.504 47.627v31.752H16v-31.752h476.28zM270.016 400.868v-63.504h63.503v63.504h-63.503zM79.504 337.364h63.504v63.504H79.504v-63.504zm95.256 0h63.504v63.504H174.76v-63.504zm190.511 63.504v-63.504h63.504v63.504h-63.504zm-95.255 47.628h63.503V512h-63.503v-63.504zM143.008 512H79.504v-63.504h63.504V512zm222.263-63.504h63.504V512h-63.504v-63.504zm-128 63.504H174.76v-63.504h62.511V512z"/>
</svg>