<svg xmlns="http://www.w3.org/2000/svg" viewBox="0 0 512 512">
	<path d="M192 446h286v64H192v-64zM483 86c18 13 28 27 28 41v160c-1 7-3 17-6 28s-7 22-12 31c-6 11-12 19-20 26-7 7-17 10-26 10H192c-7-3-13-8-19-14s-12-12-17-19c-6-6-11-12-15-18-5-6-9-10-13-13-4-2-9-5-17-8-9-3-18-6-28-9s-20-6-29-8c-10-3-17-5-22-6-12-9-21-17-25-27s-6-22-6-37c0-17 7-26 18-29 12-2 27-3 45-3h128V42c0-12 5-22 15-29 10-8 20-11 32-11 5 0 10 1 17 2 9 2 20 5 31 8v115h32V20c5 1 9 2 14 3 17 5 34 11 50 16v89h32V51l1 1c27 10 49 22 67 34z"/>
</svg>