<svg xmlns="http://www.w3.org/2000/svg" viewBox="0 0 512 512">
	<path d="M65.5 192v288h-63V192h63zm360 292c-13 18-26 27-41 27h-159c-8 0-18-2-29-5s-21-7-31-13c-10-5-19-11-25-19-7-8-11-16-11-27V192c4-6 8-12 14-18s12-12 19-17 13-10 19-15c5-5 9-9 12-13 2-3 5-9 9-18 3-8 5-17 8-27s6-20 9-29c2-10 4-17 6-22 8-12 17-21 27-25s22-7 37-7c16 1 26 7 28 20 2 11 3 26 3 44v127h149c13 0 22 6 30 16 7 9 11 20 11 31 0 6-1 12-2 17-3 10-6 21-8 32h-116v32h107c-1 5-2 9-3 14-5 17-10 34-16 50h-88v32h77c-1 0-1 1-1 1-11 26-22 49-35 67z"/>
</svg>