<svg xmlns="http://www.w3.org/2000/svg" viewBox="0 0 512 512">
	<path d="M447 320V33h63v287h-63zM87 28c12-18 26-27 41-27h159c8 1 17 3 28 6s22 7 32 12 18 12 25 20c7 7 11 16 11 26v255c-4 6-8 13-15 19-5 6-12 11-18 17-7 5-13 10-19 15-5 4-9 9-12 12-3 4-6 10-9 18s-6 18-8 27c-3 11-6 20-9 30s-5 17-6 21c-8 13-17 21-27 26-10 4-22 6-37 6-16-1-26-7-28-19s-3-27-3-45V320H43c-13 0-22-5-30-15-7-10-11-20-11-32 0-5 1-11 2-17 2-10 5-20 8-32h116v-32H21c1-4 2-8 3-13 5-17 10-34 16-51h88V97H51c1-1 1-1 1-2 11-26 22-48 35-67z"/>
</svg>