<svg xmlns="http://www.w3.org/2000/svg" viewBox="0 0 512 512">
	<path d="M496 512H16V32h64V0h32v32h32V0h32v32h160V0h32v32h32V0h32v32h64v480zM368 64h-32v32h32V64zm64 0h-32v32h32V64zm-256 0h-32v32h32V64zm-64 0H80v32h32V64zm-64 96v320h416V160H48zm32 32h64v64H80v-64zm287 64v-64h64v64h-64zm-128 0h-64v-64h64v64zm33 0v-64h64v64h-64zm-128 97H80v-64h64v64zm287 0h-64v-64h64v64zm-159 0v-64h64v64h-64zm-97 0v-64h64v64h-64zm256 95h-64v-64h64v64zm-287 0H80v-64h64v64zm31 0v-64h64v64h-64zm97 0v-64h64v64h-64z"/>
</svg>