<?xml version="1.0" encoding="UTF-8"?>
<svg width="48px" height="48px" viewBox="0 0 48 48" version="1.1" xmlns="http://www.w3.org/2000/svg" xmlns:xlink="http://www.w3.org/1999/xlink">
    <!-- Generator: Sketch 52.5 (67469) - http://www.bohemiancoding.com/sketch -->
    <title>odometer</title>
    <desc>Created with Sketch.</desc>
    <g id="Demokit-Like" stroke="none" stroke-width="1" fill="none" fill-rule="evenodd">
        <path d="M35.0625,8.0625 C35.0625,7.99999969 35.0937497,7.93750031 35.15625,7.875 C35.2187503,7.81249969 35.3437491,7.78125 35.53125,7.78125 C35.5937503,7.84375031 35.625,7.93749938 35.625,8.0625 L35.625,8.34375 L34.03125,13.59375 L31.59375,20.53125 L29.34375,26.90625 L28.03125,30.375 C27.031245,31.9375078 25.8125072,32.71875 24.375,32.71875 C22.9374928,32.71875 21.8750034,32.2343798 21.1875,31.265625 C20.4999966,30.2968702 20.15625,29.2812553 20.15625,28.21875 C20.15625,27.7812478 20.3124984,27.1875037 20.625,26.4375 C20.7500006,26.1874988 20.9843733,25.8281273 21.328125,25.359375 C21.6718767,24.8906227 22.1874966,24.2187544 22.875,23.34375 L27.09375,17.90625 L31.6875,12.09375 L35.0625,8.0625 Z M24,0 C27.3125166,0 30.4374853,0.62499375 33.375,1.875 C36.3125147,3.12500625 38.8593642,4.84373906 41.015625,7.03125 C43.1718858,9.21876094 44.8749937,11.7656105 46.125,14.671875 C47.3750063,17.5781395 48,20.6874834 48,24 C48,27.3125166 47.3750063,30.4218605 46.125,33.328125 C44.8749937,36.2343895 43.1718858,38.7812391 41.015625,40.96875 C38.8593642,43.1562609 36.3125147,44.8749937 33.375,46.125 C30.4374853,47.3750063 27.3125166,48 24,48 C20.6874834,48 17.5781395,47.3750063 14.671875,46.125 C11.7656105,44.8749937 9.21876094,43.1562609 7.03125,40.96875 C4.84373906,38.7812391 3.12500625,36.2343895 1.875,33.328125 C0.62499375,30.4218605 0,27.3125166 0,24 C0,20.6874834 0.62499375,17.5781395 1.875,14.671875 C3.12500625,11.7656105 4.84373906,9.21876094 7.03125,7.03125 C9.21876094,4.84373906 11.7656105,3.12500625 14.671875,1.875 C17.5781395,0.62499375 20.6874834,0 24,0 Z M42.9375,33 C44.3125069,30.1249856 45,27.1250156 45,24 C45,21.1249856 44.4531305,18.4062628 43.359375,15.84375 C42.2656195,13.2812372 40.7656345,11.0468845 38.859375,9.140625 C36.9531155,7.23436547 34.7187628,5.73438047 32.15625,4.640625 C29.5937372,3.54686953 26.8750144,3 24,3 C21.1249856,3 18.4062628,3.54686953 15.84375,4.640625 C13.2812372,5.73438047 11.0468845,7.23436547 9.140625,9.140625 C7.23436547,11.0468845 5.73438047,13.2812372 4.640625,15.84375 C3.54686953,18.4062628 3,21.1249856 3,24 C3,27.1250156 3.68749313,30.1249856 5.0625,33 L15.375,33 C16.3125047,34.4375072 17.5312425,35.5624959 19.03125,36.375 C20.5312575,37.1875041 22.1874909,37.59375 24,37.59375 C25.8125091,37.59375 27.4687425,37.1875041 28.96875,36.375 C30.4687575,35.5624959 31.6874953,34.4375072 32.625,33 L42.9375,33 Z" id="odometer" fill="#FF5316"></path>
    </g>
</svg>