<svg id="tnt-Scene-FaceID" xmlns="http://www.w3.org/2000/svg" width="320" height="240" fill="none" viewBox="0 0 320 240">
  <path fill="var(--sapContent_Illustrative_Color20)" fill-rule="evenodd" d="M320 83v90c0 13.246-10.754 24-24 24H24c-13.246 0-24-10.754-24-24V83c0-13.246 10.754-24 24-24h272c13.246 0 24 10.754 24 24Z" clip-rule="evenodd"/>
  <path fill="var(--sapContent_Illustrative_Color21)" d="M193.949 59.05c.17.516.181.914.181.92 4.91-1.06 5.31 3.33 5.31 3.33 4.406-.259 4.173 3.597 4.17 3.64 4.761-.04 3.818 4.047 3.81 4.08 4.211.399 2.866 4.72 2.86 4.74 4.45 1.095 2.428 5.094 2.41 5.13 3.95.93 1.75 5.44 1.75 5.44 4.778 2.284.9 5.99.88 6.01 4.08 2.24.44 5.75.44 5.75 3.299 2.958-.11 5.743-.275 5.874 3.401 2.629-.515 5.435-.515 5.435 1.7 2.267-1.363 4.188-1.4 4.21 1.01 3.29-1.98 4.131-1.98 4.131 1.314 3.574-2.16 4.205-2.19 4.21.95 3.129-1.679 4.249-3.049 4.61a3.103 3.103 0 0 1-3.08 3.46c-.26 0-.521-.04-.761-.1a3.1 3.1 0 0 1-3.1 2.99c-.12 0-.23 0-.34-.02a3.097 3.097 0 0 1-4.11 1.38c-.04.46-.17.92-.42 1.36-.554.938-1.564 1.488-2.607 1.518-.874 2.165-1.896 3.608-3.042 4.832.027 2.142.279 5.934.729 9.57 0 .5.571 1.099.58 1.1.042.058 5.767 7.811 7.351 10.78.162.305.321.623.483.955 12.096 2.208 19.817 3.189 31.416 7.305 10.935 3.881 13.832 9.078 17.237 25.36H105.092c.296-.966.615-1.787.959-2.43 4.36-8.15 18.96-14.79 24.83-17.25 2.456-1.029 8.366-3.685 15.179-6.524 2.151-5.529 4.877-13.641 6.525-14.981-.194-6.456-.164-13.492-.164-13.545l1.112-.045-.003-.004 2.247-.09c.342-.933.742-2.075 1.144-3.322a3.51 3.51 0 0 1-2.881-.089 3.501 3.501 0 0 1-1.97-3.081 3.52 3.52 0 0 1-3.98.641 3.505 3.505 0 0 1-1.68-1.761c-.61.06-1.25-.049-1.84-.329a3.523 3.523 0 0 1-1.969-3.03c-5.671.709-6.508-4.891-6.511-4.91-5.687.089-3.739-5.106-3.73-5.13-4.462.13-3.164-4.763-3.16-4.78-3.064-.4-2.024-4.684-2.02-4.701-2.308-.875-.974-3.612-.96-3.639-3.234-1.393-.774-4.926-.75-4.96-3.894-2.187-.75-5.819-.74-5.83-3.814-2.716.159-6.44.17-6.45-2.927-3.974 1.155-5.825 1.19-5.84-1.788-4.182 1.831-5.502 1.88-5.52-1.655-4.246 2.96-5.433 2.99-5.44-.88-5.399 3.947-5.53 3.95-5.53-.31-5.35 4.25-4.48 4.25-4.48.92-4.69 5.57-3.59 5.57-3.59a3.292 3.292 0 0 1 .513-1.36h48.706Z"/>
  <path fill="var(--sapContent_Illustrative_Color13)" d="M156.56 162.02s12.32.19 24.69 2.459c12.37 2.27 20.14 3.221 31.89 7.391s14.22 9.86 18.01 29.19c.39 1.987.743 3.975 1.068 5.94H86.926c.677-5.358 1.588-9.908 2.814-12.2 4.36-8.15 18.96-14.79 24.83-17.25 5.871-2.46 31.469-14.22 41.99-15.54v.01Z"/>
  <path fill="var(--sapContent_Illustrative_Color14)" d="M155.08 152.28c15.03 0 19.46 2.401 19.46 2.401l6.71 9.79v.009l3.4.61 9.97 24.37-11.76-3.25s-6.517 13.92-15.925 20.79h-18.849c-4.029-3.23-8.612-8.637-13.286-16.5-.018.009-4.237 2.255-12.27 4.561 0 0 3.06-19.081 7.23-24.031 4.17-4.95 10.29-18.75 25.32-18.75Z"/>
  <path fill="var(--sapContent_Illustrative_Color8)" fill-rule="evenodd" d="M154.11 151.22c4.961 0 9.906.402 13.614.802.928.101 1.776.201 2.527.295l1.948.257.004.001a126.493 126.493 0 0 0 1.397.203l.09.017.197.028.124.155c.051.063.11.15.146.201.156.214.39.53.669.919l.978 1.357 1.175 1.647 1.093 1.564c.912 1.32 1.799 2.643 2.46 3.712l.368.608.005.007.34.6.007.011c1.024 1.926 2.024 4.343 3.45 7.793l1.097 2.633a394.572 394.572 0 0 0 4.527 10.424l.4.884-9.617-1.898c-.093.224-.227.528-.38.879-.341.781-.824 1.875-1.407 3.111l.001.001c-1.151 2.472-2.651 5.534-4.077 7.86-1.43 2.327-4.358 6.63-8.096 10.105h-.001a29.669 29.669 0 0 1-1.878 1.604h-17.983a33.13 33.13 0 0 1-.386-.296c-2.403-1.876-4.738-4.233-6.785-6.662-2.056-2.43-3.823-4.932-5.117-7.106a26.584 26.584 0 0 1-1.549-2.966v-.002c-.374-.869-.607-1.603-.667-2.158l-7.299 3.121.056-.816c.02-.285.051-.673.08-1.081l.001-.007c.101-1.175.261-2.793.492-4.582.46-3.568 1.226-7.786 2.41-10.392 1.183-2.605 2.748-7.083 4.25-10.945.752-1.933 1.489-3.701 2.15-5.013.334-.658.647-1.196.93-1.578.153-.211.305-.368.439-.472.066-.052.119-.087.16-.111l.03-.018-.023.015a.298.298 0 0 0-.037.026c-.012.01-.05.04-.087.088l-.021.028.164.211a.77.77 0 0 1-.03-.174.888.888 0 0 1 .082-.145l-.008-.01.063-.05.137-.135h.065c.058-.034.133-.076.213-.12.221-.12.557-.303.985-.517a35.493 35.493 0 0 1 3.669-1.592c3.126-1.163 7.483-2.319 12.445-2.32l.01-.001Zm-17.798 4.858a.495.495 0 0 0 .046.604c.079-.096.153-.168.214-.219a.48.48 0 0 1-.091-.172l-.169-.213Z" clip-rule="evenodd"/>
  <path fill="var(--sapContent_Illustrative_Color16)" d="M152.12 53.39c3.152-3.242 5.338.2 5.35.22 3.2-2.37 4.389.57 4.389.57 3.86-2.41 5.261 1.18 5.261 1.18 4.33-2.275 5.256 1.692 5.26 1.71 5.35-1.1 5.44 3.07 5.44 3.07 4.91-1.05 5.31 3.33 5.31 3.33 4.422-.26 4.171 3.626 4.17 3.64 4.774-.04 3.823 4.069 3.82 4.08 4.21.39 2.85 4.74 2.85 4.74 4.47 1.1 2.41 5.13 2.41 5.13 3.93.915 1.771 5.394 1.75 5.439 4.78 2.28.88 6.01.88 6.01 4.077 2.239.446 5.745.44 5.75 3.38 3.031-.28 5.881-.28 5.881 3.391 2.615-.467 5.408-.51 5.439 1.705 2.272-1.38 4.197-1.4 4.21 1.004 3.273-1.939 4.111-1.97 4.12 1.32 3.6-2.19 4.21-2.19 4.21.96 3.13-1.68 4.25-3.05 4.61a3.102 3.102 0 0 1-3.08 3.46c-.26 0-.52-.039-.77-.099a3.099 3.099 0 0 1-3.091 2.989c-.119 0-.23 0-.339-.02a3.093 3.093 0 0 1-4.11 1.38c-.03.46-.17.931-.42 1.361-.77 1.32-2.46 1.879-3.87 1.29-.46-.19-.84-.481-1.14-.821-.04.12-.09.23-.14.34a3.094 3.094 0 0 1-4.14 1.43c-.35-.17-.66-.4-.91-.67-.06.41-.19.81-.4 1.2-.88 1.61-2.94 2.28-4.6 1.49-.55-.259-1-.65-1.34-1.12-.21.77-.69 1.5-1.91 2-.76.3-1.61.33-2.35 0a3.057 3.057 0 0 1-1.66-1.87c-.06.68-.31 1.37-.81 1.97-.89 1.06-2.36 1.51-3.68 1.11a3.52 3.52 0 0 1-2.5-2.99c-.02.04-.04.09-.06.13a3.513 3.513 0 0 1-4.7 1.62 3.502 3.502 0 0 1-1.97-2.96c-1 1.27-2.79 1.73-4.3.99a3.523 3.523 0 0 1-1.97-3.08c-1.03 1-2.61 1.3-3.98.63a3.483 3.483 0 0 1-1.68-1.75c-.61.05-1.24-.05-1.84-.34a3.53 3.53 0 0 1-1.98-3.019c-5.656.706-6.503-4.862-6.51-4.91-5.678.089-3.744-5.091-3.73-5.13-4.46.129-3.166-4.759-3.16-4.781-3.07-.39-2.02-4.69-2.02-4.69-2.325-.878-.975-3.629-.97-3.64-3.244-1.397-.76-4.946-.75-4.96-3.9-2.19-.75-5.83-.75-5.83-3.812-2.714.164-6.435.18-6.45v-.01c-2.94-3.99 1.18-5.83 1.18-5.83-1.8-4.21 1.89-5.53 1.89-5.53-1.66-4.235 2.926-5.426 2.979-5.44-.876-5.378 3.912-5.529 3.951-5.53-.309-5.32 4.211-4.479 4.259-4.47.917-4.671 5.535-3.608 5.571-3.6.567-3.62 5.168-2.641 5.219-2.63 1.92-5.37 6.489-2.443 6.541-2.41 1.93-4.39 5.57-1.23 5.57-1.23 3.07-4.26 6.36-.92 6.36-.92Z"/>
  <path fill="var(--sapContent_Illustrative_Color31)" d="M155.71 182.37s-6.82-2.59-8.78-4.3c-1.96-1.71-9.73-8.4-10.3-15.16-.57-6.76-.51-20.41-.51-20.41l36.46-1.45s0 8.47.82 13.21c0 0 .06 5.12-1.2 8.53-1.26 3.41-5.75 11.18-7.71 13.02-1.96 1.83-7.46 6.44-8.78 6.57v-.01Z"/>
  <path fill="var(--sapContent_Illustrative_Color28)" d="m137.22 142.45 35.35-1.41s0 8.47.82 13.21c0 0 .06 5.12-1.2 8.53-.87 2.36-3.29 6.8-5.34 9.93-25.43-11.57-29.63-30.26-29.63-30.26Z"/>
  <path fill="var(--sapContent_Illustrative_Color31)" d="M151.16 73.9c1.99-.18 1.81 1.21 4.85.82 3.04-.39 4.141-.39 5.341.14 1.199.53 1.88 2.02 3.969 2.53 2.09.51 2.67.79 4.04 1.95s1.23 2.81 2.6 3.97c1.37 1.16 2.16 1.37 3.03 2.74.87 1.37.08 2.56.59 3.93s1.33.49 2.1 1.75c.019.031.036.063.054.094.184.52.346 1.027.493 1.515.011.628-.206 1.33-.657 2.351-.84 1.9 1.32 2.48 1.68 3.85.36 1.37-1.459 3.23-.479 4.94.361.631.578 1.725.709 2.856-.145 4.789-.637 10.6-1.4 18.165-1.39 13.769-4.42 15.8-8.34 19.33-3.92 3.54-8.84 7.45-16.16 7.46-7.32 0-12.25-3.92-16.16-7.46-3.588-3.24-6.429-5.208-7.95-16.075-.458.33-1.09.615-1.94.654-2.18.1-3.13-2.94-4.27-7.96-1.14-5.02-1.99-9.379 0-9.76 1.719-.328 4.146 1.683 4.774 2.235a174.984 174.984 0 0 1-.286-4.667v-.619c0-.347-.128-1.089.773-2.599.829-2.24.4-3.101 0-4.911-.011-.024-.781-1.808.649-3.1.93-.84.94-2.38.79-5.12-.15-2.739 2.5-4.738 3.16-5.109.66-.37 2.32-2.35 2.97-4.65.65-2.3 1.881-3.36 3.181-3.73 1.299-.37 2.379-.39 3.819-1.68s.87-2.01 2.27-2.48c1.4-.47 1.13.13 2.35.47 1.22.34 1.46-1.65 3.45-1.83Z"/>
  <path fill="var(--sapContent_Illustrative_Color3)" d="M159.528 74.451c.724.03 1.263.161 1.823.408 1.199.53 1.879 2.02 3.969 2.53 2.09.51 2.67.79 4.04 1.95s1.23 2.81 2.6 3.97c1.37 1.16 2.16 1.37 3.03 2.74.87 1.37.08 2.56.59 3.93s1.33.491 2.1 1.75l.039.067c.189.535.357 1.056.508 1.557.008.624-.209 1.324-.657 2.337-.84 1.9 1.32 2.48 1.68 3.85.36 1.37-1.459 3.23-.479 4.939.36.63.577 1.723.709 2.851a149.837 149.837 0 0 1-.32 6.051c1.015-.787 2.782-1.947 4.12-1.692 1.99.381 1.14 4.74 0 9.76s-2.09 8.06-4.27 7.96a3.692 3.692 0 0 1-1.366-.318c-1.533 10.575-4.353 12.542-7.904 15.739-3.92 3.54-8.84 7.45-16.16 7.46-3.8 0-6.95-1.06-9.65-2.57 7.52.64 11.04-1.171 11.99-4.321h-.02c1.003-3.327-3.28-5.294-3.28-4.849 5.18-2.4 3.01-8.04 3.01-8.04 1.12-2.4 0-5.561 0-5.561 4.99 1.101 6.15-2.97 6.15-2.97l4.41 5.01c1.47-3.269 2.321-4.98 5.451-8.719 3.116-3.725 2.098-6.279 2.089-6.3-2.23 1.56-5.76.9-7.18.66s-3.65-1.18-3.89-1.96c-.239-.769 1.205-1.02 1.21-1.021 4.449.767 5.015-4.272 5.021-4.319 0 0-2.561-2.84-6.161-1.33-3.6 1.51-3.79 7.96-3.79 7.96l-3.22.66s-.19-1.61 0-5.21c.19-3.6 1.14-7.68 3.22-9 2.08-1.32 5.21-.66 5.21-.66 4.38-12.72-1.289-21.514-4.622-25.299Zm-11.598 45.502c-.148.192-1.781 2.376-1.6 4.916-.017-.004-1.147-.273-2.13.62.009-.034 1.186-4.68 3.73-5.536Zm.01-.004-.01.004.01-.014v.01Zm-8.7-19.439c.015-.001 2.663-.21 3.66-.12 1.001.09 5.281 0 6.491 4.089l.019.01s.71 2.841.47 3.981c-.24 1.14-3.13 2.389-3.13 2.389-.01-.027-.796-2.163-3.29-2.63-2.51-.469-6.88-.989-8.54 1.241 0 0 1.44-5.461 8.17-5.271l-3.85-3.689Z"/>
  <path fill="var(--sapContent_Illustrative_Color29)" d="M132.199 102.91s2.78-2.43 4.83-2.43c2.05 0 4.8 1.04 7.01 1.64 2.21.6 4.61 1.11 5.12.79.51-.32.32-2.18.28-2.43-.04-.25-.98-.88-2.97-1.11-1.99-.23-4.08-.32-7.05-.19-2.97.13-6.28 1.17-7.23 3.73h.01Zm43.87 0s-2.78-2.43-4.83-2.43c-2.05 0-4.8 1.04-7.01 1.64-2.21.6-4.61 1.11-5.12.79-.51-.32-.32-2.18-.28-2.43.04-.25.98-.88 2.97-1.11 1.99-.23 4.08-.32 7.05-.19 2.97.13 6.28 1.17 7.23 3.73h-.01Zm-24.148 21.909c-.02-.54-.95-1.33-1.9-1.3-.95.03-1.71.76-1.71 1.42 0 .66.95.85 1.63.76.68-.09 1.99-.36 1.97-.88h.01Zm3.949.471c.11.46 1.14.54 1.8.43.66-.11 1.09-.43 1.09-1.1 0-.67-.36-.91-1.11-.86-.75.05-1.94.85-1.78 1.54v-.01Z"/>
  <path fill="var(--sapContent_Illustrative_Color1)" d="M154.07 140.85c1.77 0 3.38-.09 5.15-1.39 1.77-1.3 4.49-3.85 4.52-4.23.03-.38-2.31-1.11-3.79-1.99-1.48-.88-2.24-1.42-3.76-1.39-1.52.03-2.12.66-2.12.66s-.73-.66-2.15-.66-3.35.95-4.36 1.8c-1.01.85-1.77 1.39-3.16 1.71 0 0 3.01 3.25 5.47 4.36 2.46 1.11 2.78 1.14 4.2 1.14v-.01Z"/>
  <path fill="var(--sapContent_Illustrative_Color11)" d="M154.07 140.85c-1.42 0-1.74-.03-4.2-1.14-1.55-.69-3.31-2.24-4.4-3.29.2-.2.39-.34.51-.38 0 0 .41-.38 3.29-.41 2.87-.03 6.35 0 7.84 0 3.35 0 4.9 1.07 4.9 1.07l.26.16c-.93.88-2.11 1.91-3.04 2.59-1.77 1.3-3.38 1.39-5.15 1.39h-.01v.01Z"/>
  <path fill="var(--sapContent_Illustrative_Color29)" d="M146.75 110.86c-.37-.02-2.26-1.23-2.48-1.02-.2 1.64-2.01 3.04-3.6 2.1-.87-.51-1.15-1.31-1.55-2.17-1.19.43-2.7 1.2-3.85.28-.24-.193-.354-.383-.34-.57.55-.95 1.81-1.46 2.83-1.73 2.51-.67 5.54-.53 7.6 1.04.62.47 1.39 1.25 1.39 2.07Zm21.651-1.09c-.44 1.88-2.26 3.35-4.05 1.89-.59-.48-.98-1.14-1.06-1.9l-2.48 1.09c.04-.96 1.18-1.99 1.95-2.47 2.36-1.46 7.52-1.43 9.55.57.51.51.49.79-.13 1.18-1.29.81-2.51-.02-3.77-.38l-.01.02Z"/>
  <path fill="var(--sapContent_Illustrative_Color8)" d="M98.58 153.189V137.1h3v16.089c0 3.695 2.839 6.58 6.13 6.581h19.41v3h-19.41c-5.109-.001-9.13-4.395-9.13-9.581Zm0-81.059c0-5.197 4.022-9.58 9.13-9.58h20.15v3h-20.15c-3.292 0-6.13 2.877-6.13 6.58v17.85h-3V72.13Zm110.05 0c0-3.695-2.839-6.58-6.13-6.58h-18.75v-3h18.75c5.109 0 9.13 4.395 9.13 9.58V90.2h-3V72.13Zm0 81.059v-15.54h3v15.54c0 5.197-4.022 9.581-9.13 9.581h-18.42v-3h18.42c3.292 0 6.13-2.877 6.13-6.581Z"/>
  <path fill="var(--sapContent_Illustrative_Color28)" d="M158.695 118.856c1.747.687 3.964 4.459 3.585 6.253-.377 1.786-2.615 1.426-2.65 1.42.027-.013 1.987-.989 1.709-2.37-.697-3.01-2.528-5.168-2.644-5.303Zm-34.973-4.213c.29-.6.62-.81 1.16-.32v.01c-.012.01-.706.6-.29 6-.003-.011-1.349-4.691-.87-5.69Zm58.728-1.032c.54-.49.869-.28 1.159.32.479.997-.862 5.667-.869 5.69.415-5.383-.273-5.986-.29-6v-.01Zm-23.755 5.245-.016-.006h.011l.005.006Z"/>
  <path fill="var(--sapContent_Illustrative_Color8)" d="M218.319 113.55v3H89.609v-3h128.71Z"/>
  <path fill="var(--sapContent_Illustrative_Color20)" d="M155.763 182.492c.051.033.816.53.787 1.448-.023.728-.563 15.9-.819 23.06h-2.347c.482-6.932 1.579-22.702 1.626-23.439.056-.883.677-1.052.753-1.069Zm-9.253-2.093c3.303 2.019 6.177 3.058 6.37 3.126l-17.08 10.714c-3.03-4.35-3.029-6.45-3.029-6.45l13.739-7.39Zm18.68-2.83c.077.031 15.609 6.209 15.88 5.891.27-.32-1.96 4.648-2.31 5.119-.35.469-19.962-5.821-20.02-5.84l6.45-5.179v.009Zm-12.3 5.96-.01-.004.01-.005v.009Zm2.873-1.037-.003-.002h.011l-.008.002Z"/>
  <path fill="var(--sapContent_Illustrative_Color14)" d="M211.818 198.04s1.05 3.686 2.494 8.96h-.863c-.37-2.906-.9-5.907-1.631-8.96Z"/>
</svg>
