<svg id="tnt-Scene-Compass" xmlns="http://www.w3.org/2000/svg" width="320" height="240" fill="none" viewBox="0 0 320 240">
  <rect width="320" height="138" y="59" fill="var(--sapContent_Illustrative_Color20)" rx="24"/>
  <path fill="var(--sapContent_Illustrative_Color21)" d="M190.483 86.424c-1.851-17.622-18.049-26.659-36.074-27.024-10.051 0-27.591.008-41.408.008-.582.735-.868 1.387-1.104 2.401-.577 2.19 3.14 5.787 4.718 6.723a8.28 8.28 0 0 0 3.196 1.11l3.751 4.24a35.395 35.395 0 0 0-1.065 2.251h-2.85l-.013.002c-3.692-.042-6.737.717-8.57 3.008-3.295 4.119-6.798 12.05-6.249 18.364l-.025-.005.001-.044s-.8-.575-2.855.651c-1.629.972-2.658 1.944-3.015 2.307-2.597 2.344-4.864 5.539-4.713 7.504.22 2.855 1.088 6.428.996 8.807-.04.063-.081.134-.126.208-2.08 1.553-2.81 6.256-3.077 12.224a44.988 44.988 0 0 0-.092 1.846c-.081 2.852-.106 6.637-.087 10.687-.015 2.641-.046 5.29-.146 7.836-.537 13.682.643 22.371 2.7 25.054 2.057 2.682 3.108 4.197 1.051 8.936-.84 1.936-1.618 6.301-2.253 13.977h56.118c-.134-6.758.132-12.769 1.05-16.106 3.02-10.982 5.543-11.395 12.407-17.985 6.865-6.59 25.535-29.654 29.379-34.321 3.844-4.668 10.429-12.924 11.636-15.149 2.303-4.245-2.191-14.45-.653-16.427.018-.023.033-.049.05-.074 1.508-1.898 2.892-10.788 3.772-14.495a1.613 1.613 0 0 0-.464-.097l.007-.04c-1.19-1.464-4.372-3.342-7.762-2.317-1.767.534-3.691 1.617-5.598 3.346v-.005c-.736.571-1.653 1.45-2.633 2.599Z"/>
  <path fill="var(--sapContent_Illustrative_Color16)" d="M178.342 166.389c-2.416 8.786-.245 36.318 1.769 47.027h-59.892c0-6.59.782-20.058 1.113-24.658.374-5.186.982-16.68 4.178-25.2-.732-3.386-3.957-3.184-4.953-12.5-.561-5.244-.922-25.444-.648-35.054.22-7.688 2.288-12.722 3.295-14.277.092-2.38-.777-5.952-.996-8.808-.275-3.57 7.429-11.203 10.606-10.412-.549-6.315 2.955-14.246 6.249-18.365 3.295-4.118 10.506-3.286 18.347-1.747 4.05.795 50.736 36.471 54.306 23.566 3.569-12.904 9.927-18.945 14.998-20.478 3.39-1.025 6.572.853 7.762 2.317-.732 4.12-1.828 12.73-3.365 14.707-1.538 1.977 2.956 12.181.652 16.427-1.207 2.225-7.791 10.481-11.635 15.148-3.844 4.668-22.515 27.732-29.379 34.322-6.865 6.589-9.387 7.002-12.407 17.985ZM163.247 33.012c-1.297 3.184.629 8.727 2.713 12.147 7.704 2.24 21.84 4.74 19.104-2.712-3.42-9.317-9.198-12.265-12.383-13.562-3.184-1.297-7.654-.241-9.434 4.127Z"/>
  <path fill="var(--sapContent_Illustrative_Color29)" d="M147.647 61.133h8.928c.132 9.98-.395 29.248-3.555 26.467-3.951-3.476-7.296-12.335-6.953-20.62.079-1.895 1.027-5.847 1.58-5.847Zm35.422 53.165c-3.761 0-9.853 0-12.562-.456l-1.41-10.813c14.809-5.641 42.955-17.396 43.896-15.516 1.175 2.35-1.236 9.934-5.109 15.516-5.693 8.204-20.114 11.269-24.815 11.269Z"/>
  <path fill="var(--sapContent_Illustrative_Color29)" d="M142.259 105.25c1.796-.648 5.102-2.509 6.299-5.982 1.198-3.473 1.298-8.732 1.198-10.927l46.703 19.759c-5.588.748-17.574 2.784-20.807 4.94-3.92 2.613-23.467 13.392-25.736 18.819-.398 1.638-.554 2.213-.16.491.036-.159.09-.322.16-.491.813-3.345 2.633-11.124 2.834-12.832.299-2.545-1.797-5.987-4.192-5.987-1.916 0-4.191.998-5.089 1.496l-1.21-9.286Zm4.36-51.955 5.425 6.132 8.019-6.132h-13.444Zm-15.126 48.218c-.958-1.797-4.813-12.507-4.713-15.95 0 0 1.101-1.228 3.156-2.454 2.055-1.226 2.855-.651 2.855-.651 0 3.106-.501 5.876-.501 12.222 0 7.934 3.206 10.019 7.885 10.725-4.49 2.395-7.484-1.647-8.682-3.892Zm-2.069 17.902c-1.288-1.431-4.531-12.401-5.992-17.707-4.65 2.504-3.219 19.137-3.756 32.82-.536 13.682.643 22.371 2.7 25.054 2.057 2.682 3.109 4.197 1.052 8.937-1.646 3.792-3.069 18.503-3.595 44.894h13.378c.507-12.639 1.65-47.353 3.367-50 2.146-3.309 8.227-4.829 7.065-5.545-1.163-.715-13.772-3.219-16.992-6.886-3.219-3.666-3.219-16.007-1.52-24.145 1.699-8.138 5.902-5.634 4.293-7.422Zm45.019 40.004c-8.927 1.144-18.216-4.101-21.745-6.867.382 2.289 1.374 7.61 2.289 10.586 1.145 3.719 17.739 2.289 19.456-3.719Zm45.976-67.512c-.987-.246-6.68.617-9.403 1.08-.74-12.086 6.658-21.49 10.101-24.163 0 3.237-.883 10.515-1.623 13.228-.925 3.391 2.158 10.164.925 9.855Z"/>
  <circle cx="183.147" cy="75.178" r="35.535" fill="var(--sapContent_Illustrative_Color2)"/>
  <circle cx="182.726" cy="75.144" r="32.598" fill="var(--sapContent_Illustrative_Color8)"/>
  <path fill="var(--sapContent_Illustrative_Color22)" d="M181.846 100.615h1.526c.139-1.11-.412-2.22-2.635-2.22-2.358 0-2.635.971-2.635 1.804 0 .832.693 1.387 1.664 1.803.971.416 1.526.693 1.526.971 0 .277-.139.554-.694.554-.444 0-.74-.554-.832-.832h-1.664c-.139 1.248 1.387 1.803 2.496 1.803 1.11 0 2.358-.555 2.358-1.525 0-1.249-1.012-1.618-1.942-1.804-1.109-.221-1.109-.693-1.109-.97 0-.278.138-.694.971-.694.832 0 .924.74.97 1.11Zm-25.659-30.653v-1.526l5.686 1.942-.277 1.942-3.468.278 3.191 1.664v1.803l-5.826.277v-1.664h3.329l-2.913-1.526V71.35l3.329-.277-3.051-1.11Zm56.412 7.536-5.926-.74-.555 4.578 1.387.139.278-2.774 1.109.138-.277 2.913 1.248.139.277-2.774.971.138-.277 2.913 1.248.139.517-4.81Zm-28.256-24.179.622-5.865 1.874.178 1.88 3.451.201-3.174 1.803.139-.694 5.825-1.602-.12-2.044-3.337-.334 3.003-1.706-.1Z"/>
  <path fill="var(--sapContent_Illustrative_Color23)" d="m189.614 62.472-2.774-7.628-4.855 6.796 7.629.832Z"/>
  <path fill="var(--sapContent_Illustrative_Color2)" d="m188.799 67.517-2.318-10.366-4.774 8.866-8.184-5.046 2.591 9.547-10.638 2.455 9.684 5.047-5.865 8.73 10.093-3.274 2.319 10.502 5.365-10.11 9.229 6.7-3.137-10.77 9.548-1.778-9.548-5.047 5.456-8.729-9.821 3.273Z"/>
  <path fill="var(--sapContent_Illustrative_Color14)" d="m166.782 52.483 13.445 25.005s15.634 15.041 16.608 14.17c.975-.873-9.063-19.58-9.063-19.58l-20.99-19.595Z"/>
  <path fill="var(--sapContent_Illustrative_Color23)" d="m166.782 52.483 13.445 25.005s4.511-.362 5.485-1.234c.975-.871 2.06-4.176 2.06-4.176l-20.99-19.595Z"/>
  <circle cx="184.227" cy="74.632" r="2.243" fill="var(--sapContent_Illustrative_Color2)"/>
  <path fill="var(--sapContent_Illustrative_Color28)" d="M134.187 94.168c0-2.846 2.964-5.559 4.447-6.56 4.447-1.334 6.004 1.112 7.115 2.113.89.8.89 4.93.779 6.893-.779.853-2.891 2.736-5.115 3.447-2.223.712-5.077.297-6.226 0-.333-.778-1-3.046-1-5.893Zm-4.114 16.789.667 6.782c.166 1.684 2.558 3.002 5.226 3.224 2.135.178 4.521-2.075 5.448-3.224-.26-2.261-.801-6.916-.89-7.449-.111-.668-3.335-2.335-5.448-2.446-1.69-.089-4.039 2.038-5.003 3.113Zm98.042-32.531c-.633-1.63.264-4.85.791-6.257 2.128-3.667 4.829-4.692 6.027-4.23-.887 3.734-2.282 12.73-3.803 14.537-1.797.146-2.224-2.013-3.015-4.05Z"/>
  <path fill="var(--sapContent_Illustrative_Color16)" d="M153.046 54.412c3.113-.377 4.324-1.417 5.588-3.281 1.264-1.865.839-2.788.839-2.788l5.189-3.656c-1.887-2.948-5.487-4.062-7.252-4.48-3.876-.92-7.489-.473-11.263-.001-3.773.472-5.66 4.363-6.25 6.604-.576 2.19 3.139 5.786 4.717 6.722 2.746 1.629 5.319 1.257 8.432.88Z"/>
  <path fill="var(--sapContent_Illustrative_Color28)" d="M149.683 39.565c1.52-.057 4.012 1.102 5.067 1.688h-4.292c-1.689 0-6.686.845-8.586 1.267 1.548-2.956 5.911-2.885 7.811-2.956Z"/>
</svg>
