<svg id="tnt-Spot-Components" xmlns="http://www.w3.org/2000/svg" width="128" height="128" fill="none" viewBox="0 0 128 128">
  <rect width="128" height="55" y="40" fill="var(--sapContent_Illustrative_Color20)" rx="8"/>
  <path fill="var(--sapContent_Illustrative_Color8)" d="M78.122 101.677s.094.06.136.094a1.33 1.33 0 0 1-.212-.17c.025.025.042.051.076.068v.008Zm.756.503c-.076-.043-.144-.086-.22-.128.067.042.144.085.22.128Zm.646.323s.025 0 .034.017c-.017 0-.034-.009-.051-.017h.017Zm.968.333c-.05-.017-.085-.026-.136-.043.043.017.094.026.136.043Z"/>
  <path fill="var(--sapContent_Illustrative_Color21)" d="M56.911 77.94h-.008l-1.3.63a.419.419 0 0 0-.186.148.25.25 0 0 0-.029.16.4.4 0 0 0 .066.157.7.7 0 0 0 .111.132c.103.107.256.181.445.247.19.066.4.12.634.19.23.065.469.143.7.254.23.107.448.251.637.44.116.12.194.24.227.359a.535.535 0 0 1-.017.35.843.843 0 0 1-.169.25l-.213.038a6.788 6.788 0 0 1-2.297-.082 4.988 4.988 0 0 1-.971-.305 2.233 2.233 0 0 1-.684-.449c-.193-.197-.267-.362-.284-.502a.623.623 0 0 1 .095-.37c.058-.107.136-.206.16-.305.025-.099.017-.193-.086-.3a1.258 1.258 0 0 0-.21-.173 1.286 1.286 0 0 0-.345-.169 2.186 2.186 0 0 0-.498-.107 3.2 3.2 0 0 0-.675.02l-7.907 1.083-.02-.02-1.182.621 9.092 9.512-.02.008H52l.013.008.053-.02 17.187-2.647 3.573-.547h.004l15.94-2.453 3.647-.56h.02l1.684-.56h-.033v.004h-.02l-9.34-8.91h.009L75.7 65.449l-19.604 2.38-.008-.01-1.26.725 3.22 3.219c-.05 0-.1-.009-.149-.013-.222-.024-.457-.065-.708-.103a7.033 7.033 0 0 0-.856-.082 7 7 0 0 0-1.123.058 4.203 4.203 0 0 0-.955.222 1.816 1.816 0 0 0-.61.362c-.02.02-.032.037-.049.058.012-.013.017-.029.029-.041.086-.09.197-.173.337-.251l-1.25.687c-.14.074-.252.156-.334.247a.665.665 0 0 0-.157.26 1.17 1.17 0 0 0-.23-.091 3.445 3.445 0 0 0-.465-.095 6.786 6.786 0 0 0-.432-.041c-.05 0-.09-.004-.14-.004h-.132a1.27 1.27 0 0 0-.123.008c-.041 0-.079.008-.12.012l-.16.025c-.054.012-.103.02-.157.033l-.16.037a3.214 3.214 0 0 0-.165.041c-.057.017-.115.029-.169.041-.057.017-.119.03-.18.041a8.919 8.919 0 0 1-.198.037c-.07.013-.14.025-.218.033-.087.009-.173.021-.272.03a6.675 6.675 0 0 1-.65.016c-.124 0-.255-.009-.391-.013a6.989 6.989 0 0 1-1.157-.164 4.466 4.466 0 0 1-.93-.317c-.263-.128-.477-.272-.617-.428-.14-.157-.214-.321-.202-.49a.518.518 0 0 1 .066-.214c.057-.012.111-.029.173-.037a5.216 5.216 0 0 1 .691-.095c.099-.008.198-.012.3-.016h.313c.108 0 .21.004.322.012a7.48 7.48 0 0 1 1.14.148c.304.066.535.144.745.218.21.075.39.149.584.21.193.062.4.107.654.12.054 0 .107.008.173.008h.198c.066 0 .14 0 .206-.008.065-.008.135-.013.201-.02.046-.005.087-.013.132-.021.041-.009.086-.017.123-.03.037-.012.074-.02.111-.036.037-.013.066-.03.1-.046l1.197-.674s.016-.005.02-.009a.38.38 0 0 0 .145-.12.317.317 0 0 0 .057-.164l.148-3.383-22.67-1.42v-.02l-.995.761-1.107 9.376-.025.016h.025v.013l.016-.009 8.66.461c.28.013.494.05.658.099.169.05.288.111.37.177.083.066.132.14.157.21.025.07.025.132.025.185a.191.191 0 0 1-.025.082l-.025.037-.852.498a1.447 1.447 0 0 0-.185.124 1.076 1.076 0 0 0-.156.148.733.733 0 0 0-.169.403c-.012.173.053.346.194.507.14.16.353.308.621.436.267.132.588.239.95.325a6.833 6.833 0 0 0 1.511.169c.111 0 .214 0 .325-.008.107-.004.21-.013.313-.021a5.934 5.934 0 0 0 .671-.099c.12-.025.235-.053.346-.086a2.92 2.92 0 0 0 .304-.107c.095-.037.185-.078.268-.124.362-.197.732-.39 1.095-.588.032-.017.07-.03.098-.046.17-.09.3-.197.395-.308a.653.653 0 0 0 .161-.367.707.707 0 0 0-.169-.506 1.763 1.763 0 0 0-.424-.35c-.152-.098-.313-.189-.428-.28a.439.439 0 0 1-.164-.201c.04 0 .086 0 .135.004l8.454.449 1.235-.634h.008v-.004l.013-.009h-.013l.14-3.173c.157.144.362.272.61.383.275.123.592.222.942.296a6.672 6.672 0 0 0 2.646.025 3.602 3.602 0 0 0 .601-.173c.078-.033.148-.062.21-.094.337-.173.679-.346 1.017-.52.037-.007.07-.011.11-.02.108-.012.248-.028.4-.037.148-.008.317-.004.481.013.165.016.33.049.482.103a1.015 1.015 0 0 1 .39.235l2.935 2.93-5.856.802a1.724 1.724 0 0 0-.54.144M53.467 72.5v.008-.008Zm.075-.157s-.017.025-.021.037c.008-.012.012-.025.02-.037Z"/>
  <path fill="var(--sapContent_Illustrative_Color16)" d="m67.093 38.257 1.642 7.976 1.58-1.28-1.67-8.059-1.552 1.363Z"/>
  <path fill="var(--sapContent_Illustrative_Color16)" d="M70.316 44.944c.028.132.037.251.037.358a.924.924 0 0 1-.152.506.748.748 0 0 1-.157.165l-1.572 1.268a.854.854 0 0 0 .156-.165.718.718 0 0 0 .107-.218 1.12 1.12 0 0 0 .045-.284 1.402 1.402 0 0 0-.037-.354l1.577-1.276m1.174 5.684a1.53 1.53 0 0 0-.272-.617 1.189 1.189 0 0 0-.42-.337 1.675 1.675 0 0 0-.868-.128.855.855 0 0 0-.309.074c-.045.02-.09.041-.131.066a1.23 1.23 0 0 0-.12.082l-1.383 1.083a2.53 2.53 0 0 1-.32.098c-.137.03-.28.054-.441.066a2.79 2.79 0 0 1-1.12-.14 3.29 3.29 0 0 1-1.008-.551 3.545 3.545 0 0 1-.782-.877 3.302 3.302 0 0 1-.444-1.115 2.98 2.98 0 0 1-.058-.758c.012-.242.058-.473.128-.695a2.426 2.426 0 0 1 .736-1.095l-1.527 1.28c-.168.14-.317.305-.436.486a2.46 2.46 0 0 0-.292.6 2.756 2.756 0 0 0-.07 1.436c.078.4.235.767.436 1.104.21.334.47.626.774.864.3.243.638.424.996.544a2.823 2.823 0 0 0 1.547.074c.132-.029.256-.066.363-.111.11-.041.21-.09.3-.144a2.36 2.36 0 0 0 .247-.17c.407-.32.815-.633 1.218-.954a.96.96 0 0 1 .115-.02c.112-.009.252-.013.4 0 .148.016.308.053.457.127.152.07.296.177.415.333.03.038.058.083.087.128.078.132.144.296.185.486l1.68 8.149 1.629-1.14-1.708-8.236h-.008l.004.008Zm-8.043-6.494-1.51 1.297a.74.74 0 0 1-.24.14.695.695 0 0 1-.13.037c-.046.008-.091.016-.137.016h-.206c-.065 0-.135-.016-.201-.029a2.197 2.197 0 0 1-.19-.045c-.061-.016-.115-.037-.164-.053a1.419 1.419 0 0 1-.576-.404c-.16-.177-.3-.382-.465-.592a4.085 4.085 0 0 0-.618-.65 3.452 3.452 0 0 0-1.033-.569 2.866 2.866 0 0 0-.304-.094 4.008 4.008 0 0 0-.305-.062 2.542 2.542 0 0 0-.3-.029h-.293a2.656 2.656 0 0 0-.415.062 2.213 2.213 0 0 0-.395.128 2.324 2.324 0 0 0-.363.189 2.697 2.697 0 0 0-.325.247l1.449-1.325c.103-.095.21-.177.325-.252a2.613 2.613 0 0 1 .761-.317 2.45 2.45 0 0 1 .72-.061c.1.008.203.012.301.029a2.958 2.958 0 0 1 .613.156c.445.165.778.362 1.042.572.263.214.453.437.621.655.169.218.313.423.47.6a1.466 1.466 0 0 0 .748.466 2.142 2.142 0 0 0 .391.074c.066 0 .14.008.21 0 .046 0 .091-.009.136-.017a.78.78 0 0 0 .132-.037.563.563 0 0 0 .123-.057c.037-.025.079-.05.116-.083"/>
  <path fill="var(--sapContent_Illustrative_Color16)" d="M56.755 42.401a2.36 2.36 0 0 1 1.09-.568 2.46 2.46 0 0 1 .717-.061c.099.008.202.012.3.029a2.963 2.963 0 0 1 .613.156c.445.165.778.362 1.042.572.263.214.452.436.621.654.169.219.313.424.47.601.16.177.341.321.584.412a2.145 2.145 0 0 0 .556.128c.065.004.14.008.21 0 .045 0 .09-.009.135-.017a.794.794 0 0 0 .255-.095c.038-.024.079-.049.116-.082-.502.432-1.009.864-1.51 1.297a.74.74 0 0 1-.116.082c-.041.025-.082.041-.123.057a.695.695 0 0 1-.132.038.769.769 0 0 1-.136.016h-.206c-.066 0-.136-.016-.202-.029a2.507 2.507 0 0 1-.189-.045c-.062-.017-.115-.037-.164-.054a1.389 1.389 0 0 1-.577-.407c-.16-.177-.3-.383-.465-.593a4.085 4.085 0 0 0-.617-.65 3.456 3.456 0 0 0-1.033-.568 2.889 2.889 0 0 0-.305-.095 4.008 4.008 0 0 0-.304-.061 2.585 2.585 0 0 0-.593-.025 2.656 2.656 0 0 0-.416.062 2.213 2.213 0 0 0-.395.127 2.324 2.324 0 0 0-.362.19 2.707 2.707 0 0 0-.325.246l1.449-1.325m19.421 40.083L96.5 79.82l1.885-.901-20.509 2.655-1.712.9ZM65.23 67.08l-1.565 1.065a2.468 2.468 0 0 0 .93-1.19 2.98 2.98 0 0 0 .177-.785c.025-.28.004-.564-.053-.856a3.68 3.68 0 0 0-.412-1.128 3.997 3.997 0 0 0-.555-.716c-.194-.202-.37-.367-.523-.556a1.424 1.424 0 0 1-.317-.646 2.236 2.236 0 0 1-.045-.321 1.823 1.823 0 0 1 .008-.366c.016-.124.05-.247.103-.359a.76.76 0 0 1 .247-.292l1.547-1.144a.843.843 0 0 0-.247.297 1.1 1.1 0 0 0-.107.362 1.836 1.836 0 0 0-.008.366c.008.12.025.23.045.325.054.264.17.461.321.65.153.19.342.363.527.56.19.202.391.424.56.725.173.3.325.662.416 1.14a2.976 2.976 0 0 1-.124 1.658 2.622 2.622 0 0 1-.383.68c-.16.205-.35.382-.56.522"/>
  <path fill="var(--sapContent_Illustrative_Color16)" d="M64.767 59.794a.844.844 0 0 0-.247.297 1.1 1.1 0 0 0-.107.362 1.878 1.878 0 0 0-.008.37c.008.12.025.23.045.325.054.264.17.461.321.65.153.19.342.363.527.56.19.202.391.424.56.725.173.3.325.662.416 1.14a2.976 2.976 0 0 1-.124 1.658 2.739 2.739 0 0 1-.379.68c-.16.205-.35.382-.56.522l-1.563 1.066c.214-.144.395-.32.555-.519.161-.201.284-.427.375-.67.095-.247.152-.507.177-.786a3.579 3.579 0 0 0-.47-1.984 3.997 3.997 0 0 0-.555-.716c-.193-.202-.374-.367-.523-.556a1.467 1.467 0 0 1-.316-.646 2.236 2.236 0 0 1-.046-.321 1.823 1.823 0 0 1 .008-.367c.017-.123.05-.246.103-.358a.76.76 0 0 1 .247-.292l1.548-1.144"/>
  <path fill="var(--sapContent_Illustrative_Color15)" d="m51.318 55.188 7.968 2.79 1.51-1.184-8.045-2.832-1.433 1.222v.004Z"/>
  <path fill="var(--sapContent_Illustrative_Color15)" d="M51.676 54.09a.96.96 0 0 1 .102-.078.658.658 0 0 1 .12-.062.79.79 0 0 1 .28-.07h.127c.041.004.09.004.14.012a1.496 1.496 0 0 1 .317.078l-1.428 1.223a1.74 1.74 0 0 0-.309-.078c-.045-.005-.094-.013-.14-.013h-.127a.85.85 0 0 0-.28.07c-.041.02-.078.037-.115.062a.96.96 0 0 0-.103.078l1.416-1.218v-.004Z"/>
  <path fill="var(--sapContent_Illustrative_Color16)" d="m42.913 29.498-5.412 20.88 1.288-1.297L44.226 28l-1.313 1.498Z"/>
  <path fill="var(--sapContent_Illustrative_Color15)" d="M50.531 60.041a2.773 2.773 0 0 1-.724.296 2.523 2.523 0 0 1-.4.066 2.778 2.778 0 0 1-.947-.066 3.448 3.448 0 0 1-1.4-.708 3.593 3.593 0 0 1-.776-.934 3.19 3.19 0 0 1-.4-1.128 2.969 2.969 0 0 1 .042-1.189 3.62 3.62 0 0 1 .156-.486c.062-.144.128-.275.198-.39.029-.046.057-.079.086-.12l1.169-1.037c.045-.041.086-.078.123-.124.038-.04.075-.09.108-.135.032-.05.061-.103.086-.157.025-.058.045-.12.062-.185.029-.12.057-.268.061-.428.009-.16 0-.334-.053-.502a1.126 1.126 0 0 0-.28-.486 1.497 1.497 0 0 0-.597-.37l-8.272-2.91-1.289 1.296 8.19 2.865c.264.09.453.218.59.366.14.148.226.313.275.478.05.168.062.341.053.498-.008.16-.036.304-.061.42a1.038 1.038 0 0 1-.062.18c-.012.03-.029.054-.041.079l-1.054.938c-.082.07-.16.152-.239.243a2.24 2.24 0 0 0-.222.304c-.07.116-.135.243-.193.383a3.013 3.013 0 0 0-.202 1.663c.062.387.202.765.4 1.115a3.387 3.387 0 0 0 1.835 1.531 3.11 3.11 0 0 0 .95.165c.104 0 .206 0 .305-.012a2.77 2.77 0 0 0 .766-.185 2.708 2.708 0 0 0 .663-.396c.469-.386.946-.773 1.415-1.16a2.223 2.223 0 0 1-.32.222Zm27.337 21.533-1.708.902-21.595 2.815 1.506-.893 21.793-2.82.004-.004Z"/>
  <path fill="var(--sapContent_Illustrative_Color15)" d="m56.076 84.398-1.507.894-4.391-23.246 1.424-1.152 4.474 23.5v.004Z"/>
  <path fill="var(--sapContent_Illustrative_Color3)" d="m88.685 35.693 4.75 21.262-7.352.696a1.1 1.1 0 0 1-1.029-.428 1.788 1.788 0 0 1-.246-.437 2.683 2.683 0 0 1-.124-.416 1.226 1.226 0 0 1 .037-.662c.066-.206.165-.395.26-.613.094-.218.185-.461.226-.77a3.211 3.211 0 0 0-.066-1.124 3.422 3.422 0 0 0-1.202-1.938 3.15 3.15 0 0 0-.967-.535 2.716 2.716 0 0 0-1.074-.14 2.235 2.235 0 0 0-1.696.992c-.185.28-.317.6-.379.955a2.93 2.93 0 0 0 .03 1.132c.098.456.246.814.41 1.102.17.289.363.507.544.704.185.198.366.362.51.548.149.185.264.378.317.633.025.12.05.268.058.42.008.157 0 .321-.053.465a.843.843 0 0 1-.26.4.994.994 0 0 1-.56.205l-7.642.72-1.704-8.214a1.488 1.488 0 0 0-.276-.63 1.191 1.191 0 0 0-.42-.338 1.468 1.468 0 0 0-.46-.127 1.688 1.688 0 0 0-.408 0 1 1 0 0 0-.577.243c-.16.131-.304.3-.465.465a2.408 2.408 0 0 1-.617.477 2.699 2.699 0 0 1-1.033.284 2.787 2.787 0 0 1-1.12-.14 3.31 3.31 0 0 1-1.008-.551 3.537 3.537 0 0 1-.782-.877 3.22 3.22 0 0 1-.444-1.115 2.843 2.843 0 0 1-.009-1.149c.075-.362.21-.683.408-.963a2.355 2.355 0 0 1 1.778-.987c.44-.033.802.02 1.111.11.309.091.56.231.79.367.23.136.433.28.638.379.206.098.416.164.655.144.115-.009.25-.03.39-.066.14-.037.28-.099.396-.194a.79.79 0 0 0 .271-.386 1.25 1.25 0 0 0 .009-.647l-1.667-8.038 20.047-1.23v.008l.005.004Z"/>
  <path fill="var(--sapContent_Illustrative_Color11)" d="M81.89 50.591c.362-.029.728.02 1.074.14a3.342 3.342 0 0 1 1.725 1.387c.205.33.362.696.444 1.087.099.453.107.819.066 1.123a2.882 2.882 0 0 1-.227.77c-.094.222-.197.412-.259.613a1.27 1.27 0 0 0-.037.663c.025.12.066.263.124.415.057.153.14.305.247.437.107.136.242.255.411.333.169.078.37.115.618.095l7.35-.696 4.91 21.987-20.45 2.646-1.762-8.503a1.424 1.424 0 0 1 0-.675.814.814 0 0 1 .263-.412c.115-.103.255-.172.387-.222.136-.05.276-.074.39-.086.244-.03.458.028.668.123.21.095.415.235.646.37.23.136.481.268.79.354.309.087.659.128 1.095.079.383-.046.72-.17 1.016-.358.297-.19.54-.44.729-.733.19-.296.32-.634.383-1.004a3.128 3.128 0 0 0-.033-1.17A3.55 3.55 0 0 0 82 68.232a3.425 3.425 0 0 0-.774-.872c-.3-.243-.634-.42-.992-.535a2.63 2.63 0 0 0-1.103-.12c-.432.05-.761.165-1.016.313s-.449.33-.61.506c-.164.181-.304.354-.46.486a1.023 1.023 0 0 1-.573.263 1.912 1.912 0 0 1-.415 0 1.396 1.396 0 0 1-.465-.123 1.08 1.08 0 0 1-.416-.338 1.56 1.56 0 0 1-.276-.633l-1.724-8.318 7.643-.72c.25-.025.428-.1.56-.206a.802.802 0 0 0 .259-.395c.045-.153.057-.317.053-.465a1.89 1.89 0 0 0-.057-.424 1.464 1.464 0 0 0-.317-.634c-.148-.185-.33-.35-.51-.548a3.684 3.684 0 0 1-.544-.703 3.556 3.556 0 0 1-.411-1.103 2.928 2.928 0 0 1-.03-1.132c.062-.354.19-.675.375-.955a2.24 2.24 0 0 1 1.696-.992v.008h-.004Z"/>
  <path fill="var(--sapContent_Illustrative_Color3)" d="m73.168 58.876 1.724 8.322c.058.276.157.482.28.642.124.16.272.268.428.337.157.07.317.108.465.12.153.012.293.008.408-.004.247-.029.428-.128.592-.268.165-.14.31-.313.47-.49a2.51 2.51 0 0 1 .609-.502 2.578 2.578 0 0 1 1.008-.312 2.66 2.66 0 0 1 1.095.123c.354.115.687.3.984.535a3.471 3.471 0 0 1 1.218 1.988c.086.403.094.798.033 1.165-.062.366-.19.704-.379 1a2.351 2.351 0 0 1-1.72 1.095c-.436.05-.786.008-1.095-.078a3.385 3.385 0 0 1-.786-.35c-.23-.136-.436-.272-.642-.37a1.193 1.193 0 0 0-.655-.128 2.108 2.108 0 0 0-.411.086 1.15 1.15 0 0 0-.408.218.854.854 0 0 0-.275.416c-.054.181-.062.4 0 .679l1.761 8.503-21.793 2.82-4.474-23.502 8.141-.77a1.29 1.29 0 0 1 .663.095c.181.083.321.206.432.346.115.14.194.3.255.453.062.156.1.309.124.428.053.263.016.477-.054.691-.07.215-.189.416-.296.647a2.92 2.92 0 0 0-.263.81c-.05.322-.054.704.04 1.19a3.455 3.455 0 0 0 1.252 2.041c.313.247.658.432 1.033.548.37.115.757.16 1.148.119a2.5 2.5 0 0 0 1.054-.354c.309-.19.564-.44.765-.737.202-.3.342-.638.408-1.012.07-.375.07-.77-.013-1.185a3.723 3.723 0 0 0-.415-1.14 3.947 3.947 0 0 0-.56-.725c-.193-.202-.379-.374-.527-.56a1.51 1.51 0 0 1-.32-.65 2.605 2.605 0 0 1-.05-.436c-.004-.16.012-.33.062-.482a.81.81 0 0 1 .28-.407c.14-.111.333-.19.588-.214l7.824-.741h-.008Z"/>
  <path fill="var(--sapContent_Illustrative_Color26)" d="m44.206 28.042 21.253 7.96-1.704 7.565c-.033.14-.078.259-.131.358a.738.738 0 0 1-.194.234.918.918 0 0 1-.239.136.974.974 0 0 1-.259.054h-.21c-.07 0-.136-.017-.201-.03-.066-.012-.128-.028-.19-.044-.061-.017-.115-.038-.164-.054a1.495 1.495 0 0 1-.585-.412c-.164-.177-.304-.386-.469-.6a3.97 3.97 0 0 0-.621-.655 3.458 3.458 0 0 0-1.042-.572 2.958 2.958 0 0 0-.308-.095 4.458 4.458 0 0 0-.305-.061 2.46 2.46 0 0 0-.3-.03c-.1-.003-.198 0-.297 0a2.472 2.472 0 0 0-1.416.556 2.401 2.401 0 0 0-.502.577 2.48 2.48 0 0 0-.308.749 2.92 2.92 0 0 0-.033 1.148c.061.383.201.749.399 1.09.197.342.449.65.753.91a3.384 3.384 0 0 0 1.416.725c.12.028.23.053.337.066.107.012.206.024.305.028s.185 0 .276 0c.078 0 .152-.016.226-.029.074-.012.144-.028.21-.04a1.48 1.48 0 0 0 .194-.054c.061-.02.123-.037.185-.058.061-.02.119-.041.177-.057l.172-.054c.058-.016.112-.029.17-.041.057-.012.11-.02.168-.025h.12c.04.004.082 0 .123.008.041.009.082.013.127.025.046.013.087.025.132.041.115.041.255.103.4.181.143.079.283.186.407.313.123.128.222.288.276.47.053.185.065.407.008.662l-1.77 7.84L52.762 54a1.454 1.454 0 0 0-.164-.05c-.054-.012-.103-.024-.153-.028-.05 0-.094-.013-.14-.013h-.127a.868.868 0 0 0-.4.132c-.11.07-.201.165-.275.264a1.305 1.305 0 0 0-.173.325 3.345 3.345 0 0 0-.099.313c-.058.25-.029.473.041.703.07.23.181.461.284.72.103.26.202.544.247.877.046.334.037.716-.07 1.177-.07.288-.18.552-.325.786-.144.235-.32.44-.523.614a2.679 2.679 0 0 1-1.782.626 2.778 2.778 0 0 1-.638-.079 3.447 3.447 0 0 1-1.4-.708 3.59 3.59 0 0 1-.777-.934 3.188 3.188 0 0 1-.4-1.128 3.047 3.047 0 0 1 .042-1.19c.115-.46.28-.79.465-1.045.19-.255.403-.432.605-.584.206-.152.4-.28.564-.428a1.1 1.1 0 0 0 .35-.572c.029-.12.057-.268.062-.428.004-.16 0-.334-.054-.502a1.17 1.17 0 0 0-.28-.486 1.52 1.52 0 0 0-.605-.375l-8.252-2.901 5.42-21.044Z"/>
</svg>
