<svg id="tnt-Dialog-Settings" xmlns="http://www.w3.org/2000/svg" width="160" height="160" fill="none" viewBox="0 0 160 160">
  <rect width="160" height="69" y="50" fill="var(--sapContent_Illustrative_Color20)" rx="12"/>
  <path fill="var(--sapContent_Illustrative_Color21)" d="M87.298 101.165h-.048l-.031-.01-3.65-1.121-.058-2.03-7.138-1.105-2.904 1.413-4.077-.115-3.85-1.65-6.695.692 1.09 1.9-2.85.937-6.145-.502-3.237 2.361 5.045 1.617-.38 1.722-5.484 1.246 2.94 3.33c.423.052 1.031.057 1.719.036.687-.015 1.464-.057 2.22-.094a47.147 47.147 0 0 1 2.127-.068c.629 0 1.152.032 1.459.121.222.068.444.167.693.287.243.121.486.262.75.404.265.141.545.277.836.397.291.121.608.22.93.273.06.131 0 .377-.11.67-.111.298-.275.654-.428 1.01-.16.361-.297.712-.36.989-.058.283-.042.498.132.566l9.106 1.989 4.083-2.539 4.88.173c.366.063.857.272 1.413.555.566.282 1.179.633 1.787.984.614.351 1.211.701 1.724.958.513.262.936.434 1.174.44l8.292-1.304-2.597-3.183a4.59 4.59 0 0 0 .487-.24c.18-.1.375-.21.576-.325.196-.115.418-.23.63-.34.216-.105.438-.21.65-.288.09-.037.18-.063.27-.089a3.87 3.87 0 0 1 .259-.068c.09-.016.169-.032.254-.037h.248c.243.016.788.073 1.46.152.677.078 1.502.178 2.31.267.81.089 1.603.178 2.211.235.614.053 1.037.079 1.121.048l1.248-3.304-6.61-1.732-1.095-1.691v-.016c0-.005.016-.01.01-.016 0-.005 0-.015.011-.015 0 0 0-.011.016-.016.016-.011.037-.026.058-.037.022-.01.043-.031.08-.036.026-.011.053-.027.095-.037.032-.011.069-.026.111-.042.111-.037.233-.078.38-.115l.46-.126c.17-.042.34-.083.524-.125l.545-.126c.185-.042.365-.084.529-.12.17-.037.333-.079.486-.116.154-.036.296-.073.413-.104.116-.032.227-.063.312-.094l.037-.011.037-.01.032-.011.031-.01s.027-.016.048-.021c.016 0 .021-.016.042-.021.016-.005.021-.016.043-.021.015 0 .015-.021.031-.021.01-.011.016-.016.021-.032v-.031s-.01-.026-.02-.037a.114.114 0 0 0-.054-.041l-4.727-2.655-5.95.116.022.01Zm-2.216 3.617c.529.581.767 1.178.714 1.754-.053.586-.407 1.147-1.058 1.649-.116.1-.254.194-.396.283a5.617 5.617 0 0 1-.47.262 9.656 9.656 0 0 1-1.137.476c-.392.136-.831.262-1.307.372a20.832 20.832 0 0 1-3.305.476 33.433 33.433 0 0 1-8.82-.586c-2.074-.43-3.888-1.021-5.289-1.712-1.38-.675-2.348-1.445-2.797-2.225-.434-.764-.365-1.544.317-2.272.069-.079.148-.157.233-.23.084-.074.185-.152.275-.22.09-.068.195-.136.296-.21.1-.068.216-.136.328-.199.153-.083.306-.162.47-.24a8.86 8.86 0 0 1 .513-.215c.185-.068.365-.136.555-.199.19-.063.387-.12.593-.178.91-.246 1.93-.434 3.025-.555a29.47 29.47 0 0 1 3.469-.167 34.38 34.38 0 0 1 3.707.246 30.9 30.9 0 0 1 3.754.686c1.597.392 2.909.858 3.961 1.361 1.068.513 1.856 1.073 2.37 1.643Z"/>
  <path fill="var(--sapContent_Illustrative_Color21)" d="M41.619 99.84c.28.152.582.341.873.529.29.189.576.377.83.513.254.142.481.23.634.23l5.865-.722-.63-1.738c.117-.031.25-.078.403-.136.153-.052.317-.115.497-.178.174-.063.354-.13.539-.188a8.75 8.75 0 0 1 .74-.215c.07-.016.138-.026.196-.037.063-.01.122-.02.185-.02h.164c.159 0 .497.036.925.078.429.042.952.094 1.45.146.502.053.999.1 1.385.126.38.032.656.042.73.026l2.094-1.869-3.829-.989-.11-.99v-.01l.015-.01.01-.01s0-.011.016-.011.032-.016.053-.021c.021-.005.043-.016.074-.021.027-.005.053-.016.085-.021.026 0 .053-.016.095-.026.085-.021.196-.047.307-.068l.365-.074c.127-.026.264-.047.407-.073.137-.026.28-.052.418-.073.137-.021.28-.053.412-.073.132-.022.26-.048.376-.069.121-.02.222-.041.328-.062a2.69 2.69 0 0 0 .253-.058l.059-.01h.026s.016-.01.021-.01c.016 0 .026-.011.042-.011.016 0 .022-.01.037-.01.011 0 .022-.011.037-.017.011 0 .016-.01.032-.01.01 0 .016-.01.027-.016.01-.005.016-.01.016-.015 0-.006.01-.016 0-.021l-.022-.027-2.247-1.596-4.199.084h-.01l-2.142-.686.698-1.267-4.68-.686-2.55.895-2.855-.068-2.215-1.036-4.998.45.217 1.194-2.284.586-4.204-.299-2.888 1.456 3.11.968-.714 1.026-4.088.744 1.211 1.916c.275.031.687.031 1.158.015.47-.015 1.01-.036 1.534-.063.518-.02 1.03-.041 1.454-.047.434 0 .772.016.957.063.137.037.26.094.391.163.133.067.26.146.402.225.143.078.291.157.455.225.164.068.35.12.55.152 0 .073-.1.209-.254.376-.159.168-.354.367-.55.566-.195.199-.391.392-.497.55-.11.156-.153.272-.058.314l5.484 1.057 3.426-1.387 3.195.089c.227.036.486.151.766.298v-.016h-.005Zm-5.14-2.858c-1.28-.235-2.343-.576-3.104-.974-.751-.387-1.195-.837-1.285-1.293-.09-.45.174-.91.856-1.35.075-.047.154-.094.233-.141.08-.048.164-.09.249-.131.084-.042.18-.084.27-.126.095-.042.195-.079.29-.12.127-.053.26-.1.402-.147.143-.047.286-.089.428-.13.149-.043.291-.085.45-.121.159-.037.307-.074.47-.11a18.402 18.402 0 0 1 2.29-.346 25.585 25.585 0 0 1 5.003.037c.83.089 1.64.225 2.395.408.974.236 1.73.513 2.285.817.56.303.915.633 1.058.974.148.345.1.696-.133 1.03-.243.341-.682.67-1.29.959h.027a3.404 3.404 0 0 1-.37.162c-.133.053-.27.1-.408.152-.148.047-.296.094-.45.141-.158.047-.317.094-.486.136-.317.079-.65.152-1.01.215a19.935 19.935 0 0 1-2.385.278 28.27 28.27 0 0 1-1.359.047c-1.623.01-3.125-.12-4.42-.362h-.006v-.005Zm46.514-8.151-3.225.325-2.306-.372-.592-.994-4.416-.226-1.237.843-2.401.131-2.83-.649-3.722.665 1.354.895-1.328.597-3.828.052-.979 1.304 3.57.518.418.817-2.67.837 2.886 1.33c.26 0 .598-.026.974-.068.375-.042.787-.1 1.195-.152.407-.052.809-.105 1.152-.136.35-.032.646-.042.847-.021.148.016.301.052.475.089.175.042.36.089.545.136.185.047.386.089.582.13.19.037.397.064.587.074.074.052.116.162.148.293.032.131.063.294.085.445.026.157.063.31.11.43.048.12.122.209.244.225l5.34.36 1.45-1.224 2.58-.162c.207.01.508.068.862.157.355.089.757.204 1.148.314.391.11.777.22 1.095.303.312.079.565.131.687.12l3.881-.91-1.972-1.183c.053-.032.122-.073.19-.12.07-.048.148-.105.228-.163l.248-.173a1.69 1.69 0 0 1 .27-.151c.042-.021.074-.037.116-.053.037-.016.08-.031.117-.042l.121-.026a.866.866 0 0 1 .122-.01c.127 0 .418-.01.777 0h2.391c.322 0 .539-.016.576-.032l.032-1.466-3.781-.46-.942-.712v-.021l.022-.021c0-.01.026-.016.031-.02 0-.011.021-.017.043-.027l.058-.026c.053-.026.116-.047.18-.074.063-.026.142-.052.216-.078.08-.026.159-.052.249-.079l.259-.078c.08-.026.17-.052.254-.079.08-.026.159-.052.233-.073l.195-.068c.058-.021.106-.042.148-.058h.048l.01-.01c.011 0 .016-.01.022-.01.005 0 0 0 .015-.011.011 0 .011-.01.016-.01 0 0 0-.011.01-.011 0 0 .017-.01 0-.016v-.015c0-.006-.02-.016-.02-.016l-.037-.016-3.13-1.031v-.026l.004-.01Zm-2.728 2.874c.11.267.058.529-.164.78-.043.047-.09.094-.143.142a1.222 1.222 0 0 1-.18.136 8.08 8.08 0 0 1-.222.13c-.08.043-.17.084-.264.126a6.212 6.212 0 0 1-.598.225 8.194 8.194 0 0 1-.74.2c-.27.062-.566.114-.889.162-.322.047-.666.094-1.03.125-1.286.12-2.597.126-3.85.042-1.249-.084-2.417-.256-3.4-.497-.974-.236-1.767-.534-2.27-.864-.502-.33-.719-.691-.581-1.063a.625.625 0 0 1 .058-.12.56.56 0 0 1 .08-.115c.031-.037.063-.074.1-.115.037-.037.08-.074.121-.11.053-.047.122-.09.185-.136.064-.048.143-.09.223-.126.074-.042.158-.084.248-.12.09-.037.185-.079.28-.116a9.66 9.66 0 0 1 1.55-.408c.587-.11 1.232-.194 1.925-.24a24.352 24.352 0 0 1 4.479.093c1 .116 1.85.267 2.565.456.724.188 1.29.408 1.713.649.428.24.698.497.809.759h-.005v.005Z"/>
  <path fill="var(--sapContent_Illustrative_Color14)" d="m107.71 98.993-4.341 2.769h-.148a3.71 3.71 0 0 1-.355.015c-.132 0-.285 0-.444-.01-.159-.01-.333-.016-.508-.026l-.544-.032-.556-.031c-.179-.01-.364-.016-.539-.021h-.497c-.153 0-.301.011-.423.021-.048 0-.095.01-.132.016-.037 0-.085.015-.117.021-.037 0-.074.015-.105.026a.745.745 0 0 0-.085.031l4.262-2.785s.058-.026.09-.031c.032 0 .069-.021.106-.026.037 0 .079-.016.116-.021.043 0 .09-.01.132-.016.127-.01.275-.02.434-.02h.502c.175 0 .36.015.55.025.191.01.376.021.566.037l.556.031c.179.01.349.021.512.027.159 0 .318.01.45.01s.259 0 .36-.016h.158v.006Z"/>
  <path fill="var(--sapContent_Illustrative_Color14)" d="m107.71 98.993-4.341 2.769h-.148a3.71 3.71 0 0 1-.355.015c-.132 0-.285 0-.444-.01-.159-.01-.333-.016-.508-.026l-.544-.032-.556-.031c-.179-.01-.364-.016-.539-.021h-.497c-.153 0-.301.011-.423.021-.048 0-.095.01-.132.016-.037 0-.085.015-.117.021-.037 0-.074.015-.105.026a.745.745 0 0 0-.085.031l4.262-2.785s.058-.026.09-.031c.032 0 .069-.021.106-.026.037 0 .079-.016.116-.021.043 0 .09-.01.132-.016.127-.01.275-.02.434-.02h.502c.175 0 .36.015.55.025.191.01.376.021.566.037l.556.031c.179.01.349.021.512.027.159 0 .318.01.45.01s.259 0 .36-.016h.158v.006Zm-12.126 14.469c-.09.01-.349-.173-.693-.466a39.78 39.78 0 0 1-1.227-1.094c-.444-.409-.893-.833-1.269-1.183-.375-.351-.677-.618-.83-.728a.56.56 0 0 0-.17-.084 1.368 1.368 0 0 0-.206-.047c-.073-.01-.153-.01-.248-.01s-.175 0-.27.015a9.079 9.079 0 0 0-.73.126c-.253.058-.512.126-.76.199-.244.073-.487.136-.699.199a3.824 3.824 0 0 1-.555.126l4.093-2.639c.148-.021.344-.068.566-.126.216-.062.46-.125.713-.198.26-.074.519-.142.778-.199a5.83 5.83 0 0 1 .746-.131c.095-.011.185-.016.275-.016.09 0 .169 0 .243.011.074.01.148.026.211.047a.57.57 0 0 1 .17.089c.148.11.46.387.846.748.386.356.846.791 1.295 1.209.45.425.9.822 1.254 1.121"/>
  <path fill="var(--sapContent_Illustrative_Color14)" d="m99.82 110.901-4.236 2.555c-.09.011-.349-.173-.693-.466a39.78 39.78 0 0 1-1.227-1.094c-.444-.408-.893-.832-1.269-1.183-.375-.351-.677-.618-.83-.728a.583.583 0 0 0-.17-.083 1.369 1.369 0 0 0-.206-.048c-.073-.01-.153-.01-.248-.01s-.175 0-.27.016a8.635 8.635 0 0 0-1.49.324c-.244.074-.487.136-.699.199a3.824 3.824 0 0 1-.555.126l4.087-2.665c.149-.021.365-.078.588-.136.216-.063.454-.125.713-.199.26-.073.519-.141.778-.199.259-.057.507-.11.74-.131.095-.01.185-.01.275-.01.09 0 .159 0 .233.016.074.01.153.047.217.068a.57.57 0 0 1 .169.089c.148.11.46.387.846.748.386.356.846.791 1.296 1.21.449.424.898.821 1.253 1.12M83.633 73.834l-3.062.586.445-1.707 3.839-3.418-1.222 4.539Zm13.501 17.159c-.222-1.203-.672-2.46-1.38-3.721a13.695 13.695 0 0 0-2.142-2.885 12.865 12.865 0 0 0-2.665-2.094 11.19 11.19 0 0 0-2.951-1.225 9.357 9.357 0 0 0-2.998-.288 8.875 8.875 0 0 0-.65.073 9.193 9.193 0 0 0-.64.126 7.242 7.242 0 0 0-1.232.413c-.149.069-.308.137-.456.22a4.56 4.56 0 0 0-.438.257 5.54 5.54 0 0 0-.429.288c-.137.105-.28.204-.407.325l-3.807 3.177c.126-.11.264-.21.401-.32.133-.099.28-.188.418-.287.138-.09.291-.168.434-.246.143-.079.301-.147.444-.215a6.39 6.39 0 0 1 .598-.23c.2-.068.407-.126.613-.178.206-.053.418-.094.63-.126.21-.031.428-.057.64-.078a9.293 9.293 0 0 1 2.945.267c.989.246 1.962.649 2.892 1.193.93.545 1.814 1.225 2.607 2.042a13.13 13.13 0 0 1 2.1 2.822c.687 1.235 1.126 2.465 1.343 3.648a9.368 9.368 0 0 1 .026 3.366 8.01 8.01 0 0 1-1.1 2.859 7.345 7.345 0 0 1-2.04 2.12l4.103-2.801a7.353 7.353 0 0 0 2.073-2.152 7.942 7.942 0 0 0 1.11-2.915 9.758 9.758 0 0 0-.037-3.434h-.005ZM73.702 79.31l-3.675 3.26-2.507-5.192 3.554-3.424 2.623 5.35.005.005Zm-1.745 2.967-1.935.304 3.675-3.262-1.74 2.968v-.01Z"/>
  <path fill="var(--sapContent_Illustrative_Color14)" d="m84.178 111.294-.01.011c-.149-.089-.28-.44-.387-.932-.11-.492-.206-1.12-.312-1.764a28.16 28.16 0 0 0-.338-1.864c-.122-.555-.28-1-.466-1.214l-3.114-2.016-4.675 1.78-4.58-5.879c-.068-.157.07-.455.307-.816.238-.367.587-.807.957-1.252.37-.445.746-.895 1.042-1.277.307-.393.529-.728.587-.937a2.51 2.51 0 0 1-.439-.764 8.07 8.07 0 0 1-.285-.916c-.08-.314-.143-.618-.222-.9-.08-.284-.16-.524-.27-.713-.148-.261-.497-.513-.947-.759-.45-.246-1-.487-1.565-.727-.566-.236-1.147-.477-1.65-.718-.508-.24-.936-.487-1.195-.733l.212-6.753-3.522 3.267-.254 6.585c.254.241.677.482 1.174.712.497.23 1.063.466 1.618.697.555.23 1.095.466 1.534.701.438.241.782.482.925.738.106.183.185.424.259.697.074.277.138.57.222.879.08.309.159.612.27.895.11.288.248.545.428.743-.058.205-.285.54-.576.922-.302.382-.672.827-1.026 1.256-.36.435-.703.869-.941 1.225-.244.361-.37.649-.313.812l4.474 5.742 4.59-1.753 3.052 1.968c.18.215.333.649.454 1.188.122.545.223 1.189.328 1.822.1.628.185 1.246.302 1.728.08.361.164.644.275.795a.31.31 0 0 0 .11.11l6.394 1.361 4.04-2.565-6.472-1.387.005.005Z"/>
  <path fill="var(--sapContent_Illustrative_Color2)" d="M99.82 110.901c-.095.011-.37-.198-.73-.497a40.303 40.303 0 0 1-1.252-1.12c-.455-.419-.915-.853-1.296-1.209-.38-.356-.693-.634-.846-.749a1 1 0 0 0-.17-.089.824.824 0 0 0-.21-.047 1.222 1.222 0 0 0-.244-.011c-.085 0-.175 0-.28.016a7.004 7.004 0 0 0-.74.131c-.26.058-.524.126-.778.199-.249.073-.497.141-.714.199a5.205 5.205 0 0 1-.566.126l-1.338 4.821-6.515-1.408c-.148-.089-.28-.44-.386-.932-.11-.492-.206-1.12-.312-1.77-.1-.643-.2-1.308-.338-1.863-.127-.555-.28-1-.466-1.215l-3.083-1.984-4.674 1.78-4.617-5.915c-.069-.157.069-.461.312-.827.243-.367.587-.807.957-1.246.365-.445.746-.895 1.042-1.278.302-.387.529-.727.587-.937a2.506 2.506 0 0 1-.439-.764 9.743 9.743 0 0 1-.285-.916c-.08-.314-.143-.618-.223-.9-.079-.283-.158-.524-.27-.712-.147-.262-.496-.514-.946-.76-.45-.24-1-.486-1.565-.722-.566-.236-1.148-.476-1.65-.717-.502-.24-.936-.487-1.195-.733l.243-6.716 5.087.083 1.74-2.968-2.575-5.303 4.727-3.371 4.527 3.837 3.305-.618 1.216-4.507 6.457 1.612 1.222 5.309 3.236 2.12 4.284-1.54 4.431 5.56-2.723 3.885 1.417 3.627.016.026.031.027 4.839 2.402.027 6.366c0 .037-.011.063-.022.09a.259.259 0 0 1-.037.067.376.376 0 0 1-.042.047.196.196 0 0 1-.053.037c-.016 0-.032.016-.053.02-.021 0-.037.011-.058.017-.021 0-.037.01-.058.015-.021 0-.042.01-.064.016h-.158c-.101.01-.222.016-.36.016-.137 0-.285 0-.449-.01-.159-.011-.339-.016-.513-.027l-.555-.031c-.186-.01-.376-.026-.566-.037-.191-.01-.37-.02-.55-.026h-.503c-.158 0-.306.01-.433.02-.048 0-.095.011-.132.016-.043 0-.085.016-.117.021-.037 0-.074.016-.106.027-.031.01-.063.02-.089.031-.011 0-.022.01-.032.016-.011 0-.021.01-.027.02 0 .011-.015.016-.026.022-.011 0-.016.015-.021.02l-1.264 2.964 2.66 5.036m-11.465-7.01a7.245 7.245 0 0 0 2.56-2.026 7.827 7.827 0 0 0 1.475-3.015c.286-1.131.349-2.377.143-3.686-.201-1.303-.661-2.675-1.439-4.062a13.694 13.694 0 0 0-2.141-2.884 13.117 13.117 0 0 0-2.66-2.094 11.121 11.121 0 0 0-2.951-1.225 9.324 9.324 0 0 0-2.998-.283 8.508 8.508 0 0 0-.65.073 7.757 7.757 0 0 0-1.264.304 5.849 5.849 0 0 0-.609.24c-.148.069-.307.137-.455.22-.148.084-.301.163-.439.257-.137.09-.29.183-.428.288-.137.1-.28.204-.407.325-1.216 1.02-1.988 2.366-2.359 3.868-.365 1.497-.327 3.157.09 4.806.413 1.644 1.195 3.272 2.295 4.727a12.941 12.941 0 0 0 4.226 3.617c.491.262.978.482 1.46.66.48.178.951.324 1.416.419.466.094.92.162 1.365.188.444.026.878.021 1.295-.021.222-.021.445-.052.656-.094.212-.042.428-.089.635-.141.206-.058.412-.121.608-.194a4.7 4.7 0 0 0 .576-.251"/>
  <path fill="var(--sapContent_Illustrative_Color14)" d="m88.154 60.494-3.574 2.283h-.122c-.085.01-.18.01-.296.01h-.365c-.127 0-.275-.01-.418-.02-.143-.011-.301-.017-.45-.027-.147-.01-.306-.02-.454-.026-.148 0-.301-.016-.444-.016h-.407c-.122 0-.244.01-.35.021-.037 0-.079.01-.11.016-.032 0-.07.01-.101.016-.032 0-.058.015-.085.02-.026 0-.053.016-.074.027l3.506-2.299s.048-.02.074-.026c.027-.005.059-.015.09-.02l.1-.016c.038 0 .075-.01.112-.016.106-.01.227-.016.354-.016h.413c.142 0 .301.01.45.021.147.01.311.016.464.026.154.01.312.021.455.027.143 0 .296.015.423.02.127 0 .26.011.37.011.111 0 .212 0 .302-.01h.127l.01-.011v.005ZM68.356 39.78l-3.163 2.743.957-3.685 3.163-2.843-.963 3.78.006.005Zm11.079 14.13c-.18-.995-.556-2.027-1.137-3.068a11.05 11.05 0 0 0-1.772-2.377 10.742 10.742 0 0 0-2.194-1.722 9.325 9.325 0 0 0-2.428-1.01c-.83-.21-1.665-.3-2.47-.231-.18.016-.359.037-.539.063a6.292 6.292 0 0 0-.528.105c-.17.041-.344.094-.519.146-.174.052-.338.12-.502.194-.122.057-.249.115-.376.178-.121.068-.243.13-.364.204a5.07 5.07 0 0 0-.35.235c-.11.084-.222.168-.338.267l-3.136 2.618c.111-.094.217-.173.333-.262.111-.084.228-.157.344-.23.111-.073.233-.136.354-.204.117-.063.244-.12.365-.178.159-.074.328-.131.492-.189.164-.057.338-.104.508-.146a5.44 5.44 0 0 1 .523-.105c.17-.026.35-.047.53-.063a7.548 7.548 0 0 1 2.426.22c.81.204 1.618.54 2.385.984.772.45 1.492 1.01 2.147 1.68a10.81 10.81 0 0 1 1.73 2.33c.565 1.021.93 2.031 1.105 3.005a7.9 7.9 0 0 1 .02 2.775 6.454 6.454 0 0 1-.909 2.355 5.88 5.88 0 0 1-1.687 1.743l3.38-2.313a6.06 6.06 0 0 0 1.708-1.78 6.644 6.644 0 0 0 .92-2.403 7.957 7.957 0 0 0-.032-2.827h.016l-.005.005Zm-19.307-9.633-3.025 2.69-2.068-4.276 2.972-2.806 2.12 4.387v.005ZM78.17 72.368c-.074.01-.29-.142-.57-.382-.286-.236-.64-.56-1.01-.906-.366-.34-.741-.686-1.043-.974-.311-.288-.56-.513-.682-.597a.48.48 0 0 0-.137-.068.886.886 0 0 0-.17-.036c-.063 0-.126-.01-.195-.01s-.143 0-.227.015c-.185.02-.392.063-.598.11-.206.047-.423.11-.624.162-.2.052-.402.11-.576.162a3.177 3.177 0 0 1-.455.105l3.374-2.172c.121-.021.285-.058.465-.105.18-.047.38-.11.587-.162.212-.058.423-.116.635-.163.211-.047.417-.089.608-.11a1.714 1.714 0 0 1 .428-.005c.063.01.116.021.175.037.058.015.1.042.137.073.122.09.38.325.698.607.323.294.693.65 1.068 1 .376.346.74.675 1.026.927.291.246.513.403.582.392"/>
  <path fill="var(--sapContent_Illustrative_Color14)" d="m58.694 46.721-3.009 2.644 1.418-2.398 3.025-2.69-1.434 2.444Z"/>
  <path fill="var(--sapContent_Illustrative_Color14)" d="M68.762 70.603h-.005c-.122-.068-.227-.355-.322-.759-.09-.403-.17-.926-.254-1.455-.085-.534-.17-1.073-.275-1.528-.106-.456-.217-.833-.37-1.016l-2.586-1.68-3.855 1.46-3.76-4.821c-.032-.136.074-.367.259-.655.195-.309.486-.66.793-1.026.301-.366.608-.733.862-1.057.249-.325.434-.592.487-.775a2.056 2.056 0 0 1-.36-.623 5.67 5.67 0 0 1-.227-.754c-.064-.261-.117-.513-.18-.738-.064-.225-.127-.434-.222-.586-.122-.21-.407-.419-.783-.618a15.06 15.06 0 0 0-1.29-.591c-.466-.194-.947-.393-1.365-.587-.417-.194-.772-.398-.988-.602l.185-5.544-2.92 2.665-.211 5.429c.217.199.56.398.968.586.407.188.878.382 1.332.57.455.189.905.383 1.264.576.36.194.635.398.767.602.09.147.153.351.211.571.064.22.112.476.175.722.064.257.127.508.222.739.09.23.206.445.35.612-.048.168-.239.44-.482.764-.243.32-.555.68-.852 1.037-.3.356-.576.712-.777 1.01-.185.283-.29.508-.254.639l-.01.01.01.016 3.68 4.717 3.787-1.45 2.517 1.623c.148.172.275.533.376.984.1.445.18.984.27 1.497.079.523.153 1.026.248 1.429.069.298.132.534.217.654a.31.31 0 0 0 .09.094l5.272 1.12 3.369-2.098-5.368-1.157.005-.005Z"/>
  <path fill="var(--sapContent_Illustrative_Color2)" d="m84.453 53.03 3.982 1.978.02 5.25-.015.074c0 .02-.016.037-.027.052a.122.122 0 0 1-.037.037c-.016.01-.026.02-.042.026-.016 0-.026.01-.042.016-.016 0-.032.01-.048.015-.016 0-.031.011-.047.011s-.032.01-.053.01h-.127c-.085.01-.18.01-.302.01-.121 0-.232 0-.37-.01-.132-.01-.275-.01-.423-.02-.143-.011-.306-.016-.455-.027-.153-.01-.312-.02-.465-.026-.153-.005-.307-.016-.45-.02h-.412c-.122 0-.254 0-.354.015-.043 0-.08.01-.111.016-.037 0-.069.01-.1.015-.032 0-.064.016-.09.021-.027 0-.054.016-.075.026-.01 0-.016.01-.026.016a.071.071 0 0 0-.021.016s-.016.01-.022.016l-.015.015-1.037 2.44 2.19 4.146-3.834 3.13c-.08.01-.296-.146-.582-.392a19.82 19.82 0 0 1-1.026-.927c-.37-.345-.756-.701-1.068-1-.317-.298-.571-.523-.698-.607a.608.608 0 0 0-.312-.11c-.064 0-.127-.01-.201-.01-.074 0-.143 0-.222.015-.19.021-.397.063-.608.11-.212.047-.429.11-.635.162-.206.058-.407.116-.587.163s-.338.089-.465.105l-1.1 3.978-5.368-1.157c-.121-.073-.227-.361-.322-.77-.09-.402-.17-.926-.254-1.455-.08-.534-.17-1.073-.275-1.528-.106-.456-.227-.822-.386-1.005l-2.57-1.665-3.855 1.46-3.776-4.842c-.053-.13.058-.377.26-.68.195-.31.486-.66.792-1.026.307-.367.608-.733.862-1.058.254-.33.434-.592.487-.775a2.056 2.056 0 0 1-.36-.623c-.095-.235-.164-.497-.232-.753-.064-.262-.117-.514-.18-.739-.064-.225-.127-.434-.222-.586-.122-.21-.408-.419-.783-.618-.37-.199-.825-.398-1.29-.591-.466-.194-.947-.393-1.365-.587-.418-.193-.772-.397-.989-.602l.196-5.533 4.194.068 1.433-2.445-2.12-4.37 3.896-2.775 3.734 3.157 2.723-.514.963-3.753 5.362 1.372 1.005 4.376 2.665 1.748 3.522-1.261 3.649 4.58-2.243 3.199 1.164 2.989v.031l-.005-.005Zm-8.424 8.344a6.052 6.052 0 0 0 2.11-1.67 6.622 6.622 0 0 0 1.226-2.487c.244-.937.291-1.958.117-3.036-.164-1.078-.55-2.204-1.185-3.345a11.054 11.054 0 0 0-1.771-2.377 10.748 10.748 0 0 0-2.195-1.722 9.254 9.254 0 0 0-2.427-1.01c-.825-.21-1.66-.299-2.47-.23-.18.015-.36.036-.54.062a5.867 5.867 0 0 0-.528.105c-.17.042-.344.094-.518.146-.17.058-.339.12-.503.194-.121.058-.248.115-.375.178a5.068 5.068 0 0 0-.714.44 6.844 6.844 0 0 0-.338.267c-1.005.842-1.64 1.952-1.936 3.182-.296 1.23-.27 2.602.074 3.958a10.95 10.95 0 0 0 5.373 6.884 9.408 9.408 0 0 0 2.374.89c.386.084.762.13 1.121.157a6.58 6.58 0 0 0 1.069-.016c.18-.015.365-.042.544-.078.175-.037.35-.074.524-.115.17-.047.338-.105.502-.157.164-.053.328-.126.481-.2"/>
  <path fill="var(--sapContent_Illustrative_Color14)" d="m119.794 65.824-2.539 2.57s-.016 0-.021.01c0 .01-.016 0-.026.01-.011 0-.016 0-.027.011-.01 0-.016 0-.026.01-.069.022-.143.048-.243.069-.101.02-.191.042-.307.063-.111.02-.227.042-.349.063l-.376.062-.386.063c-.127.021-.248.047-.37.068a4.65 4.65 0 0 0-.719.189l-.079.031a.273.273 0 0 0-.069.037.963.963 0 0 1-.053.036l2.48-2.57.053-.037a.392.392 0 0 1 .069-.036.468.468 0 0 0 .079-.037c.027-.016.058-.02.095-.031a5.715 5.715 0 0 1 .64-.157c.117-.021.254-.047.376-.068.121-.021.259-.042.391-.063.127-.021.264-.042.381-.063.116-.021.243-.042.354-.063.111-.02.212-.042.312-.063a1.62 1.62 0 0 0 .243-.068c.011 0 .021 0 .027-.01 0 0 .016 0 .026-.01.011 0 .016 0 .027-.011.01 0 .016 0 .021-.01h.01l.006.005ZM99.323 52.302l-2.104 2.885.09-3.246L99.403 49l-.08 3.308v-.005Zm11.941 9.678c-.344-.79-.852-1.58-1.539-2.344a9.623 9.623 0 0 0-1.93-1.644 9.106 9.106 0 0 0-2.158-1.02 7.851 7.851 0 0 0-2.221-.383 6.519 6.519 0 0 0-2.105.272c-.142.047-.296.1-.438.152-.138.058-.286.115-.418.183-.132.068-.275.136-.402.22-.127.079-.26.162-.38.262-.096.073-.186.141-.281.22a5.57 5.57 0 0 0-.26.24 3.002 3.002 0 0 0-.243.267 8.074 8.074 0 0 0-.232.288l-2.11 2.77c.074-.1.143-.184.222-.283.08-.089.159-.173.243-.262.085-.084.164-.157.26-.235a2.77 2.77 0 0 1 .274-.215 5.22 5.22 0 0 1 .376-.257c.127-.078.264-.146.391-.214.132-.068.27-.126.413-.183.137-.058.285-.11.428-.147a6.542 6.542 0 0 1 2.062-.277 7.475 7.475 0 0 1 2.168.371 8.38 8.38 0 0 1 2.116 1 9.539 9.539 0 0 1 1.893 1.607c.666.744 1.163 1.518 1.496 2.298.334.78.513 1.555.55 2.309a5.573 5.573 0 0 1-.306 2.13 5.101 5.101 0 0 1-1.063 1.77l2.374-2.56a5.11 5.11 0 0 0 1.079-1.806 5.88 5.88 0 0 0 .307-2.167 6.713 6.713 0 0 0-.566-2.35l.016-.011h-.016Zm-17.911-4.37-1.999 2.812-2.543-3.173 1.935-2.879 2.602 3.24h.005Zm22.919 17.6-2.507 2.414c-.064.02-.27-.069-.555-.21a17.477 17.477 0 0 1-1.016-.56l-1.057-.612c-.318-.178-.566-.325-.682-.367a.575.575 0 0 0-.127-.031h-.148a.636.636 0 0 0-.164.031c-.053.016-.117.031-.18.052-.148.053-.317.12-.481.2a14.15 14.15 0 0 0-.492.25 6.98 6.98 0 0 0-.45.252c-.132.078-.264.13-.359.173l2.39-2.445c.1-.042.227-.105.365-.173.137-.073.301-.157.46-.246.159-.089.333-.173.497-.262.164-.083.338-.151.487-.204.063-.02.121-.042.185-.057a1 1 0 0 1 .169-.032c.058-.005.106 0 .148 0 .042 0 .095.016.127.032.116.052.375.188.698.376.328.184.708.414 1.079.629.375.214.751.424 1.031.57.28.147.502.241.566.22h.016Z"/>
  <path fill="var(--sapContent_Illustrative_Color14)" d="m92.613 59.903-1.994 2.77.714-2.262 1.999-2.811-.724 2.308.005-.005Z"/>
  <path fill="var(--sapContent_Illustrative_Color14)" d="m105.642 77.943-.01.01c-.117-.042-.265-.267-.413-.581-.148-.32-.322-.738-.492-1.162-.169-.43-.349-.864-.523-1.225-.175-.361-.349-.639-.513-.76l-2.459-.9-2.924 1.943-4.072-3.325c-.074-.1-.037-.335.074-.617h-.01c.11-.299.28-.65.46-1.01.174-.362.37-.728.512-1.042.143-.32.254-.576.26-.733a1.751 1.751 0 0 1-.418-.456 6.216 6.216 0 0 1-.339-.58c-.106-.2-.196-.404-.301-.582a1.877 1.877 0 0 0-.302-.445c-.142-.152-.423-.277-.772-.372-.344-.099-.767-.172-1.195-.25-.428-.08-.862-.147-1.243-.231-.386-.09-.713-.183-.94-.32l-.9-4.643-1.925 2.77.867 4.559c.212.126.545.225.92.314.376.09.805.152 1.222.225.423.073.825.147 1.164.241.338.094.608.21.756.361.1.11.19.267.296.44.095.173.185.372.29.565.101.194.207.398.334.57.116.174.254.336.412.446 0 .146-.11.413-.248.717-.143.314-.333.67-.508 1.02-.174.357-.343.702-.45.99-.105.288-.147.508-.084.602l3.993 3.246 2.871-1.916 2.406.874c.159.115.333.393.503.744.169.356.343.785.513 1.198.164.42.333.828.476 1.142.111.235.211.413.317.507a.198.198 0 0 0 .09.058l4.6-.063 2.401-2.382-4.696.047v.006Z"/>
  <path fill="var(--sapContent_Illustrative_Color2)" d="m115.277 60.296 3.702.895 1.026 4.366v.063s0 .037-.011.052a.205.205 0 0 0-.021.042c0 .016-.021.021-.031.032-.011 0-.022.015-.032.02-.011 0-.021.016-.037.021-.016.006-.027.016-.037.021-.011.006-.027.016-.042.021 0 0-.016 0-.022.01 0 0-.016 0-.026.011-.011.01-.016 0-.027.01-.01 0-.015 0-.026.011-.069.021-.148.047-.243.068a16.096 16.096 0 0 1-.667.126l-.38.063-.392.063c-.127.02-.259.047-.375.068a4.96 4.96 0 0 0-.344.073c-.1.026-.201.052-.296.084l-.095.031a.271.271 0 0 0-.079.037c-.022.015-.048.02-.069.036-.021.016-.037.026-.053.037l-.016.016-.016.015-.016.016s0 .01-.01.016l-.397 2.225 2.623 3.041-2.591 3.33c-.064.02-.275-.069-.566-.215-.296-.147-.656-.356-1.031-.57-.376-.215-.767-.446-1.079-.629-.317-.183-.576-.33-.698-.377a.561.561 0 0 0-.127-.031h-.148a.724.724 0 0 0-.169.031 3.705 3.705 0 0 0-.672.262c-.164.084-.338.167-.497.262-.158.089-.322.172-.46.246-.137.073-.27.13-.365.173l-.148 3.517-4.696.047c-.116-.036-.259-.261-.412-.575a30.436 30.436 0 0 1-.492-1.162 19.545 19.545 0 0 0-.524-1.225c-.174-.367-.349-.64-.512-.765l-2.459-.9-2.925 1.942-4.072-3.324c-.074-.1-.026-.33.085-.613.111-.293.28-.644.46-1.005.18-.356.37-.728.513-1.042.143-.314.248-.575.26-.733a1.747 1.747 0 0 1-.419-.455 7.663 7.663 0 0 1-.338-.581c-.1-.199-.196-.403-.302-.581-.1-.178-.19-.335-.301-.445-.143-.152-.423-.278-.772-.372-.344-.1-.762-.172-1.19-.256-.428-.079-.862-.147-1.248-.23-.386-.084-.714-.184-.941-.32l-.9-4.643 3.502-.733.724-2.309-2.602-3.24 2.708-3.042 3.717 1.927 2.169-.943.079-3.308 4.727.126 1.682 3.46 2.554.958 2.697-1.717 3.924 3.125-1.248 3.084 1.544 2.266h-.021v-.016l-.011.011Zm-5.415 8.543a5.184 5.184 0 0 0 1.439-1.79 5.476 5.476 0 0 0 .539-2.303 6.399 6.399 0 0 0-.486-2.555c-.349-.869-.884-1.727-1.629-2.565a9.623 9.623 0 0 0-1.93-1.644 9.203 9.203 0 0 0-2.158-1.02 7.885 7.885 0 0 0-2.221-.383 6.662 6.662 0 0 0-2.105.272c-.142.047-.296.1-.438.152a3.715 3.715 0 0 0-.418.183c-.132.069-.275.137-.402.22-.127.084-.26.163-.38.262-.096.073-.186.141-.281.22a5.68 5.68 0 0 0-.26.24 6.92 6.92 0 0 0-.476.555c-.67.896-.988 1.932-1.004 3.016-.016 1.084.28 2.214.82 3.277a9.327 9.327 0 0 0 2.326 2.89 9.356 9.356 0 0 0 3.475 1.832 7.88 7.88 0 0 0 1.105.225c.36.047.703.073 1.036.068.339 0 .656-.031.968-.084.312-.052.603-.12.889-.214.148-.053.301-.105.439-.163.137-.062.28-.125.412-.193a4.2 4.2 0 0 0 .386-.23c.122-.084.249-.168.36-.262"/>
</svg>
