<svg id="tnt-Scene-Secrets" xmlns="http://www.w3.org/2000/svg" width="320" height="240" fill="none" viewBox="0 0 320 240">
  <path fill="var(--sapContent_Illustrative_Color8)" d="M127.725 63.295s.093.06.136.094a1.315 1.315 0 0 1-.213-.17c.026.025.043.05.077.068v.008Zm.756.503c-.077-.043-.145-.086-.221-.128.068.042.144.085.221.128Zm.645.323s.026 0 .034.017a.114.114 0 0 1-.051-.017h.017Zm.969.333-.136-.043c.042.017.093.026.136.043Z"/>
  <path fill="var(--sapContent_Illustrative_Color20)" fill-rule="evenodd" d="M320 83v90c0 13.246-10.754 24-24 24H24c-13.246 0-24-10.754-24-24V83c0-13.246 10.754-24 24-24h272c13.246 0 24 10.754 24 24Z" clip-rule="evenodd"/>
  <path fill="var(--sapContent_Illustrative_Color21)" d="m122.155 189.041 71.84-7.37 10.95-1.68.29-.03.92-.09c.59-.06 1.03-.15 1.31-.26.3-.11.44-.25.43-.4 0-.15-.16-.32-.45-.49-.3-.16-.74-.34-1.32-.51l-46.64-13.55c-.55-.16-1.19-.3-1.89-.42-.69-.12-1.44-.22-2.19-.3-.75-.07-1.51-.12-2.24-.14-.72-.02-1.41 0-2.01.04l-5.06.38-.44.03-2.89.22-2.29.17-23.39-6.99c-3.26-.98-7.18-1.85-11.46-2.58-4.28-.74-8.93-1.34-13.7-1.8-4.77-.45-9.63-.75-14.37-.86-4.73-.11-9.32-.05-13.45.24l-2.9.2c-4.18.28-7.51.75-10 1.37-2.49.62-4.09 1.37-4.76 2.23-.67.86-.41 1.81.86 2.8 1.27 1 3.53 2.03 6.85 3.06l23.05 7.14-4.34.33c-.85.06-1.53.17-2.03.3-.46.12-.76.28-.9.45-.03.02-.06.03-.08.05l-.28.16-.65.37s-.09.05-.13.07c-.03.01-.06.03-.09.05l-.08.04s-.04.02-.05.03c-.08.05-.19.11-.28.16l-.43.25-.09.05c-.04.03-.11.06-.16.09l-1 .57s-.02.02-.03.02c-.12.07-.27.16-.39.22-.16.1-.27.2-.31.31-.04.11 0 .22.1.34.1.12.27.24.52.36.24.12.56.25.94.37l43.99 14.03c.68.22 1.49.41 2.37.56.88.16 1.84.28 2.81.37.97.09 1.95.14 2.89.15.94 0 1.83-.02 2.63-.11m-31.62-20.6-23.12-7.11c-1.84-.56-3.09-1.14-3.78-1.69s-.82-1.08-.42-1.56c.39-.48 1.32-.91 2.74-1.26 1.42-.35 3.33-.62 5.72-.79l2.89-.2c2.38-.17 5-.21 7.71-.16 2.7.06 5.49.22 8.22.47 2.73.25 5.37.58 7.81 1 2.44.41 4.64.9 6.46 1.45l23.31 7.02-37.54 2.85v-.02Z"/>
  <path fill="var(--sapContent_Illustrative_Color16)" d="M155.135 25.12c4.51-.27 8.99.38 13.21 1.78 4.22 1.4 8.17 3.54 11.68 6.29 3.51 2.74 6.59 6.06 9.03 9.81 2.44 3.75 4.24 7.96 5.2 12.45l6.96 32.22-14.25 1.25-6.35-32.36c-.53-2.52-1.55-4.88-2.95-6.99-1.4-2.11-3.16-3.97-5.2-5.49a22.692 22.692 0 0 0-6.75-3.49c-2.43-.76-5.01-1.11-7.62-.93l-3.17.22c-2.62.19-5.02.87-7.13 1.97-2.11 1.1-3.92 2.6-5.33 4.41a16.325 16.325 0 0 0-3 6.23c-.55 2.3-.62 4.82-.11 7.4l6.28 32.67-14.84 1.3-6.04-32.78c-.9-4.7-.78-9.23.19-13.4s2.78-7.95 5.28-11.18c2.5-3.23 5.65-5.88 9.34-7.8 3.69-1.92 7.85-3.09 12.42-3.37l3.16-.19-.01-.02Zm74.73 135.58-14.21 4.46-1.04.18 14.17-4.44 1.08-.19v-.01Z"/>
  <path fill="var(--sapContent_Illustrative_Color29)" d="m228.785 160.891-14.17 4.44-83.8 14.47 10.34-3.98 87.63-14.93Z"/>
  <path fill="var(--sapContent_Illustrative_Color28)" d="M233.745 156.43c-.09.73-.3 1.4-.63 2-.32.6-.75 1.11-1.28 1.5-.52.39-1.13.67-1.81.77l-1.08.19-87.86 14.93c-.97.17-1.94.12-2.86-.13-.92-.24-1.78-.67-2.55-1.24a8.126 8.126 0 0 1-1.96-2.16c-.52-.85-.9-1.81-1.09-2.86l-12.07-67.63c-.18-.97-.15-1.92.05-2.79.21-.87.58-1.67 1.09-2.36.51-.69 1.16-1.27 1.92-1.69.76-.43 1.63-.7 2.57-.78l5.37-.47.58-.05 6.91-.61.57-.05 28.2-2.47 32.56-2.85.28-.02 3.03-.26 3.2-.27.49-.04 5.61-.49c.67-.06 1.34.04 1.98.25.65.22 1.25.57 1.8 1.01.55.44 1.03.99 1.42 1.61.39.62.7 1.3.86 2.05l14.56 62.65c.18.79.21 1.57.13 2.29v-.02l.01-.01Z"/>
  <path fill="var(--sapContent_Illustrative_Color16)" d="M138.305 175.69c-.91-.24-1.78-.67-2.55-1.24a8.239 8.239 0 0 1-1.96-2.15c-.52-.85-.9-1.81-1.09-2.86l-12.04-67.63a6.839 6.839 0 0 1 .21-3.35c.17-.51.39-.99.68-1.44.28-.44.62-.84 1-1.2l-.71.66c-.08.08-.17.16-.24.23l-.62.58-1.41 1.31c-.1.09-.2.19-.28.26-.06.05-.12.11-.19.17l-.17.15s-.08.07-.11.1c-.19.18-.41.38-.62.58l-.95.89c-.07.07-.15.14-.21.2-.1.1-.22.21-.34.31l-2.18 2.04-.08.08c-.25.23-.6.56-.85.79-.36.34-.69.72-.96 1.14a6.007 6.007 0 0 0-.96 2.91c-.04.53 0 1.09.08 1.65l11.04 63.96c.17.99.52 1.9 1.01 2.69.49.8 1.12 1.49 1.84 2.03.73.55 1.54.94 2.41 1.17.87.22 1.78.27 2.71.11l10.34-3.99c-.97.17-1.94.11-2.85-.13h.02l.03-.02Z"/>
  <path fill="var(--sapContent_Illustrative_Color3)" d="M121.535 101.8c-.18-.97-.15-1.92.05-2.79.21-.87.58-1.67 1.09-2.36.51-.69 1.16-1.27 1.92-1.69.76-.43 1.63-.7 2.57-.78l5.35-.47.58-.05 6.89-.61.57-.05 28.12-2.47 32.48-2.85.27-.02 3.02-.26 3.19-.27.49-.04 5.59-.49c.67-.06 1.33.04 1.97.25.64.22 1.24.57 1.79 1.01.55.44 1.03.99 1.42 1.61.39.62.69 1.3.86 2.05l14.52 62.65c.18.79.22 1.57.13 2.29s-.3 1.4-.63 2c-.32.6-.75 1.11-1.27 1.5-.52.39-1.13.67-1.81.77l-1.08.19"/>
  <path fill="var(--sapContent_Illustrative_Color27)" d="m166.135 93.651 50-4.65 17.74 67.04-67.75-62.39h.01Z"/>
  <path fill="var(--sapContent_Illustrative_Color29)" d="M206.215 104.38c1.35-.11 2.7.08 4.01.51 1.3.43 2.53 1.1 3.64 1.96 1.12.86 2.11 1.92 2.91 3.12.8 1.21 1.42 2.56 1.79 4l1.52 5.91c.38 1.49.47 2.96.29 4.33s-.61 2.64-1.26 3.76a8.762 8.762 0 0 1-2.59 2.79 8.79 8.79 0 0 1-3.69 1.42l-66.32 9.33s-.08.01-.12.02c-.04.01-.08 0-.12.01h-.12c-.04.01-.08 0-.12.01-1.48.15-2.96-.03-4.36-.46a13 13 0 0 1-3.95-2.03c-1.19-.9-2.26-2.03-3.1-3.3-.84-1.27-1.48-2.71-1.83-4.26l-1.43-6.29a11.52 11.52 0 0 1-.14-4.55c.25-1.43.78-2.77 1.55-3.93a9.4 9.4 0 0 1 2.95-2.87c1.18-.74 2.55-1.23 4.05-1.42l66.04-8.06s.07 0 .1-.01.07 0 .1-.01h.2v.02Z"/>
  <path fill="var(--sapContent_Illustrative_Color8)" d="M204.675 106.071c1.35-.11 2.7.08 4 .51 1.3.43 2.53 1.1 3.64 1.97 1.12.87 2.11 1.92 2.91 3.12.8 1.2 1.42 2.56 1.79 4l1.13 4.49c.38 1.5.46 2.96.29 4.33a9.903 9.903 0 0 1-1.26 3.76 8.681 8.681 0 0 1-2.6 2.79 8.77 8.77 0 0 1-3.7 1.41l-63.52 8.91s-.07.01-.11.01h-.11c-.04.01-.07 0-.11.01h-.11c-1.48.15-2.95-.03-4.36-.46-1.41-.43-2.75-1.13-3.95-2.03a13.73 13.73 0 0 1-3.1-3.3c-.85-1.27-1.48-2.71-1.83-4.26l-1.08-4.74c-.36-1.58-.39-3.11-.15-4.55.25-1.44.78-2.77 1.55-3.93a9.7 9.7 0 0 1 2.94-2.87 9.882 9.882 0 0 1 4.04-1.41l63.26-7.75h.22c.04-.01.07 0 .11-.01.04-.01.07 0 .11 0Z"/>
  <path fill="var(--sapContent_Illustrative_Color30)" d="m152.915 127.791-3.44.95c-.09.02-.11.13-.05.21l2.81 3.13c.28.31.26.77-.06.99l-1.09.72c-.3.2-.74.1-.98-.22l-2.32-3.16c-.06-.09-.19-.09-.22 0l-1.5 3.19c-.15.32-.56.43-.91.24l-1.28-.69c-.37-.21-.53-.67-.33-.99l1.96-3.16c.05-.08 0-.19-.1-.21l-3.64-.86c-.4-.1-.68-.49-.6-.86l.26-1.33c.08-.37.46-.57.85-.42l3.51 1.28c.1.04.18-.03.17-.13l-.65-3.72c-.07-.38.2-.71.59-.71l1.33-.02c.39 0 .74.31.78.7l.37 3.69c0 .1.12.16.2.13l3.11-1.31c.34-.15.77.04.96.4l.64 1.29c.18.37.02.78-.35.88h-.02v-.01Zm17.97-2.701-3.44.95c-.09.02-.11.13-.05.21l2.81 3.13c.28.31.26.77-.06.99l-1.09.72c-.3.2-.74.1-.98-.23l-2.32-3.16c-.06-.09-.19-.09-.23 0l-1.5 3.19c-.15.32-.56.43-.91.24l-1.28-.69c-.37-.21-.53-.67-.33-.99l1.96-3.16c.05-.08 0-.19-.1-.21l-3.64-.86c-.4-.1-.68-.49-.6-.86l.26-1.33c.08-.37.46-.57.85-.42l3.51 1.28c.1.04.18-.03.17-.13l-.65-3.72c-.07-.38.2-.7.59-.7l1.33-.02c.39 0 .74.31.78.69l.37 3.69c0 .1.12.16.19.13l3.11-1.31c.34-.15.77.04.96.4l.64 1.29c.18.37.02.78-.35.88Zm17.22-2.769-3.44.95c-.09.02-.111.13-.051.21l2.811 3.13c.28.31.259.77-.061.99l-1.089.72c-.3.2-.74.1-.98-.22l-2.321-3.16c-.06-.09-.19-.09-.22 0l-1.5 3.19c-.15.32-.559.43-.909.25l-1.28-.69c-.37-.21-.53-.67-.33-.99l1.959-3.16c.05-.08.001-.19-.099-.21l-3.64-.86c-.4-.1-.68-.49-.6-.86l.259-1.33c.08-.37.461-.57.851-.42l3.509 1.28c.1.04.181-.03.171-.13l-.65-3.72a.587.587 0 0 1 .589-.71l1.33-.02c.39 0 .74.31.78.69l.371 3.69c0 .1.12.16.2.13l3.11-1.31c.34-.15.769.04.959.4l.64 1.29c.18.37.021.78-.349.88h-.02v-.01Zm17.69-3.191-3.44.95c-.09.02-.11.13-.05.21l2.81 3.13c.28.31.26.77-.06.99l-1.09.72c-.3.2-.74.1-.98-.22l-2.32-3.16c-.06-.09-.19-.09-.23 0l-1.5 3.19c-.15.32-.56.43-.91.24l-1.28-.69c-.37-.21-.53-.67-.33-.99l1.96-3.16c.05-.08 0-.19-.1-.21l-3.64-.86c-.4-.1-.68-.49-.6-.86l.26-1.33c.08-.37.46-.57.85-.42l3.51 1.28c.1.04.18-.03.17-.13l-.65-3.72c-.07-.38.2-.71.59-.71l1.33-.02c.39 0 .74.31.78.7l.37 3.69c0 .1.12.16.19.13l3.11-1.31c.34-.15.77.04.96.4l.64 1.29c.18.37.02.78-.35.88h-.02l.02-.01Z"/>
  <path fill="var(--sapContent_Illustrative_Color29)" d="M178.685 33.281c-3.47-1.2-6.74-3.31-10.35-4.43-3.61-1.12-7.42-1.81-11.23-1.83-7.51-.04-15.37 2.73-20.46 8.53-3.3 3.76-5.27 8.62-6.11 13.6-1.48 8.75.35 17.59 2.14 26.15 1.28 6.11 2.48 11.95 3.76 18.06-1.52.15-2.97.25-4.49.39-1.13-5.8-2.25-11.29-3.39-17.09-1.17-5.99-2.52-12.01-2.81-18.13-.27-5.79.42-11.72 2.88-16.96 3.97-8.48 12.26-14.17 21.2-15.89 9.86-1.9 21.24.65 28.86 7.62v-.02Z"/>
  <path fill="var(--sapContent_Illustrative_Color29)" d="m186.965 88.92 4.74-.42c-1.54-7.29-3.09-14.46-4.63-21.75-1.62-7.67-2.66-15.84-7.93-22.03-5.27-6.19-12.08-6.5-18.44-5.19 0 0 14.3 1.2 18.01 13.27l8.25 36.12Zm-44.71 3.62c-.23.41-.7.29-1.55.42-2.14-11.68-4.27-23.37-6.41-35.05-.26-1.42-.52-2.85-.6-4.29-.42-7.94 2.83-18.73 10.96-20.66-4.03 4.08-6.86 8.79-7.8 14.75-1.18 7.47.46 14.81 1.72 22.11 0 1.95.72 4.17 1.06 6.1l1.1 6.35 1.1 6.35c.17.97.66 2.33.57 3.31-.03.28-.07.48-.14.62v-.02l-.01.01Z"/>
  <path fill="var(--sapContent_Illustrative_Color8)" d="m193.855 88.31-3.62-17.03c-1.34-5.85-1.9-11.79-3.35-17.47-1.44-5.64-4.05-11.23-9.06-15.08-4.86-3.83-11.51-6.1-18.13-5.45 9.99-1.39 20.4 3.87 25.19 11.74 4.88 7.92 5.52 17.25 7.96 25.76l4.61 17.21-3.6.31v.01Zm-51.58 4.53-4.25-17.97c-1.19-5.93-3.2-11.62-4.21-17.45-1.02-5.78-.87-12 2.33-17.64 3.08-5.57 8.84-9.53 15.54-11.73-10.29 2.94-18.4 11.22-19.69 20.47-1.35 9.32 2.02 18.15 3.29 26.99l2.79 17.7 3.39-.3.72-.07h.09Z"/>
</svg>
