<svg id="tnt-Scene-Help" xmlns="http://www.w3.org/2000/svg" width="320" height="240" fill="none" viewBox="0 0 320 240">
  <g clip-path="url(#a)">
    <path fill="var(--sapContent_Illustrative_Color20)" fill-rule="evenodd" d="M320.5 83v90c0 13.246-10.754 24-24 24h-272c-13.246 0-24-10.754-24-24V83c0-13.246 10.754-24 24-24h272c13.246 0 24 10.754 24 24Z" clip-rule="evenodd"/>
    <path fill="var(--sapContent_Illustrative_Color21)" fill-rule="evenodd" d="m93.448 192.993 133.74-23.88c.83-.15.86-1.32.05-1.53l-83.86-20.89c-1-.25-2.05-.3-3.07-.14l-105.59 16.27c-1.87.29-2.23 2.82-.51 3.62l56.21 26.14c.94.44 2.01.58 3.04.39l-.01.02Z" clip-rule="evenodd"/>
    <path fill="var(--sapContent_Illustrative_Color13)" d="M231.788 45.023c.53-.03 1.07.07 1.57.25s.99.47 1.43.83c.44.36.82.79 1.12 1.27.31.49.54 1.03.68 1.6l2.49 10.83-161.93 9.75-2.09-12.04a4.21 4.21 0 0 1 .06-1.81 3.917 3.917 0 0 1 2.07-2.57c.52-.26 1.11-.42 1.76-.46l152.84-7.65Z"/>
    <path fill="var(--sapContent_Illustrative_Color8)" d="m77.138 69.552 161.92-9.74 20.81 90.49c.14.61.16 1.21.1 1.76-.07.551-.25 1.07-.51 1.52-.27.45-.61.83-1.03 1.11-.42.28-.9.47-1.45.54l-156.56 19.621c-.67.089-1.32.019-1.94-.151a4.764 4.764 0 0 1-1.72-.879c-.51-.4-.96-.881-1.31-1.451-.35-.57-.6-1.199-.71-1.879l-17.59-100.94h-.01Z"/>
    <path fill="var(--sapContent_Illustrative_Color20)" d="M85.848 56.942c.51-.03 1.02.05 1.5.21.49.16.92.41 1.32.72s.73.69 1 1.12c.27.43.46.9.54 1.41.09.5.08.99-.04 1.44-.11.45-.31.86-.59 1.21-.28.35-.63.65-1.04.86-.41.21-.88.34-1.4.37-.51.03-1.02-.05-1.5-.21a4.23 4.23 0 0 1-1.32-.72c-.39-.31-.74-.69-1.01-1.12-.27-.43-.46-.9-.54-1.42-.09-.51-.07-1 .04-1.45.1-.45.31-.87.59-1.21.28-.34.63-.64 1.05-.86.42-.22.88-.34 1.4-.36v.01Z"/>
    <path fill="var(--sapContent_Illustrative_Color14)" d="M100.428 174.854c-.67.08-1.32.02-1.94-.15-.62-.18-1.21-.48-1.72-.88s-.96-.88-1.31-1.46c-.35-.56-.6-1.2-.71-1.88l-17.59-100.93-2.09-12.04c-.06-.3-.08-.61-.07-.9 0-.29.05-.58.11-.86.07-.28.16-.54.28-.79.11-.25.27-.49.43-.7l-2.65 3.45c-.16.22-.3.45-.43.69-.11.25-.21.5-.28.78-.07.28-.1.55-.11.85 0 .29 0 .59.07.89l2.06 11.91 17.29 99.82c.11.68.36 1.3.7 1.86a5.4 5.4 0 0 0 1.29 1.44c.51.39 1.08.68 1.7.87.62.18 1.27.24 1.92.15l155.15-19.6 4.46-2.15-156.56 19.62v.01Z"/>
    <path fill="var(--sapContent_Illustrative_Color9)" d="M193.338 82.112c2.07 1.69 4 3.54 5.76 5.54a47.698 47.698 0 0 1 8.32 13.44c.99 2.44 1.78 4.97 2.34 7.54.41 1.93.69 3.85.82 5.78.13 1.93.16 3.83.02 5.7a38.16 38.16 0 0 1-.78 5.56c-.39 1.82-.92 3.6-1.57 5.32-.66 1.72-1.44 3.37-2.35 4.94-.91 1.57-1.93 3.04-3.05 4.42a29.997 29.997 0 0 1-3.72 3.84 31.825 31.825 0 0 1-4.34 3.18c-1.02.63-2.09 1.2-3.18 1.71-1.1.51-2.22.96-3.36 1.34-1.14.38-2.32.71-3.52.97-1.19.26-2.41.45-3.65.59-.62.07-1.24.12-1.86.15-.62.04-1.25.05-1.88.05-.63 0-1.26-.01-1.9-.05-.63-.04-1.28-.08-1.92-.14-1.92-.19-3.84-.54-5.73-1.03-1.9-.49-3.78-1.11-5.63-1.89-1.85-.78-3.65-1.67-5.4-2.71-1.75-1.04-3.46-2.2-5.09-3.5a45.94 45.94 0 0 1-4.62-4.2c-1.44-1.49-2.8-3.1-4.03-4.77a47.457 47.457 0 0 1-6.02-10.89c-.76-1.94-1.37-3.91-1.85-5.88-.48-1.97-.81-3.97-1-5.95-.19-1.98-.24-3.96-.14-5.92.1-1.96.33-3.89.71-5.78.38-1.89.89-3.72 1.54-5.48.64-1.76 1.43-3.43 2.32-5.03.89-1.6 1.92-3.1 3.06-4.51 1.14-1.41 2.38-2.71 3.73-3.9a30.54 30.54 0 0 1 4.32-3.2c1.53-.94 3.11-1.75 4.76-2.43 1.65-.68 3.36-1.22 5.13-1.63 1.76-.41 3.56-.67 5.41-.79 2.47-.16 4.96-.06 7.43.29 2.47.35 4.92.93 7.33 1.75 2.41.81 4.76 1.85 7.03 3.12 2.28 1.27 4.47 2.74 6.56 4.42v.04-.01Z"/>
    <path fill="var(--sapContent_Illustrative_Color8)" d="M185.318 94.203c.44.52.85 1.06 1.22 1.63.37.57.7 1.16 1 1.79.3.63.56 1.27.78 1.95.22.679.41 1.379.57 2.109.11.51.19 1 .24 1.47.05.47.09.94.1 1.39a11.085 11.085 0 0 1-.22 2.52 13.57 13.57 0 0 1-.66 2.2c-.14.34-.29.66-.45.98-.16.32-.34.61-.53.89s-.4.58-.62.88c-.22.3-.46.611-.72.921-.26.31-.53.639-.81.969-.28.33-.59.67-.91 1.02l-.72.81c-.23.26-.44.51-.64.76s-.39.48-.56.7c-.17.22-.33.44-.48.65-.15.21-.28.42-.41.65-.13.23-.25.451-.36.691-.11.24-.21.489-.31.739s-.18.521-.25.791a7.5 7.5 0 0 0-.24 1.75c0 .31 0 .629.03.96.03.33.07.66.13 1.01l-9.17.859c-.09-.55-.15-1.07-.19-1.59-.04-.52-.06-1.01-.05-1.48.01-.47.04-.94.09-1.38.05-.44.13-.87.24-1.28.1-.41.21-.81.33-1.18.12-.37.25-.73.39-1.07.14-.34.29-.66.44-.96.15-.3.32-.579.5-.849s.37-.541.58-.841c.21-.3.44-.6.7-.93.26-.33.52-.659.81-1.02.29-.36.6-.72.93-1.11.24-.27.46-.529.67-.779.21-.25.4-.491.59-.731.19-.24.35-.46.51-.67.16-.21.3-.42.43-.61.13-.2.26-.4.37-.6.11-.2.22-.42.31-.64.09-.22.18-.45.26-.68.08-.23.15-.47.21-.72s.1-.5.13-.76.04-.52.04-.8-.02-.55-.05-.84a10.277 10.277 0 0 0-.56-2.36c-.17-.46-.38-.9-.62-1.3s-.52-.77-.82-1.11c-.3-.34-.65-.65-1.02-.93s-.77-.52-1.19-.72c-.42-.2-.86-.36-1.32-.48-.46-.12-.94-.2-1.45-.24-.51-.04-1.03-.04-1.58 0-.58.04-1.13.13-1.65.25a8.561 8.561 0 0 0-2.8 1.21c-.41.28-.8.6-1.15.96-.36.36-.7.76-1.01 1.2-.31.44-.61.92-.89 1.44-.28.52-.53 1.08-.76 1.67-.23.59-.45 1.24-.64 1.91l-8.69-3.24c.23-.97.5-1.89.84-2.76.34-.87.72-1.7 1.15-2.49.43-.79.93-1.52 1.47-2.21.54-.69 1.14-1.34 1.79-1.94.65-.6 1.35-1.14 2.12-1.61.77-.47 1.59-.87 2.48-1.21.89-.34 1.83-.61 2.84-.82 1.01-.21 2.07-.35 3.19-.43.87-.06 1.71-.09 2.53-.07.82.02 1.61.07 2.39.16a19.91 19.91 0 0 1 4.37 1.01c.68.24 1.33.52 1.95.84.62.32 1.21.66 1.78 1.04.57.38 1.09.8 1.6 1.24.51.44.98.93 1.42 1.45l-.02-.03Zm-3.99 36.359c.31.23.59.49.85.78.26.29.48.59.68.93.2.34.37.69.51 1.08.14.39.26.79.35 1.23.09.44.14.82.15 1.21.01.39-.01.76-.07 1.11-.06.35-.16.69-.29 1.02-.13.33-.3.63-.51.92-.21.29-.44.55-.7.78-.26.23-.55.43-.86.59-.31.16-.65.3-1.02.41-.37.11-.76.18-1.18.22-.42.04-.86.06-1.27.03-.41-.03-.8-.08-1.17-.17a5.764 5.764 0 0 1-2.07-.97 5.684 5.684 0 0 1-1.53-1.7c-.2-.34-.37-.69-.51-1.08-.14-.39-.26-.8-.35-1.23-.09-.43-.14-.86-.15-1.26-.01-.4 0-.78.07-1.14.07-.36.16-.7.29-1.03.13-.33.3-.63.51-.91a4.329 4.329 0 0 1 1.59-1.35c.32-.16.67-.3 1.05-.4.38-.1.79-.18 1.22-.22.43-.04.84-.05 1.23-.02.39.03.78.09 1.15.19.37.1.72.23 1.06.39.34.16.66.37.97.6v-.01Z"/>
  </g>
  <defs>
    <clipPath id="a">
      <path fill="var(--sapContent_Illustrative_Color8)" d="M0 0h320v240H0z"/>
    </clipPath>
  </defs>
</svg>
