<svg id="tnt-Scene-ChartOrg" xmlns="http://www.w3.org/2000/svg" width="320" height="240" fill="none" viewBox="0 0 320 240">
  <rect width="320" height="138" y="59" fill="var(--sapContent_Illustrative_Color20)" rx="24"/>
  <path fill="var(--sapContent_Illustrative_Color21)" fill-rule="evenodd" d="m107.816 192.85 147.171-26.279c.916-.165.949-1.457.055-1.678l-92.284-22.988a8.512 8.512 0 0 0-3.379-.155L43.18 159.66c-2.054.32-2.451 3.102-.563 3.986l61.854 28.762a5.525 5.525 0 0 0 3.345.431v.011Z" clip-rule="evenodd"/>
  <path fill="var(--sapContent_Illustrative_Color8)" d="m67.31 61.77 170.092-10.23 21.857 95.05c.15.639.17 1.268.1 1.848a4.093 4.093 0 0 1-.54 1.598c-.28.47-.639.869-1.079 1.169-.44.3-.95.5-1.519.57l-164.455 20.61c-.7.09-1.389.02-2.038-.16a5.252 5.252 0 0 1-1.81-.919 5.774 5.774 0 0 1-1.379-1.529 5.444 5.444 0 0 1-.75-1.978L67.312 61.771Z"/>
  <path fill="var(--sapContent_Illustrative_Color13)" d="M229.757 36.005c.56-.03 1.12.07 1.649.26.53.19 1.04.49 1.5.87a5.613 5.613 0 0 1 1.888 3.016l2.619 11.38L67.312 61.77l-2.199-12.648a4.46 4.46 0 0 1 .06-1.898c.15-.59.42-1.13.79-1.589.37-.46.84-.84 1.389-1.109.55-.27 1.17-.44 1.849-.48l160.556-8.042ZM77.826 56.235c.54-.03 1.04-.169 1.469-.389.43-.22.8-.53 1.09-.899.289-.37.499-.8.619-1.269.12-.47.13-.979.04-1.508a4.101 4.101 0 0 0-.57-1.479 4.73 4.73 0 0 0-1.05-1.179 4.558 4.558 0 0 0-1.388-.759c-.5-.17-1.04-.25-1.58-.22s-1.029.16-1.469.38c-.44.22-.8.53-1.099.899-.3.37-.51.8-.62 1.269-.11.47-.14.989-.04 1.518.1.53.29 1.04.57 1.489a4.71 4.71 0 0 0 2.449 1.938 4.2 4.2 0 0 0 1.579.22"/>
  <path fill="var(--sapContent_Illustrative_Color14)" d="M91.767 172.374c-.7.09-1.39.02-2.04-.159a5.44 5.44 0 0 1-1.808-.92 5.77 5.77 0 0 1-1.38-1.528 5.392 5.392 0 0 1-.749-1.978L67.311 61.77l-2.199-12.648c-.06-.32-.08-.64-.07-.949 0-.31.05-.61.12-.899.07-.29.17-.57.29-.83.12-.259.28-.509.45-.738l-2.789 3.626c-.17.23-.32.47-.45.73a4.337 4.337 0 0 0-.41 1.708c0 .31.01.62.07.939l2.17 12.508 18.16 104.86c.119.709.379 1.368.739 1.958.36.589.83 1.099 1.359 1.508.54.41 1.14.72 1.789.909.65.19 1.329.25 2.019.16l162.975-20.59 4.687-2.258-164.454 20.61Z"/>
  <path fill="var(--sapContent_Illustrative_Color2)" d="M76.457 48.523c.54-.03 1.069.05 1.579.22.51.17.97.43 1.389.76.42.329.77.728 1.05 1.178.28.45.479.95.569 1.479.09.53.08 1.039-.04 1.508-.12.47-.33.9-.62 1.269-.29.37-.66.68-1.089.9-.43.219-.93.359-1.47.389a4.23 4.23 0 0 1-1.578-.22c-.51-.17-.98-.43-1.39-.76a4.761 4.761 0 0 1-1.059-1.178c-.28-.45-.48-.95-.57-1.489a3.85 3.85 0 0 1 .04-1.518c.11-.47.33-.91.62-1.269a3.415 3.415 0 0 1 2.569-1.279v.01Z"/>
  <path fill="var(--sapContent_Illustrative_Color13)" fill-rule="evenodd" d="M212.185 112.939c6.943-.028 13.445 5.699 14.939 13.404 1.59 8.229-3.127 15.629-10.555 16.528-.152.013-.29.028-.428.041h-.138c-.069 0-.139 0-.208.014h-1.549c-.069 0-.153 0-.222-.014h-.11c-.083 0-.166-.013-.249-.027h-.082c-.097 0-.18-.028-.277-.041-.166-.028-.278-.042-.374-.056-6.072-1.037-11.396-6.335-12.725-13.222-.912-4.731.263-9.186 2.822-12.284a12.13 12.13 0 0 1 2.738-2.448 11.647 11.647 0 0 1 5.063-1.798c.11 0 .222-.028.332-.028.346-.028.691-.041 1.023-.041v-.028Z" clip-rule="evenodd"/>
  <path fill="var(--sapContent_Illustrative_Color8)" d="M211.828 117.516c2.476-.221 4.869 1.785 5.408 4.524.51 2.693-.967 5.127-3.348 5.541l-.247.019a.502.502 0 0 1-.138.014c-2.462.222-4.856-1.771-5.395-4.51-.525-2.807 1.065-5.297 3.596-5.588h.124Zm5.366 13.141c2.268-.208 4.523.72 6.224 2.393l.026.014c-1.203 3.333-3.97 5.768-7.552 6.21-.111.014-.208.028-.319.028-3.486.304-6.901-1.356-9.253-4.15l-.017-.02c1.039-2.078 2.945-3.521 5.303-3.811l5.366-.636c.07-.014.153-.028.222-.028Z"/>
  <path fill="var(--sapContent_Illustrative_Color15)" fill-rule="evenodd" d="M159.238 65.661c7.29-.235 14.219 5.7 15.754 13.68 1.605 8.313-3.236 15.713-10.83 16.543-.096 0-.179.013-.276.027h-.181c-7.469.553-14.716-5.477-16.279-13.665-1.618-8.355 3.306-15.769 10.928-16.543.055 0 .124 0 .179-.014.235-.013.47-.041.705-.041v.013Z" clip-rule="evenodd"/>
  <path fill="var(--sapContent_Illustrative_Color8)" d="M161.134 80.49c-2.545.22-5.021-1.84-5.575-4.62-.539-2.808 1.107-5.326 3.68-5.589h.055c2.559-.22 5.049 1.826 5.588 4.62.539 2.808-1.107 5.312-3.679 5.588h-.083.014Zm3.608 3.084c2.351-.207 4.689.76 6.46 2.49-1.245 3.333-4.067 5.768-7.746 6.155-.069 0-.139 0-.194.014-3.596.318-7.151-1.397-9.572-4.274 1.065-2.089 3.03-3.541 5.436-3.79l5.492-.595h.138-.014Z"/>
  <path fill="var(--sapContent_Illustrative_Color14)" fill-rule="evenodd" d="M170.468 117.835c6.833.318 13.086 5.976 14.539 13.528l-.015-.014c.733 3.776.125 7.387-1.466 10.292-1.909 3.457-5.215 5.905-9.336 6.417-.152.014-.291.042-.443.042h-.125c-.096.014-.166.013-.221.013h-1.605c-.082-.013-.151-.013-.22-.013h-.139c-.083-.014-.152-.028-.235-.028h-.111c-.083 0-.166-.027-.248-.027h-.098l-.277-.042c-.179-.028-.276-.055-.386-.069-6.058-1.204-11.301-6.46-12.615-13.293-1.438-7.497 2.337-14.288 8.617-16.252a13.464 13.464 0 0 1 2.296-.484c.124 0 .235-.028.346-.028a9.96 9.96 0 0 1 .913-.042c.276-.014.553 0 .829 0Z" clip-rule="evenodd"/>
  <path fill="var(--sapContent_Illustrative_Color8)" d="M173.498 144.433c-.111 0-.208.028-.319.028-3.554.304-7.04-1.355-9.433-4.177 1.065-2.116 3.015-3.583 5.436-3.873l5.477-.664c.083 0 .153-.014.236-.028 2.309-.207 4.619.733 6.362 2.421-1.245 3.361-4.066 5.837-7.732 6.28l-.027.013Zm-2.392-11.743c-2.517.221-4.965-1.798-5.491-4.565-.539-2.821 1.107-5.352 3.679-5.643.042 0 .097 0 .139-.014 2.517-.221 4.965 1.798 5.491 4.565.553 2.808-1.107 5.339-3.666 5.643-.041 0-.096 0-.138.014h-.014Z"/>
  <path fill="var(--sapContent_Illustrative_Color13)" fill-rule="evenodd" d="M126.484 122.815c7.234-.042 13.997 5.795 15.505 13.665 1.619 8.396-3.333 15.976-11.079 16.931-.152.014-.304.041-.47.055-.124 0-.236.013-.36.027-7.483.456-14.647-5.49-16.224-13.651-1.619-8.451 3.389-16.031 11.176-16.93.124-.014.249-.028.359-.042.36-.028.72-.041 1.066-.055h.027Z" clip-rule="evenodd"/>
  <path fill="var(--sapContent_Illustrative_Color20)" d="m172.958 90.517 32.809 24.303a11.822 11.822 0 0 0-2.739 2.448l-32.491-24.054a12.291 12.291 0 0 0 2.435-2.71l-.014.013Z"/>
  <path fill="var(--sapContent_Illustrative_Color8)" d="M126.071 127.505c2.586-.222 5.076 1.812 5.615 4.619.539 2.836-1.134 5.395-3.762 5.713-.041.013-.095.013-.136.013h-.002c-2.572.222-5.063-1.812-5.603-4.606-.522-2.774 1.046-5.248 3.534-5.689l.23-.05h.124Zm3.788 22.255c-3.623.318-7.179-1.356-9.613-4.205l.001-.029c1.093-2.13 3.098-3.637 5.56-3.928v-.013l5.588-.665c.083-.014.153-.027.235-.027 2.366-.207 4.718.733 6.488 2.434l-.001.042c-1.273 3.402-4.164 5.892-7.912 6.349-.11.014-.235.041-.346.042Z"/>
  <path fill="var(--sapContent_Illustrative_Color20)" d="M161.769 95.911c.636.042 1.286.042 1.922 0h.18c.097 0 .194-.014.277-.027.415-.042.83-.111 1.231-.194l4.26 22.131c-.304 0-.609.014-.913.041-.111 0-.221.028-.346.028-.802.097-1.563.263-2.296.484l-4.329-22.463h.014Zm-8.507-3.609a16.197 16.197 0 0 0 3.319 2.186l-22.532 30.485a14.73 14.73 0 0 0-3.748-1.632l22.961-31.039Z"/>
</svg>
