<svg id="tnt-Dialog-ChartArea" xmlns="http://www.w3.org/2000/svg" width="160" height="160" fill="none" viewBox="0 0 160 160">
  <rect width="160" height="69" y="50" fill="var(--sapContent_Illustrative_Color20)" rx="12"/>
  <path fill="var(--sapContent_Illustrative_Color21)" fill-rule="evenodd" d="m54.034 114.579 75.414-13.466c.47-.085.487-.747.029-.86l-47.29-11.78a4.354 4.354 0 0 0-1.73-.08l-59.544 9.178c-1.053.164-1.256 1.59-.289 2.043l31.696 14.738a2.837 2.837 0 0 0 1.714.221v.006Z" clip-rule="evenodd"/>
  <path fill="var(--sapContent_Illustrative_Color13)" d="M115.083 36.003c.282-.015.564.035.83.13.267.096.524.247.755.438a2.823 2.823 0 0 1 .951 1.518l1.317 5.727-85.61 5.154-1.106-6.365a2.247 2.247 0 0 1 .03-.956 2.057 2.057 0 0 1 1.097-1.358c.276-.135.588-.22.93-.24l80.806-4.048ZM38.618 46.184a1.85 1.85 0 0 0 .74-.196 1.65 1.65 0 0 0 .548-.452 1.722 1.722 0 0 0 .332-1.398 2.063 2.063 0 0 0-.287-.744 2.31 2.31 0 0 0-1.227-.975 2.117 2.117 0 0 0-.795-.111 1.87 1.87 0 0 0-.74.19 1.673 1.673 0 0 0-.865 1.092 1.85 1.85 0 0 0-.02.764 2.188 2.188 0 0 0 .82 1.343c.211.166.448.296.7.382.25.085.522.126.794.11"/>
  <path fill="var(--sapContent_Illustrative_Color14)" d="M45.633 104.635c-.352.045-.7.01-1.026-.081a2.729 2.729 0 0 1-.91-.462 2.902 2.902 0 0 1-.695-.77 2.702 2.702 0 0 1-.377-.995l-9.3-53.358-1.107-6.366a2.21 2.21 0 0 1-.035-.477c0-.156.025-.307.06-.453a2.27 2.27 0 0 1 .146-.417c.06-.13.14-.257.226-.372l-1.403 1.825a2.48 2.48 0 0 0-.227.367 2.173 2.173 0 0 0-.171 1.332l1.092 6.296 9.14 52.774a2.786 2.786 0 0 0 1.056 1.745c.271.206.573.362.9.458a2.48 2.48 0 0 0 1.016.08l82.024-10.363 2.359-1.136-82.768 10.373Z"/>
  <path fill="var(--sapContent_Illustrative_Color2)" d="M37.928 42.303a2.13 2.13 0 0 1 .795.11 2.324 2.324 0 0 1 1.227.976c.14.226.241.478.287.744a1.721 1.721 0 0 1-.332 1.398 1.655 1.655 0 0 1-.549.453 1.87 1.87 0 0 1-.739.196 2.13 2.13 0 0 1-.795-.11 2.251 2.251 0 0 1-.7-.383 2.397 2.397 0 0 1-.532-.593 2.055 2.055 0 0 1-.287-.75 1.94 1.94 0 0 1 .02-.764c.055-.236.166-.457.312-.639a1.714 1.714 0 0 1 1.293-.644v.006Z"/>
  <path fill="var(--sapContent_Illustrative_Color8)" d="m33.325 48.97 85.605-5.149 11.001 47.837c.075.322.085.639.05.93a2.057 2.057 0 0 1-.272.805 1.852 1.852 0 0 1-.543.588 1.713 1.713 0 0 1-.764.287l-82.768 10.373a2.639 2.639 0 0 1-1.936-.543 2.915 2.915 0 0 1-.695-.769 2.75 2.75 0 0 1-.377-.996l-9.3-53.363Z"/>
  <path fill="var(--sapContent_Illustrative_Color14)" d="M110.484 58.732c.365-.033.758.094 1.085.382.637.57.792 1.545.349 2.182l-2.448 3.495-8.911 12.738a3.314 3.314 0 0 1-.61.665 3.26 3.26 0 0 1-1.727.742l-23.107 2.725a.833.833 0 0 0-.393.15L60.344 92.007l-.122.088-1.584 1.125c-.2.138-.426.216-.653.238-.543.05-1.114-.222-1.468-.748-.504-.753-.371-1.744.293-2.215l2.736-1.933.122-.089 9.416-6.651 3.843-2.714a3.404 3.404 0 0 1 1.584-.604l23.118-2.68a.828.828 0 0 0 .581-.35l9.156-13.054 1.296-1.85.936-1.334a1.2 1.2 0 0 1 .88-.515l.006.01Z"/>
  <path fill="var(--sapContent_Illustrative_Color23)" d="M108.369 52.136c.493-.044 1.025.205 1.363.698.504.714.421 1.672-.177 2.138l-1.723 1.34-8.64 6.718-.415.321c-.31.244-.66.427-1.036.543l-23.516 7.233a.984.984 0 0 0-.244.117l-15.53 10.95-.122.088-2.58 1.822c-.2.138-.422.216-.654.233-.543.05-1.119-.222-1.473-.754-.51-.753-.383-1.744.288-2.215l3.738-2.625.122-.089 14.41-10.113c.294-.205.615-.366.953-.465l11.298-3.45 12.24-3.74a.747.747 0 0 0 .255-.132l10.224-7.92.576-.449c.188-.144.404-.227.626-.244l.016-.005Z"/>
</svg>
