<svg id="tnt-Scene-Avatar" xmlns="http://www.w3.org/2000/svg" width="320" height="240" fill="none" viewBox="0 0 320 240">
  <rect width="320" height="138" y="59" fill="var(--sapContent_Illustrative_Color20)" rx="24"/>
  <path fill="var(--sapContent_Illustrative_Color24)" d="M232.411 50.113c-6.869-2.566-8.746-.53-11.662 0-2.562 36.753-6.352 111.065 2.16 112.11 10.993 1.349 12.885 2.59 20.287-.9 1.933-.911 2.449-11.342 3.548-19.637.997-7.524 6.341-60.828 6.871-67.189.53-6.361 1.088-14.4-5.36-17.208-3.985-1.736-12.732-6.014-15.844-7.176Z"/>
  <path fill="var(--sapContent_Illustrative_Color1)" d="M242.125 63.835c-1.061-1.485-16.242-10.039-24.9-10.834-4.417 33.573-13.067 105.411-11.583 106.047 1.855.795 27.035 5.036 30.215 4.506 3.181-.53 1.856-8.747 3.976-18.289 2.121-9.541 7.421-57.515 8.217-60.696.795-3.18-4.6-18.879-5.925-20.734Z"/>
  <path fill="var(--sapContent_Illustrative_Color8)" d="M119.229 150.187c-.131-.983 2.075-4.723 3.194-6.47l13.348 6.47c.028.764-.327 2.62-1.965 3.931 1.147 1.556 0 6.142 0 6.879 0 .737-.409 2.702 0 5.241.41 2.538-.737 5.323-1.146 5.568-.41.246-1.966-.491-2.457-1.392-.492-.901-.901-4.34-1.72-4.995-.819-.655-1.556.901-2.375 1.31-.819.409-1.801 3.194-2.211 5.651-.409 2.456-.082 2.456-1.474 4.995-.786 0-1.747-1.147-2.129-1.72-.109.355-.475 1.196-1.065 1.72-.901-.164-1.638-.901-2.211-2.539-.491-.327-1.146-1.392-1.638-2.456-.491-1.065-.082-6.142 0-7.453.082-1.31.983-2.866 1.147-5.896.164-3.03 1.801-4.013 2.702-4.913.901-.901.164-2.703 0-3.931Z"/>
  <path fill="var(--sapContent_Illustrative_Color8)" d="M145.189 105.883c.59-1.507 2.156-4.176 2.866-5.323l4.422 4.914 19.736 12.611c-3.112.218-9.483.868-10.072 1.72-.737 1.064-4.996 3.603-5.897 5.323-.9 1.719-7.042 9.09-8.598 11.874-1.556 2.784-5.323 5.978-7.289 7.043.983.819-.655 4.995-.982 6.142-.328 1.146-2.703 1.474-3.604 2.784.066-1.769-9.636-6.688-14.495-8.926 2.211-4.177 6.716-12.89 7.043-14.331.41-1.802 4.258-6.06 5.077-7.944.819-1.883 3.522-.655 5.323-5.65 1.802-4.996 5.733-8.353 6.47-10.237Z"/>
  <path fill="var(--sapContent_Illustrative_Color8)" d="M165.485 80.23c3.342-2.452 11.421-3.622 15.042-3.9 53.484-9.194 40.809 1.114 44.013 1.67 3.203.558 1.114 6.268 3.76 8.497 2.646 2.228 3.621 1.95 8.636 4.596 4.011 2.117-5.85 24.096-11.282 34.82-1.764 9.657-4.875 29.555-3.204 31.895 2.09 2.925-1.532 4.457 0 7.8s-.975 3.064 0 4.875.418 3.203-.975 5.014c2.117 1.671.882 5.803 0 7.66-1.253-1.532-4.847-4.707-9.192-5.153-5.432-.557-16.435 1.114-21.589 3.064-4.122 1.56-7.103 5.386-8.078 7.104-1.068-1.115-4.123-3.956-7.8-6.407-4.596-3.065-15.738-14.486-16.853-19.5-1.114-5.014 3.343-10.167 5.711-15.042-2.646-.975-.696-3.339 0-6.264-3.902-5.604-1.234-7.039-1.373-10.382-.14-3.343 4.159-13.299 4.019-14.274-.139-.975-5.432-1.672-8.357-3.064-2.924-1.393-7.242-7.522-10.585-12.118-3.343-4.596-.418-5.292.836-7.939 1.253-2.646 13.092-9.889 17.271-12.953Z"/>
  <path fill="var(--sapContent_Illustrative_Color25)" d="M168.641 77.708c1.48-1.645 5.086-1.55 7.073-.865l.925-1.75c1.165.547 2.898 1.093 5.365 4.054 3.084 3.7 11.102 6.168 6.373 6.168-4.728 0 5.346 4.728 1.851 4.728-13.589 0-17.284 1.65-17.681 6.269-.201 2.335 24.054 5.039 29.399 7.506 4.277 1.973 1.782 4.797 0 8.84-1.165 1.645-3.536 5.181-3.7 6.168-.206 1.233 8.743 9.994-9.869 5.551-23.273-5.556-11.924 2.056-15.83 4.934-3.125 2.303-10.326 4.061-8.153 12.39-3.596-4.406-1.841-10.084-1.512-13.538.329-3.454 2.137-6.253 3.165-9.337-2.233-.461-4.911 1.638-6.063 2.789-1.151 1.152-10.318 11.47-13.903 17.891 1.987-3.906 5.517-13.795 9.065-16.491 2.644-2.01 3.832-3.984 3.832-5.423s1.723-2.515 0-3.906c-4.002-3.229 3.833-9.017 2.676-12.103-2.636-7.028 8.873-8.545 8.873-10.806 0-2.262-5.587-4.64-7.232-5.462-1.315-.658-1.65-1.052-2.426-1.906 1.677-1.925 6.292-4.056 7.772-5.701Z"/>
  <path fill="var(--sapContent_Illustrative_Color24)" d="M168.77 77.516c-.837.605-1.148 1.037-2.271 1.87 1.212 2.955 7.473 5.427 11.135 7.444 2.286 1.26 10.475 4.356 13.937 2.925l-13.254-12.372c-1.181-.33-3.858-1.046-5.114-1.278-1.569-.291-3.387.656-4.433 1.411Z"/>
  <path fill="var(--sapContent_Illustrative_Color8)" d="M224.659 125.987c-1.292-.775-4.397-1.383-5.728-2.574-3.048-4.73-2.805-10.1 0-17.236 2.417-6.148 7.252-7.567 16.132-9.458 8.881-1.892 19.433 12.663 20.389 13.767 1.681 1.943 4.203 5.412 4.256 8.985.052 3.574-.788 6.096-4.624 9.932-4.244 4.243-11.35 3.31-15.449 2.627-4.099-.683-6.674-1.261-8.198-2.049-1.523-.788-4.414-2.575-6.778-3.994Zm-54.209-8.674.899-19.236 32.31 7.218-1.97 19.33-31.239-7.312Z"/>
  <path fill="var(--sapContent_Illustrative_Color24)" d="m171.36 98.077 6.219-3.08 30.56 6.199-4.463 4.091-32.316-7.21Z"/>
  <path fill="var(--sapContent_Illustrative_Color1)" d="m204.945 120.555-3.253 4.072 1.97-19.337 4.465-4.098-3.182 19.363Zm-31.94-19.368 27.916 6.058-.691 6.567-27.57-7.006.345-5.619Z"/>
  <path fill="var(--sapContent_Illustrative_Color8)" d="M175.545 73.817c0-1.568 2.068-6.497 2.82-8.494 5.865-5.445 15.453-2.396 29.215.762 10.344 2.374 15.453 5.336 17.596 8.712 2.143 3.376-1.822 6.582-4.173 8.386-4.4 3.376-15.792 6.752-24.703 6.86-8.911.11-14.472-4.052-17.935-6.86-3.118-2.529-2.82-7.405-2.82-9.366Z"/>
  <path fill="var(--sapContent_Illustrative_Color25)" d="M175.895 75.798c-1.228-1.929.842-6.447 1.646-7.981 3.617-10.742 39.928.471 43.107 1.13 3.178.657 5.809 3.507 0 8.987s-21.703 6.577-29.046 5.919c-7.344-.658-14.173-5.643-15.707-8.055Z"/>
  <path fill="var(--sapContent_Illustrative_Color8)" d="M234.696 100.184c1.261-2.312 3.048-2.364 5.938-3.1 9.616-.998 15.324 1.389 18.023 3.1 3.731 2.366 1.314 4.835 1.787 7.305.378 1.975-.578 4.396-1.104 5.359.158 1.594.064 5.697-1.576 9.354-2.049 4.571-7.409 6.043-11.35 5.938-3.941-.105-8.513-4.835-10.089-6.411-1.261-1.261-1.191-3.538-.999-4.519.053-1.489.126-4.509 0-4.677-.157-.21-2.364-3.468-2.522-5.044-.212-2.118.631-4.992 1.892-7.305Zm-81.704 68.365c.856-2.57 3.406-3.796 4.574-4.089.26.682 1.266 2.882 3.212 6.23 1.947 3.348 13.53 12.426 19.078 16.547l6.229 9.052c-1.914 2.466-5.84 7.767-6.229 9.247-.487 1.849-1.752 1.849-1.46 2.823.234.778-.552 3.569-.973 4.672h-31.148c.292-1.915.701-6.561 0-8.274-.7-1.713 1.201-5.71 2.239-7.495-.454-1.395-1.363-4.419-1.363-5.353 0-.934.909-4.737 1.363-6.521-.13-1.168-.311-3.894 0-5.451.389-1.947 2.726-.974 2.92-1.46.195-.487.487-6.716 1.558-9.928Z"/>
  <path fill="var(--sapContent_Illustrative_Color8)" d="M237.602 73.89c2.767 0 4.422 4.366 5.684 6.938.561 0 2.048-.981 2.722-2.216.841-1.543 2.16-3.422 3.563-6.79 1.403-3.367 3.649-6.677 5.723-6.317 4.068.705-.295 6-.856 9.507 1.263-2.947 3.227-6.454 5.191-7.156 1.964-.701 3.156.71 3.156 2.254 0 1.235-1.859 5.733-3.816 9.532.795-1.544 2.777-4.482 4.012-5.38 1.543-1.122 3.198-1.235 4.321.59.893 1.452-3.286 7.519-5.261 10.48.762-1.135 1.576-1.651 3.184-2.317 2.494-1.031 3.62.085 3.816 1.936.164 1.55-4.454 6.803-7.027 9.001-.233.749-.772 2.165-2.119 3.736-.281 5.893-4.755 8.891-7.982 9.452-3.227.562-11.853-3.812-13.817-6.197-1.964-2.385-.494-3.904-.494-6.99-2.946-6.735-.207-7.992-.207-8.974 0-.982-.635-4.496-1.476-7.021-.842-2.525-.326-4.069 1.683-4.069ZM221.71 187.529c-.078-.779-1.135-3.894-1.654-5.354-1.655-1.071-7.787-2.628-16.547-3.115-8.76-.486-18.494 7.106-19.37 8.469-.876 1.363-1.557 4.964-1.557 5.45 0 .487.778 3.796 0 4.478-.779.681 0 2.822 0 3.699 0 .876-.779 2.433-1.558 3.504-.778 1.07-.194 2.725 0 3.309.156.467.975 3.637 1.43 5.064h33.386c.584-2.758 1.977-8.665 2.366-9.444.487-.973 1.168-3.894 1.85-5.062.681-1.168 0-4.574 1.654-6.034 1.655-1.46.098-3.991 0-4.964Z"/>
  <path fill="var(--sapContent_Illustrative_Color25)" d="m216.81 213.054 3.225-13.937c1.601-8.756-.366-4.194-.624-3.332-.633 2.113-.671 4.589-8.591 4.369-4.146-.115 1.267 1.958 4.147 2.188 2.88.231 3.024 3.002 2.218 4.845s-4.006-2.099-7.478-.49c-2.777 1.287 2.035 1.437 1.113 3.51-.737 1.659-5.567 2.54-7.141 2.847h13.131Z"/>
  <path fill="var(--sapContent_Illustrative_Color22)" d="M216.551 181.715c3.992.589 4.936 3.3 4.909 4.581.736-.981.736-2.781.654-4.008-.082-1.228-2.091-2.414-4.091-3.355-2.781-1.309-12.143-1.714-17.344-1.063-7.2.9-11.536 4.008-14.4 5.808-2.863 1.8-4.09 3.682-4.254 4.5-.131.655.436 1.282.736 2.291 1.964-2.318 7.266-5.956 12.763-8.181 6.97-2.821 16.036-1.309 21.027-.573Z"/>
  <path fill="var(--sapContent_Illustrative_Color25)" d="M217.365 140.616c.329 7.237 3.59 10.197 4.823 10.608l3.401-23.972c7.318 4.819 8.676 3.372 12.952 5.346 5.346 2.467 13.481-.55 16.77-2.812 2.632-1.809 5.536-8.496 4.2-11.991-.137-1.987.707-6.052-.773-5.229-1.85 1.028-14.851 2.145-9.917 2.145 4.934 0 7.896 5.346 4.118 8.134-1.525 1.126-7.819.296-11.725-1.555-3.906-1.85-4.177-9.457-8.307-14.086-2.142-2.402 4.042 5.657 1.582 10.591-1.028 2.061 1.581 6.54 1.581 7.774-3.632-.069-12.784-4.69-14.593-5.512-2.261-1.028-3.594-2.259-3.594-8.221s11.391-13.575 8.698-12.537c-1.994.769-9.216 3.283-11.066 12.534-1.85 9.252 3.084 11.513 4.523 13.158 1.439 1.645-3.084 6.579-2.673 15.625Z"/>
  <path fill="var(--sapContent_Illustrative_Color24)" d="M227.634 117.511c-2.431-3.125-.405-12.951 3.796-13.607-5.788 0-6.366 9.984-6.366 12.443 0 2.46.723 6.946-3.907 3.184-4.63-3.762 1.736-17.43 0-14.971-9.724 13.776-4.341 15.984-3.328 18.733.81 2.199 5.161 3.714 7.235 4.196.771.337 8.276 4.319 14.226 5.509 8.915 1.783 5.041-1.35-.675-5.509-1.142-.831-5.3-7.048-4.141-9.524-1.206-1.109-4.409 2.672-6.84-.454Z"/>
  <path fill="var(--sapContent_Illustrative_Color25)" d="M225.402 78.884c-.658 1.645-7.323 8.25-26.543 10.542 7.788 2.492 20.286-3.245 23.165-3.999-.206.686.687 2.56 3.976 1.738 4.112-1.028-3.789 9.347-4.587 10.394-1.279 1.678 8.661-7.653 12.087-8.133l-5.65-3.29c-.342-3.151-1.79-8.897-2.448-7.252Zm-90.552 66.51c-2.297.354-10.051-1.193-10.973-1.473-.922-.279-2.585.139-2.585.139 4.508 2.008 17.525 7.129 18.056 6.245.662-1.105 1.822-5.715 1.099-6.384-.705-.652-2.725 1.031-5.597 1.473Z"/>
  <path fill="var(--sapContent_Illustrative_Color24)" d="M130.551 152.843c4.191-3.429-2.42-4.583-4.597-6.833 3.032.515 7.49 1.066 9.793 2.053 2.878 1.234 3.159-.614 4.75-1.578-.463 5.183-3.243 5.598-4.75 6.488l-1.918 1.167c1.406 1.682-.202 6.572.273 10.74.442 3.881-.472 7.695-1.705 7.078-1.234-.616.377-7.083 0-9.313-.771-4.547-3.455-4.434-4.874-8.083-.527-1.355 1.746-.669 3.028-1.719Z"/>
  <path fill="var(--sapContent_Illustrative_Color25)" d="M192.756 155.792c-5.139 0-14.876-.667-25.567-2.723-1.522-.293-3.091-5.807-4.51-3.816-2.343 3.289-3.358 4.729-4.523 8.018-1.246 6.077-.658 13.528 0 17.475.823 4.934 8.429 5.757 14.597 9.663 6.168 3.906-2.056 0-7.196-1.439-5.139-1.439-3.083 0-1.85 1.439 1.234 1.439 7.26 3.208 7.26 6.703s-6.232 1.726-7.26 3.371c-1.028 1.644 6.046 1.424 10.775 4.097 4.728 2.672 4.08 5.154 8.603-4.097 2.467-8.553-4.781-10.28-8.07-11.513-6.99-2.622-7.278-9.869-8.43-16.447-1.439-8.224 15.625 7.812 17.681 3.289 2.056-4.523-4.728-7.196-9.251-10.279-4.523-3.084 3.816-2.262 12.335-2.262 8.481 0 10.546-1.479 5.406-1.479Zm-27.396 48.544c1.45.245 6.64 1.226 9.041 1.839 2.626.636 1.975 4.975 1.29 6.856h-29.855c.692-4.418-.199-7.929-.352-8.695-.153-.766.868-4.986 2.712-6.513.36-.298-.787-7.115 0-5.8 3.473 5.8 3.13 7.594 2.366 8.407-1.561 1.662-2.979 3.906-2.366 5.745.491 1.471 17.973 2.764 15.631 1.532l-6.589-3.371c-2.498-1.137 4.759-.569 8.122 0Z"/>
  <path fill="var(--sapContent_Illustrative_Color25)" d="M189.593 201.082c-4.605 1.315 1.07 9.207 2.372 11.948h-8.698c.411-2.878-.646-5.075-.646-6.062 0-1.234 6.579-8.979 3.084-11.034-2.796-1.645-2.981-4.159-2.433-6.421 0 0 9.131-7.295 14.357-7.971 5.227-.675-8.799 6.908-10.279 9.869-1.851 3.7 16.241 1.233 17.68 1.644 2.516.719-6.373.823-13.98 4.934-7.607 4.112 4.36-3.348 12.541 0 4.98 2.038-8.241 1.448-13.998 3.093Z"/>
  <path fill="var(--sapContent_Illustrative_Color24)" d="M150.343 110.809c-.663-1.486-1.643-5.783-1.78-7.908 2.811 4.13 9.182 9.896 13.088 12.226l-3.701 4.728c-2.056-2.535-6.312-6.146-7.607-9.046Z"/>
  <path fill="var(--sapContent_Illustrative_Color25)" d="M242.923 88.932c.165-1.316.264-7.556.879-6.063 2.196 6.502 2.805.552 11.07 8.817 5.447 5.448-8.028 3.833-9.752 7.813-2.197 5.072 9.711 7.618 5.757 7.618-4.703 0-13.76-5.118-14.28-8.345-.196-1.218 2.636-.967 0-8.698-.547-1.605 6.121.502 6.326-1.142Z"/>
  <path fill="var(--sapContent_Illustrative_Color24)" d="M178.6 75.453c-2.98-3.325-2.878-3.849-2.083-5.825.948-2.357 28.804 4.224 37.041 6.565-9.641 6.33-15.195 5.242-20.551 5.242-5.256 0-11.883-3.166-14.407-5.982Zm-4.501-32.366c.852-2.246 2.355-.936 3.001 0 .322 5.453.174 16.32-3.001 16.165-3.969-.193-4.453-2.807-4.453-8.227 0-5.421 3.388-5.13 4.453-7.938Z"/>
  <path fill="var(--sapContent_Illustrative_Color8)" d="M182.535 34.27c6.513-6.156 14.273-7.972 24.017-6.988 7.678.775 14.644 5.596 18.702 11.122 4.626 6.3 4.626 17.816 4.232 22.344-.393 4.528-4.626 14.863-15.256 18.308-5.988 1.94-29.419 6.15-37.502-9.351-2.625-5.035-4.331-9.252-3.248-16.438 1.083-7.185 1.87-12.205 9.055-18.997Z"/>
  <path fill="var(--sapContent_Illustrative_Color25)" d="M217.919 30.64c5.592 3.1 8.945 9.03 9.65 10.638 1.697 3.876 1.745 7.37 1.745 10.182-2.57-11.76-12.919-20.82-28.55-20.82-10.525 0-10.731-1.747-5.032-2.963 5.699-1.215 15.196-.912 22.187 2.964Z"/>
  <path fill="var(--sapContent_Illustrative_Color24)" d="M192.154 28.174c-4.834 1.109-9.719 5.426-12.026 8.04-5.661 7.18-5.644 10.19-7.037 19.068-1.393 8.878 4.97 16.694 4.97 16.694-3.53-10.052-2.062-24.851 5.553-33.634 12.29-14.175 31.174-9.502 25.95-10.56-6.097-1.235-11.423-.981-17.41.392Z"/>
  <path fill="var(--sapContent_Illustrative_Color22)" d="M195.588 79.761c12.091.317 20.25-4.675 22.818-7.21.461-1.054 1.502-3.458 1.976-4.644-2.47-1.284-1.976-3.753-1.976-6.717 0-2.37 1.778-3.82 2.667-4.247.198-.198.218-1.64-1.284-5.828-1.877-5.236-7.112-10.767-16.99-13.928-9.878-3.161-16.101.79-21.83 4.643-5.73 3.852-5.631 17.978-5.038 21.731.592 3.754 4.544 15.805 19.657 16.2Z"/>
  <path fill="var(--sapContent_Illustrative_Color8)" d="M178.754 63.819c-3.409-11.513 2.259-19.44 5.563-21.402 1.674-.994-3.227 4.628-4.55 9.156-2.084 7.125.906 15.645-1.013 12.246Z"/>
  <circle cx="191.983" cy="43.332" r="1.03" fill="var(--sapContent_Illustrative_Color8)"/>
  <circle cx="185.885" cy="46.647" r="1.03" fill="var(--sapContent_Illustrative_Color8)"/>
  <circle cx="190.953" cy="55.516" r="2.06" fill="var(--sapContent_Illustrative_Color8)"/>
  <path fill="var(--sapContent_Illustrative_Color24)" d="m218.457 123.367 7.377 4.197-3.561 22.513c-.254 2.247.136 4.516.747 6.449.763 2.417-.238 4.744-.747 5.888-.407.916.832 3.035.747 4.392-1.018-1.611-4.308-4.595-3.291-6.935 1.272-2.926.89-4.071-1.272-11.702s-1.272-13.128 0-17.707c1.018-3.663.848-6.587 0-7.095Z"/>
  <path fill="var(--sapContent_Illustrative_Color25)" d="M215.095 131.539c.632-1.474.79-5.175.79-6.842l4.474 2.368c0 1.097-.237 3.895-1.185 6.316-.947 2.421.395 16.272 1.185 22.895-.878-2.368-3.001-7.368-4.474-8.421-1.842-1.316-9.606-.658-8.553-1.053 1.053-.394 5.132-.394 7.763-1.052 2.632-.658.79-2.5 0-3.948-.789-1.447-2.763-3.158-4.21-3.816-1.448-.657-1.053-.789 0-1.578 1.052-.79 3.421-3.027 4.21-4.869Z"/>
  <path fill="var(--sapContent_Illustrative_Color24)" d="M157.024 120.642v-8.865c1.201.8 3.768 2.419 4.433 2.493.831.093 2.308-2.031 4.155-4.432 1.846-2.401.652-.327 2.357 2.469 3.105 5.09-1.466 10.004-1.866 9.973.431 2.124.026 4.326-.491 7.059-.647 3.417-4.155 6.131-2.265 10.269 1.66 3.634-1.89-.984-1.89-4.161 0-1.879.741-6.173 1.8-9.961.229-.82 1.296-3.561 2.355-6.507-.554-.092-2.032.37-3.324.924-1.293.554-4.061 7.162-8.502 9.436-1.714.878-4.494 8.401-9.149 11.344 1.508-2.894 4.28-5.03 4.655-10.434.243-3.508 7.732-9.053 7.732-9.607Z"/>
  <path fill="var(--sapContent_Illustrative_Color25)" d="M218.933 59.075c.853-1.202 3.305-1.931 4.24-1.953-1.174.978-2.413 1.761-2.609 5.153-.196 3.392 2.406 4.819 1.052 4.819-1.255 0-2.267.194-2.985-1.241-.717-1.435-1.025-4.909.302-6.778Z"/>
  <path fill="var(--sapContent_Illustrative_Color22)" d="M158.436 168.108c-1.091-2.154-1.465-5.354-.398-6.42.586.693 1.55 4.516 4.782 8.236 2.352 2.706 10.007 9.874 20.412 16.914l.266 3.631c-2.4-1.44-8.081-5.425-12.177-8.369-5.119-3.679-11.246-10.759-12.885-13.992Zm54.367-63.568c1.914-6.938 9.3-17.568 11.892-17.668l2.862-.84c1.335-.42 6.562 2.79 3.624 2.446-2.781-.326-13.682 13.819-14.647 17.161-.966 3.341-1.616 7.676-.759 13.296.686 4.495 6.952 7.86 10.055 8.923l2.461 1.322c-2.795 3.889-7.738 1.895-12.516-4.087-5.539-6.935-5.364-11.882-2.972-20.553ZM166.6 97.874c.74-4.446 2.872-20.462 6.225-21.83h2.761s-.01.624.2 2.258c-1.583 1.18-1.755 4.477-2.311 5.496-.695 1.273-4.913 28.739-4.334 31.17.463 1.945-3.486 5.98-4.759 7.485l1.016-3.696c.309-5.403.461-16.437 1.202-20.883Z"/>
  <path fill="var(--sapContent_Illustrative_Color25)" d="M226.979 66.118c-2.579 2.928-5.066 1.817-6.636 1.788 0 .457-1.278 2.998-2.786 4.849-1.507 1.85-4.779 3.823-11.003 5.783 0 0 5.541-.169 8.321-1.307 2.781-1.137 5.507-5.669 7.025-5.264 1.95.519 5.96-6.849 5.079-5.849Z"/>
  <path fill="var(--sapContent_Illustrative_Color2)" d="M54.008 96.758c0-.875-2.54-1.576-5.934-1.735-.194-3.39-.941-5.91-1.817-5.909-.875.002-1.603 2.542-1.789 5.95-3.404.233-5.935.993-5.923 1.87.012.877 2.54 1.578 5.935 1.735.203 3.39.94 5.911 1.814 5.909.873-.002 1.605-2.542 1.792-5.95 3.404-.233 5.932-.993 5.922-1.87Z"/>
  <circle cx="284.914" cy="115.066" r="2" fill="var(--sapContent_Illustrative_Color20)"/>
  <circle cx="34.914" cy="175.066" r="2" fill="var(--sapContent_Illustrative_Color20)"/>
  <circle cx="104.914" cy="135.066" r="2" fill="var(--sapContent_Illustrative_Color20)"/>
  <circle cx="110.914" cy="147.066" r="3" fill="var(--sapContent_Illustrative_Color20)"/>
  <path fill="var(--sapContent_Illustrative_Color2)" d="M62.545 110.057c0-.566-1.643-1.019-3.838-1.122-.125-2.192-.609-3.822-1.175-3.821-.566.002-1.036 1.644-1.157 3.848-2.201.15-3.838.642-3.83 1.209.008.568 1.643 1.021 3.838 1.122.132 2.192.608 3.823 1.173 3.821.565-.001 1.038-1.644 1.159-3.847 2.2-.151 3.836-.643 3.83-1.21Zm212 30c0-.566-1.643-1.019-3.838-1.122-.125-2.192-.609-3.822-1.175-3.821-.566.002-1.036 1.644-1.157 3.848-2.201.15-3.838.642-3.83 1.209.007.568 1.643 1.021 3.838 1.122.132 2.192.608 3.823 1.173 3.821.565-.001 1.038-1.644 1.159-3.847 2.201-.151 3.836-.643 3.83-1.21Z"/>
</svg>
