<svg id="tnt-Dialog-Services" xmlns="http://www.w3.org/2000/svg" width="160" height="160" fill="none" viewBox="0 0 160 160">
  <rect width="160" height="69" y="50" fill="var(--sapContent_Illustrative_Color20)" rx="12"/>
  <path fill="var(--sapContent_Illustrative_Color2)" d="M138.003 103.671c0-.269-.782-.485-1.827-.534-.06-1.044-.29-1.82-.56-1.82-.269.001-.493.783-.551 1.833-1.048.071-1.827.306-1.824.576.004.27.783.485 1.828.534.063 1.044.29 1.82.559 1.82.269-.001.494-.783.551-1.833 1.049-.071 1.827-.306 1.824-.576Zm1.466-33.993c0-.216-.63-.39-1.471-.43-.048-.84-.233-1.464-.45-1.464s-.397.63-.443 1.475c-.844.057-1.471.246-1.468.463.003.218.629.391 1.471.43.05.84.233 1.465.449 1.465.217-.001.398-.63.444-1.475.844-.058 1.47-.246 1.468-.463Zm-115.449 0c0-.216-.63-.39-1.471-.43-.048-.84-.233-1.464-.45-1.464s-.397.63-.444 1.475c-.843.057-1.47.246-1.468.463.003.218.63.391 1.471.43.05.84.234 1.465.45 1.465.216-.001.398-.63.444-1.475.843-.058 1.47-.246 1.468-.463Z"/>
  <circle cx="129.46" cy="75.02" r=".529" fill="var(--sapContent_Illustrative_Color2)"/>
  <circle cx="24.549" cy="80.769" r=".529" fill="var(--sapContent_Illustrative_Color2)"/>
  <circle cx="125.413" cy="110.255" r=".794" fill="var(--sapContent_Illustrative_Color2)"/>
  <circle cx="82.299" cy="106.902" r=".794" fill="var(--sapContent_Illustrative_Color2)"/>
  <path fill="var(--sapContent_Illustrative_Color22)" fill-rule="evenodd" d="M70.694 57.863a.79.79 0 0 1 1.097-.214l53.513 36.062a.79.79 0 1 1-.883 1.311L70.907 58.96a.79.79 0 0 1-.213-1.097Z" clip-rule="evenodd"/>
  <path fill="var(--sapContent_Illustrative_Color11)" d="M68.09 38.878c0-.622.687-1 1.213-.668l5.935 3.744a.79.79 0 0 1 .369.669v41.285a.79.79 0 0 1-1.266.632l-5.935-4.467a.79.79 0 0 1-.315-.632V38.878Zm9.773 48.313a.79.79 0 0 1-.315-.631V44.845c0-.622.686-1 1.213-.668l7.557 4.768a.79.79 0 0 1 .368.669v42.634a.79.79 0 0 1-1.266.631l-7.557-5.688Z"/>
  <path fill="var(--sapContent_Illustrative_Color8)" d="M122.439 72.506c2.28-1.346 2.066-6.481-.517-11.62-2.635-5.242-6.736-8.502-9.161-7.283a2.349 2.349 0 0 0-.452.298L74.297 73.009l9.54 18.979 38.633-19.42-.031-.062Z"/>
  <path fill="var(--sapContent_Illustrative_Color25)" d="M112.761 53.604c2.425-1.22 6.526 2.041 9.161 7.282 2.583 5.139 2.797 10.274.517 11.62l-.001-.001v.002h.001l.031.06-38.633 19.42-9.54-18.978L112.309 53.9a2.26 2.26 0 0 1 .333-.233l.119-.064Zm3.763 2.146c-1.58-1.257-2.679-1.364-3.23-1.087a1.19 1.19 0 0 0-.224.148l-.105.087-.123.062-36.953 18.575 8.474 16.86L121 71.979l.837-.494c.54-.318 1.07-1.317.983-3.315-.082-1.894-.724-4.299-1.957-6.752-1.258-2.502-2.843-4.48-4.338-5.668Z"/>
  <path fill="var(--sapContent_Illustrative_Color24)" d="M123.106 63.731c1.439 4.2 1.198 7.914-.794 8.915a2.088 2.088 0 0 1-.144.067l.002.005-38.334 19.27-3.417-6.799 42.687-21.458Z"/>
  <ellipse cx="79.209" cy="82.427" fill="var(--sapContent_Illustrative_Color25)" rx="4.914" ry="10.621" transform="rotate(-26.688 79.209 82.427)"/>
  <ellipse cx="78.925" cy="82.569" fill="var(--sapContent_Illustrative_Color22)" rx="2.695" ry="5.548" transform="rotate(-26.688 78.925 82.569)"/>
  <path fill="var(--sapContent_Illustrative_Color25)" fill-rule="evenodd" d="M37.892 104.181a.593.593 0 0 1 .711-.445l24.477 5.639a.593.593 0 1 1-.266 1.155l-24.477-5.638a.593.593 0 0 1-.445-.711Z" clip-rule="evenodd"/>
  <path fill="var(--sapContent_Illustrative_Color25)" fill-rule="evenodd" d="M47.76 79.152a.593.593 0 0 1 .34.767l-9.077 23.446a.593.593 0 0 1-1.106-.428l9.077-23.446a.593.593 0 0 1 .767-.339Z" clip-rule="evenodd"/>
  <path fill="var(--sapContent_Illustrative_Color25)" d="M71.1 110.277c9.518-5.37 13.105-17.413 7.978-27.448-5.128-10.034-17.092-14.386-27.151-10.075L71.1 110.277Z"/>
  <path fill="var(--sapContent_Illustrative_Color24)" d="M79.308 83.307c1.12 6.92-2.435 12.936-8.712 17.816L55.442 79.634 71.1 110.277c9.307-5.258 12.902-16.974 8.208-26.97Z"/>
  <path fill="var(--sapContent_Illustrative_Color24)" d="M71.052 86.705c5.27 10.482 4.63 21.447-1.43 24.493-6.058 3.046-15.24-2.983-20.51-13.464-5.268-10.482-4.628-21.447 1.43-24.493 6.058-3.046 15.241 2.983 20.51 13.464Z"/>
  <path fill="var(--sapContent_Illustrative_Color1)" d="M69.64 87.415c-2.533-5.038-5.974-8.935-9.414-11.193-3.48-2.285-6.663-2.73-8.974-1.568-2.312 1.162-3.852 3.981-4.094 8.137-.24 4.109.835 9.195 3.367 14.233 2.533 5.037 5.974 8.935 9.414 11.193 3.48 2.285 6.662 2.731 8.973 1.569l.71 1.412-.285.136c-6.058 2.72-15.038-3.283-20.225-13.6-5.268-10.482-4.628-21.447 1.43-24.493 6.058-3.045 15.241 2.982 20.51 13.464l.243.492c5.005 10.33 4.291 21.004-1.672 24.001l-.71-1.412c2.311-1.162 3.852-3.982 4.094-8.138.24-4.108-.835-9.195-3.368-14.233Z"/>
  <path fill="var(--sapContent_Illustrative_Color22)" fill-rule="evenodd" d="M100.013 77.621a.79.79 0 0 1 1.097-.214l24.194 16.304a.79.79 0 0 1-.884 1.31l-24.193-16.303a.79.79 0 0 1-.214-1.097Z" clip-rule="evenodd"/>
  <path fill="var(--sapContent_Illustrative_Color11)" d="M103.984 106.852a1.187 1.187 0 0 1-.472-.947v-43.96a1.185 1.185 0 0 1 1.818-1.004l8.18 5.16c.344.218.553.597.553 1.004v44.956c0 .978-1.118 1.536-1.899.948l-8.18-6.157Zm12.716 8.98c0 .372.175.723.473.947l10.206 7.682a1.186 1.186 0 0 0 1.899-.948V76.705c0-.407-.209-.786-.554-1.003l-10.205-6.44a1.186 1.186 0 0 0-1.819 1.004v45.566Z"/>
  <path fill="var(--sapContent_Illustrative_Color1)" d="M103.512 105.904c0 .373.175.724.472.948l8.18 6.156c.781.589 1.899.031 1.899-.947v-6.874c-4.008 1.073-7.784.545-10.551-.566v1.283Zm13.188-1.654v11.581c0 .373.175.724.473.948l10.206 7.681c.781.589 1.899.031 1.899-.947V90.398c-3.589 7.69-8.121 11.863-12.578 13.852Z"/>
  <path fill="var(--sapContent_Illustrative_Color22)" d="M64.862 86.113c.753-.378 1.876.332 2.507 1.588.63 1.256.532 2.58-.222 2.96-.605.303-1.448-.096-2.083-.915l-3.218 1.619a.791.791 0 1 1-.71-1.413l3.218-1.618c-.28-1-.098-1.917.508-2.221Z"/>
  <path fill="var(--sapContent_Illustrative_Color25)" fill-rule="evenodd" d="M60.216 74.029a.79.79 0 0 1 .152 1.107l-21.6 28.492a.791.791 0 0 1-1.26-.955l21.6-28.492a.79.79 0 0 1 1.108-.152Z" clip-rule="evenodd"/>
  <path fill="var(--sapContent_Illustrative_Color25)" fill-rule="evenodd" d="M37.018 104.045a.79.79 0 0 1 .725-.851l36.097-2.9a.79.79 0 0 1 .127 1.576l-36.098 2.9a.79.79 0 0 1-.851-.725Z" clip-rule="evenodd"/>
  <ellipse cx="37.139" cy="104.043" fill="var(--sapContent_Illustrative_Color11)" rx="3.154" ry="3.265" transform="rotate(-26.688 37.139 104.043)"/>
  <path fill="var(--sapContent_Illustrative_Color1)" d="M38.131 100.992c.791 1.606.184 3.53-1.364 4.308a3.09 3.09 0 0 1-2.458.135l.012.025c.81 1.611 2.728 2.283 4.285 1.5 1.556-.782 2.161-2.722 1.351-4.333a3.313 3.313 0 0 0-1.826-1.635Z"/>
</svg>
