<svg id="tnt-Spot-Success" xmlns="http://www.w3.org/2000/svg" width="128" height="128" fill="none" viewBox="0 0 128 128">
  <rect width="128" height="55" y="40" fill="var(--sapContent_Illustrative_Color20)" rx="9.6"/>
  <path fill="var(--sapContent_Illustrative_Color2)" d="M118.101 82.015c0-.24-.694-.431-1.622-.474-.053-.927-.257-1.616-.496-1.615-.24 0-.438.695-.489 1.626-.931.063-1.622.271-1.619.51.003.24.694.432 1.622.475.056.926.257 1.615.496 1.615.238 0 .438-.695.489-1.626.931-.064 1.622-.272 1.619-.511Zm-92.874-2.222c0-.24-.694-.43-1.622-.474-.053-.927-.257-1.615-.496-1.615-.24 0-.438.695-.49 1.626-.93.064-1.621.272-1.618.511.003.24.694.431 1.622.474.055.927.257 1.616.496 1.615.238 0 .438-.695.49-1.626.93-.064 1.62-.271 1.618-.511Zm-1.6-27.709c0-.35-1.016-.63-2.374-.694-.078-1.356-.377-2.364-.727-2.364-.35.001-.64 1.017-.715 2.38-1.362.093-2.374.398-2.37.748.005.351 1.017.631 2.374.694.082 1.356.377 2.365.726 2.364.35-.001.642-1.017.717-2.38 1.361-.093 2.373-.397 2.369-.748Z"/>
  <circle cx="10.276" cy="73.594" r="2" fill="var(--sapContent_Illustrative_Color2)"/>
  <circle cx="24.427" cy="56.012" r=".8" fill="var(--sapContent_Illustrative_Color2)"/>
  <circle cx="81.666" cy="67.615" r="31.896" fill="var(--sapContent_Illustrative_Color15)" transform="rotate(-12 81.666 67.615)"/>
  <path fill="var(--sapContent_Illustrative_Color16)" d="M109.225 83.674c-4.372 7.497-11.768 13.193-20.926 15.14a31.743 31.743 0 0 1-18.082-1.427c1.462.216 3.588.492 5.682.678 2.313.206 4.561.304 5.836.11l.314-.052c1.634-.294 4.184-1.062 6.777-1.928a196.15 196.15 0 0 0 7.307-2.62l.339-.145c.838-.387 1.993-1.126 3.294-2.057 1.48-1.06 3.134-2.358 4.696-3.635a155.387 155.387 0 0 0 4.143-3.512c.222-.195.429-.38.62-.552Z"/>
  <path fill="var(--sapContent_Illustrative_Color16)" d="M81.13 88.87c.332-.116.7-.13 1.096-.089.452.047.961.17 1.527.323.995.27 2.189.633 3.65.873l.642.095.008.001.007.002c1.564.324 2.668.445 3.634.432.966-.012 1.804-.158 2.841-.379 1.315-.28 3.63-1.21 5.372-1.843.432-.156.829-.295 1.163-.398.33-.103.613-.176.812-.195a.606.606 0 0 1 .297.03.276.276 0 0 1 .143.14.294.294 0 0 1 .011.194.749.749 0 0 1-.17.278 2.781 2.781 0 0 1-.147.151l-.191.175c-1.933 1.68-3.231 2.53-4.11 2.972-.44.221-.777.341-1.035.411-.248.068-.444.094-.534.113-1.714.364-3.885.546-6.12.604l-.962.018c-1.101.011-1.789.477-2.393 1.002-.294.257-.596.555-.894.79-.268.213-.558.399-.895.505l-.148.042c-.437.103-.87-.048-1.233-.303a3.08 3.08 0 0 1-.891-1.026c-.213-.39-.342-.825-.3-1.201a.944.944 0 0 1 .219-.523.855.855 0 0 1 .206-.17c-.326-.01-.72-.013-1.114-.01l-1.21.02c-.752.021-1.496.223-2.551.53-.97.281-2.187.645-3.881 1.021.25.025.562.042.918.04 1.266-.005 3-.22 4.276-.893l.185-.082c.436-.16.914-.108 1.328.077.473.21.887.6 1.097 1.082.212.488.213 1.066-.139 1.623-.303.48-.857.931-1.726 1.304l-.392.154c-.324.118-.966.19-1.788.194a20.674 20.674 0 0 1-3.024-.223c-2.148-.312-4.67-.987-6.833-2.263l-.428-.263a1.588 1.588 0 0 1-.376-.317.606.606 0 0 1-.15-.375c-.003-.28.226-.477.468-.613.505-.284 1.422-.505 2.469-.692 1.057-.189 2.283-.35 3.427-.502 1.148-.154 2.212-.299 2.955-.457 1.481-.315 2.33-.745 2.966-1.162.324-.213.59-.42.871-.622.278-.2.564-.387.907-.54l.14-.056Z"/>
  <path fill="var(--sapContent_Illustrative_Color16)" d="M82.315 82.458c1.692-1.082 3.94-1.976 6.83-1.553l2.237.316c2.332.32 4.894.641 7.16.882 1.512.16 2.89.285 3.98.35.545.033 1.016.051 1.395.051.382 0 .657-.018.817-.052.756-.16 1.543-.227 2.692-.572.905-.272 2.024-.719 3.479-1.515a33.3 33.3 0 0 1-.564 1.22c-3.224 2.345-6.902 4.068-10.039 5.249a51.099 51.099 0 0 1-4.903 1.575c-.645.17-1.187.296-1.597.378-.301.061-.543.1-.704.116l-.132.008c-.14 0-.367-.044-.642-.106a38.442 38.442 0 0 1-1.045-.258c-.816-.21-1.844-.482-2.942-.735-1.098-.254-2.262-.49-3.343-.626-.948-.12-1.823-.162-2.53-.08l-.292.043c-.75.135-1.519.487-2.359.942-.826.447-1.745 1.009-2.732 1.516-1.873.963-4.098 1.79-6.945 1.587l-.577-.055c-.77-.09-1.347-.172-1.765-.247-.41-.073-.686-.142-.84-.214a.518.518 0 0 1-.115-.071.274.274 0 0 1-.096-.16.245.245 0 0 1 .059-.201.37.37 0 0 1 .109-.085 1.13 1.13 0 0 1 .244-.082c.093-.023.203-.044.324-.063.482-.077 1.186-.137 1.82-.19.647-.053 1.21-.099 1.436-.147.095-.02.273-.09.529-.212.25-.12.559-.28.909-.472.7-.383 1.56-.882 2.433-1.398 1.74-1.026 3.55-2.126 4.245-2.48l.12-.068c.127-.078.275-.187.444-.323.226-.181.48-.402.77-.649.577-.491 1.286-1.079 2.13-1.619Z"/>
  <path fill="var(--sapContent_Illustrative_Color16)" d="M49.952 64.16a13.296 13.296 0 0 1 6.828 2.992c.43.132.849.25 1.252.354 1.225.311 2.245.457 2.97.409l.228-.012c1.158-.036 2.517.23 3.908.606 1.497.405 3.117.965 4.68 1.505 1.579.544 3.099 1.067 4.445 1.422 1.372.36 2.446.511 3.167.4l.76-.13c1.999-.372 5.512-1.187 8.832-2.14 1.895-.544 3.707-1.126 5.125-1.688a15.57 15.57 0 0 0 1.755-.803c.477-.264.703-.458.774-.554l.227-.328c.491-.76.736-1.48 1.064-2.233.368-.844.849-1.724 1.971-2.236.375-.171.775-.2 1.13-.182a7.84 7.84 0 0 1 1.117.155c.779.152 1.597.347 2.539.412a7.644 7.644 0 0 0 2.485-.217 33.613 33.613 0 0 0 1.754-2.235c.827-1.159 1.548-2.364 1.781-3.26l.085-.353c.333-1.476.449-3.254.473-4.37a31.757 31.757 0 0 1 2.97 6.955 26.012 26.012 0 0 1-1.399 1.52l-.411.404c-2.914 2.814-5.629 3.306-7.847 3.153-1.071-.074-2.03-.3-2.736-.438a6.46 6.46 0 0 0-.885-.128c-.234-.011-.344.017-.392.04-.568.258-.843.673-1.168 1.419-.278.637-.59 1.537-1.193 2.47l-.277.4c-.29.393-.778.724-1.286 1.006-.535.297-1.2.596-1.942.89-1.396.553-3.128 1.112-4.92 1.634a139.8 139.8 0 0 1-6.128 2.601c-2.686 1.06-5.405 2.008-7.25 2.358l-.356.061c-1.167.182-2.103.044-2.923-.315-.814-.356-1.502-.926-2.183-1.584-1.352-1.308-2.69-2.97-5.005-4.257-.956-.227-1.8-.36-2.5-.363l-.361.011c-.663.045-1.432-.031-2.255-.185a13.29 13.29 0 0 1 2.698 7.353c.364.07.706.126 1.025.166l2.21.292c2.113.294 3.946.578 5.624.77 2.225.255 4.131.341 5.948.06l.674-.11c3.402-.587 7.281-1.696 10.669-2.91 3.62-1.299 6.65-2.707 7.938-3.712l.227-.195c.514-.486.934-1.184 1.335-1.953.45-.862.879-1.821 1.381-2.576.505-.757 1.121-1.367 1.976-1.484.851-.116 1.87.266 3.161 1.312l.116.085c.139.093.344.212.602.354.339.186.755.402 1.205.635.897.464 1.926.995 2.702 1.474.387.24.722.472.948.683.112.105.208.215.268.326.06.11.097.253.035.396-.059.136-.186.218-.32.267a2.028 2.028 0 0 1-.532.099 8.979 8.979 0 0 1-1.332-.03l-.611-.06c-.684-.074-1.693.102-2.883.44-1.183.337-2.52.826-3.845 1.356-1.325.53-2.635 1.1-3.768 1.596-.847.372-1.599.705-2.18.949l-.521.213c-6.767 2.646-16.936 4.691-22.334 4.845l-.507.009c-1.528.009-5.195.204-8.865-.016a35.724 35.724 0 0 1-.565-.039 13.316 13.316 0 0 1-3.319 6.556c1.68.204 3.46.129 5.284-.16 4.459-.708 9.077-2.677 12.866-4.798 2.277-1.274 4.682-2.23 6.982-2.942l-.001-.057.2-.004a46.043 46.043 0 0 1 4.465-1.112c3.463-.682 6.204-.821 7.055-.746l.572.065c1.333.18 2.67.562 4.013.857 1.565.343 3.241.6 5.227.413 3.312-.312 5.055-1.517 8.13-3.449a32.166 32.166 0 0 1-.428 1.69c-2.486 1.56-4.432 2.656-7.59 2.953-2.16.203-3.972-.08-5.596-.435-1.446-.318-2.668-.671-3.903-.839l-.53-.06c-.688-.06-3.3.055-6.718.73l-.437.087c1.526.129 3.178.35 4.646.713l.757.176c1.822.399 4.012.708 6.091.879 2.39.196 4.573.204 5.869-.023l.424-.087c1.06-.239 2.61-.743 4.236-1.341a79.262 79.262 0 0 0 2.147-.832c-.18.512-.374 1.018-.579 1.519-.383.148-.769.297-1.153.439-1.626.598-3.246 1.13-4.401 1.39l-.466.093c-1.455.256-3.765.236-6.175.038-2.12-.174-4.364-.49-6.252-.903l-.785-.183c-2.902-.718-6.62-.856-8.43-.834-2.243.691-4.581 1.618-6.784 2.852-3.857 2.159-8.614 4.198-13.264 4.936-2.23.353-4.459.408-6.557.023-.037.032-.077.061-.114.093a31.76 31.76 0 0 1-6.348-13.371 31.865 31.865 0 0 1-.516-10.088Z"/>
  <path fill="var(--sapContent_Illustrative_Color16)" d="M104.163 71.975c2.884-.613 5.448-.05 5.726 1.258.278 1.307-1.835 2.864-4.719 3.477-2.884.613-5.446.05-5.724-1.257-.278-1.308 1.834-2.865 4.717-3.478Zm2.011-7.641c.303-.007.689.162 1.121.496l.122.087c.304.197.733.363 1.251.498.587.154 1.27.265 1.974.342 1 .108 2.033.146 2.879.148.055 1.008.062 2.01.023 3.004-1.341.052-2.24.017-3.005-.16-.765-.176-1.39-.494-2.18-.983l-.857-.547c-.64-.416-1.103-.844-1.409-1.235-.301-.386-.466-.757-.471-1.057a.6.6 0 0 1 .141-.42.555.555 0 0 1 .411-.173Zm.709-16.261c.369.475.726.962 1.068 1.46-.727 1.475-1.631 3.227-2.367 4.424l-.221.352c-.8 1.232-2.543 2.682-4.627 3.888-2.106 1.218-4.678 2.254-7.22 2.577-1.23.156-2.534.25-3.819.343-1.294.095-2.573.189-3.788.346-2.465.32-4.489.88-5.758 2.042-1.401 1.283-2.49 2.785-3.022 3.932-.236.51-.327.873-.339 1.082.908.02 3.465-.045 6.143-.595 1.4-.287 2.808-.703 4.02-1.291 1.215-.59 2.184-1.331 2.778-2.243.317-.486.366-.75.364-.845 0-.018.017-.02-.056-.062-.12-.07-.369-.145-.784-.17-.4-.022-.887.005-1.426.076-.725.096-1.509.266-2.247.47l.26.003c.087 0 .157-.002.21-.005.06-.003.078-.007.072-.005l.406-.075a3.35 3.35 0 0 1 .347-.034c.19-.007.436.003.649.112.12.061.25.164.334.327a.75.75 0 0 1 .072.462c-.037.236-.172.426-.27.545-.214.26-.556.539-.931.801-.387.27-.85.55-1.334.807-.951.503-2.076.965-2.944 1.057-.344.036-.772.026-1.125-.18-.207 0-.452-.033-.68-.167a1.094 1.094 0 0 1-.527-.774 1.568 1.568 0 0 1 .073-.74c.07-.213.175-.432.302-.647.253-.432.63-.923 1.108-1.455l.098-.099c.242-.224.586-.412.904-.564.4-.192.894-.387 1.432-.57 1.074-.363 2.382-.696 3.582-.855a9.394 9.394 0 0 1 1.726-.086c.517.03 1.06.127 1.499.382.486.284.835.762.85 1.41.012.572-.24 1.165-.623 1.754-.808 1.24-2.053 2.145-3.42 2.81-1.372.666-2.918 1.116-4.398 1.42a32.693 32.693 0 0 1-6.07.629 3.63 3.63 0 0 1-1.126.225c-.543.013-1.124-.135-1.512-.643l-.075-.107c-.206-.317-.411-.623-.577-.91-.166-.287-.304-.572-.367-.853a1.295 1.295 0 0 1 .075-.853c.128-.276.364-.528.715-.766l.279-.2c.725-.54 1.948-1.574 3.118-2.541.354-.293.703-.58 1.03-.843.107-.104.216-.206.326-.307 1.665-1.523 4.134-2.124 6.634-2.447 1.267-.165 2.59-.263 3.877-.356 1.296-.095 2.555-.185 3.733-.335 2.275-.288 4.643-1.23 6.621-2.374 1.999-1.157 3.487-2.454 4.085-3.375l.21-.332c.823-1.34 1.895-3.464 2.653-5.032Z"/>
  <path fill="var(--sapContent_Illustrative_Color16)" fill-rule="evenodd" d="M75.036 36.416a31.794 31.794 0 0 1 12.741-.114c.307.36.516.756.609 1.19.648 3.052-4.55 6.742-11.61 8.242a29.634 29.634 0 0 1-3.207.502c.077.183.158.422.246.699l.207-.02c2.404-.259 4.604-.661 6.235-1.425l1.27-.596-.135 1.398c-.07.718-.473 1.34-.988 1.855-.52.52-1.217.993-2.014 1.417-.935.498-2.051.948-3.271 1.34.102.233.21.446.32.636.285-.035.568-.066.847-.103 4.378-.576 7.933-1.377 10.252-4.047l.364-.426c1.83-2.183 3.8-5.1 4.97-7.67a15.69 15.69 0 0 0 .654-1.672c.503.183 1 .377 1.493.584a17.45 17.45 0 0 1-.69 1.75c-1.243 2.731-3.301 5.771-5.204 8.04l-.38.443c-2.759 3.176-6.907 4.013-11.25 4.584l-.138.016c.115.422.171.864.349 1.218 2.053-.133 4.746-.535 8.596-1.727l.32-.105c3.275-1.128 5.7-3.743 7.41-6.609 1.394-2.338 2.302-4.83 2.803-6.779a32.107 32.107 0 0 1 6.287 4.102c-1.365 3.16-3.266 5.5-5.101 7.13-1.993 1.768-3.92 2.709-5.008 2.94-1.05.223-4.135.727-7.264 1.24-2.745.451-5.527.91-7.03 1.2l-.232.046c.05.21.109.44.184.681a25.3 25.3 0 0 1 4.319-.61l.08.388c-1.473.55-2.661 1.1-3.652 1.637.14.167.301.328.49.483 2.267-1.193 4.684-1.847 7.052-2.248 2.103-.356 4.191-.514 6.106-.665 1.934-.152 3.671-.296 5.15-.61l.396-.1c1.946-.565 3.435-2.152 4.527-4.09 1.093-1.943 1.713-4.123 1.966-5.618.462.457.912.927 1.347 1.412-.357 1.499-.976 3.315-1.919 4.99-1.226 2.18-3.075 4.245-5.725 4.911l-.259.06c-1.6.34-3.448.49-5.357.64-1.928.152-3.945.306-5.965.648-4.03.682-7.983 2.095-11.045 5.627-3.507 4.044-8.96 4.466-13.488 3.714-2.284-.38-4.398-1.068-6.025-1.799a14.33 14.33 0 0 1-2.068-1.117c-.454-.306-.88-.653-1.143-1.026l-.101-.163c-.476-.855-1.17-1.654-1.803-2.274.134-.591.285-1.177.452-1.757.852.74 2.004 1.914 2.749 3.253l.066.089c.1.114.307.305.673.55.456.307 1.078.647 1.832.986 1.506.677 3.488 1.323 5.631 1.68 4.328.719 9.057.227 12.016-3.185a16.918 16.918 0 0 1 2.056-2.004c-.306-.14-.492-.274-.682-.392l-.447.341c-1.426 1.1-2.533 2.015-4.506 2.498l-.407.09c-2.197.445-4.356.588-6.067.446-.854-.07-1.605-.213-2.196-.429-.512-.186-.928-.436-1.175-.764l-.096-.146a.468.468 0 0 0-.267-.23.906.906 0 0 0-.434-.012c-.369.063-.817.256-1.32.47-.49.21-1.028.435-1.537.532-.448.084-.903.073-1.298-.16l-.164-.114c-.748-.595-1.764-1.792-2.713-2.85a29.58 29.58 0 0 0-1.076-1.15c-.16.002-.322 0-.488-.007C54.44 47.58 63.29 38.912 75.036 36.416ZM62.101 59.083c.159.202.326.405.511.6.591.62 1.354 1.156 2.515 1.28l.422.037c2.08.13 3.76-.47 5.227-1.255.133-.071.263-.148.393-.221-.32.034-.666.07-1.033.106-.252.122-.507.24-.769.344l-.298.115c-1.632.598-3.17.373-4.384-.184l-.068-.034c-.028-.001-.056 0-.084-.002-.59-.212-1.486-.47-2.432-.786Zm-7.389-1.112c.288.25.585.504.883.74.495.393.987.74 1.434.972.454.236.83.335 1.106.285a9.13 9.13 0 0 1 .928-.113 6.26 6.26 0 0 0 .51-.05l-.025-.032a2.166 2.166 0 0 0-.103-.11l-.147-.14c-.379-.35-1.226-1.08-2.172-1.922-.568.084-1.132.254-1.87.314-.183.015-.364.034-.544.056Z" clip-rule="evenodd"/>
  <circle cx="39.228" cy="76.271" r="15.087" fill="var(--sapContent_Illustrative_Color14)" transform="rotate(-12 39.228 76.271)"/>
  <path fill="var(--sapContent_Illustrative_Color13)" d="M36.092 61.514c5.061-1.076 10.068.524 13.552 3.842 1.706 8.699-3.877 17.187-12.58 19.037a16.208 16.208 0 0 1-11.56-1.849 15.145 15.145 0 0 1-1.033-3.136c-1.732-8.15 3.47-16.161 11.62-17.894Z"/>
  <path fill="var(--sapContent_Illustrative_Color14)" d="m51.082 67.665-.523 3.481s-3.088-3.85-5.445-5.159c-2.357-1.31-6.605-2.802-6.605-2.802l1.041-.105s4.199.705 6.356 1.678 5.176 2.907 5.176 2.907Z"/>
  <path fill="var(--sapContent_Illustrative_Color22)" d="M38.485 33.618h1.2v29.578s-.198.182-.6.182c-.401 0-.6-.182-.6-.182V33.618Z"/>
  <path fill="var(--sapContent_Illustrative_Color9)" d="M41.379 39.708c-.455-2.106-1.56-5.292-2.697-5.938 2.37.71 8.889 2.99 10.609 3.204 2.507.314 3.858 1.188 4.996 1.402 1.257-.166 3.447-.259 4.121-.405.557-.122 3.086-.664 4.153-.996.379.118 1.38.483 2.347.995 1.21.64 3.078 1.609 3.647 2.249.57.64.753 1.306 1.18 2.23.427.925 1.051 4.13 1.954 4.997.627.6.35 1.677.996 2.138.52.372.147 2.157 1.899 3.244-.783 1.352-2.423 1.484-2.766 1.328-.782-.356-.608-.678-2.526-.678-.855 0-4.294.567-7.06.42-.925-.332-2.746-.792-4.055-1.475-1.637-.854-2.284-.268-3.68-.154-1.666.136-3.163.79-5.298 0-3.194-1.182-11.39 1.442-10.112-.815 1.006-1.392 1.335-3.098 1.335-4.008 0-2.867 1.526-5.106.957-7.738Z"/>
  <path fill="var(--sapContent_Illustrative_Color17)" d="M54.864 47.393c.855 0 2.638.053 2.927.27.36.27 3.377 3.421 4.188 3.962.648.432 3.001.871 4.097 1.036-1.2.015-3.863.036-4.908 0-1.306-.045-2.477-.586-3.737-1.576-1.009-.793-2.131-2.792-2.567-3.692Zm5.584-2.657c.346.346 1.18 1.152 1.756 1.62.181.148.516.263.921.363.086.014.17.033.256.06 1.195.259 2.805.416 3.056.793.289.432 2.552.841 3.648.991-.54.15-1.838.433-2.702.36-1.08-.09-2.747-1.305-3.513-1.89a1.54 1.54 0 0 0-.49-.255 1.893 1.893 0 0 0-.255-.06c-.511-.083-1.035.002-1.64-.362-.72-.432-.992-1.26-1.037-1.62Zm-13.87-4.548c.99.615 3.107 2.08 3.648 3.017.675 1.17 1.666 2.972 2.926 3.648-.69-.286-2.242-1.118-2.926-2.163-.685-1.045-5.69-5.928-8.106-8.24l4.458 3.737Zm15.487-2.827c.295-.22.72-.147.904 0 .184.148 1.939 2.176 2.157 2.434.175.206.159.504.129.627.46-.172 1.582-.52 2.378-.534.796-.015 1.622 1.702 1.935 2.562-.178-.184-.53-.487-.516-.222.018.332-.7 1.346-1.42 1.844-.574.398-1.627 1.026-2.082 1.29.123-.405.295-1.297 0-1.622-.369-.405-1.31-1.99-1.53-2.544-.222-.553-.775-2.654-1.051-3.337-.221-.545-.695-.56-.904-.498ZM41.85 35.46c.54 0 5.18 1.44 6.35 2.026.937.469 4.142 1.396 5.628 1.801a168.17 168.17 0 0 1-3.066-.429c.542.19 3.173 1.564 4.597 2.276 1.531.765 3.873 2.79 3.332 2.34-.54-.45-3.782-.72-4.863-1.17-1.08-.45-4.412-2.611-5.628-3.467-.972-.684-4.638-2.537-6.35-3.377Zm16.12 3.107c.166.51 1.028 1.793 3.153 2.837h-.18c-.315-.06-1.09-.288-1.666-.72-.576-.433-3.152-1.591-4.368-2.117h3.062Z"/>
  <circle cx="39.086" cy="33.303" r="1.057" fill="var(--sapContent_Illustrative_Color22)"/>
</svg>
