<svg id="tnt-Scene-ChartBar" xmlns="http://www.w3.org/2000/svg" width="320" height="240" fill="none" viewBox="0 0 320 240">
  <rect width="320" height="138" y="59" fill="var(--sapContent_Illustrative_Color20)" rx="24"/>
  <path fill="var(--sapContent_Illustrative_Color21)" fill-rule="evenodd" d="m108.418 192.85 147.17-26.278c.917-.166.95-1.457.056-1.678l-92.284-22.988a8.494 8.494 0 0 0-3.379-.155l-116.2 17.909c-2.053.32-2.45 3.103-.563 3.986l61.854 28.763a5.528 5.528 0 0 0 3.346.43v.011Z" clip-rule="evenodd"/>
  <path fill="var(--sapContent_Illustrative_Color8)" d="m67.912 61.771 170.092-10.23 21.857 95.049c.15.64.17 1.269.1 1.848-.07.58-.26 1.129-.54 1.599-.28.469-.64.869-1.079 1.169-.44.3-.95.499-1.519.569L92.368 172.386c-.7.089-1.39.02-2.039-.16a5.27 5.27 0 0 1-1.809-.919 5.77 5.77 0 0 1-1.379-1.529 5.451 5.451 0 0 1-.75-1.978L67.912 61.771Z"/>
  <path fill="var(--sapContent_Illustrative_Color13)" d="M230.358 36.005c.56-.03 1.12.07 1.649.26.53.19 1.04.49 1.499.87.46.379.86.828 1.18 1.338.32.51.569 1.079.709 1.678l2.619 11.38L67.912 61.77l-2.198-12.648a4.46 4.46 0 0 1 .06-1.898c.15-.59.42-1.13.79-1.589.369-.46.839-.84 1.388-1.109.55-.27 1.17-.44 1.85-.48l160.556-8.042ZM78.426 56.235a3.66 3.66 0 0 0 1.47-.389c.43-.22.799-.53 1.089-.899.29-.37.5-.8.62-1.269.12-.47.13-.979.04-1.508a4.101 4.101 0 0 0-.57-1.479 4.73 4.73 0 0 0-1.05-1.179c-.41-.33-.89-.59-1.389-.759-.5-.17-1.04-.25-1.579-.22-.54.03-1.03.16-1.47.38a3.32 3.32 0 0 0-1.098.9c-.3.369-.51.798-.62 1.268-.11.47-.14.989-.04 1.518.1.53.29 1.04.57 1.489a4.713 4.713 0 0 0 2.449 1.938c.499.17 1.039.25 1.578.22"/>
  <path fill="var(--sapContent_Illustrative_Color14)" d="M92.368 172.376c-.7.09-1.389.02-2.038-.16a5.433 5.433 0 0 1-1.81-.919 5.786 5.786 0 0 1-1.379-1.528 5.39 5.39 0 0 1-.75-1.979L67.913 61.772l-2.198-12.648c-.06-.32-.08-.64-.07-.95 0-.309.05-.609.12-.898.07-.29.17-.57.29-.83.12-.26.28-.51.45-.739l-2.789 3.627c-.17.23-.32.47-.45.729a4.33 4.33 0 0 0-.41 1.708c0 .31.01.62.07.94l2.17 12.507 18.159 104.86c.12.71.38 1.369.74 1.958a5.504 5.504 0 0 0 3.148 2.418c.649.19 1.329.25 2.018.16l162.976-20.59 4.687-2.258-164.455 20.61Z"/>
  <path fill="var(--sapContent_Illustrative_Color2)" d="M77.058 48.524c.54-.03 1.07.05 1.58.22.509.17.969.429 1.388.759.42.33.77.729 1.05 1.179.28.45.48.949.57 1.478.09.53.08 1.04-.04 1.509-.12.47-.33.899-.62 1.269-.29.37-.66.679-1.09.899-.43.22-.929.36-1.469.39a4.23 4.23 0 0 1-1.579-.22 4.46 4.46 0 0 1-1.389-.76 4.77 4.77 0 0 1-1.06-1.179 4.08 4.08 0 0 1-.569-1.488c-.09-.54-.07-1.05.04-1.519.11-.47.33-.909.62-1.269.29-.36.66-.669 1.1-.899.439-.23.928-.36 1.468-.38v.01Z"/>
  <path fill="var(--sapContent_Illustrative_Color21)" d="M171.837 110.224c1.078-.099 2.079.726 2.3 1.849l1.628 8.473c.22 1.145-.44 2.168-1.496 2.289l-42.874 5.04c-1.112.099-2.124-.726-2.344-1.871l-1.651-8.594c-.22-1.167.473-2.201 1.541-2.322l42.896-4.864Z"/>
  <path fill="var(--sapContent_Illustrative_Color15)" d="M199.286 69.714c1.046-.088 2.036.738 2.245 1.86l1.618 8.364c.22 1.133-.429 2.145-1.453 2.245l-77.491 7.004c-1.1.1-2.135-.748-2.355-1.893l-1.65-8.583c-.231-1.167.462-2.19 1.54-2.3l77.535-6.708.011.011Z"/>
  <path fill="var(--sapContent_Illustrative_Color14)" d="M180.782 90.337c1.056-.088 2.058.737 2.267 1.87l1.629 8.419c.22 1.144-.441 2.157-1.475 2.278l-55.266 5.771c-1.112.099-2.124-.737-2.344-1.881l-1.651-8.595c-.231-1.166.462-2.19 1.541-2.3l55.299-5.563Z"/>
  <path fill="var(--sapContent_Illustrative_Color13)" d="M163.041 131.257c1.09-.099 2.08.726 2.3 1.849l1.629 8.495c.22 1.156-.451 2.19-1.508 2.322l-30.042 3.709c-1.111.099-2.135-.726-2.344-1.871l-1.651-8.583c-.231-1.167.462-2.212 1.541-2.344l30.064-3.588.011.011Z"/>
</svg>
