<svg id="tnt-Dot-ChartPie" xmlns="http://www.w3.org/2000/svg" width="45" height="45" fill="none" viewBox="0 0 45 45">
  <path fill="var(--sapContent_Illustrative_Color21)" fill-rule="evenodd" d="m13.783 38.688 30.54-5.454c.191-.034.198-.302.012-.348l-19.15-4.77a1.762 1.762 0 0 0-.702-.032L.37 31.8a.436.436 0 0 0-.117.827l12.836 5.97c.215.1.458.132.694.088v.003Z" clip-rule="evenodd"/>
  <path fill="var(--sapContent_Illustrative_Color25)" d="m5.34 11.57 35.118-2.112 4.513 19.625c.03.132.035.262.02.381a.845.845 0 0 1-.11.33.758.758 0 0 1-.224.241.705.705 0 0 1-.313.118l-33.955 4.255a1.065 1.065 0 0 1-.794-.222 1.191 1.191 0 0 1-.285-.316 1.125 1.125 0 0 1-.155-.408L5.34 11.57Z"/>
  <path fill="var(--sapContent_Illustrative_Color13)" d="M38.883 6.251a.873.873 0 0 1 .34.054 1.155 1.155 0 0 1 .7.802l.54 2.35-35.12 2.114-.454-2.612a.922.922 0 0 1 .013-.392.86.86 0 0 1 .45-.556.994.994 0 0 1 .381-.1l33.15-1.66Z"/>
  <path fill="var(--sapContent_Illustrative_Color14)" d="M10.39 34.406a1.067 1.067 0 0 1-.795-.222 1.191 1.191 0 0 1-.285-.316 1.112 1.112 0 0 1-.155-.408L5.34 11.57l-.454-2.61a.905.905 0 0 1 .163-.706l-.576.75a1.018 1.018 0 0 0-.093.15.912.912 0 0 0-.07.546l.448 2.583 3.75 21.65a1.141 1.141 0 0 0 .802.903c.134.04.275.052.417.033l33.649-4.25.968-.467-33.955 4.255Z"/>
  <path fill="var(--sapContent_Illustrative_Color13)" d="M25.097 21.308c.02.177.168.32.333.32l7.343-.035-7.416.035c-.146.013-.244.108-.263.238L23.887 29.7a.357.357 0 0 0 .237.39c-1.483-.355-2.89-1.138-4.063-2.266a10.002 10.002 0 0 1-2.668-4.453c-.485-1.692-.5-3.448-.044-5.045.456-1.594 1.356-2.954 2.589-3.905-.114.102-.12.298-.013.438l4.893 6.367a.16.16 0 0 0 .14.066c.07-.006.13-.067.123-.155l.02.174-.004-.003Z"/>
  <path fill="var(--sapContent_Illustrative_Color14)" d="m25.33 21.627 7.439-.035c.146 0 .282.117.314.273a.245.245 0 0 1 .006.05c0 .042.006.086.006.127 0 .022 0 .045.004.067v.139c.003.13.006.232.003.333v.12c0 .12-.007.222-.013.324 0 .06-.006.088-.006.117v.041c0 .029-.004.054-.007.083 0 .022-.003.04-.006.063 0 .035-.006.073-.01.108 0 .025-.006.05-.006.073 0 .019-.003.038-.006.057 0 .025-.007.053-.01.079a.242.242 0 0 1-.006.047l-.016.124a1.787 1.787 0 0 1-.022.136l-.022.137-.029.148-.028.143-.029.127c0 .013-.006.025-.01.041a1.197 1.197 0 0 1-.022.089l-.01.044c-.005.026-.012.05-.018.076-.013.045-.022.089-.035.133-.016.051-.025.086-.035.12a9.12 9.12 0 0 1-.133.416 7.452 7.452 0 0 1-1.987 3.055 6.914 6.914 0 0 1-2.995 1.616c-.028.007-.044.01-.063.016l-.086.02c-.035.005-.07.015-.101.021l-.05.01c-.01 0-.02.003-.033.006a7.233 7.233 0 0 1-1.829.127c-.047 0-.075-.003-.107-.006a.514.514 0 0 1-.07-.007c-.019 0-.034 0-.053-.003a7.894 7.894 0 0 1-1.008-.152l-.12-.029a.36.36 0 0 1-.251-.393l1.207-7.834a.267.267 0 0 1 .241-.237l.013-.01Z"/>
  <path fill="var(--sapContent_Illustrative_Color15)" d="M29.741 11.572a.255.255 0 0 1 .168.042c1.442.852 2.694 2.069 3.645 3.53a11.495 11.495 0 0 1 1.765 4.81c.022.169-.086.305-.235.318l-8.372-.029c-.222 0-.393-.26-.308-.472l3.122-8.03a.248.248 0 0 1 .215-.165v-.004Z"/>
  <path fill="var(--sapContent_Illustrative_Color21)" d="M23.58 13c.127-.009.25-.018.377-.021.152-.007.295.12.327.285 0 .01.003.022.006.032l.792 7.833c.007.095-.053.155-.123.161a.164.164 0 0 1-.14-.066l-4.894-6.369c-.108-.14-.105-.336.012-.437A6.945 6.945 0 0 1 23.58 13Z"/>
</svg>
