<svg id="tnt-Dot-SessionExpiring" xmlns="http://www.w3.org/2000/svg" width="45" height="45" fill="none" viewBox="0 0 45 45">
  <g clip-path="url(#a)">
    <path fill="var(--sapContent_Illustrative_Color15)" fill-rule="evenodd" d="M36.028 38.665v2.491C36.028 43.277 29.966 45 22.5 45c-7.467 0-13.528-1.723-13.528-3.844 0-.097.012-.191.037-.286l-.037-.01v-2.197c0 1.951 6.061 3.535 13.528 3.535 7.466 0 13.528-1.584 13.528-3.535v.002Zm-.025-.214.025.005v.209a.862.862 0 0 0-.025-.211v-.003Zm-27.029.214v-.209L9 38.451c-.015.07-.025.142-.025.212v.002Z" clip-rule="evenodd"/>
    <path fill="var(--sapContent_Illustrative_Color26)" fill-rule="evenodd" d="M22.5 35.129c7.466 0 13.528 1.584 13.528 3.535 0 1.952-6.062 3.536-13.528 3.536-7.467 0-13.528-1.584-13.528-3.536 0-1.951 6.061-3.535 13.528-3.535Z" clip-rule="evenodd"/>
    <path fill="var(--sapContent_Illustrative_Color2)" fill-rule="evenodd" d="M32.517 8.374a13.512 13.512 0 0 1-1.942 4.632c-.952 1.44-2.441 2.68-3.834 3.787-1.862 1.48-3.244 2.757-3.237 3.903v.107c0 2.012 4.833 4.262 7.071 7.646 2.014 3.048 2.434 6.29 2.375 9.908a.426.426 0 0 1 .005.08c0 1.272-4.685 2.304-10.453 2.304S12.05 39.707 12.05 38.436c0-.027 0-.054.005-.08-.063-3.617.36-6.86 2.374-9.907 2.238-3.384 7.071-5.632 7.071-7.646v-.107c.008-1.146-1.372-2.424-3.237-3.903-1.392-1.107-2.884-2.347-3.834-3.787a13.53 13.53 0 0 1-1.942-4.632c2.476.637 6.047 1.037 10.015 1.037 3.968 0 7.541-.4 10.015-1.037Z" clip-rule="evenodd"/>
    <path fill="var(--sapContent_Illustrative_Color15)" fill-rule="evenodd" d="M29.452 14.398c-.207.229-.652.65-.654.65-1.074.698-2.877.999-4.786 1.088-2.894.137-6.037-.246-7.36-.676l-.132-.12a8.33 8.33 0 0 1 .446-.072c1.964-.276 3.416-.99 4.691-1.64 1.201-.615 2.233-1.179 3.421-1.191 3.116-.033 4.133 1.489 4.374 1.964v-.003ZM36.025 2.73v.037-.037Zm-27.05.037V2.71h.002c0 .02-.003.037-.003.057Zm27.053 0v2.079h-.005C35.84 6.425 29.852 7.693 22.5 7.693c-7.352 0-13.528-1.308-13.528-2.922V2.767c0 1.527 6.061 2.767 13.525 2.767s13.528-1.24 13.528-2.767h.003Z" clip-rule="evenodd"/>
    <path fill="var(--sapContent_Illustrative_Color21)" fill-rule="evenodd" d="M32.8 6.666a16.22 16.22 0 0 1-.283 1.708c-2.476.637-6.046 1.037-10.015 1.037-3.968 0-7.54-.4-10.014-1.037a16.986 16.986 0 0 1-.284-1.708c2.481.63 6.176 1.027 10.299 1.027 4.122 0 7.817-.398 10.298-1.027Z" clip-rule="evenodd"/>
    <path fill="var(--sapContent_Illustrative_Color15)" fill-rule="evenodd" d="M8.975 4.084v-.06h.002l-.002.06Zm1.079 34.32V4.77h1.412V38.4c0 .254-.316.46-.706.46-.39 0-.706-.206-.706-.46v.002Zm23.54 0V4.77h1.412V38.4c0 .254-.316.46-.706.46-.39 0-.706-.206-.706-.46v.002Z" clip-rule="evenodd"/>
    <path fill="var(--sapContent_Illustrative_Color28)" fill-rule="evenodd" d="M11.463 6.459v.29s-.565.597-1.412.207V5.915c.38.193.855.375 1.412.544Zm22.131-.025v.681s.706.137 1.412-.537V5.89a8.74 8.74 0 0 1-1.412.544Z" clip-rule="evenodd"/>
    <path fill="var(--sapContent_Illustrative_Color26)" fill-rule="evenodd" d="M22.5 0c7.466 0 13.528 1.24 13.528 2.767S29.966 5.535 22.5 5.535c-7.467 0-13.528-1.241-13.528-2.768C8.972 1.241 15.036 0 22.5 0Z" clip-rule="evenodd"/>
    <path fill="var(--sapContent_Illustrative_Color3)" d="M16.323 14.327a8.985 8.985 0 0 1 2.88.121c1.53.316 2.797.786 3.978 1.11 1.24.338 2.39.512 3.633.216.649-.154 1.434-.48 1.986-.729a37.546 37.546 0 0 1-2.25 1.92c-1.062.843-1.76 1.43-2.394 2.24-.184.236-.403.562-.657 1.146-.226.522-.465 1.03-.497 2.439v6.007c2.07.31 4.035 2.58 5.478 4.063.742.764 3.576 2.991-2.343 2.785a41.172 41.172 0 0 0-.9-.015c1.835.448 3.33.506 4.115.094 1.05-.55 2.83-1.052 3.412-1.209.136 1.04.188 2.11.188 3.21 0 .214-.002.429-.005.642.005.025.005.055.005.08s0 .052-.005.076L18.19 39.6c-.249-.027-.587-.054-.826-.084l-4.965-.478c-.183-.154-.301-.31-.338-.474l.142-3.782c.02-.169.042-.338.067-.505.187-.17.898-.754 2.071-.923.366-.054.873-.099 1.482-.106 1.015-1.976 4.167-4.192 6.19-4.462v-5.953c-.005-1.558-.479-2.44-.541-2.581-.57-1.28-1.522-2.096-3.018-3.285-.963-.763-1.97-1.589-2.81-2.503.183-.055.415-.1.68-.137Z"/>
    <path fill="var(--sapContent_Illustrative_Color15)" fill-rule="evenodd" d="M32.746 34.376c.18 1.283.226 2.608.201 3.988a.426.426 0 0 1 .005.08c0 1.272-4.684 2.297-10.452 2.297s-10.453-1.025-10.453-2.298c0-.027 0-.054.005-.08-.024-1.461.03-2.861.237-4.214.708.93 2.963 3.456 6.516 3.456 4.354 0 5.289-2.282 9.138-2.846 2.953-.433 4.323-.416 4.8-.383h.003Z" clip-rule="evenodd"/>
  </g>
  <defs>
    <clipPath id="a">
      <path fill="var(--sapContent_Illustrative_Color8)" d="M0 0h45v45H0z"/>
    </clipPath>
  </defs>
</svg>
