<svg id="tnt-Dot-ChartFlow" xmlns="http://www.w3.org/2000/svg" width="45" height="45" fill="none" viewBox="0 0 45 45">
  <path fill="var(--sapContent_Illustrative_Color21)" fill-rule="evenodd" d="m13.783 38.688 30.54-5.454c.191-.034.198-.302.012-.348l-19.15-4.77a1.762 1.762 0 0 0-.702-.032L.37 31.8a.436.436 0 0 0-.117.827l12.836 5.97c.215.1.458.132.694.088v.003Z" clip-rule="evenodd"/>
  <path fill="var(--sapContent_Illustrative_Color25)" d="m5.34 11.57 35.118-2.112 4.513 19.625c.03.132.035.262.02.381a.845.845 0 0 1-.11.33.758.758 0 0 1-.224.241.705.705 0 0 1-.313.118l-33.955 4.255a1.065 1.065 0 0 1-.794-.222 1.191 1.191 0 0 1-.285-.316 1.125 1.125 0 0 1-.155-.408L5.34 11.57Z"/>
  <path fill="var(--sapContent_Illustrative_Color13)" d="M38.881 6.251a.874.874 0 0 1 .34.054 1.155 1.155 0 0 1 .7.802l.54 2.35-35.12 2.114-.454-2.612a.922.922 0 0 1 .013-.392.86.86 0 0 1 .45-.556.994.994 0 0 1 .381-.1l33.15-1.66Z"/>
  <path fill="var(--sapContent_Illustrative_Color14)" d="M10.39 34.406a1.067 1.067 0 0 1-.795-.222 1.191 1.191 0 0 1-.285-.316 1.112 1.112 0 0 1-.155-.408L5.34 11.57l-.454-2.61a.905.905 0 0 1 .163-.706l-.576.75a1.018 1.018 0 0 0-.093.15.912.912 0 0 0-.07.546l.448 2.583 3.75 21.65a1.141 1.141 0 0 0 .802.903c.134.04.275.052.417.033l33.649-4.25.968-.467-33.955 4.255Z"/>
  <path fill="var(--sapContent_Illustrative_Color13)" d="M37.368 17.78c.298-.025.58.207.64.526l.466 2.438c.063.323-.122.61-.41.642l-4.86.558c-.303.028-.585-.207-.645-.526l-.106-.552-.17-.88-.197-1.022c-.063-.325.129-.614.42-.645l4.86-.539h.002Z"/>
  <path fill="var(--sapContent_Illustrative_Color20)" d="m29.045 20.35 3.24-.364.169.88-3.446.389.106-.163c.141-.223.107-.533-.069-.743Z"/>
  <path fill="var(--sapContent_Illustrative_Color14)" d="M25.823 17.903a.554.554 0 0 1 .4.132l2.733 2.224a.624.624 0 0 1 .09.09c.18.214.214.524.07.743l-.107.163-1.56 2.394-.113.172a.477.477 0 0 1-.36.22.53.53 0 0 1-.288-.057.755.755 0 0 1-.113-.072l-2.579-2.086-.166-.135a.665.665 0 0 1-.216-.73.48.48 0 0 1 .053-.107l1.792-2.729a.468.468 0 0 1 .36-.216l.004-.006Z"/>
  <path fill="var(--sapContent_Illustrative_Color20)" d="m27.448 23.646.805 4.182c.016.082.085.141.157.135l2.625-.316.17.883-2.62.317s-.022 0-.031.003c-.51.044-1.003-.364-1.112-.924l-.758-3.948a.53.53 0 0 0 .288.057.472.472 0 0 0 .36-.22l.113-.172.003.003Z"/>
  <path fill="var(--sapContent_Illustrative_Color13)" d="M19.314 19.776c.307-.029.598.21.66.535l.198 1.034.172.893.107.558c.066.332-.129.623-.433.658l-5.438.623c-.317.028-.608-.213-.67-.539l-.483-2.503c-.063-.332.134-.626.441-.658l2.35-.26.827-.09 2.265-.251h.004Z"/>
  <path fill="var(--sapContent_Illustrative_Color20)" d="m16.352 16.418.696 3.609-.827.09-.696-3.611.827-.088Zm7.265 4.538a.665.665 0 0 0 .216.73l.166.135-3.656.414-.172-.893 3.45-.386h-.004Z"/>
  <path fill="var(--sapContent_Illustrative_Color15)" d="M38.75 25.168c.3-.025.576.204.636.52l.47 2.437c.062.323-.123.61-.414.648l-7.47.915c-.307.028-.586-.204-.648-.523l-.123-.64-.169-.882-.178-.937c-.063-.326.125-.617.42-.651l7.476-.89v.003Z"/>
  <path fill="var(--sapContent_Illustrative_Color9)" d="M19.89 12.187c.308-.028.599.213.662.539l.498 2.587c.062.329-.132.617-.433.652l-4.266.45-.826.088-2.716.288c-.313.029-.608-.213-.67-.538l-.501-2.616c-.063-.332.134-.623.441-.654l7.812-.799v.003Z"/>
</svg>
