<svg id="tnt-Dot-Lock" xmlns="http://www.w3.org/2000/svg" width="45" height="45" fill="none" viewBox="0 0 45 45">
  <path fill="var(--sapContent_Illustrative_Color28)" d="m2.856 36.3 3.102-.035.504 2.438-3.606.006V36.3v.002Z"/>
  <path fill="var(--sapContent_Illustrative_Color29)" d="M1.254 35.005v2.323l1.605 1.381v-2.386l-1.605-1.318Z"/>
  <path fill="var(--sapContent_Illustrative_Color28)" d="m7.873 38.983 4.287-.223v2.532l-4.287.102v-2.411Z"/>
  <path fill="var(--sapContent_Illustrative_Color29)" d="m7.87 38.975-1.679-1.081.012 2.323 1.67 1.171v-2.415l-.003.002Z"/>
  <path fill="var(--sapContent_Illustrative_Color28)" d="m37.977 37.635 3.594-.184v2.31l-3.593.083v-2.21Z"/>
  <path fill="var(--sapContent_Illustrative_Color29)" d="m37.977 37.643-1.603.082.01 1.596 1.595.52v-2.198h-.002Z"/>
  <path fill="var(--sapContent_Illustrative_Color28)" d="M7.195 5.767 43.88 7.569v30.195L7.195 39.116V5.766Z"/>
  <path fill="var(--sapContent_Illustrative_Color30)" d="m10.121 8.47 30.833 1.51v25.298l-30.833 1.134V8.47ZM.669 10.16l6.527-4.393v33.349L.669 35.848V10.161Z"/>
  <path fill="var(--sapContent_Illustrative_Color13)" d="m10.582 9.153 29.922 1.445v24.18L10.582 35.86V9.153Z"/>
  <path fill="var(--sapContent_Illustrative_Color14)" d="m12.395 11.307 26.457 1.234v20.686l-26.457.926V11.307Z"/>
  <path fill="var(--sapContent_Illustrative_Color22)" d="M15.023 17.602h-1.576v11.042h1.576V17.603Z"/>
  <path fill="var(--sapContent_Illustrative_Color13)" d="M15.581 18.064h-1.575v11.042h1.575V18.064Z"/>
  <path fill="var(--sapContent_Illustrative_Color8)" d="M15.387 18.464h-.225v9.822h.225v-9.822Z"/>
  <path fill="var(--sapContent_Illustrative_Color22)" d="M19.506 22.944c-.173 4.205 3.063 7.573 7.003 7.52 3.714-.052 6.683-3.158 6.822-6.935.137-3.767-2.584-7.095-6.266-7.456-3.904-.386-7.387 2.677-7.56 6.871Z"/>
  <path fill="var(--sapContent_Illustrative_Color13)" d="M20.312 22.978c-.17 4.177 3.028 7.528 6.923 7.476 3.671-.05 6.609-3.14 6.748-6.896.137-3.747-2.554-7.057-6.196-7.413-3.862-.382-7.304 2.664-7.475 6.833Z"/>
  <path fill="var(--sapContent_Illustrative_Color8)" d="m22.117 20.325 1.162.733c.092-.186.193-.367.307-.538l-1.139-.718c-.213-.134-.462-.127-.552.018-.092.144.01.37.222.507v-.002Zm.667 2.72c0-.035.005-.074.007-.11h-1.426c-.254 0-.458.14-.458.31 0 .17.204.31.458.31h1.424a5.527 5.527 0 0 1-.005-.51Zm1.89-3.682c.166-.125.339-.237.52-.338l-.634-1.072c-.128-.218-.352-.323-.5-.236-.148.088-.162.334-.034.552l.648 1.094Zm2.967-.883v-1.202c0-.254-.139-.458-.31-.458-.17 0-.308.204-.308.458v1.202c.204-.014.41-.014.618 0Zm3.855 2.85 1.225-.665c.222-.121.336-.341.253-.491-.08-.15-.327-.175-.55-.054l-1.201.652c.103.178.193.366.271.557l.002.002Zm-1.617-2.037.619-1.115c.123-.222.1-.466-.05-.55-.15-.082-.37.03-.493.25l-.605 1.087c.183.097.358.207.527.328h.002ZM23.16 25.16l-1.22.664c-.221.121-.336.34-.253.491.081.15.328.175.55.054l1.197-.65a4.727 4.727 0 0 1-.273-.557v-.002Zm10.14-2.224h-1.424c.01.163.013.33.006.495 0 .043-.009.083-.01.123H33.3c.253 0 .457-.138.457-.309 0-.17-.204-.31-.457-.31Zm-.754 3.229-1.17-.738a5.053 5.053 0 0 1-.306.538l1.146.722c.213.135.462.128.552-.018.092-.143-.009-.37-.222-.507v.003Zm-5.236 1.857c-.097 0-.191-.011-.287-.018v1.206c0 .254.139.458.309.458.17 0 .31-.204.31-.458v-1.206c-.11.007-.22.016-.332.016v.002Zm2.675-.904a4.58 4.58 0 0 1-.516.343l.637 1.077c.127.217.352.323.5.235.148-.087.161-.334.033-.552l-.652-1.103h-.002Zm-5.205.082-.617 1.11c-.124.221-.101.466.049.549.15.083.37-.03.493-.25l.606-1.09a4.668 4.668 0 0 1-.53-.32h-.002Z"/>
  <path fill="var(--sapContent_Illustrative_Color14)" d="M22.784 23.084c-.11 2.733 1.96 4.965 4.525 4.976 2.469.013 4.476-2.045 4.572-4.59.095-2.544-1.749-4.755-4.204-4.95-2.552-.204-4.786 1.834-4.893 4.564Z"/>
  <path fill="var(--sapContent_Illustrative_Color20)" d="M23.046 23.054c-.103 2.602 1.866 4.725 4.31 4.739 2.35.011 4.263-1.947 4.353-4.37.09-2.42-1.666-4.526-4.003-4.712-2.429-.193-4.555 1.746-4.66 4.343Z"/>
  <path fill="var(--sapContent_Illustrative_Color14)" d="M24.214 24.041c-.065 1.624 1.158 2.956 2.696 2.976 1.502.02 2.743-1.227 2.8-2.78.06-1.555-1.08-2.88-2.578-2.968-1.532-.09-2.855 1.15-2.918 2.772Z"/>
  <path fill="var(--sapContent_Illustrative_Color20)" d="M24.726 23.163c-.063 1.617 1.148 2.951 2.675 2.983 1.492.029 2.72-1.202 2.781-2.752.058-1.547-1.074-2.877-2.559-2.973-1.52-.1-2.832 1.128-2.895 2.742h-.002Z"/>
  <path fill="var(--sapContent_Illustrative_Color14)" d="m27.54 19.218-1.336 1.03a.483.483 0 0 0-.164.199l-.365.82 1.635-.43.233-1.617-.002-.002Z"/>
  <path fill="var(--sapContent_Illustrative_Color8)" d="M27.603 20.899c-1.442-.088-2.682 1.018-2.864 2.51-.005-.084-.018-.162-.014-.245.063-1.615 1.375-2.84 2.896-2.743 1.484.097 2.617 1.427 2.558 2.974-.002.08-.022.155-.031.233-.058-1.442-1.137-2.644-2.547-2.729h.002Z"/>
  <path fill="var(--sapContent_Illustrative_Color8)" d="m28.148 19.688.1.446c.089.408-.176.799-.528.776l-.233-.016c-.354-.022-.594-.45-.469-.847l.135-.433c.177-.57.865-.516.995.074Z"/>
</svg>
