<svg id="tnt-Dialog-RoadMap" xmlns="http://www.w3.org/2000/svg" width="160" height="160" fill="none" viewBox="0 0 160 160">
  <rect width="160" height="69" y="50" fill="var(--sapContent_Illustrative_Color20)" rx="12"/>
  <path fill="var(--sapContent_Illustrative_Color21)" d="M122.235 69.863a10.68 10.68 0 0 0-1.204-1.975L122.787 50H26.344l.837 17.758c-.938.564-2.003 1.212-3.05 1.865v.008l-.003-.008c-2.601 1.621-5.095 3.273-5.271 3.75-.376 1.02-4.37 20.26-4.68 21.657 0 0-3.31 23.578-3.294 23.925.525.063 2.214.041 2.214.041l11.9-.041-.73-21.012s.106-.48 3.64-5.112c.149-.194.29-.384.428-.568l.373 7.912a3.776 3.776 0 0 0 .16.913c.03.095.062.19.1.28l1.514 3.752c.069.19.152.371.25.544a3.76 3.76 0 0 0 1.135 1.23 4.337 4.337 0 0 0 1.616.675 5.217 5.217 0 0 0 1.92.011l73.154-12.886c.95 1.307 1.815 2.353 2.146 2.71.708.763 2.289 1.744 2.453 2.453.164.709 2.834 4.524 4.143 7.958.727 1.91 2.068 4.868 4.202 11.183l16.913-.035c-1.79-3.541-3.223-6.342-3.617-7.005-1.199-2.017-3.925-8.068-4.088-9.758-.545-3.706-1.356-3.886-1.792-4.268-.436-.382-.944-1.69-1.316-2.832-.333-1.022.228-2.626.173-3.825-.054-1.2.253-3.578.372-5.374.055-.817-.163-6.977-.926-8.067-.763-1.09-1.658-5.634-2.203-6.779-.545-1.145-1.747-1.41-2.782-1.192Z"/>
  <path fill="var(--sapContent_Illustrative_Color31)" d="M34.708 77.566c.08.597-.725 1.568-1.215 2.097-.596-.39-1.138-.86-1.637-1.365-1.272-1.29-2.412-2.814-3.099-4.492a1.21 1.21 0 0 1-.105-.548c3-1.87 6.139-3.697 6.139-3.697l3.696.777s.39.758.153 2.006c-.237 1.248-4.047 4.367-3.932 5.22v.002Z"/>
  <path fill="var(--sapContent_Illustrative_Color3)" d="M33.386 79.775c-.756-.283-1.177-.884-1.532-1.477-.004-.007-.012-.012-.017-.018.235-.074.412-.28.523-.502.118-.238.177-.5.279-.746.102-.245.26-.484.5-.595.08-.036.175-.063.217-.14.098-.173-.152-.482-.24-.62-.137-.216-.286-.426-.4-.656-.074-.148.123-.282.237-.163.15.154.3.314.345.379.236.333.594.583.957.25.134-.122.227-.28.342-.42.07-.087.15-.166.208-.26.047-.077.08-.161.118-.242.19-.403.524-.732.675-1.151.193-.532-.032-.935-.157-1.438-.074-.3-.118-.61-.114-.92.001-.132.021-.282.13-.359.099-.068.242-.043.33.039.19.175.121.514.266.727.111.165.328.236.52.217.181-.019.33-.127.446-.26.272-.306.403-.739.554-1.111l.06-.15.853.179s.392.758.154 2.006c-.237 1.248-4.047 4.367-3.932 5.22.08.598-.83 1.681-1.32 2.21l-.002.001Z"/>
  <path fill="var(--sapContent_Illustrative_Color3)" d="M30.529 77.804a.275.275 0 0 1 .133.05c.177.108.342.239.527.333.052.027.107.051.164.07.163.176.331.347.504.513.433.415.898.805 1.399 1.14l-.128.126s.017.058.05.138c-.421.405-.813.841-1.203 1.226-.234.231-.474.46-.737.66a2.32 2.32 0 0 1-.107.076c-.039.026-.041.029-.064.04a1.49 1.49 0 0 1 .209-.538c.17-.245.41-.425.62-.633.224-.219.424-.47.469-.79a1.024 1.024 0 0 0-.412-.984c-.265-.193-.581-.285-.833-.496a3.246 3.246 0 0 1-.666-.763c-.018-.028-.035-.058-.031-.09.005-.048.058-.08.105-.08v.002Z"/>
  <path fill="var(--sapContent_Illustrative_Color9)" d="M127.014 39.015c.47 0 .905.125 1.289.347.384.221.715.537.983.928.267.39.467.852.586 1.363.118.511.158 1.069.101 1.654l-4.91 50.025a4.778 4.778 0 0 1-.386 1.457c-.202.46-.469.893-.785 1.272-.316.38-.681.705-1.076.955s-.82.426-1.257.503l-81.443 14.345a5.286 5.286 0 0 1-1.953-.011 4.37 4.37 0 0 1-1.644-.687 3.803 3.803 0 0 1-1.154-1.251 3.766 3.766 0 0 1-.483-1.7l-2.87-63.966a5.281 5.281 0 0 1 1.5-3.95 5.426 5.426 0 0 1 1.754-1.2 5.433 5.433 0 0 1 2.168-.433l89.583.351-.003-.002Zm-2.102 54.343 4.9-50.048c.027-.279.031-.551.016-.815a4.554 4.554 0 0 0-.112-.761 4.257 4.257 0 0 0-.226-.691 3.361 3.361 0 0 0-.757-1.108 2.598 2.598 0 0 0-1.093-.626 2.394 2.394 0 0 0-.643-.085l-89.556-.292a5.222 5.222 0 0 0-2.063.413 4.993 4.993 0 0 0-.895.49 5.25 5.25 0 0 0-.775.653 5.04 5.04 0 0 0-1.365 2.695 5.192 5.192 0 0 0-.064 1.064l2.844 63.926c.014.298.062.586.139.856.077.27.184.527.32.764a3.63 3.63 0 0 0 1.1 1.191c.226.156.471.292.735.402.263.11.54.195.83.252.289.057.592.09.903.092.312.003.63-.024.957-.081l81.467-14.304c.209-.037.413-.096.615-.177.202-.082.395-.183.583-.301.189-.119.369-.257.54-.408a4.73 4.73 0 0 0 .9-1.078 4.853 4.853 0 0 0 .571-1.317c.061-.232.105-.47.129-.708"/>
  <path fill="var(--sapContent_Illustrative_Color8)" d="M36.684 110.982a3.64 3.64 0 0 1-1.1-1.191 3.609 3.609 0 0 1-.459-1.62l-2.84-63.926a5.084 5.084 0 0 1 .797-2.971c.18-.286.394-.549.629-.79.234-.242.493-.461.774-.652s.58-.356.895-.492c.316-.136.648-.237.995-.307a5.36 5.36 0 0 1 1.068-.105l89.554.292a2.42 2.42 0 0 1 1.225.33c.182.104.353.231.509.38.156.15.298.317.426.503a3.5 3.5 0 0 1 .331.606c.092.217.169.447.226.691a4.77 4.77 0 0 1 .097 1.576l-4.901 50.048a4.614 4.614 0 0 1-.366 1.39 5.12 5.12 0 0 1-.749 1.213 4.593 4.593 0 0 1-1.024.908 3.509 3.509 0 0 1-.584.3 3.2 3.2 0 0 1-.615.179L40.11 111.647a5.341 5.341 0 0 1-.957.082 4.844 4.844 0 0 1-.904-.093 4.258 4.258 0 0 1-.83-.252"/>
  <path fill="var(--sapContent_Illustrative_Color17)" d="m121.931 38.465-86.352-.479a4.888 4.888 0 0 0-.935.077 4.338 4.338 0 0 0-.301.062 4.792 4.792 0 0 0-.503.144l-.243.09a4.684 4.684 0 0 0-.593.283 4.243 4.243 0 0 0-.338.209c-.05.033-.098.068-.149.103-.048.035-.096.07-.145.108a5.278 5.278 0 0 0-.14.112c-.046.04-.092.076-.136.118l-.13.12c-.041.043-.085.084-.125.126-.04.042-.081.085-.12.13-.04.043-.08.087-.117.133l-.118.145c-.04.048-.077.099-.112.15-.035.05-.073.1-.108.153a6.145 6.145 0 0 0-.1.158c-.038.061-.075.125-.113.189a5.47 5.47 0 0 0-.197.395c-.03.068-.06.136-.086.204a5.09 5.09 0 0 0-.338 1.538c-.01.18-.01.362-.002.546l2.877 61.054a3.873 3.873 0 0 0 .084.63 3.888 3.888 0 0 0 .18.584l1.586 3.93a3.537 3.537 0 0 1-.241-.93 4.192 4.192 0 0 1-.029-.334L32.012 44.25a5.56 5.56 0 0 1 .068-1.135 5.174 5.174 0 0 1 .386-1.277c.031-.07.066-.14.1-.211.034-.07.07-.138.107-.204.037-.068.077-.134.116-.2a3.15 3.15 0 0 1 .108-.166c.037-.055.074-.11.114-.163l.118-.158c.04-.053.082-.103.126-.154a4.113 4.113 0 0 1 .25-.276l.131-.132c.044-.044.09-.085.136-.127l.143-.125.147-.119.152-.114c.05-.037.103-.072.155-.107.057-.04.117-.077.176-.112a2.34 2.34 0 0 1 .18-.105 3.85 3.85 0 0 1 .184-.1c.062-.03.125-.063.189-.091a4.96 4.96 0 0 1 .502-.205 5.7 5.7 0 0 1 .262-.083c.087-.026.177-.048.265-.07a5.189 5.189 0 0 1 .963-.138c.11-.007.222-.01.332-.01l89.582.352-5.087-.55.014-.005Z"/>
  <path fill="var(--sapContent_Illustrative_Color9)" d="M127.014 39.015c.47 0 .905.125 1.289.347.384.221.715.537.983.928.267.39.467.852.586 1.363.118.511.158 1.069.101 1.654l-4.91 50.025a4.778 4.778 0 0 1-.386 1.457c-.202.46-.469.893-.785 1.272-.316.38-.681.705-1.076.955s-.82.426-1.257.503l-81.443 14.345a5.286 5.286 0 0 1-1.953-.011 4.37 4.37 0 0 1-1.644-.687 3.803 3.803 0 0 1-1.154-1.251 3.766 3.766 0 0 1-.483-1.7l-2.87-63.966a5.281 5.281 0 0 1 1.5-3.95 5.426 5.426 0 0 1 1.754-1.2 5.433 5.433 0 0 1 2.168-.433l89.583.351-.003-.002Zm-2.102 54.343 4.9-50.048c.027-.279.031-.551.016-.815a4.554 4.554 0 0 0-.112-.761 4.257 4.257 0 0 0-.226-.691 3.361 3.361 0 0 0-.757-1.108 2.598 2.598 0 0 0-1.093-.626 2.394 2.394 0 0 0-.643-.085l-89.556-.292a5.222 5.222 0 0 0-2.063.413 4.993 4.993 0 0 0-.895.49 5.25 5.25 0 0 0-.775.653 5.04 5.04 0 0 0-1.365 2.695 5.192 5.192 0 0 0-.064 1.064l2.844 63.926c.014.298.062.586.139.856.077.27.184.527.32.764a3.63 3.63 0 0 0 1.1 1.191c.226.156.471.292.735.402.263.11.54.195.83.252.289.057.592.09.903.092.312.003.63-.024.957-.081l81.467-14.304c.209-.037.413-.096.615-.177.202-.082.395-.183.583-.301.189-.119.369-.257.54-.408a4.73 4.73 0 0 0 .9-1.078 4.853 4.853 0 0 0 .571-1.317c.061-.232.105-.47.129-.708"/>
  <g opacity=".5">
    <path fill="var(--sapContent_Illustrative_Color2)" d="M47.727 38.96c-10.222 25.275-4.943 52.811 12.214 69.206l-2.136.374C40.95 91.657 35.921 64.177 45.841 38.955l1.886.006Z"/>
    <path fill="var(--sapContent_Illustrative_Color2)" d="M54.252 38.982c-11.129 24.906-5.957 52.672 11.743 68.12l-.832.146c-17.565-15.67-22.617-43.397-11.63-68.268l.719.002Zm19.784.065a51.858 51.858 0 0 0-2.25 3.828c-11.683 21.977-5.356 47.74 13.494 57.76a34.289 34.289 0 0 0 5.068 2.191l-3.346.588a36.71 36.71 0 0 1-2.546-1.228l-.464-.251C64.623 91.277 58.394 64.932 69.957 42.582l.279-.532a53.48 53.48 0 0 1 1.727-3.01l2.073.007Z"/>
    <path fill="var(--sapContent_Illustrative_Color2)" d="M87.82 39.092a39.1 39.1 0 0 0-6.444 8.88c-9.025 16.98-4.159 36.938 10.47 44.715 10.656 5.664 23.771 3.42 33.597-4.776l-.149 1.528c-10.023 7.88-23.146 9.967-33.962 4.217l-.356-.193c-14.88-8.188-19.666-28.427-10.783-45.597l.215-.408a40.276 40.276 0 0 1 5.912-8.371l1.5.005Z"/>
    <path fill="var(--sapContent_Illustrative_Color2)" d="M107.217 39.155c-6.489 1.53-12.608 6.112-16.286 13.032-6.295 11.84-2.92 25.774 7.294 31.204 9.512 5.057 21.818 1.07 28.548-9.065l-.131 1.341c-7.012 9.639-19.169 13.386-28.727 8.306l-.247-.134C87.422 78.2 84.079 64.317 90.056 52.446l.294-.569c3.342-6.286 8.68-10.717 14.526-12.73l2.341.008Zm11.757.038c.75.285 1.489.62 2.213 1.004l.247.134c3.431 1.887 6.087 4.7 7.879 8.052l-.12 1.232c-1.768-3.735-4.585-6.854-8.315-8.837a18.578 18.578 0 0 0-4.11-1.592l2.206.007Z"/>
  </g>
  <path fill="var(--sapContent_Illustrative_Color9)" fill-rule="evenodd" d="M126.997 39.22a2.436 2.436 0 0 1 1.225.33c.182.104.353.231.509.38.156.15.298.317.426.503.127.187.239.389.331.606.092.217.169.447.226.691a4.773 4.773 0 0 1 .096 1.576l-4.9 50.048a4.613 4.613 0 0 1-.366 1.39 5.117 5.117 0 0 1-.749 1.213c-.151.18-.313.349-.485.5-.171.152-.353.29-.54.408a3.463 3.463 0 0 1-.583.301c-.2.079-.406.14-.615.178L40.11 111.647a4.932 4.932 0 0 1-1.861-.011 4.313 4.313 0 0 1-.735-.215l.002-.004c-.06-.025-.119-.053-.178-.08l-.82-.477a3.602 3.602 0 0 1-.934-1.069 3.609 3.609 0 0 1-.459-1.62l-2.84-63.926a5.084 5.084 0 0 1 .796-2.972 5.045 5.045 0 0 1 1.404-1.441 5.028 5.028 0 0 1 1.89-.799c.346-.07.702-.105 1.068-.105l89.554.292Zm-89.245.07a5.31 5.31 0 0 0-1.056.105l-.255.058a4.858 4.858 0 0 0-.728.245 5.306 5.306 0 0 0-.886.486 4.96 4.96 0 0 0-.765.645l-.17.183a4.965 4.965 0 0 0-.908 1.494l-.085.24a4.968 4.968 0 0 0-.247 1.8l2.81 63.189c.012.295.058.58.136.847a3.478 3.478 0 0 0 1.24 1.811l.176.103.714.415c.258.109.533.193.82.25.215.042.437.071.664.084l.23.006c.308.003.625-.023.946-.08l80.523-14.138a3.11 3.11 0 0 0 .458-.12l.149-.056c.197-.078.392-.18.577-.297a4.15 4.15 0 0 0 .404-.294l.129-.11c.127-.112.249-.234.366-.363l.114-.131c.11-.135.216-.275.314-.422l.096-.149a5.18 5.18 0 0 0 .256-.467l.074-.162a5.36 5.36 0 0 0 .185-.501l.049-.171a4.72 4.72 0 0 0 .106-.524l.022-.177 4.844-49.47c.021-.207.028-.41.024-.609l-.009-.197a4.758 4.758 0 0 0-.072-.57l-.039-.183a4.047 4.047 0 0 0-.158-.519l-.065-.164a3.464 3.464 0 0 0-.237-.457l-.091-.141a3.14 3.14 0 0 0-.421-.497 2.584 2.584 0 0 0-.37-.296l-.133-.082a2.386 2.386 0 0 0-1.046-.32l-.164-.005-88.521-.288Z" clip-rule="evenodd"/>
  <ellipse cx="109.869" cy="63.177" fill="var(--sapContent_Illustrative_Color27)" rx="13.444" ry="15.284" transform="rotate(28.383 109.869 63.177)"/>
  <ellipse cx="110.044" cy="63.253" fill="var(--sapContent_Illustrative_Color26)" rx="10.735" ry="12.3" transform="rotate(28.383 110.044 63.253)"/>
  <ellipse cx="91.001" cy="51.805" fill="var(--sapContent_Illustrative_Color17)" rx="3.881" ry="4.121" transform="rotate(28.383 91 51.805)"/>
  <ellipse cx="81.059" cy="82.821" fill="var(--sapContent_Illustrative_Color9)" rx="5.271" ry="5.853" transform="rotate(46.132 81.06 82.821)"/>
  <ellipse cx="56.286" cy="95.127" fill="var(--sapContent_Illustrative_Color1)" rx="4.424" ry="5.141" transform="rotate(58.77 56.286 95.127)"/>
  <ellipse cx="44.933" cy="85.49" fill="var(--sapContent_Illustrative_Color11)" rx="6.402" ry="7.418" transform="rotate(65.41 44.933 85.49)"/>
  <ellipse cx="64.968" cy="60.631" fill="var(--sapContent_Illustrative_Color16)" rx="8.552" ry="9.068" transform="rotate(59.093 64.968 60.63)"/>
  <ellipse cx="57.056" cy="55.281" fill="var(--sapContent_Illustrative_Color15)" rx="4" ry="4.235" transform="rotate(67.093 57.056 55.28)"/>
  <path fill="var(--sapContent_Illustrative_Color31)" d="m14.619 127.491 3.908-28.392c.316-1.42 4.378-20.99 4.76-22.026.179-.486 2.716-2.166 5.362-3.815.113.451.297.886.509 1.298.295.575.651 1.117 1.033 1.638.343.468.718.907 1.083 1.357.648.796.696.732.821 1.053-.028.37.852 1.1.942 1.264.09.165.31.95.863.759.554-.19 2.372-3.763 2.723-4.305.351-.543 6.673-7.674 8.395-3.91 1.722 3.766-3.224 7.037-4.183 8.093-.96 1.056-2.167 2.84-3.316 6.354-1.15 3.515-1.432 5.29-5.028 10.002-3.595 4.711-3.703 5.199-3.703 5.199l.883 25.43H14.618v.001Z"/>
  <path fill="var(--sapContent_Illustrative_Color3)" d="M30.529 77.803a.282.282 0 0 1 .133.05c.177.108.341.239.526.333.185.095.399.155.601.108a.284.284 0 0 0 .054-.017c.248-.095.248.105.248.293 0 .433.897 1.183.948 1.287.05.103.105.235.139.315-.422.405-.814.841-1.204 1.226-.234.231-.474.46-.737.66a2.177 2.177 0 0 1-.107.076c-.039.025-.041.029-.064.04a1.492 1.492 0 0 1 .209-.538c.17-.245.409-.425.62-.633.224-.219.424-.47.469-.79a1.025 1.025 0 0 0-.412-.984c-.265-.193-.582-.285-.833-.496a3.25 3.25 0 0 1-.666-.763c-.018-.028-.035-.058-.031-.09.005-.048.057-.08.105-.08l.002.003Zm-9.15 49.69c-.075-1.454-.655-4.039-.453-5.482.393-2.819 1.196-5.556 1.743-8.345.275-1.404.427-2.827.703-4.232.28-1.429.603-2.864 1.038-4.255.685-2.19 1.73-4.235 3.152-6.037a27.84 27.84 0 0 1 2.36-2.595c.822-.807 1.534-1.628 2.088-2.647 1.12-2.06 1.602-4.387 2.405-6.573.816-2.225 1.992-4.25 3.561-6.029.77-.873 1.602-1.691 2.433-2.507.788-.774 2.221-1.73 2.82-2.67.472-.741.533-1.43.31-2.418a9.55 9.55 0 0 0-.768-2.21c.958-.276 1.783-.093 2.249.923 1.722 3.765-3.225 7.036-4.183 8.092-.96 1.056-2.167 2.84-3.317 6.354-1.149 3.515-1.432 5.29-5.027 10.002-3.595 4.711-3.703 5.199-3.703 5.199l.883 25.431H21.38l-.001-.001Z"/>
  <path fill="var(--sapContent_Illustrative_Color31)" d="M119.196 104.007c.166.721 2.883 4.602 4.214 8.095.88 2.31 2.628 6.078 5.586 15.375h17.924c-2.693-5.354-5.17-10.249-5.713-11.162-1.22-2.051-3.992-8.205-4.158-9.924-.555-3.77-1.379-3.953-1.823-4.341-.443-.388-.96-1.718-1.339-2.88-.338-1.04.233-2.671.177-3.89-.055-1.22.257-3.64.379-5.466.055-.832-.166-7.097-.943-8.206-.776-1.109-1.686-5.73-2.24-6.894-.554-1.164-1.776-1.434-2.83-1.213-.332-.72-.981-1.815-1.591-2.425-.61-.61-1.108-.672-1.718-.783-.488-.089-1.251.213-1.491.404a9.625 9.625 0 0 0-1.187-1.693c-.657-.732-2.552-.606-3.247-.314-.608.246-1.668 1.613-2.031 2.21l1.872 4.997.159-.387c.222.295.385.428.518.871.167.555.126 1.845-.151 1.457l-.006-.008a5.216 5.216 0 0 1-.711-1.393l-1.696-5.561c-.123-.433-.279-.697-.338-.855-.234-.625-.887-1.442-1.497-3.549-.61-2.106-2.033-7.59-2.473-7.851-.808-.48-1.523-.195-2.295.555-1.014.986 0 5.8 0 7.296 0 1.8.817 4.88 1.815 7.873.998 2.994 1.036 3.3 1.036 4.462-.278-.969-.852-2.042-2.349-4.093-1.497-2.051-2.968-1.514-3.689-.96-.721.554.581 3.363.581 4.084 0 .72.277 2.939.887 4.88.61 1.94 1.109 4.49 1.109 5.82 0 1.331.388 2.33 1.608 5.268 1.22 2.938 4.435 6.93 5.156 7.706.721.776 2.329 1.774 2.495 2.495Z"/>
  <path fill="var(--sapContent_Illustrative_Color9)" d="m42.653 76.103-.57-.297a2.993 2.993 0 0 1-1.239-1.208l-.308-.558s1.953-4.11 4.104-2.353c2.379 1.943-1.987 4.416-1.987 4.416Zm68.61-15.248c.181.515.645.386 1.108.386.701-.144 1.168-.42 1.314-.54-.18-.568-.67-1.944-.876-2.294-.257-.438-1.03-.206-1.391 0s-.541.67-.541.799.206 1.134.386 1.649Zm-1.209 15.123-1.83 1.418h-.438c-.18-.653-.566-2.124-.669-2.783-.129-.825.309-1.03.798-1.185.49-.155 1.572.438 1.83.721.206.227.292 1.314.309 1.83Z"/>
  <path fill="var(--sapContent_Illustrative_Color3)" d="M131.976 104.161c-.206-.876 1.958.103 2.576 0 1.87.339 2.37 4.892 2.113 4.843-.258-.052-4.483-3.968-4.689-4.843Zm-6.075-22.591c.888-.533 1.243 1.42 2.308 2.487 1.066 1.065 2.842-.622 3.641 0 .799.621 1.155 10.033.711 10.567-.356.426-1.51 1.776-2.043 2.398-.385-.355-1.208-1.333-1.421-2.398-.266-1.332-1.953-3.108-2.664-3.02-.568.072.237 3.642.711 5.418-.296-.415-1.137-1.776-2.132-3.907 0-1.51-5.86-8.437-5.772-9.058.089-.622 1.954 0 2.576 0 .621 0 3.196-1.954 4.085-2.487Zm-15.064-6.188c.499-.565.695.195 1.628 1.498.934 1.303 1.217 2.8 1.217 3.821 0 1.02.022 2.497 0 2.91-.022.412-.044 3.04-.304 3.343-.261.304 0 2.28 0 2.41 0 .13-.76-1.671-.5-2.04.261-.37-.084-1.144-.149-1.426-.065-.283.38-2.291.281-3.19-.079-.72-.284-1.073-.392-2.007-.109-.933-1.281-1.975-1.651-2.345-.369-.369-.335-2.742-.13-2.974Zm18.196-1.932c.123.202.396.694.5 1.041.13.434.543 2.844.717 3.54.173.694 1.302 2.474 1.129 2.366-.174-.109-1.021-1.107-1.303-1.542-.282-.434-.738-1.997-.934-2.757 0-.799-.478-2.027-.717-2.54l.608-.109Zm-4.82-2.997c.434.97 1.325 2.992 1.412 3.322.108.413.065 1.932.152 2.323s1.063 2.084.499 1.541c-.565-.542-1.715-3.734-2.171-5.645-.087-.344-.355-1.012-.478-1.303l.586-.239Zm-7.057.456c.499-.399 1.528-1.173 1.65-1.086.152.109.304.195.152.586.065.825.912 2.389 1.237 3.344.261.765-.39 4.017-.369 3.322.022-.695-.602-1.532-.602-1.532l-.418.772c-.355-1.158-1.09-3.548-1.195-3.843a35.529 35.529 0 0 1-.455-1.563Z"/>
</svg>
