<svg id="tnt-Spot-Radar" xmlns="http://www.w3.org/2000/svg" width="128" height="128" fill="none" viewBox="0 0 128 128">
  <rect width="128" height="55" y="40" fill="var(--sapContent_Illustrative_Color20)" rx="8"/>
  <path fill="var(--sapContent_Illustrative_Color13)" d="M63.307 96.293h16.168l-.154-.512-.154-.512-3.595-11.95-.307-1.023-3.88-12.923-4.114 13.693-.33 1.124-3.334 11.083-.153.512-.154.512.008-.004Z"/>
  <path fill="var(--sapContent_Illustrative_Color14)" d="M67.36 83.566c2.918.543 5.513-.755 7.531-2.506l-3.549-11.53-3.979 14.04-.004-.004Z"/>
  <path fill="var(--sapContent_Illustrative_Color22)" d="M62.407 79.589c.666.662 1.377 1.22 2.123 1.69 3.564 2.225 7.862 2.182 10.43-.385 1.87-1.867 2.4-4.658 1.68-7.41-.465-1.814-1.472-3.6-2.983-5.113-3.825-3.822-9.439-4.407-12.55-1.3-3.11 3.094-2.521 8.714 1.304 12.526v-.008h-.004Z"/>
  <path fill="var(--sapContent_Illustrative_Color13)" d="M62.872 78.843c.665.662 1.377 1.22 2.123 1.69 3.564 2.225 7.858 2.182 10.43-.385 1.869-1.867 2.4-4.658 1.68-7.41-.465-1.814-1.472-3.6-2.983-5.113-3.826-3.822-9.439-4.408-12.55-1.301-3.11 3.095-2.522 8.715 1.304 12.526v-.007h-.004Z"/>
  <path fill="var(--sapContent_Illustrative_Color14)" d="M65.11 81.079c.869.362 1.738.604 2.603.754a34.729 34.729 0 0 0 6.305-8.003 37.222 37.222 0 0 0 1.915-3.815c-1.123-1.497-2.737-2.764-4.71-3.592-4.994-2.075-10.407-.477-12.1 3.577-1.69 4.046.993 9.015 5.987 11.082v-.003Z"/>
  <path fill="var(--sapContent_Illustrative_Color13)" d="M58.132 100h25.69v-3.704h-25.69v3.703Z"/>
  <path fill="var(--sapContent_Illustrative_Color22)" d="M63.308 96.292h16.167l-.154-.512H63.458l-.154.512h.004Z"/>
  <path fill="var(--sapContent_Illustrative_Color14)" d="m69.993 83.539-2.718 12.245-2.91.531V100h-6.237v-3.703l5.256-.258 3.89-12.973 2.719.47v.004Z"/>
  <path fill="var(--sapContent_Illustrative_Color22)" d="M68.493 82.88 64.06 96.04l-4.952.477V100h-.98v-3.704l5.333-.515 3.971-13.231h1.319l-.254.33h-.004Z"/>
  <path fill="var(--sapContent_Illustrative_Color8)" d="M76.437 72.96s1.246 5.27-1.96 7.165c0 0 2.272-3.207 1.757-7.099-.52-3.892.207-.065.207-.065h-.004Zm2.095 22.797-4.145-14.29-.076.085 2.964 14.151.007.081m-4.67-22.651c19.323-13.25 30.431-30.65 24.818-38.857-5.614-8.207-25.826-4.115-45.15 9.139-19.323 13.246-30.434 30.642-24.817 38.85 5.613 8.207 25.829 4.118 45.152-9.132h-.003Z"/>
  <path fill="var(--sapContent_Illustrative_Color20)" d="M85.373 60.646s-2.473 1.782-7.26 2.783a7.135 7.135 0 0 0 1.05-1.813s.392-.77.231-1.27c7.101-13.262 3.33-27.686 3.33-27.686l-.696 1.482c2.514 15.056-2.042 24.76-2.7 26.058-.184-.293-.65-.424-1.676-.097 0 0-1.734.424-6.182 3.985h-.654v-.358h-.796l-.338.277-.25-.277v-.562l-1.215-.212-2.472 2.337.654.254h1.36l.67-.828s.38 1.216 1.93.042l1.196-.042s-3.165 3.187-1.488 3.738c0 0 .161 0 .442-.039-11.273 8.412-23.576 11.118-31.07 11.976a7.984 7.984 0 0 1-1.591-1.709c-3.71-5.42-.112-14.855 8.327-24.456 1.727 1.151 9.8 6.39 18.451 9.497l-17.924-10.09c4.256-4.73 9.677-9.485 15.967-13.8 5.579-3.827 11.23-6.883 16.587-9.108-7.62 1.978-16.444 6.074-25.095 12.006-19.332 13.25-30.447 30.643-24.83 38.85 3.991 5.836 15.376 5.455 28.567-.027-7.42 1.928-13.687 1.848-17.528-.504 20.17-3.588 29.035-11.118 30.758-12.75a7.636 7.636 0 0 0 3.668-1.994s1.757-1.005 3.125-2.656c2.542-.435 5.452-1.167 8.082-2.399 0 0 1.446-.007 1.446-1.416 0 0-1.157-1.174-2.08.797l.004.011Zm-14.176 3.661h-.008.012-.004Z"/>
  <path fill="var(--sapContent_Illustrative_Color14)" d="m45.425 41.298-.104 2.04.354 10.44-1.25-1.412-.392-9.67-.718-.42 2.068-1.686.038.712.004-.004Z"/>
  <path fill="var(--sapContent_Illustrative_Color14)" d="m51.058 37.91-1.769-.215c.362-.335.677-.647.923-.924l1.523-1.197 30.293-1.436.695-1.482-30.538 1.451s-.185-.011-1.089.87l-.069.081a.526.526 0 0 0-.057-.08l-3.657-4.397c.004.089.008.17-.019.254-.42 1.486-4.548 4.512-5.986 5.3-.573.317-1.261.694-1.919.72l3.353 4.128-1.903 1.536-10.331 39.203h1.619l10.396-38.81 2.899-2.18-.073-.069c.776-.454 1.618-1.05 2.406-1.67h.189l1.734-.278 36.79 22.381 1.119-1.178-36.529-22.007Z"/>
  <path fill="var(--sapContent_Illustrative_Color22)" d="M66.033 65.792c2.399-1.643 3.706-3.903 2.93-5.046-.78-1.14-3.36-.736-5.76.908-2.395 1.644-3.706 3.904-2.93 5.047.78 1.143 3.36.735 5.76-.909Z"/>
  <path fill="var(--sapContent_Illustrative_Color8)" d="M65.995 65.53c1.988-1.362 3.218-3.014 2.753-3.691-.461-.678-2.45-.123-4.437 1.236-1.988 1.362-3.218 3.014-2.753 3.691.465.678 2.45.127 4.437-1.235Z"/>
  <path fill="var(--sapContent_Illustrative_Color13)" d="M66.056 62.759c-1.407-2.256-2.826-4.496-4.206-6.764-.084-.138-.165-.277-.284-.389-.258-.246-.73-.25-1.073-.261a2.628 2.628 0 0 0-.754.092c-.234-.558-.465-1.116-.703-1.674l-.554-1.32c-.088-.205-.192-.713-.361-.863-.37-.316-.992-.062-1.358.13-.2.105-.4.228-.545.401-.081.093-.466.743-.354.859.942.954 1.85 1.951 2.776 2.93.057.057.107.114.165.172-.292.4-.5.993-.35 1.428.054.158.154.297.254.435.592.809 1.188 1.613 1.772 2.43a2508.3 2508.3 0 0 1 3.58 4.98c.561-.026 1.126-.157 1.588-.465.415-.277.8-.658.888-1.155.073-.404-.285-.65-.485-.97l.004.004Z"/>
  <path fill="var(--sapContent_Illustrative_Color22)" d="m51.058 38.456 11.004 6.652-11.227-6.594-.02-.011-.022-.008-.973-.304 1.238.265Zm-.1-3.376.08.104-.026.074c-.104.265-.492.931-1.865 2.317l-.177.177-.165.166-3.637-4.474c.062-.057.142-.13.235-.219.223-.212.522-.508.826-.84.304-.33.615-.7.861-1.058.15-.22.281-.446.37-.662l3.498 4.416Zm31.108-1.747L52.104 34.71h-.038l-.035.015-.75.343 1.08-.774 29.697-1v.038h.008Zm-36.695 7.295-2.142 1.609.804.458.98.524.397 10.212.21.181-.245-12.98-.004-.004Z"/>
  <path fill="var(--sapContent_Illustrative_Color8)" d="m44.475 42.927.143 9.431-.512-9.635.37.204Z"/>
  <path fill="var(--sapContent_Illustrative_Color14)" d="M56.917 51.688s.496-.27 1.146-.135l1.88 3.904s1.073-.524 1.75.523c.68 1.047 5.024 7.638 5.024 7.638s-.111.481-.626.908c-.181.15-5.548-8.823-6.387-8.811l-2.068-3.538-.719-.489Z"/>
  <path fill="var(--sapContent_Illustrative_Color8)" d="m56.917 51.688.042-.02.838.193 1.927 3.865 1.434.447 5.344 7.953-.388.566-5.422-7.907-1.288-.781-2.045-3.623-.442-.689v-.004Z"/>
  <path fill="var(--sapContent_Illustrative_Color20)" d="M66.06 65.442h-.238l-1.2-.154s1.696-.42 2.1-1.67l-.281-.42-.093-.142 2.15.08s-.985 1.483-2.438 2.31v-.004Z"/>
  <path fill="var(--sapContent_Illustrative_Color8)" d="m40.13 37.194 3.13 4.273-1.715 1.22-10.403 38.83 10.792-38.756 1.7-1.313.657-.223-.685.111-3.483-4.673-.342.093.346.442.004-.004Zm4.938-4.022 3.802 4.742 2.092.482L87.81 60.538 50.85 38.631l-2.353-.343-3.71-4.858"/>
  <path fill="var(--sapContent_Illustrative_Color20)" d="M39.643 36.898c-.846-.027.115-1.513 2.164-3.326 2.061-1.836 4.453-3.322 5.333-3.314h.023c.846.027-.119 1.513-2.164 3.33-2.069 1.836-4.457 3.314-5.337 3.314h-.023l.004-.004Z"/>
  <path fill="var(--sapContent_Illustrative_Color8)" d="M46.86 30.854c-.074-.077-.24 0-.366.162-.13.162-.173.358-.1.435-.096.254-.37.708-1.142 1.209 0 0 .857-.27 1.238-.955l.134-.289a.643.643 0 0 0 .139-.134c.13-.162.177-.358.1-.435l-.004.007Zm34.975 65.758.023 3.157 1.088.02v-3.173h-1.111v-.004Z"/>
</svg>
