<svg id="tnt-Spot-FaceID" xmlns="http://www.w3.org/2000/svg" width="128" height="128" fill="none" viewBox="0 0 128 128">
  <path fill="var(--sapContent_Illustrative_Color20)" fill-rule="evenodd" d="M128 49.6v36c0 5.298-4.302 9.6-9.6 9.6H9.6c-5.298 0-9.6-4.302-9.6-9.6v-36C0 44.302 4.302 40 9.6 40h108.8c5.298 0 9.6 4.302 9.6 9.6Z" clip-rule="evenodd"/>
  <path fill="var(--sapContent_Illustrative_Color21)" d="M78.118 40c.068.206.072.364.072.367 1.958-.423 2.117 1.328 2.117 1.328 1.757-.103 1.664 1.434 1.663 1.45 1.898-.015 1.522 1.614 1.519 1.627 1.679.16 1.142 1.883 1.14 1.89 1.774.437.968 2.032.961 2.046 1.575.37.698 2.169.698 2.169 1.904.91.359 2.388.35 2.396 1.627.893.176 2.292.176 2.292 1.315 1.18-.044 2.29-.11 2.342 1.356 1.048-.205 2.168-.205 2.168.678.903-.544 1.669-.558 1.678.403 1.312-.79 1.647-.79 1.647.524 1.425-.86 1.676-.873 1.679.379 1.247-.67 1.694-1.216 1.837a1.237 1.237 0 0 1-1.531 1.34 1.236 1.236 0 0 1-1.371 1.184 1.235 1.235 0 0 1-1.64.55 1.318 1.318 0 0 1-.166.543 1.25 1.25 0 0 1-1.04.605 5.942 5.942 0 0 1-1.213 1.927c.011.853.112 2.365.29 3.815 0 .2.229.438.232.439.017.022 2.3 3.114 2.93 4.297.066.122.129.25.194.381 4.822.88 7.9 1.272 12.525 2.913 4.36 1.547 5.564 3.804 6.922 10.295H42.69c.119-.385.246-.897.383-1.153 1.738-3.25 7.56-5.897 9.9-6.878.979-.41 3.335-1.469 6.051-2.6.858-2.205 1.945-5.44 2.602-5.974a179.815 179.815 0 0 1-.065-5.4l.443-.018-.001-.002.896-.036c.136-.372.295-.827.456-1.324a1.4 1.4 0 0 1-1.934-1.264 1.397 1.397 0 0 1-2.257-.447 1.398 1.398 0 0 1-.733-.13 1.405 1.405 0 0 1-.786-1.209c-2.26.283-2.595-1.95-2.596-1.957-2.267.035-1.49-2.036-1.487-2.046-1.779.052-1.261-1.899-1.26-1.905-1.221-.16-.807-1.868-.805-1.875-.92-.349-.388-1.44-.383-1.45-1.29-.556-.308-1.965-.299-1.978-1.552-.872-.299-2.32-.295-2.325-1.52-1.083.064-2.567.068-2.571-1.167-1.584.46-2.322.474-2.329-.712-1.667.73-2.193.75-2.2-.66-1.693 1.18-2.166 1.192-2.17-.35-2.152 1.575-2.204 1.575-2.204-.123-2.133 1.694-1.786 1.694-1.786.367-1.87 2.221-1.432 2.221-1.432a1.31 1.31 0 0 1 .205-.542h19.419Z"/>
  <path fill="var(--sapContent_Illustrative_Color13)" d="M63.21 81.249s4.913.076 9.844.98c4.932.906 8.03 1.285 12.715 2.948 4.685 1.662 5.67 3.93 7.18 11.637.156.793.297 1.585.426 2.369H35.447c.27-2.136.633-3.95 1.122-4.865 1.739-3.249 7.56-5.896 9.9-6.877 2.34-.98 12.547-5.67 16.741-6.196v.004Z"/>
  <path fill="var(--sapContent_Illustrative_Color14)" d="M62.62 77.364c5.993 0 7.759.957 7.759.957l2.675 3.904v.004l1.356.242 3.975 9.717-4.689-1.296s-2.598 5.55-6.35 8.29h-7.514c-1.607-1.289-3.434-3.444-5.297-6.58-.008.004-1.69.9-4.892 1.819 0 0 1.22-7.607 2.882-9.581 1.663-1.974 4.103-7.476 10.095-7.476Z"/>
  <path fill="var(--sapContent_Illustrative_Color8)" fill-rule="evenodd" d="M62.234 76.941c1.978 0 3.95.16 5.428.32.37.04.708.08 1.007.118l.777.102h.002a49.974 49.974 0 0 0 .556.082l.037.006.078.012.05.061.058.08c.062.086.155.212.266.367.112.155.245.338.39.541l.469.657.436.623c.363.526.717 1.054.98 1.48l.147.243.002.002.136.24.002.004c.409.768.807 1.732 1.376 3.107l.437 1.05a157.25 157.25 0 0 0 1.805 4.156l.16.352-3.834-.756c-.037.089-.091.21-.152.35a48.77 48.77 0 0 1-.56 1.24c-.46.987-1.058 2.207-1.626 3.135-.57.927-1.738 2.643-3.228 4.028-.242.224-.492.439-.75.64h-7.169a11.87 11.87 0 0 1-.154-.118c-.958-.748-1.89-1.688-2.705-2.656a21.698 21.698 0 0 1-2.04-2.833 10.578 10.578 0 0 1-.618-1.183c-.149-.347-.242-.64-.266-.861l-2.91 1.244.023-.325c.007-.114.02-.268.031-.43v-.004c.04-.469.105-1.114.197-1.826.183-1.423.489-3.105.961-4.144.472-1.038 1.096-2.824 1.694-4.364.3-.77.594-1.475.857-1.998a4.59 4.59 0 0 1 .371-.63.926.926 0 0 1 .175-.188.554.554 0 0 1 .064-.044l.012-.007a.43.43 0 0 0-.024.016.201.201 0 0 0-.035.035l-.008.011.066.085a.293.293 0 0 1-.012-.07.348.348 0 0 1 .032-.058l-.003-.004.025-.02.055-.054h.026l.085-.047a14.118 14.118 0 0 1 1.856-.841c1.246-.464 2.983-.925 4.96-.925h.005Zm-7.096 1.938a.198.198 0 0 0 .018.24.66.66 0 0 1 .086-.087.184.184 0 0 1-.037-.069l-.067-.084Z" clip-rule="evenodd"/>
  <path fill="var(--sapContent_Illustrative_Color16)" d="M61.44 37.937c1.257-1.292 2.129.08 2.133.087 1.276-.944 1.75.228 1.75.228 1.54-.961 2.098.47 2.098.47 1.726-.907 2.095.675 2.097.682 2.133-.439 2.17 1.224 2.17 1.224 1.957-.418 2.116 1.328 2.116 1.328 1.763-.104 1.663 1.446 1.663 1.45 1.903-.015 1.524 1.623 1.523 1.628 1.678.155 1.136 1.89 1.136 1.89 1.782.438.96 2.045.96 2.045 1.568.365.707 2.15.699 2.169 1.906.909.35 2.396.35 2.396 1.626.892.178 2.29.176 2.293 1.347 1.208-.112 2.344-.112 2.344 1.352 1.043-.186 2.156-.203 2.169.68.906-.55 1.673-.558 1.678.4 1.305-.773 1.64-.786 1.643.527 1.435-.873 1.678-.873 1.678.383 1.248-.67 1.695-1.216 1.838a1.237 1.237 0 0 1-1.535 1.34 1.236 1.236 0 0 1-1.232 1.192c-.048 0-.092 0-.136-.008a1.233 1.233 0 0 1-1.638.55 1.257 1.257 0 0 1-.167.543c-.307.526-.981.75-1.543.514a1.234 1.234 0 0 1-.455-.327 1.234 1.234 0 0 1-2.07.439 1.443 1.443 0 0 1-.159.478 1.42 1.42 0 0 1-1.834.594 1.393 1.393 0 0 1-.534-.446c-.084.307-.275.598-.761.797-.303.12-.643.132-.938 0a1.219 1.219 0 0 1-.661-.746 1.404 1.404 0 0 1-1.79 1.228 1.404 1.404 0 0 1-.997-1.192l-.024.052a1.4 1.4 0 0 1-2.66-.534 1.403 1.403 0 0 1-1.714.395 1.404 1.404 0 0 1-.785-1.228 1.394 1.394 0 0 1-1.587.25 1.39 1.39 0 0 1-.67-.697c-.243.02-.494-.02-.734-.135a1.408 1.408 0 0 1-.79-1.204c-2.254.281-2.592-1.939-2.595-1.958-2.264.036-1.492-2.03-1.487-2.045-1.778.051-1.262-1.898-1.26-1.906-1.224-.156-.805-1.87-.805-1.87-.927-.35-.389-1.447-.387-1.452-1.293-.556-.303-1.971-.299-1.977-1.555-.873-.299-2.325-.299-2.325-1.52-1.082.066-2.565.072-2.571v-.004c-1.172-1.59.47-2.325.47-2.325-.717-1.678.754-2.204.754-2.204-.662-1.689 1.167-2.164 1.188-2.17-.35-2.144 1.56-2.204 1.575-2.204-.123-2.122 1.679-1.786 1.698-1.782.366-1.863 2.207-1.439 2.221-1.436.226-1.443 2.06-1.053 2.081-1.048.765-2.141 2.587-.974 2.608-.961.77-1.75 2.22-.49 2.22-.49 1.225-1.699 2.536-.367 2.536-.367Z"/>
  <path fill="var(--sapContent_Illustrative_Color31)" d="M62.872 89.361s-2.72-1.033-3.5-1.714c-.782-.682-3.88-3.35-4.107-6.045-.228-2.695-.204-8.137-.204-8.137l14.537-.578s0 3.377.327 5.267c0 0 .024 2.04-.479 3.4-.502 1.36-2.292 4.458-3.074 5.192-.781.73-2.974 2.567-3.5 2.619v-.004Z"/>
  <path fill="var(--sapContent_Illustrative_Color28)" d="m55.5 73.446 14.094-.562s0 3.377.327 5.267c0 0 .024 2.041-.478 3.4-.347.942-1.312 2.712-2.13 3.96C57.175 80.898 55.5 73.446 55.5 73.446Z"/>
  <path fill="var(--sapContent_Illustrative_Color31)" d="M61.057 46.114c.793-.072.722.482 1.934.327 1.212-.156 1.65-.156 2.13.056.477.211.749.805 1.582 1.008.833.204 1.064.316 1.61.778.547.462.49 1.12 1.037 1.583.546.462.861.546 1.208 1.092s.032 1.02.235 1.567c.204.546.53.196.837.698l.022.037c.073.208.138.41.197.604.004.25-.082.53-.262.938-.335.757.526.988.67 1.534.143.547-.582 1.288-.192 1.97.145.252.23.688.284 1.139-.059 1.91-.255 4.226-.559 7.242-.554 5.49-1.762 6.3-3.325 7.707-1.563 1.411-3.525 2.97-6.443 2.974-2.918 0-4.884-1.563-6.443-2.974-1.43-1.292-2.563-2.076-3.17-6.409a1.405 1.405 0 0 1-.773.26c-.87.04-1.248-1.172-1.703-3.173-.454-2.001-.793-3.74 0-3.891.686-.131 1.653.67 1.904.891a69.55 69.55 0 0 1-.114-1.86v-.248c0-.138-.051-.434.308-1.036.33-.893.16-1.236 0-1.958-.005-.01-.312-.72.259-1.236.37-.334.374-.949.315-2.04-.06-1.093.996-1.89 1.26-2.038.263-.148.924-.937 1.184-1.854.259-.917.75-1.34 1.268-1.487.518-.148.949-.156 1.523-.67.574-.515.347-.801.905-.989.558-.187.45.052.937.188.486.135.582-.658 1.375-.73Z"/>
  <path fill="var(--sapContent_Illustrative_Color3)" d="M64.393 46.333c.289.012.504.064.727.163.478.211.75.805 1.583 1.009.833.203 1.064.315 1.61.777.547.463.49 1.12 1.037 1.583.546.462.861.546 1.208 1.092.347.547.032 1.021.235 1.567.204.546.53.196.837.698l.016.026c.075.214.143.421.202.621.004.25-.083.528-.261.932-.335.757.526.989.67 1.535.143.546-.582 1.288-.192 1.97.144.25.23.686.283 1.136a60.439 60.439 0 0 1-.127 2.412c.404-.313 1.109-.776 1.642-.674.794.152.455 1.89 0 3.891-.454 2.002-.833 3.214-1.702 3.174a1.465 1.465 0 0 1-.545-.127c-.611 4.216-1.735 5-3.151 6.275-1.563 1.412-3.525 2.97-6.443 2.975-1.515 0-2.771-.423-3.848-1.025 2.998.255 4.402-.467 4.78-1.723h-.007c.4-1.327-1.308-2.11-1.308-1.933 2.065-.957 1.2-3.206 1.2-3.206.447-.957 0-2.217 0-2.217 1.99.439 2.452-1.184 2.452-1.184l1.759 1.997c.586-1.303.925-1.985 2.173-3.476 1.242-1.485.836-2.503.833-2.512-.89.622-2.297.359-2.863.263-.566-.095-1.455-.47-1.55-.781-.096-.307.48-.407.481-.407 1.774.305 2-1.703 2.002-1.722 0 0-1.02-1.132-2.456-.53-1.435.602-1.511 3.173-1.511 3.173l-1.284.263s-.076-.642 0-2.077.455-3.062 1.284-3.588c.83-.526 2.077-.263 2.077-.263 1.746-5.072-.514-8.578-1.843-10.087Zm-4.624 18.142c-.059.076-.71.947-.638 1.96a.99.99 0 0 0-.849.247c.004-.014.473-1.866 1.487-2.207Zm.004-.002-.004.002.004-.006v.004Zm-3.469-7.75c.006 0 1.062-.084 1.46-.048.399.036 2.105 0 2.587 1.63l.008.004s.283 1.133.188 1.587c-.096.455-1.248.953-1.248.953-.004-.01-.318-.862-1.312-1.048-1-.188-2.743-.395-3.405.494 0 0 .574-2.177 3.257-2.101l-1.535-1.471Z"/>
  <path fill="var(--sapContent_Illustrative_Color29)" d="M53.498 57.68s1.108-.969 1.926-.969c.817 0 1.914.415 2.795.654.88.24 1.838.443 2.041.315.203-.128.128-.87.112-.969-.016-.1-.391-.35-1.184-.442-.794-.092-1.627-.128-2.811-.076-1.184.052-2.504.466-2.883 1.487h.004Zm17.492 0s-1.109-.969-1.926-.969c-.818 0-1.914.415-2.795.654-.881.24-1.838.443-2.041.315-.204-.128-.128-.87-.112-.969.016-.1.39-.35 1.184-.442.793-.092 1.627-.128 2.81-.076 1.185.052 2.505.466 2.883 1.487h-.003Zm-9.63 8.736c-.008-.215-.379-.53-.757-.518-.38.012-.682.303-.682.566 0 .263.379.339.65.303.27-.036.793-.144.785-.35h.004Zm1.575.188c.044.183.455.215.718.171.263-.044.435-.171.435-.438s-.144-.363-.443-.343c-.299.02-.773.339-.71.614v-.004Z"/>
  <path fill="var(--sapContent_Illustrative_Color1)" d="M62.218 72.808c.705 0 1.347-.036 2.053-.555.706-.518 1.79-1.535 1.802-1.686.012-.152-.92-.443-1.51-.794-.591-.35-.894-.566-1.5-.554-.606.012-.845.263-.845.263s-.291-.263-.858-.263c-.566 0-1.335.379-1.738.718-.403.339-.706.554-1.26.682 0 0 1.2 1.295 2.181 1.738.981.443 1.109.454 1.675.454v-.004Z"/>
  <path fill="var(--sapContent_Illustrative_Color11)" d="M62.218 72.807c-.566 0-.694-.012-1.675-.454-.618-.275-1.32-.893-1.754-1.312a.65.65 0 0 1 .203-.151s.164-.152 1.312-.164c1.144-.012 2.532 0 3.126 0 1.336 0 1.954.427 1.954.427l.103.063c-.37.351-.841.762-1.212 1.033-.706.518-1.347.554-2.053.554h-.004v.004Z"/>
  <path fill="var(--sapContent_Illustrative_Color29)" d="M59.299 60.85c-.148-.008-.901-.49-.989-.406-.08.654-.801 1.212-1.435.837-.347-.203-.459-.522-.618-.865-.474.171-1.077.478-1.535.111-.096-.077-.141-.152-.136-.227.22-.379.722-.582 1.129-.69 1-.267 2.208-.21 3.03.415.247.187.554.498.554.825Zm8.632-.435c-.175.75-.9 1.336-1.614.754a1.124 1.124 0 0 1-.423-.758l-.989.434c.016-.382.47-.793.778-.984.94-.582 2.998-.57 3.807.227.204.203.196.315-.051.47-.515.323-1.001-.008-1.504-.151l-.004.008Z"/>
  <path fill="var(--sapContent_Illustrative_Color8)" d="M40.094 77.732v-6.415h1.196v6.415c0 1.474 1.132 2.624 2.444 2.624h7.739v1.196h-7.74c-2.036 0-3.64-1.752-3.64-3.82Zm0-31.123c0-2.072 1.603-3.82 3.64-3.82h8.034v1.196h-8.034c-1.313 0-2.444 1.147-2.444 2.624v7.116h-1.196V46.61Zm43.876 0c0-1.473-1.132-2.624-2.444-2.624h-7.475V42.79h7.475c2.038 0 3.64 1.752 3.64 3.82v7.204H83.97V46.61Zm0 31.123v-6.196h1.197v6.196c0 2.072-1.604 3.82-3.64 3.82h-7.344v-1.197h7.344c1.312 0 2.444-1.147 2.444-2.623Z"/>
  <path fill="var(--sapContent_Illustrative_Color28)" d="M64.062 64.039c.697.273 1.58 1.777 1.43 2.493-.151.712-1.044.568-1.058.566.011-.005.793-.395.682-.945a5.402 5.402 0 0 0-1.054-2.114Zm-13.944-1.68c.116-.24.248-.323.463-.128v.004c-.005.004-.282.24-.116 2.392-.001-.004-.538-1.87-.347-2.268Zm23.415-.412c.215-.195.347-.111.462.128.191.398-.344 2.26-.346 2.269.165-2.146-.11-2.387-.116-2.393v-.004Zm-9.471 2.092-.006-.003h.004l.002.003Z"/>
  <path fill="var(--sapContent_Illustrative_Color8)" d="M87.834 61.928v1.196H36.518v-1.196h51.316Z"/>
  <path fill="var(--sapContent_Illustrative_Color20)" d="M62.893 89.409c.02.013.325.211.313.577-.009.29-.224 6.34-.326 9.194h-.936c.192-2.763.63-9.051.648-9.345.023-.352.27-.42.3-.426Zm-3.69-.834a15.025 15.025 0 0 0 2.54 1.246l-6.81 4.272c-1.208-1.735-1.207-2.572-1.207-2.572l5.477-2.946Zm7.448-1.129c.031.012 6.224 2.476 6.332 2.349.107-.128-.782 1.853-.921 2.04-.14.188-7.96-2.32-7.982-2.328l2.571-2.065v.004Zm-4.904 2.377-.004-.002.004-.002v.004Zm1.146-.414h-.002.005-.003Z"/>
  <path fill="var(--sapContent_Illustrative_Color14)" d="M85.242 95.61s.418 1.469.994 3.572h-.344a33.546 33.546 0 0 0-.65-3.573Z"/>
</svg>
