<svg id="tnt-Dot-Tools" xmlns="http://www.w3.org/2000/svg" width="45" height="45" fill="none" viewBox="0 0 45 45">
  <path fill="var(--sapContent_Illustrative_Color8)" d="M17.07 33.926h-.003s0-.005-.006-.005h.008v.005Z"/>
  <path fill="var(--sapContent_Illustrative_Color8)" d="M17.07 33.926h-.003s0-.002-.006-.002l.008.002Z"/>
  <path fill="var(--sapContent_Illustrative_Color31)" d="M11.365 29.313s4.117 4.676 5.702 4.621L9.72 38.22l-1.36-1.384 2.605-7.26.4-.264Z"/>
  <path fill="var(--sapContent_Illustrative_Color8)" d="M13.277 32.574c-.417-.315-.886-.386-1.286-.37h.15c.078.005.157.008.231.023h.006c.055.008.107.019.162.03a2.03 2.03 0 0 1 .49.176 1.805 1.805 0 0 1 .913 1.239c-.073-.375-.252-.789-.666-1.098Zm-4.144 4.923c-.425-.323-.644-.778-.598-1.155l-.767 2.136-.4 1.122 1.063-.625 1.991-1.17c-.38.108-.875.007-1.289-.303v-.005Zm7.172-3.797a2.407 2.407 0 0 0-.675.07c-.008 0-.01 0-.022.006a2.997 2.997 0 0 0-.57.195 3.355 3.355 0 0 1 1.248-.245l.005-.005c.39.024.65.138.754.195l.033-.02a1.886 1.886 0 0 0-.773-.196Zm-5.148-1.545a.457.457 0 0 0-.044.109 1.36 1.36 0 0 0 .069-.162c-.005.019-.017.034-.025.053Zm-.104.244.011-.008v-.01l-.01.018Zm.274-.661c-.046.111-.082.239-.145.364.315-.773.326-1.44.258-1.9-.008-.05-.02-.09-.025-.122-.01-.029-.014-.052-.02-.065v-.01a1.394 1.394 0 0 0-.073-.198c0-.005 0-.016-.008-.024a1.796 1.796 0 0 0-.242-.356c.063.067.165.177.255.335.22.373.398 1.015 0 1.976Z"/>
  <path fill="var(--sapContent_Illustrative_Color1)" d="m34.775 30.015-.565.216-22.068-12.075.452-.294L34.77 30.015h.005Z"/>
  <path fill="var(--sapContent_Illustrative_Color1)" d="m22.596 36.328-.516.187 12.127-6.284.565-.216-12.18 6.313h.004Z"/>
  <path fill="var(--sapContent_Illustrative_Color26)" d="m14.363 34.35-.094.057a2.076 2.076 0 0 1-.104.07c-.033.024-.203.12-.241.141L34.805 9.99l.06.018a3.965 3.965 0 0 0 .532.107l.181.024h.036c.047.005.09.007.137.007.184.016.36.016.519.008l-20.015 23.61-.014.021-.005.006a3.44 3.44 0 0 0-1.248.244c-.203.08-.417.188-.634.318h.009v-.003Z"/>
  <path fill="var(--sapContent_Illustrative_Color29)" d="M31.794 7.664a.648.648 0 0 1-.041-.089l-.006-.007-.005-.008s-.006-.01-.006-.016c-.008-.002-.008-.01-.008-.01l-.006-.016-.013-.026c-.006-.008-.006-.016-.006-.016l-.008-.015-.006-.016v-.008l-.005-.005v-.005h-.006l-.008-.018-.01-.024V7.38l-.006-.01-.008-.016V7.35l-.009-.01v-.01h-.005v-.005l-.008-.019V7.3l-.006-.007-.008-.016v-.023s0-.013-.008-.021c-.006-.026-.017-.047-.025-.073v-.005c-.005-.031-.02-.06-.027-.089v-.018a1.753 1.753 0 0 1-.025-.065.166.166 0 0 0-.008-.031v-.01l-.006-.016v-.01s-.008-.021-.008-.03c0-.015-.008-.044-.008-.044v-.007a2.011 2.011 0 0 1-.074-.375 2.72 2.72 0 0 1-.025-.364c.005-.36.077-.703.236-1.018l-.052.06-20.552 24.238-2.493 6.956s-.009.02-.028.072l-.77 2.155-.368 1.033 1.067-.622 2.04-1.19v-.01a.224.224 0 0 1-.055.019c-.375.112-.874.01-1.288-.302a1.561 1.561 0 0 1-.552-.752l2.6-7.042c.047.063.036.052.085.148 0 .008 0 .019.008.026a.782.782 0 0 1 .039.097c.162.39.263.996-.033 1.834-.052.156-.129.339-.197.513l-.05.125.776-.859L31.83 7.752l.009-.01c-.014-.026-.033-.055-.044-.083v.005Z"/>
  <path fill="var(--sapContent_Illustrative_Color15)" d="M13.926 34.619c.025-.154.05-.466-.019-.822 0-.021-.008-.04-.008-.06a1.83 1.83 0 0 0-.68-1.086c-.077-.057-.16-.104-.239-.153a2.432 2.432 0 0 0-.142-.068c-.11-.05-.23-.088-.346-.111a4.601 4.601 0 0 0-.162-.03h-.005a1.765 1.765 0 0 0-.23-.02h-.006c-.05 0-.099-.005-.146 0h-.016c-.036 0-.066 0-.096.005-.354.024-.65.11-.8.164L31.9 7.818l.008-.01c.104.169.22.335.35.497.121.153.256.302.41.445.063.062.134.13.208.19.033.028.071.06.107.088.052.047.11.086.162.128a5.028 5.028 0 0 0 1.664.832l-.01.016L13.934 34.62h-.009v-.002Z"/>
  <path fill="var(--sapContent_Illustrative_Color31)" d="M35.656 6.236c-1.594-1.039-2.222-2.631-2.035-3.662l-2.822 3.469c-.968 1.148.057 2.61 1.672 3.924 1.616 1.314 3.78 1.801 4.956.302l2.748-3.315c-.74.622-2.82.393-4.52-.718Z"/>
  <path fill="var(--sapContent_Illustrative_Color25)" d="M40.329 6.766c.675-.97-.28-2.698-2.131-3.859-1.851-1.158-3.903-1.311-4.58-.34-.677.97.28 2.698 2.131 3.858 1.851 1.158 3.902 1.312 4.58.341Z"/>
  <path fill="var(--sapContent_Illustrative_Color8)" d="M39.593 6.886c.327-.362.033-1.104-.652-1.663-.689-.56-1.509-.721-1.835-.362-.326.362-.033 1.103.653 1.663.688.56 1.508.72 1.834.362Z"/>
  <path fill="var(--sapContent_Illustrative_Color24)" d="m1.8 7.042 19.14 35.331 22.7-12.1L1.8 7.041ZM12.608 17.86l22.176 12.152-12.18 6.313-9.996-18.463v-.002Z"/>
  <path fill="var(--sapContent_Illustrative_Color1)" d="m1.8 7.042-.396.362 19.003 35.123.532-.154L1.799 7.042Z"/>
  <path fill="var(--sapContent_Illustrative_Color14)" d="m15.624 27.429-1.873.955.134.237 1.87-.955-.134-.237h.003Z"/>
  <path fill="var(--sapContent_Illustrative_Color1)" d="m8.272 15.492-1.166.593.135.237 1.165-.593-.134-.237Zm3.842 7.083-1.17.599.134.236 1.17-.595-.134-.237v-.003Zm-1.986-3.659-1.168.596.134.237 1.169-.596-.135-.237Zm3.867 7.124-1.154.587.134.237 1.155-.588-.135-.237Zm1.95 3.564-1.166.593.135.237 1.165-.594-.134-.236Zm1.876 3.468-1.157.591.134.237 1.158-.59-.135-.238Zm1.906 3.517-1.155.588.135.237 1.154-.588-.134-.237Z"/>
  <path fill="var(--sapContent_Illustrative_Color26)" d="m37.186 10.581-.623.424c-.49.367-.69-.036-1.58.177a.544.544 0 0 0-.109-.023c-.046 0-.156-.04-.203-.045-.014 0-.033-.01-.044-.01-.057-.01-.035-.018-.096-.026-.12-.018-.093-.034-.208-.06-.063-.01-.082-.028-.14-.044l-.18-.065-13.07 15.421 1.314.294-3.009 3.675c.069.096.491.897.491.897l3.659-4.317 12.944-15.273.483-.57c.112-.09.365-.455.365-.455h.005Z"/>
  <path fill="var(--sapContent_Illustrative_Color29)" d="m15.82 23.756 14.817-17.48.011-.028c-.16.315-.222.45-.23.812 0 .122.293.148.307.27.01.125.038.25.074.375v.008l.008.044c0 .008.006.021.008.029v.01s0 .008.006.016v.01s.008.024.008.032l.025.065v.018c.008.029.022.057.027.088v.006c.008.026.02.046.025.072.005.008.008.01.008.021 0 0-.19-.117-.19-.114l.193.12v.005l.005.005v.005s.006.008.008.016c0 0 0 .005.006.008v.007l.008.019V8.2h.006v.008s.008.007.008.01v.005l.008.016.006.01v.005l.01.024.009.018h.005v.005l.006.005v.008s0 .008.005.016l.008.015s0 .008.006.016c.005.008.008.018.016.026l.006.016s0 .008.008.01c0 .005.006.01.006.016 0 0 0 .002.005.008l.006.007a.58.58 0 0 0 .04.089c.21-.107-.054.133-.04.159l-.116.26-14.143 16.65"/>
  <path fill="var(--sapContent_Illustrative_Color15)" d="M16.79 25.605 31.111 8.71l.008-.01c.105.168.22.335.352.496.12.154.255.302.408.445.063.063.135.13.209.19.032.029.07.06.107.089.052.046.11.086.161.127a5.028 5.028 0 0 0 1.665.833l-.01.015-13.074 15.419"/>
  <path fill="var(--sapContent_Illustrative_Color11)" d="M37.855 7.305c-.771-.208-1.676-.62-2.37-1.14-1.05-.79-1.807-1.553-2.04-2.558L30.502 7.08c-.143.723.491 1.866 1.925 2.943.815.614 1.643.903 2.293 1.007l3.445-3.724h-.31Z"/>
  <path fill="var(--sapContent_Illustrative_Color1)" d="M30.64 7.812c.12.586.57 1.236 1.28 1.905l3.21-3.69c-.585-.583-1.172-1.09-1.463-1.772l-3.025 3.562v-.005h-.002Z"/>
  <path fill="var(--sapContent_Illustrative_Color8)" d="M35.787 11.24c-.927 0-2.065-.344-3.132-1.01-1.942-1.215-2.732-2.943-2.005-3.984l-.008.016c-.505.968.33 2.628 2.153 3.768 1.82 1.14 3.864 1.296 4.511.364l-.052.076c-.329.47-.71.775-1.467.775v-.005Z"/>
  <path fill="var(--sapContent_Illustrative_Color1)" d="m21.312 37.838-1.878.957.233.407 1.878-.958-.233-.406Zm-1.906-3.508-1.879.958.233.406 1.88-.958-.234-.406Zm-1.92-3.51-1.879.957.234.406 1.878-.958-.233-.406Zm-1.963-3.514-1.878.957.233.406 1.878-.957-.233-.406Zm-1.893-3.524-1.878.958.233.406 1.879-.958-.233-.406Zm-1.916-3.492-1.879.958.233.406 1.879-.958-.233-.406ZM9.86 16.845l-1.88.957.234.406 1.878-.957-.233-.406ZM7.869 13.35l-1.879.957.233.406 1.879-.957-.233-.406Z"/>
</svg>
