<svg id="tnt-Dot-Secrets" xmlns="http://www.w3.org/2000/svg" width="45" height="45" fill="none" viewBox="0 0 45 45">
  <path fill="var(--sapContent_Illustrative_Color8)" d="M9.24 10.077s.028.017.04.027a.388.388 0 0 1-.062-.05c.007.008.012.016.022.02v.003Zm.225.15L9.4 10.19l.065.037Zm.193.097s.007 0 .009.005a.032.032 0 0 1-.014-.005h.005Zm.288.098-.039-.012c.012.005.027.008.04.012Z"/>
  <path fill="var(--sapContent_Illustrative_Color16)" d="M17.913.76a9.685 9.685 0 0 1 3.634.49c1.16.387 2.247.977 3.213 1.735a11.173 11.173 0 0 1 2.484 2.706 10.237 10.237 0 0 1 1.43 3.433l1.916 8.886-3.92.345-1.748-8.925a5.564 5.564 0 0 0-.811-1.927 6.08 6.08 0 0 0-1.43-1.514 6.237 6.237 0 0 0-1.858-.963 5.695 5.695 0 0 0-2.096-.256l-.872.06a4.997 4.997 0 0 0-1.962.544 4.471 4.471 0 0 0-2.291 2.934 4.794 4.794 0 0 0-.03 2.04l1.727 9.01-4.082.359-1.662-9.04a8.906 8.906 0 0 1 .052-3.696 7.973 7.973 0 0 1 1.453-3.083 7.774 7.774 0 0 1 2.57-2.151 8.448 8.448 0 0 1 3.416-.93l.87-.052-.003-.005Zm20.559 37.39-3.91 1.23-.286.05 3.899-1.224.297-.053v-.003Z"/>
  <path fill="var(--sapContent_Illustrative_Color29)" d="m38.175 38.202-3.898 1.225-23.054 3.99 2.844-1.097 24.108-4.118Z"/>
  <path fill="var(--sapContent_Illustrative_Color28)" d="M39.54 36.973a1.524 1.524 0 0 1-.174.551 1.223 1.223 0 0 1-.352.414 1.09 1.09 0 0 1-.498.212l-.297.053-24.171 4.117a1.798 1.798 0 0 1-.787-.036 2.053 2.053 0 0 1-.701-.342 2.24 2.24 0 0 1-.84-1.384L8.4 21.907a1.805 1.805 0 0 1 .314-1.42c.14-.191.319-.35.528-.467a1.73 1.73 0 0 1 .707-.215l1.477-.13.16-.013 1.9-.168.157-.014 7.758-.681 8.958-.786.077-.006.834-.072.88-.074.135-.011 1.543-.135c.184-.017.369.01.545.069.179.06.344.157.495.278.151.121.283.273.39.444.108.171.193.359.237.566l4.006 17.277c.05.218.058.433.036.632v-.006l.002-.002Z"/>
  <path fill="var(--sapContent_Illustrative_Color16)" d="M13.283 42.285a2.075 2.075 0 0 1-.702-.342 2.268 2.268 0 0 1-.54-.593 2.29 2.29 0 0 1-.299-.79L8.43 21.91a1.89 1.89 0 0 1 .057-.924 1.746 1.746 0 0 1 .463-.728l-.196.182-.066.063-.17.16-.388.361c-.028.025-.055.053-.077.072-.017.014-.033.03-.052.047l-.047.041-.03.028-.171.16-.261.245c-.02.02-.042.039-.058.056-.028.027-.06.058-.094.085l-.6.563-.021.022c-.07.063-.166.154-.234.218-.1.093-.19.198-.264.314a1.66 1.66 0 0 0-.264.802c-.012.147 0 .301.021.456l3.038 17.639a2.073 2.073 0 0 0 .784 1.301c.2.152.423.26.663.323.24.06.49.074.745.03l2.845-1.1c-.267.047-.534.03-.784-.036h.005l.009-.005Z"/>
  <path fill="var(--sapContent_Illustrative_Color3)" d="M8.67 21.907a1.806 1.806 0 0 1 .314-1.42c.14-.191.318-.35.527-.467a1.74 1.74 0 0 1 .707-.215l1.472-.13.16-.013 1.895-.168.157-.014 7.736-.681 8.936-.786.074-.006.83-.072.878-.074.135-.011 1.538-.135c.184-.017.366.01.542.069a1.759 1.759 0 0 1 .883.722c.107.171.19.359.237.566l3.994 17.277c.05.218.06.433.036.632a1.542 1.542 0 0 1-.173.551 1.247 1.247 0 0 1-.35.414c-.143.108-.31.185-.498.212l-.297.053"/>
  <path fill="var(--sapContent_Illustrative_Color27)" d="m20.94 19.66 13.755-1.283 4.88 18.488L20.936 19.66h.003Z"/>
  <path fill="var(--sapContent_Illustrative_Color29)" d="M31.965 22.618c.372-.03.743.022 1.103.14.358.12.697.304 1.002.541a3.612 3.612 0 0 1 1.293 1.964l.418 1.63c.105.41.13.816.08 1.194-.05.377-.168.728-.347 1.037-.181.308-.424.57-.712.769a2.416 2.416 0 0 1-1.016.392l-18.245 2.573s-.022.002-.033.005c-.01.003-.022 0-.033.003h-.033c-.01.003-.022 0-.033.003a3.034 3.034 0 0 1-1.2-.127 3.575 3.575 0 0 1-1.086-.56 3.73 3.73 0 0 1-.853-.91 3.556 3.556 0 0 1-.503-1.175l-.393-1.735c-.1-.435-.108-.86-.04-1.254a2.88 2.88 0 0 1 .427-1.084c.21-.32.485-.59.812-.792a2.724 2.724 0 0 1 1.114-.391l18.168-2.223s.02 0 .028-.003.019 0 .027-.003h.055v.006Z"/>
  <path fill="var(--sapContent_Illustrative_Color8)" d="M31.542 23.084c.371-.03.742.022 1.1.14.358.119.696.304 1.002.544a3.63 3.63 0 0 1 1.293 1.963l.31 1.238c.105.414.127.817.08 1.194a2.737 2.737 0 0 1-.346 1.038c-.182.308-.424.57-.716.769a2.409 2.409 0 0 1-1.018.389l-17.474 2.457-.03.003h-.031c-.011.002-.02 0-.03.002h-.03a3.04 3.04 0 0 1-1.2-.126 3.54 3.54 0 0 1-1.087-.56 3.782 3.782 0 0 1-.853-.91 3.501 3.501 0 0 1-.503-1.175l-.297-1.307a3.237 3.237 0 0 1-.041-1.255c.068-.397.214-.764.426-1.084a2.67 2.67 0 0 1 .809-.791 2.71 2.71 0 0 1 1.111-.39l17.404-2.137h.06c.011-.002.02 0 .03-.002.011-.003.02 0 .03 0Z"/>
  <path fill="var(--sapContent_Illustrative_Color30)" d="m17.303 29.074-.947.262c-.024.005-.03.036-.013.058l.773.863c.077.085.071.212-.017.273l-.3.198c-.082.055-.203.028-.27-.06l-.638-.872c-.016-.025-.052-.025-.06 0l-.413.88c-.041.088-.154.119-.25.066l-.352-.19c-.102-.058-.146-.185-.091-.273l.54-.872c.013-.022 0-.052-.028-.058l-1.002-.237c-.11-.027-.187-.135-.165-.237l.072-.367c.022-.102.126-.157.234-.116l.965.354c.028.01.05-.009.047-.036l-.179-1.026a.162.162 0 0 1 .162-.196l.366-.006a.22.22 0 0 1 .215.194l.102 1.017c0 .028.033.044.055.036l.855-.361c.094-.042.212.01.264.11l.176.356c.05.102.006.215-.096.242h-.005v-.002Zm4.943-.744-.947.262c-.024.005-.03.035-.013.058l.773.863c.077.085.071.212-.017.273l-.3.198c-.082.055-.203.028-.27-.063l-.637-.872c-.017-.024-.053-.024-.064 0l-.412.88c-.042.088-.154.119-.25.066l-.353-.19c-.102-.058-.146-.185-.09-.273l.539-.872a.039.039 0 0 0-.028-.057l-1.001-.238c-.11-.027-.187-.135-.165-.237l.071-.367c.022-.102.127-.157.234-.115l.966.353c.027.01.05-.009.046-.036l-.178-1.026a.16.16 0 0 1 .162-.193l.366-.006a.22.22 0 0 1 .214.19l.102 1.018c0 .028.033.044.052.036l.856-.361c.093-.042.212.01.264.11l.176.356c.05.102.006.215-.096.242Zm4.737-.764-.946.262c-.025.006-.03.036-.014.058l.773.863c.077.086.072.213-.016.273l-.3.199c-.083.055-.204.027-.27-.06l-.638-.872c-.017-.025-.052-.025-.06 0l-.413.88c-.041.088-.154.118-.25.068l-.353-.19c-.101-.058-.145-.185-.09-.273l.539-.872c.014-.022 0-.052-.028-.057l-1.001-.238c-.11-.027-.187-.135-.165-.237l.071-.367c.022-.102.127-.157.234-.115l.966.353c.027.01.05-.009.047-.036l-.18-1.026a.162.162 0 0 1 .163-.196l.366-.006a.22.22 0 0 1 .215.19l.101 1.018c0 .028.033.045.055.036l.856-.361c.093-.041.212.011.264.11l.176.356c.05.102.006.215-.096.243h-.006v-.003Zm4.867-.881-.946.262c-.025.006-.03.036-.014.058l.773.863c.077.086.072.213-.016.273l-.3.199c-.083.055-.204.027-.27-.061l-.638-.871c-.017-.025-.052-.025-.063 0l-.413.88c-.041.088-.154.118-.25.066l-.352-.19c-.102-.059-.146-.186-.091-.274l.54-.871a.04.04 0 0 0-.028-.058l-1.002-.237c-.11-.028-.187-.136-.165-.238l.072-.366c.022-.102.126-.158.233-.116l.966.353c.028.01.05-.008.047-.036l-.179-1.026a.162.162 0 0 1 .162-.196l.366-.005a.22.22 0 0 1 .215.193l.102 1.017c0 .028.033.045.052.036l.855-.361c.094-.041.212.011.265.11l.176.356c.05.102.005.215-.097.243h-.005l.005-.003Z"/>
  <path fill="var(--sapContent_Illustrative_Color29)" d="M24.392 3.009c-.955-.331-1.854-.913-2.848-1.222-.993-.309-2.04-.499-3.089-.504-2.066-.011-4.228.752-5.629 2.352-.908 1.037-1.45 2.377-1.68 3.75-.408 2.414.096 4.852.588 7.212.352 1.685.682 3.296 1.034 4.98-.418.042-.817.07-1.235.108-.31-1.6-.619-3.113-.932-4.713-.322-1.652-.694-3.312-.773-5-.075-1.596.115-3.232.792-4.677 1.092-2.338 3.373-3.908 5.832-4.382 2.713-.524 5.843.18 7.94 2.101V3.01Z"/>
  <path fill="var(--sapContent_Illustrative_Color29)" d="m26.67 18.355 1.304-.116c-.424-2.01-.85-3.987-1.274-5.998-.446-2.115-.732-4.368-2.182-6.075-1.45-1.707-3.323-1.793-5.073-1.432 0 0 3.934.331 4.955 3.66l2.27 9.961Zm-12.3.998c-.064.113-.193.08-.427.116L12.18 9.803a9.563 9.563 0 0 1-.165-1.183c-.116-2.19.778-5.166 3.015-5.698-1.109 1.125-1.887 2.424-2.146 4.068-.325 2.06.127 4.084.473 6.097 0 .538.198 1.15.292 1.683l.303 1.75.302 1.752c.047.267.182.643.157.913a.522.522 0 0 1-.039.17v-.005l-.002.003Z"/>
  <path fill="var(--sapContent_Illustrative_Color8)" d="m28.566 18.186-.996-4.697c-.369-1.613-.523-3.251-.922-4.818-.396-1.555-1.114-3.097-2.492-4.158-1.337-1.057-3.167-1.683-4.988-1.503 2.748-.384 5.612 1.067 6.93 3.237 1.343 2.185 1.518 4.758 2.19 7.104l1.268 4.747-.99.085v.003Zm-14.191 1.25-1.169-4.956c-.327-1.635-.88-3.204-1.158-4.812-.28-1.594-.24-3.31.64-4.865.848-1.536 2.433-2.628 4.276-3.235-2.83.811-5.062 3.095-5.417 5.646-.371 2.57.556 5.005.905 7.443l.768 4.881.932-.082.199-.02h.024Z"/>
</svg>
