<svg id="tnt-Scene-NoFlows" xmlns="http://www.w3.org/2000/svg" width="320" height="240" fill="none" viewBox="0 0 320 240">
  <rect width="320" height="138" y="59" fill="var(--sapContent_Illustrative_Color20)" rx="24"/>
  <path fill="var(--sapContent_Illustrative_Color21)" fill-rule="evenodd" d="m97.696 193.857 133.74-23.88c.83-.15.86-1.32.05-1.53l-83.86-20.89c-1-.25-2.05-.3-3.07-.14l-105.59 16.27c-1.87.29-2.23 2.82-.51 3.62l56.21 26.14c.94.44 2.01.58 3.04.39l-.01.02Z" clip-rule="evenodd"/>
  <path fill="var(--sapContent_Illustrative_Color13)" d="M236.036 45.887c.53-.03 1.07.07 1.57.25s.99.47 1.43.83c.44.36.82.79 1.12 1.27.31.49.54 1.03.68 1.6l2.49 10.83-161.93 9.75-2.09-12.04a4.21 4.21 0 0 1 .06-1.81 3.917 3.917 0 0 1 2.07-2.57c.52-.26 1.11-.42 1.76-.46l152.84-7.65Z"/>
  <path fill="var(--sapContent_Illustrative_Color8)" d="m81.386 70.417 161.92-9.74 20.81 90.49c.14.61.16 1.21.1 1.76-.07.55-.25 1.07-.51 1.52-.27.45-.61.83-1.03 1.11-.42.28-.9.47-1.45.54l-156.56 19.62c-.67.09-1.32.02-1.94-.15-.62-.17-1.21-.47-1.72-.88-.51-.4-.96-.88-1.31-1.45-.35-.57-.6-1.2-.71-1.88l-17.59-100.94h-.01Z"/>
  <path fill="var(--sapContent_Illustrative_Color20)" d="M222.506 81.657c-1.18-6.09-6.57-10.6-12.11-10.12v.03h-.16c-4.94.51-8.32 4.87-8.22 10.14v.05l-19.84 1.7-1.14-5.9c-.25-1.29-1.39-2.24-2.61-2.14h-.03l-28.57 2.14c-1.21.13-1.98 1.29-1.73 2.61l1.35 6.65-19.42 1.44v-.02c-1.93-5.14-6.89-8.65-11.99-8.21 0 0-.1.01-.15.01-5.85.6-9.61 6.23-8.4 12.55 1.18 6.24 6.8 10.83 12.56 10.32.07 0 .15-.01.22-.01 5.15-.55 8.67-5 8.58-10.38v-.05l19.43-1.46.24 1.27 1.49 7.76c.24 1.31 1.42 2.27 2.65 2.16l9.86-1.07 3.22-.35 2.25 13.09 2.31 13.42-.3.46-6.26 9.6-.49.75s-.04.09-.07.13l-21.13 2.51c-2.07-4.7-6.72-7.82-11.53-7.4-.1 0-.21.03-.31.03-5.82.67-9.58 6.36-8.37 12.68 1.2 6.21 6.72 10.71 12.43 10.21.1 0 .22-.03.34-.03 5.38-.66 8.97-5.55 8.52-11.26-.04-.46-.1-.94-.19-1.42.09.48.16.96.19 1.42l21.19-2.55c-.06-.07-.11-.15-.17-.23l10.96 8.8c.58.46 1.26.67 1.9.61.7-.06 1.35-.42 1.75-1.06l7.19-11.08c.09-.15.18-.31.24-.48.45-1.18.04-2.67-1.02-3.52l-.75-.6-10.26-8.29-2.26-13.2-2.24-13.03 11.36-1.23c1.2-.14 1.94-1.3 1.7-2.61l-1.49-7.7-.21-1.12 19.86-1.71c1.57 4.15 5.14 7.22 9.1 7.87.78.12 1.59.16 2.4.09.06-.02.13-.02.19-.02.43-.04.85-.12 1.26-.22 4.87-1.23 7.8-6.35 6.71-12.04l-.03.01Z"/>
  <path fill="var(--sapContent_Illustrative_Color2)" d="M90.096 57.807c.51-.03 1.02.05 1.5.21.49.16.92.41 1.32.72s.73.69 1 1.12c.27.43.46.9.54 1.41.09.5.08.99-.04 1.44-.11.45-.31.86-.59 1.21-.28.35-.63.65-1.04.86-.41.21-.88.34-1.4.37-.51.03-1.02-.05-1.5-.21a4.23 4.23 0 0 1-1.32-.72c-.39-.31-.74-.69-1.01-1.12-.27-.43-.46-.9-.54-1.42-.09-.51-.07-1 .04-1.45.1-.45.31-.87.59-1.21.28-.34.63-.64 1.05-.86.42-.22.88-.34 1.4-.36v.01Z"/>
  <path fill="var(--sapContent_Illustrative_Color14)" d="M104.676 175.717c-.67.08-1.32.02-1.94-.15-.62-.18-1.21-.48-1.72-.88s-.96-.88-1.31-1.46c-.35-.56-.6-1.2-.71-1.88l-17.59-100.93-2.09-12.04c-.06-.3-.08-.61-.07-.9 0-.29.05-.58.11-.86.07-.28.16-.54.28-.79.11-.25.27-.49.43-.7l-2.65 3.45c-.16.22-.3.45-.43.69-.11.25-.21.5-.28.78-.07.28-.1.55-.11.85 0 .29 0 .59.07.89l2.06 11.91 17.29 99.82c.11.68.36 1.3.7 1.86a5.4 5.4 0 0 0 1.29 1.44c.51.39 1.08.68 1.7.87.62.18 1.27.24 1.92.15l155.15-19.6 4.46-2.15-156.56 19.62v.01Z"/>
  <path fill="var(--sapContent_Illustrative_Color17)" d="m270.686 171.187-3.89 2.51s-.09.06-.13.08c-.04.02-.09.06-.12.08-.04.02-.09.06-.12.08-.04.02-.09.06-.13.08-.83.5-1.68.96-2.55 1.37-.87.41-1.77.76-2.7 1.08-.92.32-1.86.57-2.81.78-.96.21-1.94.37-2.92.47-.49.06-.99.1-1.48.13s-1 .04-1.5.05c-.5 0-1.01 0-1.52-.04s-1.02-.06-1.53-.12c-1.54-.15-3.07-.43-4.6-.81-1.52-.39-3.03-.89-4.5-1.5-1.47-.61-2.92-1.34-4.33-2.17-1.41-.83-2.77-1.76-4.07-2.79a36.883 36.883 0 0 1-3.7-3.36c-1.15-1.2-2.24-2.48-3.23-3.81-.99-1.33-1.89-2.75-2.7-4.2a37.21 37.21 0 0 1-2.12-4.52c-.61-1.55-1.1-3.12-1.48-4.71a34.17 34.17 0 0 1-.8-4.77c-.15-1.6-.19-3.17-.12-4.74.07-1.57.27-3.11.58-4.62.3-1.49.7-2.92 1.21-4.3s1.12-2.71 1.82-3.97c.7-1.26 1.49-2.45 2.38-3.56.89-1.11 1.85-2.15 2.91-3.1l3.43-3.1a26.29 26.29 0 0 0-5.33 6.73 28.19 28.19 0 0 0-3.04 8.35 32.074 32.074 0 0 0-.46 9.46c.15 1.61.42 3.22.81 4.82.39 1.6.89 3.19 1.49 4.76.62 1.57 1.33 3.09 2.14 4.56a38.822 38.822 0 0 0 5.99 8.11c1.17 1.22 2.42 2.35 3.74 3.39a36.466 36.466 0 0 0 8.49 5.03c1.49.63 3.01 1.13 4.55 1.53a31.16 31.16 0 0 0 6.19.95c.52.03 1.02.04 1.53.04s1.01-.02 1.52-.04 1-.07 1.5-.13c.99-.11 1.98-.27 2.95-.47.97-.2 1.92-.47 2.84-.78.93-.31 1.83-.68 2.72-1.08.89-.41 1.74-.87 2.57-1.38.05-.03.09-.06.13-.08.05-.02.09-.06.12-.08.04-.02.09-.06.12-.08.04-.02.09-.06.13-.09"/>
  <path fill="var(--sapContent_Illustrative_Color9)" d="M268.976 118.726c1.68 1.36 3.24 2.86 4.66 4.48 1.42 1.62 2.7 3.35 3.83 5.16 1.13 1.82 2.1 3.73 2.9 5.71.8 1.97 1.44 4.02 1.89 6.1.33 1.56.56 3.11.67 4.67.11 1.56.13 3.1.02 4.61-.11 1.52-.31 3.03-.63 4.5-.32 1.47-.74 2.91-1.27 4.3a27.574 27.574 0 0 1-4.37 7.57c-.91 1.12-1.92 2.16-3.01 3.1-1.09.95-2.26 1.81-3.51 2.57a25.402 25.402 0 0 1-5.29 2.46c-.93.31-1.88.57-2.84.78-.96.21-1.95.37-2.95.47-.5.06-1 .1-1.5.12-.5.03-1.01.04-1.52.04s-1.02 0-1.53-.04c-.51-.03-1.03-.07-1.55-.12-1.55-.15-3.1-.43-4.64-.83-1.53-.4-3.06-.9-4.55-1.53a36.39 36.39 0 0 1-4.37-2.19c-1.42-.84-2.8-1.78-4.12-2.83a38.772 38.772 0 0 1-3.74-3.39 37.388 37.388 0 0 1-3.26-3.86c-.99-1.35-1.92-2.78-2.73-4.25-.81-1.47-1.53-3-2.14-4.57-.62-1.57-1.11-3.16-1.49-4.76-.38-1.6-.65-3.21-.81-4.82-.15-1.61-.19-3.2-.12-4.79.08-1.59.27-3.14.58-4.67.31-1.53.72-3.01 1.24-4.43s1.16-2.78 1.88-4.07c.72-1.3 1.55-2.51 2.48-3.65.93-1.14 1.93-2.2 3.02-3.15 1.09-.97 2.26-1.83 3.49-2.59a26.8 26.8 0 0 1 3.85-1.96c1.33-.55 2.72-.99 4.15-1.32 1.43-.33 2.88-.54 4.38-.64 2-.13 4.01-.05 6.01.23s3.98.75 5.93 1.41c1.95.66 3.85 1.5 5.69 2.52 1.84 1.03 3.61 2.21 5.3 3.58v.03l-.03.05Z"/>
  <path fill="var(--sapContent_Illustrative_Color8)" d="M250.106 125.326c.32-.02.65.02.95.12.3.1.6.26.85.47.25.21.48.46.66.74.18.28.31.6.38.94l2.62 12.85 12.15-1.04c.32-.03.64.02.94.12.3.1.59.26.84.47.25.21.48.46.66.74.18.28.31.6.38.94.07.34.07.67.02.97-.05.3-.17.59-.33.83s-.37.44-.63.59c-.26.15-.54.25-.86.27l-12.16 1.08 2.65 13.01a2.448 2.448 0 0 1-.33 1.84c-.16.25-.38.46-.64.61-.26.15-.55.26-.88.29-.33.03-.65 0-.96-.11-.31-.11-.6-.26-.86-.47-.26-.21-.49-.46-.67-.75a2.88 2.88 0 0 1-.38-.96l-2.64-13.05-12.4 1.1c-.33.03-.66-.01-.97-.11-.31-.1-.61-.26-.87-.47-.26-.21-.49-.46-.67-.75a2.88 2.88 0 0 1-.38-.96c-.07-.35-.07-.68 0-.99.07-.31.19-.6.36-.84.17-.24.39-.45.66-.61.27-.16.56-.25.89-.28l12.39-1.07-2.6-12.89a2.315 2.315 0 0 1 .35-1.79c.17-.24.39-.44.64-.59.25-.15.55-.24.87-.26l-.03.01Z"/>
</svg>
