<svg id="tnt-Dialog-UnsuccessfulAuth" xmlns="http://www.w3.org/2000/svg" width="160" height="160" fill="none" viewBox="0 0 160 160">
  <rect width="160" height="69" y="50" fill="var(--sapContent_Illustrative_Color20)" rx="12"/>
  <path fill="var(--sapContent_Illustrative_Color21)" fill-rule="evenodd" d="m42.136 113.57 69.376-10.079c.424-.076.439-.674.025-.776L69.625 91.75a3.933 3.933 0 0 0-1.564-.072L12.223 98.21c-.95.148-1.135 1.436-.26 1.845l28.625 13.311c.48.225 1.022.296 1.548.199v.005Z" clip-rule="evenodd"/>
  <path fill="var(--sapContent_Illustrative_Color8)" d="m125.674 93.982-10.842-49.855-81.835 5.886 9.931 52.798c.073.374.21.729.41 1.039a3.08 3.08 0 0 0 1.676 1.312c.338.109.702.145 1.057.109l77.799-8.437c.328-.036.62-.146.875-.3.255-.165.465-.383.629-.638a2.36 2.36 0 0 0 .328-.875 2.606 2.606 0 0 0-.037-1.02l.009-.019Z"/>
  <path fill="var(--sapContent_Illustrative_Color14)" d="M48.35 54.013a6.96 6.96 0 0 1 2.742.346 8.077 8.077 0 0 1 2.442 1.33 8.134 8.134 0 0 1 1.877 2.105c.5.81.874 1.713 1.066 2.678a6.912 6.912 0 0 1 0 2.77 6.332 6.332 0 0 1-1.012 2.35 5.785 5.785 0 0 1-1.858 1.686 6.11 6.11 0 0 1-2.542.775 7.236 7.236 0 0 1-2.76-.328 8.02 8.02 0 0 1-2.47-1.33 8.115 8.115 0 0 1-1.895-2.123 8.158 8.158 0 0 1-1.066-2.706 6.826 6.826 0 0 1 .018-2.788 6.313 6.313 0 0 1 1.039-2.351 5.733 5.733 0 0 1 1.886-1.667 6.17 6.17 0 0 1 2.542-.747h-.01Z"/>
  <path fill="var(--sapContent_Illustrative_Color23)" d="M85.569 71.123c.182-.018.355.01.528.073a1.645 1.645 0 0 1 .847.71c.1.164.173.356.219.565l1.002 4.875c.046.2.046.4.018.574a1.339 1.339 0 0 1-.182.492c-.091.145-.21.264-.346.355a1.05 1.05 0 0 1-.483.164l-39.26 3.68c-.19.02-.382 0-.555-.072a1.96 1.96 0 0 1-.501-.282 1.545 1.545 0 0 1-.383-.456 1.825 1.825 0 0 1-.218-.574l-.957-5.02a1.668 1.668 0 0 1 0-.601 1.29 1.29 0 0 1 .574-.866c.146-.091.319-.146.51-.164l39.196-3.471-.01.018Zm2.213 10.806c.182-.019.364 0 .528.063.164.064.337.155.483.274a1.732 1.732 0 0 1 .592 1.002l1.012 4.91c.045.201.045.402.018.584a1.324 1.324 0 0 1-.182.501c-.092.146-.21.264-.347.355a1.05 1.05 0 0 1-.483.164l-39.36 3.99c-.19.02-.382 0-.555-.063a1.721 1.721 0 0 1-.501-.282 1.796 1.796 0 0 1-.601-1.039l-.966-5.056a1.669 1.669 0 0 1 0-.602c.036-.191.1-.355.2-.51.1-.155.228-.273.374-.364.146-.092.319-.155.51-.174l39.287-3.772-.01.019Z"/>
  <path fill="var(--sapContent_Illustrative_Color13)" d="M110.706 36a2.39 2.39 0 0 1 .947.137c.301.109.592.273.857.483.264.21.492.464.674.756.182.291.319.61.392.956l1.257 5.804-81.835 5.877-1.157-6.141a2.649 2.649 0 0 1 .009-1.039c.073-.328.21-.62.4-.865a2.26 2.26 0 0 1 .72-.62c.292-.155.61-.246.966-.273L110.706 36Z"/>
  <path fill="var(--sapContent_Illustrative_Color14)" d="M32.451 41.74a2.547 2.547 0 0 0-.337.438 2.328 2.328 0 0 0-.218.51 2.365 2.365 0 0 0-.1.573c-.01.192.009.401.045.61l11.088 58.931a3.104 3.104 0 0 0 1.139 1.859c.282.228.61.392.948.501l-.01-.009c.337.109.692.146 1.057.109l-1.931 1.403c-.364.045-.72 0-1.058-.1a2.887 2.887 0 0 1-.938-.492 3.036 3.036 0 0 1-1.12-1.841l-10.97-58.565a2.332 2.332 0 0 1-.046-.61 2.36 2.36 0 0 1 .092-.565c.055-.182.118-.356.218-.51.1-.156.21-.301.338-.428l1.803-1.814Zm89.89 56.215a1.175 1.175 0 0 1-.183.1 1.696 1.696 0 0 1-.2.073l-.21.054a.881.881 0 0 1-.219.037l-77.38 8.456 1.932-1.404 77.799-8.446c.073-.01.146-.018.219-.036.073-.01.146-.037.21-.055.073-.027.136-.055.2-.082l.009.009c.064-.037.119-.063.182-.1l-2.359 1.394Z"/>
  <path fill="var(--sapContent_Illustrative_Color8)" d="m74.735 85.427.182 1.276.865-.574.465.884-.975.382.966.911-.647.638-.829-1.111-.374 1.23-.874-.502.583-1.056-1.084-.174.09-.938 1.085.383-.328-1.258.875-.09ZM49.68 60.873a2.294 2.294 0 0 1-.93-.118c-.3-.1-.583-.256-.829-.447a2.807 2.807 0 0 1-.637-.71 2.64 2.64 0 0 1-.356-.912 2.497 2.497 0 0 1 0-.938 2.007 2.007 0 0 1 .975-1.358c.246-.145.538-.227.857-.255.319-.027.628.019.929.119.3.1.583.255.829.455s.465.438.638.71c.173.274.291.584.355.912.064.328.064.647 0 .938a2.214 2.214 0 0 1-.346.793c-.164.237-.383.42-.629.565a2.004 2.004 0 0 1-.856.255v-.009Zm11.625 14.641.173 1.276.875-.574.465.884-.984.373.975.92-.656.63-.839-1.112-.391 1.23-.884-.502.592-1.056-1.084-.183.1-.938 1.084.392-.328-1.267.902-.073Zm-5.685.511.173 1.275.884-.574.455.893-.984.374.966.929-.656.629-.838-1.121-.392 1.23-.893-.501.601-1.057-1.102-.182.11-.948 1.093.401-.32-1.266.903-.082Zm7.845 10.505.173 1.284.883-.583.465.893-.984.383.975.92-.656.638-.847-1.112-.383 1.24-.893-.502.601-1.066-1.093-.182.1-.948 1.094.392-.328-1.275.892-.082ZM49.88 76.535l.183 1.293.893-.583.455.893-.993.383.975.93-.665.628-.838-1.12-.41 1.238-.893-.51.62-1.057-1.112-.182.11-.948 1.102.392-.329-1.275.902-.082Zm2.141 11.106.173 1.294.893-.583.465.893-.993.392.975.929-.665.647-.848-1.13-.4 1.248-.902-.5.62-1.076-1.112-.182.109-.957 1.102.401-.328-1.284.911-.092Zm17.102-1.667.173 1.284.884-.583.455.893-.974.374.965.93-.647.628-.829-1.112-.391 1.24-.875-.502.583-1.066-1.084-.173.1-.947 1.075.391-.319-1.266.884-.091ZM51.338 62.35a3.987 3.987 0 0 1 1.995.364c.31.136.61.328.893.537.283.21.529.465.756.738-.182.401-.41.765-.683 1.102a4.737 4.737 0 0 1-.938.875 4.998 4.998 0 0 1-2.524.902 5.78 5.78 0 0 1-1.43-.064 5.894 5.894 0 0 1-1.367-.4 6.747 6.747 0 0 1-2.342-1.65 3.353 3.353 0 0 1 1.121-1.53 3.408 3.408 0 0 1 1.822-.684l2.706-.218-.009.027Zm6.432 24.735.173 1.285.884-.583.465.893-.993.392.974.92-.656.647-.847-1.13-.392 1.248-.892-.5.6-1.067-1.102-.182.1-.948 1.103.392-.328-1.285.911-.082Z"/>
  <path fill="var(--sapContent_Illustrative_Color1)" d="m126.851 103.688-1.937 1.245s-.044.029-.063.039c-.019.009-.043.028-.062.038-.02.01-.044.029-.063.039-.019.009-.043.028-.062.038-.414.25-.837.476-1.275.683a12.15 12.15 0 0 1-1.346.533 13.32 13.32 0 0 1-2.861.625c-.245.029-.495.048-.741.062-.245.015-.5.02-.75.024a13.153 13.153 0 0 1-1.524-.072 15.652 15.652 0 0 1-2.294-.403 17.013 17.013 0 0 1-2.245-.745 17.1 17.1 0 0 1-2.159-1.077 18.462 18.462 0 0 1-2.034-1.389 18.5 18.5 0 0 1-1.847-1.668 19.616 19.616 0 0 1-1.611-1.894 19.088 19.088 0 0 1-1.346-2.086 17.627 17.627 0 0 1-1.053-2.245 17.63 17.63 0 0 1-1.135-4.71 15.87 15.87 0 0 1 .226-4.653 14.171 14.171 0 0 1 1.515-4.11 13.004 13.004 0 0 1 2.64-3.312l1.712-1.543c-.529.476-1.02 1-1.462 1.558a13.276 13.276 0 0 0-1.198 1.788c-.351.63-.658 1.297-.913 1.99a15.116 15.116 0 0 0-.611 2.163 15.6 15.6 0 0 0-.284 2.321 16.51 16.51 0 0 0 .063 2.38c.077.797.212 1.595.404 2.393.192.798.442 1.587.745 2.365a19.18 19.18 0 0 0 1.068 2.274c.404.735.86 1.437 1.36 2.11a20.071 20.071 0 0 0 1.626 1.918 18.39 18.39 0 0 0 3.919 3.09c.707.414 1.437.779 2.183 1.092.745.312 1.5.562 2.269.759a15.332 15.332 0 0 0 3.857.49c.255 0 .505-.009.759-.024a15.164 15.164 0 0 0 2.222-.298 12.57 12.57 0 0 0 1.419-.389c.461-.154.913-.337 1.356-.538.442-.202.87-.433 1.283-.688.024-.014.044-.029.068-.038.024-.01.043-.029.062-.039.019-.009.043-.029.063-.038.019-.01.043-.029.062-.043"/>
  <path fill="var(--sapContent_Illustrative_Color23)" d="M125.996 77.617a19.091 19.091 0 0 1 5.683 7.628c.399.98.717 2 .943 3.033.163.774.274 1.548.331 2.322a15.82 15.82 0 0 1-.303 4.527 14.79 14.79 0 0 1-.634 2.14 13.685 13.685 0 0 1-2.178 3.763 12.875 12.875 0 0 1-4.535 3.509c-.442.207-.894.384-1.356.538a13.639 13.639 0 0 1-2.89.625c-.25.029-.5.048-.75.063-.25.014-.505.019-.76.024a9.742 9.742 0 0 1-.764-.02 15.326 15.326 0 0 1-3.092-.471 17.179 17.179 0 0 1-4.453-1.85 18.314 18.314 0 0 1-2.053-1.404 18.776 18.776 0 0 1-1.866-1.687 19.3 19.3 0 0 1-2.986-4.028 18.48 18.48 0 0 1-1.067-2.273 18.534 18.534 0 0 1-.746-2.365 17.195 17.195 0 0 1-.466-4.773c.034-.789.13-1.563.284-2.322a14.423 14.423 0 0 1 1.562-4.225 13.15 13.15 0 0 1 1.231-1.812c.457-.567.962-1.091 1.506-1.567a12.62 12.62 0 0 1 1.74-1.288 13.142 13.142 0 0 1 3.991-1.625c.712-.159 1.438-.27 2.183-.317a14.887 14.887 0 0 1 2.996.115c.995.14 1.986.375 2.957.702a17.02 17.02 0 0 1 2.837 1.254c.919.51 1.803 1.101 2.645 1.779l.01.005Z"/>
  <path fill="var(--sapContent_Illustrative_Color8)" d="M121.005 82.856c.096-.01.197-.005.298.01a1.676 1.676 0 0 1 .577.192 1.994 1.994 0 0 1 .5.399c.072.077.134.168.192.26.058.09.106.187.144.283a1.712 1.712 0 0 1 .125.615 1.442 1.442 0 0 1-.24.832l-2.712 3.941 4.207 3.355c.044.034.082.068.121.106.038.038.077.077.11.115.034.039.072.082.101.125.029.043.063.087.092.135.028.048.057.096.081.144.024.048.048.096.068.15.019.052.038.1.052.153.015.053.029.1.039.154.01.053.019.1.024.153.005.053.01.106.01.154v.154c0 .053-.01.101-.02.15-.009.047-.019.1-.033.148-.015.048-.029.096-.048.14-.02.043-.039.09-.063.134l-.072.125-.087.115a.634.634 0 0 1-.101.106 1.108 1.108 0 0 1-.23.168c-.039.025-.082.044-.125.063-.044.02-.087.038-.135.053-.048.014-.091.029-.139.038-.049.01-.097.02-.145.02-.048 0-.101.004-.149.004-.048 0-.101 0-.149-.01-.048-.009-.101-.014-.149-.023a1.7 1.7 0 0 1-.293-.092 1.31 1.31 0 0 1-.14-.067 1.963 1.963 0 0 1-.134-.082c-.044-.028-.087-.062-.13-.096l-4.222-3.365-2.746 4.014c-.028.039-.057.082-.091.116-.034.033-.067.072-.101.105a1.553 1.553 0 0 1-.231.173 1.512 1.512 0 0 1-.269.12c-.048.015-.096.03-.144.039-.048.01-.096.02-.149.024-.053.005-.101.005-.154.005-.053 0-.101 0-.154-.01-.053-.01-.101-.014-.154-.024-.053-.01-.101-.024-.154-.038a.786.786 0 0 1-.149-.058c-.048-.024-.096-.043-.144-.067-.048-.024-.092-.053-.14-.082-.048-.029-.091-.063-.134-.096a2.307 2.307 0 0 1-.125-.106c-.039-.034-.077-.077-.116-.12a1.325 1.325 0 0 1-.105-.13l-.097-.14c-.029-.047-.053-.095-.081-.144-.029-.048-.048-.1-.068-.148a1.65 1.65 0 0 1-.091-.313 1.738 1.738 0 0 1-.034-.317c0-.053 0-.106.005-.159a1.302 1.302 0 0 1 .058-.303 1.62 1.62 0 0 1 .048-.144 1.112 1.112 0 0 1 .139-.26l2.77-4.013-4.241-3.38a1.716 1.716 0 0 1-.236-.225 1.494 1.494 0 0 1-.192-.264c-.053-.097-.106-.188-.144-.289a1.809 1.809 0 0 1-.125-.625 1.52 1.52 0 0 1 .115-.586 1.47 1.47 0 0 1 .14-.255c.057-.081.12-.154.192-.216.072-.063.149-.12.231-.168a1.27 1.27 0 0 1 .264-.11 1.17 1.17 0 0 1 .289-.054 2.14 2.14 0 0 1 .303.005c.101.01.202.034.303.067.1.034.197.072.288.125.091.053.183.11.269.183l4.227 3.374 2.717-3.922a1.158 1.158 0 0 1 .408-.38 1.58 1.58 0 0 1 .26-.11c.092-.03.188-.044.284-.053h.034Z"/>
</svg>
