<svg id="tnt-Dot-FaceID" xmlns="http://www.w3.org/2000/svg" width="46" height="46" fill="none" viewBox="0 0 46 46">
  <g clip-path="url(#a)">
    <path fill="var(--sapContent_Illustrative_Color16)" d="M22.354 4.348c1.102-1.133 1.867.07 1.87.077 1.12-.829 1.535.2 1.535.2 1.35-.843 1.84.412 1.84.412 1.514-.795 1.837.591 1.839.598 1.87-.385 1.902 1.073 1.902 1.073 1.716-.367 1.856 1.164 1.856 1.164 1.546-.09 1.458 1.268 1.458 1.273 1.67-.014 1.336 1.423 1.336 1.426 1.471.137.996 1.658.996 1.658 1.563.384.843 1.793.843 1.793 1.374.32.619 1.886.611 1.902 1.672.797.308 2.101.308 2.101 1.425.783.156 2.009.154 2.01 1.182 1.06-.098 2.056-.098 2.056 1.186.915-.163 1.892-.178 1.902.596.795-.483 1.468-.49 1.472.351 1.144-.678 1.438-.688 1.44.461 1.26-.766 1.473-.766 1.473.335 1.094-.588 1.486-1.067 1.611a1.085 1.085 0 0 1-1.346 1.175 1.084 1.084 0 0 1-1.08 1.045c-.042 0-.08 0-.119-.006a1.081 1.081 0 0 1-1.437.482c-.01.16-.059.325-.146.476a1.085 1.085 0 0 1-1.752.164 1.082 1.082 0 0 1-1.814.384 1.293 1.293 0 0 1-.14.42 1.245 1.245 0 0 1-1.609.521 1.222 1.222 0 0 1-.468-.392c-.074.27-.242.525-.668.7a1.063 1.063 0 0 1-.822 0 1.069 1.069 0 0 1-.58-.654 1.231 1.231 0 0 1-1.57 1.077 1.23 1.23 0 0 1-.874-1.046l-.021.046a1.228 1.228 0 0 1-2.332-.469 1.23 1.23 0 0 1-1.503.346 1.231 1.231 0 0 1-.689-1.077c-.36.35-.913.455-1.392.22a1.218 1.218 0 0 1-.587-.611 1.235 1.235 0 0 1-1.336-1.175c-1.977.247-2.273-1.7-2.276-1.716-1.985.031-1.309-1.78-1.303-1.794-1.56.046-1.107-1.664-1.105-1.671-1.074-.137-.707-1.64-.707-1.64-.813-.307-.34-1.269-.339-1.273-1.134-.488-.265-1.729-.262-1.734-1.364-.765-.262-2.038-.262-2.038-1.333-.95.057-2.25.063-2.255v-.004c-1.028-1.395.412-2.038.412-2.038-.629-1.472.661-1.933.661-1.933-.58-1.481 1.023-1.897 1.042-1.902-.307-1.88 1.367-1.933 1.38-1.934-.107-1.86 1.473-1.566 1.49-1.562.32-1.634 1.935-1.262 1.948-1.26.198-1.265 1.806-.923 1.825-.919.67-1.877 2.268-.854 2.286-.842.675-1.535 1.948-.43 1.948-.43 1.073-1.49 2.223-.322 2.223-.322Z"/>
    <path fill="var(--sapContent_Illustrative_Color31)" d="M22.019 11.52c.696-.064.633.422 1.695.286 1.063-.136 1.448-.136 1.868.049.42.185.657.706 1.388.885.73.178.933.276 1.412.681.479.406.43.983.909 1.388.479.406.755.48 1.06.958.303.48.027.895.206 1.374.178.48.465.172.734.612l.019.033c.064.182.12.359.172.53.004.22-.072.465-.23.822-.293.664.462.867.588 1.345.126.48-.51 1.13-.168 1.728.126.22.202.603.248.998-.05 1.675-.223 3.707-.49 6.351-.485 4.814-1.545 5.524-2.915 6.758-1.37 1.238-3.09 2.605-5.65 2.608-2.56 0-4.283-1.37-5.65-2.608-1.254-1.132-2.248-1.82-2.78-5.62-.16.116-.38.215-.678.229-.762.035-1.094-1.028-1.493-2.783-.398-1.755-.695-3.28 0-3.412.601-.115 1.45.588 1.67.781a60.71 60.71 0 0 1-.1-1.632v-.216c0-.121-.045-.38.27-.909.29-.783.14-1.084 0-1.717-.004-.008-.273-.632.227-1.083.325-.294.328-.832.276-1.79-.053-.958.874-1.657 1.105-1.787.23-.13.81-.822 1.038-1.626.227-.804.657-1.175 1.112-1.304.454-.13.832-.136 1.335-.587.504-.451.305-.703.794-.867.49-.164.395.045.822.164.426.119.51-.577 1.206-.64Z"/>
    <path fill="var(--sapContent_Illustrative_Color3)" d="M24.945 11.71c.253.012.44.057.637.144.42.185.657.706 1.387.884.731.179.934.277 1.413.682.479.406.43.982.909 1.388.479.406.755.48 1.06.958.303.479.027.895.206 1.374.178.479.464.171.734.612l.013.023c.066.187.125.37.178.545.003.218-.073.462-.23.816-.293.665.462.868.588 1.347.125.479-.51 1.129-.168 1.726.126.22.202.603.248.997a52.89 52.89 0 0 1-.112 2.116c.355-.276.973-.681 1.44-.592.696.133.4 1.657 0 3.412-.398 1.756-.73 2.819-1.492 2.784a1.286 1.286 0 0 1-.478-.112c-.536 3.697-1.522 4.385-2.763 5.503-1.37 1.238-3.09 2.605-5.65 2.608-1.329 0-2.43-.37-3.374-.898 2.629.223 3.86-.41 4.192-1.51h-.007c.35-1.164-1.147-1.852-1.147-1.696 1.811-.84 1.052-2.811 1.052-2.811.392-.84 0-1.944 0-1.944 1.745.384 2.15-1.039 2.15-1.039l1.543 1.752c.514-1.143.811-1.741 1.905-3.049 1.09-1.302.734-2.195.73-2.203-.779.546-2.013.315-2.51.231-.496-.084-1.276-.412-1.36-.685-.083-.269.422-.356.423-.357 1.556.268 1.754-1.493 1.756-1.51 0 0-.895-.993-2.154-.465s-1.325 2.783-1.325 2.783l-1.126.23s-.066-.562 0-1.82c.066-1.26.399-2.686 1.126-3.147.727-.462 1.822-.231 1.822-.231 1.53-4.447-.451-7.522-1.616-8.845ZM20.89 27.62c-.052.066-.623.83-.56 1.718-.006-.001-.401-.095-.745.217.003-.012.415-1.636 1.304-1.936Z"/>
    <path fill="var(--sapContent_Illustrative_Color3)" d="m20.893 27.618-.004.002a.36.36 0 0 1 .004-.005v.003Zm-3.042-6.796c.006 0 .931-.074 1.28-.042.35.031 1.846 0 2.27 1.43l.006.003s.248.993.164 1.392c-.084.398-1.094.835-1.094.835-.004-.01-.278-.756-1.15-.92-.878-.164-2.406-.345-2.986.434 0 0 .503-1.909 2.856-1.843l-1.346-1.29Z"/>
    <path fill="var(--sapContent_Illustrative_Color29)" d="M15.39 21.66s.972-.85 1.689-.85c.717 0 1.678.364 2.45.574.773.21 1.613.388 1.79.276.18-.112.113-.762.099-.85-.014-.087-.343-.307-1.039-.388-.695-.08-1.426-.112-2.465-.066-1.038.045-2.195.409-2.527 1.304h.003Zm15.339 0s-.972-.85-1.689-.85c-.716 0-1.678.364-2.45.574-.773.21-1.612.388-1.79.276-.179-.112-.113-.762-.099-.85.014-.087.343-.307 1.039-.388.696-.08 1.426-.112 2.465-.066 1.038.045 2.195.409 2.527 1.304h-.003Zm-8.443 7.662c-.007-.189-.333-.465-.665-.454-.332.01-.598.265-.598.496 0 .23.333.297.57.266.238-.032.696-.126.69-.308h.003Zm1.38.163c.039.161.399.19.63.15.23-.038.38-.15.38-.384s-.125-.318-.387-.3c-.263.017-.679.297-.623.538v-.004Z"/>
    <path fill="var(--sapContent_Illustrative_Color1)" d="M23.037 34.926c.619 0 1.182-.031 1.8-.486.62-.454 1.57-1.346 1.581-1.479.01-.132-.808-.388-1.325-.695-.517-.308-.783-.497-1.315-.486-.531.01-.74.23-.74.23s-.256-.23-.753-.23c-.496 0-1.17.332-1.524.629-.353.297-.619.486-1.105.598 0 0 1.053 1.136 1.913 1.524.86.388.972.399 1.468.399v-.004Z"/>
    <path fill="var(--sapContent_Illustrative_Color11)" d="M23.037 34.925c-.496 0-.608-.01-1.468-.398-.542-.241-1.158-.783-1.539-1.15a.569.569 0 0 1 .179-.133s.143-.133 1.15-.144c1.003-.01 2.22 0 2.74 0 1.172 0 1.714.374 1.714.374l.09.056c-.324.308-.737.668-1.062.906-.619.454-1.182.486-1.8.486h-.004v.003Z"/>
    <path fill="var(--sapContent_Illustrative_Color29)" d="M20.478 24.44c-.13-.006-.79-.43-.867-.356-.07.574-.703 1.063-1.26.734-.303-.178-.401-.458-.541-.758-.416.15-.944.42-1.346.098-.084-.068-.124-.134-.119-.2.192-.332.633-.51.99-.604.877-.235 1.936-.186 2.657.363.216.164.486.437.486.724Zm7.569-.382c-.154.657-.79 1.172-1.416.661a.986.986 0 0 1-.37-.664l-.867.38c.014-.335.412-.695.681-.863.825-.51 2.63-.5 3.34.2.178.178.17.276-.046.412-.451.283-.878-.007-1.318-.133l-.004.007Z"/>
    <path fill="var(--sapContent_Illustrative_Color24)" d="M3.636 39.245v-5.626h1.049v5.626c0 1.291.992 2.3 2.143 2.3h6.786v1.049H6.828c-1.787 0-3.192-1.537-3.192-3.35Zm0-27.293c0-1.817 1.406-3.35 3.192-3.35h7.045v1.05H6.828c-1.151 0-2.143 1.005-2.143 2.3v6.24h-1.05v-6.24Zm38.476 0c0-1.292-.993-2.3-2.144-2.3h-6.555v-1.05h6.556c1.786 0 3.191 1.537 3.191 3.35v6.318h-1.048v-6.318Zm0 27.293v-5.433h1.05v5.433c0 1.817-1.407 3.35-3.193 3.35h-6.44v-1.05h6.44c1.151 0 2.143-1.006 2.143-2.3Z"/>
    <path fill="var(--sapContent_Illustrative_Color28)" d="M24.654 27.238c.61.24 1.386 1.558 1.253 2.186-.131.624-.914.498-.926.496.01-.005.695-.346.597-.828a4.736 4.736 0 0 0-.924-1.854Zm-12.227-1.474c.101-.21.216-.283.405-.111v.003c-.004.004-.247.21-.101 2.098-.001-.004-.472-1.64-.304-1.99Zm20.533-.36c.188-.171.303-.098.404.111.168.35-.301 1.982-.303 1.99.145-1.882-.096-2.093-.102-2.098v-.003Zm-8.306 1.834-.006-.003h.004l.002.003Z"/>
    <path fill="var(--sapContent_Illustrative_Color24)" d="M45.5 25.386v1.049H.5v-1.05h45Z"/>
  </g>
  <defs>
    <clipPath id="a">
      <path fill="var(--sapContent_Illustrative_Color8)" d="M.5.5h45v45H.5z"/>
    </clipPath>
  </defs>
</svg>
