<svg id="tnt-Dialog-Teams" xmlns="http://www.w3.org/2000/svg" width="160" height="161" fill="none" viewBox="0 0 160 161">
  <rect width="160" height="160" fill="var(--sapContent_Illustrative_Color20)" rx="24"/>
  <circle cx="146.943" cy="64.731" r="1.152" fill="var(--sapContent_Illustrative_Color2)"/>
  <circle cx="6.794" cy="109.202" r="1.152" fill="var(--sapContent_Illustrative_Color2)"/>
  <circle cx="132.975" cy="108.626" r="1.152" fill="var(--sapContent_Illustrative_Color2)"/>
  <circle cx="136.432" cy="115.54" r="1.729" fill="var(--sapContent_Illustrative_Color2)"/>
  <path fill="var(--sapContent_Illustrative_Color2)" d="M35.515 27.807c0-.504-1.464-.908-3.42-1-.111-1.952-.542-3.405-1.046-3.404-.504.001-.924 1.465-1.03 3.428-1.962.134-3.42.573-3.413 1.078.006.505 1.463.909 3.419 1 .117 1.953.542 3.405 1.045 3.404.504-.001.925-1.465 1.032-3.428 1.962-.134 3.419-.572 3.413-1.078Zm-6.604 8.239c0-.326-.946-.587-2.211-.646-.072-1.263-.35-2.203-.677-2.202-.326.001-.597.947-.667 2.217-1.268.087-2.21.37-2.207.697.005.327.947.588 2.212.646.076 1.264.35 2.203.676 2.202.325 0 .598-.947.667-2.217 1.268-.087 2.21-.37 2.207-.697Zm125.197 21.035c0-.326-.946-.587-2.211-.646-.072-1.263-.351-2.202-.677-2.202-.326.001-.597.948-.666 2.217-1.269.087-2.212.37-2.207.697.004.327.946.588 2.211.647.076 1.263.351 2.202.676 2.201.325 0 .598-.947.667-2.217 1.269-.086 2.211-.37 2.207-.697Z"/>
  <path fill="var(--sapContent_Illustrative_Color8)" d="M142.752 84.071c.244.689.769 2.282.909 3.147.175 1.082 1.873 3.31 2.256 6.16.383 2.852 1.954 2.51 2.173 3.602.218 1.091 1.77 3.786 1.781 4.787.008.801 1.397 5.93 2.09 8.395l-.423.096c.403 1.138.967 2.942.806 3.39-.227.632-.824 1.502-.45 2.082.375.58 1.129 1.288.87 2.911-.26 1.624.039 2.551-.067 3.254-.107.703-.47 3.438-.852 3.946s-.851.997-1.148 1.114c-.491.802-.966 1.108-1.462 1.092-.252-.345-.35-.832-.367-1.033-.268.26-.908.758-1.324.668-.447-1.504-.274-1.466-.21-2.814.064-1.348-.138-2.935-.524-3.246-.387-.31-.6-1.218-1.108-.965-.509.253-1.119 2.028-1.482 2.449-.363.421-1.271.633-1.46.457-.189-.177-.478-1.783.029-3.081s.515-2.385.599-2.776c.084-.391.002-2.95.787-3.642a2.853 2.853 0 0 1-.582-1.225c-.191.138-.306.27-.328.393-.327-.797-1.548-1.242-1.59-1.887-.043-.644-.432-3.043.182-3.365-.92-.789-2.549-2.91-3.055-4.563-.505-1.652-2.916-6.258-3.196-7.272-.281-1.013-2.246-2.844-2.514-3.492-.215-.519-1.263-1.822-2.886-2.294l9.642-4.191 2.904-2.097Zm-12.343 32.759c.585.288 1.795 1.229 1.955 2.688.2 1.823-.357 5.156-.31 5.436.048.28.773.717.756 1.792-.013.861-.554 2.305-.756 2.909-.202.604.839 2.407.732 2.902-.327 1.515-.933 1.992-1.333 2.679.345 1.064 1.257 2.469.69 3.296-.512.748-.397 5.12-.369 6.58.194.958.704 3.627.608 4.784-.118 1.424-.902 3.251-1.547 3.868-.645.617-2.823 2.591-3.353 3.353-.526.758-.013 3.325-.007 3.35h-18.697c.602-.988 1.813-2.731 1.814-3.35 0-.619 3.359-4.73 3.868-5.287.508-.556.902-2.115.902-2.707 0-.593-.294-.498-.294-1.553 0-1.054-.543-2.703-.543-2.703l.166-.001c-.551-4.098-.958-4.074.08-6.515.454-1.069-.517-1.52-.564-2.555-.037-.828-1.809-3.846-2.541-5.371l4.335-4.081c3.409-1.548 10.581-5.032 11.995-6.582 1.413-1.551 2.197-2.601 2.413-2.932Z"/>
  <path fill="var(--sapContent_Illustrative_Color24)" d="M104.931 47.714c3.931-.573 4.692.72 6.176 1.334-2.846 19.757-9.335 59.545-13.962 59.125-5.976-.543-7.12-.102-10.641-2.796-.92-.704 0-6.287.366-10.805.333-4.1 3.597-32.939 4.043-36.368.447-3.43 1.07-7.75 4.806-8.5 2.31-.465 7.431-1.73 9.212-1.99Z"/>
  <path fill="var(--sapContent_Illustrative_Color1)" d="M98.218 53.87c.731-.666 4.184-2.253 8.86-1.684-1.499 18.284-8.28 55.733-9.138 55.9-1.073.209-6.18-.046-7.804-.691-1.624-.644.017-4.844-.015-10.14-.032-5.295 2.646-31.307 2.589-33.083-.058-1.775 4.594-9.472 5.508-10.303Z"/>
  <path fill="var(--sapContent_Illustrative_Color8)" d="M135.847 71.312c-1.49-1.68-5.635-3.224-7.521-3.785-27.273-10.984-21.739-4.076-23.499-4.147-1.76-.072-1.307 3.191-2.963 4.069-1.656.878-2.14.619-5.099 1.447-2.366.662.343 13.43 1.994 19.73-.17 5.316-.798 16.209-1.95 17.257-1.441 1.31.301 2.536-.892 4.131-1.194 1.595.166 1.734-.558 2.582-.723.847-.587 1.648-.056 2.766-1.313.644-1.131 2.973-.876 4.057.839-.668 3.105-1.939 5.457-1.678 2.94.326 8.577 2.469 11.083 4.091 2.005 1.298 3.146 3.664 3.466 4.686.693-.468 2.635-1.624 4.863-2.502 2.784-1.097 9.991-5.871 11.154-8.399 1.164-2.528-.607-5.767-1.304-8.619 1.539-1.331.835-2.472.716-3.318 1.227-4.744.654-7.59 1.11-9.344.456-1.754-.396-3.611-.21-4.112.185-.5 3.586-.168 5.294-.571 1.708-.403 4.695-3.155 6.991-5.207 2.296-2.052.826-2.755.465-4.3-.361-1.545-5.803-6.734-7.665-8.834Z"/>
  <path fill="var(--sapContent_Illustrative_Color25)" d="M134.464 69.615c-.596-1.04-2.517-1.402-3.648-1.266l-.289-1.033c-.68.157-1.66.248-3.305 1.534-2.056 1.607-6.584 1.997-4.08 2.537 2.504.541-3.372 1.893-1.521 2.293 7.196 1.554 8.965 2.85 8.647 5.341-.161 1.26-12.271-.194-15.384.501-2.49.556-1.761 3.655-1.28 6 .429 1.005.506 1.943.48 2.484-.032.677-7.703 4.898 2.662 4.673 12.96-.281 9.818.814 11.558 2.785 1.392 1.577 1.941 4.382 1.717 6.508 1.115-4.46.473-4.953.694-6.82.221-1.867.192-2.726 0-4.477 1.235.011 2.835 2.442 3.313 3.183.478.741 4.153 7.254 5.317 11.064-.606-2.296-1.344-7.936-2.915-9.77-1.17-1.366-1.574-2.547-1.409-3.31.164-.762-.625-1.529.446-2.068 2.489-1.253-.999-5.214-.033-6.716 2.2-3.42-3.722-5.54-3.464-6.737.259-1.198 3.49-1.819 4.455-2.066.772-.198 1.666-.686 1.179-1.247-.24-.47-2.545-2.352-3.14-3.393Z"/>
  <path fill="var(--sapContent_Illustrative_Color24)" d="M128.616 71.085c-.552.788-4.662 2.068-6.648 2.61 3.693.837 5.614-.936 7.977-1.133 2.364-.197-1.701 1.75-.649 2.092 1.52.495 2.297 1.76 2.297 3.534 0 1.772.152 4.615.53 3.71 1.166-2.792-.656 3.016.68 2.416 1.673-.751 1.382-7.652 1.382-8.341 0-.69.143-1.736.537-2.278s.623-2.683.476-3.176c-.148-.492-.884-1.378-1.609-1.749-.273-.14-2.035-.541-2.905-.689-.46.673-1.517 2.216-2.068 3.004Z"/>
  <path fill="var(--sapContent_Illustrative_Color8)" d="M99.278 88.779c.773-.263 2.486-.23 3.328-.709 2.154-2.156 2.64-5.028 1.97-9.128-.577-3.532-2.975-4.836-7.462-6.853-4.486-2.017-11.739 4.484-12.371 4.96-1.113.836-2.845 2.385-3.281 4.272-.437 1.886-.28 3.318 1.313 5.788 1.762 2.732 5.632 3.05 7.881 3.158 2.249.107 3.678.095 4.575-.148.898-.244 2.632-.86 4.047-1.34Zm27.614 2.802c2.431-.052 2.967-10.21 2.967-10.21l-18.582-.458-.521 11.049s13.705-.329 16.136-.38Z"/>
  <path fill="var(--sapContent_Illustrative_Color24)" d="M129.854 81.37c.08-.842-1.971-2.2-3.63-2.199-1.66 0-15.482-.356-15.482-.356l1.262 2.406s14.263.022 17.85.15Z"/>
  <path fill="var(--sapContent_Illustrative_Color1)" d="M109.559 89.746c.061.67 2.066 2.228 2.066 2.228s-.671-.616-.724-1.325c-.039-.525.406-6.247.522-7.863.117-1.617.689-1.565.689-1.565s-1.153-2.2-1.3-2.401c-.152-.002-1.18-.22-1.253 1.578-.074 1.8-.12 7.453-.12 7.453s.058 1.224.12 1.895Zm18.274-6.901c-1.191.016-13.608 0-14.689 0-1.08 0-.4 3.424.714 3.424 1.114 0 12.082.073 13.121 0 1.04-.073 2.045-3.44.854-3.424Z"/>
  <path fill="var(--sapContent_Illustrative_Color8)" d="M131.205 66.984c.186-.86-.326-3.8-.488-4.982-2.461-3.657-7.9-3.08-15.561-2.922-5.76.12-8.816 1.16-10.351 2.767-1.535 1.607.186 3.818 1.217 5.077 1.93 2.355 7.564 5.51 12.27 6.588 4.706 1.078 8.144-.569 10.31-1.713 1.765-.932 2.371-3.74 2.603-4.815Z"/>
  <path fill="var(--sapContent_Illustrative_Color25)" d="M130.783 67.792c.871-.881.349-3.527.099-4.432-.688-6.102-21.2-4.315-22.958-4.33-1.759-.015-3.478 1.193-1.028 4.76 2.45 3.566 10.742 5.964 14.706 6.455 3.964.492 8.093-1.352 9.181-2.453Z"/>
  <path fill="var(--sapContent_Illustrative_Color8)" d="M96.912 73.966c-.404-1.369-1.344-1.6-2.79-2.321-4.979-1.628-8.274-1.017-9.9-.419-2.246.826-1.248 2.41-1.781 3.664-.426 1.003-.197 2.394-.028 2.965-.266.826-.685 3.01-.235 5.133.563 2.656 3.233 4.048 5.332 4.443 2.1.395 5.061-1.587 6.076-2.242.812-.524 1.035-1.737 1.046-2.279.142-.794.448-2.402.534-2.477.108-.093 1.649-1.566 1.913-2.383.354-1.097.237-2.716-.167-4.084Z"/>
  <path fill="var(--sapContent_Illustrative_Color25)" d="M128.537 144.942c3.253.843 1.085-.422 0-1.445-.773-.731-2.344-.235-4.165.196-.732.174-1.824 0-2.28.406-1.627 1.445 3.192 0 6.445.843ZM98.38 59.709c-1.465-.316-2.84 1.807-3.803 3.025-.298-.064-.973-.754-1.188-1.485-.27-.914-.753-2.06-1.111-4.003-.358-1.944-1.17-3.953-2.309-4-2.235-.092-.53 3.21-.633 5.132-.332-1.704-.971-3.786-1.931-4.383-.96-.596-1.753.016-1.93.833-.14.654.33 3.249.932 5.484-.245-.908-.959-2.69-1.51-3.307-.689-.771-1.552-1.02-2.355-.182-.64.667.88 4.36 1.588 6.153-.274-.69-.646-1.056-1.422-1.592-1.203-.832-1.927-.37-2.242.589-.265.802 1.581 4.112 2.692 5.57.038.423.162 1.234.695 2.22A5.37 5.37 0 0 0 87 75.683c1.644.666 6.713-.664 8.025-1.703 1.313-1.038.708-2.01 1.061-3.645 2.33-3.23 1.024-4.208 1.136-4.728.112-.52.85-2.309 1.585-3.55.734-1.241.637-2.117-.427-2.347Zm3.088 37.651c-1.002 3.794-3.067 4.989-3.767 5.066l.94-13.084c-4.427 1.715-4.98.794-7.47 1.35-3.114.696-7.077-1.832-8.56-3.406-1.188-1.26-1.96-5.132-.854-6.83.3-1.037.318-3.286 1.008-2.682.862.756 7.62 2.835 5.006 2.27-2.613-.563-4.793 1.929-3.11 3.837.678.77 4.106 1.05 6.386.517 2.28-.533 2.909-4.951 5.824-6.624 1.5-.86-2.601 2.648-1.862 5.543.308 1.208-1.586 3.282-1.727 3.935 1.932.38 7.307-1.022 8.359-1.25 1.315-.286 2.161-.786 2.843-3.943.682-3.157-4.48-8.491-3.173-7.634.968.636 4.505 2.792 4.427 7.903-.077 5.111-2.949 5.745-3.899 6.451-.95.707.881 3.837-.371 8.58Z"/>
  <path fill="var(--sapContent_Illustrative_Color24)" d="M98.67 83.951c1.645-1.377 1.696-6.812-.454-7.64 3.065.661 2.23 6.015 1.949 7.318-.281 1.302-1.177 3.595 1.705 2.132s1.547-5.849 1.547-7.76c4.01 7.517.727 9.174-.463 10.103-1.002.781-2.808 1.27-4.082 1.528-.447.091-4.858 1.238-8.145 1.188-4.925-.075-2.515-1.291.988-2.84.7-.31 3.612-3.127 3.281-4.57.766-.45 2.03 1.918 3.675.541Zm5.599-20.201c.16.945 1.075 5.258 10.992 8.67-3.718.08-8.849-3.77-10.287-4.499.03.387-.139 1.683-1.787.872-2.06-1.015 1.12 5.548 1.423 6.194.485 1.034-4.075-5.935-5.835-6.58l3.368-1.097c.542-1.63 1.966-4.507 2.126-3.56Zm41.777 50c-1.827-2.295 1.114-1.777 2.524-2.719-.896-.422-3.396-.666-4.729-.407-1.665.325-2.238-2.634-2.343-.756-.13 2.316 1.085 2.713 1.782 3.357l.882.837c-.937.73-.644 3.504-1.372 5.656-.679 2.005-.63 4.13.093 3.944.724-.185.61-3.794 1.065-4.932.928-2.32 2.337-1.953 3.505-3.723.434-.658-.848-.554-1.407-1.257Z"/>
  <path fill="var(--sapContent_Illustrative_Color25)" d="M112.764 108.21c2.722.588 7.955 1.347 13.851 1.481.84.019 2.563-2.598 2.933-1.409.65 2.089 1.13 2.792 1.371 4.667-.035 3.361-1.199 7.239-1.998 9.255-1 2.519-4.324 2.372-8.037 3.736-3.713 1.363.188.527 3.352 0 2.853-.475 1.458.125.64.746s-4.211.869-4.611 2.72c-.4 1.851 3.103 1.627 3.459 2.615.357.989-3.364.063-6.174.938-2.81.875-2.75 2.263-4.088-3.153-.329-4.812 3.707-4.898 5.59-5.175 4.002-.589 4.983-4.394 6.345-7.746 1.702-4.191-9.168 2.351-9.74-.28-.571-2.63 3.327-3.27 6.075-4.386s-1.762-1.634-6.274-2.608c-4.492-.969-5.416-1.989-2.694-1.401Z"/>
  <path fill="var(--sapContent_Illustrative_Color24)" d="M113.894 143.019c-.176-1.206.002-1.885.151-2.573s1.656 1.56 2.396 2.573c.739 1.013.756 3.57.209 4.277-.547.708.305.097.707 1.271.402 1.174.386 3.811.901 5.644.514 1.834 2.147 2.588 4.938 2.396 3.216-.22 2.81-.184 1.047.752-1.85.982-8.912-1.138-9.973-.752-1.062.386-1.439 2.384 1.15 2.352 2.589-.032 4.928-.177 6.311.643 1.106.656 1.645.865.901.865h-11.884c.241-1.582.791-4.969 1.061-5.87.338-1.125.96-1.719 2.085-2.443 1.126-.723.408-1.015 1.051-2.108.643-1.094.241-1.384 0-1.979-.241-.595.016-.61-.128-1.8-.145-1.19-.746-2.042-.923-3.248Z"/>
  <path fill="var(--sapContent_Illustrative_Color25)" d="M125.933 136.788c2.869 1.174-4.748.834-8.065 1.782-1.365.292-2.693 3.832-2.432 5.29.26 1.458-.463 2.77-.806 1.571-.77-1.76-1.253-2.603-.43-5.654.286-1.06 3.592-1.895 1.578-3.08-1.611-.947-1.718-2.396-1.402-3.699 0 0 6.242-5.415 9.562-3.535 3.319 1.88-6.51 1.829-7.363 3.535-1.066 2.132 9.358.711 10.187.947 1.45.415-3.672.474-8.055 2.843-4.382 2.369 2.512-1.929 7.226 0Z"/>
  <path fill="var(--sapContent_Illustrative_Color24)" d="M93.842 67.067c.063-.716.724-4.032.228-3.311-1.907 3.192-1.549-.029-6.871 3.404-3.508 2.262 3.813 2.947 4.271 5.252.584 2.937-6.014 2.924-3.92 3.376 2.491.538 7.873-1.137 8.517-2.787.243-.622-.692-.924 1.076-4.484.409-.823-3.38-.555-3.301-1.45Zm35.607.215c1.958-1.42 1.964-1.709 1.769-2.847-.233-1.356-14.827-.925-19.457-.627.86 1.086 4.719 4.86 9.22 5.202 3.367.256 6.809-.525 8.468-1.728ZM135.57 52.3c-.07-1.278-1.117-.916-1.632-.575-1.129 2.644-2.949 8.066-1.195 8.598 2.192.664 2.912-.54 3.86-3.23.948-2.691.645-4.667-1.033-4.794Z"/>
  <path fill="var(--sapContent_Illustrative_Color8)" d="M132.073 45.023c-2.746-4.005-6.647-5.854-11.92-6.447-4.155-.467-8.395 1.29-11.176 3.752-3.17 2.807-4.487 8.906-4.796 11.349-.309 2.443.751 8.4 5.986 11.44 2.95 1.712 14.877 6.62 20.93-.665 1.966-2.366 3.351-4.404 3.599-8.333.248-3.93.405-6.678-2.623-11.096Z"/>
  <path fill="var(--sapContent_Illustrative_Color25)" d="m118.461 66.99-2.054.554c.923.321 3.009.678 4.191.842 1.74.241 4.923 0 7.663-1.563 1.944-1.11 4.131-3.381 4.933-5.159l-2.249 1.425c-.821.848-2.948 2.817-4.886 3.9-1.939 1.085-5.873.452-7.598 0Zm5.299-27.74c-5.236-1.776-9.914-.128-11.599.919 7.073-.827 11.039 0 14.593 5.27l6.919 5.485c-1.123-3.151-4.677-9.898-9.913-11.674Z"/>
  <path fill="var(--sapContent_Illustrative_Color24)" d="M127.674 40.695c3.015 1.412 4.527 3.985 5.45 5.633 2.177 4.45 4.97 15.926-6.485 21.553l1.268-1.645c6.754-5.194 5.845-15.219 2.451-20.525-5.05-7.894-13.484-6.573-14.555-6.902 4.119-1.112 8.858.475 11.871 1.886Z"/>
  <path fill="var(--sapContent_Illustrative_Color25)" d="M110.992 52.873c-.186-1.1-.848-2.097-1.421-2.333.449 1.009.633 1.565-.212 4.15-.845 2.584-3.628 3.045-2.789 3.364.777.296 1.716.438 2.586-.353.92-.837 2.125-3.116 1.836-4.828Z"/>
  <path fill="var(--sapContent_Illustrative_Color24)" d="m102.863 88.1-4.387 1.38-.76 12.407a8.153 8.153 0 0 1-1.061 3.252c-.68 1.193-.448 2.634-.31 3.299.11.531-.755 1.417-.865 2.145.723-.736 2.807-1.94 2.535-3.296-.339-1.695-.006-2.257 2.012-6.052 2.017-3.794 2.174-6.807 2.024-9.377-.12-2.056.304-3.585.812-3.758Z"/>
  <path fill="var(--sapContent_Illustrative_Color25)" d="M103.707 92.813c-.166-.852.174-2.83.364-3.713l-2.64.742c-.125.581-.584 2.16-.095 3.48.257.694-.298 2.69-1.245 3.387-.663.488.325 2.037-.82 3.226s-1.184 4.389-1.39 6.043c.736-1.154 2.553-3.805 3.454-4.194 1.126-.486 6.49 2.365 5.723 1.045-.306-.526-3.724-1.045-4.976-2.49-.962-1.11-.132-1.414.452-2.09.583-.677 1.824-1.357 2.666-1.54.841-.183.647-.297.18-.836-.467-.538-1.466-1.994-1.673-3.06Z"/>
  <path fill="var(--sapContent_Illustrative_Color24)" d="M140.371 89.238c.521-.711 1.531-2.875 1.847-3.984-1.961 1.865-5.994 4.19-8.329 4.978l1.419 2.927c1.379-1.108 4.046-2.533 5.063-3.92Z"/>
  <path fill="var(--sapContent_Illustrative_Color24)" d="m135.708 93.68.369-1.71.644-2.984c-.727.287-2.271.85-2.632.814-.45-.046-.99-1.34-1.694-2.822-.703-1.483-.307-.248-1.53 1.038-2.227 2.34-1.042 5.269-.152 5.495-.471 1.075-.231 2.434-.269 3.94-.049 1.884-.278 3.708-.621 6.267.638-.68.678-1.256 1.042-2.939.214-.995.647-4.222.519-6.35-.028-.46-.202-1.864-.426-3.545.304.015 1.426 1.363 2.047 1.804.621.441 1.331 4.257 3.423 5.97.808.66 1.42 4.962 3.549 7.053-.468-1.705-1.692-3.153-1.272-6.058.272-1.886-3.06-5.679-2.997-5.972Z"/>
  <path fill="var(--sapContent_Illustrative_Color22)" d="M129.532 118.646c.824-1.016 1.388-2.668.945-3.354-.39.3-1.337 2.214-3.474 3.814-1.555 1.165-6.429 4.085-12.744 6.624l-.556 1.893c1.435-.488 4.9-1.949 7.405-3.04 3.132-1.363 7.187-4.412 8.424-5.937Zm-21.523-39.87c-.22-3.892-2.222-9.51-4.278-10.716-.923-.535-1.419-.772-1.419-.772-.819-.208-3.795.727-2.2.88 1.511.146 5.844 9.143 5.974 11.023.129 1.88-.2 3.99-1.297 6.869-.877 2.302-4.58 3.368-6.345 3.576l-1.454.419c1.063 1.784 3.832 1.655 7.095-.734 3.88-2.84 4.199-5.679 3.924-10.544Zm25.23 1.752c.116-2.439.818-11.165-.801-12.272l-1.448-.313s-.046.213-.414 1.16c.703.805.632 2.556.632 3.184 0 .962-.215 2.848-.01 4.027.562 1.1-.203 2.465-.255 3.287.265 4.716-.687 9.027-1.004 9.69-.467.977.501.771 1.004 1.714 0 0 .314-.165.646-.947.332-.78 1.535-7.09 1.65-9.53Z"/>
  <path fill="var(--sapContent_Illustrative_Color25)" d="M104.894 56.808c1.032 1.845 2.439 1.688 3.296 1.703.05.345.349 1.737.935 2.889.587 1.152 1.979 3.01 8.938 5.78 0 0 .354 1.05-1.37.474-1.621-.542-5.29-2.678-6.363-3.75-3.414-3.418-1.663-3.105-3.414-3.418-1.077-.192-2.374-4.308-2.022-3.678Z"/>
  <path fill="var(--sapContent_Illustrative_Color24)" d="M119.268 125.392c-.719.287-5.32 2.143-5.32 2.143v-.394s-1.83-2.098-2.121-2.333c-.291-.235.825 2.223.44 3.324-.386 1.101-1.651 1.486-1.266 3.687.385 2.201.995 3.54 1.16 6.401.165 2.862.745 1.407.667.086-.117-1.981.313-2.31.12-2.971-.175-.603-.227-.753-.178-1.278.056-.589.174-.958.543.149.159.475 1.007 1.158.815 1.989-.082.354.556.721.436 2.254-.019.243-.379 1.219-.436 1.633.485-.595 2.433-2.072 2.433-2.6 0-.66-1.103-.751-1.103-1.466s-.495-2.546-.715-3.757c-.22-1.21.11-2.641.715-3.852.485-.969 4.53-3.302 3.81-3.015Z"/>
  <path fill="var(--sapContent_Illustrative_Color8)" d="M95.289 119.051c.999-.378 4.424-.502 9.119.242 4.695.744 8.982 5.878 9.29 6.699.308.822.257 2.806.201 3.065-.056.257-.846 1.921-.512 2.371.335.45-.322 1.495-.422 1.959-.101.464-.208 1.294.082 1.95.29.655.087.924-.082 1.21-.128.216-.804 7.226-1.221 8.691l.013.001s.077.79.252 1.29.413 2.191 0 3.223c-.516 1.289.163 5.621.163 6.523v4.192h-16.42c-.01-.027-1.139-3.023-1.045-3.921.095-.903.24-1.652.186-2.393-.054-.742-.213-1.538-.935-1.951-.722-.413-.685-1.39-.4-2.45.283-1.061-.295-3.893.4-4.513a.176.176 0 0 1 .041-.026c.06-2.158.678-11.75-.58-13.606-.54-.797 1.197-1.91 0-3.897-.377-.627.523-2.422-.186-3.385-.71-.962.405-2.124.568-2.629.13-.403 1.046-1.931 1.488-2.645Z"/>
  <path fill="var(--sapContent_Illustrative_Color25)" d="M95.189 141.504c.282.847 4.383 3.247 2.637 3.035-2.88-.352-.164 1.233-1.682 2.002-1.618.819 4.485 1.361 5.526 1.281 1.041-.08 5.606 2.563.881 1.762-4.725-.801-6.43-.892-7.362-1.201-.848-.282-2.142-.34-1.612-2.215.658-2.334.137-5.282.049-5.724-.228-1.141.914-2.535 1.563-3.753.444-.835-.454-4.099 0-3.342 2 3.343 1.803 4.376 1.363 4.845-.9.957-1.717 2.25-1.363 3.31Z"/>
  <path fill="var(--sapContent_Illustrative_Color25)" d="M111.685 127.709c-.445-1.737-7.005-7.356-4.315-6.401 2.684.953 6.674 5.84 6.692 5.862.032 1.26-.354 2.571-2.023 3.122-.956.316.384 1.86 0 2.444-1.599 2.431.962 3.549.962 3.911 0 2.402-.198 3.938-1.109 8.732.483.844.895 3.037.642 4.017-.328 1.274-.283 3.128.212 4.169.494 1.041.467 1.765 0 2.565-.374.641.07 1.114.226 1.595.155.48-.711.905-.438 1.68.191.543.274 1.062-.316 1.062H95.46c-.24-.587-.801-1.725-1.506-3.006-.88-1.603.56-2.483.88-4.004.321-1.522.441-.566 1.38.537.676.793-.178 1.385-.178 3.467 0 2.081 2.296 1.992 3.684 1.602 3.925-1.101 10.117 1.287 11.227.514 1.917-1.336-5.257-3.351-2.09-3.059 3.035.28 1.354-.339 1.755-1.54.4-1.201-.401-3.844-1.639-4.725-1.238-.88-1.603-.721-.924-1.522.679-.8.16-1.521-.679-2.322-.672-.64-3.376.817-2.097-.844 4.688-3.548 6.407-11.766 4.119-12.991-2.861-1.529-9.93-2.728-7.06-3.238 3.56-.35 10.2 4.481 6.641 1.434-3.558-3.047-8.253-4.119-6.839-4.212.81-.052 10.108 3.322 9.551 1.151Z"/>
  <path fill="var(--sapContent_Illustrative_Color22)" d="M97.2 119.207c-2.18-.144-2.99 1.183-3.123 1.865-.277-.604-.072-1.557.112-2.197.184-.641 1.383-1.039 2.55-1.309 1.623-.375 6.627.481 9.307 1.42 3.71 1.299 5.651 3.442 6.961 4.722 1.311 1.281 1.746 2.418 1.739 2.87-.006.361-.378.628-.652 1.129-.775-1.453-3.166-3.985-5.824-5.792-3.368-2.291-8.342-2.527-11.07-2.708Zm22.759-51.585c-6.439-1.215-10.189-4.792-11.259-6.428-.124-.61-.4-2.003-.516-2.685 1.388-.56 1.861-.918 2.788-3.242.926-2.325-.19-4.261-1.147-4.9.19-.869.559-1.68 1.512-2.633 2.353-2.356 4.912-3.749 9.558-3.749 5.619 0 8.136 1.163 11.143 5.22 3.008 4.058.927 10.165.184 12.085-.743 1.92-4.214 7.85-12.263 6.332Z"/>
  <path fill="var(--sapContent_Illustrative_Color8)" d="M130.697 61.103c3.121-5.707 1.026-10.554-.499-11.97-.773-.718 1.179 2.82 1.363 5.369.288 4.011-2.269 8.181-.864 6.6Z"/>
  <circle cx=".558" cy=".558" r=".558" fill="var(--sapContent_Illustrative_Color8)" transform="scale(-1 1) rotate(-12.183 163.015 617.759)"/>
  <circle cx=".558" cy=".558" r=".558" fill="var(--sapContent_Illustrative_Color8)" transform="scale(-1 1) rotate(-12.183 173.082 632.347)"/>
  <circle cx="1.116" cy="1.116" r="1.116" fill="var(--sapContent_Illustrative_Color8)" transform="scale(-1 1) rotate(-12.183 191.89 619.973)"/>
  <path fill="var(--sapContent_Illustrative_Color25)" d="M117.5 105.299c2.155.493 7.696 1.283 10.197 1.616-1.87.308-3.004 0-6.31.315-3.232.308-4.194-.777-6.387-1.585-2.194-.808-.193-.962 2.5-.346Zm-7.942 12.6c-6.468-2.878-10.572-3.225-12.319-2.878.212-1.831 2.16-1.566 2.926-1.469 2.592.329 8.616 2.814 9.393 4.347Z"/>
  <circle cx="53.503" cy="82.428" r="13.821" fill="var(--sapContent_Illustrative_Color22)"/>
  <path fill="var(--sapContent_Illustrative_Color24)" d="M67.2 112.15c1.2.2 2.636.93 3.386 1.596H59.838l3.113-2.346c.917.167 3.05.55 4.25.75Z"/>
  <path fill="var(--sapContent_Illustrative_Color25)" d="M70.586 113.746c-.75-1.097-6.432 0-6.432 0l-2.708 13.549c1.88-.061 5.823-.513 6.545-1.831.722-1.318 3.345-10.62 2.595-11.718Z"/>
  <path fill="var(--sapContent_Illustrative_Color8)" d="M32.686 69.806c4.961-7.031 15.237-6.097 18.269-5.33 3.327.841 10.89 3.92 9.77 5.787-.318.527-4.681-.276-6.223.435-1.234.569-5.414 2.551-4.664 8.805-1.279 1.492 1.729.636 3.172 1.83 1.442 1.194-.623 3.523.67 4.07 2.252.953 2.052 3.96 9.123 7.236 0 .252-1.66 1.414-4.066 2.82 2.32 1.314 4.16 3.035 4.64 5.164 1.124 4.999 3.249 11.623 3.749 13.748s0 10.872-.875 14.497c-.7 2.899-1.625 8.706-2 11.247-5.54-2.124-17.172-6.298-19.371-5.998-2.2.3-5.333.624-6.624.749l-1.91-38.42c-3.38-2.522-6.471-5.643-7.352-8.486-1.94-6.268-.816-11.764 3.692-18.154Z"/>
  <path fill="var(--sapContent_Illustrative_Color8)" d="M64.406 87.667c3.121-5.707 1.026-10.553-.5-11.97-.773-.718 1.18 2.82 1.364 5.37.288 4.01-2.27 8.18-.864 6.6Z"/>
  <circle cx="1.116" cy="1.116" r="1.116" fill="var(--sapContent_Illustrative_Color8)" transform="scale(-1 1) rotate(-12.183 360.726 313.587)"/>
  <circle cx=".542" cy=".542" r=".542" fill="var(--sapContent_Illustrative_Color8)" transform="scale(-1 1) rotate(-12.183 348.846 304.618)"/>
  <path fill="var(--sapContent_Illustrative_Color25)" d="M35.65 66.806c-4.664 2.945-6.684 8.96-7.369 12.503l2.114 15.342h30.67c-.404-.747-4.089-1.46-5.959-3.19-3.697-3.421-10.732-1.112-5.73-4.055 1.994-1.173 2.866-3.41 2.503-4.377-.362-.966-12.769-3.757-13.892-4.398-2.797-1.595.718-3.76-1.308-6.013-4.768-5.302 5.473-6.61 6.218-8.462-3.34.519-4.837 1.128-7.247 2.65Z"/>
  <path fill="var(--sapContent_Illustrative_Color8)" d="M30.265 160.477c-1.5-1.25-1.507-1.709-2.507-4.084-.787-1.869-.348-9.542-.016-13.318 1.484-7.695 9.764-6.428 10.764-6.553s19.656 3.911 22.905 7.035c2.6 2.5 2.403 13.712 1.778 16.92H30.265Z"/>
  <path fill="var(--sapContent_Illustrative_Color25)" d="M53.47 143.984c1.438.548 4.01 3.353 4.95 4.408-3.791-.77-11.984-3.278-14.43-3.576-5.395-.657-3.42 3.363-7.863 3.363-1.95 0-1.742 2.134-2.223 4.19-.72 3.076 3.773.802 4.286 3.453.41 2.121.996 1.861 2.279 4.655H29.087c-1.856-.667-2.788-6.132-2.788-8.591 0-1.147.28-4.317 1.171-6.363l14.54-5.473c3.222 1.083 10.024 3.387 11.46 3.934Z"/>
  <path fill="var(--sapContent_Illustrative_Color24)" d="M38.544 145.175c-2.841 1.516-9.17 1.978-11.617 2.03 0 0-.07-.213.346-1.23.414-1.017 14.764-13.423 14.7-9.255-.078 5.21.123 6.561-3.429 8.455Z"/>
  <path fill="var(--sapContent_Illustrative_Color25)" d="M42.503 96.413c.49-1.276 9.009-3.344 10.633-.531.313-.682.67-2.151-.41-2.577-1.349-.531-7.074-.409-10.918 0-3.844.41-3.231 2.372-3.926 2.577-.556.164.232 8.738.695 13.004.872 10.183 2.908 27.737 2.908 29.733 0 2.495.364 3.597 2.163 4.006 1.8.409 11.982 3.067 11.982 2.863 0-.205-.327-.491-.777-1.677s-3.721-2.208-6.216-3.149c-2.494-.941-3.067-1.595-1.595-1.595 1.472 0 3.517.245 6.257.982 2.74.736 3.108 1.554 1.145-.982-1.963-2.535-9.815-1.799-9.201-2.086.613-.286 1.636.041 1.513-.572-.123-.614-.695-.736-1.513-.941-.818-.204-2.168-1.267-.818-1.39 1.08-.098 13.432 3.628 17.876 4.541-.272-.586-3.36-3.894-5.487-4.908-2.658-1.268-11.571-1.515-12.39-1.923-.817-.409-2.29-19.835-.899-26.869 1.39-7.034-1.636-6.91-1.022-8.506Z"/>
  <path fill="var(--sapContent_Illustrative_Color24)" d="M44.757 90.876c-2.7-.3-5.624.708-6.75 1.25v4.124l6.75-2.25c2.1-.7 11.149-.214 16.69.37-4.917-1.101-5.216-1.49-7.518-2.302-2.215-.781-5.798-.817-9.172-1.192Z"/>
  <path fill="var(--sapContent_Illustrative_Color24)" d="m39.024 82.698 3.441 9.674-3.442.697c-1.116-14.324-2.65-13.068-6.836-14.324 4.502-.781 6.357 1.923 6.837 3.953Z"/>
  <path fill="var(--sapContent_Illustrative_Color8)" d="M78.548 73.624c.661 1.101 4.73 3.526 4.407 4.627 3.012 0 9.212-.22 9.917-1.101.882-1.101-.329-3.526.177-6.77.357-2.286-1.62-2.783-1.4-3.995.22-1.213-1.724-5.204-2.621-6.938-.983-1.901-1.877-1.373-1.43 2.32-.864-4.437-1.218-4.849-2.218-4.671-1.148.203-.85 2.314-.374 5.477-.42-1.4-1.138-4.457-1.35-5.477a1.272 1.272 0 0 0-1.48-1.048c-.856.21-1.102 1.608-.506 5.72-.33-1.323-1.32-4.103-2.443-3.397-1.042.656-.31 5.826 1.013 11.115-1.522-1.558-2.507-2.964-3.515-2.413-.797.436 1.162 5.449 1.823 6.55Z"/>
  <path fill="var(--sapContent_Illustrative_Color25)" d="M78.43 70.436c-2.286-1.276-.475 1.967-.025 2.954.45.987 2.087 2.217 3.236 3.067 1.435 1.064 11.094.626 11.573-.81.383-1.148.017-2.967-.302-3.73-1.152.124-3.532.38-5.13 0-1.33-.315-1.92-.302-3.528 0-1.515.286-1.444.859-2.614.859s-.923-1.064-3.21-2.34Z"/>
  <path fill="var(--sapContent_Illustrative_Color8)" d="M45.796 98.51c.4-2.9 3.858-4.497 5.608-4.871 3 0 10.338.79 11.738.79.125-1.5 5.483-1.429 7.358-1.429.125-.875 3-.25 4.499 0 .1-1.3 2.458-2.125 3.624-2.375l3.125-8.373-1-4.25c.208-.624.85-2.149 1.75-3.248 1.124-1.375 3.749-1.75 7.123-.875 3.375.875 4.125 3.75 4.125 5.249 0 1.5-.75 10.873-1.5 16.997-.75 6.124-11.123 9.248-12.873 10.623-1.75 1.374-6.624 4.124-10.748 5.124-3.3.8-4.624 2.083-4.874 2.624-1.791.542-6.074 1.575-8.873 1.375-3.5-.25-4.874-2.75-8.374-5.624-3.499-2.874-1.208-8.113-.708-11.737Z"/>
  <path fill="var(--sapContent_Illustrative_Color22)" d="M44.163 96.944c.672-1.331 2.408-3.716 3.69-4.112.395-.14 5.11-.903 8.738 1.142-6.145-.679-8.32.148-10.202 4.087-.755 1.581-.89 6.31.926 11.185 1.06 2.848 2.616 6.916 5.593 8.02 1.657.046 1.986-.998 2.873-.336.886.661 7.589-1.373 8.441-3.454l1.938-.874c0 .629-1.213 2.36-2.387 3.422-1.467 1.327-8.076 4.898-14.293.906-3.315-2.129-5.897-9.103-6.219-11.597-.55-4.273-.22-6.168.902-8.389Z"/>
  <path fill="var(--sapContent_Illustrative_Color8)" d="M56.931 135.297c-1.92-1.11-15.854-1.665-22.581-1.804-.283 1.388-.678 4.191 0 4.302.846.139 14.537 4.163 18.206 5.689 2.936 1.221 8.75 7.262 11.291 10.13 1.483-.424 1.48-11.876 1.255-12.764-.282-1.11-5.771-4.165-8.17-5.553Z"/>
  <path fill="var(--sapContent_Illustrative_Color25)" d="M50.755 135.139c-6.024-.514-8.413-.508-10.26-.508-.623 0-1.272.222-1.517 1.248-.195.822 0 2.981 0 4.219.262-.44.93-1.418 1.517-1.809.734-.489 6.748 2.603 10.561 3.727-1.256-1.618-2.95-3.12-6.112-4.216-3.398-1.177-1.542-1.059-.927-.991 2.125.237 3.347.346 6.738-1.67Zm4.597 15.662c-1.231-.58-2.697-1.655-2.455-1.897 3.984 0 8.685 2.127 10.677 4.209 1.594 1.666 1.775 5.554 1.353 7.365h-3.532c-.362-2.204-.157-5.988-1.244-7.365-1.358-1.72-3.26-1.588-4.799-2.312Z"/>
  <path fill="var(--sapContent_Illustrative_Color22)" d="M40.128 153.93c2.855-6.099 5.66-7.687 9.322-7.955 2.451-.179 8.545 1.788 9.892 2.746 1.346.958 1.57.761 4.22 4.353-7.27-4.704-14.718-5.662-18.302-2.309-3.585 3.353-4.694 5.597-4.694 9.712h-1.877c0-1.59.41-4.349 1.439-6.547Z"/>
  <path fill="var(--sapContent_Illustrative_Color25)" d="M15.703 83.623c.583-1.167 9.41-3.525 14.09-4.619 3.35-.82 5.58-.19 6.866 1.12 1.495 1.522 1.885 3.62 2.432 8.179.547 4.558 2.313 37.723 2.678 46.839.331 8.294-1.188 9.088-4.047 9.651-2.326.457-10.482 1.307-15.405 1.854-4.923.547-6.062-.214-6.621-1.641-.527-1.345-.49-30.448-.672-45.034-.243-4.923.096-15.182.679-16.35Z"/>
  <path fill="var(--sapContent_Illustrative_Color24)" d="M18.051 83.665c.482-1.447 1.897-1.872 3.312-2.425-6.13 1.732-6.132 2.593-6.57 4.072-.351 1.183-.147 10.406 0 14.862 5.314 3.689 16.782 9.932 16.782 4.694 0-7.424.25-7.636-1.718-8.694-3.565-1.917-12.051 2.173-12.051-1.26 0-1.837-.358-9.44.245-11.25Z"/>
  <path fill="var(--sapContent_Illustrative_Color25)" d="M16.43 146.923c.913.296 8.346-.502 12.349-.956.877-.098 1.649-.16 2.556-.894.908-.733.664-1.815.664-3.176v-22.236c0-3.979.418-17.942 0-19.722-.33-1.402-1.292-2.27-2.967-2.897-1.676-.629-2.863-.385-4.503 0-1.296.303-5.9 1.466-7.75 1.85-1.85.384-2.618 1.64-2.967 2.408-.349.768-.314 4.816-.314 7.574s.314 31.906.314 34.768c0 2.863 2.185 3.141 2.618 3.281Z"/>
  <path fill="var(--sapContent_Illustrative_Color8)" d="M22.748 97.497a1.68 1.68 0 0 1 .3-.082c1.062-.293 2.177-.634 3.58-.762 1.536-.14 3.256.5 4.32 1.249 1.063.748.632 3.263.632 5.342v34.731c0 4.952.212 6.414-1.254 6.903-.857.286-1.609.384-2.691 0-1.082-.384-1.924-1.513-2.06-3.242-.085-1.096.28-19.708.28-27.039 0-7.33.279-14.626-1.047-16.437-.528-.72-1.235-.838-1.76-.745l-.3.082Z"/>
  <path fill="var(--sapContent_Illustrative_Color8)" d="M31.478 81.479c-1.795-2.243-7.08-.888-10.53-.136 9.476-2.675 11.018-3.382 13.899-2.326 3.46 1.267 4.032 3.13 5.243 18.698.521 6.706 3.048 40.473 1.495 44.155-1.554 3.681-5.145 3.159-10.325 3.791 1.404-.555 1.219-2.025 1.227-3.055.119-14.26.248-38.028.248-40.659 0-2.829.986-17.665-1.257-20.468Z"/>
  <circle cx="45.68" cy="80.515" r="6.367" fill="var(--sapContent_Illustrative_Color8)"/>
  <path fill="var(--sapContent_Illustrative_Color24)" d="M39.652 78.254c.676-2.223 2.43-3.33 3.78-3.653l1.762-.334c-.725.14-2.37 1.22-3.316 2.21-2.021 2.113-1.425 6.134 0 7.737 1.83 2.058 7.887 1.514 9.13-.195-.423 1.268-2.61 2.732-4.718 3-1.674.212-3.243.088-4.908-1.57-1.84-1.833-2.576-4.417-1.73-7.195Z"/>
  <path fill="var(--sapContent_Illustrative_Color25)" d="M39.652 78.254c.676-2.223 2.43-3.33 3.78-3.653l1.762-.334c-.725.14-2.37 1.22-3.316 2.21-2.021 2.113-1.425 6.134 0 7.737 1.83 2.058 7.887 1.514 9.13-.195-.423 1.268-2.61 2.732-4.718 3-1.674.212-3.243.088-4.908-1.57-1.84-1.833-2.576-4.417-1.73-7.195Z"/>
  <path fill="var(--sapContent_Illustrative_Color24)" d="M46.29 87.019c-1.674.212-3.243.088-4.908-1.57-1.446-1.44-2.21-3.344-2.06-5.442.08-1.142.653 1.22 1.31 1.067.156 1.27.621 2.438 1.246 3.14 1.83 2.058 7.887 1.514 9.13-.195-.423 1.269-2.61 2.732-4.718 3Z"/>
  <path fill="var(--sapContent_Illustrative_Color25)" d="M75.357 94.731c-2.587 0-3.2-1.44-4.854-1.744.118-1.114 4.588.119 5.26.119.67 0 .559-.844 1.47-1.275.91-.431 1.953.212 4.06.979 1.687.613 1.834 4.749 1.01 5.897-.112-1.006-.632-3.21-1.82-3.976-1.485-.958-3.258-1.485-3.593-1.245-.335.24 3.112 1.844 2.78 3.323-1.938-1.541-3-2.078-4.313-2.078Zm-2.717 13.403c1.811.63 12.83-6.075 15.763-6.351-10.292 6.97-16.122 9.009-21.071 10.741-3.003 1.05-2.784 1.025-3.77 2.305-.984 1.28-7.294 2.675-7.786 2.085-.492-.591-.156-2.258 0-3.365.096-.682 1.911-1.618.304-1.242-3.006.703-.202 4.287-2.466 4.877-2.265.591-5.005-1.863-5.595-3.635-.591-1.772-.927-2.095-1.862-3.08-.746-.785-1.875-4.596-1.226-6.1.71-1.642.247-1.659.345-4.219.098-2.56 1.261-.331 3.582-3.616 1.544-2.186.692 1.146-.49 2.13-1.18.985-1.965 7.592-.97 6.579 1.162-1.182 5.138-5.97 7.107-5.773 1.97.197 1.477 4.431 1.575 6.99.099 2.56 1.356 3.341 2.735.584 1.378-2.756 1.893-.584 1.302 3.059-.59 3.643.69 2.068 1.674.689.984-1.378 3.251-8.004 2.757-13.814 1.613.788 2.213 8.577 0 13.125-1.663 3.418 1.222 2.166 3.191.689 1.97-1.476 1.28-1.28 1.576-2.658.295-1.378 1.06-.788 3.325 0Z"/>
  <path fill="var(--sapContent_Illustrative_Color24)" d="M13.546 139.312c0 4.592 0 7.141 2.947 7.608-2.424-.855-2.213-1.743-1.904-11.032.388-11.656 2.532-27.167 1.072-29.229-3.092-4.367-.301-6.535-1.524-5.969-1.816.84-.591 33.737-.591 38.622Z"/>
</svg>
