<svg id="tnt-Dot-Calculator" xmlns="http://www.w3.org/2000/svg" width="45" height="45" fill="none" viewBox="0 0 45 45">
  <path fill="var(--sapContent_Illustrative_Color9)" d="M35.803 1H10.196A2.657 2.657 0 0 0 7.54 3.657v37.686A2.657 2.657 0 0 0 10.196 44h25.607a2.657 2.657 0 0 0 2.657-2.657V3.657A2.657 2.657 0 0 0 35.803 1Z"/>
  <path fill="var(--sapContent_Illustrative_Color17)" d="M10.196 1h25.607a2.659 2.659 0 0 1 2.657 2.657v12.32H7.54V3.657A2.659 2.659 0 0 1 10.195 1Z"/>
  <path fill="var(--sapContent_Illustrative_Color25)" d="M34.914 3.379H11.086c-.645 0-1.168.56-1.168 1.252v7.01c0 .691.523 1.252 1.168 1.252h23.828c.645 0 1.168-.56 1.168-1.252v-7.01c0-.692-.523-1.252-1.168-1.252Z" opacity=".99"/>
  <path fill="var(--sapContent_Illustrative_Color8)" d="M15.15 22.645a2.616 2.616 0 1 0-5.232 0 2.616 2.616 0 0 0 5.233 0Zm6.988 0a2.616 2.616 0 1 0-5.233 0 2.616 2.616 0 0 0 5.233 0Zm6.986 0a2.616 2.616 0 1 0-5.232 0 2.616 2.616 0 0 0 5.232 0ZM15.15 29.979a2.616 2.616 0 1 0-5.232 0 2.616 2.616 0 0 0 5.233 0Zm6.988 0a2.616 2.616 0 1 0-5.233 0 2.616 2.616 0 0 0 5.233 0Zm6.986 0a2.616 2.616 0 1 0-5.233 0 2.616 2.616 0 0 0 5.233 0ZM15.15 37.313a2.616 2.616 0 1 0-5.232 0 2.616 2.616 0 0 0 5.233 0Zm6.988 0a2.616 2.616 0 1 0-5.233 0 2.616 2.616 0 0 0 5.233 0Zm6.986 0a2.616 2.616 0 1 0-5.232 0 2.616 2.616 0 0 0 5.232 0Z"/>
  <path fill="var(--sapContent_Illustrative_Color26)" d="M36.112 30.217c0-1.576-1.172-2.854-2.617-2.854s-2.616 1.277-2.616 2.854v6.898c0 1.576 1.171 2.854 2.616 2.854s2.617-1.278 2.617-2.854v-6.898Zm0-7.572a2.616 2.616 0 1 0-5.233 0 2.616 2.616 0 0 0 5.233 0Z"/>
</svg>
