<svg id="tnt-Spot-RoadMap" xmlns="http://www.w3.org/2000/svg" width="128" height="128" fill="none" viewBox="0 0 128 128">
  <rect width="128" height="55" y="40" fill="var(--sapContent_Illustrative_Color20)" rx="8"/>
  <path fill="var(--sapContent_Illustrative_Color21)" d="M97.642 55.833a8.505 8.505 0 0 0-.96-1.574L98.082 40H21.207l.667 14.155c-.747.45-1.596.966-2.431 1.486v.007l-.002-.006c-2.074 1.292-4.062 2.609-4.202 2.99-.3.811-3.483 16.148-3.731 17.261 0 0-2.639 18.794-2.625 19.071.418.05 1.765.033 1.765.033l9.485-.033-.582-16.749s.085-.382 2.902-4.074c.118-.155.232-.306.34-.453l.299 6.307a3.058 3.058 0 0 0 .065.493 3.103 3.103 0 0 0 .14.458l1.208 2.99c.055.151.122.296.2.433.222.39.531.723.905.98a3.43 3.43 0 0 0 1.288.54c.476.094.994.102 1.53.008l58.31-10.271c.759 1.042 1.448 1.875 1.711 2.16.565.608 1.826 1.39 1.956 1.955.13.565 2.26 3.606 3.302 6.343.58 1.523 1.649 3.881 3.35 8.915l13.481-.029c-1.426-2.822-2.569-5.055-2.883-5.583-.956-1.608-3.128-6.431-3.259-7.778-.434-2.955-1.08-3.098-1.428-3.402-.348-.305-.753-1.347-1.049-2.257-.266-.815.182-2.094.138-3.05-.043-.956.201-2.852.297-4.283.043-.652-.13-5.561-.739-6.43-.608-.87-1.321-4.491-1.756-5.404-.434-.912-1.392-1.124-2.217-.95Z"/>
  <path fill="var(--sapContent_Illustrative_Color31)" d="M27.792 59.858c.064.478-.58 1.256-.974 1.68a8.07 8.07 0 0 1-1.31-1.094c-1.018-1.033-1.932-2.253-2.481-3.597a.968.968 0 0 1-.085-.439c2.402-1.497 4.916-2.96 4.916-2.96l2.96.622s.313.607.123 1.606c-.19 1-3.241 3.497-3.15 4.181Z"/>
  <path fill="var(--sapContent_Illustrative_Color3)" d="M26.735 61.627c-.605-.227-.942-.708-1.227-1.183-.003-.005-.01-.01-.013-.014.188-.06.33-.224.418-.402.095-.191.142-.4.224-.597.081-.197.207-.389.4-.477.065-.029.14-.05.174-.112.079-.14-.122-.386-.192-.497-.11-.173-.23-.341-.32-.525-.06-.119.098-.226.19-.13.119.123.24.251.275.303.19.267.476.467.767.2.107-.097.182-.225.274-.337.056-.069.12-.133.166-.208.038-.061.064-.129.095-.194.152-.322.42-.585.54-.922.155-.425-.026-.748-.125-1.15a2.932 2.932 0 0 1-.092-.737c.001-.106.017-.227.104-.287.08-.055.195-.035.265.03.151.14.097.412.213.583.089.132.262.189.417.173a.564.564 0 0 0 .357-.207c.217-.246.322-.592.443-.89l.049-.121.683.144s.313.607.123 1.606c-.19 1-3.241 3.497-3.15 4.18.065.479-.664 1.346-1.057 1.77h-.001Z"/>
  <path fill="var(--sapContent_Illustrative_Color3)" d="M24.447 60.048c.038 0 .074.02.107.04.142.087.273.191.421.267a1 1 0 0 0 .132.056c.13.14.265.277.404.41.347.333.719.645 1.12.913l-.103.102s.014.046.041.11c-.338.324-.652.674-.964.981-.187.186-.38.369-.59.529a1.863 1.863 0 0 1-.086.06c-.03.021-.033.024-.05.033a1.193 1.193 0 0 1 .167-.431c.136-.196.327-.34.496-.506.18-.176.34-.377.375-.634a.82.82 0 0 0-.33-.788c-.211-.154-.465-.228-.666-.397a2.601 2.601 0 0 1-.534-.61c-.014-.023-.027-.047-.025-.073.004-.038.046-.064.085-.063v.001Z"/>
  <path fill="var(--sapContent_Illustrative_Color9)" d="M101.712 28.986c.376 0 .724.1 1.031.278.308.178.573.43.788.744.214.312.374.681.469 1.09.095.41.126.857.081 1.326l-3.931 40.058a3.847 3.847 0 0 1-.31 1.167 4.294 4.294 0 0 1-.629 1.02 3.716 3.716 0 0 1-.86.764 2.8 2.8 0 0 1-1.008.402L32.125 87.323a4.246 4.246 0 0 1-1.564-.009 3.52 3.52 0 0 1-1.316-.55 3.053 3.053 0 0 1-.924-1.002 3.018 3.018 0 0 1-.387-1.362l-2.299-51.222a4.229 4.229 0 0 1 1.202-3.163 4.342 4.342 0 0 1 3.14-1.308l71.737.281-.002-.002Zm-1.684 43.517 3.925-40.077c.021-.224.024-.442.012-.652a3.531 3.531 0 0 0-.271-1.164 2.741 2.741 0 0 0-.265-.485 2.522 2.522 0 0 0-.341-.402 2.085 2.085 0 0 0-.875-.501 1.922 1.922 0 0 0-.515-.069l-71.715-.233a4.181 4.181 0 0 0-1.652.33 3.991 3.991 0 0 0-.717.394 4.2 4.2 0 0 0-.62.522 4.037 4.037 0 0 0-1.144 3.01l2.277 51.19c.01.24.05.47.111.686.062.216.148.422.257.612a2.907 2.907 0 0 0 .88.954c.181.125.378.234.589.322.21.088.432.156.664.202a3.9 3.9 0 0 0 .724.074c.25.001.504-.02.766-.066l65.238-11.454c.166-.03.33-.077.492-.142a3.032 3.032 0 0 0 .899-.568 3.809 3.809 0 0 0 .72-.862c.101-.164.19-.333.268-.51a3.77 3.77 0 0 0 .293-1.113"/>
  <path fill="var(--sapContent_Illustrative_Color8)" d="M29.377 86.618a2.907 2.907 0 0 1-.88-.954 2.891 2.891 0 0 1-.367-1.297l-2.277-51.191a4.072 4.072 0 0 1 .638-2.38c.146-.228.317-.439.505-.632s.395-.37.62-.522a4.034 4.034 0 0 1 1.513-.64c.278-.056.562-.084.856-.084l71.713.234a1.95 1.95 0 0 1 .981.264c.145.084.282.186.407.305.125.12.239.253.341.402.102.15.192.311.265.485.074.174.136.359.181.554a3.86 3.86 0 0 1 .078 1.262L100.027 72.5a3.747 3.747 0 0 1-.294 1.113 4.006 4.006 0 0 1-.987 1.372 3.444 3.444 0 0 1-.433.327c-.15.095-.307.178-.467.24a2.58 2.58 0 0 1-.492.143L32.12 87.15c-.26.046-.517.067-.766.066a3.892 3.892 0 0 1-.724-.074 3.426 3.426 0 0 1-.664-.202"/>
  <path fill="var(--sapContent_Illustrative_Color17)" d="m97.64 28.545-69.149-.383a4.002 4.002 0 0 0-.749.062 3.69 3.69 0 0 0-.444.102c-.067.019-.134.04-.199.063l-.195.072a3.56 3.56 0 0 0-.474.227 5.444 5.444 0 0 0-.27.167c-.041.026-.08.054-.12.082a4.622 4.622 0 0 0-.229.176c-.037.032-.074.061-.109.095a3.11 3.11 0 0 0-.104.096l-.1.1-.096.104a2.72 2.72 0 0 0-.094.107c-.031.04-.063.078-.094.116-.032.04-.062.08-.09.12-.028.04-.058.08-.086.123a5.133 5.133 0 0 0-.08.126l-.09.152a4.45 4.45 0 0 0-.227.48 4.075 4.075 0 0 0-.27 1.232c-.01.143-.01.29-.003.437l2.304 48.89a3.064 3.064 0 0 0 .13.744c.025.077.051.154.081.228l1.27 3.148a2.831 2.831 0 0 1-.193-.745 3.365 3.365 0 0 1-.022-.268l-2.303-51.22a4.468 4.468 0 0 1 .055-.909 4.14 4.14 0 0 1 .31-1.023c.024-.056.052-.112.078-.169a3.627 3.627 0 0 1 .18-.323 4.27 4.27 0 0 1 .177-.263l.095-.127a1.92 1.92 0 0 1 .1-.123c.032-.039.065-.075.098-.112.034-.037.067-.074.102-.11.036-.034.07-.07.106-.105a6.917 6.917 0 0 1 .223-.202l.118-.095c.038-.03.08-.061.121-.091.04-.03.083-.058.125-.086.045-.032.093-.062.14-.09a4.36 4.36 0 0 1 .292-.164c.05-.024.1-.05.151-.073a3.978 3.978 0 0 1 .403-.164c.068-.024.138-.045.209-.066.07-.021.142-.039.212-.057.083-.019.167-.037.253-.05a4.158 4.158 0 0 1 .519-.06c.088-.006.177-.007.265-.007l71.736.28-4.073-.44.01-.004Z"/>
  <path fill="var(--sapContent_Illustrative_Color9)" d="M101.712 28.986c.376 0 .724.1 1.031.278.308.178.573.43.788.744.214.312.374.681.469 1.09.095.41.126.857.081 1.326l-3.931 40.058a3.847 3.847 0 0 1-.31 1.167 4.294 4.294 0 0 1-.629 1.02 3.716 3.716 0 0 1-.86.764 2.8 2.8 0 0 1-1.008.402L32.125 87.323a4.246 4.246 0 0 1-1.564-.009 3.52 3.52 0 0 1-1.316-.55 3.053 3.053 0 0 1-.924-1.002 3.018 3.018 0 0 1-.387-1.362l-2.299-51.222a4.229 4.229 0 0 1 1.202-3.163 4.342 4.342 0 0 1 3.14-1.308l71.737.281-.002-.002Zm-1.684 43.517 3.925-40.077c.021-.224.024-.442.012-.652a3.531 3.531 0 0 0-.271-1.164 2.741 2.741 0 0 0-.265-.485 2.522 2.522 0 0 0-.341-.402 2.085 2.085 0 0 0-.875-.501 1.922 1.922 0 0 0-.515-.069l-71.715-.233a4.181 4.181 0 0 0-1.652.33 3.991 3.991 0 0 0-.717.394 4.2 4.2 0 0 0-.62.522 4.037 4.037 0 0 0-1.144 3.01l2.277 51.19c.01.24.05.47.111.686.062.216.148.422.257.612a2.907 2.907 0 0 0 .88.954c.181.125.378.234.589.322.21.088.432.156.664.202a3.9 3.9 0 0 0 .724.074c.25.001.504-.02.766-.066l65.238-11.454c.166-.03.33-.077.492-.142a3.032 3.032 0 0 0 .899-.568 3.809 3.809 0 0 0 .72-.862c.101-.164.19-.333.268-.51a3.77 3.77 0 0 0 .293-1.113"/>
  <g opacity=".5">
    <path fill="var(--sapContent_Illustrative_Color2)" d="M38.219 28.944c-8.186 20.239-3.959 42.29 9.78 55.418l-1.71.3c-13.498-13.52-17.525-35.525-9.58-55.723l1.51.005Z"/>
    <path fill="var(--sapContent_Illustrative_Color2)" d="M43.444 28.961c-8.912 19.945-4.77 42.178 9.403 54.55l-.666.116C38.115 71.08 34.07 48.876 42.868 28.96l.576.002Zm15.842.052a41.583 41.583 0 0 0-1.801 3.065c-9.356 17.6-4.289 38.23 10.805 46.254a27.484 27.484 0 0 0 4.058 1.754l-2.679.47a29.077 29.077 0 0 1-2.039-.983l-.37-.2c-15.511-8.535-20.5-29.632-11.24-47.53l.223-.425c.439-.825.9-1.629 1.384-2.41l1.66.005Z"/>
    <path fill="var(--sapContent_Illustrative_Color2)" d="M70.325 29.049a31.313 31.313 0 0 0-5.16 7.112c-7.228 13.596-3.331 29.578 8.384 35.806 8.532 4.536 19.034 2.74 26.903-3.825l-.119 1.224c-8.026 6.31-18.535 7.981-27.196 3.377l-.286-.155c-11.915-6.556-15.748-22.764-8.634-36.513l.172-.327a32.25 32.25 0 0 1 4.735-6.703l1.201.004Z"/>
    <path fill="var(--sapContent_Illustrative_Color2)" d="M85.857 29.1c-5.196 1.225-10.096 4.894-13.042 10.435-5.04 9.482-2.338 20.64 5.841 24.988 7.617 4.05 17.472.856 22.862-7.26l-.106 1.075c-5.615 7.718-15.35 10.72-23.003 6.65l-.199-.106c-8.204-4.515-10.881-15.633-6.095-25.14l.235-.455c2.676-5.034 6.951-8.582 11.633-10.194l1.874.006Zm9.415.03c.6.228 1.192.496 1.772.804l.198.107c2.747 1.512 4.874 3.764 6.31 6.448l-.097.987c-1.416-2.992-3.671-5.488-6.658-7.076a14.865 14.865 0 0 0-3.292-1.276l1.767.006Z"/>
  </g>
  <path fill="var(--sapContent_Illustrative_Color9)" fill-rule="evenodd" d="M101.698 29.152a1.925 1.925 0 0 1 .98.263c.146.085.283.187.408.306.125.12.239.253.341.402.102.15.191.312.265.486.074.174.136.358.181.553a3.859 3.859 0 0 1 .078 1.262L100.027 72.5a3.747 3.747 0 0 1-.294 1.113 4.019 4.019 0 0 1-.987 1.372 3.446 3.446 0 0 1-.433.327 2.604 2.604 0 0 1-.959.383L32.12 87.151c-.26.045-.517.066-.766.065a3.892 3.892 0 0 1-.724-.074 3.44 3.44 0 0 1-.589-.173l.002-.003a4.006 4.006 0 0 1-.142-.064l-.657-.382a2.912 2.912 0 0 1-.748-.856 2.896 2.896 0 0 1-.367-1.297l-2.276-51.191a4.063 4.063 0 0 1 .638-2.38c.146-.228.317-.439.505-.632a4.02 4.02 0 0 1 .62-.522 4.028 4.028 0 0 1 1.513-.64 4.3 4.3 0 0 1 .856-.084l71.713.234Zm-71.466.056c-.29 0-.571.028-.846.084l-.203.046a3.88 3.88 0 0 0-.584.197 4.31 4.31 0 0 0-.709.389 3.967 3.967 0 0 0-.613.516l-.136.147a3.98 3.98 0 0 0-.727 1.196l-.068.192a3.987 3.987 0 0 0-.198 1.442l2.25 50.6a2.863 2.863 0 0 0 .363 1.283 2.864 2.864 0 0 0 .739.846l.141.082.572.333c.206.087.427.155.656.2.172.034.35.057.532.067l.184.005c.247.002.5-.019.758-.064l64.48-11.322a2.49 2.49 0 0 0 .368-.096l.12-.044a2.77 2.77 0 0 0 .461-.239 3.4 3.4 0 0 0 .324-.234l.103-.088c.102-.09.2-.188.293-.291l.091-.106a4.4 4.4 0 0 0 .252-.337l.077-.12a4.18 4.18 0 0 0 .205-.374l.059-.13c.056-.13.106-.264.148-.4l.04-.138a3.66 3.66 0 0 0 .085-.42l.017-.14 3.879-39.616a3.82 3.82 0 0 0 .019-.487l-.007-.157a3.942 3.942 0 0 0-.058-.457l-.031-.146a3.203 3.203 0 0 0-.126-.416l-.053-.131a2.652 2.652 0 0 0-.189-.367l-.073-.113a2.531 2.531 0 0 0-.337-.398 2.17 2.17 0 0 0-.296-.236l-.107-.066a1.916 1.916 0 0 0-.838-.256l-.131-.004-70.886-.232Z" clip-rule="evenodd"/>
  <ellipse cx="87.981" cy="48.336" fill="var(--sapContent_Illustrative_Color27)" rx="10.765" ry="12.239" transform="rotate(28.383 87.981 48.336)"/>
  <ellipse cx="88.121" cy="48.397" fill="var(--sapContent_Illustrative_Color26)" rx="8.596" ry="9.85" transform="rotate(28.383 88.12 48.397)"/>
  <ellipse cx="72.871" cy="39.228" fill="var(--sapContent_Illustrative_Color17)" rx="3.108" ry="3.3" transform="rotate(28.383 72.87 39.228)"/>
  <ellipse cx="64.911" cy="64.067" fill="var(--sapContent_Illustrative_Color9)" rx="4.221" ry="4.687" transform="rotate(46.132 64.91 64.067)"/>
  <ellipse cx="45.072" cy="73.92" fill="var(--sapContent_Illustrative_Color1)" rx="3.543" ry="4.117" transform="rotate(58.77 45.072 73.92)"/>
  <ellipse cx="35.982" cy="66.204" fill="var(--sapContent_Illustrative_Color11)" rx="5.127" ry="5.94" transform="rotate(65.41 35.982 66.204)"/>
  <ellipse cx="52.025" cy="46.295" fill="var(--sapContent_Illustrative_Color16)" rx="6.849" ry="7.262" transform="rotate(59.093 52.025 46.295)"/>
  <ellipse cx="45.689" cy="42.011" fill="var(--sapContent_Illustrative_Color15)" rx="3.203" ry="3.392" transform="rotate(67.093 45.69 42.011)"/>
  <path fill="var(--sapContent_Illustrative_Color31)" d="m11.706 99.838 3.13-22.736c.252-1.138 3.505-16.809 3.811-17.638.143-.39 2.175-1.735 4.294-3.055.09.362.238.71.408 1.04.236.46.521.894.827 1.311.274.375.574.726.867 1.087.519.638.558.586.658.843-.023.297.682.88.754 1.012.072.132.248.76.691.608.443-.153 1.9-3.013 2.18-3.448.282-.434 5.344-6.145 6.723-3.13 1.379 3.015-2.582 5.635-3.35 6.48-.768.846-1.735 2.274-2.656 5.089-.92 2.814-1.146 4.236-4.026 8.009-2.878 3.772-2.965 4.163-2.965 4.163l.707 20.364H11.705v.001Z"/>
  <path fill="var(--sapContent_Illustrative_Color3)" d="M24.445 60.049a.21.21 0 0 1 .106.04c.142.086.274.19.422.267.148.076.32.123.482.086l.043-.014c.198-.076.198.085.198.235 0 .347.718.947.76 1.03.04.083.083.189.11.252-.338.325-.652.675-.964.982a6.04 6.04 0 0 1-.59.529 1.81 1.81 0 0 1-.086.06c-.03.021-.032.024-.05.033a1.196 1.196 0 0 1 .167-.431c.136-.196.327-.34.497-.506.178-.176.339-.377.374-.634a.82.82 0 0 0-.329-.788c-.212-.154-.466-.228-.667-.397a2.601 2.601 0 0 1-.534-.61c-.014-.023-.027-.047-.025-.073.004-.038.046-.064.085-.063l.001.002ZM17.12 99.837c-.06-1.164-.525-3.234-.363-4.39.314-2.257.957-4.45 1.395-6.682.22-1.124.342-2.264.563-3.389.225-1.145.484-2.294.832-3.407a14.984 14.984 0 0 1 2.523-4.835 22.321 22.321 0 0 1 1.89-2.078c.659-.647 1.23-1.303 1.672-2.12.897-1.65 1.284-3.512 1.926-5.263a15.094 15.094 0 0 1 2.852-4.828c.617-.7 1.283-1.354 1.948-2.008.632-.62 1.78-1.386 2.259-2.138.377-.593.426-1.145.248-1.936a7.646 7.646 0 0 0-.615-1.77c.767-.22 1.428-.075 1.8.74 1.38 3.015-2.581 5.634-3.349 6.48-.768.845-1.735 2.274-2.656 5.088-.92 2.814-1.146 4.236-4.026 8.009-2.878 3.773-2.965 4.163-2.965 4.163l.707 20.365h-6.64l-.002-.001Z"/>
  <path fill="var(--sapContent_Illustrative_Color31)" d="M95.451 81.032c.133.577 2.309 3.685 3.374 6.482.705 1.85 2.105 4.867 4.473 12.311h14.354c-2.157-4.287-4.14-8.206-4.575-8.937-.977-1.643-3.197-6.571-3.33-7.947-.444-3.02-1.104-3.166-1.459-3.477-.355-.31-.769-1.375-1.072-2.306-.272-.833.186-2.139.141-3.116-.044-.976.206-2.914.303-4.376.045-.666-.133-5.683-.754-6.571-.622-.888-1.35-4.588-1.794-5.52-.444-.933-1.423-1.15-2.266-.972-.267-.577-.786-1.454-1.275-1.942-.488-.488-.887-.538-1.376-.627-.39-.071-1 .17-1.193.324a7.695 7.695 0 0 0-.951-1.356c-.526-.587-2.043-.486-2.6-.252-.487.197-1.335 1.292-1.627 1.77l1.5 4.002.127-.31c.178.236.308.342.415.697.133.444.1 1.478-.121 1.167l-.005-.007a4.186 4.186 0 0 1-.569-1.115L93.813 54.5c-.099-.347-.224-.558-.271-.685-.188-.5-.71-1.154-1.199-2.842-.488-1.687-1.628-6.078-1.98-6.287-.647-.384-1.22-.156-1.838.445-.812.789 0 4.644 0 5.843 0 1.44.655 3.907 1.454 6.304.799 2.397.83 2.642.83 3.573-.223-.776-.684-1.635-1.882-3.278-1.199-1.642-2.377-1.212-2.954-.769-.577.444.465 2.694.465 3.271s.222 2.353.71 3.907c.49 1.554.889 3.596.889 4.662 0 1.065.31 1.864 1.287 4.218.977 2.353 3.552 5.55 4.13 6.17.576.622 1.864 1.421 1.997 1.999Z"/>
  <path fill="var(--sapContent_Illustrative_Color9)" d="m34.155 58.687-.456-.238a2.398 2.398 0 0 1-.992-.967l-.247-.447s1.563-3.291 3.286-1.884c1.905 1.555-1.59 3.536-1.59 3.536Zm54.944-12.211c.144.413.515.31.887.31.56-.116.935-.338 1.052-.434-.144-.454-.536-1.556-.701-1.836-.207-.351-.826-.165-1.115 0-.288.165-.433.536-.433.64 0 .102.165.907.31 1.32Zm-.971 12.11-1.465 1.135h-.35c-.145-.523-.454-1.7-.537-2.228-.103-.66.248-.826.64-.95.392-.123 1.258.352 1.465.578.165.182.233 1.053.247 1.465Z"/>
  <path fill="var(--sapContent_Illustrative_Color3)" d="M105.684 81.154c-.165-.7 1.567.083 2.063 0 1.497.272 1.897 3.918 1.691 3.879-.206-.041-3.589-3.177-3.754-3.879Zm-4.865-18.089c.711-.427.995 1.137 1.848 1.99.854.854 2.276-.497 2.916 0 .64.498.924 8.035.569 8.463-.284.341-1.209 1.422-1.636 1.92-.308-.285-.967-1.067-1.137-1.92-.214-1.067-1.565-2.489-2.134-2.418-.455.057.19 2.916.569 4.338-.237-.332-.91-1.422-1.707-3.129 0-1.209-4.693-6.756-4.622-7.253.072-.498 1.565 0 2.063 0 .497 0 2.56-1.565 3.271-1.991Zm-12.063-4.956c.4-.452.556.156 1.304 1.2.748 1.043.974 2.242.974 3.06 0 .817.017 2 0 2.33-.017.33-.035 2.434-.244 2.677-.208.244 0 1.826 0 1.93 0 .105-.608-1.338-.4-1.634.21-.296-.067-.916-.119-1.142-.052-.227.305-1.835.225-2.554-.063-.578-.227-.86-.314-1.607-.087-.748-1.026-1.582-1.322-1.878-.295-.296-.268-2.196-.104-2.382Zm14.571-1.548c.099.163.317.557.4.835.105.347.435 2.277.574 2.834.139.556 1.043 1.982.904 1.895-.139-.087-.817-.887-1.043-1.234-.226-.348-.591-1.6-.747-2.208 0-.64-.383-1.623-.574-2.035l.486-.087Zm-3.86-2.399c.348.776 1.061 2.396 1.131 2.66.087.33.052 1.548.121 1.86.07.314.852 1.67.4 1.235-.452-.435-1.373-2.99-1.739-4.52-.069-.276-.283-.811-.382-1.044l.47-.191Zm-5.651.365c.4-.319 1.224-.939 1.321-.87.122.088.244.157.122.47.052.66.73 1.913.991 2.678.209.612-.313 3.216-.296 2.66.018-.556-.482-1.227-.482-1.227l-.335.619c-.284-.928-.873-2.842-.956-3.078a28.731 28.731 0 0 1-.365-1.252Z"/>
</svg>
