<svg id="tnt-Scene-ChartDoughnut" xmlns="http://www.w3.org/2000/svg" width="320" height="240" fill="none" viewBox="0 0 320 240">
  <rect width="320" height="138" y="59" fill="var(--sapContent_Illustrative_Color20)" rx="24"/>
  <path fill="var(--sapContent_Illustrative_Color21)" fill-rule="evenodd" d="m108.418 192.85 147.17-26.279c.917-.166.95-1.457.056-1.678l-92.284-22.988a8.494 8.494 0 0 0-3.379-.155l-116.2 17.909c-2.053.32-2.45 3.103-.563 3.986l61.854 28.763a5.528 5.528 0 0 0 3.346.43v.012Z" clip-rule="evenodd"/>
  <path fill="var(--sapContent_Illustrative_Color8)" d="m67.912 61.77 170.092-10.23 21.857 95.049c.15.64.17 1.269.1 1.848-.07.58-.26 1.129-.54 1.599s-.64.869-1.079 1.169c-.44.3-.95.499-1.519.569L92.368 172.385c-.7.09-1.39.02-2.039-.16a5.27 5.27 0 0 1-1.809-.919 5.773 5.773 0 0 1-1.379-1.529 5.451 5.451 0 0 1-.75-1.978L67.912 61.77Z"/>
  <path fill="var(--sapContent_Illustrative_Color13)" d="M230.358 36.005c.56-.03 1.12.07 1.649.26.53.19 1.04.49 1.499.87.46.379.86.828 1.18 1.338.32.51.569 1.079.709 1.678l2.619 11.38L67.912 61.77l-2.198-12.648a4.46 4.46 0 0 1 .06-1.898c.15-.59.42-1.13.79-1.589.369-.46.839-.84 1.388-1.109.55-.27 1.17-.44 1.85-.48l160.556-8.042ZM78.426 56.235a3.66 3.66 0 0 0 1.47-.389c.43-.22.799-.53 1.089-.899.29-.37.5-.8.62-1.269.12-.47.13-.979.04-1.508a4.101 4.101 0 0 0-.57-1.479 4.73 4.73 0 0 0-1.05-1.179c-.41-.33-.89-.59-1.389-.759-.5-.17-1.04-.25-1.579-.22-.54.03-1.03.16-1.47.38a3.32 3.32 0 0 0-1.098.9c-.3.369-.51.798-.62 1.268-.11.47-.14.989-.04 1.518.1.53.29 1.04.57 1.489a4.713 4.713 0 0 0 2.449 1.938c.499.17 1.039.25 1.578.22"/>
  <path fill="var(--sapContent_Illustrative_Color14)" d="M92.368 172.375c-.7.089-1.389.02-2.038-.16-.65-.19-1.27-.5-1.81-.919a5.79 5.79 0 0 1-1.379-1.529 5.385 5.385 0 0 1-.75-1.978L67.913 61.77l-2.198-12.648c-.06-.32-.08-.64-.07-.949 0-.31.05-.61.12-.899.07-.29.17-.57.29-.83.12-.259.28-.509.45-.738l-2.789 3.626c-.17.23-.32.47-.45.73a4.33 4.33 0 0 0-.41 1.708c0 .31.01.62.07.939l2.17 12.508 18.159 104.86c.12.709.38 1.368.74 1.958a5.51 5.51 0 0 0 3.148 2.418 4.908 4.908 0 0 0 2.018.159l162.976-20.59 4.687-2.258-164.455 20.611Z"/>
  <path fill="var(--sapContent_Illustrative_Color2)" d="M77.058 48.523c.54-.03 1.07.05 1.58.22.509.17.969.43 1.388.76.42.329.77.728 1.05 1.178.28.45.48.95.57 1.479.09.53.08 1.039-.04 1.508-.12.47-.33.9-.62 1.269-.29.37-.66.68-1.09.9-.43.219-.929.359-1.469.389a4.23 4.23 0 0 1-1.579-.22 4.46 4.46 0 0 1-1.389-.76 4.765 4.765 0 0 1-1.06-1.178 4.08 4.08 0 0 1-.569-1.489c-.09-.54-.07-1.049.04-1.518.11-.47.33-.91.62-1.269a3.407 3.407 0 0 1 2.568-1.279v.01Z"/>
  <path fill="var(--sapContent_Illustrative_Color13)" d="M196.788 110.691c.722-.028 1.387.609 1.458 1.388l.043.623c-.057-.779-.708-1.416-1.43-1.416l-12.415.071c-.779.056-1.246.679-1.218 1.444.128 2.902-.297 5.776-1.217 8.394-1.076 3.072-2.831 5.748-5.125 7.829a17.72 17.72 0 0 1-10.504 4.587 19.578 19.578 0 0 1-5.648-.354 1.277 1.277 0 0 0-1.557 1.061l-2.039 13.223c-.113.75.34 1.514 1.034 1.712-6.413-1.528-12.529-4.855-17.668-9.668-5.69-5.309-9.951-12.175-12.231-19.72-2.279-7.531-2.463-15.402-.538-22.58a36.07 36.07 0 0 1 3.355-8.267c-.311.637-.042 1.5.595 1.94l11.41 7.53c.283.185.595.255.878.227a1.28 1.28 0 0 0 .991-.623c1.529-2.548 3.581-4.643 6.044-6.158.34-.212.694-.41 1.048-.594a18.149 18.149 0 0 0-2.86 1.882c-3.114 2.506-5.337 6.045-6.427 10.136-1.09 4.092-.991 8.579.326 12.897a25.472 25.472 0 0 0 6.965 11.268c3.242 3.044 7.149 5.054 11.226 5.805 1.727.311 3.468.396 5.153.254a17.928 17.928 0 0 0 6.512-1.84c3.525-1.784 6.356-4.714 8.168-8.395 1.6-3.284 2.336-7.05 2.109-10.914-.042-.765.425-1.402 1.119-1.458l12.5-.284h-.057Z"/>
  <path fill="var(--sapContent_Illustrative_Color15)" d="M168.83 64.202h.156c4.232.198 8.494 1.203 12.556 2.972 4.474 1.94 8.664 4.785 12.288 8.367a44.423 44.423 0 0 1 8.876 12.443 44.01 44.01 0 0 1 4.006 13.222c.1.751-.368 1.374-1.033 1.43l-14.977.043c-.722 0-1.388-.652-1.501-1.43a23.058 23.058 0 0 0-1.911-5.96 22.777 22.777 0 0 0-4.488-6.271c-1.84-1.798-3.935-3.214-6.2-4.19a18.042 18.042 0 0 0-5.649-1.43c-.736-.057-1.387-.694-1.486-1.487l-1.642-16.322c-.071-.722.368-1.345 1.019-1.401l-.014.014Z"/>
  <path fill="var(--sapContent_Illustrative_Color21)" d="M155.777 72.908a33.028 33.028 0 0 1 1.67-.099c.737-.028 1.388.623 1.473 1.416l1.387 13.646c.085.793-.453 1.43-1.161 1.487-.113 0-.212.014-.297.028-.708.057-1.359.156-2.01.283-.128.029-.227.043-.326.071-.099.028-.198.043-.283.07-.042 0-.085.03-.142.03-.056 0-.085.027-.141.027-.057.015-.128.029-.184.043-.793.212-1.515.453-2.209.736-.113.043-.184.07-.254.1-.184.07-.326.14-.468.212a.487.487 0 0 1-.127.056c-.057.028-.127.057-.184.085a17.19 17.19 0 0 0-1.529.835c-2.463 1.515-4.516 3.624-6.045 6.158a1.277 1.277 0 0 1-.991.623 1.366 1.366 0 0 1-.877-.226l-11.41-7.532c-.637-.438-.906-1.288-.595-1.939.326-.594.637-1.104.963-1.614.141-.212.24-.382.354-.552.141-.212.254-.382.382-.566.127-.184.241-.34.34-.481.042-.057.085-.114.127-.184l.212-.298c.057-.07.099-.141.156-.198.071-.085.142-.184.212-.269l.34-.425c.043-.056.099-.113.142-.17.085-.099.155-.198.24-.283.043-.042.085-.099.114-.141l.254-.297c.029-.043.071-.071.1-.114.311-.354.622-.693.948-1.033.127-.127.227-.24.34-.354.495-.496.948-.934 1.415-1.36.043-.041.085-.07.128-.112.099-.085.184-.17.283-.241.057-.057.113-.1.17-.141.099-.085.212-.17.311-.27.114-.099.241-.198.354-.297.057-.056.128-.099.198-.155.085-.071.17-.128.255-.199.043-.042.099-.07.142-.113.099-.085.212-.156.325-.24.029-.029.071-.043.099-.071.128-.1.269-.199.397-.298.623-.439 1.231-.85 1.854-1.231a31.185 31.185 0 0 1 13.562-4.445l-.014.042Z"/>
  <path fill="var(--sapContent_Illustrative_Color14)" d="m184.33 111.371 12.515-.085c.721 0 1.387.651 1.443 1.43.029.326.043.637.057.963 0 .269.014.41.028.552 0 .354.015.594.015.849v1.67c0 .185 0 .369-.015.553v.24c0 .114 0 .241-.014.354 0 .085 0 .17-.014.255 0 .113-.014.241-.028.354 0 .071 0 .156-.014.226l-.043.552c0 .085-.014.156-.028.241 0 .113-.028.212-.028.326 0 .099-.029.212-.029.311 0 .085-.014.156-.028.241 0 .113-.028.226-.043.34 0 .042 0 .099-.014.141a37.082 37.082 0 0 1-1.798 7.503c-1.373 3.95-3.397 7.531-5.959 10.603-.071.085-.142.17-.213.241-.042.056-.085.099-.127.156a4.761 4.761 0 0 1-.354.396 33.577 33.577 0 0 1-2.223 2.265 30.68 30.68 0 0 1-7.191 4.941c-.17.084-.255.127-.326.155a30.945 30.945 0 0 1-6.554 2.279c-1.416.326-2.86.553-4.318.68-3.539.311-7.149.042-10.73-.807a1.584 1.584 0 0 1-1.119-1.741l2.039-13.222a1.275 1.275 0 0 1 1.147-1.09c.127 0 .269 0 .41.028 1.883.396 3.794.51 5.648.354a19.787 19.787 0 0 0 2.407-.368 17.724 17.724 0 0 0 8.098-4.219c2.293-2.095 4.048-4.77 5.124-7.828.934-2.633 1.345-5.493 1.218-8.395-.029-.764.438-1.373 1.118-1.43l-.057-.014Z"/>
</svg>
