<svg id="tnt-Scene-Unlock" xmlns="http://www.w3.org/2000/svg" width="320" height="240" fill="none" viewBox="0 0 320 240">
  <path fill="var(--sapContent_Illustrative_Color20)" fill-rule="evenodd" d="M320 83v90c0 13.246-10.754 24-24 24H24c-13.246 0-24-10.754-24-24V83c0-13.246 10.754-24 24-24h272c13.246 0 24 10.754 24 24Z" clip-rule="evenodd"/>
  <path fill="var(--sapContent_Illustrative_Color21)" d="m199.224 154.64 41.9 25.13c.36.22.13.41-.5.43l-9.36.31 4.27 2.56-16.04.46-8.25-.48-2.98-1.76-99.91 3.33 4.72 2.83-18.26.52-9.45-1.2-2.95-1.75-14.34.33-9.58-1.44-2.14-1.29-2.17-.2-37.95-22.75 23.73-1.93.04.02c.09-.02.22-.03.35-.03l157.1-3.44c.65-.02 1.45.15 1.81.36l-.04-.01Z"/>
  <path fill="var(--sapContent_Illustrative_Color28)" d="m227.145 173.4 16.72-.87v10.96l-16.72.39V173.4Z"/>
  <path fill="var(--sapContent_Illustrative_Color29)" d="m227.145 173.44-7.46.39.05 7.57 7.42 2.47v-10.43h-.01Z"/>
  <path fill="var(--sapContent_Illustrative_Color28)" d="m73.404 167.51 13.78-.16 2.24 10.83-16.02.03v-10.7Z"/>
  <path fill="var(--sapContent_Illustrative_Color30)" d="M66.285 161.77v10.31l7.13 6.13v-10.59l-7.13-5.85Z"/>
  <path fill="var(--sapContent_Illustrative_Color28)" d="m95.694 179.41 19.05-.99v11.23l-19.05.45v-10.7.01Z"/>
  <path fill="var(--sapContent_Illustrative_Color30)" d="m95.685 179.38-7.46-4.8.05 10.31 7.42 5.2v-10.72l-.01.01Z"/>
  <path fill="var(--sapContent_Illustrative_Color30)" d="m63.685 51.5 29-19.5v148l-29-14.5v-114Z"/>
  <path fill="var(--sapContent_Illustrative_Color28)" d="m92.685 32 163 8v134l-163 6V32Z"/>
  <path fill="var(--sapContent_Illustrative_Color26)" d="M251.525 168.95c-.28 0-.5-.22-.5-.5V44.93l-114.21-7.72a.487.487 0 0 1-.47-.52c.01-.28.25-.5.52-.47l114.68 7.75c.27.01.47.23.47.5v124c0 .28-.22.5-.5.5l.01-.02Z"/>
  <path fill="var(--sapContent_Illustrative_Color30)" d="M105.685 48.2a4 4 0 0 1 4.19-4l129 6.31c2.13.1 3.8 1.86 3.8 3.99v104.61c0 2.15-1.7 3.92-3.85 4l-129 4.73a4.008 4.008 0 0 1-4.15-4V48.2h.01Z"/>
  <path fill="var(--sapContent_Illustrative_Color14)" d="m127.685 30.02 6-3.02v161l-6-2.01V30.02Z"/>
  <path fill="var(--sapContent_Illustrative_Color13)" d="m133.685 27 109 23.7v112.27l-109 25.03V27Z"/>
  <path fill="var(--sapContent_Illustrative_Color14)" d="m141.075 37.3 95.38 20.74v98.24l-95.38 21.9V37.3Z"/>
  <path fill="var(--sapContent_Illustrative_Color22)" d="M158.685 79.03h-7v53.72h7V79.03Z"/>
  <path fill="var(--sapContent_Illustrative_Color13)" d="M161.235 81.88h-7v53.72h7V81.88Z"/>
  <path fill="var(--sapContent_Illustrative_Color8)" d="M159.685 84.85h-1v47.781h1v-47.78Z"/>
  <path fill="var(--sapContent_Illustrative_Color30)" d="M241.134 74.55c1.99-.55 4.04-.57 6.03-.05.21.06.36.3.36.57v17.62c0 .27-.15.52-.36.58-1.98.57-4.04.6-6.03.09-.21-.05-.36-.29-.36-.57V75.13c0-.27.15-.52.36-.58Z"/>
  <path fill="var(--sapContent_Illustrative_Color14)" d="M242.614 93.62c-.5-.05-.99-.13-1.48-.25-.21-.05-.36-.29-.36-.56V75.15c0-.27.15-.52.36-.58.49-.15.98-.26 1.48-.34"/>
  <path fill="var(--sapContent_Illustrative_Color15)" d="M241.485 73.08c1.66-.55 3.38-.56 5.03-.04.18.06.3.3.3.57v17.62c0 .27-.12.52-.3.58-1.66.56-3.37.59-5.03.07-.18-.05-.3-.29-.3-.57V73.65c0-.27.12-.52.3-.57Z"/>
  <path fill="var(--sapContent_Illustrative_Color30)" d="M242.665 72.77c-.49.07-.98.17-1.46.31h-.01v18.79h.01c.48.13.97.22 1.46.29v-19.4.01Z"/>
  <path fill="var(--sapContent_Illustrative_Color30)" d="m246.825 83.17-5.64.06v1.08l5.64-.07v-1.07Z"/>
  <path fill="var(--sapContent_Illustrative_Color8)" d="m245.885 83.18-2.42.03v1.07l2.42-.03v-1.07Z"/>
  <path fill="var(--sapContent_Illustrative_Color26)" d="M246.375 91.86V73c-.71-.2-1.17-.27-1.25-.27l.02 19.42s.51-.06 1.23-.29Z"/>
  <path fill="var(--sapContent_Illustrative_Color30)" d="M241.285 124.74c1.99-.59 4.04-.64 6.03-.16.21.05.36.29.36.56v17.62c0 .27-.15.52-.36.58-1.98.6-4.04.67-6.03.2-.21-.05-.36-.29-.36-.56v-17.66c0-.27.15-.52.36-.58Z"/>
  <path fill="var(--sapContent_Illustrative_Color14)" d="M242.765 143.789c-.5-.05-.99-.13-1.48-.25-.21-.05-.36-.29-.36-.56v-17.66c0-.27.15-.52.36-.58.49-.15.98-.26 1.48-.34"/>
  <path fill="var(--sapContent_Illustrative_Color15)" d="M241.635 123.26c1.66-.58 3.38-.62 5.03-.13.18.05.3.29.3.56v17.62c0 .27-.12.52-.3.58-1.66.59-3.37.65-5.03.16-.18-.05-.3-.29-.3-.56v-17.66c0-.27.12-.52.3-.58v.01Z"/>
  <path fill="var(--sapContent_Illustrative_Color30)" d="M242.805 122.93c-.49.08-.98.19-1.46.34h-.01v18.79h.01c.48.12.97.21 1.46.26v-19.4.01Z"/>
  <path fill="var(--sapContent_Illustrative_Color30)" d="m246.965 133.25-5.63.17v1.07l5.63-.17v-1.07Z"/>
  <path fill="var(--sapContent_Illustrative_Color8)" d="m246.025 133.28-2.41.07v1.07l2.41-.07v-1.07Z"/>
  <path fill="var(--sapContent_Illustrative_Color26)" d="M246.524 141.95v-18.86c-.71-.19-1.17-.25-1.25-.25l.02 19.42s.51-.07 1.23-.31Z"/>
  <path fill="var(--sapContent_Illustrative_Color22)" d="M176.312 100.122c-2.49 21.085 10.386 38.795 25.947 37.366 12.945-1.197 21.659-15.707 21.338-31.278-.292-14.286-8.208-27.455-19.004-30.868-12.594-3.978-26.074 6.03-28.281 24.78Z"/>
  <path fill="var(--sapContent_Illustrative_Color13)" d="M179.627 100.55c-2.237 20.696 10.28 38.075 25.277 36.694 12.516-1.157 20.89-15.444 20.501-30.801-.37-14.102-8.13-27.095-18.624-30.411-12.215-3.861-25.16 6.069-27.154 24.518Z"/>
  <path fill="var(--sapContent_Illustrative_Color8)" d="m187.398 89.404 4.124 3.657c.36-.758.759-1.478 1.196-2.149l-3.987-3.56c-.759-.67-1.673-.768-2.043-.204-.369.564-.058 1.586.71 2.266v-.01Zm1.907 12.216c.009-.165.029-.33.048-.496l-5.495-.437c-1.001-.078-1.857.496-1.916 1.293-.058.798.73 1.508 1.741 1.576l5.534.379c0-.768.029-1.546.088-2.324v.009Zm7.352-14.978a12.665 12.665 0 0 1 1.789-1.1l-2.023-4.58c-.408-.924-1.147-1.468-1.663-1.216-.515.253-.593 1.226-.184 2.16l2.081 4.726v.01Zm9.687-2.002v-4.523c0-.934-.428-1.77-.954-1.868-.525-.097-.962.584-.962 1.527l-.02 4.562c.642.048 1.284.146 1.936.31v-.009Zm11.709 12.506 3.365-2.14c.593-.379.866-1.157.623-1.74-.244-.584-.924-.769-1.527-.4l-3.307 2.043c.321.72.593 1.469.856 2.237h-.01Zm-4.911-8.392 1.702-3.87c.331-.75.243-1.654-.185-2.034-.438-.379-1.06-.077-1.4.672l-1.702 3.763c.554.448 1.079.944 1.575 1.469h.01Zm-22.826 22.747-4.95 3.054c-.934.574-1.459 1.653-1.167 2.412.292.758 1.284.885 2.217.301l4.844-3.083a26.32 26.32 0 0 1-.944-2.684Zm33.086-7.634-4.046-.321c.049.652.088 1.313.088 1.984 0 .165-.01.331-.01.496l4.075.282c.71.049 1.245-.457 1.216-1.128-.029-.671-.623-1.255-1.323-1.313Zm-1.585 13.022-3.589-3.209a24.358 24.358 0 0 1-.856 2.275l3.56 3.161c.661.584 1.39.555 1.633-.068.244-.613-.087-1.575-.739-2.159h-.009Zm-16.611 8.373c-.341 0-.671-.039-1.012-.058l-.029 5.864c0 1.255.486 2.247 1.099 2.208.613-.039 1.099-1.07 1.099-2.315v-5.806a9.057 9.057 0 0 1-1.157.098v.009Zm8.899-4.279c-.516.564-1.06 1.09-1.634 1.556l2.159 4.902c.437.992 1.167 1.459 1.634 1.041.457-.418.476-1.556.039-2.539l-2.198-4.96Zm-17.993.439-2.509 5.534c-.515 1.138-.467 2.392.097 2.791.564.399 1.44-.204 1.936-1.342l2.402-5.447a15.054 15.054 0 0 1-1.935-1.546l.009.01Z"/>
  <path fill="var(--sapContent_Illustrative_Color14)" d="M189.295 101.794c-1.012 12.799 6.574 23.779 15.911 23.653 8.315-.117 14.335-9.23 14.238-19.762-.088-9.93-5.622-18.975-12.993-20.871-8.18-2.1-16.213 5.077-17.166 16.99l.01-.01Z"/>
  <path fill="var(--sapContent_Illustrative_Color20)" d="M190.296 101.747c-.924 12.108 6.244 22.505 15.084 22.427 7.898-.068 13.636-8.685 13.567-18.712-.068-9.482-5.349-18.119-12.39-19.908-7.78-1.974-15.386 4.892-16.251 16.193h-.01Z"/>
  <path fill="var(--sapContent_Illustrative_Color14)" d="M194.449 106.511c-.477 7.508 3.88 13.927 9.385 14.024 5.135.098 9.103-5.426 9.161-12.098.068-6.419-3.53-12.128-8.286-13.003-5.077-.934-9.803 3.88-10.26 11.077Z"/>
  <path fill="var(--sapContent_Illustrative_Color20)" d="M196.404 102.71c-.428 7.255 3.812 13.576 9.132 13.82 4.97.223 8.792-5.038 8.831-11.506.039-6.234-3.472-11.865-8.092-12.818-4.921-1.021-9.472 3.54-9.881 10.504h.01Z"/>
  <path fill="var(--sapContent_Illustrative_Color14)" d="m206.032 87.422-4.328 3.482a1.697 1.697 0 0 0-.554.739l-1.284 3.229 5.408-1.148.748-6.302h.01Z"/>
  <path fill="var(--sapContent_Illustrative_Color8)" d="M206.227 94.103c-4.688-.915-8.996 3.258-9.794 9.696 0-.36-.049-.72-.019-1.089.408-6.964 4.96-11.525 9.881-10.504 4.619.953 8.13 6.584 8.091 12.818 0 .331-.048.632-.077.953-.302-5.884-3.667-11.019-8.073-11.874h-.009Z"/>
  <path fill="var(--sapContent_Illustrative_Color8)" d="m207.928 89.522.321 1.79c.292 1.643-.525 3.102-1.643 2.878l-.749-.146c-1.138-.224-1.906-2.052-1.498-3.588l.438-1.654c.573-2.14 2.713-1.614 3.131.72Z"/>
</svg>
