<svg id="tnt-Spot-Tools" xmlns="http://www.w3.org/2000/svg" width="128" height="128" fill="none" viewBox="0 0 128 128">
  <rect width="128" height="55" y="40" fill="var(--sapContent_Illustrative_Color20)" rx="8"/>
  <path fill="var(--sapContent_Illustrative_Color21)" d="M78.39 70.14h-.004v.005l.005-.004Z"/>
  <path fill="var(--sapContent_Illustrative_Color21)" d="m65.6 77.95 11.638-7.087.656-.4c.147-.062.472-.302.492-.314l-.039.012c.043-.031.093-.062.136-.093l.03-.023c.07-.04.14-.074.206-.117l3.738-2.326c-.031.012-.07.023-.101.035.116-.05.225-.105.31-.167.911-.678-.496-1.85-3.148-2.613-2.648-.764-5.54-.834-6.455-.155-.012.008-.02.02-.031.027l-3.8 2.412c-.043.027-.074.05-.108.077l-13.23 8.053-26.038-7.208-.558.256 15.128 13.93-2.093 1.276-3.238 4.827-.035.05-1 1.497-.477.718 1.474-.443.527-.158 2.303-.698 7.68-2.334 6.6 6.075.751-.108 32.091-8.522-23.406-6.475-.004-.004Zm-20.464-2.268 6.96 1.9h-.008l-6.94-1.892-.008-.008h-.004Zm.597.55 5.924 1.613-2.508 1.528-3.416-3.14Zm8.921 8.208 4.97-2.85 1.784-1.085 14.268 3.889-16.455 4.25-4.563-4.2-.004-.004Zm4.614 4.242 17.195-4.44h.015-.007l-14.637-3.997h.008L76.49 84.24l-17.218 4.447-.004-.004Z"/>
  <path fill="var(--sapContent_Illustrative_Color8)" d="M61.01 76.66h-.004s0-.01-.009-.01h.013v.01Z"/>
  <path fill="var(--sapContent_Illustrative_Color8)" d="M61.01 76.659h-.004s0-.005-.009-.005c0 0 .009.005.013.005Z"/>
  <path fill="var(--sapContent_Illustrative_Color31)" d="M52.944 69.784s5.82 6.967 8.06 6.886l-10.387 6.385-1.923-2.062 3.684-10.817.566-.392Z"/>
  <path fill="var(--sapContent_Illustrative_Color8)" d="M55.646 74.643c-.59-.469-1.252-.574-1.818-.55h.213c.109.007.221.011.326.034h.008c.077.012.15.028.228.043a2.839 2.839 0 0 1 .694.264c.113.066.229.143.334.228.577.462.845 1.067.957 1.617-.104-.558-.356-1.174-.942-1.636Zm-5.858 7.336c-.601-.481-.911-1.16-.845-1.722l-1.086 3.183-.566 1.671 1.504-.93 2.815-1.745c-.539.163-1.237.012-1.822-.45v-.007Zm10.139-5.657a3.241 3.241 0 0 0-.954.105 4.093 4.093 0 0 0-.837.299 4.53 4.53 0 0 1 1.763-.365l.008-.008c.55.035.919.206 1.066.29l.047-.03c-.132-.078-.516-.256-1.094-.291Zm-7.278-2.303a.757.757 0 0 0-.062.163c.039-.082.07-.16.097-.24-.008.027-.023.05-.035.077Zm-.147.364.015-.011v-.016l-.015.027Zm.388-.985c-.066.167-.116.357-.206.543.446-1.152.462-2.144.365-2.83-.012-.074-.027-.136-.035-.183-.016-.042-.02-.077-.027-.097v-.015a2.15 2.15 0 0 0-.105-.295c0-.008 0-.023-.011-.035a2.693 2.693 0 0 0-.342-.53c.09.1.233.263.36.5.311.554.563 1.511 0 2.942Z"/>
  <path fill="var(--sapContent_Illustrative_Color14)" d="m86.039 70.83-.799.323-31.199-17.99.64-.438L86.03 70.83h.008Z"/>
  <path fill="var(--sapContent_Illustrative_Color14)" d="m68.82 80.238-.728.279 17.144-9.363.799-.322-17.218 9.406h.004Z"/>
  <path fill="var(--sapContent_Illustrative_Color26)" d="m57.182 77.29-.132.085c-.046.035-.093.066-.147.105a7.215 7.215 0 0 1-.341.209l29.52-36.693.085.027c.082.023.16.043.244.062.163.039.338.074.508.097l.256.035h.05c.067.008.129.012.194.012.26.023.508.023.733.011L59.857 76.417l-.02.031-.007.008c-.45 0-1.07.078-1.764.365a6.05 6.05 0 0 0-.896.473h.012v-.004Z"/>
  <path fill="var(--sapContent_Illustrative_Color29)" d="M81.824 37.53a.983.983 0 0 1-.058-.131l-.008-.012-.007-.011s-.008-.016-.008-.024c-.012-.004-.012-.015-.012-.015l-.007-.024s-.012-.027-.02-.038c-.007-.012-.007-.024-.007-.024l-.012-.023-.008-.023v-.012l-.008-.008v-.007h-.007l-.012-.027-.016-.035v-.008l-.007-.015-.012-.024v-.008l-.012-.015v-.012h-.007v-.007l-.012-.028v-.011l-.008-.012-.011-.023v-.035s0-.02-.012-.031c-.008-.039-.023-.07-.035-.109v-.007c-.008-.047-.027-.09-.039-.132v-.027a2.496 2.496 0 0 1-.034-.097.263.263 0 0 0-.012-.047v-.015l-.008-.024v-.015s-.011-.031-.011-.043c0-.023-.012-.066-.012-.066v-.011a3.142 3.142 0 0 1-.105-.558 4.264 4.264 0 0 1-.035-.543 3.593 3.593 0 0 1 .334-1.516l-.074.089-29.055 36.111-3.524 10.364-.04.108-1.088 3.21-.52 1.54 1.508-.927 2.885-1.772v-.015c-.028.015-.05.02-.078.027-.531.167-1.237.015-1.822-.45a2.324 2.324 0 0 1-.78-1.12l3.676-10.492c.066.093.05.078.12.221 0 .012 0 .027.012.04.02.042.039.092.054.142.229.582.372 1.486-.046 2.734-.074.233-.182.504-.28.764l-.07.186 1.098-1.28 28.303-35.495.011-.015c-.019-.039-.046-.081-.062-.124v.008Z"/>
  <path fill="var(--sapContent_Illustrative_Color15)" d="M56.565 77.69c.035-.228.07-.693-.027-1.224 0-.031-.012-.058-.012-.09-.116-.55-.384-1.15-.961-1.616-.109-.086-.225-.155-.338-.229-.066-.035-.131-.07-.201-.1a2.272 2.272 0 0 0-.489-.167 4.566 4.566 0 0 0-.228-.043H54.3a2.372 2.372 0 0 0-.326-.031h-.008c-.07 0-.14-.008-.205 0h-.023c-.05 0-.093 0-.136.008-.5.035-.92.163-1.132.244L81.976 37.76l.011-.016c.147.252.31.5.496.74.171.23.361.45.578.664.09.093.19.194.295.283.046.042.1.089.15.131.075.07.156.128.23.19.736.59 1.547 1 2.353 1.241l-.015.023-29.497 36.678h-.012v-.004Z"/>
  <path fill="var(--sapContent_Illustrative_Color31)" d="M87.283 35.402c-2.252-1.547-3.14-3.92-2.877-5.455l-3.989 5.168c-1.369 1.71.081 3.89 2.365 5.847 2.284 1.958 5.343 2.683 7.006.45l3.885-4.94c-1.047.927-3.986.586-6.39-1.07Z"/>
  <path fill="var(--sapContent_Illustrative_Color25)" d="M93.89 36.193c.954-1.446-.396-4.02-3.013-5.75-2.617-1.725-5.517-1.953-6.475-.507-.957 1.446.396 4.02 3.013 5.75 2.617 1.725 5.517 1.953 6.475.507Z"/>
  <path fill="var(--sapContent_Illustrative_Color8)" d="M92.85 36.372c.462-.54.047-1.644-.922-2.478-.973-.834-2.133-1.074-2.594-.539-.461.54-.047 1.644.923 2.478.973.833 2.132 1.074 2.594.539Zm-53.43.233 27.06 52.639 32.09-18.029-59.15-34.61ZM54.7 52.722l31.35 18.106-17.217 9.406L54.7 52.726v-.004Z"/>
  <path fill="var(--sapContent_Illustrative_Color14)" d="m39.42 36.605-.558.538 26.865 52.33.752-.229-27.058-52.64Zm19.545 30.373L56.317 68.4l.19.353 2.645-1.423-.19-.352h.003ZM48.57 49.193l-1.647.884.19.353 1.648-.884-.19-.353Zm5.432 10.554-1.655.892.19.353 1.655-.888-.19-.353v-.004Zm-2.806-5.451-1.652.888.19.353 1.652-.888-.19-.353Zm5.467 10.61-1.633.876.19.353 1.633-.876-.19-.353Zm2.755 5.313-1.648.884.19.353 1.648-.884-.19-.353Zm2.652 5.168-1.635.88.19.353 1.636-.88-.19-.353Zm2.695 5.238-1.632.876.19.353 1.632-.876-.19-.353Z"/>
  <path fill="var(--sapContent_Illustrative_Color26)" d="m89.447 41.877-.88.632c-.694.547-.977-.054-2.233.264a.742.742 0 0 0-.155-.035c-.066 0-.221-.059-.287-.066-.02 0-.047-.016-.062-.016-.082-.015-.05-.027-.136-.038-.17-.028-.132-.05-.295-.09-.089-.015-.116-.042-.198-.066l-.255-.097L66.47 65.341l1.857.438-4.253 5.475c.097.143.694 1.337.694 1.337l5.172-6.432 18.3-22.755.683-.849c.158-.135.515-.678.515-.678h.008Z"/>
  <path fill="var(--sapContent_Illustrative_Color29)" d="m59.24 61.506 20.948-26.042.016-.043c-.225.469-.314.67-.326 1.21 0 .182.415.22.434.403.016.186.055.372.105.558v.012l.012.066c0 .011.007.03.011.042v.016s0 .011.008.023v.016s.012.034.012.046c.011.035.023.066.035.097v.027c.011.043.03.085.038.132v.008c.012.038.027.07.035.108.008.012.012.016.012.031 0 0-.268-.174-.268-.17l.272.178v.008l.007.008v.007s.008.012.012.024c0 0 0 .007.008.011v.012s.008.015.011.027v.008h.008v.011s.012.012.012.016v.008s.008.011.011.023l.008.015v.008l.016.035.011.027h.008v.008l.008.008v.011s0 .012.008.024l.011.023s0 .011.008.023.012.027.023.039l.008.023s0 .012.012.016c0 .007.007.015.007.023 0 0 0 .004.008.011l.008.012a.99.99 0 0 0 .058.132c.295-.159-.077.198-.058.236l-.163.388L60.64 64.255"/>
  <path fill="var(--sapContent_Illustrative_Color15)" d="M60.613 64.26 80.86 39.09l.012-.016c.148.252.31.5.496.74.171.23.361.45.578.664.09.093.19.194.295.283.046.042.1.089.151.132.074.07.155.127.229.19.736.589 1.547 1 2.353 1.24l-.015.023-18.483 22.972"/>
  <path fill="var(--sapContent_Illustrative_Color11)" d="M90.393 36.997c-1.09-.31-2.369-.923-3.35-1.699-1.485-1.178-2.555-2.314-2.884-3.81l-4.16 5.171c-.202 1.078.694 2.78 2.721 4.385 1.152.915 2.323 1.346 3.241 1.5l4.87-5.547h-.438Z"/>
  <path fill="var(--sapContent_Illustrative_Color1)" d="M80.192 37.752c.171.872.807 1.842 1.811 2.838l4.536-5.498c-.826-.868-1.655-1.624-2.066-2.64l-4.277 5.308v-.008h-.004Z"/>
  <path fill="var(--sapContent_Illustrative_Color8)" d="M87.47 42.857c-1.31 0-2.92-.512-4.428-1.504-2.745-1.81-3.862-4.385-2.834-5.936l-.012.023c-.713 1.443.465 3.916 3.044 5.614 2.574 1.698 5.463 1.931 6.378.543l-.074.112c-.465.702-1.004 1.156-2.074 1.156v-.008Z"/>
  <path fill="var(--sapContent_Illustrative_Color14)" d="m67.006 82.485-2.655 1.427.33.605 2.655-1.427-.33-.605Zm-2.694-5.226-2.656 1.427.33.604 2.656-1.426-.33-.605Zm-2.714-5.229-2.656 1.426.33.605 2.656-1.427-.33-.605Zm-2.776-5.234-2.656 1.427.33.605L59.15 67.4l-.33-.605Zm-2.676-5.25-2.656 1.427.33.605 2.656-1.427-.33-.605Zm-2.71-5.204-2.656 1.427.33.604 2.656-1.426-.33-.605Zm-2.62-5.132-2.656 1.427.33.605 2.655-1.427-.329-.605ZM48 46.002l-2.655 1.427.33.605 2.655-1.427-.33-.605Z"/>
</svg>
