<svg id="tnt-Dialog-NoUsers" xmlns="http://www.w3.org/2000/svg" width="161" height="160" fill="none" viewBox="0 0 161 160">
  <path fill="var(--sapContent_Illustrative_Color20)" fill-rule="evenodd" d="M160.5 61v45c0 6.623-5.377 12-12 12h-136c-6.623 0-12-5.377-12-12V61c0-6.623 5.377-12 12-12h136c6.623 0 12 5.377 12 12Z" clip-rule="evenodd"/>
  <path fill="var(--sapContent_Illustrative_Color21)" d="M114.643 110.557c.317-4.305-19.634-9.285-44.563-11.125-24.928-1.839-45.394.16-45.712 4.464-.318 4.304 19.634 9.285 44.562 11.124 24.929 1.839 45.395-.159 45.713-4.463Z"/>
  <path fill="var(--sapContent_Illustrative_Color25)" fill-rule="evenodd" d="M122 37.66c-2.635-2.89-15.285-5.035-30.47-5.035-15.185 0-26.715 1.985-30.07 4.67h-.005s-.065.055-.17.15l-.145.13c-3.435 3.155-33.65 32.78.35 69.32 3.405 4.4 15.56 7.655 30.04 7.655 14.48 0 26.07-3.105 29.785-7.355 0 0 35.365-31.45.68-69.535H122Z" clip-rule="evenodd"/>
  <path fill="var(--sapContent_Illustrative_Color8)" d="M67.365 37.07c0-1.25 10.7-2.75 23.895-2.726 13.195.025 23.89 1.55 23.885 2.805-.005 1.255-10.7 2.75-23.895 2.725-13.195-.025-23.89-1.55-23.885-2.805Zm54.9 23.18c-.495-3.97-2.56-8.124-5.215-11.374-.525-.64-1.36-.93-2.18-.81l-2.665.39c-1.505.22-2.085 2.065-1.025 3.155 2.395 2.46 5.61 6.18 6.85 9.685.38 1.07 1.555 1.81 2.625 1.42 1.035-.38 1.745-1.37 1.61-2.465Z"/>
  <path fill="var(--sapContent_Illustrative_Color15)" d="M84.545 94.965c17.245-.385 33.09 4.17 39.505 3.36l.595.14a42.54 42.54 0 0 1-5.71 5.835c-3.665 3.09-8.485 4.265-13.275 4.375l-26.49.595c-4.795.105-9.66-.85-13.46-3.775a43.197 43.197 0 0 1-4.88-4.385c1.825-3.19 13.115-5.905 23.72-6.145h-.005Z"/>
  <path fill="var(--sapContent_Illustrative_Color11)" d="M102.21 63.914c-1.085 1.815-1.535 3.955-.97.62.16-.96.18-1.935.055-2.895-.36-2.735-1.12-7.76-2.665-6.025a.708.708 0 0 0-.175.51c.305 4.235 1.7 8.275-.09 12.41-.325.755-.56 1.55-.735 2.355-.36 1.665-1.065 3.875-2.07 2.73.36-2.32 1.645-4.72 1.01-7.105-.415-2.275 1.82-5.91.585-7.775-.195-.29-.605-.375-.885-.165-2.48 1.84-.51 7.09-1.545 9.8a.632.632 0 0 1-.93.31c-1.96-1.24-1.495-4.52-.97-6.73a.568.568 0 0 0-.05-.395c-2.42-4.59-3.065 6.625.41 9.655.04.035.07.07.1.11 1.3 1.98-1.955 8.65-3.57 6.285a.59.59 0 0 1-.105-.365c.02-2.5 1.865-5.825.575-7.98-.265-.445-.93-.415-1.125.065-.465 1.155.585 3.43-.495 4.125-.785-1.035-.07-3.095-.23-4.465-.015-.11 0-.22.03-.32 1.775-5.31-2.385-6.49-1.495-.185.01.085.01.17-.01.25-.955 4.48 1.665 8.915-.165 13.065-.125.28-.295.535-.485.775-.83 1.055-1.55 2.55-2.43 1.02-.145-.255-.07-.56.15-.755 1.785-1.555 1.6-11.055-.465-9.565-.405.295-.615.79-.6 1.295.05 2.095 1.245 6.82-.78 5.875a.685.685 0 0 1-.37-.42c-1-3.24.78-6.335 1.075-9.565.15-1.175-1.03-8.665-2.095-6.42-.165.345-.21.725-.18 1.105.205 2.635 1.35 9.09-.685 2.865a13.094 13.094 0 0 0-.465-1.4.567.567 0 0 0-.045-.1.8.8 0 0 0-.145-.235c-.155-.2-.38-.36-.695-.2-.645.32-.61.87-.195 1.61.415.74.77 1.96.87 3.795.08 1.485.285 3.075.36 3.625.045.555.075.995.08 1.25 0 .08-.02.16-.055.235-1.485 3.01 3.065 8.725 1.425 10.715a.626.626 0 0 1-1.035-.12c-.78-1.47-2.12-2.625-3.01-4.015-1.79-2.095-.81-6.26-2.47-7.95-.305-.31-.83-.235-1.015.155-.365.76-.125 1.83.26 2.905.27.755-.855 1.21-1.16.47-.53-1.29-.665-2.865-.75-4.24-.035-.6-.255-1.185-.67-1.62-2.29-2.39-.37 9.39 4.14 11.745.395.205.76.475 1.065.8 5.145 5.475.625 15.28 5.735 20.055.11.1.25.16.4.16 1.405.03 4.235.3 2.77-1.705-10.595-17.245 15.77-25.385 18.135-39.58.115-.69-.8-1.04-1.155-.44v-.01h.005Z"/>
  <path fill="var(--sapContent_Illustrative_Color1)" d="M81.346 92.12c-.525-1.36 1.57-2.41 1.36-4.505-.105-1.065-.7-1.56-1.395-1.89.064.63-.015 1.17-.34 1.56a.626.626 0 0 1-1.035-.12c-.78-1.47-2.12-2.625-3.01-4.015-1.79-2.095-.81-6.26-2.47-7.95-.305-.31-.83-.235-1.015.155 2.04 1.355 2.254 4.51.16 5.035-.615.155-.98.59-1.165 1.145.77 1.36 1.72 2.505 2.825 3.08.27.14.52.32.75.515.68-.185 1.29-.315 1.675.075.644.645.914 1.785.29 2.75 2.415 5.59-.3 13.41 4.09 17.51.11.1.25.16.4.16 1.405.03 4.235.3 2.77-1.705-2.566-4.175-2.96-7.81-2.06-11.13-.775-.385-1.48.22-1.826-.675h-.004v.005Zm20.944-26.7c0-.42-.4-.43-.665-.39-.56 1.18-.775 1.94-.52.34-.285.265-.7.59-.82.355-.095-.19-.61-.33-1.1-.335a10.757 10.757 0 0 1-.815 3.14l-.335.895c-.16.48-.29.965-.4 1.46-.36 1.665-1.065 3.875-2.07 2.73.1-.645.27-1.295.455-1.95-.17-.165-.33-.36-.435-.595-.37-.83-.555-1.845.09-1.935.645-.09 1.105-1.015.46-1.385-.645-.37-.83-1.385-.185-1.75.59-.335.1-1.97-.965-2.115.075 1.65.19 3.31-.26 4.485a.632.632 0 0 1-.93.31c-1.045-.66-1.4-1.905-1.42-3.26-.35.515-.535 1.11-.39 1.685.225.895-.23.805-.645.74.39 1.375.995 2.615 1.85 3.36.04.035.07.07.1.11.34.515.365 1.355.195 2.265.28.385.535.915.535 1.575 0 1.255-.455 1.9.465 2.715 3.59-3.615 6.96-7.29 8.36-11.465-.295-.335-.555-.71-.555-.99v.005ZM88.99 80.5c1.044-.94.314-2.2-.526-3.034-.84-.835-.315-1.36-.21-2.41.065-.65-.71-.815-1.315-.845.326 2.29.726 4.54.07 6.715.58.105 1.376.11 1.975-.425h.005Zm-1.524-12.93c.13.346.615.426 1.1.416.575-2.225.044-3.58-.59-3.765-.296.46-.62 1.18-.145 1.595.74.645-.645 1.015-.37 1.75l.005.005Zm-9.17.104c.42.74.77 1.96.87 3.795.02.335.04.675.07 1.01.405-.035.92.62 1.395.525.67-.135.715-1.3-.18-1.345-.895-.045-.985-1.165-.76-1.48.225-.315.135-1.435-.405-2.015-.28-.305-.095-.91.14-1.425-.02-.045-.035-.095-.055-.135a.567.567 0 0 0-.045-.1.8.8 0 0 0-.145-.235c-.155-.2-.38-.36-.695-.2-.645.32-.61.87-.195 1.61l.005-.005Zm3.509 15.111c.334 0 .605-.258.605-.575 0-.318-.27-.575-.605-.575-.334 0-.605.257-.605.575 0 .317.271.575.605.575Zm.851.715c.146 0 .265-.13.265-.29 0-.16-.119-.29-.265-.29-.147 0-.265.13-.265.29 0 .16.118.29.265.29Zm-1.086.89c.105 0 .19-.093.19-.21 0-.115-.085-.21-.19-.21s-.19.095-.19.21c0 .117.085.21.19.21Z"/>
  <path fill="var(--sapContent_Illustrative_Color16)" d="M61.666 101.325c23.365 5.695 47.764-6.545 63.964-4.135a42.766 42.766 0 0 1-6.7 7.11c-3.665 3.09-7.835 5.42-14.415 6.425-9.294 1.42-11.794-.975-23.07-.115-10.93.835-17.56-4.61-20.59-9.47.14.225.53.12.806.185h.005Z"/>
  <path fill="var(--sapContent_Illustrative_Color24)" d="M60.61 92.295c-.435-.89-.84-1.785-1.19-2.71-.715-1.88-1.825-4.915-2.48-7.275-.58-2.095-3.525-10.05-.5-19.715.28-.895.15-1.86-.355-2.65-2-3.11 4.5-7.49 2.56-9.905a.35.35 0 0 1-.04-.05 3.141 3.141 0 0 1-.715-2.46c.045-.33.06-.6-.12-.77-.5-.465-1.895 1.235-2.865 2.715a2.123 2.123 0 0 1-.215.295c-.37.425-1.01 1.52-1.01 1.52h.01a14.166 14.166 0 0 0-1.24 2.41c-2.99 7.37-6.18 22.74 3.535 38.71l.135.21c.58.815 4.42 6.01 5.25 2.35.14-.625-.325-1.79-.76-2.67v-.005Zm3.62-48.935a8.29 8.29 0 0 0-.885 1.276c-.755 1.33-1.54 4.145-2.715 3.7-.6-.23-1.3-2.635-1-3.64.3-1.005 2.725-3.905 5.525-4.205 1.05-.115 1.215.34-.925 2.87Z"/>
  <path fill="var(--sapContent_Illustrative_Color8)" d="m59.395 80.73-2.085 1.14c-.645.356-1.47.11-1.735-.58-.9-2.33-.765-4.244-.56-5.31.115-.584.605-.984 1.195-1.09l2.185-.394c1.19-.215 2.24.805 2.13 2.01-.075.775-.13 1.63-.125 2.385 0 .745-.355 1.48-1.005 1.84Zm-3.035 5.53c1.094 6.655 5.72 12.075 8.19 13.945.404.305.934.335 1.404.14.715-.295.885-1.345.415-1.96-1.995-2.6-4.47-8.075-5.265-13.595-.145-1.02-1.305-1.615-2.18-1.065l-1.96 1.235c-.44.28-.685.785-.6 1.3h-.005Z"/>
</svg>
