<svg id="tnt-Dot-ChartBullet" xmlns="http://www.w3.org/2000/svg" width="45" height="45" fill="none" viewBox="0 0 45 45">
  <g clip-path="url(#a)">
    <path fill="var(--sapContent_Illustrative_Color21)" fill-rule="evenodd" d="m13.783 38.694 30.54-5.454c.19-.034.197-.302.012-.348l-19.15-4.77a1.764 1.764 0 0 0-.702-.033L.37 31.806a.436.436 0 0 0-.117.827l12.836 5.969c.215.1.458.133.694.09v.002Z" clip-rule="evenodd"/>
    <path fill="var(--sapContent_Illustrative_Color25)" d="m5.34 11.576 35.12-2.112 4.512 19.624c.031.132.036.262.021.382a.847.847 0 0 1-.111.33.757.757 0 0 1-.223.241.705.705 0 0 1-.314.118L10.39 34.414a1.065 1.065 0 0 1-.794-.223 1.191 1.191 0 0 1-.285-.315 1.125 1.125 0 0 1-.155-.409L5.341 11.576Z"/>
    <path fill="var(--sapContent_Illustrative_Color13)" d="M38.882 6.256a.873.873 0 0 1 .34.054c.11.039.215.1.31.18a1.157 1.157 0 0 1 .39.622l.54 2.35-35.12 2.114-.454-2.612a.921.921 0 0 1 .013-.392.86.86 0 0 1 .45-.557.994.994 0 0 1 .381-.099l33.15-1.66Z"/>
    <path fill="var(--sapContent_Illustrative_Color14)" d="M10.39 34.411a1.067 1.067 0 0 1-.794-.222 1.191 1.191 0 0 1-.285-.316 1.112 1.112 0 0 1-.155-.408l-3.815-21.89-.454-2.61a.905.905 0 0 1 .163-.706l-.576.749a1.017 1.017 0 0 0-.093.15.912.912 0 0 0-.07.547l.448 2.582 3.75 21.65a1.14 1.14 0 0 0 .433.716c.111.084.235.148.37.188.133.039.273.051.416.032l33.648-4.25.968-.467-33.954 4.255Z"/>
    <path fill="var(--sapContent_Illustrative_Color21)" d="M34.613 18.856c.282-.023.544.194.603.494l1.655 8.584c.056.306-.117.576-.388.611l-2.029.25c-.285.027-.547-.19-.605-.49L32.19 19.69c-.059-.305.118-.573.391-.605l2.032-.227v-.003Z"/>
    <path fill="var(--sapContent_Illustrative_Color13)" d="m28.542 28.951-1.776-9.221 3.064-.341 1.77 9.19c.059.305-.118.578-.394.614l-2.055.252c-.289.027-.553-.19-.612-.494h.003Z"/>
    <path fill="var(--sapContent_Illustrative_Color15)" d="M22.547 12.63c.285-.027.555.199.614.502l1.876 9.745-3.102.356-1.882-9.778c-.059-.308.123-.579.406-.611l2.088-.215Z"/>
    <path fill="var(--sapContent_Illustrative_Color14)" d="M18.941 22.656c.294-.026.565.197.62.5l1.297 6.737c.06.309-.12.588-.405.624l-2.106.258c-.297.027-.567-.194-.626-.5l-1.3-6.76c-.059-.312.127-.588.412-.62l2.108-.239Z"/>
    <path fill="var(--sapContent_Illustrative_Color15)" d="M23.163 29.61 22.1 24.07l3.103-.359 1.062 5.521c.059.309-.12.585-.4.62l-2.083.254h-.017c-.277.023-.542-.195-.6-.497v.002Z"/>
    <path fill="var(--sapContent_Illustrative_Color13)" d="M28.61 15.722c.282-.023.55.197.609.498l.45 2.34-3.068.339-.453-2.347c-.059-.306.118-.577.4-.606l2.059-.22.003-.004Z"/>
    <path fill="var(--sapContent_Illustrative_Color22)" d="M29.972 18.528c.212-.017.412.147.456.37.044.23-.088.433-.297.457l-.3.032-3.065.341-.303.033c-.217.017-.417-.15-.461-.377-.044-.23.088-.435.3-.456l.306-.032 3.067-.338.303-.033-.006.003Zm-4.614 4.312c.206-.018.406.15.45.373.044.23-.091.436-.3.46l-.306.035-3.103.358-.309.036c-.217.017-.42-.147-.464-.377-.044-.232.094-.438.305-.462l.306-.035 3.103-.356.306-.035h.012v.003Zm-6.501-5.016c.22-.02.424.147.468.376.044.23-.094.439-.306.462l-3.768.412c-.22.02-.426-.15-.47-.38-.045-.232.094-.438.308-.461l3.768-.406v-.003ZM34.664 14.9c.21-.017.41.148.453.374.044.227-.088.43-.294.45l-3.63.391c-.211.018-.411-.147-.455-.373-.044-.227.091-.433.297-.453l3.626-.388h.003Z"/>
  </g>
  <defs>
    <clipPath id="a">
      <path fill="var(--sapContent_Illustrative_Color8)" d="M0 0h45v45H0z"/>
    </clipPath>
  </defs>
</svg>
