<svg id="tnt-Spot-ChartOrg" xmlns="http://www.w3.org/2000/svg" width="128" height="128" fill="none" viewBox="0 0 128 128">
  <rect width="128" height="55" y="40" fill="var(--sapContent_Illustrative_Color20)" rx="8"/>
  <path fill="var(--sapContent_Illustrative_Color21)" fill-rule="evenodd" d="m44.201 92.876 58.057-10.367c.362-.065.375-.575.022-.662l-36.405-9.069a3.352 3.352 0 0 0-1.333-.06l-45.84 7.064c-.81.127-.966 1.224-.221 1.573L42.88 92.7c.41.192.871.253 1.32.17v.005Z" clip-rule="evenodd"/>
  <path fill="var(--sapContent_Illustrative_Color8)" d="m28.224 41.167 67.099-4.036 8.622 37.496c.059.252.067.5.04.729a1.63 1.63 0 0 1-.213.63 1.461 1.461 0 0 1-.426.462 1.351 1.351 0 0 1-.599.224l-64.876 8.13a2.073 2.073 0 0 1-1.518-.426 2.278 2.278 0 0 1-.544-.602 2.15 2.15 0 0 1-.295-.78l-7.29-41.827Z"/>
  <path fill="var(--sapContent_Illustrative_Color13)" d="M92.308 31.002c.22-.012.441.028.65.103.21.074.41.193.592.342a2.208 2.208 0 0 1 .745 1.19l1.033 4.49-67.103 4.04-.868-4.99a1.76 1.76 0 0 1 .024-.75 1.615 1.615 0 0 1 .86-1.064c.216-.106.46-.173.729-.188l63.338-3.173Z"/>
  <path fill="var(--sapContent_Illustrative_Color14)" d="M37.871 84.799a2.038 2.038 0 0 1-.804-.064 2.144 2.144 0 0 1-.714-.362 2.278 2.278 0 0 1-.544-.603 2.125 2.125 0 0 1-.296-.78l-7.29-41.824-.867-4.989a1.73 1.73 0 0 1 .02-.73 1.676 1.676 0 0 1 .292-.618l-1.1 1.43a1.974 1.974 0 0 0-.178.288 1.745 1.745 0 0 0-.162.674c0 .123.005.245.028.37l.856 4.935 7.163 41.366a2.18 2.18 0 0 0 .828 1.368c.213.161.45.283.706.358.256.075.524.099.796.063l64.292-8.122 1.849-.891-64.875 8.13Z"/>
  <path fill="var(--sapContent_Illustrative_Color8)" d="M86.013 67.197c-.977.088-1.933-.703-2.142-1.79-.214-1.115.423-2.103 1.428-2.219h.05c.983-.088 1.933.709 2.147 1.796.209 1.104-.423 2.098-1.422 2.213a.17.17 0 0 0-.055.006l-.006-.006Zm1.467 1.198c.9-.077 1.796.29 2.471.95-.483 1.323-1.576 2.29-2.998 2.466-.044 0-.083.01-.127.01-1.378.121-2.735-.537-3.674-1.647.412-.83 1.17-1.406 2.11-1.521l2.13-.253a.48.48 0 0 0 .088-.01v.005Z"/>
  <path fill="var(--sapContent_Illustrative_Color13)" fill-rule="evenodd" d="M85.48 61.36c2.757-.012 5.338 2.262 5.931 5.321.632 3.268-1.241 6.205-4.19 6.562l-.17.017h-.055c-.027 0-.055 0-.083.005h-.615c-.027 0-.06 0-.088-.005h-.044a.613.613 0 0 1-.098-.01h-.033c-.038 0-.072-.012-.11-.017l-.149-.023c-2.41-.411-4.524-2.515-5.051-5.25-.363-1.877.104-3.646 1.12-4.876.313-.38.68-.709 1.087-.972a4.619 4.619 0 0 1 2.01-.714c.044 0 .088-.011.132-.011a5.11 5.11 0 0 1 .406-.016v-.012Z" clip-rule="evenodd"/>
  <path fill="var(--sapContent_Illustrative_Color8)" d="M85.339 63.178c.983-.088 1.933.708 2.147 1.796.203 1.069-.384 2.035-1.33 2.2l-.097.007a.189.189 0 0 1-.055.006c-.978.088-1.928-.703-2.142-1.79-.209-1.116.423-2.104 1.428-2.22h.049Zm2.13 5.216c.9-.082 1.796.286 2.471.95l.01.006c-.478 1.323-1.576 2.29-2.998 2.466-.044.005-.083.01-.127.01-1.384.121-2.74-.538-3.674-1.647l-.007-.008c.413-.825 1.17-1.398 2.106-1.513l2.13-.252a.483.483 0 0 1 .089-.012Z"/>
  <path fill="var(--sapContent_Illustrative_Color15)" fill-rule="evenodd" d="M64.459 42.59c2.894-.094 5.645 2.262 6.254 5.431.637 3.3-1.285 6.239-4.3 6.568-.038 0-.07.005-.109.01h-.072c-2.965.22-5.843-2.174-6.463-5.425-.643-3.317 1.313-6.26 4.338-6.568.022 0 .05 0 .072-.005.093-.006.186-.017.28-.017v.005Z" clip-rule="evenodd"/>
  <path fill="var(--sapContent_Illustrative_Color8)" d="M65.21 48.476c-1.01.088-1.993-.73-2.212-1.834-.215-1.115.439-2.114 1.46-2.219h.022c1.016-.087 2.005.725 2.22 1.835.213 1.114-.44 2.108-1.462 2.218h-.033.006Zm1.436 1.225c.933-.082 1.861.302 2.564.989-.494 1.323-1.614 2.29-3.075 2.443-.028 0-.055 0-.077.006-1.428.126-2.84-.555-3.8-1.697.423-.83 1.203-1.406 2.158-1.505l2.18-.236h.055-.005Z"/>
  <path fill="var(--sapContent_Illustrative_Color14)" fill-rule="evenodd" d="M68.918 63.304c2.713.126 5.195 2.372 5.772 5.37l-.006-.005c.291 1.5.05 2.933-.582 4.086-.758 1.373-2.07 2.345-3.707 2.548-.06.006-.115.017-.176.017h-.049c-.038.006-.066.005-.088.005h-.637c-.033-.005-.06-.005-.087-.005h-.056c-.033-.005-.06-.011-.093-.011h-.044c-.033 0-.066-.011-.099-.011h-.038c-.039-.005-.072-.011-.11-.017-.071-.01-.11-.022-.154-.027-2.405-.478-4.486-2.565-5.008-5.278-.571-2.976.928-5.672 3.421-6.452.291-.088.593-.154.912-.192.05 0 .093-.012.137-.012.12-.01.242-.016.362-.016.11-.006.22 0 .33 0Z" clip-rule="evenodd"/>
  <path fill="var(--sapContent_Illustrative_Color8)" d="M70.12 73.864c-.043 0-.082.011-.126.011-1.411.12-2.795-.538-3.745-1.658.423-.84 1.197-1.423 2.158-1.538l2.175-.264c.033 0 .06-.005.093-.01.917-.083 1.835.29 2.526.96-.494 1.335-1.614 2.318-3.07 2.494l-.01.005Zm-.948-4.661c-1 .087-1.971-.714-2.18-1.813-.214-1.12.44-2.125 1.46-2.24.017 0 .039 0 .055-.006 1-.088 1.972.714 2.18 1.813.22 1.114-.439 2.12-1.455 2.24-.016 0-.038 0-.055.006h-.005ZM51.977 71.25c-1.022.088-2.016-.719-2.224-1.828-.214-1.137.456-2.147 1.499-2.274h.05c1.026-.088 2.015.72 2.229 1.834.214 1.126-.45 2.142-1.494 2.268-.016 0-.038 0-.055.006l-.005-.006Zm1.513 1.214c.94-.082 1.873.291 2.576.966-.505 1.351-1.653 2.345-3.141 2.521l-.138.017c-1.438.126-2.844-.539-3.816-1.67.434-.851 1.23-1.444 2.207-1.56l2.219-.263c.033 0 .06-.006.093-.011Z"/>
  <path fill="var(--sapContent_Illustrative_Color13)" fill-rule="evenodd" d="M51.457 65.281c2.872-.016 5.557 2.301 6.156 5.426.642 3.334-1.324 6.343-4.399 6.722-.06.005-.12.016-.186.022-.05 0-.094.005-.144.01-2.97.182-5.815-2.18-6.441-5.42-.643-3.355 1.345-6.364 4.437-6.721l.143-.017c.143-.01.286-.016.423-.022h.01Z" clip-rule="evenodd"/>
  <path fill="var(--sapContent_Illustrative_Color20)" d="m69.905 52.458 13.027 9.649a4.695 4.695 0 0 0-1.088.972l-12.9-9.55a4.88 4.88 0 0 0 .967-1.076l-.006.005Z"/>
  <path fill="var(--sapContent_Illustrative_Color8)" d="M51.291 67.143c1.027-.088 2.016.72 2.23 1.834.214 1.126-.45 2.142-1.494 2.268-.016.005-.038.005-.054.005-1.022.088-2.011-.72-2.225-1.829-.208-1.1.415-2.083 1.403-2.258l.091-.02h.05Zm1.505 8.837c-1.438.126-2.85-.539-3.816-1.67v-.011c.434-.846 1.23-1.445 2.207-1.56v-.005l2.22-.264a.577.577 0 0 1 .092-.011c.94-.082 1.873.291 2.576.966v.017c-.506 1.35-1.653 2.34-3.141 2.52-.044.006-.094.017-.138.017Z"/>
  <path fill="var(--sapContent_Illustrative_Color20)" d="M65.465 54.6c.252.017.51.017.763 0h.071a4.76 4.76 0 0 0 .599-.088l1.691 8.787a4 4 0 0 0-.362.016c-.044 0-.088.011-.138.011-.318.039-.62.105-.911.193L65.459 54.6h.005Zm-3.378-1.434c.406.347.851.638 1.318.868l-8.946 12.104a5.855 5.855 0 0 0-1.488-.648l9.116-12.323Z"/>
</svg>
