<svg id="tnt-Dialog-ChartGantt" xmlns="http://www.w3.org/2000/svg" width="160" height="160" fill="none" viewBox="0 0 160 160">
  <rect width="160" height="69" y="50.584" fill="var(--sapContent_Illustrative_Color20)" rx="12"/>
  <path fill="var(--sapContent_Illustrative_Color21)" fill-rule="evenodd" d="m54.034 115.317 75.413-13.466c.47-.085.487-.747.029-.86l-47.289-11.78a4.356 4.356 0 0 0-1.731-.079L20.913 98.31c-1.053.164-1.256 1.59-.289 2.043L52.32 115.09a2.837 2.837 0 0 0 1.714.221v.006Z" clip-rule="evenodd"/>
  <path fill="var(--sapContent_Illustrative_Color2)" d="M37.929 42.303a2.13 2.13 0 0 1 .795.11 2.31 2.31 0 0 1 1.227.976c.14.226.241.478.287.744a1.72 1.72 0 0 1-.332 1.398 1.654 1.654 0 0 1-.549.453 1.85 1.85 0 0 1-.74.196 2.13 2.13 0 0 1-.794-.11 2.25 2.25 0 0 1-.7-.383 2.4 2.4 0 0 1-.532-.593 2.055 2.055 0 0 1-.287-.75 1.938 1.938 0 0 1 .02-.764c.055-.236.166-.457.312-.639a1.714 1.714 0 0 1 1.293-.644v.006Z"/>
  <path fill="var(--sapContent_Illustrative_Color8)" d="m33.326 48.97 85.604-5.149 11.001 47.837c.075.322.085.638.05.93a2.057 2.057 0 0 1-.272.805c-.14.236-.322.437-.543.588-.221.15-.478.251-.764.287L45.634 104.64c-.352.046-.699.01-1.026-.08a2.658 2.658 0 0 1-.91-.463 2.896 2.896 0 0 1-.694-.769 2.748 2.748 0 0 1-.377-.996l-9.3-53.362Z"/>
  <path fill="var(--sapContent_Illustrative_Color13)" d="M115.082 36.003c.281-.015.563.035.83.13.266.096.523.247.754.438a2.827 2.827 0 0 1 .951 1.518l1.318 5.727-85.61 5.154-1.106-6.366a2.245 2.245 0 0 1 .03-.955 2.059 2.059 0 0 1 1.096-1.358c.277-.135.59-.22.931-.24l80.806-4.048ZM38.617 46.184a1.85 1.85 0 0 0 .74-.196 1.65 1.65 0 0 0 .548-.452 1.72 1.72 0 0 0 .332-1.398 2.066 2.066 0 0 0-.287-.744 2.31 2.31 0 0 0-1.227-.975 2.115 2.115 0 0 0-.795-.111c-.272.015-.518.08-.74.19a1.672 1.672 0 0 0-.865 1.092 1.85 1.85 0 0 0-.02.764 2.186 2.186 0 0 0 .82 1.343c.211.166.448.296.7.382.25.085.522.126.794.11"/>
  <path fill="var(--sapContent_Illustrative_Color14)" d="M45.632 104.635a2.612 2.612 0 0 1-1.937-.543 2.913 2.913 0 0 1-.694-.769 2.714 2.714 0 0 1-.377-.996l-9.3-53.357-1.107-6.366a2.21 2.21 0 0 1-.035-.477c0-.156.025-.307.06-.453a2.11 2.11 0 0 1 .372-.789l-1.403 1.825a2.487 2.487 0 0 0-.226.367 2.185 2.185 0 0 0-.171 1.332l1.091 6.296 9.14 52.774a2.795 2.795 0 0 0 1.956 2.202c.327.095.669.126 1.016.08l82.023-10.362 2.359-1.137-82.767 10.373Z"/>
  <path fill="var(--sapContent_Illustrative_Color20)" d="M64.454 56.775c.398-.033.78.288.864.715l.553 2.869-1.462.15-.554-2.875c-.083-.438.178-.826.582-.864h.017v.005Zm5.734 33.812L65.64 66.938l1.462-.16 4.541 23.626c.083.438-.177.831-.576.88-.415.04-.797-.27-.88-.703v.006Zm13.368-15.169 1.39-.161h.039l2.542 13.203c.083.432-.166.82-.56.87-.415.039-.78-.271-.864-.698l-2.542-13.209-.005-.005Zm-3.166-20.26c.399-.034.786.277.87.709l2.508 13.037-1.429.155-2.509-13.043c-.083-.432.167-.82.565-.858h-.005Zm21.312 31.552-.543-2.82 1.402-.171.542 2.82c.083.426-.166.813-.554.863h-.022c-.376.033-.747-.271-.825-.698v.006ZM96.03 53.562c.393-.033.77.277.852.703l4.464 23.162-1.401.166-4.464-23.184c-.083-.426.16-.808.554-.847h-.006Z"/>
  <path fill="var(--sapContent_Illustrative_Color15)" d="M74.374 59.483c.537-.05 1.052.37 1.163.947l.82 4.28c.11.582-.227 1.092-.759 1.147l-8.496.92-1.462.16-5.24.565c-.553.05-1.074-.376-1.184-.953l-.831-4.325c-.111-.587.238-1.108.78-1.163l5.24-.543 1.462-.15 8.502-.886h.005Z"/>
  <path fill="var(--sapContent_Illustrative_Color14)" d="M105.87 76.902c.532-.044 1.019.366 1.124.925l.814 4.21c.111.564-.216 1.08-.725 1.14l-4.525.548-1.401.172-10.418 1.257c-.543.05-1.041-.36-1.152-.93l-.82-4.26c-.11-.575.222-1.09.748-1.151l10.423-1.219 1.402-.166 4.524-.531.006.005Z"/>
  <path fill="var(--sapContent_Illustrative_Color13)" d="M83.553 68.945c.548-.04 1.041.376 1.152.936l.825 4.264c.105.56-.21 1.07-.72 1.147h-.039l-1.39.16-12.572 1.44c-.554.05-1.063-.37-1.174-.947l-.825-4.303c-.117-.587.227-1.102.764-1.163l12.578-1.39 1.395-.155.006.01Zm12.183-1.365c.532-.045 1.03.365 1.136.935l.814 4.232c.11.57-.222 1.08-.737 1.14l-8.202.942c-.537.05-1.041-.365-1.152-.936l-.82-4.259c-.11-.576.222-1.085.748-1.146l8.208-.909h.005Z"/>
</svg>
