<svg id="tnt-Scene-Lock" xmlns="http://www.w3.org/2000/svg" width="320" height="240" fill="none" viewBox="0 0 320 240">
  <path fill="var(--sapContent_Illustrative_Color20)" fill-rule="evenodd" d="M320 83v90c0 13.246-10.754 24-24 24H24c-13.246 0-24-10.754-24-24V83c0-13.246 10.754-24 24-24h272c13.246 0 24 10.754 24 24Z" clip-rule="evenodd"/>
  <path fill="var(--sapContent_Illustrative_Color21)" d="m199.437 152.979 41.9 25.14c.36.21.13.41-.5.43l-9.36.31 4.27 2.56-16.04.46-8.25-.48-2.98-1.76-99.91 3.33 4.72 2.83-18.26.52-9.45-1.2-2.95-1.75-14.34.33-9.58-1.44-2.14-1.29-2.17-.21-37.95-22.75 23.73-1.93.04.02c.09-.02.22-.03.35-.03l157.1-3.44c.65-.02 1.45.15 1.81.36l-.04-.01Z"/>
  <path fill="var(--sapContent_Illustrative_Color8)" d="m241.768 147.169-2.29.07v1l2.29-.07v-1Z"/>
  <path fill="var(--sapContent_Illustrative_Color28)" d="m227.357 171.739 16.72-.87v10.96l-16.72.39v-10.48Z"/>
  <path fill="var(--sapContent_Illustrative_Color29)" d="m227.357 171.779-7.46.39.05 7.57 7.42 2.47v-10.43h-.01Z"/>
  <path fill="var(--sapContent_Illustrative_Color28)" d="m73.617 165.848 13.78-.16 2.24 10.82-16.02.03v-10.7.01Z"/>
  <path fill="var(--sapContent_Illustrative_Color29)" d="M66.497 160.099v10.31l7.13 6.13v-10.59l-7.13-5.85Z"/>
  <path fill="var(--sapContent_Illustrative_Color28)" d="m95.907 177.749 19.05-.99v11.24l-19.05.45v-10.7Z"/>
  <path fill="var(--sapContent_Illustrative_Color29)" d="m95.897 177.719-7.46-4.8.05 10.31 7.42 5.2v-10.72l-.01.01Z"/>
  <path fill="var(--sapContent_Illustrative_Color16)" d="m92.897 30.339 163 8v134l-163 6v-148Z"/>
  <path fill="var(--sapContent_Illustrative_Color30)" d="m105.897 42.339 137 6.7v112.27l-137 5.03v-124Zm-41.999 7.5 29-19.5v148l-29-14.5v-114Z"/>
  <path fill="var(--sapContent_Illustrative_Color13)" d="m107.947 45.37 132.95 6.41v107.309l-132.95 4.8V45.369Z"/>
  <path fill="var(--sapContent_Illustrative_Color14)" d="m115.997 54.929 117.56 5.48v91.8l-117.56 4.11V54.929Z"/>
  <path fill="var(--sapContent_Illustrative_Color22)" d="M127.678 82.87h-7v48.999h7v-49Z"/>
  <path fill="var(--sapContent_Illustrative_Color13)" d="M130.157 84.919h-7v49h7v-49Z"/>
  <path fill="var(--sapContent_Illustrative_Color8)" d="M129.298 86.689h-1v43.589h1v-43.59Z"/>
  <path fill="var(--sapContent_Illustrative_Color30)" d="M239.238 71.9c1.99-.55 4.04-.57 6.03-.05.21.06.36.3.36.57v17.62c0 .27-.15.52-.36.58-1.98.57-4.04.6-6.03.09-.21-.05-.36-.29-.36-.57V72.48c0-.27.15-.52.36-.58Z"/>
  <path fill="var(--sapContent_Illustrative_Color14)" d="M240.718 90.97c-.5-.05-.99-.13-1.48-.25-.21-.05-.36-.29-.36-.56V72.5c0-.27.15-.52.36-.58.49-.15.98-.26 1.48-.34"/>
  <path fill="var(--sapContent_Illustrative_Color15)" d="M239.587 70.43c1.66-.55 3.38-.56 5.03-.04.18.06.3.3.3.57v17.62c0 .27-.12.52-.3.58-1.66.56-3.37.59-5.03.07-.18-.05-.3-.29-.3-.57V71c0-.27.12-.52.3-.57Z"/>
  <path fill="var(--sapContent_Illustrative_Color30)" d="M240.757 70.118c-.49.07-.98.17-1.46.31h-.01v18.79h.01c.48.13.97.22 1.46.29v-19.4.01Z"/>
  <path fill="var(--sapContent_Illustrative_Color30)" d="m244.917 80.519-5.63.06v1.07l5.63-.06v-1.07Z"/>
  <path fill="var(--sapContent_Illustrative_Color8)" d="m243.977 80.53-2.41.02v1.07l2.41-.02v-1.07Z"/>
  <path fill="var(--sapContent_Illustrative_Color26)" d="M244.478 89.21V70.35c-.71-.2-1.17-.27-1.25-.27l.02 19.42s.51-.06 1.23-.29Z"/>
  <path fill="var(--sapContent_Illustrative_Color30)" d="M239.378 122.079c1.99-.59 4.04-.64 6.03-.16.21.05.36.29.36.56v17.62c0 .27-.15.52-.36.58-1.98.6-4.04.67-6.03.2-.21-.05-.36-.29-.36-.56v-17.66c0-.27.15-.52.36-.58Z"/>
  <path fill="var(--sapContent_Illustrative_Color14)" d="M240.858 141.139c-.5-.05-.99-.13-1.48-.25-.21-.05-.36-.29-.36-.56v-17.66c0-.27.15-.52.36-.58.49-.15.98-.26 1.48-.34"/>
  <path fill="var(--sapContent_Illustrative_Color15)" d="M239.728 120.608c1.66-.58 3.38-.62 5.03-.13.18.05.3.29.3.56v17.62c0 .27-.12.52-.3.58-1.66.59-3.37.65-5.03.16-.18-.05-.3-.29-.3-.56v-17.66c0-.27.12-.52.3-.58v.01Z"/>
  <path fill="var(--sapContent_Illustrative_Color30)" d="M240.898 120.269c-.49.08-.98.19-1.46.34h-.01v18.79h.01c.48.12.97.21 1.46.26v-19.4.01Z"/>
  <path fill="var(--sapContent_Illustrative_Color30)" d="m245.068 130.599-5.64.16v1.07l5.64-.16v-1.07Z"/>
  <path fill="var(--sapContent_Illustrative_Color8)" d="m244.128 130.629-2.42.07v1.07l2.42-.07v-1.07Z"/>
  <path fill="var(--sapContent_Illustrative_Color26)" d="M244.617 139.298v-18.86c-.71-.19-1.17-.25-1.25-.25l.02 19.42s.51-.07 1.23-.31Z"/>
  <path fill="var(--sapContent_Illustrative_Color26)" d="M251.877 167.219c-.28 0-.5-.22-.5-.5V43.189l-151.2-7.72a.487.487 0 0 1-.47-.52c.01-.28.25-.5.52-.47l151.68 7.75c.27.01.47.23.47.5v124c0 .28-.22.5-.5.5v-.01Z"/>
  <path fill="var(--sapContent_Illustrative_Color22)" d="M145.464 106.959c-.77 18.75 13.66 33.77 31.23 33.53 16.56-.23 29.8-14.08 30.42-30.92.61-16.8-11.52-31.64-27.94-33.25-17.41-1.72-32.94 11.94-33.71 30.64Z"/>
  <path fill="var(--sapContent_Illustrative_Color13)" d="M149.064 107.109c-.76 18.63 13.5 33.57 30.87 33.34 16.37-.22 29.47-14 30.09-30.75.61-16.71-11.39-31.47-27.63-33.06-17.22-1.7-32.57 11.88-33.33 30.47Z"/>
  <path fill="var(--sapContent_Illustrative_Color8)" d="m157.115 95.28 5.18 3.27c.41-.83.86-1.64 1.37-2.4l-5.08-3.2c-.95-.6-2.06-.57-2.46.08-.41.64.04 1.65.99 2.26v-.01Zm2.969 12.129c0-.16.02-.33.03-.49h-6.36c-1.13 0-2.04.62-2.04 1.38 0 .76.91 1.38 2.04 1.38h6.35c-.04-.75-.05-1.5-.02-2.27Zm8.43-16.42c.74-.56 1.51-1.06 2.32-1.51l-2.83-4.78c-.57-.97-1.57-1.44-2.23-1.05-.66.39-.72 1.49-.15 2.46l2.89 4.88Zm13.23-3.939v-5.36c0-1.13-.62-2.04-1.38-2.04-.76 0-1.38.91-1.38 2.04v5.36c.91-.06 1.83-.06 2.76 0Zm17.19 12.719 5.46-2.97c.99-.54 1.5-1.52 1.13-2.19-.36-.67-1.46-.78-2.45-.24l-5.36 2.91c.46.79.86 1.63 1.21 2.48l.01.01Zm-7.21-9.09 2.76-4.97c.55-.99.45-2.08-.22-2.45-.67-.37-1.65.13-2.2 1.11l-2.7 4.85c.82.43 1.6.92 2.35 1.46h.01Zm-29.96 26.16-5.44 2.96c-.99.54-1.5 1.52-1.13 2.19.36.67 1.46.78 2.45.24l5.34-2.9c-.46-.79-.86-1.62-1.22-2.48v-.01Zm45.21-9.92h-6.35c.05.73.06 1.47.03 2.21 0 .19-.04.37-.05.55h6.37c1.13 0 2.04-.62 2.04-1.38 0-.76-.91-1.38-2.04-1.38Zm-3.36 14.4-5.22-3.29c-.41.83-.86 1.64-1.36 2.4l5.11 3.22c.95.6 2.06.57 2.46-.08.41-.64-.04-1.65-.99-2.26v.01Zm-23.35 8.28c-.43 0-.85-.05-1.28-.08v5.38c0 1.13.62 2.04 1.38 2.04.76 0 1.38-.91 1.38-2.04v-5.38c-.49.03-.98.07-1.48.07v.01Zm11.931-4.03c-.74.56-1.5 1.08-2.3 1.53l2.84 4.8c.57.97 1.57 1.44 2.23 1.05.66-.39.72-1.49.15-2.46l-2.91-4.92h-.01Zm-23.211.369-2.75 4.95c-.55.99-.45 2.08.22 2.45.67.37 1.65-.13 2.2-1.11l2.7-4.86c-.82-.43-1.61-.9-2.36-1.43h-.01Z"/>
  <path fill="var(--sapContent_Illustrative_Color14)" d="M160.084 107.579c-.49 12.19 8.74 22.14 20.18 22.19 11.01.06 19.96-9.12 20.39-20.47.42-11.34-7.8-21.2-18.75-22.07-11.38-.91-21.34 8.18-21.82 20.35Z"/>
  <path fill="var(--sapContent_Illustrative_Color20)" d="M161.255 107.448c-.46 11.6 8.32 21.07 19.22 21.13 10.48.05 19.01-8.68 19.41-19.49.4-10.79-7.43-20.18-17.85-21.01-10.83-.86-20.31 7.79-20.78 19.37Z"/>
  <path fill="var(--sapContent_Illustrative_Color14)" d="M166.464 111.849c-.29 7.24 5.16 13.18 12.02 13.27 6.7.09 12.23-5.47 12.49-12.4.26-6.93-4.82-12.84-11.5-13.23-6.83-.4-12.73 5.13-13.01 12.36Z"/>
  <path fill="var(--sapContent_Illustrative_Color20)" d="M168.744 107.939c-.28 7.21 5.12 13.16 11.93 13.3 6.65.13 12.13-5.36 12.4-12.27.26-6.9-4.79-12.83-11.41-13.26-6.78-.44-12.63 5.03-12.91 12.23h-.01Z"/>
  <path fill="var(--sapContent_Illustrative_Color14)" d="m181.295 90.339-5.96 4.59c-.33.24-.58.54-.73.89l-1.63 3.66 7.29-1.92 1.04-7.21-.01-.01Z"/>
  <path fill="var(--sapContent_Illustrative_Color8)" d="M181.574 97.84c-6.43-.39-11.96 4.539-12.77 11.189-.02-.37-.08-.72-.06-1.09.28-7.2 6.13-12.66 12.91-12.23 6.62.43 11.67 6.36 11.41 13.26-.01.36-.1.69-.14 1.04-.26-6.43-5.07-11.79-11.36-12.17h.01Z"/>
  <path fill="var(--sapContent_Illustrative_Color8)" d="m184.004 92.439.44 1.99c.4 1.82-.78 3.56-2.35 3.46l-1.04-.07c-1.58-.1-2.65-2.01-2.09-3.78l.6-1.93c.79-2.54 3.86-2.3 4.44.33Z"/>
</svg>
