<svg id="tnt-Spot-Settings" xmlns="http://www.w3.org/2000/svg" width="128" height="128" fill="none" viewBox="0 0 128 128">
  <rect width="128" height="55" y="40" fill="var(--sapContent_Illustrative_Color20)" rx="8"/>
  <path fill="var(--sapContent_Illustrative_Color21)" d="M65.306 80.879h-.036l-.024-.008-2.755-.858-.044-1.554-5.39-.846-2.193 1.082-3.078-.088-2.907-1.262-5.056.529.823 1.454-2.152.717-4.64-.384-2.444 1.807 3.81 1.238-.288 1.318-4.141.954 2.22 2.549c.32.04.779.043 1.298.028.519-.013 1.106-.045 1.677-.073.571-.028 1.13-.052 1.605-.052.475 0 .87.024 1.102.092.168.052.336.129.523.22.184.093.368.201.567.31.2.108.412.212.631.304.22.092.46.168.703.208.044.1 0 .289-.084.513-.084.229-.207.501-.323.773a4.67 4.67 0 0 0-.272.758c-.044.216-.032.38.1.433l6.876 1.522 3.083-1.943 3.686.132c.275.048.646.208 1.066.425.427.216.89.485 1.35.753.463.269.914.537 1.301.733.388.2.707.333.887.337l6.26-.998-1.96-2.436a3.39 3.39 0 0 0 .367-.184c.136-.076.284-.16.436-.249.147-.088.315-.176.475-.26.164-.08.331-.16.491-.22.068-.029.136-.049.204-.069.064-.02.127-.036.195-.052.068-.012.128-.024.192-.028h.188c.183.012.595.056 1.102.116.511.06 1.134.137 1.745.205.61.068 1.21.136 1.669.18.463.04.783.06.847.036l.942-2.528-4.992-1.327-.826-1.294v-.012c0-.004.012-.008.008-.012 0-.004 0-.012.008-.012 0 0 0-.008.012-.012.012-.008.028-.02.044-.028.016-.008.032-.024.06-.028.02-.008.04-.02.072-.028.024-.008.052-.02.083-.032.084-.028.176-.06.288-.088l.347-.097c.128-.032.256-.064.396-.096l.41-.096.4-.092c.128-.028.252-.06.368-.088.115-.028.223-.056.311-.08s.172-.048.236-.072l.028-.008.028-.008.023-.008.025-.008s.02-.012.035-.016c.012 0 .016-.013.032-.017.012-.003.016-.011.032-.015.012 0 .012-.017.024-.017.008-.008.012-.012.016-.024v-.024s-.008-.02-.016-.028c-.008-.012-.016-.02-.04-.032l-3.57-2.031-4.492.088.016.008Zm-1.673 2.769c.4.445.58.901.54 1.342-.04.449-.308.878-.8 1.262a2.5 2.5 0 0 1-.299.217 4.169 4.169 0 0 1-.355.2 7.744 7.744 0 0 1-.859.365c-.295.104-.627.2-.986.284a15.497 15.497 0 0 1-2.496.365 24.917 24.917 0 0 1-6.66-.449c-1.566-.329-2.935-.781-3.993-1.31-1.043-.517-1.773-1.106-2.113-1.703-.327-.585-.275-1.182.24-1.74.052-.06.112-.12.176-.176.064-.056.14-.116.207-.168.068-.052.148-.104.224-.16a4.513 4.513 0 0 1 .603-.337 7.04 7.04 0 0 1 .387-.164c.14-.052.276-.104.42-.152a9.19 9.19 0 0 1 .447-.137 14.976 14.976 0 0 1 2.284-.424 21.95 21.95 0 0 1 2.62-.129c.91.013 1.856.073 2.798.189.947.116 1.901.288 2.835.525 1.206.3 2.197.657 2.991 1.041.807.393 1.402.822 1.79 1.259Z"/>
  <path fill="var(--sapContent_Illustrative_Color21)" d="M30.814 79.865c.212.117.44.261.66.405.219.145.434.289.626.393.192.108.364.176.48.176l4.428-.553-.476-1.33c.088-.024.188-.06.304-.104.116-.04.24-.088.375-.136.132-.049.268-.1.408-.145a6.5 6.5 0 0 1 .559-.164c.052-.012.104-.02.147-.028.048-.008.092-.016.14-.016h.124c.12 0 .375.028.699.06.323.032.719.072 1.094.112.38.04.755.076 1.046.096.288.024.495.032.551.02l1.581-1.43-2.89-.757-.084-.758v-.008l.011-.008.008-.008s0-.008.012-.008.024-.012.04-.016.032-.012.056-.016c.02-.004.04-.012.064-.016.02 0 .04-.012.072-.02.064-.016.148-.036.232-.052l.275-.056c.096-.02.2-.036.308-.056.103-.02.211-.04.315-.056.104-.016.212-.04.312-.056s.195-.037.283-.052c.092-.017.168-.032.248-.049.08-.016.14-.028.191-.044l.044-.008h.02s.012-.008.016-.008c.012 0 .02-.008.032-.008s.016-.008.028-.008c.008 0 .016-.008.028-.012.008 0 .012-.008.024-.008.008 0 .012-.008.02-.012s.012-.008.012-.012.008-.012 0-.016l-.016-.02-1.697-1.222-3.17.064h-.009l-1.617-.525.527-.97-3.534-.524-1.924.685-2.157-.052-1.673-.794-3.773.345.164.913-1.726.45-3.174-.23-2.18 1.115 2.348.741-.54.785-3.086.57.914 1.466c.208.024.52.024.875.012s.763-.028 1.158-.048c.391-.016.779-.032 1.098-.036.327 0 .583.012.723.048.104.028.195.072.295.124.1.052.196.112.304.172.107.06.22.12.343.173.124.052.264.092.415.116 0 .056-.076.16-.191.289-.12.128-.268.28-.416.432-.147.153-.295.3-.375.421-.084.12-.116.208-.044.24l4.141.81 2.588-1.062 2.411.068c.172.028.368.116.58.228v-.011h-.005Zm-3.88-2.187c-.967-.18-1.77-.441-2.345-.746-.567-.296-.902-.64-.97-.99-.068-.344.132-.696.647-1.033.056-.036.116-.072.175-.108.06-.036.124-.068.188-.1s.136-.065.204-.097c.072-.032.148-.06.22-.092a4.43 4.43 0 0 1 .303-.112c.108-.036.215-.068.323-.1.112-.032.22-.064.34-.092.12-.028.231-.056.355-.084.535-.12 1.122-.209 1.73-.265a19.11 19.11 0 0 1 3.777.028c.626.068 1.237.172 1.808.313.735.18 1.306.392 1.725.625.424.232.691.485.799.745.112.265.076.533-.1.79-.184.26-.515.512-.974.733h.02c-.088.044-.18.088-.28.124-.1.04-.203.076-.307.116l-.34.108a8.06 8.06 0 0 1-.367.105c-.24.06-.491.116-.763.164a14.536 14.536 0 0 1-1.8.212c-.332.02-.675.032-1.027.036a17.628 17.628 0 0 1-3.338-.276h-.004v-.004Z"/>
  <path fill="var(--sapContent_Illustrative_Color14)" d="m80.72 79.216-3.279 2.12h-.112a2.628 2.628 0 0 1-.267.012c-.1 0-.216 0-.335-.008-.12-.008-.252-.012-.384-.02l-.411-.024-.42-.024c-.135-.008-.275-.012-.407-.016h-.375c-.116 0-.228.008-.32.016-.035 0-.071.008-.1.012-.027 0-.063.012-.087.016-.028 0-.056.012-.08.02s-.048.016-.064.024l3.219-2.132s.043-.02.067-.024c.024 0 .052-.016.08-.02.028 0 .06-.012.088-.016.032 0 .068-.008.1-.012.096-.008.208-.016.327-.016h.38c.132 0 .271.012.415.02.144.008.284.016.427.028l.42.024c.135.008.263.016.387.02.12 0 .24.008.34.008.1 0 .195 0 .27-.012h.12v.004Z"/>
  <path fill="var(--sapContent_Illustrative_Color14)" d="m80.72 79.216-3.279 2.12h-.112a2.628 2.628 0 0 1-.267.012c-.1 0-.216 0-.335-.008-.12-.008-.252-.012-.384-.02l-.411-.024-.42-.024c-.135-.008-.275-.012-.407-.016h-.375c-.116 0-.228.008-.32.016-.035 0-.071.008-.1.012-.027 0-.063.012-.087.016-.028 0-.056.012-.08.02s-.048.016-.064.024l3.219-2.132s.043-.02.067-.024c.024 0 .052-.016.08-.02.028 0 .06-.012.088-.016.032 0 .068-.008.1-.012.096-.008.208-.016.327-.016h.38c.132 0 .271.012.415.02.144.008.284.016.427.028l.42.024c.135.008.263.016.387.02.12 0 .24.008.34.008.1 0 .195 0 .27-.012h.12v.004Zm-9.156 11.075c-.068.008-.263-.132-.523-.356-.26-.225-.595-.525-.926-.838-.336-.312-.675-.637-.959-.905a8.453 8.453 0 0 0-.627-.557.43.43 0 0 0-.127-.065.98.98 0 0 0-.156-.035c-.056-.008-.116-.008-.188-.008s-.132 0-.203.011a6.408 6.408 0 0 0-1.126.249c-.184.056-.368.104-.528.152-.16.048-.303.08-.419.096l3.09-2.02a3.87 3.87 0 0 0 .428-.095c.164-.048.347-.097.54-.153.195-.056.39-.108.586-.152.196-.044.383-.084.563-.1a1.838 1.838 0 0 1 .391-.004c.056.008.112.02.16.036.048.016.092.04.128.068.112.084.347.297.639.573.291.273.639.605.978.926.34.324.68.629.947.857"/>
  <path fill="var(--sapContent_Illustrative_Color14)" d="m74.763 88.332-3.199 1.955c-.068.008-.263-.132-.523-.357-.26-.224-.595-.525-.926-.837-.336-.313-.675-.637-.959-.906a8.444 8.444 0 0 0-.627-.557.425.425 0 0 0-.127-.064.97.97 0 0 0-.156-.036c-.056-.008-.116-.008-.188-.008s-.132 0-.203.012a6.34 6.34 0 0 0-.551.096 9.273 9.273 0 0 0-.575.153c-.184.056-.368.104-.528.152-.16.048-.303.08-.419.096l3.087-2.04c.112-.016.275-.06.443-.104.164-.048.344-.096.54-.152.195-.056.39-.108.586-.152a4.47 4.47 0 0 1 .56-.1c.071-.008.139-.008.207-.008.068 0 .12 0 .175.012.056.008.116.036.164.052s.092.04.128.068c.112.084.347.296.639.573.291.272.639.605.978.925.34.325.68.63.947.858M62.54 59.958l-2.313.45.336-1.307 2.899-2.617-.923 3.474Zm10.194 13.136a9.345 9.345 0 0 0-1.042-2.85 10.475 10.475 0 0 0-1.617-2.207 9.735 9.735 0 0 0-2.013-1.603 8.389 8.389 0 0 0-2.228-.938 6.972 6.972 0 0 0-2.264-.22 6.583 6.583 0 0 0-.491.056c-.16.024-.324.06-.483.096a5.451 5.451 0 0 0-.93.317c-.113.052-.233.104-.344.168-.112.06-.228.124-.332.197a4 4 0 0 0-.323.22c-.104.08-.212.156-.308.248l-2.875 2.433c.096-.084.2-.16.304-.245.1-.076.212-.144.315-.22.104-.068.22-.128.328-.189.108-.06.227-.112.335-.164.148-.068.3-.124.451-.176a6.167 6.167 0 0 1 .939-.233 9.83 9.83 0 0 1 .483-.06 6.928 6.928 0 0 1 2.224.205 8.252 8.252 0 0 1 2.184.913c.703.417 1.37.938 1.969 1.563a10.04 10.04 0 0 1 1.585 2.16c.52.945.85 1.887 1.014 2.793.168.905.16 1.775.02 2.576a6.179 6.179 0 0 1-.83 2.188 5.58 5.58 0 0 1-1.542 1.623l3.1-2.144a5.597 5.597 0 0 0 1.564-1.647 6.1 6.1 0 0 0 .839-2.232 7.57 7.57 0 0 0-.028-2.628h-.004ZM55.041 64.15l-2.775 2.496-1.893-3.975 2.683-2.62 1.981 4.095.004.004Zm-1.318 2.272-1.461.233 2.775-2.497-1.314 2.272v-.008Z"/>
  <path fill="var(--sapContent_Illustrative_Color14)" d="m62.95 88.632-.008.008c-.111-.068-.211-.337-.291-.713-.084-.377-.156-.858-.236-1.35a22.056 22.056 0 0 0-.255-1.427c-.092-.425-.212-.765-.352-.93l-2.352-1.542-3.53 1.362-3.457-4.5c-.052-.12.051-.348.231-.625.18-.28.443-.617.723-.958.28-.34.563-.685.787-.977.231-.3.399-.557.443-.718a1.924 1.924 0 0 1-.332-.585 6.209 6.209 0 0 1-.215-.7c-.06-.241-.108-.474-.168-.69a2.36 2.36 0 0 0-.204-.545c-.111-.2-.375-.393-.714-.58-.34-.19-.755-.374-1.182-.558-.428-.18-.867-.364-1.246-.549-.383-.184-.707-.373-.903-.56l.16-5.17-2.66 2.5-.191 5.041c.192.185.511.369.887.545.375.177.802.357 1.221.533.42.177.827.357 1.158.537.332.184.591.369.7.565.079.14.139.325.195.533.056.212.104.437.168.673.06.237.12.469.203.685.084.22.188.417.324.57-.044.156-.216.412-.436.705-.227.292-.507.633-.774.961-.272.333-.531.665-.711.938-.184.276-.28.497-.236.621l3.378 4.396 3.466-1.343 2.305 1.507c.135.164.251.497.343.91.092.416.168.91.248 1.394.075.48.14.954.227 1.322.06.277.124.493.208.61a.24.24 0 0 0 .084.084l4.827 1.041 3.051-1.963-4.888-1.062.005.004Z"/>
  <path fill="var(--sapContent_Illustrative_Color2)" d="M74.763 88.332c-.072.008-.28-.152-.552-.38a31.045 31.045 0 0 1-.946-.858c-.343-.32-.69-.653-.978-.926a10.328 10.328 0 0 0-.64-.573c-.039-.028-.083-.048-.127-.068a.62.62 0 0 0-.16-.036.929.929 0 0 0-.183-.008c-.064 0-.132 0-.212.012-.172.02-.367.056-.559.1a9.697 9.697 0 0 0-.587.153 20.78 20.78 0 0 1-.539.152c-.164.044-.311.08-.427.096l-1.01 3.69-4.92-1.078c-.112-.068-.212-.336-.291-.713-.084-.376-.156-.857-.236-1.354-.076-.493-.152-1.002-.256-1.427-.096-.424-.211-.765-.351-.93l-2.328-1.518-3.53 1.362-3.486-4.527c-.052-.12.052-.353.236-.633.183-.281.443-.618.723-.954.275-.34.563-.685.786-.978.228-.296.4-.557.443-.717a1.929 1.929 0 0 1-.331-.585 7.565 7.565 0 0 1-.216-.701c-.06-.24-.108-.473-.167-.69-.06-.216-.12-.4-.204-.544-.112-.2-.375-.393-.715-.581-.34-.185-.755-.373-1.182-.553-.427-.18-.866-.365-1.246-.55-.379-.184-.706-.372-.902-.56l.184-5.141 3.841.064 1.314-2.272-1.945-4.06 3.57-2.58 3.418 2.937 2.496-.472.918-3.45 4.876 1.234.922 4.063 2.444 1.623 3.234-1.179 3.346 4.256-2.056 2.973 1.07 2.777.012.02.024.02 3.654 1.84.02 4.872c0 .028-.008.048-.016.068a.214.214 0 0 1-.06.088.14.14 0 0 1-.04.028c-.012 0-.024.012-.04.016-.016 0-.028.008-.044.012-.016 0-.028.008-.044.012-.016 0-.032.008-.048.012h-.12a2.655 2.655 0 0 1-.271.012c-.104 0-.216 0-.34-.008-.12-.008-.255-.012-.387-.02l-.42-.024c-.139-.008-.283-.02-.426-.028-.144-.008-.28-.016-.416-.02h-.379a3.9 3.9 0 0 0-.327.016c-.036 0-.072.008-.1.012-.032 0-.064.012-.088.016-.028 0-.056.012-.08.02a1.325 1.325 0 0 0-.068.024c-.008 0-.016.008-.024.012-.008 0-.016.008-.02.016 0 .008-.012.012-.02.016-.008 0-.012.012-.016.016l-.954 2.268 2.008 3.855m-8.657-5.365a5.484 5.484 0 0 0 1.933-1.551 6.024 6.024 0 0 0 1.114-2.308c.216-.866.264-1.82.108-2.821-.152-.998-.5-2.048-1.086-3.11a10.474 10.474 0 0 0-1.617-2.207 9.926 9.926 0 0 0-2.009-1.603 8.333 8.333 0 0 0-2.228-.938 6.948 6.948 0 0 0-2.264-.216 6.358 6.358 0 0 0-.491.056 5.783 5.783 0 0 0-.954.232 4.391 4.391 0 0 0-.46.185c-.112.052-.231.104-.343.168-.112.064-.228.124-.332.196-.103.068-.22.14-.323.22a2.996 2.996 0 0 0-.308.25c-.918.78-1.501 1.81-1.78 2.96-.276 1.146-.248 2.416.067 3.679a10.21 10.21 0 0 0 1.733 3.618 9.81 9.81 0 0 0 3.19 2.769c.372.2.74.368 1.103.505a7.17 7.17 0 0 0 2.1.465 6 6 0 0 0 1.474-.089c.16-.032.323-.068.479-.108a5.74 5.74 0 0 0 .46-.148c.147-.056.295-.116.434-.192"/>
  <path fill="var(--sapContent_Illustrative_Color14)" d="m65.954 49.749-2.7 1.747h-.091c-.064.008-.136.008-.224.008h-.275c-.096 0-.208-.008-.316-.016-.108-.008-.227-.012-.34-.02a9.878 9.878 0 0 0-.343-.02c-.111 0-.227-.012-.335-.012h-.307c-.092 0-.184.008-.264.016-.028 0-.06.008-.084.012-.024 0-.052.008-.076.012-.024 0-.044.012-.064.016-.02 0-.04.012-.055.02l2.647-1.76s.036-.015.056-.02c.02-.003.044-.011.068-.015l.076-.012c.028 0 .056-.008.083-.012.08-.008.172-.012.268-.012h.311c.108 0 .228.008.34.016.112.008.235.012.351.02.116.008.236.016.344.02.107 0 .223.012.32.016.095 0 .195.008.279.008.083 0 .16 0 .227-.008h.096l.008-.008v.004ZM51.003 33.893l-2.388 2.1.723-2.821 2.388-2.176-.727 2.893.004.004Zm8.367 10.815a7.706 7.706 0 0 0-.86-2.348 8.456 8.456 0 0 0-1.337-1.819 8.137 8.137 0 0 0-1.657-1.318 6.99 6.99 0 0 0-1.833-.774 5.618 5.618 0 0 0-1.865-.176 6.982 6.982 0 0 0-.407.048 4.709 4.709 0 0 0-.79.193 3.1 3.1 0 0 0-.38.148c-.092.044-.188.088-.283.136-.092.052-.184.1-.276.156-.088.056-.18.117-.264.18a5.189 5.189 0 0 0-.255.205l-2.368 2.003c.084-.072.164-.132.252-.2.083-.064.171-.12.259-.176.084-.056.176-.104.268-.157.087-.048.183-.092.275-.136.12-.056.248-.1.372-.144a4.2 4.2 0 0 1 .383-.112c.128-.032.26-.06.395-.08a6 6 0 0 1 .4-.048 5.624 5.624 0 0 1 1.832.168 6.997 6.997 0 0 1 1.801.753 7.689 7.689 0 0 1 1.621 1.286c.495.513.939 1.11 1.306 1.783.427.782.703 1.555.835 2.3a6.17 6.17 0 0 1 .016 2.124 4.981 4.981 0 0 1-.687 1.803c-.052.08-.104.16-.16.237a4.469 4.469 0 0 1-1.114 1.098l2.552-1.771c.515-.357.95-.818 1.29-1.363a5.126 5.126 0 0 0 .694-1.839 6.173 6.173 0 0 0-.024-2.164h.012l-.004.004Zm-14.58-7.372-2.283 2.06-1.562-3.275 2.244-2.147 1.602 3.358v.004Zm13.625 21.5c-.056.008-.22-.108-.431-.292-.216-.18-.484-.429-.763-.693-.276-.26-.56-.525-.787-.746a6.954 6.954 0 0 0-.515-.456.361.361 0 0 0-.104-.053.661.661 0 0 0-.127-.028c-.048 0-.096-.008-.148-.008-.052 0-.108 0-.172.012a4.2 4.2 0 0 0-.451.084c-.156.037-.32.085-.471.125-.152.04-.304.084-.436.124-.131.04-.255.068-.343.08l2.548-1.663c.091-.016.215-.044.351-.08.136-.036.287-.084.443-.124.16-.044.32-.088.48-.124.16-.036.315-.069.459-.084a1.283 1.283 0 0 1 .323-.004c.048.008.088.016.132.028a.258.258 0 0 1 .104.056c.092.068.287.248.527.464.243.225.523.497.806.766.284.264.56.517.775.709.22.188.387.308.44.3"/>
  <path fill="var(--sapContent_Illustrative_Color14)" d="m43.708 39.206-2.273 2.024 1.07-1.835 2.285-2.06-1.082 1.871Z"/>
  <path fill="var(--sapContent_Illustrative_Color14)" d="M51.31 57.486h-.003c-.092-.052-.172-.272-.244-.58-.068-.31-.127-.71-.191-1.115-.064-.408-.128-.821-.208-1.17-.08-.348-.164-.637-.28-.777l-1.952-1.286-2.911 1.118-2.84-3.69c-.023-.105.057-.281.197-.502.147-.236.367-.505.599-.785.227-.28.459-.561.65-.81.188-.248.328-.452.368-.592a1.58 1.58 0 0 1-.272-.477 4.388 4.388 0 0 1-.172-.577c-.047-.2-.087-.393-.135-.565a1.816 1.816 0 0 0-.168-.449c-.092-.16-.307-.32-.591-.473a11.76 11.76 0 0 0-.974-.453c-.352-.148-.715-.3-1.03-.448-.316-.149-.584-.305-.747-.461l.14-4.244-2.205 2.04-.16 4.155c.164.152.424.305.731.449.308.144.663.293 1.007.437.343.144.683.292.954.44.272.149.48.305.579.461.068.113.116.269.16.437.048.168.084.365.131.553.048.196.096.389.168.565.068.176.156.34.264.469-.036.128-.18.336-.364.585-.183.244-.419.52-.642.793a9.268 9.268 0 0 0-.587.774c-.14.216-.22.388-.192.488l-.008.008.008.012 2.779 3.61 2.86-1.11 1.9 1.243c.112.132.207.409.283.753.076.34.136.754.204 1.146.06.401.116.786.188 1.094.052.229.1.409.163.501.02.032.044.056.068.072l3.981.858 2.544-1.607-4.053-.886.004-.004Z"/>
  <path fill="var(--sapContent_Illustrative_Color2)" d="m63.158 44.035 3.007 1.514.016 4.02-.012.055c0 .017-.012.029-.02.04a.095.095 0 0 1-.028.029c-.012.008-.02.016-.032.02-.012 0-.02.008-.032.012-.012 0-.024.008-.036.012-.012 0-.024.008-.036.008-.012 0-.024.008-.04.008h-.096c-.064.008-.135.008-.227.008s-.176 0-.28-.008c-.1-.008-.207-.008-.32-.016-.107-.008-.23-.012-.343-.02a10.341 10.341 0 0 0-.351-.02c-.116-.004-.232-.013-.34-.017h-.31c-.093 0-.193 0-.268.013-.032 0-.06.008-.084.012-.028 0-.052.008-.076.012-.024 0-.048.012-.068.016-.02 0-.04.012-.056.02-.008 0-.012.008-.02.012a.055.055 0 0 0-.016.012l-.016.012-.012.012-.782 1.867 1.653 3.174-2.895 2.396c-.06.008-.224-.112-.44-.3a15.704 15.704 0 0 1-.774-.71c-.28-.264-.571-.537-.807-.765a5.483 5.483 0 0 0-.527-.465.454.454 0 0 0-.236-.084c-.047 0-.095-.008-.151-.008-.056 0-.108 0-.168.012-.144.016-.3.048-.46.084-.159.036-.323.084-.478.124-.156.044-.308.088-.444.124-.135.036-.255.068-.351.08l-.83 3.046-4.053-.886c-.092-.056-.172-.276-.244-.589-.068-.308-.128-.71-.192-1.114a16.22 16.22 0 0 0-.207-1.17c-.08-.348-.172-.629-.292-.77l-1.94-1.273-2.912 1.117-2.85-3.706c-.04-.1.043-.288.195-.52.148-.237.367-.506.599-.786.232-.28.46-.561.65-.81.193-.252.328-.452.368-.593a1.58 1.58 0 0 1-.271-.477c-.072-.18-.124-.38-.176-.577-.048-.2-.088-.392-.136-.565a1.815 1.815 0 0 0-.167-.448c-.092-.16-.308-.32-.591-.473-.28-.152-.623-.305-.975-.453-.351-.148-.714-.3-1.03-.449-.315-.148-.583-.304-.747-.46l.148-4.236 3.167.052 1.082-1.871-1.602-3.346 2.943-2.123 2.82 2.416 2.056-.393.727-2.873 4.049 1.05.758 3.35 2.013 1.338 2.66-.966 2.755 3.506-1.694 2.449.879 2.288v.024l-.004-.004Zm-6.361 6.387a4.582 4.582 0 0 0 1.593-1.278 5.09 5.09 0 0 0 .927-1.904c.183-.717.22-1.498.087-2.324-.123-.825-.415-1.687-.894-2.56a8.45 8.45 0 0 0-1.338-1.82 8.133 8.133 0 0 0-1.657-1.318 6.932 6.932 0 0 0-1.833-.773 5.599 5.599 0 0 0-1.864-.176 7.069 7.069 0 0 0-.408.048 4.47 4.47 0 0 0-.399.08 4.38 4.38 0 0 0-.77.26c-.093.044-.188.088-.284.137a3.838 3.838 0 0 0-.539.337 5.189 5.189 0 0 0-.256.203c-.758.646-1.238 1.495-1.461 2.437-.224.941-.204 1.991.056 3.029a8.432 8.432 0 0 0 1.43 2.985 8.253 8.253 0 0 0 2.627 2.284 7.062 7.062 0 0 0 1.792.681c.292.065.575.1.847.12a4.911 4.911 0 0 0 1.218-.072c.132-.028.264-.056.395-.088.128-.036.256-.08.38-.12a2.96 2.96 0 0 0 .363-.152"/>
</svg>
