<svg id="tnt-Spot-Tutorials" xmlns="http://www.w3.org/2000/svg" width="128" height="128" fill="none" viewBox="0 0 128 128">
  <path fill="var(--sapContent_Illustrative_Color20)" fill-rule="evenodd" d="M128 49.6v36c0 5.298-4.302 9.6-9.6 9.6H9.6c-5.298 0-9.6-4.302-9.6-9.6v-36C0 44.302 4.302 40 9.6 40h108.8c5.298 0 9.6 4.302 9.6 9.6Z" clip-rule="evenodd"/>
  <path fill="var(--sapContent_Illustrative_Color21)" d="m86.688 83.474-53.24 9.507a2.04 2.04 0 0 1-1.21-.16l-3.014-1.4-3.778.588a3.108 3.108 0 0 1-.486.032c-.17 0-.354-.016-.533-.04a5.101 5.101 0 0 1-.514-.1 2.845 2.845 0 0 1-.433-.154l-6.31-3.002a.784.784 0 0 1-.263-.175c-.052-.06-.071-.116-.055-.171.015-.052.063-.1.147-.14.083-.04.195-.071.346-.091l3.71-.546-11.19-5.207c-.685-.318-.541-1.325.203-1.44l42.034-6.477a3.084 3.084 0 0 1 1.222.055l33.384 8.316c.322.08.31.546-.02.605Z"/>
  <path fill="var(--sapContent_Illustrative_Color13)" d="M88.55 34.172a1.6 1.6 0 0 1 .625.1 2.078 2.078 0 0 1 1.017.837c.124.196.215.41.271.638l.993 4.319-64.57 3.887-.834-4.8a1.679 1.679 0 0 1 .024-.722 1.563 1.563 0 0 1 .825-1.025 1.81 1.81 0 0 1 .702-.184l60.946-3.05Z"/>
  <path fill="var(--sapContent_Illustrative_Color8)" d="m26.882 43.954 64.566-3.884 8.298 36.084c.056.243.064.482.04.702-.028.219-.1.426-.203.606a1.38 1.38 0 0 1-.41.442 1.331 1.331 0 0 1-.579.216l-62.43 7.823a1.932 1.932 0 0 1-.773-.06 1.9 1.9 0 0 1-.686-.35 2.199 2.199 0 0 1-.522-.579 2.06 2.06 0 0 1-.283-.75l-7.014-40.25h-.004Z"/>
  <path fill="var(--sapContent_Illustrative_Color14)" d="M36.169 85.943a2.007 2.007 0 0 1-.774-.06 2.035 2.035 0 0 1-.686-.35 2.155 2.155 0 0 1-.805-1.332L26.89 43.954l-.834-4.8a1.576 1.576 0 0 1-.028-.36 1.65 1.65 0 0 1 .156-.657c.044-.1.108-.196.171-.28L25.3 39.233c-.064.088-.12.18-.172.275a1.579 1.579 0 0 0-.155.65c0 .116 0 .236.028.355l.821 4.75 6.894 39.803c.044.271.144.518.28.742.135.223.315.418.514.574.203.155.43.271.678.347.247.072.506.096.766.06l61.866-7.816 1.779-.857-62.43 7.823v.004Z"/>
  <path fill="var(--sapContent_Illustrative_Color24)" d="M100.041 70.551a1.031 1.031 0 0 1-.135.403.914.914 0 0 1-.271.295.921.921 0 0 1-.391.143L31.16 79.443a1.39 1.39 0 0 1-.53-.044 1.394 1.394 0 0 1-.474-.235 1.524 1.524 0 0 1-.363-.387 1.41 1.41 0 0 1-.204-.506l-1.818-9.24a1.258 1.258 0 0 1 .004-.518 1.147 1.147 0 0 1 .558-.761c.148-.084.307-.14.49-.156l67.733-6.823a.961.961 0 0 1 .435.052c.14.044.28.116.399.216a1.457 1.457 0 0 1 .522.794l2.102 8.253c.039.164.051.323.035.47l-.008-.007Z"/>
  <path fill="var(--sapContent_Illustrative_Color11)" d="M99.532 71.31a.368.368 0 0 1-.092.036c-.032.012-.064.02-.096.028s-.068.012-.1.016l-68.079 8.05a1.39 1.39 0 0 1-.53-.043 1.392 1.392 0 0 1-.475-.236 1.524 1.524 0 0 1-.363-.386 1.41 1.41 0 0 1-.203-.507l-1.818-9.239c-.02-.1-.028-.2-.024-.295 0-.096.016-.187.036-.275a1.56 1.56 0 0 1 .103-.255c.044-.08.092-.156.152-.22a4.663 4.663 0 0 0-.112.132l-.028.028-.191.215a1.251 1.251 0 0 1-.068.072c-.016.02-.04.044-.056.064a1.06 1.06 0 0 0-.064.068l-.147.167s-.012.012-.016.02l-.06.06c-.008.012-.016.02-.028.032l-.367.41a1.35 1.35 0 0 0-.151.22 1 1 0 0 0-.1.25 1.53 1.53 0 0 0-.04.276c0 .092.004.191.028.291l1.787 9.14a1.477 1.477 0 0 0 .562.88c.14.105.299.184.466.232a1.3 1.3 0 0 0 .527.04l.793-.773-.793.777 67.47-8.079c.035-.004.067-.012.099-.016a.433.433 0 0 0 .096-.028c.031-.012.06-.023.087-.035a.452.452 0 0 0 .084-.048l1.79-1.125-.083.048.004.008Z"/>
  <path fill="var(--sapContent_Illustrative_Color8)" d="M63.448 68.95c.056.08.111.164.16.252.047.088.095.175.135.267a3.047 3.047 0 0 1 .243.921 2.924 2.924 0 0 1-.016.666c-.016.108-.04.212-.068.311a2.515 2.515 0 0 1-.27.606 2.184 2.184 0 0 1-.982.846 2.441 2.441 0 0 1-1.387.16 2.787 2.787 0 0 1-.686-.212 3.31 3.31 0 0 1-.622-.375 2.944 2.944 0 0 1-.527-.518 3.629 3.629 0 0 1-.203-.283 2.871 2.871 0 0 1-.307-.634 2.567 2.567 0 0 1-.096-.343 3.548 3.548 0 0 1-.056-.351 2.421 2.421 0 0 1 .02-.666 2.43 2.43 0 0 1 .347-.913 2.18 2.18 0 0 1 .43-.49 2.18 2.18 0 0 1 .56-.348c.203-.088.43-.147.67-.171.254-.028.51-.016.76.036.252.052.491.131.722.247a3.155 3.155 0 0 1 1.169 1.005l.004-.012Zm-1.551 3.657c.303-.035.574-.131.81-.275.234-.143.434-.339.585-.57.152-.231.255-.49.307-.778a2.25 2.25 0 0 0-.028-.905 2.7 2.7 0 0 0-.992-1.539 2.518 2.518 0 0 0-.802-.415c-.287-.087-.586-.12-.89-.087a1.93 1.93 0 0 0-1.399.833c-.155.227-.26.49-.31.778a2.24 2.24 0 0 0 .023.909 2.64 2.64 0 0 0 .997 1.543c.243.183.518.327.805.415.288.087.59.12.89.083"/>
  <path fill="var(--sapContent_Illustrative_Color11)" d="M60.884 68.045c.303-.032.602 0 .89.088.286.088.557.227.8.415a2.684 2.684 0 0 1 .993 1.54c.068.31.076.617.029.904a2.015 2.015 0 0 1-.308.778 1.906 1.906 0 0 1-1.395.845c-.3.032-.602 0-.89-.084a2.459 2.459 0 0 1-.805-.414 2.815 2.815 0 0 1-.63-.674 2.555 2.555 0 0 1-.367-.87 2.341 2.341 0 0 1-.024-.909c.052-.287.16-.55.311-.777.152-.228.351-.419.59-.563.24-.143.51-.239.81-.27l-.004-.009Z"/>
  <path fill="var(--sapContent_Illustrative_Color8)" d="M97.215 65.291c.143-.016.287 0 .422.044.136.044.272.116.387.207.116.092.224.208.311.335a1.351 1.351 0 0 1 .224.886 1.006 1.006 0 0 1-.128.386.863.863 0 0 1-.646.415l-33.882 3.804a2.517 2.517 0 0 0 .096-.638c0-.111 0-.223-.012-.339a2.606 2.606 0 0 0-.056-.347 2.886 2.886 0 0 0-.323-.841 2.655 2.655 0 0 0-.16-.251l33.767-3.665v.004Z"/>
  <path fill="var(--sapContent_Illustrative_Color11)" d="M35.12 70.784c.092-.008.18 0 .267.024a.75.75 0 0 1 .423.315.78.78 0 0 1 .103.251l.69 3.438a.65.65 0 0 1 0 .263.6.6 0 0 1-.526.479.664.664 0 0 1-.267-.025.792.792 0 0 1-.24-.12.714.714 0 0 1-.183-.195.7.7 0 0 1-.104-.25l-.69-3.446a.648.648 0 0 1 0-.263.581.581 0 0 1 .284-.391.623.623 0 0 1 .247-.08h-.004Zm-2.448.265a.774.774 0 0 1 .271.024.75.75 0 0 1 .423.315.78.78 0 0 1 .103.251l.686 3.45a.668.668 0 0 1 0 .267.557.557 0 0 1-.1.227.624.624 0 0 1-.435.251.658.658 0 0 1-.266-.024.79.79 0 0 1-.427-.315.65.65 0 0 1-.104-.255l-.685-3.457a.651.651 0 0 1 0-.264.585.585 0 0 1 .283-.394.566.566 0 0 1 .247-.08l.004.004Zm26.195-1.771c-.032.1-.056.207-.072.31a2.423 2.423 0 0 0-.02.666c.012.116.028.232.056.351.027.12.06.232.095.343.036.112.084.22.136.327a2.945 2.945 0 0 0 .375.59L43.439 73.66c-.18.02-.36 0-.53-.048a1.553 1.553 0 0 1-.841-.63 1.5 1.5 0 0 1-.212-.507 1.25 1.25 0 0 1 0-.53c.035-.167.1-.319.195-.454a1.14 1.14 0 0 1 .359-.331c.143-.084.307-.14.486-.16l15.978-1.73-.008.008Z"/>
  <path fill="var(--sapContent_Illustrative_Color1)" d="m99.328 81.401-1.897 1.224s-.043.03-.063.04c-.02.009-.044.028-.058.038-.02.01-.044.03-.059.04-.02.009-.044.028-.063.038-.405.244-.82.468-1.244.668a12.993 12.993 0 0 1-4.11 1.136c-.239.03-.483.049-.722.064-.238.014-.487.019-.73.024-.245 0-.493 0-.742-.02s-.497-.029-.746-.058a15.56 15.56 0 0 1-4.437-1.126 17.438 17.438 0 0 1-4.096-2.418 17.973 17.973 0 0 1-1.803-1.639 18.998 18.998 0 0 1-1.575-1.858 18.746 18.746 0 0 1-1.317-2.047 18.163 18.163 0 0 1-1.755-4.5 16.664 16.664 0 0 1-.448-4.637c.034-.766.131-1.517.282-2.253a13.944 13.944 0 0 1 1.477-4.032 12.607 12.607 0 0 1 2.58-3.247l1.672-1.512a12.819 12.819 0 0 0-2.598 3.282 13.739 13.739 0 0 0-1.482 4.071 15.64 15.64 0 0 0-.224 4.612 16.3 16.3 0 0 0 .394 2.35c.19.78.434 1.555.727 2.321.302.766.648 1.507 1.043 2.223a18.937 18.937 0 0 0 2.92 3.954 18.337 18.337 0 0 0 3.832 3.033c.693.41 1.405.766 2.131 1.073.727.307 1.468.55 2.219.746a15.194 15.194 0 0 0 3.764.483c.248 0 .492-.01.74-.02a15.798 15.798 0 0 0 2.17-.293c.474-.097.937-.229 1.385-.38.454-.151.892-.331 1.326-.527.434-.2.849-.424 1.254-.672.024-.015.043-.03.063-.04.024-.01.044-.029.058-.038.02-.01.044-.03.059-.04.02-.01.044-.029.063-.043"/>
  <path fill="var(--sapContent_Illustrative_Color11)" d="M98.494 55.823a18.56 18.56 0 0 1 2.272 2.184c.692.79 1.316 1.634 1.867 2.516a18.199 18.199 0 0 1 1.414 2.784c.39.96.702 1.96.922 2.974.161.76.273 1.516.326 2.277a15.628 15.628 0 0 1-.297 4.442 14.648 14.648 0 0 1-.619 2.096 13.506 13.506 0 0 1-2.131 3.691 11.935 11.935 0 0 1-1.468 1.512c-.531.463-1.101.882-1.71 1.253a12.404 12.404 0 0 1-2.58 1.2 13.54 13.54 0 0 1-1.385.38c-.468.102-.95.18-1.438.229a9.507 9.507 0 0 1-.731.058c-.244.015-.493.02-.742.02-.248 0-.497 0-.746-.02a20.61 20.61 0 0 1-.755-.058 14.59 14.59 0 0 1-2.263-.405 16.257 16.257 0 0 1-2.218-.746 17.69 17.69 0 0 1-4.14-2.448 18.91 18.91 0 0 1-1.823-1.653 18.22 18.22 0 0 1-1.59-1.881 18.526 18.526 0 0 1-2.374-4.3 17.012 17.012 0 0 1-.726-2.322 17.773 17.773 0 0 1-.395-2.35 17.003 17.003 0 0 1-.059-2.335 15.3 15.3 0 0 1 .888-4.437c.253-.692.565-1.355.916-1.984a12.03 12.03 0 0 1 1.21-1.78c.453-.556.94-1.073 1.472-1.536a12.206 12.206 0 0 1 1.701-1.263 13.068 13.068 0 0 1 3.9-1.599 13.57 13.57 0 0 1 2.137-.312 14.395 14.395 0 0 1 2.93.112c.975.137 1.94.366 2.891.688.95.321 1.877.731 2.774 1.228.897.503 1.76 1.078 2.584 1.746v.014l-.014.025Z"/>
  <path fill="var(--sapContent_Illustrative_Color8)" d="M88.455 74.966c-.868.488-2.116-.18-2.31-1.229l-1.146-6.226-1.146-6.226c-.195-1.048.804-1.75 1.843-1.297L99.509 66c1.155.502 1.428 1.989.463 2.525l-11.517 6.441Z"/>
</svg>
