<svg id="tnt-Spot-ExternalLink" xmlns="http://www.w3.org/2000/svg" width="128" height="128" fill="none" viewBox="0 0 128 128">
  <path fill="var(--sapContent_Illustrative_Color20)" fill-rule="evenodd" d="M128 49.6v36c0 5.298-4.302 9.6-9.6 9.6H9.6c-5.298 0-9.6-4.302-9.6-9.6v-36C0 44.302 4.302 40 9.6 40h108.8c5.298 0 9.6 4.302 9.6 9.6Z" clip-rule="evenodd"/>
  <path fill="var(--sapContent_Illustrative_Color21)" fill-rule="evenodd" d="m32.328 90.787 53.495-9.552c.333-.06.345-.53.02-.61l-33.544-8.356a3.09 3.09 0 0 0-1.228-.056l-42.237 6.51c-.746.116-.89 1.127-.205 1.448l22.483 10.455a2.01 2.01 0 0 0 1.216.157v.004Z" clip-rule="evenodd"/>
  <path fill="var(--sapContent_Illustrative_Color13)" d="M87.666 31.6c.213-.012.427.026.628.099.202.072.396.186.571.33a2.134 2.134 0 0 1 .72 1.15l.997 4.333-64.774 3.899-.837-4.816a1.699 1.699 0 0 1 .022-.723 1.557 1.557 0 0 1 .83-1.027c.21-.103.445-.168.704-.183l61.14-3.062Z"/>
  <path fill="var(--sapContent_Illustrative_Color8)" d="m25.808 41.411 64.77-3.895L98.9 73.71c.057.243.064.483.038.704a1.56 1.56 0 0 1-.206.608 1.396 1.396 0 0 1-.41.445 1.3 1.3 0 0 1-.58.217L35.12 83.533a2.003 2.003 0 0 1-1.465-.41 2.199 2.199 0 0 1-.525-.583 2.088 2.088 0 0 1-.286-.754l-7.036-40.375Z"/>
  <path fill="var(--sapContent_Illustrative_Color20)" d="M81.01 41.82c2.297-.152 4.587 1.576 5.109 3.85l4.843 21.094c.551 2.401-.902 4.617-3.251 4.909L45.769 76.92c-2.78.349-5.445-1.558-5.894-4.22l-3.932-23.33c-.423-2.507 1.466-4.693 4.167-4.87l40.9-2.681Z"/>
  <path fill="var(--sapContent_Illustrative_Color8)" d="M73.125 49.965c.296.482.5.987.613 1.517.113.53.131 1.068.054 1.615-.084.518-.292 1-.618 1.444l-4.555 6.128c-.681.927-1.617 1.45-2.808 1.572a4.95 4.95 0 0 1-1.705-.127 5.425 5.425 0 0 1-1.648-.83l-.661-.484a2.359 2.359 0 0 1-.31-.27 43.55 43.55 0 0 0-.259-.273l.855-1.128 1.316.967c.636.466 1.336.662 2.1.586.761-.076 1.335-.395 1.822-.97l4.524-6.158c.43-.58.572-1.215.426-1.902-.145-.686-.553-1.32-1.207-1.805l-.645-.52a2.995 2.995 0 0 0-2.08-.598c-.772.06-1.32.357-1.735.899l-2.946 3.907-2.235.191 3.849-5.048c.34-.439.75-.772 1.229-.997a3.74 3.74 0 0 1 1.527-.446c1.185-.088 2.275.24 3.274.984l.632.47c.498.372.896.798 1.19 1.279v-.003Z"/>
  <path fill="var(--sapContent_Illustrative_Color8)" d="m62.165 67.413 2.24-3.024 2.247-.239-3.147 4.282c-.68.929-1.652 1.467-2.914 1.614a5.054 5.054 0 0 1-1.756-.107 4.663 4.663 0 0 1-1.682-.787l-.685-.541c-1.066-.774-1.713-1.766-1.938-2.973-.225-1.203.031-2.282.766-3.237l4.154-5.455a3.57 3.57 0 0 1 1.28-1.053 4.557 4.557 0 0 1 1.593-.436c1.227-.109 2.348.198 3.365.922l.66.527.118.087-.871 1.161-1.502-.942c-.41-.193-.896-.262-1.461-.211-.8.073-1.401.392-1.802.957l-4.19 5.42c-.435.654-.585 1.348-.446 2.08.139.733.54 1.373 1.205 1.916l.725.483a2.992 2.992 0 0 0 2.158.576c.75-.084 1.38-.426 1.884-1.025v.005Z"/>
  <path fill="var(--sapContent_Illustrative_Color14)" d="M35.12 83.528a1.966 1.966 0 0 1-.776-.061 2.068 2.068 0 0 1-.689-.35 2.199 2.199 0 0 1-.525-.582 2.063 2.063 0 0 1-.286-.753L25.807 41.41l-.837-4.816a1.666 1.666 0 0 1 .02-.704 1.63 1.63 0 0 1 .282-.597l-1.063 1.38a1.87 1.87 0 0 0-.171.279 1.68 1.68 0 0 0-.156.65c0 .118.004.236.026.358l.826 4.763 6.915 39.93a2.105 2.105 0 0 0 .8 1.32c.205.156.433.274.68.346.248.072.507.095.77.061l62.06-7.84 1.785-.86-62.624 7.848Z"/>
  <path fill="var(--sapContent_Illustrative_Color17)" d="m101.526 81.716-1.554 1.002s-.035.023-.05.031c-.016.008-.035.023-.05.031-.016.008-.035.023-.05.031-.016.008-.036.023-.051.03a10.501 10.501 0 0 1-3.228 1.296c-.382.086-.775.148-1.169.19a10.25 10.25 0 0 1-.594.05c-.197.012-.4.016-.602.02-.2.004-.404 0-.609-.015-.204-.016-.409-.023-.613-.047-.617-.062-1.23-.17-1.84-.325a13.285 13.285 0 0 1-1.801-.6 14.309 14.309 0 0 1-3.36-1.985 14.797 14.797 0 0 1-1.48-1.341 15.315 15.315 0 0 1-2.372-3.203 14.796 14.796 0 0 1-.849-1.807 14.147 14.147 0 0 1-.91-3.791 13.005 13.005 0 0 1-.046-1.896 12.221 12.221 0 0 1 .717-3.571c.204-.553.447-1.083.729-1.586a10.514 10.514 0 0 1 2.117-2.666l1.373-1.242a10.657 10.657 0 0 0-2.132 2.693 11.364 11.364 0 0 0-1.22 3.342 12.51 12.51 0 0 0-.23 1.869c-.031.63-.016 1.273.046 1.915.061.642.17 1.288.324 1.927a15.054 15.054 0 0 0 2.545 5.427c.401.542.837 1.056 1.304 1.544a15.011 15.011 0 0 0 3.143 2.491c.567.337 1.153.627 1.747.879a12.9 12.9 0 0 0 4.297.99c.208.012.409.016.613.016.204 0 .405-.008.61-.016a12.086 12.086 0 0 0 1.782-.24c.389-.081.767-.19 1.137-.313a11 11 0 0 0 1.088-.434 9.438 9.438 0 0 0 1.03-.553c.019-.011.034-.023.054-.03.019-.008.034-.024.05-.032.015-.007.034-.023.05-.03.015-.008.035-.024.05-.035"/>
  <path fill="var(--sapContent_Illustrative_Color9)" d="M100.843 60.733a15.424 15.424 0 0 1 4.555 6.14c.32.79.575 1.61.756 2.441a13.54 13.54 0 0 1 .274 3.714 12.831 12.831 0 0 1-.251 1.799 11.914 11.914 0 0 1-.509 1.722 11.03 11.03 0 0 1-1.747 3.029 9.9 9.9 0 0 1-1.204 1.242c-.435.379-.902.723-1.404 1.029a10.104 10.104 0 0 1-2.117.986 10.726 10.726 0 0 1-2.318.503 10.511 10.511 0 0 1-1.211.066c-.204 0-.409-.004-.613-.016a12.284 12.284 0 0 1-2.476-.38 13.251 13.251 0 0 1-1.82-.61 14.511 14.511 0 0 1-3.394-2.012 15.119 15.119 0 0 1-2.8-2.901 15.122 15.122 0 0 1-1.948-3.524 14.48 14.48 0 0 1-.922-3.83 13.256 13.256 0 0 1-.047-1.916 12.488 12.488 0 0 1 .73-3.64c.208-.569.462-1.11.751-1.629.29-.518.621-1.002.992-1.458a10.37 10.37 0 0 1 4.142-3.084 10.91 10.91 0 0 1 3.41-.781 11.9 11.9 0 0 1 2.402.093c.799.112 1.593.302 2.372.565.78.263 1.539.6 2.276 1.01.736.41 1.446.885 2.121 1.43v.012Z"/>
  <path fill="var(--sapContent_Illustrative_Color8)" d="M97.478 62.088c.75-.066 1.434.149 2.056.645a3.208 3.208 0 0 1 1.172 1.93l2.099 10.354c.161.79.039 1.478-.363 2.064-.403.585-.978.91-1.728.976l-8.394.734a4.132 4.132 0 0 1-1.666-.203 5.293 5.293 0 0 1-1.484-.79 5.713 5.713 0 0 1-1.136-1.298 4.967 4.967 0 0 1-.666-1.655c-.122-.604-.125-1.163-.01-1.682a4.232 4.232 0 0 1 .58-1.448 3.266 3.266 0 0 1 1.116-1.017 3.579 3.579 0 0 1 1.527-.483l3.754-.328-1.184-.944a.923.923 0 0 1-.35-.54c-.047-.23-.016-.423.093-.58a.664.664 0 0 1 .51-.299.78.78 0 0 1 .577.172l2.763 2.203c.176.175.283.356.32.543.047.23.017.422-.092.58l-1.79 2.6a.634.634 0 0 1-.48.296.886.886 0 0 1-.607-.17 1.027 1.027 0 0 1-.326-.574.735.735 0 0 1 .122-.582l.767-1.115-3.754.329a2.196 2.196 0 0 0-.961.307 2.28 2.28 0 0 0-.708.664 2.43 2.43 0 0 0-.362.89c-.074.323-.073.673.003 1.047a3.18 3.18 0 0 0 1.13 1.869c.618.474 1.282.681 1.99.62l8.395-.735c.335-.03.587-.168.758-.416.171-.247.22-.548.148-.901l-2.1-10.356a1.394 1.394 0 0 0-.502-.844 1.22 1.22 0 0 0-.897-.271l-9.813.858c-.335.03-.588.169-.758.416-.17.247-.22.548-.147.902l.48 2.37a.841.841 0 0 1-.087.61.622.622 0 0 1-.488.266.89.89 0 0 1-.606-.17 1.023 1.023 0 0 1-.327-.574l-.48-2.37c-.16-.79-.038-1.478.364-2.064.402-.585.978-.91 1.726-.977l9.813-.858.003-.001Z"/>
</svg>
