<svg id="tnt-Dot-Mission" xmlns="http://www.w3.org/2000/svg" width="45" height="45" fill="none" viewBox="0 0 45 45">
  <path fill="var(--sapContent_Illustrative_Color11)" d="m27.46 35.178.642-8.62-8.824 7.16 3.002 7.026a.936.936 0 0 0 1.604.202l2.746-3.585c.483-.631.772-1.39.83-2.182Z"/>
  <path fill="var(--sapContent_Illustrative_Color1)" d="M27.791 30.751a16.788 16.788 0 0 1-1.905 1.861c-1.477 1.217-.734 4.503-2.03 5.912l-1.229 1.338c-.164.178-.366.29-.577.34l-2.77-6.485 8.823-7.16-.312 4.194Z"/>
  <path fill="var(--sapContent_Illustrative_Color25)" d="M22.183 12.118C11.823 20.138 5.382 28.61 4.63 33.189c-.133 4.532 3.899 6.979 6.239 7.18 3.786-.424 9.368-5.618 16.255-11.262C35.89 21.923 46.21 5.7 43.656 3.016c-2.414-2.537-9.92.156-21.473 9.102Z"/>
  <path fill="var(--sapContent_Illustrative_Color24)" d="M25.034 30.754c.57-6.868-4.188-9.747-7.85-11.075-.29-.105-.469.277-.214.452 2.689 1.839 5.919 4.592 6.256 7.884.407 3.97 1.474 2.739 1.808 2.739Z"/>
  <path fill="var(--sapContent_Illustrative_Color24)" d="M43.49 2.856c.058.05.113.103.166.159 2.554 2.684-7.765 18.907-16.532 26.092-6.887 5.643-12.469 10.837-16.255 11.261-2.34-.201-6.372-2.648-6.239-7.18.549-3.34 4.128-8.756 10.05-14.556-.886 5.024-.662 9.793 3.964 12.379l9.075-6.35.198-.136a5.816 5.816 0 0 0 2.31-6.425l8.857-6.203c2.392-2.3 3.929-6.395 4.406-9.04Z"/>
  <path fill="var(--sapContent_Illustrative_Color11)" d="M33.777 4.45c5.033-2.583 8.405-2.983 9.879-1.434 1.036 1.09-.048 4.408-2.287 8.448-.099-1.133-.504-2.388-1.45-3.627-1.418-1.858-3.904-2.874-6.142-3.387Z"/>
  <path fill="var(--sapContent_Illustrative_Color1)" d="M41.197 11.823c2.5-4.404 3.542-7.667 2.457-8.807a2.32 2.32 0 0 0-.164-.157c.133 1.839-1.226 4.525-2.576 6.712.432 1.075.358 1.347.283 2.252Z"/>
  <path fill="var(--sapContent_Illustrative_Color11)" d="M6.45 28.713c2.011-.345 4.545.58 6.53 2.585 2.183 2.207 3.05 5.067 2.364 7.147-1.687 1.08-3.185 1.779-4.475 1.923-2.34-.201-6.372-2.649-6.239-7.18.203-1.236.821-2.756 1.82-4.475Z"/>
  <ellipse cx="8.061" cy="36.3" fill="var(--sapContent_Illustrative_Color1)" rx="4.046" ry="1.921" transform="rotate(49.245 8.06 36.3)"/>
  <path fill="var(--sapContent_Illustrative_Color11)" d="m3.403 18.97 2.306-1.769a6.972 6.972 0 0 1 3.95-1.435l8.309-.351c-.34 3.554-6.483 7.779-7.74 8.206l-6.534-2.579a1.202 1.202 0 0 1-.29-2.072Z"/>
  <ellipse cx="22.881" cy="28.264" fill="var(--sapContent_Illustrative_Color11)" rx="1.758" ry="6.084" transform="rotate(50.927 22.88 28.264)"/>
  <path fill="var(--sapContent_Illustrative_Color11)" d="M37.996 18.689c-1.727 2.718-4.717 3.655-6.895 2.27-2.178-1.384-2.53-4.501-.802-7.22 1.604-2.272 4.412-3.475 6.818-2.272 2.178 1.384 2.607 4.504.88 7.222Z"/>
  <ellipse cx="35.025" cy="16.793" fill="var(--sapContent_Illustrative_Color2)" rx="3.435" ry="4.251" transform="rotate(32.437 35.025 16.793)"/>
  <path fill="var(--sapContent_Illustrative_Color8)" d="M32.541 14.38c.3-.363.636-.672.99-.923l4.852 1.783a4.3 4.3 0 0 1-.043 1.27l-5.799-2.13Zm5.635 2.783a5.508 5.508 0 0 1-1.322 2.176l-5.541-2.036c.062-.775.33-1.593.812-2.353l.006-.009 6.045 2.222Z"/>
  <path fill="var(--sapContent_Illustrative_Color1)" d="M37.616 13.429c1.36 1.12 1.54 3.38.36 5.239-1.26 1.981-3.59 2.755-5.205 1.729a2.86 2.86 0 0 1-.21-.148c1.726.15 3.522-.7 4.565-2.34.898-1.415 1.028-3.086.49-4.48Z"/>
  <path fill="var(--sapContent_Illustrative_Color26)" d="M.082 43.283c4.898-2.11 14.296-7.07 11.762-9.856C8.23 29.45 2.008 40.822.082 43.283Z"/>
  <path fill="var(--sapContent_Illustrative_Color11)" d="M12.963 31.289c2.411 2.436 2.981 5.41 2.428 7.12-1.676 1.175-3.357 1.818-4.538 1.95-.594-.052-1.298-.248-2.014-.586l.289-.332c.641.232 1.203.221 1.56-.087.804-.693.273-2.627-1.186-4.32-1.459-1.692-3.293-2.503-4.097-1.81-.382.33-.462.94-.285 1.67l-.282.268a6.879 6.879 0 0 1-.223-1.983c.188-1.151.702-2.58 1.808-4.481 2.078-.611 4.388.415 6.54 2.59Z"/>
  <path fill="var(--sapContent_Illustrative_Color1)" d="M17.946 15.595c-.523 3.515-6.482 7.606-7.717 8.027L3.257 20.87a.936.936 0 0 1-.227-1.613l.376-.288c2.988 1.927 8.72 3.118 14.54-3.374Z"/>
</svg>
