<svg id="tnt-Scene-ExternalLink" xmlns="http://www.w3.org/2000/svg" width="320" height="240" fill="none" viewBox="0 0 320 240">
  <path fill="var(--sapContent_Illustrative_Color20)" fill-rule="evenodd" d="M320 83v90c0 13.246-10.754 24-24 24H24c-13.246 0-24-10.754-24-24V83c0-13.246 10.754-24 24-24h272c13.246 0 24 10.754 24 24Z" clip-rule="evenodd"/>
  <path fill="var(--sapContent_Illustrative_Color21)" fill-rule="evenodd" d="m80.822 185.969 133.735-23.88c.833-.151.863-1.325.051-1.525l-83.86-20.89a7.71 7.71 0 0 0-3.07-.14L22.086 155.808c-1.866.291-2.228 2.819-.512 3.622l56.207 26.137a5.018 5.018 0 0 0 3.04.391v.011Z" clip-rule="evenodd"/>
  <path fill="var(--sapContent_Illustrative_Color13)" d="M219.165 38.001a4.027 4.027 0 0 1 1.57.247c.504.181.99.466 1.427.828a5.331 5.331 0 0 1 1.798 2.872l2.493 10.833-161.934 9.748-2.093-12.04a4.25 4.25 0 0 1 .057-1.807 3.901 3.901 0 0 1 2.074-2.568 4.581 4.581 0 0 1 1.76-.457l152.848-7.656Z"/>
  <path fill="var(--sapContent_Illustrative_Color8)" d="m64.52 62.528 161.924-9.739 20.808 90.486a5.04 5.04 0 0 1 .095 1.759 3.88 3.88 0 0 1-.514 1.522 3.502 3.502 0 0 1-1.027 1.113 3.26 3.26 0 0 1-1.446.542l-156.559 19.62a4.992 4.992 0 0 1-3.663-1.027 5.486 5.486 0 0 1-1.313-1.455 5.19 5.19 0 0 1-.713-1.883L64.519 62.528Z"/>
  <path fill="var(--sapContent_Illustrative_Color20)" d="M202.526 63.552c5.742-.378 11.467 3.94 12.771 9.624l12.108 52.737c1.379 6.003-2.254 11.543-8.127 12.272l-104.855 13.119c-6.95.87-13.614-3.895-14.736-10.552l-9.83-58.321c-1.055-6.269 3.665-11.733 10.419-12.176l102.25-6.703Z"/>
  <path fill="var(--sapContent_Illustrative_Color8)" d="M182.811 83.916a11.98 11.98 0 0 1 1.534 3.791c.282 1.325.327 2.67.134 4.04-.21 1.293-.729 2.497-1.545 3.609l-11.388 15.32c-1.703 2.316-4.043 3.627-7.019 3.929a12.345 12.345 0 0 1-4.262-.316c-1.449-.434-2.822-1.129-4.122-2.078l-1.652-1.208a5.911 5.911 0 0 1-.774-.674c-.213-.227-.43-.458-.647-.685l2.137-2.818 3.289 2.416c1.59 1.166 3.341 1.655 5.25 1.465 1.903-.189 3.338-.987 4.556-2.422l11.309-15.396c1.077-1.452 1.431-3.038 1.066-4.755-.364-1.717-1.383-3.303-3.017-4.514l-1.614-1.297c-1.541-1.146-3.275-1.645-5.198-1.497-1.93.148-3.3.891-4.339 2.247l-7.366 9.768-5.588.478 9.624-12.62c.85-1.098 1.875-1.93 3.072-2.495a9.352 9.352 0 0 1 3.819-1.114c2.962-.22 5.687.602 8.185 2.46l1.579 1.176c1.246.93 2.24 1.996 2.977 3.197h-.004l.004-.007Z"/>
  <path fill="var(--sapContent_Illustrative_Color8)" d="m155.414 127.537 5.597-7.563 5.619-.595-7.865 10.704c-1.703 2.322-4.132 3.667-7.287 4.036a12.646 12.646 0 0 1-4.391-.269c-1.472-.347-2.876-1.001-4.204-1.968l-1.713-1.352c-2.663-1.934-4.28-4.414-4.845-7.432-.56-3.007.08-5.704 1.917-8.092l10.383-13.638c.888-1.153 1.955-2.027 3.2-2.632a11.392 11.392 0 0 1 3.984-1.09c3.066-.273 5.87.495 8.412 2.304l1.649 1.318s.096.072.295.217l-2.177 2.904-3.754-2.357c-1.025-.482-2.24-.654-3.654-.527-1.999.183-3.502.981-4.504 2.392l-10.473 13.552c-1.09 1.634-1.465 3.368-1.118 5.199.348 1.834 1.352 3.433 3.014 4.789l1.813 1.208c1.631 1.183 3.427 1.661 5.395 1.441 1.875-.21 3.447-1.066 4.71-2.563v.01l-.003.004Z"/>
  <path fill="var(--sapContent_Illustrative_Color2)" d="M73.225 49.916a4.027 4.027 0 0 1 1.503.209 4.384 4.384 0 0 1 2.321 1.845c.267.428.457.904.543 1.408.085.504.076.989-.038 1.436a3.254 3.254 0 0 1-.59 1.208 3.13 3.13 0 0 1-1.037.856c-.41.209-.885.342-1.399.37a4.029 4.029 0 0 1-1.503-.209 4.26 4.26 0 0 1-1.323-.723 4.54 4.54 0 0 1-1.008-1.122 3.884 3.884 0 0 1-.542-1.417 3.665 3.665 0 0 1 .038-1.446c.104-.447.314-.865.59-1.207a3.308 3.308 0 0 1 1.046-.856 3.242 3.242 0 0 1 1.399-.362v.01Z"/>
  <path fill="var(--sapContent_Illustrative_Color14)" d="M87.8 167.821a4.909 4.909 0 0 1-1.94-.152 5.153 5.153 0 0 1-1.722-.875 5.486 5.486 0 0 1-1.313-1.455 5.123 5.123 0 0 1-.714-1.883L64.52 62.528l-2.093-12.04a4.175 4.175 0 0 1-.066-.904c0-.295.047-.58.114-.856a4.3 4.3 0 0 1 .276-.79c.114-.247.266-.485.428-.704l-2.655 3.453a4.692 4.692 0 0 0-.428.694 4.116 4.116 0 0 0-.39 1.626c0 .295.01.59.067.894l2.064 11.908 17.288 99.825c.114.675.361 1.303.704 1.864a5.249 5.249 0 0 0 2.997 2.302c.618.18 1.265.237 1.922.152l155.15-19.602 4.462-2.149-156.558 19.62Z"/>
  <path fill="var(--sapContent_Illustrative_Color17)" d="m253.814 163.293-3.886 2.505s-.086.058-.125.078c-.039.019-.087.058-.125.077-.039.019-.087.058-.126.077-.038.02-.086.058-.125.078-.829.503-1.678.957-2.555 1.373-.878.416-1.774.764-2.7 1.083a26.732 26.732 0 0 1-5.737 1.258c-.492.058-.993.096-1.485.125-.492.029-1.003.039-1.504.049-.502.009-1.013 0-1.524-.039-.511-.039-1.022-.058-1.533-.116a31.544 31.544 0 0 1-4.599-.812 33.113 33.113 0 0 1-4.503-1.5 34.022 34.022 0 0 1-4.329-2.166 35.683 35.683 0 0 1-4.069-2.795 36.943 36.943 0 0 1-3.703-3.356 39.088 39.088 0 0 1-3.23-3.811 38.452 38.452 0 0 1-2.7-4.197 37.007 37.007 0 0 1-2.121-4.517 34.929 34.929 0 0 1-1.475-4.71 35.549 35.549 0 0 1-.801-4.768 32.59 32.59 0 0 1-.115-4.74c.077-1.566.27-3.114.578-4.623a28.71 28.71 0 0 1 1.215-4.304 27.993 27.993 0 0 1 1.822-3.965 26.05 26.05 0 0 1 5.294-6.664l3.433-3.104a25.64 25.64 0 0 0-2.932 3.133 26.743 26.743 0 0 0-2.4 3.598 28.396 28.396 0 0 0-3.047 8.357 31.299 31.299 0 0 0-.579 4.671 33.096 33.096 0 0 0 .116 4.787c.154 1.606.424 3.221.81 4.817a37.588 37.588 0 0 0 1.494 4.758 39.379 39.379 0 0 0 2.141 4.566 37.76 37.76 0 0 0 2.729 4.245 39.815 39.815 0 0 0 3.259 3.859 36.437 36.437 0 0 0 3.741 3.395 37.47 37.47 0 0 0 4.117 2.834 36.263 36.263 0 0 0 4.368 2.196 32.397 32.397 0 0 0 9.189 2.359c.521.049 1.032.087 1.552.116.521.029 1.022.039 1.533.039.511 0 1.013-.019 1.524-.039a19.134 19.134 0 0 0 1.504-.125 30.466 30.466 0 0 0 2.951-.474 25.107 25.107 0 0 0 2.844-.784 27.33 27.33 0 0 0 2.719-1.083c.887-.406 1.745-.87 2.574-1.383.049-.029.087-.058.135-.077.049-.02.087-.058.126-.078.038-.019.087-.058.125-.077.039-.019.087-.058.126-.087"/>
  <path fill="var(--sapContent_Illustrative_Color9)" d="M252.108 110.834a38.594 38.594 0 0 1 8.485 9.643 37.6 37.6 0 0 1 4.792 11.809c.328 1.558.559 3.115.665 4.672.106 1.557.126 3.095.02 4.613a31.782 31.782 0 0 1-.627 4.498 29.818 29.818 0 0 1-1.273 4.303 27.618 27.618 0 0 1-1.899 3.995 27.899 27.899 0 0 1-2.469 3.578 24.719 24.719 0 0 1-3.008 3.105 25.777 25.777 0 0 1-3.51 2.573c-.829.512-1.687.967-2.574 1.383-.887.416-1.794.774-2.719 1.083-.926.31-1.881.571-2.845.783-.964.213-1.948.368-2.95.474a26.314 26.314 0 0 1-3.028.165c-.511 0-1.022-.01-1.533-.039a44.415 44.415 0 0 1-1.553-.116 30.672 30.672 0 0 1-4.637-.832 32.984 32.984 0 0 1-4.552-1.528 35.59 35.59 0 0 1-4.367-2.195 36.317 36.317 0 0 1-4.118-2.834 37.862 37.862 0 0 1-3.741-3.395 37.59 37.59 0 0 1-3.259-3.859 39.235 39.235 0 0 1-2.729-4.246 37.703 37.703 0 0 1-2.14-4.565 36.284 36.284 0 0 1-1.495-4.758 34.852 34.852 0 0 1-.81-4.817 33.204 33.204 0 0 1-.115-4.787 31.28 31.28 0 0 1 .578-4.672 30.362 30.362 0 0 1 1.244-4.43 28.468 28.468 0 0 1 1.88-4.071 25.598 25.598 0 0 1 2.478-3.647 26.039 26.039 0 0 1 3.018-3.153 25.373 25.373 0 0 1 3.491-2.592 26.636 26.636 0 0 1 3.847-1.963 26.251 26.251 0 0 1 4.146-1.315 27.301 27.301 0 0 1 4.378-.639 29.841 29.841 0 0 1 6.007.232c1.996.281 3.982.755 5.93 1.413a34.141 34.141 0 0 1 5.689 2.524 37.362 37.362 0 0 1 5.303 3.578v.029Z"/>
  <path fill="var(--sapContent_Illustrative_Color8)" d="M243.695 114.222c1.873-.163 3.584.373 5.139 1.613 1.555 1.241 2.531 2.848 2.931 4.823l5.249 25.888c.4 1.974.096 3.694-.91 5.159-1.007 1.462-2.445 2.275-4.318 2.441l-20.985 1.835c-1.381.122-2.768-.048-4.165-.507a13.21 13.21 0 0 1-3.711-1.978 14.284 14.284 0 0 1-2.839-3.243 12.432 12.432 0 0 1-1.666-4.138c-.305-1.509-.314-2.908-.025-4.205.281-1.347.761-2.554 1.448-3.619a8.162 8.162 0 0 1 2.793-2.543 8.964 8.964 0 0 1 3.817-1.207l9.385-.821-2.961-2.359c-.478-.382-.769-.832-.876-1.352-.115-.572-.037-1.056.233-1.448.31-.45.735-.699 1.278-.748a1.952 1.952 0 0 1 1.439.43l6.908 5.506c.44.438.708.891.803 1.358.115.574.04 1.056-.233 1.45l-4.473 6.501c-.31.448-.71.698-1.203.74-.542.048-1.045-.093-1.515-.424a2.572 2.572 0 0 1-.817-1.437 1.84 1.84 0 0 1 .306-1.454l1.917-2.787-9.384.822a5.477 5.477 0 0 0-2.403.767 5.7 5.7 0 0 0-1.769 1.661c-.427.62-.727 1.36-.905 2.223-.186.809-.184 1.685.007 2.619.379 1.871 1.32 3.428 2.826 4.672 1.544 1.186 3.204 1.704 4.976 1.549l20.985-1.836c.839-.073 1.469-.421 1.895-1.039.427-.618.551-1.37.37-2.254l-5.248-25.888c-.18-.885-.597-1.589-1.257-2.112a3.047 3.047 0 0 0-2.242-.677l-24.533 2.145c-.838.074-1.468.421-1.894 1.04-.425.618-.549 1.37-.368 2.254l1.2 5.927c.115.572.042 1.081-.218 1.525-.272.394-.676.616-1.219.663a2.223 2.223 0 0 1-1.515-.424 2.556 2.556 0 0 1-.817-1.435l-1.201-5.927c-.4-1.974-.096-3.694.91-5.158 1.005-1.463 2.445-2.276 4.316-2.441l24.532-2.146.007-.004Z"/>
</svg>
