<svg id="tnt-Scene-ChartArea2" xmlns="http://www.w3.org/2000/svg" width="320" height="240" fill="none" viewBox="0 0 320 240">
  <rect width="320" height="138" y="59" fill="var(--sapContent_Illustrative_Color20)" rx="24"/>
  <path fill="var(--sapContent_Illustrative_Color21)" fill-rule="evenodd" d="m108.418 192.85 147.17-26.278c.917-.166.95-1.457.055-1.678l-92.283-22.988a8.495 8.495 0 0 0-3.379-.155l-116.2 17.909c-2.053.32-2.45 3.103-.563 3.986l61.854 28.763a5.527 5.527 0 0 0 3.346.43v.011Z" clip-rule="evenodd"/>
  <path fill="var(--sapContent_Illustrative_Color8)" d="m67.913 61.771 170.091-10.23 21.858 95.049c.15.639.17 1.269.1 1.848-.07.58-.26 1.129-.54 1.599a3.68 3.68 0 0 1-1.08 1.169 3.416 3.416 0 0 1-1.519.569l-164.454 20.61c-.7.09-1.39.02-2.039-.159-.65-.18-1.27-.5-1.809-.92a5.77 5.77 0 0 1-1.38-1.528 5.474 5.474 0 0 1-.749-1.978L67.913 61.771Z"/>
  <path fill="var(--sapContent_Illustrative_Color13)" d="M230.358 36.005a4.23 4.23 0 0 1 1.649.26c.53.19 1.039.49 1.499.87a5.596 5.596 0 0 1 1.889 3.016l2.619 11.38L67.912 61.77l-2.198-12.648a4.46 4.46 0 0 1 .06-1.898c.15-.59.42-1.13.79-1.589.369-.46.839-.84 1.388-1.109.55-.27 1.17-.44 1.85-.48l160.556-8.042ZM78.426 56.235c.54-.03 1.04-.169 1.47-.389.43-.22.799-.53 1.089-.899.29-.37.5-.8.62-1.269.12-.47.13-.979.04-1.508a4.103 4.103 0 0 0-.57-1.479 4.73 4.73 0 0 0-1.05-1.179c-.41-.33-.89-.59-1.389-.759-.5-.17-1.04-.25-1.579-.22-.54.03-1.03.16-1.47.38-.439.22-.799.53-1.098.899-.3.37-.51.8-.62 1.269-.11.47-.14.989-.04 1.518.1.53.29 1.04.57 1.489a4.71 4.71 0 0 0 2.449 1.938c.499.17 1.039.25 1.578.22"/>
  <path fill="var(--sapContent_Illustrative_Color14)" d="M92.368 172.376c-.7.09-1.389.02-2.038-.16a5.432 5.432 0 0 1-1.81-.919 5.773 5.773 0 0 1-1.379-1.529 5.376 5.376 0 0 1-.75-1.978L67.913 61.772l-2.198-12.648a4.39 4.39 0 0 1-.07-.95c0-.309.05-.609.12-.898.07-.29.17-.57.29-.83.12-.26.28-.51.45-.739l-2.789 3.627c-.17.23-.32.47-.45.729a4.33 4.33 0 0 0-.41 1.708c0 .31.01.62.07.94l2.17 12.507 18.159 104.86c.12.709.38 1.369.74 1.958a5.523 5.523 0 0 0 3.148 2.418c.649.19 1.329.25 2.018.16l162.976-20.591 4.687-2.257-164.455 20.61Z"/>
  <path fill="var(--sapContent_Illustrative_Color2)" d="M77.058 48.524c.54-.03 1.07.05 1.58.22.509.17.969.429 1.388.759.42.33.77.729 1.05 1.179.28.45.48.949.57 1.478.09.53.08 1.04-.04 1.509-.12.47-.33.899-.62 1.269-.29.37-.66.679-1.09.899-.43.22-.929.36-1.469.39-.54.03-1.069-.05-1.579-.22a4.46 4.46 0 0 1-1.389-.76c-.41-.33-.78-.73-1.06-1.179a4.08 4.08 0 0 1-.569-1.488c-.09-.54-.07-1.05.04-1.519.11-.47.33-.909.62-1.269.29-.36.66-.669 1.1-.899.439-.23.928-.36 1.468-.38v.01Z"/>
  <path fill="var(--sapContent_Illustrative_Color15)" d="M213.318 64.724c1.265 1.084 2.03 2.71 2.363 4.365l1.53 7.937a39.05 39.05 0 0 0-7.84-.098c-15.276 1.335-27.411 11.426-38.448 20.614-.139.14-.306.25-.458.376-6.728 5.601-13.08 10.855-19.794 14.414-8.424 4.448-17.028 6.477-24.673 7.145a69.167 69.167 0 0 1-13.705-.167l-.82-.098-1.182-6.129c-.403-2.086-.055-4.184 1.098-5.755 4.421-5.935 10.481-10.926 18.571-11.635 1.876-.166 3.85-.097 5.949.237 4.865.778 9.383.931 13.594.556 12.705-1.112 22.63-6.895 30.664-14.08 10.105-9.036 17.57-19.92 25.381-20.6 2.516-.223 5.074.61 7.757 2.918h.013Z"/>
  <path fill="var(--sapContent_Illustrative_Color13)" d="m223.701 110.736 5.699 29.509c.542 2.85-1.098 5.435-3.655 5.755l-101.679 12.58c-2.78.25-5.296-1.766-5.908-4.574l-1.181-6.088c7.158-9.354 19.321-19.085 36.918-20.627 4.184-.362 8.674-.265 13.483.403 5.324.75 10.439.848 15.304.417 17.334-1.515 31.539-9.55 41.019-17.389v.014Z"/>
  <path fill="var(--sapContent_Illustrative_Color14)" d="M210.065 80.822a35.967 35.967 0 0 1 7.895.18l11.426 59.257c.542 2.849-1.098 5.435-3.655 5.754l-101.679 12.58c-2.78.25-5.296-1.765-5.908-4.573.598 2.808 3.128 4.823 5.741 4.587l101.832-12.594c2.571-.319 4.211-2.905 3.655-5.754l-5.699-29.51c-9.466 7.84-23.685 15.874-41.019 17.389-4.865.431-9.98.334-15.304-.417-4.809-.681-9.299-.778-13.483-.403-17.597 1.543-29.76 11.273-36.918 20.614l-4.726-24.617c.597.069 1.209.125 1.834.18.821.07 1.404.112 2.002.153a74.51 74.51 0 0 0 10.495-.153c8.048-.709 17.097-2.849 25.979-7.547 7.061-3.74 13.664-9.23 20.322-14.776 11.356-9.452 22.893-19.071 37.196-20.322l.014-.028Z"/>
</svg>
