<svg id="tnt-Scene-ChartFlow" xmlns="http://www.w3.org/2000/svg" width="320" height="240" fill="none" viewBox="0 0 320 240">
  <rect width="320" height="138" y="59" fill="var(--sapContent_Illustrative_Color20)" rx="24"/>
  <path fill="var(--sapContent_Illustrative_Color21)" fill-rule="evenodd" d="m107.776 192.851 147.171-26.278c.917-.166.95-1.458.056-1.679l-92.285-22.988a8.512 8.512 0 0 0-3.379-.155l-116.2 17.91c-2.054.32-2.451 3.102-.563 3.986l61.854 28.763a5.527 5.527 0 0 0 3.346.43v.011Z" clip-rule="evenodd"/>
  <path fill="var(--sapContent_Illustrative_Color8)" d="m67.269 61.771 170.092-10.23 21.858 95.05c.15.639.17 1.269.1 1.848-.07.58-.26 1.129-.54 1.599-.28.469-.64.869-1.079 1.169-.44.299-.95.499-1.52.569l-164.455 20.61c-.7.09-1.39.02-2.04-.159a5.27 5.27 0 0 1-1.808-.919c-.54-.42-1.01-.93-1.38-1.529a5.451 5.451 0 0 1-.749-1.978l-18.48-106.03Z"/>
  <path fill="var(--sapContent_Illustrative_Color13)" d="M229.716 36.005a4.23 4.23 0 0 1 1.649.26c.53.19 1.039.49 1.499.87.46.379.86.828 1.179 1.338.32.51.57 1.079.71 1.678l2.619 11.38L67.269 61.77 65.07 49.123a4.46 4.46 0 0 1 .06-1.898c.15-.59.42-1.13.79-1.589.37-.46.84-.84 1.389-1.109.55-.27 1.17-.44 1.849-.48l160.558-8.042ZM77.783 56.236c.54-.03 1.04-.17 1.469-.39.43-.22.8-.53 1.09-.899.29-.37.5-.799.619-1.269.12-.47.13-.979.04-1.508a4.105 4.105 0 0 0-.57-1.479c-.28-.45-.64-.849-1.05-1.178a4.59 4.59 0 0 0-1.388-.76c-.5-.17-1.04-.25-1.58-.22s-1.029.16-1.469.38c-.44.22-.8.53-1.099.9-.3.369-.51.798-.62 1.268-.11.47-.14.989-.04 1.518.1.53.29 1.04.57 1.49a4.713 4.713 0 0 0 2.449 1.938c.5.17 1.04.249 1.579.22"/>
  <path fill="var(--sapContent_Illustrative_Color14)" d="M91.725 172.376c-.7.09-1.39.02-2.039-.16a5.433 5.433 0 0 1-1.809-.919 5.774 5.774 0 0 1-1.379-1.529 5.378 5.378 0 0 1-.75-1.978L67.27 61.77l-2.2-12.646c-.06-.32-.08-.64-.07-.95 0-.309.05-.609.12-.898.07-.29.17-.57.29-.83.12-.26.28-.51.45-.739l-2.789 3.627c-.17.23-.32.47-.45.729a4.336 4.336 0 0 0-.41 1.708c0 .31.01.62.07.94l2.17 12.508 18.16 104.86c.12.71.379 1.369.739 1.958a5.513 5.513 0 0 0 3.148 2.418c.65.19 1.33.25 2.019.16l162.977-20.591 4.687-2.257-164.456 20.61Z"/>
  <path fill="var(--sapContent_Illustrative_Color2)" d="M76.414 48.524c.54-.03 1.07.05 1.579.22.51.17.97.429 1.389.759.42.33.77.729 1.05 1.179.28.45.48.949.57 1.478.089.53.079 1.04-.04 1.509-.12.47-.33.899-.62 1.269-.29.37-.66.679-1.09.899-.43.22-.93.36-1.47.39a4.222 4.222 0 0 1-1.578-.22c-.51-.17-.98-.43-1.39-.76a4.766 4.766 0 0 1-1.059-1.179c-.28-.45-.48-.949-.57-1.488-.09-.54-.07-1.05.04-1.519.11-.47.33-.909.62-1.269.29-.36.66-.669 1.1-.899.44-.23.929-.36 1.469-.38v.01Z"/>
  <path fill="var(--sapContent_Illustrative_Color13)" d="M218.792 92.823c1.35-.114 2.628.937 2.898 2.386l2.116 11.051c.284 1.463-.554 2.769-1.86 2.911l-22.03 2.529c-1.378.127-2.656-.938-2.926-2.387l-.483-2.5-.767-3.991-.895-4.63c-.284-1.477.582-2.784 1.903-2.926l22.03-2.443h.014Z"/>
  <path fill="var(--sapContent_Illustrative_Color20)" d="m181.053 104.469 14.687-1.647.767 3.991-15.624 1.761.483-.738c.639-1.009.483-2.415-.313-3.367Z"/>
  <path fill="var(--sapContent_Illustrative_Color14)" d="M166.437 93.377c.611-.057 1.265.142 1.818.596l12.386 10.085c.156.128.284.255.412.412.81.966.966 2.372.312 3.366l-.482.739-7.074 10.851-.511.781a2.163 2.163 0 0 1-1.634.995 2.405 2.405 0 0 1-1.306-.256 3.399 3.399 0 0 1-.512-.327l-11.689-9.459-.753-.611c-1.009-.81-1.392-2.202-.98-3.31.057-.17.142-.326.241-.482l8.125-12.372c.383-.596.98-.923 1.633-.98l.014-.028Z"/>
  <path fill="var(--sapContent_Illustrative_Color20)" d="m173.823 119.426 3.65 18.962c.071.369.384.639.711.61l11.902-1.434.767 4.005-11.874 1.435s-.099 0-.142.014c-2.315.199-4.545-1.648-5.042-4.19l-3.438-17.897a2.4 2.4 0 0 0 1.307.256 2.141 2.141 0 0 0 1.634-.994l.511-.781.014.014Z"/>
  <path fill="var(--sapContent_Illustrative_Color13)" d="M136.908 101.87c1.392-.128 2.713.952 2.997 2.429l.895 4.687.781 4.048.483 2.528c.298 1.506-.582 2.827-1.96 2.983l-24.657 2.827c-1.435.128-2.756-.966-3.04-2.443l-2.187-11.349c-.284-1.506.61-2.841 2.002-2.983l10.653-1.179 3.75-.412 10.269-1.136h.014Z"/>
  <path fill="var(--sapContent_Illustrative_Color20)" d="m123.485 86.644 3.153 16.363-3.749.412-3.154-16.377 3.75-.398Zm32.953 20.581c-.411 1.108-.028 2.5.981 3.31l.752.61-16.575 1.875-.782-4.048 15.639-1.747h-.015Z"/>
  <path fill="var(--sapContent_Illustrative_Color15)" d="M225.085 126.33c1.363-.114 2.613.923 2.883 2.357l2.131 11.051c.284 1.463-.554 2.77-1.875 2.94l-33.876 4.148c-1.392.127-2.656-.924-2.94-2.372l-.554-2.898-.767-4.005-.81-4.247c-.284-1.478.568-2.798 1.904-2.955l33.904-4.034v.015Z"/>
  <path fill="var(--sapContent_Illustrative_Color9)" d="M139.536 67.455c1.392-.128 2.713.966 2.997 2.443l2.258 11.732c.284 1.491-.596 2.798-1.96 2.954l-19.345 2.046-3.75.397-12.315 1.307c-1.42.128-2.755-.966-3.039-2.443l-2.273-11.86c-.284-1.506.611-2.827 2.003-2.969l35.424-3.622v.015Z"/>
</svg>
