<svg id="tnt-Dot-Unlock" xmlns="http://www.w3.org/2000/svg" width="45" height="45" fill="none" viewBox="0 0 45 45">
  <path fill="var(--sapContent_Illustrative_Color28)" d="m37.025 36.678 3.593-.183v2.31l-3.593.083v-2.21Z"/>
  <path fill="var(--sapContent_Illustrative_Color29)" d="m37.025 36.687-1.603.082.01 1.596 1.595.52v-2.198h-.002Z"/>
  <path fill="var(--sapContent_Illustrative_Color28)" d="m3.988 35.437 2.961-.034.482 2.283-3.443.007v-2.256Z"/>
  <path fill="var(--sapContent_Illustrative_Color30)" d="M2.458 34.227V36.4l1.532 1.292V35.46l-1.532-1.233Z"/>
  <path fill="var(--sapContent_Illustrative_Color28)" d="m8.777 37.945 4.094-.209v2.368l-4.094.094v-2.255.002Z"/>
  <path fill="var(--sapContent_Illustrative_Color30)" d="m8.776 37.939-1.603-1.012.01 2.173 1.595 1.096v-2.26l-.002.003Z"/>
  <path fill="var(--sapContent_Illustrative_Color28)" d="m8.13 6.871 35.028 1.686v28.247L8.131 38.07V6.871Z"/>
  <path fill="var(--sapContent_Illustrative_Color30)" d="M10.924 10.287c0-.483.41-.867.9-.844l27.721 1.33a.849.849 0 0 1 .817.842v22.051a.851.851 0 0 1-.827.843l-27.721.997a.854.854 0 0 1-.892-.843V10.287h.002Z"/>
  <path fill="var(--sapContent_Illustrative_Color14)" d="m15.652 6.454 1.29-.637v33.939l-1.29-.424V6.454Z"/>
  <path fill="var(--sapContent_Illustrative_Color13)" d="m16.941 5.817 23.424 4.996V34.48L16.94 39.755V5.817Z"/>
  <path fill="var(--sapContent_Illustrative_Color14)" d="m18.53 7.988 20.496 4.372v20.71l-20.497 4.616V7.988Z"/>
  <path fill="var(--sapContent_Illustrative_Color8)" d="M33.91 22.469c-.063 3.55-1.483 6.406-3.17 6.376-1.687-.03-3.004-2.93-2.94-6.482.062-3.55 1.483-6.406 3.17-6.376 1.687.03 3.004 2.93 2.94 6.482Z"/>
  <path fill="var(--sapContent_Illustrative_Color22)" d="M26.612 22.302c-.116 4.102 2.026 7.21 4.493 6.954 2.188-.227 3.851-3.086 3.928-6.391.076-3.293-1.44-6.324-3.59-6.836-2.422-.576-4.713 2.194-4.831 6.273Z"/>
  <path fill="var(--sapContent_Illustrative_Color13)" d="M27.452 22.242c-.114 4.05 1.979 7.123 4.386 6.872 2.14-.223 3.769-3.05 3.844-6.322.075-3.259-1.41-6.256-3.516-6.758-2.365-.563-4.603 2.18-4.716 6.208h.002Z"/>
  <path fill="var(--sapContent_Illustrative_Color20)" d="M29.085 22.353c-.071 2.595 1.24 4.641 2.808 4.568 1.45-.068 2.592-1.95 2.644-4.204.053-2.245-.991-4.258-2.424-4.517-1.55-.28-2.96 1.566-3.028 4.153Z"/>
  <path fill="var(--sapContent_Illustrative_Color14)" d="M29.983 23.255c-.04 1.522.722 2.742 1.659 2.721.894-.02 1.618-1.17 1.652-2.57.035-1.395-.63-2.603-1.517-2.704-.93-.105-1.753 1.033-1.794 2.553Z"/>
  <path fill="var(--sapContent_Illustrative_Color20)" d="M30.305 22.432c-.039 1.51.709 2.736 1.633 2.734.881 0 1.595-1.13 1.627-2.517.032-1.387-.621-2.597-1.496-2.715-.917-.124-1.725.991-1.766 2.498h.002Z"/>
  <path fill="var(--sapContent_Illustrative_Color14)" d="m32.031 18.311-.808 1.11a.648.648 0 0 0-.1.23l-.304 1.26 1.062-.728.15-1.872Z"/>
  <path fill="var(--sapContent_Illustrative_Color8)" d="M32.059 20.369c-.87-.108-1.634.9-1.745 2.29 0-.075-.011-.149-.009-.227.039-1.507.849-2.622 1.766-2.498.875.118 1.53 1.33 1.496 2.715 0 .072-.013.14-.017.209-.035-1.292-.658-2.386-1.49-2.49h-.002Z"/>
  <path fill="var(--sapContent_Illustrative_Color14)" d="M32.17 16.035a2.777 2.777 0 0 0-.433-.065l-.038 1.547a1.99 1.99 0 0 1 .431.032c.084.017.164.042.245.067l.04-1.505c-.082-.027-.162-.06-.246-.078v.002Zm1.99 3.286.56-.997a6.52 6.52 0 0 0-.445-.733l-.582 1.01c.17.217.326.455.466.72Zm-1.047-2.869-.344 1.333c.212.116.412.27.6.45l.332-1.315a3.68 3.68 0 0 0-.588-.468Zm1.566 4.284.716-.611a8.614 8.614 0 0 0-.275-.898l-.729.598c.114.285.21.59.288.909v.002Zm.209 1.591.79-.179a9.985 9.985 0 0 0-.086-.978l-.795.158c.05.323.08.658.09 1.002v-.003Zm-6.114-1.397-1.124-.41a9.865 9.865 0 0 0-.165 1.19l1.136.381c.022-.402.073-.79.153-1.16v-.001Zm.57-1.623-.944-.972c-.159.305-.3.639-.423.988l.962.962a5.89 5.89 0 0 1 .404-.978Zm1.265-1.453c.217-.135.445-.227.677-.284l-.303-1.54a2.87 2.87 0 0 0-.688.26l.314 1.564Zm-1.996 4.937-1.152.234c.02.413.064.812.129 1.202l1.143-.266a7.89 7.89 0 0 1-.12-1.17Zm1.031-3.978a3.88 3.88 0 0 1 .583-.67l-.647-1.358a4.835 4.835 0 0 0-.608.65l.67 1.376.002.002Zm2.235 8.763c-.1.006-.2.004-.296-.004l-.04 1.55c.1 0 .199.004.3-.007.13-.013.257-.038.384-.072l.039-1.532a1.955 1.955 0 0 1-.385.065h-.002Zm-2.327-1.435-.74 1.288c.183.263.379.5.587.708l.722-1.29a3.907 3.907 0 0 1-.57-.706Zm.945 1.016-.395 1.534c.221.135.45.236.683.31l.383-1.511a2.339 2.339 0 0 1-.67-.333Zm-1.61-2.543-1.01.837c.113.363.244.707.394 1.027l.995-.856a6.012 6.012 0 0 1-.378-1.005v-.003Zm5.442.806.698.702c.114-.28.21-.576.297-.881l-.686-.71c-.084.313-.189.61-.31.889Zm.438-1.478.785.268c.051-.316.088-.639.11-.972l-.783-.289a7.694 7.694 0 0 1-.112.995v-.002Zm-.681 1.969a4.372 4.372 0 0 1-.48.698l.527 1.085c.168-.213.327-.444.47-.695l-.515-1.09-.002.002Zm-.816 1.041a2.632 2.632 0 0 1-.613.411l.277 1.39c.21-.119.413-.264.604-.43l-.268-1.37Z"/>
  <path fill="var(--sapContent_Illustrative_Color8)" d="m32.38 19.412.06.36c.053.33-.101.637-.31.61l-.14-.017c-.212-.026-.356-.38-.283-.696l.08-.346c.105-.453.513-.387.592.089Z"/>
  <path fill="var(--sapContent_Illustrative_Color22)" d="M22.314 16.785H20.81V28.11h1.504V16.785Z"/>
  <path fill="var(--sapContent_Illustrative_Color13)" d="M22.862 17.386h-1.505V28.71h1.505V17.386Z"/>
  <path fill="var(--sapContent_Illustrative_Color8)" d="M22.528 18.012h-.214v10.072h.214V18.012Z"/>
  <path fill="var(--sapContent_Illustrative_Color30)" d="m1.9 10.982 6.231-4.11v31.197L1.9 35.013V10.982Z"/>
</svg>
