<svg id="tnt-Scene-Mission" xmlns="http://www.w3.org/2000/svg" width="320" height="240" fill="none" viewBox="0 0 320 240">
  <g clip-path="url(#a)">
    <path fill="var(--sapContent_Illustrative_Color20)" fill-rule="evenodd" d="M319.582 83.195v90c0 13.246-10.754 24-24 24h-272c-13.246 0-24-10.754-24-24v-90c0-13.246 10.754-24 24-24h272c13.246 0 24 10.754 24 24Z" clip-rule="evenodd"/>
    <path fill="var(--sapContent_Illustrative_Color11)" d="m185.551 157.877 2.397-32.237-32.998 26.773 11.226 26.279c1.052 2.464 4.368 2.88 5.997.754l10.269-13.409a15.287 15.287 0 0 0 3.109-8.16Z"/>
    <path fill="var(--sapContent_Illustrative_Color1)" d="M186.781 141.323c-2.364 2.714-4.977 5.193-7.124 6.96-5.526 4.548-2.746 16.84-7.589 22.108l-4.599 5.003a4.272 4.272 0 0 1-2.159 1.275l-10.361-24.256 32.999-26.773-1.167 15.683Z"/>
    <path fill="var(--sapContent_Illustrative_Color25)" d="M165.808 71.64c-38.739 29.996-62.832 61.681-65.642 78.802-.497 16.945 14.581 26.097 23.331 26.85 14.16-1.585 35.034-21.01 60.789-42.115 32.787-26.869 71.379-87.538 61.826-97.577-9.027-9.486-37.099.585-80.304 34.04Z"/>
    <path fill="var(--sapContent_Illustrative_Color24)" d="M176.471 141.333c2.137-25.682-15.659-36.449-29.356-41.416-1.087-.394-1.752 1.037-.798 1.689 10.053 6.878 22.133 17.174 23.395 29.487 1.521 14.846 5.511 10.24 6.759 10.24Z"/>
    <path fill="var(--sapContent_Illustrative_Color24)" d="M245.492 37.008c.214.188.421.385.618.592 9.553 10.038-29.039 70.708-61.826 97.576-25.755 21.106-46.629 40.531-60.789 42.116-8.749-.754-23.828-9.905-23.331-26.851 2.051-12.494 15.439-32.746 37.581-54.438-3.309 18.79-2.471 36.623 14.828 46.294l33.936-23.749.74-.504a21.753 21.753 0 0 0 8.643-24.031l33.121-23.195c8.943-8.6 14.691-23.916 16.479-33.81Z"/>
    <path fill="var(--sapContent_Illustrative_Color11)" d="M209.17 42.966c18.82-9.66 31.431-11.157 36.942-5.366 3.877 4.075-.177 16.487-8.553 31.595-.368-4.236-1.884-8.932-5.42-13.565-5.304-6.95-14.603-10.748-22.969-12.664Z"/>
    <path fill="var(--sapContent_Illustrative_Color1)" d="M236.922 70.535c9.351-16.47 13.247-28.67 9.19-32.934a8.74 8.74 0 0 0-.616-.586c.498 6.875-4.584 16.92-9.633 25.1 1.614 4.018 1.341 5.036 1.059 8.42Z"/>
    <path fill="var(--sapContent_Illustrative_Color11)" d="M106.969 133.707c7.524-1.292 17.001 2.167 24.42 9.666 8.166 8.254 11.41 18.949 8.843 26.726-6.309 4.042-11.912 6.653-16.736 7.193-8.749-.754-23.827-9.905-23.33-26.85.759-4.624 3.071-10.308 6.803-16.735Z"/>
    <ellipse cx="113.001" cy="162.073" fill="var(--sapContent_Illustrative_Color1)" rx="15.131" ry="7.185" transform="rotate(49.245 113.001 162.073)"/>
    <path fill="var(--sapContent_Illustrative_Color11)" d="m95.58 97.266 8.623-6.617a26.072 26.072 0 0 1 14.772-5.365l31.074-1.315c-1.27 13.29-24.245 29.091-28.944 30.69l-24.438-9.644c-3.25-1.283-3.859-5.621-1.087-7.749Z"/>
    <ellipse cx="168.416" cy="132.024" fill="var(--sapContent_Illustrative_Color11)" rx="6.574" ry="22.754" transform="rotate(50.927 168.416 132.024)"/>
    <path fill="var(--sapContent_Illustrative_Color11)" d="M224.948 96.215c-6.46 10.164-17.643 13.669-25.788 8.493-8.146-5.177-9.46-16.836-3-27 6-8.5 16.5-13 25.5-8.5 8.145 5.176 9.748 16.843 3.288 27.007Z"/>
    <ellipse cx="213.834" cy="89.123" fill="var(--sapContent_Illustrative_Color2)" rx="12.845" ry="15.897" transform="rotate(32.437 213.834 89.123)"/>
    <path fill="var(--sapContent_Illustrative_Color8)" d="M204.547 80.097a19.327 19.327 0 0 1 3.704-3.45l18.144 6.667c.181 1.512.13 3.118-.161 4.752l-21.687-7.969Zm21.073 10.411a20.417 20.417 0 0 1-2.212 4.7 20.605 20.605 0 0 1-2.732 3.438l-20.725-7.615c.233-2.897 1.235-5.958 3.04-8.798l.021-.033 22.608 8.308Z"/>
    <path fill="var(--sapContent_Illustrative_Color1)" d="M223.527 76.543c5.084 4.19 5.759 12.643 1.342 19.593-4.709 7.409-13.424 10.305-19.464 6.466a10.517 10.517 0 0 1-.786-.552c6.457.561 13.172-2.618 17.072-8.755 3.361-5.288 3.845-11.537 1.836-16.752Z"/>
    <path fill="var(--sapContent_Illustrative_Color26)" d="M83.16 188.195c18.318-7.895 53.462-26.44 43.988-36.862-13.521-14.873-36.785 27.655-43.988 36.862Z"/>
    <path fill="var(--sapContent_Illustrative_Color11)" d="M131.332 143.331c9.016 9.114 11.147 20.232 9.079 26.629-6.268 4.395-12.556 6.796-16.971 7.291-2.222-.192-4.853-.925-7.534-2.19l1.082-1.243c2.399.867 4.498.827 5.835-.325 3.006-2.591 1.021-9.823-4.435-16.153-5.455-6.33-12.315-9.362-15.321-6.771-1.429 1.232-1.73 3.513-1.066 6.249l-1.055 1c-.607-2.278-.915-4.752-.836-7.418.706-4.304 2.626-9.649 6.762-16.757 7.772-2.286 16.41 1.551 24.46 9.688Z"/>
    <path fill="var(--sapContent_Illustrative_Color1)" d="M149.966 84.643c-1.956 13.144-24.24 28.444-28.86 30.016L95.032 104.37c-2.53-.999-3.004-4.377-.846-6.033l1.404-1.078c11.175 7.205 32.613 11.66 54.376-12.616Z"/>
    <path fill="var(--sapContent_Illustrative_Color2)" d="M74.101 157.121c0-.563-1.633-1.013-3.815-1.115-.125-2.18-.605-3.8-1.168-3.799-.563.001-1.03 1.634-1.15 3.825-2.188.149-3.815.638-3.808 1.202.008.564 1.633 1.014 3.815 1.115.131 2.18.605 3.8 1.167 3.799.561-.001 1.032-1.634 1.151-3.825 2.189-.149 3.814-.638 3.808-1.202Zm185 3c0-.563-1.633-1.013-3.815-1.115-.125-2.18-.605-3.8-1.168-3.799-.563.001-1.03 1.634-1.15 3.825-2.188.149-3.815.638-3.808 1.202.008.564 1.633 1.014 3.815 1.115.131 2.18.605 3.8 1.167 3.799.561-.001 1.032-1.634 1.151-3.825 2.189-.149 3.814-.638 3.808-1.202Zm24.059-60.96c0-.452-1.314-.815-3.07-.897-.101-1.754-.487-3.058-.94-3.057-.453.001-.829 1.315-.926 3.078-1.761.12-3.07.514-3.064.968.006.454 1.314.816 3.07.897.106 1.754.487 3.058.939 3.057.452-.001.831-1.315.927-3.078 1.761-.12 3.069-.514 3.064-.968Z"/>
    <circle cx="54.265" cy="144.312" r="1.105" fill="var(--sapContent_Illustrative_Color2)"/>
    <path fill="var(--sapContent_Illustrative_Color2)" d="M50.624 91.85c0-.875-2.54-1.575-5.935-1.734-.194-3.39-.941-5.91-1.816-5.909-.876.002-1.603 2.542-1.79 5.95-3.404.232-5.934.993-5.923 1.87.012.877 2.54 1.578 5.935 1.735.204 3.39.941 5.91 1.815 5.909.873-.002 1.604-2.542 1.79-5.95 3.405-.233 5.933-.993 5.924-1.87Z"/>
    <circle cx="231.265" cy="169.312" r="1.105" fill="var(--sapContent_Illustrative_Color2)"/>
  </g>
  <defs>
    <clipPath id="a">
      <path fill="var(--sapContent_Illustrative_Color8)" d="M0 0h320v240H0z"/>
    </clipPath>
  </defs>
</svg>
