<svg id="tnt-Scene-Settings" xmlns="http://www.w3.org/2000/svg" width="320" height="240" fill="none" viewBox="0 0 320 240">
  <path fill="var(--sapContent_Illustrative_Color20)" fill-rule="evenodd" d="M320 83v90c0 13.246-10.754 24-24 24H24c-13.246 0-24-10.754-24-24V83c0-13.246 10.754-24 24-24h272c13.246 0 24 10.754 24 24Z" clip-rule="evenodd"/>
  <path fill="var(--sapContent_Illustrative_Color8)" d="M122.65 67.235s.093.06.136.094a1.31 1.31 0 0 1-.213-.17c.026.025.043.05.077.067v.009Zm.755.502c-.076-.042-.144-.085-.22-.128.068.043.144.086.22.128Zm.646.323s.026 0 .034.018a.12.12 0 0 1-.051-.017h.017Zm.969.333c-.051-.017-.085-.025-.136-.042.042.017.093.025.136.042Z"/>
  <path fill="var(--sapContent_Illustrative_Color21)" d="M174.598 160.915h-.092l-.062-.021-7.074-2.199-.113-3.987-13.841-2.168-5.628 2.775-7.905-.227-7.464-3.236-12.98 1.356 2.112 3.73-5.526 1.84-11.913-.987-6.275 4.635 9.781 3.175-.738 3.381-10.632 2.445 5.7 6.536c.821.103 2 .113 3.333.072 1.332-.031 2.839-.113 4.306-.185 1.466-.072 2.901-.134 4.121-.134 1.22 0 2.235.062 2.83.237.43.133.861.328 1.343.565.472.236.943.513 1.456.791.512.277 1.056.545 1.62.781a8.119 8.119 0 0 0 1.804.534c.113.257 0 .74-.215 1.316-.216.585-.533 1.284-.831 1.983-.307.709-.574 1.397-.697 1.942-.113.555-.082.976.256 1.11l17.655 3.905 7.915-4.984 9.463.339c.708.123 1.661.534 2.738 1.089 1.097.555 2.286 1.244 3.465 1.932 1.189.689 2.348 1.377 3.343 1.881.994.513 1.814.852 2.276.863l16.076-2.559-5.034-6.248c.276-.113.594-.277.943-.472.348-.196.728-.411 1.117-.638.38-.226.81-.452 1.22-.667.421-.206.851-.412 1.261-.566.175-.072.349-.123.523-.174.164-.052.328-.093.503-.134.174-.031.328-.062.492-.072h.482c.471.031 1.527.144 2.829.298 1.313.154 2.912.35 4.481.524 1.568.175 3.106.35 4.285.463 1.19.102 2.01.154 2.174.092l2.419-6.484-12.815-3.401-2.123-3.32v-.03c0-.011.031-.021.021-.031 0-.01 0-.031.02-.031 0 0 0-.021.031-.031.031-.02.072-.051.113-.072.041-.02.082-.061.154-.072.051-.02.102-.051.184-.072.062-.02.134-.051.216-.082.215-.072.451-.154.738-.226l.892-.247a49.77 49.77 0 0 1 1.015-.246c.359-.082.707-.165 1.056-.247.359-.082.707-.164 1.025-.236.328-.072.646-.154.943-.226.298-.072.574-.144.8-.206a6.96 6.96 0 0 0 .605-.185l.072-.02.071-.021.062-.02.061-.021s.052-.031.093-.041c.031 0 .041-.031.082-.041.031-.01.041-.031.082-.041.031 0 .031-.041.061-.041.021-.021.031-.031.041-.062v-.062s-.02-.051-.041-.072c-.02-.03-.041-.051-.102-.082l-9.166-5.21-11.534.226.041.021Zm-4.296 7.101c1.025 1.14 1.487 2.312 1.384 3.442-.102 1.151-.789 2.251-2.05 3.237-.226.195-.492.38-.769.555-.277.175-.585.349-.913.514-.328.164-.687.329-1.045.483-.359.154-.749.308-1.159.452a24.32 24.32 0 0 1-2.532.729c-.923.216-1.918.401-2.984.566a45.344 45.344 0 0 1-3.424.37 64.077 64.077 0 0 1-17.101-1.151c-4.019-.843-7.536-2.004-10.253-3.361-2.676-1.325-4.552-2.836-5.424-4.367-.84-1.5-.707-3.031.616-4.46.133-.154.287-.308.451-.452.164-.144.359-.298.533-.431.174-.134.379-.268.574-.411.195-.134.42-.268.636-.391.297-.164.594-.318.912-.473a19.1 19.1 0 0 1 .995-.421c.358-.134.707-.267 1.076-.39.369-.124.749-.237 1.148-.35 1.764-.483 3.743-.853 5.865-1.089a56.681 56.681 0 0 1 6.725-.329c2.338.031 4.768.185 7.188.483 2.429.298 4.88.74 7.279 1.346 3.096.771 5.639 1.686 7.679 2.672 2.071 1.007 3.599 2.107 4.593 3.227Z"/>
  <path fill="var(--sapContent_Illustrative_Color21)" d="M86.037 158.315c.543.298 1.128.668 1.692 1.038.564.37 1.117.74 1.61 1.007.491.277.932.452 1.23.452l11.37-1.418-1.22-3.412c.225-.062.481-.154.779-.267.297-.103.615-.226.963-.349.339-.124.687-.257 1.046-.37a16.496 16.496 0 0 1 1.436-.422c.133-.031.266-.051.379-.072.123-.02.236-.041.359-.041h.318c.307 0 .963.072 1.794.154.83.083 1.845.185 2.809.288.974.103 1.938.195 2.686.247.738.061 1.271.082 1.415.051l4.06-3.668-7.423-1.943-.215-1.942v-.02l.031-.021.02-.02s0-.021.031-.021.061-.031.102-.041c.041-.01.082-.031.144-.041.051-.01.102-.031.164-.041.051 0 .103-.031.185-.052.164-.041.379-.092.594-.133l.708-.144c.246-.051.512-.093.789-.144.267-.051.543-.103.81-.144.267-.041.543-.103.8-.144.256-.041.502-.092.728-.133.235-.041.43-.082.635-.124.205-.041.359-.071.492-.113l.113-.02h.051s.031-.021.041-.021c.031 0 .052-.02.082-.02.031 0 .041-.021.072-.021.021 0 .041-.02.072-.031.021 0 .031-.02.062-.02.02 0 .03-.021.051-.031.02-.01.031-.021.031-.031 0-.01.02-.031 0-.041l-.041-.051-4.358-3.134-8.14.164h-.021l-4.152-1.346 1.353-2.487-9.073-1.346-4.942 1.757-5.536-.134-4.296-2.034-9.689.884.42 2.342-4.428 1.151-8.151-.585-5.598 2.856 6.028 1.901-1.384 2.015L48 149.488l2.348 3.761c.533.061 1.333.061 2.245.031.913-.031 1.958-.072 2.973-.124 1.005-.041 2-.082 2.82-.092.84 0 1.497.031 1.855.123.267.072.503.185.76.319.256.133.502.287.778.441.277.155.564.309.882.442.318.134.677.237 1.066.298 0 .144-.194.411-.492.74-.307.329-.687.72-1.066 1.11-.38.391-.759.771-.964 1.079-.215.308-.297.534-.112.617l10.631 2.075 6.644-2.723 6.193.175c.44.072.943.298 1.486.586v-.031h-.01Zm-9.966-5.611c-2.48-.462-4.541-1.13-6.018-1.911-1.456-.761-2.317-1.644-2.491-2.538-.174-.884.338-1.788 1.66-2.652.144-.092.298-.185.452-.277.154-.093.318-.175.482-.257.164-.082.348-.164.523-.247.184-.082.379-.154.564-.236.246-.103.502-.195.779-.288.276-.092.553-.174.83-.257.287-.082.564-.164.872-.236.307-.072.594-.144.912-.216a35.397 35.397 0 0 1 4.44-.678 48.783 48.783 0 0 1 9.698.072c1.61.175 3.179.442 4.645.802 1.886.462 3.352 1.007 4.429 1.603 1.087.596 1.773 1.243 2.05 1.911.287.678.195 1.367-.256 2.024-.472.668-1.322 1.316-2.502 1.881h.052a6.496 6.496 0 0 1-.718.318c-.256.103-.523.196-.79.298a101.5 101.5 0 0 1-.87.278c-.308.092-.616.185-.944.267-.615.154-1.261.298-1.958.421-.687.124-1.415.237-2.194.329a41.16 41.16 0 0 1-2.43.216c-.851.051-1.733.082-2.635.092-3.148.021-6.06-.236-8.571-.709h-.01v-.01Zm90.182-15.999-6.254.637-4.47-.73-1.148-1.952-8.561-.442-2.399 1.654-4.655.257-5.485-1.274-7.218 1.305 2.625 1.757-2.574 1.172-7.422.102-1.897 2.559 6.92 1.017.81 1.603-5.177 1.645 5.598 2.61c.502 0 1.158-.052 1.886-.134.728-.082 1.528-.195 2.317-.298.79-.103 1.569-.205 2.235-.267.677-.062 1.251-.082 1.641-.041.287.031.584.103.922.174.339.083.698.175 1.056.268.359.092.749.174 1.128.257.369.072.769.123 1.138.143.144.103.226.319.287.576.062.257.123.575.164.873.052.309.123.607.216.843.092.236.235.411.471.442l10.355.709 2.81-2.405 5.003-.318c.4.02.984.133 1.671.308s1.466.401 2.225.617c.758.215 1.507.431 2.122.596.605.154 1.097.256 1.333.236l7.525-1.788-3.824-2.322c.103-.062.236-.144.369-.237.133-.092.287-.205.441-.318.154-.113.318-.226.482-.339.164-.113.338-.216.523-.298.082-.042.143-.072.225-.103.072-.031.154-.062.226-.082l.236-.052c.071-.01.153-.02.235-.02.246 0 .81-.021 1.508 0h4.634c.625 0 1.045-.031 1.117-.062l.062-2.877-7.331-.905-1.825-1.397v-.041l.041-.041c0-.021.051-.031.062-.041 0-.021.041-.031.082-.052.041-.02.072-.031.113-.051.102-.052.225-.093.348-.144.123-.051.277-.103.42-.154.154-.052.308-.103.482-.154l.503-.154c.154-.052.328-.103.492-.155.154-.051.307-.102.451-.143.143-.052.267-.093.379-.134.113-.041.205-.082.287-.113h.093l.02-.021c.021 0 .031-.02.041-.02.01 0 0 0 .031-.021.02 0 .02-.02.031-.02 0 0 0-.021.02-.021 0 0 .031-.02 0-.031v-.03c0-.011-.041-.031-.041-.031l-.072-.031-6.069-2.025v-.051l.01-.02Zm-5.29 5.641c.215.524.113 1.038-.318 1.531a3.451 3.451 0 0 1-.277.278 2.395 2.395 0 0 1-.348.267c-.134.082-.287.174-.431.257a8.041 8.041 0 0 1-.513.246c-.338.154-.728.298-1.158.442a15.9 15.9 0 0 1-1.436.391c-.522.123-1.097.226-1.722.318-.625.093-1.292.185-1.999.247a46.586 46.586 0 0 1-7.464.082c-2.42-.164-4.685-.503-6.592-.976-1.887-.463-3.425-1.048-4.399-1.696-.974-.647-1.394-1.356-1.128-2.086.031-.082.062-.154.113-.236a1.13 1.13 0 0 1 .154-.226l.195-.226c.072-.072.154-.144.236-.216.102-.092.235-.175.358-.267.124-.093.277-.175.431-.247a4.33 4.33 0 0 1 .482-.236c.174-.072.359-.154.543-.226.851-.319 1.866-.586 3.004-.802a31.695 31.695 0 0 1 3.732-.472 46.45 46.45 0 0 1 8.684.185c1.938.226 3.589.524 4.973.894 1.404.369 2.501.801 3.321 1.274.831.472 1.354.976 1.569 1.49h-.01v.01Z"/>
  <path fill="var(--sapContent_Illustrative_Color14)" d="m214.173 156.65-8.417 5.436h-.287a6.62 6.62 0 0 1-.687.031c-.257 0-.554 0-.862-.02-.307-.021-.645-.031-.984-.052l-1.056-.061-1.076-.062c-.349-.021-.708-.031-1.046-.041h-.964c-.297 0-.584.02-.82.041-.092 0-.185.021-.256.031-.072 0-.164.031-.226.041-.072 0-.143.031-.205.051-.061.021-.123.041-.164.062l8.264-5.467s.112-.051.174-.062c.061 0 .133-.041.205-.051.072 0 .154-.031.225-.041.083 0 .175-.021.257-.031.246-.02.533-.041.841-.041h.974c.338 0 .697.031 1.066.051.369.021.728.042 1.097.072l1.076.062c.349.021.677.041.995.051.307 0 .615.021.871.021.257 0 .503 0 .697-.031h.308v.01Z"/>
  <path fill="var(--sapContent_Illustrative_Color14)" d="m214.173 156.65-8.417 5.436h-.287a6.62 6.62 0 0 1-.687.031c-.257 0-.554 0-.862-.02-.307-.021-.645-.031-.984-.052l-1.056-.061-1.076-.062c-.349-.021-.708-.031-1.046-.041h-.964c-.297 0-.584.02-.82.041-.092 0-.185.021-.256.031-.072 0-.164.031-.226.041-.072 0-.143.031-.205.051-.061.021-.123.041-.164.062l8.264-5.467s.112-.051.174-.062c.061 0 .133-.041.205-.051.072 0 .154-.031.225-.041.083 0 .175-.021.257-.031.246-.02.533-.041.841-.041h.974c.338 0 .697.031 1.066.051.369.021.728.042 1.097.072l1.076.062c.349.021.677.041.995.051.307 0 .615.021.871.021.257 0 .503 0 .697-.031h.308v.01Zm-23.509 28.403c-.174.021-.677-.339-1.343-.914a77.9 77.9 0 0 1-2.379-2.148c-.861-.802-1.732-1.634-2.46-2.322-.728-.689-1.313-1.213-1.61-1.429a1.085 1.085 0 0 0-.328-.164 2.562 2.562 0 0 0-.4-.093c-.143-.02-.297-.02-.482-.02-.184 0-.338 0-.523.031-.44.051-.922.143-1.414.246-.493.113-.995.247-1.477.391-.471.144-.943.267-1.353.39-.41.124-.779.206-1.077.247l7.936-5.179c.287-.041.666-.134 1.097-.247.42-.123.892-.246 1.384-.39a26.932 26.932 0 0 1 1.507-.391c.502-.113.984-.216 1.446-.257.184-.02.359-.031.533-.031a2.478 2.478 0 0 1 .882.113c.123.042.235.103.328.175.287.216.892.761 1.64 1.47.748.698 1.64 1.551 2.512 2.373a58.978 58.978 0 0 0 2.43 2.199"/>
  <path fill="var(--sapContent_Illustrative_Color14)" d="m198.876 180.028-8.212 5.015c-.174.02-.677-.339-1.343-.915a76.6 76.6 0 0 1-2.379-2.148c-.861-.801-1.732-1.634-2.46-2.322-.728-.688-1.313-1.213-1.61-1.428a1.087 1.087 0 0 0-.328-.165 2.453 2.453 0 0 0-.4-.092c-.143-.021-.297-.021-.482-.021-.184 0-.338 0-.523.031-.44.051-.922.144-1.414.247-.493.113-.995.246-1.477.39-.471.144-.943.267-1.353.391-.41.123-.779.205-1.077.246l7.926-5.23c.287-.041.707-.154 1.138-.267.42-.124.881-.247 1.384-.391a26.696 26.696 0 0 1 1.507-.39c.502-.113.984-.216 1.435-.257.185-.021.359-.021.533-.021.175 0 .308 0 .451.031.144.021.298.092.421.134.123.041.236.102.328.174.287.216.892.761 1.64 1.47.749.699 1.641 1.551 2.512 2.373a60.484 60.484 0 0 0 2.43 2.2m-30.03-71.819-5.936 1.151.861-3.35 7.443-6.71-2.368 8.909Zm26.175 33.685c-.43-2.364-1.302-4.83-2.676-7.306a26.847 26.847 0 0 0-4.152-5.663 25.04 25.04 0 0 0-5.167-4.11c-1.846-1.099-3.773-1.911-5.721-2.405a17.968 17.968 0 0 0-5.813-.565c-.421.031-.851.083-1.262.144-.41.062-.83.154-1.24.247-.4.103-.82.216-1.21.349-.389.134-.789.288-1.179.463-.287.133-.595.267-.882.431a8.852 8.852 0 0 0-.851.504c-.276.174-.563.359-.83.565-.267.205-.543.401-.79.637l-7.381 6.238c.246-.216.512-.412.779-.627.256-.196.543-.37.81-.565.266-.175.564-.329.841-.483.276-.155.584-.288.861-.422.379-.174.769-.318 1.158-.452a15.3 15.3 0 0 1 1.19-.349c.399-.103.81-.185 1.22-.247.41-.062.83-.113 1.24-.154 1.866-.144 3.794.041 5.711.524 1.917.483 3.804 1.274 5.608 2.343a23.84 23.84 0 0 1 5.054 4.008 25.743 25.743 0 0 1 4.071 5.538c1.333 2.425 2.184 4.84 2.604 7.163.43 2.322.41 4.552.051 6.607-.369 2.055-1.097 3.956-2.132 5.611-1.046 1.654-2.379 3.072-3.958 4.162l7.956-5.498a14.36 14.36 0 0 0 4.019-4.224c1.056-1.685 1.794-3.617 2.153-5.723.359-2.097.359-4.368-.072-6.741h-.01Zm-45.429-22.937-7.125 6.402-4.86-10.194 6.89-6.72 5.085 10.502.01.01Zm-3.383 5.827-3.752.596 7.125-6.402-3.373 5.827v-.021Z"/>
  <path fill="var(--sapContent_Illustrative_Color14)" d="m168.549 180.799-.021.021c-.287-.175-.543-.864-.748-1.829-.216-.966-.4-2.2-.605-3.463-.195-1.264-.41-2.569-.656-3.659-.236-1.089-.544-1.962-.902-2.384l-6.039-3.956-9.063 3.494-8.879-11.54c-.133-.308.133-.894.594-1.603.462-.719 1.139-1.583 1.856-2.456.718-.874 1.446-1.757 2.02-2.507.595-.771 1.025-1.429 1.138-1.84-.349-.401-.636-.925-.851-1.5-.215-.565-.4-1.182-.554-1.798-.153-.617-.276-1.213-.43-1.768-.154-.555-.308-1.027-.523-1.397-.287-.514-.964-1.007-1.835-1.49-.872-.483-1.938-.956-3.035-1.429-1.097-.462-2.225-.935-3.199-1.408-.984-.472-1.815-.955-2.317-1.438l.41-13.256-6.828 6.412-.492 12.927c.492.473 1.312.946 2.276 1.398.964.452 2.061.914 3.137 1.366 1.077.453 2.122.915 2.973 1.377.851.473 1.518.946 1.795 1.449.205.36.358.833.502 1.367.144.545.267 1.12.431 1.726.153.607.307 1.203.522 1.758.216.565.482 1.068.831 1.459-.113.4-.554 1.058-1.118 1.808-.584.75-1.302 1.624-1.989 2.467-.697.852-1.363 1.705-1.825 2.404-.471.709-.717 1.274-.604 1.593l8.673 11.273 8.899-3.443 5.916 3.864c.349.421.646 1.274.882 2.333.236 1.068.43 2.332.635 3.576.195 1.233.359 2.445.585 3.391.154.709.318 1.264.533 1.562.072.102.133.174.215.215l12.396 2.672 7.833-5.035-12.55-2.723.011.01Z"/>
  <path fill="var(--sapContent_Illustrative_Color2)" d="M198.876 180.028c-.184.021-.718-.39-1.415-.976a80.719 80.719 0 0 1-2.43-2.199c-.881-.822-1.773-1.675-2.511-2.374-.739-.698-1.344-1.243-1.641-1.469-.102-.072-.215-.123-.328-.175a1.593 1.593 0 0 0-.41-.092 2.374 2.374 0 0 0-.472-.021c-.164 0-.338 0-.543.031a13.61 13.61 0 0 0-1.435.257c-.503.113-1.015.247-1.507.39a52 52 0 0 1-1.385.391c-.42.113-.799.205-1.097.246l-2.593 9.465-12.632-2.765c-.287-.174-.543-.863-.748-1.829-.215-.966-.4-2.199-.605-3.473-.195-1.264-.39-2.569-.656-3.658-.246-1.089-.543-1.963-.902-2.384l-5.978-3.895-9.063 3.494-8.95-11.612c-.134-.308.133-.904.605-1.623.471-.72 1.138-1.583 1.855-2.446.708-.874 1.446-1.757 2.02-2.507.584-.761 1.025-1.429 1.138-1.84-.348-.401-.636-.925-.851-1.5a19.504 19.504 0 0 1-.553-1.798c-.154-.617-.277-1.213-.431-1.768-.154-.555-.308-1.028-.523-1.397-.287-.514-.964-1.007-1.835-1.49-.872-.473-1.938-.956-3.035-1.419-1.097-.462-2.225-.935-3.199-1.407-.974-.473-1.814-.956-2.317-1.439l.472-13.184 9.863.164 3.373-5.826-4.993-10.41 9.166-6.617 8.776 7.532 6.408-1.213 2.358-8.847 12.518 3.165 2.368 10.42 6.275 4.161 8.305-3.021 8.591 10.913-5.28 7.625 2.748 7.121.031.052.061.051 9.381 4.717.051 12.495a.43.43 0 0 1-.041.175.59.59 0 0 1-.071.134c-.031.041-.052.061-.082.092a.38.38 0 0 1-.103.072c-.031 0-.061.031-.102.041-.041 0-.072.021-.113.031-.041 0-.072.02-.113.031-.041 0-.082.02-.123.031h-.308c-.194.02-.43.03-.697.03-.266 0-.553 0-.871-.02-.308-.021-.656-.031-.995-.052l-1.076-.061c-.359-.021-.728-.052-1.097-.072-.369-.021-.718-.041-1.067-.052h-.974c-.307 0-.594.021-.84.042-.093 0-.185.02-.257.03-.082 0-.164.031-.225.042-.072 0-.144.03-.205.051-.062.02-.123.041-.174.062-.021 0-.041.02-.062.03-.021 0-.041.021-.051.041 0 .021-.031.031-.052.042-.02 0-.03.03-.041.041l-2.45 5.816 5.157 9.885m-22.227-13.759a14.08 14.08 0 0 0 4.962-3.977c1.333-1.685 2.317-3.699 2.86-5.919.554-2.22.677-4.665.277-7.234-.389-2.559-1.281-5.251-2.789-7.974a26.805 26.805 0 0 0-4.152-5.662 25.496 25.496 0 0 0-5.157-4.111 21.414 21.414 0 0 0-5.721-2.404c-1.948-.504-3.906-.699-5.813-.555-.431.031-.851.082-1.261.144-.41.061-.83.154-1.241.246-.41.103-.82.216-1.209.35-.39.133-.79.287-1.179.472-.287.134-.595.267-.882.432-.287.164-.585.318-.851.503-.267.175-.564.36-.831.566-.266.195-.543.4-.789.637-2.358 2.004-3.855 4.644-4.573 7.594-.707 2.939-.635 6.196.175 9.433.799 3.227 2.317 6.422 4.449 9.279a25.185 25.185 0 0 0 8.192 7.101c.954.514 1.897.945 2.83 1.295.933.349 1.845.637 2.747.822.903.185 1.784.318 2.646.37.861.051 1.701.041 2.511-.041.431-.042.862-.103 1.272-.185.41-.083.83-.175 1.23-.278.4-.113.8-.236 1.179-.38a9.103 9.103 0 0 0 1.118-.493"/>
  <path fill="var(--sapContent_Illustrative_Color14)" d="m176.259 81.08-6.93 4.481h-.236c-.164.02-.349.02-.574.02h-.708c-.246 0-.533-.02-.81-.04s-.584-.031-.871-.052c-.287-.02-.595-.04-.882-.051-.287 0-.584-.03-.861-.03h-.79c-.235 0-.471.02-.676.04-.072 0-.154.02-.216.031-.061 0-.133.02-.194.03-.062 0-.113.032-.164.042-.052 0-.103.03-.144.051l6.798-4.51s.092-.042.143-.052c.051-.01.113-.031.174-.041l.195-.031c.072 0 .144-.02.215-.03.206-.022.441-.032.687-.032h.8c.277 0 .584.02.872.041.287.02.604.031.902.052.297.02.605.04.882.051.276 0 .574.03.82.041.246 0 .502.02.717.02.216 0 .41 0 .585-.02h.246l.02-.02v.01Zm-38.386-40.661-6.131 5.384 1.856-7.234 6.131-5.58-1.866 7.42.01.01Zm21.48 27.735c-.349-1.953-1.077-3.977-2.205-6.022a21.66 21.66 0 0 0-3.434-4.665 20.878 20.878 0 0 0-4.255-3.381 17.958 17.958 0 0 0-4.706-1.983c-1.61-.411-3.23-.586-4.788-.452-.349.03-.697.072-1.046.123a12.03 12.03 0 0 0-1.025.206c-.328.082-.666.184-1.005.287a7.99 7.99 0 0 0-.974.38c-.235.113-.482.227-.728.35-.235.133-.471.257-.707.4a9.897 9.897 0 0 0-.677.463c-.215.164-.43.329-.656.524l-6.08 5.138c.216-.185.421-.34.646-.514.216-.164.441-.308.667-.452.215-.144.451-.267.687-.4.225-.124.471-.237.707-.35.308-.144.636-.257.954-.37.317-.113.656-.206.984-.288.328-.082.666-.154 1.015-.205a15.61 15.61 0 0 1 1.025-.124c1.538-.123 3.127.031 4.706.432 1.569.4 3.137 1.058 4.624 1.932a19.728 19.728 0 0 1 4.162 3.298 21.17 21.17 0 0 1 3.353 4.573c1.097 2.004 1.804 3.987 2.143 5.899.338 1.911.338 3.74.041 5.446a12.777 12.777 0 0 1-1.764 4.624c-.133.206-.266.411-.41.606a11.462 11.462 0 0 1-2.86 2.816l6.551-4.542a11.836 11.836 0 0 0 3.312-3.494 13.154 13.154 0 0 0 1.784-4.716 15.814 15.814 0 0 0-.062-5.55h.031l-.01.01ZM121.92 49.246l-5.864 5.281-4.009-8.395 5.762-5.508 4.111 8.611v.01Zm34.982 55.14c-.143.021-.564-.277-1.107-.75-.554-.462-1.241-1.099-1.958-1.777-.708-.668-1.436-1.347-2.02-1.912-.605-.565-1.087-1.007-1.323-1.171a.926.926 0 0 0-.266-.134 1.709 1.709 0 0 0-.328-.072c-.123 0-.246-.02-.38-.02-.133 0-.276 0-.441.03-.358.042-.758.124-1.158.216-.4.093-.82.216-1.21.319-.389.103-.779.216-1.117.318a6.117 6.117 0 0 1-.882.206l6.541-4.265a11.2 11.2 0 0 0 .902-.205c.349-.093.738-.216 1.138-.319.41-.113.82-.226 1.231-.318.41-.093.81-.175 1.179-.216.153-.02.297-.03.44-.03a2.357 2.357 0 0 1 .728.092c.113.03.195.082.267.144.236.174.738.637 1.353 1.191.626.576 1.343 1.275 2.071 1.963.728.678 1.436 1.326 1.989 1.82.564.482.995.79 1.128.77m-44.537-46.221-5.833 5.19 2.747-4.707 5.865-5.282-2.779 4.799Z"/>
  <path fill="var(--sapContent_Illustrative_Color14)" d="M138.663 100.923h-.01c-.236-.133-.441-.699-.625-1.49-.174-.791-.328-1.819-.492-2.857-.164-1.048-.328-2.106-.533-3-.205-.894-.421-1.634-.718-1.994l-5.014-3.298-7.474 2.867-7.289-9.464c-.062-.268.143-.72.502-1.285.379-.606.943-1.295 1.538-2.014.584-.72 1.179-1.439 1.671-2.076.482-.637.841-1.16.943-1.52-.287-.33-.522-.761-.697-1.223-.184-.463-.318-.977-.441-1.48-.123-.514-.225-1.007-.348-1.45-.123-.44-.246-.852-.431-1.15-.236-.411-.789-.822-1.517-1.213-.718-.39-1.6-.78-2.502-1.16-.902-.38-1.835-.771-2.645-1.152-.81-.38-1.497-.78-1.917-1.181l.359-10.883-5.66 5.23-.41 10.657c.42.39 1.087.781 1.876 1.15.79.37 1.702.751 2.584 1.121.882.37 1.753.75 2.45 1.13.698.38 1.231.781 1.487 1.182.174.288.297.689.41 1.12.123.432.215.935.338 1.418.123.504.246.997.431 1.45.174.451.4.873.677 1.201-.093.33-.462.864-.933 1.5-.472.628-1.077 1.337-1.651 2.035a23.723 23.723 0 0 0-1.507 1.984c-.359.555-.564.996-.492 1.253l-.021.02.021.032 7.136 9.258 7.34-2.846 4.881 3.186c.287.339.533 1.048.727 1.931.195.874.349 1.932.523 2.939.154 1.028.298 2.014.482 2.806.134.585.257 1.048.421 1.284a.6.6 0 0 0 .174.185l10.222 2.199 6.531-4.121-10.407-2.271.01-.01Z"/>
  <path fill="var(--sapContent_Illustrative_Color2)" d="m169.083 66.428 7.72 3.884.041 10.307s-.021.103-.031.144c0 .04-.031.072-.051.102a.243.243 0 0 1-.072.072c-.031.02-.051.041-.082.052-.031 0-.051.02-.082.03-.031 0-.062.021-.092.031-.031 0-.062.021-.093.021-.03 0-.061.02-.102.02h-.246c-.164.021-.349.021-.585.021-.235 0-.451 0-.717-.02-.257-.021-.533-.021-.821-.042-.276-.02-.594-.03-.881-.051-.298-.02-.605-.041-.902-.051-.298-.01-.595-.031-.872-.041h-.8c-.235 0-.492 0-.687.03-.082 0-.153.02-.215.031-.072 0-.133.02-.195.031-.061 0-.123.03-.174.041-.051 0-.102.031-.144.051-.02 0-.03.021-.051.031a.145.145 0 0 0-.041.031s-.031.02-.041.031l-.031.03-2.009 4.79 4.245 8.138-7.434 6.145c-.153.021-.574-.288-1.127-.77-.574-.473-1.272-1.131-1.989-1.82-.718-.678-1.466-1.377-2.071-1.962-.616-.586-1.108-1.028-1.354-1.192a1.337 1.337 0 0 0-.266-.144 1.17 1.17 0 0 0-.339-.072c-.123 0-.246-.02-.389-.02-.144 0-.277 0-.431.03-.369.041-.769.123-1.179.216-.41.093-.83.216-1.23.319-.4.113-.79.226-1.138.318-.349.093-.656.175-.902.206l-2.133 7.809-10.406-2.271c-.236-.143-.441-.709-.626-1.51-.174-.791-.328-1.819-.492-2.857-.154-1.048-.328-2.106-.533-3-.205-.894-.441-1.614-.748-1.973l-4.983-3.268-7.474 2.867-7.32-9.505c-.103-.257.112-.74.502-1.336.379-.607.943-1.295 1.538-2.014a84.896 84.896 0 0 0 1.671-2.076c.492-.648.841-1.161.943-1.521-.287-.329-.523-.76-.697-1.223-.185-.462-.318-.976-.451-1.48-.123-.513-.226-1.007-.349-1.448-.123-.442-.246-.853-.43-1.151-.236-.411-.79-.822-1.518-1.213-.717-.39-1.599-.781-2.501-1.161-.903-.38-1.836-.77-2.645-1.151-.81-.38-1.497-.781-1.918-1.182l.38-10.861 8.13.133 2.778-4.799-4.111-8.58 7.556-5.447 7.239 6.197 5.28-1.007L139.771 33l10.396 2.692 1.948 8.591 5.167 3.432 6.828-2.476 7.074 8.991-4.347 6.279 2.256 5.867v.062l-.01-.01Zm-16.333 16.38a11.758 11.758 0 0 0 4.091-3.278c1.097-1.388 1.907-3.042 2.379-4.882.471-1.839.563-3.843.225-5.96-.318-2.116-1.066-4.326-2.296-6.566a21.696 21.696 0 0 0-3.435-4.665 20.875 20.875 0 0 0-4.255-3.381 17.807 17.807 0 0 0-4.706-1.983c-1.599-.411-3.219-.586-4.788-.452-.348.03-.697.072-1.045.123-.349.051-.687.123-1.026.205-.328.083-.666.185-1.004.288a11 11 0 0 0-.974.38c-.236.113-.482.226-.728.35a12.66 12.66 0 0 0-.708.4 9.913 9.913 0 0 0-.676.463c-.216.164-.431.329-.657.524-1.948 1.654-3.178 3.833-3.752 6.248-.574 2.415-.523 5.107.143 7.768.667 2.662 1.907 5.303 3.671 7.656a21.173 21.173 0 0 0 6.746 5.857c.779.422 1.558.781 2.338 1.069.769.278 1.527.524 2.265.678.749.165 1.477.257 2.174.308.707.052 1.405.031 2.071-.03a9.32 9.32 0 0 0 1.056-.154c.338-.072.677-.144 1.015-.227.328-.092.656-.205.974-.308a7.43 7.43 0 0 0 .933-.39"/>
  <path fill="var(--sapContent_Illustrative_Color14)" d="m237.6 91.541-4.922 5.046s-.03 0-.041.02c0 .021-.03 0-.051.021-.02 0-.031 0-.051.02-.021 0-.031 0-.051.021-.134.041-.277.093-.472.134-.195.04-.369.082-.595.123-.215.041-.441.082-.676.123-.226.041-.482.083-.728.124l-.749.123c-.246.041-.482.093-.717.134a9.028 9.028 0 0 0-.657.143 6.2 6.2 0 0 0-.738.227l-.154.061a.554.554 0 0 0-.133.072 1.95 1.95 0 0 1-.102.072l4.808-5.045s.072-.052.103-.072a.758.758 0 0 1 .133-.072 1.01 1.01 0 0 0 .154-.072c.051-.031.113-.041.184-.062.175-.061.349-.113.574-.164.216-.052.431-.103.667-.144.225-.041.492-.093.728-.134.236-.04.502-.082.758-.123.247-.041.513-.082.739-.123.225-.041.471-.082.687-.124.215-.04.41-.082.604-.123.185-.041.339-.082.472-.133.021 0 .041 0 .051-.021 0 0 .031 0 .052-.02.02 0 .03 0 .051-.021.02 0 .031 0 .041-.02h.02l.011.01Zm-39.687-26.542-4.081 5.662.174-6.371 4.06-5.775-.153 6.494V65ZM221.062 84c-.666-1.552-1.651-3.104-2.983-4.604a18.687 18.687 0 0 0-3.743-3.227 17.505 17.505 0 0 0-4.183-2.004 15.058 15.058 0 0 0-4.306-.75c-1.415-.041-2.799.134-4.08.534-.277.093-.574.196-.851.298-.267.113-.554.227-.81.36-.256.134-.533.267-.779.432a6.756 6.756 0 0 0-.738.513c-.185.144-.359.278-.544.432a11.1 11.1 0 0 0-.502.473 5.917 5.917 0 0 0-.472.524c-.154.185-.297.36-.451.565l-4.091 5.436c.144-.195.277-.36.431-.555.154-.175.307-.339.472-.514.164-.164.317-.308.502-.462.174-.154.338-.288.533-.421.226-.175.472-.34.728-.504.246-.154.513-.288.759-.421a9.36 9.36 0 0 1 .799-.36 6.13 6.13 0 0 1 .831-.288 12.543 12.543 0 0 1 3.998-.544c1.384.03 2.82.267 4.204.73a16.12 16.12 0 0 1 4.101 1.962 18.52 18.52 0 0 1 3.67 3.155c1.292 1.459 2.256 2.98 2.902 4.51.646 1.532.994 3.053 1.066 4.533a11.036 11.036 0 0 1-.595 4.182 10.014 10.014 0 0 1-2.06 3.473l4.603-5.025a10.04 10.04 0 0 0 2.091-3.545c.452-1.315.657-2.764.595-4.254-.072-1.51-.43-3.052-1.097-4.614l.031-.02h-.031Zm-34.725-8.582-3.875 5.519-4.932-6.228 3.753-5.651 5.044 6.36h.01Zm44.434 34.549-4.859 4.737c-.123.041-.523-.134-1.077-.411-.564-.277-1.251-.678-1.968-1.099l-2.051-1.203c-.615-.349-1.097-.637-1.322-.719a1.118 1.118 0 0 0-.247-.062h-.287c-.092 0-.215.031-.317.062-.103.031-.226.062-.349.103a9.457 9.457 0 0 0-.933.39c-.318.154-.646.329-.953.493-.308.165-.616.329-.872.494-.256.154-.513.257-.697.339l4.634-4.799c.195-.082.441-.206.707-.339.267-.144.585-.309.892-.483.308-.175.646-.339.964-.514a7.95 7.95 0 0 1 .943-.401c.123-.041.236-.082.359-.113s.216-.051.328-.061c.113-.011.205 0 .287 0 .082 0 .185.03.246.061.226.103.728.37 1.354.74.635.36 1.374.812 2.091 1.233.728.421 1.456.833 2 1.12.543.288.974.473 1.097.432h.03Z"/>
  <path fill="var(--sapContent_Illustrative_Color14)" d="m184.902 79.92-3.865 5.436 1.384-4.44 3.876-5.518-1.405 4.532.01-.01Z"/>
  <path fill="var(--sapContent_Illustrative_Color14)" d="m210.164 115.33-.02.021c-.226-.083-.513-.524-.8-1.141a50.31 50.31 0 0 1-.954-2.281 36.465 36.465 0 0 0-1.015-2.405c-.338-.709-.676-1.253-.994-1.49l-4.767-1.767-5.67 3.812-7.895-6.525c-.143-.195-.071-.658.144-1.213h-.021c.216-.585.544-1.274.892-1.983.339-.709.718-1.428.995-2.045.277-.627.492-1.13.502-1.439-.297-.215-.584-.544-.81-.893a12.44 12.44 0 0 1-.656-1.141c-.205-.39-.379-.791-.584-1.14-.185-.35-.369-.658-.585-.874-.276-.298-.82-.545-1.496-.73-.667-.195-1.487-.339-2.318-.493-.83-.154-1.671-.288-2.409-.452-.748-.175-1.384-.36-1.825-.627l-1.743-9.115-3.732 5.436 1.682 8.95c.41.247 1.056.442 1.784.617s1.558.298 2.368.442c.82.144 1.599.288 2.256.473.656.185 1.179.41 1.466.709.194.215.369.524.574.863.184.339.359.73.564 1.11.195.38.4.781.646 1.12.225.339.492.657.799.873 0 .288-.215.812-.482 1.408-.276.617-.645 1.315-.984 2.004-.338.699-.666 1.377-.871 1.942-.205.565-.287.997-.164 1.182l7.74 6.371 5.567-3.761 4.665 1.716c.308.226.646.771.974 1.459.328.699.667 1.541.995 2.353.318.822.646 1.624.923 2.24.215.463.41.812.615.997a.377.377 0 0 0 .174.113l8.92-.123 4.654-4.676-9.104.093v.01Z"/>
  <path fill="var(--sapContent_Illustrative_Color2)" d="m228.845 80.69 7.177 1.757 1.989 8.57v.124s0 .072-.021.103a.316.316 0 0 0-.041.082c0 .03-.041.04-.061.062-.021 0-.041.03-.062.04-.02 0-.041.031-.072.042-.031.01-.051.03-.072.04-.02.011-.051.032-.082.042 0 0-.03 0-.041.02 0 0-.03 0-.051.021-.02.02-.031 0-.051.02-.021 0-.031 0-.051.021-.134.041-.287.093-.472.134-.185.04-.379.082-.605.123-.215.041-.441.082-.687.123-.236.041-.502.083-.738.124l-.759.123c-.246.041-.502.092-.728.133a9.429 9.429 0 0 0-1.24.309l-.185.061a.536.536 0 0 0-.153.072c-.041.031-.093.041-.134.072a1.95 1.95 0 0 1-.102.072l-.031.031-.031.03-.031.032s0 .02-.02.03l-.769 4.368 5.085 5.97-5.023 6.536c-.124.041-.534-.134-1.097-.422-.575-.287-1.272-.698-2-1.12-.728-.421-1.486-.873-2.091-1.233-.615-.359-1.118-.647-1.354-.74a1.054 1.054 0 0 0-.246-.061h-.287c-.092 0-.215.03-.328.061a2.993 2.993 0 0 0-.359.113 7.306 7.306 0 0 0-.943.401c-.318.165-.656.329-.964.514-.307.175-.625.339-.892.483-.266.144-.522.257-.707.339l-.287 6.905-9.104.093c-.226-.072-.503-.514-.8-1.13a63.096 63.096 0 0 1-.954-2.282c-.328-.832-.676-1.695-1.015-2.404-.338-.72-.676-1.254-.994-1.501l-4.767-1.767-5.67 3.812-7.895-6.525c-.143-.195-.051-.647.164-1.202.216-.576.544-1.264.892-1.973.349-.699.718-1.428.995-2.045s.482-1.13.502-1.439c-.297-.216-.584-.544-.81-.894a15.47 15.47 0 0 1-.656-1.14c-.195-.39-.379-.792-.584-1.141-.195-.35-.369-.658-.585-.874-.276-.298-.82-.544-1.496-.729-.667-.195-1.477-.34-2.307-.504-.831-.154-1.671-.287-2.42-.452-.748-.164-1.384-.36-1.825-.627l-1.743-9.114 6.787-1.439 1.405-4.532-5.044-6.36 5.249-5.97 7.208 3.78 4.203-1.849.154-6.494 9.166.246 3.26 6.793 4.952 1.88 5.229-3.37 7.607 6.134-2.419 6.053 2.993 4.45h-.041v-.031l-.02.02Zm-10.499 16.77a10.15 10.15 0 0 0 2.789-3.514c.656-1.367 1.015-2.887 1.046-4.521.03-1.634-.257-3.299-.944-5.015-.676-1.706-1.712-3.391-3.157-5.035a18.687 18.687 0 0 0-3.743-3.227 17.707 17.707 0 0 0-4.183-2.004 15.117 15.117 0 0 0-4.306-.75c-1.414-.03-2.799.134-4.08.535-.277.092-.574.195-.851.298a7.146 7.146 0 0 0-.81.36c-.256.133-.533.266-.779.43-.246.165-.503.32-.738.515-.185.144-.359.277-.544.431a11.1 11.1 0 0 0-.502.473 5.917 5.917 0 0 0-.472.524c-.154.185-.297.36-.451.565-1.302 1.757-1.917 3.792-1.948 5.92-.031 2.126.543 4.346 1.589 6.432a18.261 18.261 0 0 0 4.511 5.672c1.918 1.614 4.183 2.877 6.736 3.597a15.3 15.3 0 0 0 2.143.442c.697.092 1.364.144 2.01.133.656 0 1.271-.061 1.876-.164a11.365 11.365 0 0 0 1.722-.422c.287-.102.585-.205.851-.318.267-.123.544-.247.8-.38a8.06 8.06 0 0 0 .748-.452c.236-.165.482-.33.697-.514"/>
</svg>
