<svg id="tnt-Dialog-ExternalLink" xmlns="http://www.w3.org/2000/svg" width="160" height="160" fill="none" viewBox="0 0 160 160">
  <path fill="var(--sapContent_Illustrative_Color20)" fill-rule="evenodd" d="M160 61v45c0 6.623-5.377 12-12 12H12c-6.623 0-12-5.377-12-12V61c0-6.623 5.377-12 12-12h136c6.623 0 12 5.377 12 12Z" clip-rule="evenodd"/>
  <path fill="var(--sapContent_Illustrative_Color21)" fill-rule="evenodd" d="m40.41 112.484 66.869-11.94c.416-.075.431-.662.025-.762l-41.93-10.445a3.86 3.86 0 0 0-1.535-.07l-52.796 8.137c-.933.145-1.114 1.41-.256 1.811l28.104 13.069c.471.22 1.003.291 1.52.195v.005Z" clip-rule="evenodd"/>
  <path fill="var(--sapContent_Illustrative_Color13)" d="M109.583 38.499a2.01 2.01 0 0 1 .785.123c.252.09.494.233.713.414.219.18.409.395.561.637.153.243.272.514.338.8l1.247 5.416-80.968 4.874-1.046-6.02a2.124 2.124 0 0 1 .028-.904 1.946 1.946 0 0 1 1.037-1.284 2.29 2.29 0 0 1 .88-.228l76.425-3.828Z"/>
  <path fill="var(--sapContent_Illustrative_Color8)" d="m32.26 50.764 80.962-4.87 10.404 45.243c.071.305.081.604.048.88a1.965 1.965 0 0 1-.257.76 1.76 1.76 0 0 1-.514.557 1.624 1.624 0 0 1-.723.271l-78.28 9.811a2.483 2.483 0 0 1-1.83-.514 2.738 2.738 0 0 1-.657-.727c-.176-.286-.3-.6-.357-.942L32.26 50.764Z"/>
  <path fill="var(--sapContent_Illustrative_Color20)" d="M101.263 51.277c2.872-.19 5.734 1.97 6.386 4.812l6.054 26.368c.69 3.002-1.127 5.772-4.063 6.137l-52.428 6.559c-3.475.435-6.807-1.947-7.368-5.276l-4.915-29.16c-.528-3.135 1.832-5.867 5.21-6.089l51.124-3.35Z"/>
  <path fill="var(--sapContent_Illustrative_Color8)" d="M91.405 61.458c.37.602.626 1.233.767 1.896a5.76 5.76 0 0 1 .068 2.02 4.146 4.146 0 0 1-.773 1.804l-5.694 7.66c-.852 1.158-2.021 1.813-3.51 1.965-.703.07-1.415.02-2.13-.159a6.78 6.78 0 0 1-2.062-1.039l-.825-.603a2.942 2.942 0 0 1-.387-.338 63.558 63.558 0 0 0-.324-.342l1.069-1.409 1.644 1.208c.795.583 1.67.827 2.625.733.951-.095 1.669-.494 2.278-1.211l5.654-7.699c.539-.726.716-1.519.534-2.377-.183-.858-.692-1.652-1.509-2.257l-.807-.649a3.743 3.743 0 0 0-2.6-.748c-.964.074-1.649.446-2.168 1.123l-3.683 4.884-2.794.24 4.811-6.31a4.182 4.182 0 0 1 1.537-1.248 4.676 4.676 0 0 1 1.91-.557c1.48-.11 2.843.3 4.092 1.23l.79.588c.622.465 1.12.998 1.487 1.598h-.001l.001-.003Z"/>
  <path fill="var(--sapContent_Illustrative_Color8)" d="m77.707 83.27 2.799-3.782 2.809-.297-3.933 5.351c-.851 1.162-2.066 1.834-3.643 2.018a6.32 6.32 0 0 1-2.195-.134 5.83 5.83 0 0 1-2.102-.984l-.857-.676c-1.332-.967-2.14-2.207-2.422-3.716-.28-1.503.04-2.852.958-4.046l5.192-6.82a4.462 4.462 0 0 1 1.6-1.315 5.696 5.696 0 0 1 1.992-.546c1.532-.135 2.934.248 4.206 1.153l.824.659.148.108-1.09 1.452-1.876-1.178c-.513-.24-1.12-.327-1.827-.263-1 .09-1.751.49-2.252 1.195l-5.236 6.776c-.546.818-.733 1.685-.56 2.6.174.917.677 1.717 1.507 2.394l.907.604c.816.592 1.713.831 2.697.721.938-.105 1.724-.533 2.356-1.281v.005l-.002.001Z"/>
  <path fill="var(--sapContent_Illustrative_Color2)" d="M36.612 44.458c.257-.014.51.024.752.105a2.184 2.184 0 0 1 1.16.922c.134.214.23.452.272.704.043.252.038.494-.02.718a1.626 1.626 0 0 1-.294.604 1.563 1.563 0 0 1-.519.428 1.75 1.75 0 0 1-.699.185 2.016 2.016 0 0 1-.752-.104 2.131 2.131 0 0 1-.66-.362 2.273 2.273 0 0 1-.505-.56 1.94 1.94 0 0 1-.271-.71 1.812 1.812 0 0 1 .019-.722c.052-.224.157-.433.295-.604a1.622 1.622 0 0 1 1.223-.609v.005Z"/>
  <path fill="var(--sapContent_Illustrative_Color14)" d="M43.9 103.411a2.464 2.464 0 0 1-.97-.076 2.595 2.595 0 0 1-.861-.438c-.257-.2-.48-.442-.657-.727-.175-.281-.3-.6-.356-.942L32.26 50.764l-1.047-6.02a2.08 2.08 0 0 1-.033-.452 2.148 2.148 0 0 1 .195-.823c.057-.124.133-.242.214-.352l-1.327 1.726c-.081.11-.153.224-.214.347a2.104 2.104 0 0 0-.195.814c0 .147.004.294.033.447l1.032 5.953 8.644 49.913a2.668 2.668 0 0 0 .999 1.65c.257.195.542.342.852.433.309.09.632.119.96.076l77.576-9.8 2.231-1.076-78.28 9.811Z"/>
  <path fill="var(--sapContent_Illustrative_Color17)" d="m126.907 101.147-1.943 1.252s-.043.029-.062.039c-.02.009-.044.029-.063.039-.019.009-.044.029-.063.038-.019.01-.043.029-.063.039a12.968 12.968 0 0 1-2.627 1.228 13.355 13.355 0 0 1-2.869.629c-.245.029-.496.048-.742.063-.246.014-.501.019-.752.024-.251.005-.506 0-.762-.019-.255-.02-.511-.029-.766-.058a15.703 15.703 0 0 1-2.3-.407 16.591 16.591 0 0 1-2.251-.749 17.218 17.218 0 0 1-2.165-1.083 18.547 18.547 0 0 1-3.886-3.076 19.108 19.108 0 0 1-2.965-4.004 18.558 18.558 0 0 1-1.061-2.258 17.594 17.594 0 0 1-.737-2.356 17.687 17.687 0 0 1-.4-2.384 16.22 16.22 0 0 1-.058-2.37 15.26 15.26 0 0 1 .289-2.31 14.336 14.336 0 0 1 1.519-4.136 13.116 13.116 0 0 1 2.647-3.331l1.716-1.553a12.845 12.845 0 0 0-1.466 1.567 13.467 13.467 0 0 0-1.2 1.8 14.147 14.147 0 0 0-.916 2.001 14.64 14.64 0 0 0-.608 2.176c-.154.764-.25 1.548-.289 2.336a16.55 16.55 0 0 0 .058 2.394c.077.803.212 1.61.405 2.408.193.798.443 1.596.747 2.38a19.74 19.74 0 0 0 1.07 2.282 18.82 18.82 0 0 0 1.365 2.123 20.01 20.01 0 0 0 1.629 1.93 18.817 18.817 0 0 0 3.929 3.115 18.34 18.34 0 0 0 2.184 1.096c.743.315 1.505.566 2.276.764.771.199 1.543.334 2.319.416.26.024.516.044.776.058.26.015.511.02.767.02.255 0 .506-.01.761-.02.256-.009.502-.034.752-.063.497-.053.989-.135 1.476-.237.487-.101.959-.237 1.422-.391a13.85 13.85 0 0 0 1.36-.542c.443-.203.872-.435 1.287-.691.024-.015.043-.029.067-.039.024-.01.044-.029.063-.039.019-.009.043-.029.063-.038.019-.01.043-.03.062-.044"/>
  <path fill="var(--sapContent_Illustrative_Color9)" d="M126.054 74.917a19.397 19.397 0 0 1 4.242 4.822 18.83 18.83 0 0 1 2.397 5.905 17.055 17.055 0 0 1 .342 4.642 15.734 15.734 0 0 1-.314 2.248 14.924 14.924 0 0 1-.636 2.152 13.71 13.71 0 0 1-2.184 3.787 12.885 12.885 0 0 1-3.259 2.838 12.708 12.708 0 0 1-2.647 1.234c-.463.154-.94.285-1.422.391-.482.107-.974.184-1.475.237a12.773 12.773 0 0 1-1.514.082c-.256 0-.511-.004-.767-.019a15.353 15.353 0 0 1-3.095-.474 16.569 16.569 0 0 1-2.275-.764 17.993 17.993 0 0 1-4.243-2.515 18.9 18.9 0 0 1-1.87-1.697 18.79 18.79 0 0 1-1.63-1.93 18.943 18.943 0 0 1-2.435-4.406 18.194 18.194 0 0 1-.747-2.378 17.277 17.277 0 0 1-.405-2.409c-.077-.802-.096-1.6-.058-2.393a15.578 15.578 0 0 1 .912-4.55c.26-.712.578-1.389.94-2.037.361-.648.776-1.252 1.239-1.823a12.884 12.884 0 0 1 3.254-2.872 13.117 13.117 0 0 1 3.997-1.64c.713-.164 1.441-.27 2.188-.319a14.882 14.882 0 0 1 3.004.116c.998.14 1.991.377 2.965.706.974.33 1.923.75 2.844 1.262a18.643 18.643 0 0 1 2.652 1.79v.014Z"/>
  <path fill="var(--sapContent_Illustrative_Color8)" d="M121.847 76.612c.937-.082 1.793.186 2.57.807a4.01 4.01 0 0 1 1.466 2.411l2.624 12.944c.2.987.048 1.847-.455 2.58-.504.73-1.222 1.137-2.159 1.22l-10.493.918a5.162 5.162 0 0 1-2.082-.254 6.6 6.6 0 0 1-1.855-.989 7.125 7.125 0 0 1-1.42-1.622 6.228 6.228 0 0 1-.833-2.069c-.153-.754-.157-1.454-.012-2.102.14-.674.38-1.277.724-1.81a4.071 4.071 0 0 1 1.396-1.271 4.473 4.473 0 0 1 1.909-.603l4.692-.411-1.48-1.18a1.15 1.15 0 0 1-.438-.675c-.058-.286-.019-.528.116-.724a.83.83 0 0 1 .639-.374.978.978 0 0 1 .72.215l3.454 2.752c.22.22.354.446.401.68.057.286.02.527-.116.724l-2.237 3.251c-.155.224-.355.349-.601.37a1.108 1.108 0 0 1-.758-.212 1.284 1.284 0 0 1-.408-.719.917.917 0 0 1 .153-.726l.958-1.394-4.692.41a2.75 2.75 0 0 0-1.202.384 2.86 2.86 0 0 0-.884.831c-.213.31-.363.68-.452 1.111-.094.405-.093.843.003 1.31.189.936.66 1.714 1.413 2.336.772.593 1.602.852 2.488.774l10.493-.917c.419-.037.734-.211.947-.52.213-.309.275-.685.185-1.127l-2.624-12.944a1.743 1.743 0 0 0-.629-1.056 1.525 1.525 0 0 0-1.121-.339l-12.266 1.073c-.419.037-.734.21-.947.52-.212.309-.274.685-.184 1.127l.6 2.964c.058.286.021.54-.109.762-.136.197-.338.308-.61.331a1.111 1.111 0 0 1-.757-.211 1.28 1.28 0 0 1-.409-.718l-.6-2.964c-.2-.986-.048-1.847.455-2.579.503-.731 1.222-1.137 2.158-1.22l12.266-1.073.003-.002Z"/>
</svg>
