<svg id="tnt-Dot-Dialog" xmlns="http://www.w3.org/2000/svg" width="45" height="45" fill="none" viewBox="0 0 45 45">
  <path fill="var(--sapContent_Illustrative_Color14)" d="M41.52 23.398a3.73 3.73 0 0 1-.387.215 4.805 4.805 0 0 1-.41.176 4.949 4.949 0 0 1-.435.136 5.244 5.244 0 0 1-.46.092l-.031.005.084.378a3.852 3.852 0 0 0 .444-.242l1.194-.758v-.002Zm-.972 6.224a.425.425 0 0 1-.124.05l-.063.016a.282.282 0 0 1-.065.01c-.04.003-.08.003-.121.003-.042 0-.082-.008-.124-.016a.56.56 0 0 1-.123-.04.732.732 0 0 1-.12-.06h-.006l-7.63-4.804.021-.013h-.034v.002l-3.713.36.132.627 2.497-.244 7.535 4.763h.005a.808.808 0 0 0 .22.09c.006 0 .011.005.017.007a.358.358 0 0 0 .06.01c.02.003.04.006.06.006h.06c.02 0 .04-.003.058-.003a.501.501 0 0 0 .066-.01c.021-.005.045-.01.063-.016a.85.85 0 0 0 .12-.05l1.2-.682c-.015.007-.03.018-.05.023l.05-.029h.01ZM17.17 8.547c.118-.402.28-.78.485-1.127a4.64 4.64 0 0 1 .735-.94h-.002l-.966.95a4.6 4.6 0 0 0-.73.933c-.205.344-.368.72-.483 1.116a5.145 5.145 0 0 0-.205 1.258 5.78 5.78 0 0 0 .107 1.362h.003l.231 1.184 1.116-.13-.389-1.965a5.72 5.72 0 0 1-.107-1.37c.018-.444.086-.87.205-1.271Zm6.392 24.022-5.844.659.601-.644 6.291-.703h.01l.016-.003c.082-.01.15-.018.229-.031.304-.082.611-.137.908-.245.095-.036.186-.076.276-.115l.128-.063a4.63 4.63 0 0 0 .316-.176l-1.006.646a4.1 4.1 0 0 1-.433.244l-.069.029-.06.029a4.466 4.466 0 0 1-.252.102c-.029.01-.058.026-.087.037a4.534 4.534 0 0 1-.498.145c-.171.042-.347.063-.526.086v.003Z"/>
  <path fill="var(--sapContent_Illustrative_Color8)" d="M10.63 21.454a1.856 1.856 0 0 0-.691-.079h-.006a1.487 1.487 0 0 0-.64.192 1.534 1.534 0 0 0-.74 1.014 1.731 1.731 0 0 0-.009.698 1.988 1.988 0 0 0 .736 1.203c.186.144.393.257.617.328.223.07.457.1.695.076a1.56 1.56 0 0 0 .644-.2c.189-.107.349-.254.472-.425.124-.173.213-.375.26-.59a1.72 1.72 0 0 0 .005-.697 1.994 1.994 0 0 0-.73-1.192 1.92 1.92 0 0 0-.611-.328h-.003Zm5.914-.479c-.22-.068-.457-.1-.69-.079h-.006a1.484 1.484 0 0 0-.64.192 1.532 1.532 0 0 0-.74 1.013 1.73 1.73 0 0 0-.008.699 1.987 1.987 0 0 0 .735 1.202c.186.145.393.258.617.328.223.071.457.1.695.077a1.56 1.56 0 0 0 .644-.2c.189-.108.349-.255.472-.425a1.62 1.62 0 0 0 .26-.591 1.72 1.72 0 0 0 .006-.696 1.995 1.995 0 0 0-.73-1.192 1.916 1.916 0 0 0-.612-.328h-.003Zm5.849-.564c-.22-.068-.456-.1-.693-.078h-.005a1.485 1.485 0 0 0-.64.191 1.532 1.532 0 0 0-.741 1.014 1.732 1.732 0 0 0-.008.698 1.987 1.987 0 0 0 .735 1.203c.187.144.394.257.617.328.223.07.457.1.696.076.24-.021.454-.092.643-.2.19-.107.35-.254.473-.425.123-.173.213-.375.26-.59a1.73 1.73 0 0 0 .005-.696 1.994 1.994 0 0 0-.73-1.192 1.916 1.916 0 0 0-.611-.329Z"/>
  <path fill="var(--sapContent_Illustrative_Color14)" d="M11.282 38.301h.003l.003-.002-.006.002Z"/>
  <path fill="var(--sapContent_Illustrative_Color14)" d="m1.833 20.633 1.494 8.425c.073.423.197.827.354 1.213l.021.058c.034.081.071.16.108.239.018.042.037.084.058.126.068.136.141.27.22.402a.74.74 0 0 1 .034.063c.021.034.045.065.066.1.052.08.105.162.163.24.042.061.084.124.131.185l.008.013c.052.068.108.131.16.197.087.105.176.207.27.307l.132.14c.065.065.131.13.2.193.036.035.073.066.11.098.07.06.136.126.21.183a6.13 6.13 0 0 0 1.614.932c.035.014.066.027.1.037.06.024.121.05.184.071.037.013.076.021.113.032l.126.036c.168.048.339.09.512.121.042.008.081.019.123.024.01 0 .021 0 .032.002.404.066.816.09 1.231.06l.864 4.709a.838.838 0 0 0 .192.423.847.847 0 0 0 .373.265c.031.01.063.02.094.028.029.008.063.01.092.016.031.005.06.005.092.005a.936.936 0 0 0 .094-.005c.027-.003.056-.005.082-.013a.693.693 0 0 0 .079-.026c.005 0 .007-.003.013-.003.002-.003.005-.003.01-.005.016-.008.032-.013.047-.021.003 0 .006-.003.008-.005.032-.016.047-.024.087-.048l.04-.026c.012-.008.026-.018.041-.026.027-.019.056-.037.082-.053.026-.015.055-.037.081-.052.026-.016.055-.034.082-.053.026-.018.055-.034.08-.052.027-.019.056-.035.082-.053l.082-.052c.026-.019.055-.035.081-.053.026-.018.055-.034.082-.052.026-.019.055-.037.08-.053.027-.016.056-.037.082-.052.013-.008.016-.014.032-.021-.005.002 0 0-.005 0-.03.015-.058.031-.09.044-.029.013-.058.021-.086.03a.923.923 0 0 1-.092.02.416.416 0 0 1-.06.005h-.095c-.016 0-.032 0-.048-.005-.013 0-.028-.005-.042-.008l-.044-.008h-.008c-.031-.005-.063-.018-.095-.029-.052-.023-.1-.044-.147-.07a.785.785 0 0 1-.139-.1c-.042-.034-.073-.079-.11-.121a.939.939 0 0 1-.184-.4l-.88-4.764a5.515 5.515 0 0 1-.55.01c-.227-.026-.452-.037-.678-.068-.071-.01-.142-.026-.213-.04a6.885 6.885 0 0 1-.627-.157c-.074-.024-.147-.05-.22-.076-.085-.03-.166-.063-.248-.095-.063-.026-.128-.052-.191-.081a6.58 6.58 0 0 1-.386-.192 4.488 4.488 0 0 1-.187-.108 3.705 3.705 0 0 1-.218-.134c-.068-.044-.139-.089-.204-.136-.071-.047-.137-.1-.205-.15a5.42 5.42 0 0 1-.15-.113c-.045-.034-.087-.073-.129-.11-.073-.063-.144-.123-.215-.189a4.947 4.947 0 0 1-.333-.336 6.047 6.047 0 0 1-.428-.507c-.048-.06-.09-.123-.134-.186a5.282 5.282 0 0 1-.168-.255l-.09-.142a6.277 6.277 0 0 1-.78-2.076s-1.52-8.513-1.517-8.513a5.538 5.538 0 0 1-.063-1.515c.003-.031.005-.063.01-.091a5.133 5.133 0 0 1 .174-.864 5.018 5.018 0 0 1 .438-1.03c.027-.05.058-.097.087-.144.053-.087.11-.173.168-.257l.095-.134c.042-.058.086-.113.13-.168.032-.04.067-.076.1-.113l.11-.124-.03.035s.02-.021.028-.035l-.031.037-.066.071-.029.03-.084.088a.861.861 0 0 1-.05.053l-.13.139s-.022.021-.03.032l-.084.086a.537.537 0 0 1-.042.045c-.026.023-.058.063-.084.086-.026.024-.06.06-.084.087a.611.611 0 0 1-.042.045c-.024.026-.058.06-.081.086a5.32 5.32 0 0 0-.352.42l-.021.03c-.05.068-.103.133-.147.204a4.626 4.626 0 0 0-.31.554c-.029.063-.063.123-.09.187-.02.05-.036.1-.057.15a3.387 3.387 0 0 0-.126.356.409.409 0 0 1-.021.06l-.032.122c-.01.044-.026.086-.036.13-.006.024-.008.05-.013.074a4.094 4.094 0 0 0-.058.313l-.016.11a4.492 4.492 0 0 0-.034.323c0 .018-.005.04-.005.058v.047c-.021.407 0 .83.078 1.258h-.002Z"/>
  <path fill="var(--sapContent_Illustrative_Color2)" d="M20.81 12.924a5.246 5.246 0 0 1 2.056.279 6.086 6.086 0 0 1 1.83 1.013 6.494 6.494 0 0 1 1.42 1.594c.384.609.668 1.294.82 2.021l1.334 6.449.081.394.097.457.148.709c.154.756.162 1.49.044 2.168a5.018 5.018 0 0 1-.725 1.857 4.532 4.532 0 0 1-1.378 1.357 4.53 4.53 0 0 1-1.909.656l-6.306.704-5.506 6.144a.734.734 0 0 1-.202.15c-.035.018-.077.031-.116.047a.466.466 0 0 1-.123.024c-.03 0-.063.005-.092.005-.03 0-.063 0-.092-.005a7.723 7.723 0 0 0-.097-.016.925.925 0 0 1-.473-.297.964.964 0 0 1-.2-.42l-.88-4.765a5.618 5.618 0 0 1-2.16-.281 6.187 6.187 0 0 1-1.92-1.056 6.431 6.431 0 0 1-1.464-1.672 6.235 6.235 0 0 1-.806-2.13l-1.518-8.517a5.428 5.428 0 0 1 .05-2.203c.163-.685.46-1.31.866-1.846.407-.535.925-.98 1.526-1.302a5.02 5.02 0 0 1 2.032-.578l10.145-.698.17-.01.949-.066 2.405-.163-.005-.003ZM22.29 23.8a1.424 1.424 0 0 0 1.05-.609c.118-.17.197-.365.239-.575.042-.21.042-.44-.008-.674a1.992 1.992 0 0 0-1.305-1.484 1.65 1.65 0 0 0-.659-.079 1.408 1.408 0 0 0-1.053.599c-.118.168-.2.362-.244.575a1.68 1.68 0 0 0 .003.677c.047.237.136.46.262.66.126.199.281.372.46.514.178.142.38.252.593.32.213.069.439.095.662.076Zm-11.7 1.088a1.531 1.531 0 0 0 1.376-1.216c.047-.215.05-.454.005-.696a1.926 1.926 0 0 0-.262-.67 2.027 2.027 0 0 0-1.08-.85 1.75 1.75 0 0 0-.693-.079 1.531 1.531 0 0 0-1.381 1.208c-.05.218-.055.454-.008.698a1.988 1.988 0 0 0 .736 1.203c.186.144.393.257.617.328.223.07.457.1.695.076m5.918-.554a1.458 1.458 0 0 0 1.082-.617c.121-.173.205-.37.25-.583a1.717 1.717 0 0 0 0-.685 1.887 1.887 0 0 0-.263-.66 2.076 2.076 0 0 0-.462-.516 1.92 1.92 0 0 0-.599-.323 1.722 1.722 0 0 0-.674-.079 1.49 1.49 0 0 0-.625.192 1.452 1.452 0 0 0-.46.415 1.627 1.627 0 0 0-.254 1.27 2.025 2.025 0 0 0 .727 1.19c.181.144.388.254.604.325.215.071.446.1.677.076"/>
  <path fill="var(--sapContent_Illustrative_Color13)" d="M35.27 4.446a5.312 5.312 0 0 1 2.087.326 6.436 6.436 0 0 1 1.877 1.079 7.037 7.037 0 0 1 1.473 1.664c.402.636.706 1.342.874 2.096l1.888 8.328c.17.748.197 1.48.1 2.158a4.978 4.978 0 0 1-.649 1.856 4.373 4.373 0 0 1-1.294 1.374 4.3 4.3 0 0 1-1.83.693l1.053 4.77c.016.082.026.163.024.237a.88.88 0 0 1-.037.218.685.685 0 0 1-.237.344c-.023.018-.05.034-.073.05-.024.013-.053.026-.079.039a.772.772 0 0 1-.084.026c-.029.008-.058.01-.087.013a.47.47 0 0 1-.12 0c-.042 0-.082-.008-.124-.015a.56.56 0 0 1-.123-.04.646.646 0 0 1-.12-.06L32.16 24.77l-3.747.365-.094-.457-.082-.394-1.334-6.448a6.203 6.203 0 0 0-.816-2.022 6.394 6.394 0 0 0-1.42-1.594 6.117 6.117 0 0 0-1.83-1.013 5.24 5.24 0 0 0-2.056-.279l-2.403.163-.95.066-.389-1.964a5.747 5.747 0 0 1 0-2.271 4.858 4.858 0 0 1 .838-1.89 4.53 4.53 0 0 1 1.52-1.316 4.814 4.814 0 0 1 2.048-.554L24 5.032l1.172-.06 10.098-.523.007-.006-.008.003Z"/>
</svg>
