<svg id="tnt-Spot-ChartBPMNFlow" xmlns="http://www.w3.org/2000/svg" width="128" height="128" fill="none" viewBox="0 0 128 128">
  <rect width="128" height="55" y="40" fill="var(--sapContent_Illustrative_Color20)" rx="8"/>
  <path fill="var(--sapContent_Illustrative_Color21)" fill-rule="evenodd" d="m44.654 93.274 59.062-10.546c.368-.067.381-.585.022-.674L66.704 72.83a3.41 3.41 0 0 0-1.356-.062l-46.633 7.187c-.824.129-.984 1.245-.226 1.6l24.823 11.543a2.22 2.22 0 0 0 1.343.172v.005Z" clip-rule="evenodd"/>
  <path fill="var(--sapContent_Illustrative_Color8)" d="m27.824 41.187 67.24-4.044 8.64 37.574c.059.253.067.502.039.73a1.603 1.603 0 0 1-.213.633 1.454 1.454 0 0 1-.427.462 1.345 1.345 0 0 1-.6.225l-65.011 8.147a2.078 2.078 0 0 1-1.521-.427 2.282 2.282 0 0 1-.545-.603 2.155 2.155 0 0 1-.297-.782l-7.305-41.915Z"/>
  <path fill="var(--sapContent_Illustrative_Color13)" d="M92.041 31.002a1.67 1.67 0 0 1 .652.103c.21.075.41.193.593.343a2.207 2.207 0 0 1 .746 1.193l1.035 4.498-67.243 4.048-.869-5a1.766 1.766 0 0 1 .024-.75 1.616 1.616 0 0 1 .861-1.066c.217-.107.462-.174.73-.19l63.471-3.179Z"/>
  <path fill="var(--sapContent_Illustrative_Color14)" d="M37.49 84.91a2.04 2.04 0 0 1-.806-.063 2.15 2.15 0 0 1-.715-.363 2.28 2.28 0 0 1-.545-.605 2.13 2.13 0 0 1-.297-.782l-7.305-41.91-.869-5a1.737 1.737 0 0 1 .02-.73c.028-.115.067-.226.114-.328.048-.103.111-.202.178-.293l-1.102 1.434c-.067.09-.126.186-.178.288a1.745 1.745 0 0 0-.162.676c0 .122.004.244.028.37l.857 4.946 7.179 41.452a2.184 2.184 0 0 0 .83 1.37c.213.162.45.285.707.36.257.075.525.098.798.063l64.426-8.14 1.853-.892L37.49 84.91Z"/>
  <path fill="var(--sapContent_Illustrative_Color2)" d="M83.623 45.076c-.232-1.196-1.287-2.087-2.393-1.989v.005l-34.575 2.464c-1.153.11-1.898 1.215-1.662 2.462l2.444 12.618c.235 1.22 1.321 2.097 2.521 1.992l34.41-3.64c1.086-.137 1.772-1.227 1.54-2.435l-2.285-11.477Z"/>
  <path fill="var(--sapContent_Illustrative_Color15)" d="M78.912 47.398c1.606-.14 3.168 1.167 3.511 2.934.317 1.65-.534 3.134-1.944 3.49a2.454 2.454 0 0 1-.421.069 2.85 2.85 0 0 1-.695-.026c-1.154-.191-2.196-1.09-2.647-2.305a3.755 3.755 0 0 1-.234-1.215c-.031-1.528.95-2.79 2.382-2.938h.043l.005-.01Z"/>
  <path fill="var(--sapContent_Illustrative_Color20)" d="M79.363 53.865c.23.039.46.047.695.026.017 0 .039 0 .056-.005.126-.013.248-.034.365-.065l.942 4.888.937 4.86-1.098.127-.938-4.866-.959-4.97v.005Zm-24.18-.655a3.591 3.591 0 0 0-.173-.612l4.614-.486.238 1.237-4.614.49c0-.204-.026-.416-.065-.63Z"/>
  <path fill="var(--sapContent_Illustrative_Color13)" d="M69.466 47.537c.421-.035.812.295.899.737l.512 2.652.234 1.224.512 2.652c.083.452-.173.851-.586.899l-5.234.568-1.129.122-3.394.369c-.42.039-.829-.291-.911-.742l-.512-2.674-.24-1.237-.594-2.934c-.087-.456.178-.855.595-.899l9.84-.742.008.005Z"/>
  <path fill="var(--sapContent_Illustrative_Color20)" d="m65.807 56.273.79 4.102 1.038 5.395a.737.737 0 0 0-.422-.091.661.661 0 0 0-.503.304l-.143.217-1.098-5.7-.79-4.105 1.128-.122Zm10.677-5.933c0 .2.026.404.065.612.04.209.096.413.17.604l-5.604.594-.234-1.224 5.603-.59v.004Z"/>
  <path fill="var(--sapContent_Illustrative_Color14)" d="M51.535 50.22c1.48-.131 2.917.889 3.477 2.378.074.195.13.403.174.612.039.212.06.42.065.629.026 1.558-.994 2.847-2.487 3.008-.022 0-.044.004-.065.004-1.671.148-3.299-1.18-3.642-2.99-.351-1.832.738-3.464 2.435-3.637h.044v-.005Zm15.68 15.46a.738.738 0 0 1 .42.09.925.925 0 0 1 .135.092l2.982 2.408.217.174a.924.924 0 0 1 .295 1.02.837.837 0 0 1-.07.139l-2.083 3.212a.655.655 0 0 1-.508.308.773.773 0 0 1-.55-.178l-3.217-2.583a.96.96 0 0 1-.117-.112c-.256-.296-.308-.734-.104-1.046l.143-.217 1.814-2.783.143-.217a.661.661 0 0 1 .504-.303l-.004-.005Z"/>
  <path fill="var(--sapContent_Illustrative_Color20)" d="m70.752 68.27 5.243-.624.234 1.22-4.965.594a.924.924 0 0 0-.295-1.02l-.217-.174v.004Z"/>
  <path fill="var(--sapContent_Illustrative_Color13)" d="M85.278 63.227c.412-.034.798.287.88.725l1.246 6.467c.087.447-.169.846-.573.898l-9.166 1.129c-.421.04-.812-.287-.895-.725l-.55-2.856-.235-1.22-.473-2.443c-.087-.451.173-.855.581-.903l5.157-.599 1.098-.126 2.92-.338.01-.009Z"/>
  <path fill="var(--sapContent_Illustrative_Color20)" d="M58.52 70.57a3.893 3.893 0 0 0-.256-.816l6.493-.772-.144.217c-.203.313-.151.75.105 1.046l-6.142.738a3.492 3.492 0 0 0-.056-.413Z"/>
  <path fill="var(--sapContent_Illustrative_Color9)" d="M54.922 67.61c1.393-.121 2.743.782 3.342 2.145a3.88 3.88 0 0 1 .313 1.228c.13 1.654-.912 3.073-2.47 3.264-.035 0-.07.009-.1.009-1.653.143-3.255-1.16-3.602-2.96-.352-1.832.738-3.482 2.426-3.677.03 0 .06-.008.091-.008Z"/>
</svg>
