<svg id="tnt-Spot-Avatar" xmlns="http://www.w3.org/2000/svg" width="128" height="128" fill="none" viewBox="0 0 128 128">
  <rect width="128" height="55" y="40" fill="var(--sapContent_Illustrative_Color20)" rx="8"/>
  <path fill="var(--sapContent_Illustrative_Color2)" d="M19.177 54.377c0-.343-.995-.617-2.324-.68-.076-1.328-.37-2.315-.712-2.314-.343 0-.628.995-.7 2.33-1.334.091-2.325.39-2.32.733.004.343.994.618 2.324.68.08 1.327.368 2.315.71 2.314.343 0 .63-.996.702-2.33 1.334-.092 2.324-.39 2.32-.733Z"/>
  <circle cx="109.623" cy="61.548" r=".783" fill="var(--sapContent_Illustrative_Color20)"/>
  <circle cx="11.698" cy="85.05" r=".783" fill="var(--sapContent_Illustrative_Color20)"/>
  <circle cx="39.117" cy="69.382" r=".783" fill="var(--sapContent_Illustrative_Color20)"/>
  <circle cx="41.468" cy="74.083" r="1.175" fill="var(--sapContent_Illustrative_Color20)"/>
  <path fill="var(--sapContent_Illustrative_Color2)" d="M22.52 59.586c0-.222-.643-.4-1.503-.44-.049-.858-.238-1.497-.46-1.496-.222 0-.406.644-.453 1.507-.862.059-1.503.252-1.5.474.003.222.643.4 1.503.44.051.858.238 1.496.46 1.496.22 0 .406-.644.453-1.507.862-.06 1.503-.252 1.5-.474Zm83.041 11.751c0-.222-.643-.4-1.503-.44-.049-.858-.238-1.497-.46-1.496-.222 0-.406.644-.453 1.507-.862.059-1.503.252-1.5.474.002.222.643.4 1.503.44.051.858.238 1.496.459 1.496.222 0 .407-.644.454-1.507.862-.06 1.503-.252 1.5-.474Z"/>
  <path fill="var(--sapContent_Illustrative_Color24)" d="M89.007 36.093c-2.692-1.005-3.427-.207-4.57 0-1.004 14.401-2.489 43.519.847 43.928 4.307.529 5.048 1.015 7.949-.352.757-.357.959-4.445 1.39-7.695.39-2.948 2.484-23.834 2.692-26.326.208-2.493.426-5.642-2.1-6.743-1.562-.68-4.99-2.357-6.208-2.812Z"/>
  <path fill="var(--sapContent_Illustrative_Color1)" d="M92.813 41.47c-.416-.581-6.364-3.933-9.757-4.245-1.73 13.155-5.12 41.303-4.538 41.552.726.312 10.593 1.973 11.839 1.766 1.246-.208.727-3.428 1.558-7.166.83-3.739 2.907-22.536 3.219-23.783.312-1.246-1.802-7.397-2.322-8.124Z"/>
  <path fill="var(--sapContent_Illustrative_Color8)" d="M44.66 75.305c-.051-.386.813-1.85 1.251-2.536l5.23 2.535c.011.3-.128 1.027-.77 1.54.45.61 0 2.407 0 2.696 0 .289-.16 1.059 0 2.054.16.994-.288 2.085-.449 2.182-.16.096-.77-.193-.962-.546-.193-.353-.353-1.7-.674-1.957-.321-.257-.61.353-.93.513-.322.16-.707 1.252-.867 2.214-.16.963-.032.963-.578 1.957-.308 0-.684-.449-.834-.673-.043.139-.186.468-.417.673-.353-.064-.642-.352-.866-.994-.193-.128-.45-.546-.642-.963-.193-.417-.032-2.406 0-2.92.032-.513.385-1.123.449-2.31s.706-1.572 1.059-1.925.064-1.06 0-1.54Z"/>
  <path fill="var(--sapContent_Illustrative_Color8)" d="M54.833 57.945c.23-.59.845-1.636 1.123-2.086l1.732 1.926 7.733 4.941c-1.219.086-3.715.34-3.946.674-.29.417-1.958 1.412-2.31 2.086-.354.673-2.76 3.561-3.37 4.652-.61 1.091-2.086 2.343-2.856 2.76.385.32-.256 1.957-.385 2.407-.128.449-1.059.577-1.412 1.09.026-.693-3.775-2.62-5.68-3.497.867-1.637 2.632-5.05 2.76-5.615.16-.706 1.669-2.375 1.99-3.113.32-.738 1.38-.257 2.086-2.214.706-1.957 2.246-3.273 2.535-4.01Z"/>
  <path fill="var(--sapContent_Illustrative_Color8)" d="M62.784 47.894c1.31-.96 4.475-1.42 5.894-1.528 20.957-3.602 15.99.436 17.246.655 1.255.218.436 2.455 1.473 3.329 1.037.873 1.419.764 3.384 1.8 1.571.83-2.293 9.442-4.42 13.644-.692 3.784-1.91 11.58-1.256 12.498.819 1.145-.6 1.746 0 3.056s-.382 1.2 0 1.91.164 1.255-.382 1.964c.83.655.346 2.274 0 3.002-.491-.6-1.9-1.845-3.602-2.02-2.128-.218-6.44.437-8.459 1.201-1.615.611-2.783 2.11-3.165 2.784-.419-.437-1.616-1.55-3.056-2.51-1.801-1.201-6.167-5.677-6.604-7.641-.436-1.965 1.31-3.984 2.238-5.894-1.037-.382-.273-1.309 0-2.455-1.53-2.195-.484-2.758-.538-4.068-.055-1.31 1.63-5.21 1.575-5.593-.055-.382-2.129-.654-3.275-1.2-1.146-.546-2.838-2.947-4.147-4.748-1.31-1.801-.164-2.074.327-3.11.491-1.038 5.13-3.876 6.767-5.076Z"/>
  <path fill="var(--sapContent_Illustrative_Color25)" d="M64.02 46.905c.58-.644 1.993-.607 2.772-.339l.362-.686c.457.215 1.136.43 2.102 1.59 1.209 1.45 4.35 2.416 2.498 2.416-1.853 0 2.094 1.853.724 1.853-5.324 0-6.772.646-6.927 2.456-.079.915 9.425 1.974 11.52 2.94 1.675.774.697 1.88 0 3.465-.457.644-1.386 2.03-1.45 2.416-.081.484 3.425 3.916-3.867 2.175-9.12-2.177-4.673.806-6.203 1.934-1.225.902-4.046 1.591-3.195 4.855-1.409-1.727-.721-3.952-.592-5.305.129-1.353.837-2.45 1.24-3.659-.875-.18-1.925.642-2.376 1.093-.45.452-4.043 4.495-5.447 7.01.778-1.53 2.162-5.405 3.552-6.461 1.036-.788 1.501-1.561 1.501-2.125 0-.564.675-.986 0-1.53-1.568-1.266 1.502-3.534 1.048-4.743-1.032-2.754 3.477-3.348 3.477-4.234 0-.886-2.189-1.818-2.833-2.14-.516-.258-.647-.413-.951-.747.657-.754 2.465-1.59 3.045-2.234Z"/>
  <path fill="var(--sapContent_Illustrative_Color24)" d="M64.07 46.83c-.327.236-.45.406-.89.732.475 1.158 2.929 2.127 4.363 2.917.896.493 4.105 1.707 5.461 1.146l-5.193-4.848c-.463-.129-1.512-.41-2.003-.5-.615-.114-1.328.257-1.738.553Z"/>
  <path fill="var(--sapContent_Illustrative_Color8)" d="M85.97 65.823c-.506-.304-1.723-.542-2.244-1.01-1.195-1.852-1.1-3.957 0-6.752.947-2.41 2.841-2.965 6.32-3.707 3.48-.74 7.615 4.962 7.99 5.395.658.761 1.647 2.12 1.667 3.52.02 1.4-.309 2.389-1.812 3.892-1.663 1.663-4.447 1.297-6.053 1.03-1.606-.268-2.615-.495-3.212-.803-.597-.31-1.73-1.01-2.656-1.565Zm-21.24-3.4.353-7.537 12.66 2.828-.772 7.575-12.24-2.866Z"/>
  <path fill="var(--sapContent_Illustrative_Color24)" d="m65.086 54.886 2.437-1.206 11.974 2.428-1.749 1.604-12.662-2.826Z"/>
  <path fill="var(--sapContent_Illustrative_Color1)" d="m78.245 63.694-1.274 1.595.772-7.577 1.749-1.605-1.247 7.587ZM65.73 56.105l10.938 2.374-.27 2.573-10.803-2.745.135-2.202Z"/>
  <path fill="var(--sapContent_Illustrative_Color8)" d="M66.726 45.381c0-.614.81-2.546 1.105-3.328 2.298-2.134 6.055-.939 11.447.298 4.053.93 6.055 2.091 6.895 3.414.84 1.323-.715 2.579-1.636 3.286-1.723 1.323-6.187 2.645-9.679 2.688-3.492.043-5.67-1.588-7.027-2.688-1.222-.99-1.105-2.902-1.105-3.67Z"/>
  <path fill="var(--sapContent_Illustrative_Color25)" d="M66.862 46.157c-.481-.756.33-2.526.645-3.127 1.417-4.21 15.645.184 16.89.442 1.246.258 2.276 1.374 0 3.522-2.276 2.147-8.503 2.577-11.38 2.319-2.878-.258-5.554-2.211-6.155-3.156Z"/>
  <path fill="var(--sapContent_Illustrative_Color8)" d="M89.902 55.712c.495-.906 1.195-.927 2.327-1.215 3.768-.391 6.005.544 7.062 1.215 1.462.927.515 1.894.7 2.862.149.774-.226 1.723-.432 2.1.062.625.025 2.232-.618 3.665-.803 1.791-2.903 2.368-4.447 2.327-1.544-.041-3.336-1.895-3.953-2.512-.495-.494-.467-1.387-.391-1.771.02-.583.049-1.767 0-1.832-.062-.083-.927-1.36-.989-1.977-.083-.83.247-1.956.741-2.862ZM57.888 82.499c.336-1.007 1.335-1.488 1.793-1.602.101.267.495 1.129 1.258 2.44.763 1.313 5.301 4.87 7.475 6.484l2.441 3.547c-.75.967-2.288 3.044-2.44 3.624-.191.724-.687.724-.573 1.105.092.306-.216 1.399-.381 1.831H55.257c.114-.75.274-2.57 0-3.242-.275-.67.47-2.237.877-2.936-.178-.547-.534-1.732-.534-2.098 0-.366.356-1.856.534-2.555-.051-.458-.122-1.526 0-2.136.152-.763 1.068-.381 1.144-.572.076-.19.19-2.632.61-3.89Z"/>
  <path fill="var(--sapContent_Illustrative_Color8)" d="M91.04 45.41c1.084 0 1.732 1.71 2.227 2.718.22 0 .803-.385 1.067-.868.33-.605.846-1.341 1.395-2.66.55-1.32 1.43-2.617 2.243-2.476 1.594.276-.115 2.35-.335 3.725.495-1.155 1.264-2.529 2.034-2.804.769-.275 1.236.279 1.236.883 0 .484-.728 2.247-1.495 3.735.312-.605 1.088-1.756 1.572-2.108.605-.44 1.253-.484 1.693.231.35.57-1.288 2.947-2.062 4.108.299-.446.618-.648 1.249-.91.977-.403 1.418.034 1.495.76.064.607-1.746 2.665-2.754 3.526a4.106 4.106 0 0 1-.83 1.464 3.883 3.883 0 0 1-3.128 3.704c-1.264.22-4.644-1.494-5.413-2.429-.77-.934-.194-1.53-.194-2.739-1.155-2.639-.081-3.13-.081-3.516 0-.384-.249-1.761-.579-2.75-.33-.99-.127-1.595.66-1.595Zm-6.226 44.525c-.03-.305-.445-1.525-.648-2.097-.649-.42-3.052-1.03-6.484-1.22-3.433-.191-7.246 2.783-7.59 3.317-.343.534-.61 1.945-.61 2.136 0 .19.305 1.487 0 1.754-.305.267 0 1.106 0 1.45 0 .343-.305.953-.61 1.373-.305.42-.076 1.068 0 1.296.061.183.382 1.425.56 1.985h13.081c.23-1.081.775-3.396.928-3.7.19-.382.457-1.526.724-1.984.267-.458 0-1.793.649-2.365.648-.572.038-1.563 0-1.945Z"/>
  <path fill="var(--sapContent_Illustrative_Color25)" d="m82.894 99.937 1.264-5.46c.627-3.431-.144-1.644-.245-1.306-.248.828-.262 1.798-3.366 1.712-1.624-.046.497.767 1.625.857 1.128.09 1.185 1.176.87 1.898-.317.723-1.57-.822-2.931-.191-1.088.504.797.562.436 1.375-.288.65-2.181.995-2.798 1.115h5.145Z"/>
  <path fill="var(--sapContent_Illustrative_Color22)" d="M82.793 87.657c1.564.231 1.934 1.293 1.923 1.796.288-.385.288-1.09.256-1.571-.032-.481-.819-.946-1.602-1.314-1.09-.513-4.759-.672-6.797-.417-2.82.353-4.52 1.57-5.642 2.276-1.122.705-1.602 1.442-1.667 1.763-.05.257.171.502.289.898.77-.909 2.847-2.334 5-3.206 2.732-1.106 6.284-.513 8.24-.225Z"/>
  <path fill="var(--sapContent_Illustrative_Color25)" d="M83.112 71.555c.129 2.835 1.407 3.995 1.89 4.156l1.332-9.392c2.868 1.888 3.4 1.32 5.075 2.094 2.095.967 5.282-.215 6.571-1.102 1.031-.709 2.169-3.329 1.646-4.698-.054-.779.277-2.371-.303-2.05-.725.404-5.82.842-3.886.842 1.934 0 3.094 2.094 1.614 3.187-.598.44-3.064.115-4.594-.61-1.531-.724-1.637-3.705-3.255-5.519-.84-.94 1.583 2.217.62 4.15-.403.807.62 2.563.62 3.046-1.424-.027-5.01-1.838-5.719-2.16-.886-.403-1.408-.885-1.408-3.221 0-2.336 4.463-5.32 3.408-4.912-.781.301-3.61 1.286-4.336 4.91-.725 3.626 1.208 4.512 1.772 5.157.564.644-1.208 2.577-1.047 6.122Z"/>
  <path fill="var(--sapContent_Illustrative_Color24)" d="M87.136 62.502c-.953-1.225-.159-5.075 1.487-5.332-2.268 0-2.494 3.912-2.494 4.876 0 .964.283 2.721-1.531 1.247-1.814-1.474.68-6.83 0-5.866-3.81 5.398-1.701 6.263-1.304 7.34.317.862 2.022 1.455 2.835 1.644.302.132 3.242 1.693 5.574 2.159 3.493.699 1.975-.53-.265-2.159-.447-.325-2.076-2.761-1.622-3.731-.473-.435-1.728 1.046-2.68-.178Z"/>
  <path fill="var(--sapContent_Illustrative_Color25)" d="M86.261 47.366c-.257.645-2.87 3.233-10.4 4.13 3.052.977 7.949-1.27 9.077-1.566-.08.269.269 1.003 1.558.68 1.61-.402-1.485 3.663-1.797 4.074-.502.657 3.393-3 4.736-3.187l-2.214-1.289c-.135-1.235-.702-3.486-.96-2.842Zm-35.48 26.06c-.9.138-3.938-.468-4.3-.577-.36-.11-1.012.054-1.012.054 1.766.787 6.867 2.793 7.074 2.447.26-.433.715-2.24.431-2.501-.276-.256-1.067.404-2.193.577Z"/>
  <path fill="var(--sapContent_Illustrative_Color24)" d="M49.096 76.345c1.642-1.344-.948-1.796-1.801-2.677 1.188.201 2.935.417 3.837.804 1.128.483 1.238-.24 1.861-.618-.181 2.03-1.27 2.193-1.861 2.542l-.751.457c.55.66-.08 2.575.106 4.208.174 1.52-.184 3.015-.668 2.774-.483-.242.148-2.776 0-3.65-.302-1.781-1.353-1.737-1.91-3.167-.206-.53.685-.262 1.187-.673Z"/>
  <path fill="var(--sapContent_Illustrative_Color25)" d="M73.469 77.5c-2.014 0-5.83-.26-10.018-1.066-.597-.115-1.212-2.276-1.768-1.495-.918 1.288-1.315 1.852-1.772 3.141-.488 2.382-.258 5.3 0 6.847.322 1.934 3.303 2.256 5.72 3.787 2.416 1.53-.806 0-2.82-.564s-1.208 0-.725.564c.484.564 2.845 1.257 2.845 2.626 0 1.37-2.442.676-2.845 1.32-.402.645 2.37.559 4.222 1.606 1.853 1.047 1.599 2.02 3.371-1.605.967-3.351-1.873-4.028-3.162-4.511-2.74-1.027-2.852-3.867-3.303-6.445-.564-3.222 6.122 3.061 6.928 1.29.805-1.773-1.853-2.82-3.625-4.029-1.772-1.208 1.495-.886 4.833-.886 3.323 0 4.132-.58 2.119-.58ZM62.735 96.521c.569.096 2.602.48 3.543.72 1.029.25.774 1.95.505 2.687H55.085c.271-1.731-.078-3.107-.138-3.407-.06-.3.34-1.954 1.063-2.552.141-.117-.308-2.788 0-2.273 1.361 2.273 1.226 2.976.927 3.295-.611.65-1.167 1.53-.927 2.25.192.577 7.042 1.083 6.125.601l-2.582-1.321c-.979-.445 1.865-.223 3.182 0Z"/>
  <path fill="var(--sapContent_Illustrative_Color25)" d="M72.23 95.246c-1.805.516.42 3.608.93 4.682h-3.41c.161-1.127-.253-1.988-.253-2.375 0-.484 2.578-3.518 1.208-4.324-1.095-.644-1.168-1.63-.953-2.516 0 0 3.578-2.858 5.626-3.123 2.047-.264-3.448 2.707-4.028 3.867-.725 1.45 6.364.483 6.928.644.985.282-2.498.323-5.478 1.934-2.98 1.61 1.708-1.312 4.914 0 1.95.798-3.23.567-5.485 1.211Z"/>
  <path fill="var(--sapContent_Illustrative_Color24)" d="M56.852 59.876c-.26-.583-.644-2.266-.698-3.099 1.102 1.618 3.598 3.878 5.129 4.79l-1.45 1.853c-.806-.993-2.474-2.408-2.98-3.544Z"/>
  <path fill="var(--sapContent_Illustrative_Color25)" d="M93.125 51.303c.064-.516.103-2.96.344-2.376.86 2.548 1.1.217 4.338 3.455 2.134 2.135-3.146 1.502-3.821 3.061-.861 1.988 3.805 2.985 2.255 2.985-1.842 0-5.391-2.005-5.595-3.27-.077-.477 1.033-.378 0-3.408-.214-.628 2.398.197 2.479-.447Z"/>
  <path fill="var(--sapContent_Illustrative_Color24)" d="M67.921 46.022c-1.167-1.303-1.127-1.508-.816-2.282.372-.924 11.287 1.655 14.514 2.572-3.778 2.48-5.954 2.054-8.052 2.054-2.06 0-4.656-1.24-5.645-2.344ZM66.159 33.34c.334-.88.923-.367 1.175 0 .127 2.136.069 6.394-1.175 6.334-1.555-.076-1.745-1.1-1.745-3.224s1.328-2.01 1.745-3.11Z"/>
  <path fill="var(--sapContent_Illustrative_Color8)" d="M69.466 29.886c2.552-2.412 5.592-3.124 9.41-2.739 3.008.304 5.738 2.193 7.328 4.359 1.813 2.468 1.813 6.98 1.658 8.754-.154 1.774-1.812 5.824-5.977 7.174-2.347.76-11.527 2.41-14.695-3.664-1.028-1.973-1.697-3.625-1.272-6.44.424-2.816.732-4.783 3.548-7.444Z"/>
  <path fill="var(--sapContent_Illustrative_Color25)" d="M83.328 28.463c2.192 1.215 3.505 3.538 3.781 4.169.665 1.518.684 2.888.684 3.99-1.007-4.608-5.062-8.159-11.186-8.159-4.124 0-4.205-.684-1.972-1.16 2.233-.477 5.954-.358 8.693 1.16Z"/>
  <path fill="var(--sapContent_Illustrative_Color24)" d="M73.234 27.497c-1.894.434-3.808 2.126-4.712 3.15-2.218 2.814-2.212 3.993-2.757 7.471-.546 3.48 1.947 6.542 1.947 6.542-1.383-3.939-.808-9.737 2.176-13.18 4.816-5.553 12.215-3.722 10.168-4.137-2.389-.483-4.476-.384-6.822.154Z"/>
  <path fill="var(--sapContent_Illustrative_Color22)" d="M74.578 47.71c4.737.124 7.934-1.832 8.94-2.825.181-.413.59-1.355.775-1.82-.968-.503-.774-1.47-.774-2.631 0-.93.697-1.497 1.045-1.665.077-.077.085-.642-.503-2.283-.736-2.052-2.787-4.22-6.658-5.458-3.87-1.238-6.308.31-8.553 1.82-2.245 1.509-2.206 7.044-1.974 8.515.232 1.47 1.78 6.192 7.702 6.347Z"/>
  <path fill="var(--sapContent_Illustrative_Color8)" d="M67.983 41.464c-1.335-4.511.885-7.617 2.18-8.386.656-.39-1.264 1.813-1.783 3.587-.816 2.792.355 6.13-.397 4.799Z"/>
  <circle cx="73.166" cy="33.436" r=".403" fill="var(--sapContent_Illustrative_Color8)"/>
  <circle cx="70.778" cy="34.735" r=".403" fill="var(--sapContent_Illustrative_Color8)"/>
  <circle cx="72.763" cy="38.21" r=".807" fill="var(--sapContent_Illustrative_Color8)"/>
  <path fill="var(--sapContent_Illustrative_Color24)" d="m83.54 64.795 2.89 1.645-1.395 8.821c-.1.88.054 1.77.293 2.527.299.947-.093 1.859-.293 2.307-.16.36.326 1.19.293 1.721-.399-.631-1.688-1.8-1.29-2.717.499-1.147.35-1.595-.498-4.585-.847-2.99-.498-5.144 0-6.938.399-1.436.332-2.581 0-2.78Z"/>
  <path fill="var(--sapContent_Illustrative_Color25)" d="M82.222 67.997c.247-.577.309-2.028.31-2.68l1.752.928c0 .43-.093 1.525-.464 2.474-.371.949.155 6.376.464 8.971-.344-.928-1.175-2.887-1.753-3.3-.722-.515-3.764-.257-3.351-.412.412-.155 2.01-.155 3.042-.412 1.03-.258.31-.98 0-1.547s-1.083-1.238-1.65-1.495c-.567-.258-.413-.31 0-.619.412-.31 1.34-1.186 1.65-1.908Z"/>
  <path fill="var(--sapContent_Illustrative_Color24)" d="M59.468 63.728v-3.473c.47.313 1.476.947 1.737.976.325.036.904-.796 1.628-1.736.724-.941.255-.128.924.967 1.216 1.995-.575 3.92-.732 3.908.17.832.01 1.695-.192 2.766-.253 1.338-1.628 2.402-.888 4.023.65 1.424-.74-.385-.74-1.63 0-.736.29-2.419.705-3.903.09-.321.508-1.395.923-2.55-.217-.036-.796.145-1.303.362-.506.217-1.59 2.807-3.33 3.698-.672.344-1.762 3.291-3.586 4.445.591-1.134 1.678-1.971 1.824-4.089.095-1.374 3.03-3.547 3.03-3.764Z"/>
  <path fill="var(--sapContent_Illustrative_Color25)" d="M83.726 39.604c.334-.471 1.294-.757 1.66-.765-.46.383-.945.69-1.022 2.018-.076 1.33.943 1.888.413 1.888-.492 0-.889.076-1.17-.486-.28-.562-.401-1.923.119-2.655Z"/>
  <path fill="var(--sapContent_Illustrative_Color22)" d="M60.022 82.327c-.427-.844-.574-2.098-.156-2.516.23.272.607 1.77 1.874 3.227.922 1.06 3.921 3.869 7.998 6.628l.104 1.422c-.94-.564-3.166-2.125-4.77-3.279-2.007-1.442-4.408-4.216-5.05-5.482Zm21.302-24.908c.75-2.719 3.645-6.884 4.66-6.923l1.121-.33c.524-.164 2.572 1.094 1.42.959-1.09-.128-5.36 5.415-5.739 6.724-.378 1.31-.633 3.008-.297 5.21.269 1.761 2.724 3.08 3.94 3.496l.964.518c-1.095 1.524-3.032.743-4.904-1.601-2.17-2.717-2.102-4.656-1.165-8.053ZM63.22 54.807c.29-1.742 1.125-8.017 2.439-8.553h1.082s-.004.244.078.885c-.62.462-.688 1.754-.906 2.153-.272.499-1.925 11.26-1.698 12.213.182.762-1.365 2.343-1.864 2.933l.398-1.448c.12-2.117.18-6.44.47-8.183Z"/>
  <path fill="var(--sapContent_Illustrative_Color25)" d="M86.878 42.364c-1.01 1.147-1.985.712-2.6.7 0 .18-.5 1.175-1.091 1.9-.591.726-1.873 1.499-4.312 2.267 0 0 2.171-.067 3.26-.512 1.09-.446 2.158-2.222 2.753-2.063.764.203 2.336-2.684 1.99-2.292Z"/>
</svg>
