<svg id="tnt-Dialog-Company" xmlns="http://www.w3.org/2000/svg" width="160" height="160" fill="none" viewBox="0 0 160 160">
  <rect width="160" height="69" y="50" fill="var(--sapContent_Illustrative_Color20)" rx="12"/>
  <path fill="var(--sapContent_Illustrative_Color2)" d="m54.85 100.827 18.813-.876V34L54.438 45.152l.412 55.675Z"/>
  <path fill="var(--sapContent_Illustrative_Color27)" d="m70.681 61.059-13.721 5.61.03 2.749 13.695 2.754-.004-11.113Z"/>
  <path fill="var(--sapContent_Illustrative_Color13)" d="m94.56 108.094-20.898 3.274V34l20.897 8.202v65.892Z"/>
  <path fill="var(--sapContent_Illustrative_Color14)" d="M92.445 76.507 76.47 74.835V37.078l15.975 6.038v33.391Zm0 35.068-15.975 2.916V76.728l15.975 1.456v33.391Z"/>
  <path fill="var(--sapContent_Illustrative_Color13)" d="m81.348 38.35-.019 36.914h-1.516l.019-36.914h1.516Zm4.557 1.088-.045 37.093-1.516-.002.045-37.092 1.516.001Zm3.905 2.056v34.66h-1.515v-34.66h1.516Z"/>
  <path fill="var(--sapContent_Illustrative_Color14)" d="M64.537 65.558v18.178l19.894-6.963-19.894-11.215Z"/>
  <path fill="var(--sapContent_Illustrative_Color13)" d="m66.814 68.93 16.953 8.576-5.699 1.775-11.22-3.865-.034-6.485Zm-.03 7.52.035 6.568 10.345-3.294-10.38-3.275Z"/>
  <path fill="var(--sapContent_Illustrative_Color14)" d="m119.11 126.499-21.3.226v-55.03l21.221 10.94.079 43.864Z"/>
  <path fill="var(--sapContent_Illustrative_Color13)" d="M40.144 126.725V77.383l24.393-11.825.083 18.045 33.26-11.894-.025 55.016h-57.71Zm77.58-35.521-17.765-7.587v-8.678l17.706 9.302.059 6.963Zm-.113 7.897-17.652-5.36v-8.673l17.593 7.076.059 6.957Zm-.005 8.265-17.721-3.309v-8.673l17.662 5.035.059 6.947Zm.152 8.393-17.883-1.632v-8.679l17.824 3.363.059 6.948Zm-.074 8.33-17.878.433v-8.673l17.819 1.303.059 6.937Z"/>
  <path fill="var(--sapContent_Illustrative_Color27)" d="M65.274 85.982 95.917 75.75l.015 5.817-30.643 8.57-.015-4.155Zm.016 8.453 30.637-7.489.005 5.827-30.643 6.077v-4.415Zm0 8.57 30.642-5.502v5.846l-30.643 4.067v-4.411Zm0 8.63 30.642-3.634v5.856l-30.643 2.183v-4.405Zm.024 8.393 30.617-1.303v5.571H65.314v-4.268ZM41.977 79.6l20.042-8.584.025 4.066-20.027 8.113-.04-3.594Zm.04 7.134 20.066-7.454.024 4.106-20.09 6.977v-3.629Zm-.04 6.876 20.096-6.167.02 4.136-20.116 5.689v-3.659Zm.04 6.618 20.041-5.044.025 4.17-20.066 4.552v-3.678Zm-.04 6.902 20.072-3.702.024 4.204-20.056 3.201-.04-3.703Zm.054 6.875 20.008-2.503.02 4.238-20.042 1.997.014-3.732Zm-.014 6.923 20.007-1.175.03 4.538-20.037.384v-3.747Zm28.058-79.701-13.13 6.963.007 14.38 13.168-5.524-.045-15.82Z"/>
</svg>
