<svg id="tnt-Spot-Secrets" xmlns="http://www.w3.org/2000/svg" width="128" height="128" fill="none" viewBox="0 0 128 128">
  <path fill="var(--sapContent_Illustrative_Color8)" d="M48.048 41.959s.038.024.055.038a.54.54 0 0 1-.086-.07c.01.011.017.022.03.029v.003Zm.309.204-.09-.052c.027.018.059.035.09.052Zm.264.133s.011 0 .015.007a.047.047 0 0 1-.022-.007h.007Zm.396.135-.055-.017c.017.007.038.01.055.017Z"/>
  <rect width="128" height="55" y="40" fill="var(--sapContent_Illustrative_Color20)" rx="8"/>
  <path fill="var(--sapContent_Illustrative_Color21)" d="m47.5 91.127 27.077-2.784 4.128-.635.109-.011.347-.034c.222-.023.388-.057.493-.099.114-.041.166-.094.163-.15 0-.058-.06-.122-.17-.186a2.707 2.707 0 0 0-.498-.193l-17.579-5.12a6.528 6.528 0 0 0-.712-.158 12.84 12.84 0 0 0-.826-.113 12.214 12.214 0 0 0-.844-.053 8.1 8.1 0 0 0-.758.015l-1.907.143-.166.012-1.09.083-.862.064-8.816-2.641c-1.23-.37-2.707-.7-4.32-.975a70.073 70.073 0 0 0-5.164-.68 77 77 0 0 0-5.416-.325c-1.783-.041-3.513-.019-5.07.09l-1.093.076c-1.575.106-2.83.284-3.769.518-.938.234-1.541.518-1.794.843-.252.325-.154.683.324 1.058.479.377 1.33.766 2.582 1.156l8.688 2.697-1.636.125c-.32.023-.576.064-.765.114-.173.045-.286.105-.339.17-.011.007-.023.01-.03.018l-.106.06-.245.14s-.034.02-.049.027a.168.168 0 0 0-.034.019l-.03.015-.019.011a1.31 1.31 0 0 1-.105.06l-.162.095-.034.02c-.015.01-.042.022-.06.033l-.377.216s-.008.007-.012.007a2.39 2.39 0 0 1-.147.083c-.06.038-.101.076-.116.117-.016.042 0 .084.037.129a.58.58 0 0 0 .196.136c.09.045.211.094.354.14l16.581 5.3c.256.084.562.156.893.212a13.37 13.37 0 0 0 2.148.196c.355 0 .69-.007.992-.04m-11.918-7.784-8.714-2.687c-.694-.211-1.165-.43-1.425-.638-.26-.208-.31-.408-.158-.59.147-.181.497-.343 1.032-.476.535-.132 1.255-.234 2.156-.298l1.09-.076c.897-.064 1.884-.08 2.906-.06 1.017.022 2.069.083 3.098.177 1.029.095 2.024.22 2.944.378.92.155 1.748.34 2.434.548l8.787 2.653-14.15 1.076v-.007Z"/>
  <path fill="var(--sapContent_Illustrative_Color16)" d="M59.93 29.192c1.7-.102 3.389.143 4.98.672a14.59 14.59 0 0 1 4.402 2.377 15.309 15.309 0 0 1 3.403 3.706 14.024 14.024 0 0 1 1.96 4.704L77.3 52.826l-5.372.472-2.393-12.227a7.625 7.625 0 0 0-1.112-2.641 8.328 8.328 0 0 0-1.96-2.075 8.547 8.547 0 0 0-2.544-1.318 7.804 7.804 0 0 0-2.872-.352l-1.195.084a6.842 6.842 0 0 0-2.688.744 6.125 6.125 0 0 0-2.008 1.666 6.174 6.174 0 0 0-1.131 2.354 6.57 6.57 0 0 0-.042 2.796l2.367 12.344-5.593.491-2.277-12.385c-.339-1.776-.294-3.488.072-5.063a10.924 10.924 0 0 1 1.99-4.225 10.652 10.652 0 0 1 3.52-2.947c1.391-.725 2.96-1.167 4.682-1.273l1.19-.072-.003-.007Zm28.167 51.227-5.356 1.685-.392.068 5.34-1.677.408-.072v-.004Z"/>
  <path fill="var(--sapContent_Illustrative_Color29)" d="m87.69 80.491-5.34 1.678-31.586 5.467 3.897-1.504 33.03-5.64Z"/>
  <path fill="var(--sapContent_Illustrative_Color28)" d="M89.56 78.806a2.09 2.09 0 0 1-.238.756c-.12.227-.282.42-.482.567a1.497 1.497 0 0 1-.682.29l-.407.072-33.116 5.642a2.465 2.465 0 0 1-1.078-.05 2.809 2.809 0 0 1-.962-.468 3.068 3.068 0 0 1-.738-.816 3.14 3.14 0 0 1-.411-1.08l-4.55-25.554a2.474 2.474 0 0 1 .43-1.946c.192-.26.437-.48.724-.639.286-.162.614-.264.969-.294l2.023-.178.22-.019 2.604-.23.215-.02 10.629-.932 12.272-1.077.106-.008 1.142-.098 1.206-.102.184-.015 2.115-.185c.252-.023.505.015.746.094.245.083.471.215.679.382.207.166.388.374.535.608.147.234.264.491.324.775l5.488 23.671c.068.299.08.594.049.865v-.007l.004-.004Z"/>
  <path fill="var(--sapContent_Illustrative_Color16)" d="M53.586 86.084a2.844 2.844 0 0 1-.96-.47 3.109 3.109 0 0 1-.74-.811 3.139 3.139 0 0 1-.41-1.081l-4.539-25.553a2.587 2.587 0 0 1 .08-1.266 2.394 2.394 0 0 1 .633-.998l-.268.25c-.03.03-.064.06-.09.087l-.234.219-.532.495c-.037.034-.075.072-.105.098-.023.019-.045.041-.072.064l-.064.057s-.03.026-.041.038c-.072.068-.155.143-.234.219l-.358.336-.08.076a2.12 2.12 0 0 1-.127.117l-.822.77-.03.03-.32.3a2.3 2.3 0 0 0-.362.43 2.276 2.276 0 0 0-.362 1.1c-.015.2 0 .411.03.623L47.74 85.38a2.84 2.84 0 0 0 1.074 1.783c.276.208.58.355.909.442.328.083.67.102 1.021.042l3.898-1.508a2.502 2.502 0 0 1-1.075-.049h.008l.011-.007Z"/>
  <path fill="var(--sapContent_Illustrative_Color3)" d="M47.266 58.165a2.473 2.473 0 0 1 .43-1.946c.192-.26.437-.48.723-.639.286-.162.614-.264.969-.294l2.016-.178.219-.019 2.597-.23.215-.02 10.599-.932 12.242-1.077.102-.008 1.138-.098 1.202-.102.185-.015 2.107-.185a1.84 1.84 0 0 1 .742.094c.242.083.468.215.675.382.207.166.388.374.535.608.147.234.26.491.324.775l5.473 23.671c.068.299.083.594.05.865a2.111 2.111 0 0 1-.238.756c-.12.227-.283.42-.479.567a1.498 1.498 0 0 1-.682.29l-.407.073"/>
  <path fill="var(--sapContent_Illustrative_Color27)" d="m64.076 55.085 18.846-1.757 6.686 25.33-25.536-23.573h.004Z"/>
  <path fill="var(--sapContent_Illustrative_Color29)" d="M79.183 59.14a3.825 3.825 0 0 1 1.511.192c.49.163.954.416 1.372.74a5.012 5.012 0 0 1 1.772 2.691l.573 2.233c.143.563.177 1.119.11 1.636-.069.518-.23.998-.476 1.42a3.3 3.3 0 0 1-.976 1.055c-.4.272-.87.46-1.39.537L56.68 73.169l-.045.007c-.015.004-.03 0-.045.004h-.046c-.015.004-.03 0-.045.004a4.16 4.16 0 0 1-1.643-.174 4.896 4.896 0 0 1-1.49-.767 5.109 5.109 0 0 1-1.167-1.247 4.874 4.874 0 0 1-.69-1.61l-.54-2.376a4.361 4.361 0 0 1-.052-1.72c.094-.54.294-1.046.584-1.484a3.548 3.548 0 0 1 1.112-1.085 3.74 3.74 0 0 1 1.527-.536l24.891-3.046s.027 0 .038-.003c.011-.004.026 0 .038-.004h.075v.008Z"/>
  <path fill="var(--sapContent_Illustrative_Color8)" d="M78.603 59.778a3.797 3.797 0 0 1 1.507.193c.49.162.954.416 1.372.744a4.968 4.968 0 0 1 1.771 2.69l.427 1.697c.143.567.173 1.118.109 1.636-.064.518-.23.998-.475 1.42-.249.424-.58.783-.98 1.055a3.3 3.3 0 0 1-1.395.533l-23.941 3.366s-.027.004-.042.004h-.041c-.015.004-.027 0-.042.004h-.041a4.167 4.167 0 0 1-1.644-.174 4.85 4.85 0 0 1-1.488-.767 5.18 5.18 0 0 1-1.169-1.247 4.796 4.796 0 0 1-.69-1.61l-.407-1.79a4.435 4.435 0 0 1-.056-1.72 3.88 3.88 0 0 1 .584-1.485 3.66 3.66 0 0 1 1.108-1.084 3.716 3.716 0 0 1 1.523-.533l23.844-2.928h.083c.015-.004.026 0 .041-.004.015-.004.026 0 .042 0Z"/>
  <path fill="var(--sapContent_Illustrative_Color30)" d="m59.093 67.985-1.297.359c-.033.007-.04.049-.018.08l1.059 1.182c.105.117.098.29-.023.374l-.41.272c-.114.076-.28.038-.37-.083l-.874-1.194c-.023-.034-.072-.034-.083 0l-.566 1.205c-.056.121-.21.163-.343.09l-.482-.26c-.14-.08-.2-.253-.125-.374l.74-1.194c.018-.03 0-.072-.038-.08l-1.372-.324c-.151-.038-.257-.185-.227-.325l.098-.503c.03-.14.174-.215.32-.158l1.324.483c.037.015.068-.011.064-.049l-.245-1.406a.222.222 0 0 1 .222-.268l.502-.007a.3.3 0 0 1 .294.264l.139 1.394c0 .038.045.06.075.05l1.172-.495c.129-.057.29.015.362.15l.242.488c.067.14.007.295-.132.333h-.008v-.004Zm6.773-1.021-1.296.36c-.034.007-.042.048-.019.079l1.06 1.182c.105.117.097.291-.023.374l-.411.272c-.113.076-.28.038-.37-.087l-.874-1.194c-.023-.034-.072-.034-.087 0l-.565 1.206c-.057.12-.211.162-.343.09l-.483-.26c-.14-.08-.2-.253-.124-.374l.739-1.194c.019-.03 0-.072-.038-.08l-1.372-.325c-.15-.037-.256-.185-.226-.325l.098-.502c.03-.14.173-.215.32-.159l1.323.484c.038.015.068-.011.064-.05l-.245-1.405a.219.219 0 0 1 .223-.264l.501-.008a.3.3 0 0 1 .294.26l.14 1.395c0 .038.045.06.071.05l1.172-.496c.128-.056.29.015.362.151l.241.488c.068.14.008.294-.132.332Zm6.491-1.046-1.297.358c-.034.008-.041.05-.019.08l1.06 1.183c.105.117.097.29-.023.374l-.411.272c-.113.075-.279.037-.37-.084l-.874-1.194c-.022-.033-.071-.033-.083 0l-.565 1.206c-.057.12-.211.162-.343.094l-.483-.26c-.139-.08-.2-.254-.124-.374l.739-1.194c.019-.03 0-.072-.038-.08l-1.372-.325c-.15-.038-.256-.185-.226-.325l.098-.502c.03-.14.173-.216.32-.159l1.323.484c.038.015.068-.012.064-.05l-.245-1.405a.222.222 0 0 1 .223-.268l.501-.008a.3.3 0 0 1 .294.26l.14 1.395c0 .038.045.06.075.05l1.172-.496c.128-.056.29.015.362.151l.241.488c.068.14.008.295-.132.332h-.007v-.003Zm6.668-1.206-1.297.36c-.034.007-.041.048-.019.079l1.06 1.182c.105.117.097.291-.023.374l-.411.272c-.113.076-.28.038-.37-.083l-.874-1.194c-.023-.034-.072-.034-.087 0l-.565 1.206c-.057.12-.211.162-.343.09l-.483-.26c-.139-.08-.2-.254-.124-.374l.739-1.194c.019-.03 0-.072-.038-.08l-1.372-.325c-.15-.037-.256-.185-.226-.325l.098-.502c.03-.14.174-.216.32-.159l1.323.484c.038.015.068-.012.064-.05l-.245-1.405a.222.222 0 0 1 .223-.268l.501-.008a.3.3 0 0 1 .294.265l.14 1.394c0 .038.045.06.071.05l1.172-.496c.129-.057.29.015.362.151l.241.488c.068.14.008.294-.131.332h-.008l.008-.004Z"/>
  <path fill="var(--sapContent_Illustrative_Color29)" d="M68.807 32.274c-1.308-.453-2.54-1.25-3.901-1.673-1.361-.424-2.797-.684-4.233-.692-2.83-.015-5.793 1.032-7.712 3.223-1.244 1.42-1.986 3.257-2.303 5.139-.558 3.306.132 6.646.807 9.88.482 2.309.934 4.515 1.417 6.824-.573.057-1.12.095-1.692.148-.426-2.192-.848-4.266-1.278-6.458-.441-2.263-.95-4.538-1.06-6.85-.101-2.188.159-4.428 1.086-6.408 1.497-3.204 4.621-5.354 7.99-6.004 3.717-.718 8.007.245 10.879 2.879v-.008Z"/>
  <path fill="var(--sapContent_Illustrative_Color29)" d="m71.927 53.298 1.787-.159c-.58-2.754-1.165-5.463-1.745-8.218-.611-2.898-1.003-5.985-2.99-8.324-1.986-2.339-4.552-2.456-6.95-1.96 0 0 5.39.453 6.789 5.013l3.11 13.648Zm-16.852 1.368c-.087.155-.264.11-.584.159-.807-4.413-1.61-8.83-2.416-13.244-.098-.536-.196-1.076-.227-1.62-.158-3 1.067-7.078 4.132-7.807-1.52 1.542-2.586 3.321-2.94 5.573-.445 2.823.173 5.596.648 8.355 0 .736.271 1.575.4 2.304l.414 2.4.415 2.399c.064.366.248.88.214 1.25a.718.718 0 0 1-.052.235v-.008l-.004.004Z"/>
  <path fill="var(--sapContent_Illustrative_Color8)" d="m74.524 53.067-1.365-6.434c-.505-2.21-.716-4.455-1.262-6.601-.543-2.131-1.527-4.243-3.415-5.698-1.832-1.447-4.338-2.305-6.834-2.06 3.766-.525 7.69 1.463 9.495 4.437 1.84 2.992 2.08 6.517 3 9.733l1.738 6.502-1.357.117v.004ZM55.083 54.78l-1.602-6.79c-.449-2.241-1.206-4.391-1.587-6.594-.384-2.184-.328-4.534.878-6.665 1.161-2.105 3.332-3.6 5.858-4.432-3.879 1.11-6.936 4.24-7.422 7.734-.509 3.522.761 6.858 1.24 10.198L53.5 54.92l1.277-.113.272-.027h.034Z"/>
</svg>
