<svg id="tnt-Scene-CodePlaceholder" xmlns="http://www.w3.org/2000/svg" width="320" height="240" fill="none" viewBox="0 0 320 240">
  <rect width="320" height="240" fill="var(--sapContent_Illustrative_Color20)" rx="24"/>
  <path fill="var(--sapContent_Illustrative_Color21)" d="M255 43a8 8 0 0 1 8 8v164a8 8 0 0 1-8 8H91a8 8 0 0 1-8-8v-2h162a8 8 0 0 0 8-8V43h2Z"/>
  <path fill="var(--sapContent_Illustrative_Color8)" d="M67 35a8 8 0 0 1 8-8h170a8 8 0 0 1 8 8v170a8 8 0 0 1-8 8H75a8 8 0 0 1-8-8V35Z"/>
  <path fill="var(--sapContent_Illustrative_Color21)" d="M78 198v-4.643a2 2 0 0 1 4 0V198h4.643a2 2 0 1 1 0 4H82a4 4 0 0 1-4-4Zm30.929 0a2 2 0 0 1 0 4h-9.286a2 2 0 0 1 0-4h9.286Zm22.285 0a2 2 0 0 1 0 4h-9.285a2 2 0 1 1 0-4h9.285Zm22.286 0a2 2 0 1 1 0 4h-9.286a2 2 0 0 1 0-4h9.286Zm22.286 0a2 2 0 0 1 0 4H166.5a2 2 0 1 1 0-4h9.286Zm22.285 0 .205.011a1.999 1.999 0 0 1 0 3.978l-.205.011h-9.285a2 2 0 0 1 0-4h9.285Zm22.286 0 .205.011a1.999 1.999 0 0 1 0 3.978l-.205.011h-9.286a2 2 0 0 1 0-4h9.286ZM238 198v-4.643a2 2 0 0 1 4 0V198a4 4 0 0 1-4 4h-4.643a2 2 0 0 1 0-4H238ZM78 180.357v-9.286a2 2 0 0 1 4 0v9.286a2 2 0 1 1-4 0Zm160 0v-9.286a2 2 0 0 1 4 0v9.286a2 2 0 0 1-4 0ZM78 158.071v-9.285a2 2 0 0 1 4 0v9.285a2 2 0 1 1-4 0Zm160 0v-9.285a2 2 0 0 1 4 0v9.285a2 2 0 1 1-4 0ZM78 135.786V126.5a2 2 0 1 1 4 0v9.286a2 2 0 1 1-4 0Zm160 0V126.5a2 2 0 1 1 4 0v9.286a2 2 0 0 1-4 0ZM78 113.5v-9.286a2 2 0 1 1 4 0v9.286a2 2 0 1 1-4 0Zm160 0v-9.286a2 2 0 0 1 4 0v9.286a2 2 0 1 1-4 0ZM78 91.214v-9.285a2 2 0 1 1 4 0v9.285a2 2 0 0 1-4 0Zm160 0v-9.285a2 2 0 1 1 4 0v9.285a2 2 0 1 1-4 0ZM78 68.929v-9.286a2 2 0 0 1 4 0v9.286a2 2 0 0 1-4 0Zm160 0v-9.286a2 2 0 0 1 4 0v9.286a2 2 0 1 1-4 0ZM78 46.643V42a4 4 0 0 1 4-4h4.643a2 2 0 0 1 0 4H82v4.643a2 2 0 0 1-4 0Zm160 0V42h-4.643a2 2 0 0 1 0-4H238a4 4 0 0 1 4 4v4.643a2 2 0 1 1-4 0ZM108.929 38l.204.01a2 2 0 0 1 0 3.98l-.204.01h-9.286a2 2 0 0 1 0-4h9.286Zm22.285 0a2 2 0 0 1 0 4h-9.285a2 2 0 1 1 0-4h9.285Zm22.286 0 .204.01a2 2 0 0 1 0 3.98l-.204.01h-9.286a2 2 0 1 1 0-4h9.286Zm22.286 0 .204.01a2 2 0 0 1 0 3.98l-.204.01H166.5a2 2 0 1 1 0-4h9.286Zm22.285 0a2 2 0 1 1 0 4h-9.285a2 2 0 0 1 0-4h9.285Zm22.286 0a2 2 0 1 1 0 4h-9.286a2 2 0 0 1 0-4h9.286Z"/>
</svg>
