<svg id="tnt-Dot-Radar" xmlns="http://www.w3.org/2000/svg" width="45" height="45" fill="none" viewBox="0 0 45 45">
  <path fill="var(--sapContent_Illustrative_Color8)" d="M18.828 10.467s.021.013.03.021a.3.3 0 0 1-.047-.038c.006.006.01.012.017.015v.002Zm.166.111-.049-.028c.015.01.032.019.05.028Zm.139.07s.005 0 .007.004a.022.022 0 0 1-.01-.004h.003Zm.211.072-.029-.01.03.01Z"/>
  <path fill="var(--sapContent_Illustrative_Color2)" d="M19.393 10.733h.009l-.057-.014a.7.7 0 0 0 .05.014h-.002Zm-.078-.022Zm-.283-.111a.739.739 0 0 0-.037-.022l.037.022Zm-.089-.052c-.031-.019-.058-.039-.086-.059.028.02.055.042.086.059Zm-.152-.113.022.017a.728.728 0 0 1-.066-.064c.015.014.03.03.044.046v.001Zm-.271-.457a.96.96 0 0 0 .087.237c.026.05.063.092.1.133a.839.839 0 0 1-.187-.37Z"/>
  <path fill="var(--sapContent_Illustrative_Color13)" d="M22.665 40.017h9.168l-.087-.29-.087-.29-2.039-6.768-.174-.58-2.2-7.32-2.333 7.756-.188.637-1.89 6.278-.088.29-.087.29.005-.003Z"/>
  <path fill="var(--sapContent_Illustrative_Color14)" d="M24.962 32.81c1.655.307 3.127-.428 4.271-1.42l-2.012-6.53-2.257 7.951-.002-.002Z"/>
  <path fill="var(--sapContent_Illustrative_Color22)" d="M22.154 30.556c.377.375.78.691 1.204.957 2.02 1.26 4.459 1.237 5.915-.218 1.06-1.057 1.36-2.638.953-4.197-.264-1.027-.835-2.039-1.692-2.896-2.17-2.165-5.353-2.496-7.117-.737-1.764 1.753-1.43 4.937.74 7.096v-.005h-.003Z"/>
  <path fill="var(--sapContent_Illustrative_Color13)" d="M22.418 30.133c.377.375.78.692 1.203.958 2.021 1.26 4.457 1.236 5.916-.218 1.06-1.058 1.36-2.639.953-4.198-.264-1.027-.835-2.038-1.692-2.895-2.17-2.166-5.353-2.497-7.117-.737-1.764 1.753-1.43 4.936.739 7.095v-.005h-.002Z"/>
  <path fill="var(--sapContent_Illustrative_Color14)" d="M23.687 31.402c.493.205.986.342 1.476.427a19.689 19.689 0 0 0 3.576-4.533c.41-.715.774-1.435 1.086-2.161-.637-.848-1.552-1.566-2.671-2.034-2.832-1.176-5.902-.27-6.862 2.025-.96 2.292.563 5.107 3.395 6.278v-.002Z"/>
  <path fill="var(--sapContent_Illustrative_Color13)" d="M19.73 42.118H34.3V40.02H19.73v2.098Z"/>
  <path fill="var(--sapContent_Illustrative_Color22)" d="M22.664 40.017h9.169l-.087-.29h-8.997l-.087.29h.002Z"/>
  <path fill="var(--sapContent_Illustrative_Color14)" d="m26.455 32.794-1.541 6.936-1.65.3v2.087h-3.537V40.02l2.98-.147 2.207-7.348 1.541.266v.003Z"/>
  <path fill="var(--sapContent_Illustrative_Color22)" d="m25.605 32.42-2.514 7.453-2.808.27v1.973h-.556V40.02l3.024-.292 2.252-7.495h.748l-.144.188h-.002Z"/>
  <path fill="var(--sapContent_Illustrative_Color8)" d="M30.11 26.803s.707 2.985-1.112 4.058c0 0 1.289-1.817.996-4.021-.294-2.204.118-.037.118-.037h-.002Z"/>
  <path fill="var(--sapContent_Illustrative_Color13)" d="M28.575 27.47c10.96-7.505 17.259-17.361 14.075-22.01-3.183-4.648-14.648-2.333-25.607 5.172C6.086 18.14-.215 27.993 2.968 32.642c3.184 4.648 14.648 2.333 25.607-5.172Z"/>
  <path fill="var(--sapContent_Illustrative_Color25)" d="M27.94 26.9C38.9 19.395 45.2 9.539 42.015 4.89 38.832.242 27.37 2.56 16.41 10.067 5.451 17.57-.85 27.423 2.336 32.072c3.183 4.648 14.648 2.333 25.607-5.172h-.003Z"/>
  <path fill="var(--sapContent_Illustrative_Color21)" d="M35.178 19.826s-1.402 1.01-4.117 1.577a4.05 4.05 0 0 0 .596-1.027s.222-.436.13-.72c4.028-7.511 1.889-15.682 1.889-15.682l-.395.84c1.426 8.528-1.158 14.024-1.53 14.76-.105-.166-.37-.24-.951-.055 0 0-.984.24-3.506 2.257h-.371v-.203h-.452l-.191.157-.142-.157v-.319l-.69-.12-1.401 1.324.37.144h.772l.38-.469s.216.69 1.094.024l.678-.024s-1.794 1.806-.843 2.117c0 0 .091 0 .25-.021-6.393 4.764-13.37 6.297-17.62 6.783a4.526 4.526 0 0 1-.902-.968c-2.105-3.07-.064-8.415 4.722-13.852.98.651 5.558 3.619 10.464 5.379l-10.165-5.715c2.414-2.68 5.488-5.373 9.055-7.817 3.164-2.168 6.37-3.899 9.407-5.16-4.322 1.122-9.326 3.442-14.232 6.802C6.514 17.186.21 27.037 3.396 31.686c2.263 3.305 8.72 3.09 16.2-.016-4.208 1.093-7.762 1.047-9.94-.285 11.438-2.032 16.467-6.297 17.443-7.222a4.332 4.332 0 0 0 2.08-1.13s.997-.568 1.773-1.504c1.442-.246 3.092-.66 4.583-1.358 0 0 .82-.005.82-.803 0 0-.656-.665-1.18.452l.003.006Zm-8.04 2.074h-.004.007-.002Z"/>
  <path fill="var(--sapContent_Illustrative_Color14)" d="m12.523 8.867-.059 1.156.201 5.913-.709-.8-.222-5.477-.408-.238 1.173-.955.022.403.002-.002Z"/>
  <path fill="var(--sapContent_Illustrative_Color14)" d="m15.717 6.95-1.003-.123a7.78 7.78 0 0 0 .523-.523l.864-.678 17.18-.813.394-.84-17.32.822s-.104-.006-.616.493l-.04.046a.296.296 0 0 0-.032-.046l-2.074-2.49c.002.05.005.096-.01.144-.238.841-2.58 2.555-3.396 3.002-.325.179-.715.393-1.088.408l1.902 2.337-1.08.87-5.858 22.206h.917l5.896-21.983 1.644-1.234-.041-.04c.44-.257.918-.595 1.365-.946h.107l.983-.157L35.8 20.082l.634-.667L15.717 6.949Z"/>
  <path fill="var(--sapContent_Illustrative_Color22)" d="M24.21 22.743c1.361-.931 2.102-2.211 1.662-2.859-.443-.645-1.906-.416-3.266.515-1.359.93-2.102 2.21-1.662 2.858.443.648 1.906.417 3.267-.514Z"/>
  <path fill="var(--sapContent_Illustrative_Color8)" d="M24.188 22.594c1.128-.772 1.825-1.708 1.561-2.091-.261-.384-1.389-.07-2.516.7-1.127.771-1.825 1.707-1.561 2.09.264.384 1.389.073 2.516-.7Z"/>
  <path fill="var(--sapContent_Illustrative_Color13)" d="M24.223 21.024c-.798-1.278-1.602-2.547-2.385-3.831-.048-.079-.094-.157-.161-.22-.146-.14-.415-.142-.609-.149a1.493 1.493 0 0 0-.427.053c-.133-.316-.264-.633-.4-.949l-.313-.748c-.05-.115-.11-.403-.205-.488-.21-.179-.563-.035-.77.074a.995.995 0 0 0-.31.227c-.045.052-.263.42-.2.486.534.54 1.049 1.106 1.574 1.66.033.032.061.065.094.098-.166.226-.283.562-.198.809.03.089.087.167.144.246.335.458.673.913 1.005 1.376.678.94 1.354 1.88 2.03 2.821.318-.015.639-.09.9-.264.236-.157.454-.373.504-.654.041-.229-.161-.368-.275-.55l.002.003Z"/>
  <path fill="var(--sapContent_Illustrative_Color22)" d="m15.717 7.26 6.24 3.768-6.366-3.735-.011-.007-.013-.004-.552-.173.702.15Zm-.056-1.912.046.059-.016.04c-.059.151-.279.529-1.057 1.314l-.1.1c-.031.03-.062.06-.094.094L12.377 4.42l.133-.124c.126-.12.296-.288.469-.476.172-.187.349-.397.488-.6a2.1 2.1 0 0 0 .21-.374l1.984 2.5Zm17.642-.99-16.992.78h-.022l-.02.009-.425.194.613-.438 16.841-.567v.022h.005Zm-20.811 4.13-1.215.912.456.26.556.296.225 5.784.12.103-.14-7.353-.002-.002Z"/>
  <path fill="var(--sapContent_Illustrative_Color8)" d="m11.985 9.79.08 5.342-.29-5.458.21.115Z"/>
  <path fill="var(--sapContent_Illustrative_Color14)" d="M19.04 14.753s.281-.153.65-.076l1.066 2.21s.608-.296.992.297c.386.593 2.85 4.326 2.85 4.326s-.063.273-.355.515c-.103.085-3.147-4.998-3.622-4.991l-1.173-2.004-.408-.277Z"/>
  <path fill="var(--sapContent_Illustrative_Color8)" d="m19.04 14.753.024-.01.475.108 1.093 2.19.813.252 3.03 4.505-.22.32-3.074-4.478-.73-.443-1.16-2.051-.251-.39v-.003Z"/>
  <path fill="var(--sapContent_Illustrative_Color21)" d="M24.226 22.544h-.136l-.68-.087s.962-.238 1.19-.946l-.159-.238-.052-.08 1.219.045s-.558.84-1.382 1.308v-.002ZM9.243 6.376c-.48-.016.066-.857 1.228-1.884 1.169-1.04 2.525-1.882 3.024-1.878h.013c.48.016-.067.857-1.227 1.886-1.173 1.04-2.527 1.878-3.027 1.878h-.013l.002-.002Z"/>
</svg>
