<svg id="tnt-Scene-UnsuccessfulAuth" xmlns="http://www.w3.org/2000/svg" width="320" height="240" fill="none" viewBox="0 0 320 240">
  <path fill="var(--sapContent_Illustrative_Color20)" fill-rule="evenodd" d="M320 83v90c0 13.246-10.754 24-24 24H24c-13.246 0-24-10.754-24-24V83c0-13.246 10.754-24 24-24h272c13.246 0 24 10.754 24 24Z" clip-rule="evenodd"/>
  <path fill="var(--sapContent_Illustrative_Color21)" fill-rule="evenodd" d="m81.117 185.969 133.735-23.88c.833-.15.863-1.324.051-1.525l-83.86-20.889a7.728 7.728 0 0 0-3.07-.141L22.381 155.808c-1.867.291-2.228 2.82-.512 3.623l56.207 26.137a5.026 5.026 0 0 0 3.04.391v.01Z" clip-rule="evenodd"/>
  <path fill="var(--sapContent_Illustrative_Color13)" d="M219.46 38a4.027 4.027 0 0 1 1.57.247c.504.181.989.466 1.427.828a5.331 5.331 0 0 1 1.798 2.872l2.493 10.833-161.934 9.748-2.093-12.04a4.251 4.251 0 0 1 .057-1.807c.143-.561.4-1.075.752-1.512a3.88 3.88 0 0 1 1.322-1.056 4.58 4.58 0 0 1 1.76-.457L219.46 38Z"/>
  <path fill="var(--sapContent_Illustrative_Color8)" d="M64.814 62.528 226.74 52.79l20.808 90.486a5.04 5.04 0 0 1 .095 1.759 3.897 3.897 0 0 1-.514 1.522 3.502 3.502 0 0 1-1.027 1.113 3.26 3.26 0 0 1-1.446.542l-156.56 19.62a4.992 4.992 0 0 1-3.663-1.028 5.487 5.487 0 0 1-1.313-1.455 5.184 5.184 0 0 1-.714-1.883L64.814 62.528Z"/>
  <path fill="var(--sapContent_Illustrative_Color23)" d="M172.869 121.267c.466-.048.932 0 1.379.152a3.93 3.93 0 0 1 1.237.675c.371.305.704.666.971 1.084.266.419.456.885.561 1.389l1.903 9.159c.104.504.114 1.008.028 1.465a3.513 3.513 0 0 1-.485 1.255 3.104 3.104 0 0 1-.913.913c-.362.238-.799.39-1.266.438l-77.066 8.711a3.9 3.9 0 0 1-1.522-.142 4.176 4.176 0 0 1-1.351-.704 4.105 4.105 0 0 1-1.028-1.151 4.374 4.374 0 0 1-.57-1.484l-1.742-9.691a3.759 3.759 0 0 1 .029-1.531c.114-.485.304-.923.59-1.313.285-.39.628-.704 1.046-.951a3.327 3.327 0 0 1 1.408-.447l76.791-7.846v.019Z"/>
  <path fill="var(--sapContent_Illustrative_Color8)" d="m131.881 131.443.085.409c.029.133.048.276.067.428.019.152.038.286.048.438l.028.447c.095-.105.19-.209.285-.305.096-.095.191-.199.295-.285.105-.085.2-.181.295-.266.096-.086.2-.171.295-.247l1.028 1.312c-.105.076-.209.162-.324.238-.114.076-.218.152-.333.228-.114.076-.228.152-.352.228-.123.076-.247.143-.371.219.153.038.295.086.438.124.143.038.285.095.419.142.133.048.276.105.409.153.133.047.266.104.399.161l-.513 1.465c-.124-.057-.257-.114-.381-.181-.124-.066-.257-.123-.381-.2-.123-.076-.256-.142-.38-.218-.124-.076-.257-.152-.39-.238.057.143.104.295.142.437.039.143.086.286.124.428.038.143.067.276.095.419.029.143.057.276.076.409l-1.503.162c-.028-.134-.057-.267-.076-.409-.019-.143-.048-.276-.057-.428-.01-.153-.029-.295-.048-.438-.019-.143-.019-.295-.028-.447a7.66 7.66 0 0 1-.286.304c-.095.096-.19.2-.295.286-.104.085-.199.18-.304.266-.105.086-.2.171-.304.247l-1.028-1.312c.105-.076.209-.162.314-.238.105-.076.219-.152.333-.238.114-.085.228-.152.352-.228l.362-.219c-.143-.038-.286-.076-.429-.123-.142-.048-.285-.086-.418-.143-.133-.057-.276-.105-.409-.152-.134-.048-.267-.114-.39-.171l.532-1.465c.124.057.248.114.371.181.124.066.248.123.381.199.133.076.257.143.381.219.123.076.256.152.38.238-.047-.143-.095-.295-.143-.438a7.407 7.407 0 0 1-.123-.428 6.52 6.52 0 0 1-.181-.827l1.503-.162.01.019Zm-9.543 1.018c.029.133.057.276.086.419.028.142.047.285.066.428.019.142.029.294.048.437.019.143.019.295.019.447.095-.104.19-.209.295-.314.104-.104.2-.199.295-.285.095-.086.199-.181.295-.266a3.65 3.65 0 0 1 .304-.248l1.037 1.322a4.01 4.01 0 0 1-.323.238c-.115.076-.219.162-.343.238-.124.076-.238.152-.352.228-.114.076-.247.143-.371.219.152.038.295.086.438.133l.428.143c.143.047.276.104.409.152.133.047.266.105.4.162l-.524 1.474c-.123-.057-.257-.114-.38-.181-.124-.067-.257-.133-.381-.2a15.334 15.334 0 0 1-.39-.218 10.19 10.19 0 0 1-.39-.238c.057.142.105.295.143.437.038.143.085.286.123.428.038.143.067.286.096.419.028.133.057.276.076.418l-1.523.171c-.028-.133-.057-.266-.076-.409l-.057-.428c-.019-.142-.028-.294-.047-.437-.019-.143-.019-.304-.029-.457l-.285.314c-.096.105-.2.2-.295.295-.095.095-.2.181-.305.276-.104.095-.209.171-.304.257l-1.037-1.322a3.84 3.84 0 0 1 .323-.238c.114-.076.229-.162.343-.238.114-.076.238-.152.361-.228.124-.076.248-.143.371-.219-.142-.038-.285-.076-.437-.123-.153-.048-.286-.086-.429-.143-.142-.057-.275-.105-.418-.162-.143-.057-.267-.114-.4-.171l.543-1.474c.123.057.247.114.371.181.123.066.257.133.38.199.124.067.257.143.39.219.133.076.257.152.39.238-.047-.152-.095-.295-.142-.438-.048-.142-.086-.285-.124-.428-.038-.142-.067-.285-.105-.418a2.955 2.955 0 0 1-.076-.419l1.522-.161-.009-.029Z"/>
  <path fill="var(--sapContent_Illustrative_Color14)" d="M96.211 68.368a15.19 15.19 0 0 1 5.814.77 16.833 16.833 0 0 1 5.128 2.797 17.322 17.322 0 0 1 3.92 4.394 16.278 16.278 0 0 1 2.188 5.563c.381 2.007.343 3.957-.047 5.754a12.993 12.993 0 0 1-2.189 4.898 12.477 12.477 0 0 1-3.986 3.529c-1.589.894-3.416 1.465-5.423 1.626a15.254 15.254 0 0 1-5.9-.694 16.977 16.977 0 0 1-5.251-2.806 17.209 17.209 0 0 1-4.015-4.48 16.353 16.353 0 0 1-2.198-5.687c-.371-2.044-.305-4.013.124-5.83a12.88 12.88 0 0 1 2.302-4.888 12.51 12.51 0 0 1 4.072-3.443c1.608-.856 3.435-1.38 5.442-1.512l.02.01Z"/>
  <path fill="var(--sapContent_Illustrative_Color8)" d="M98.867 82.663a5.136 5.136 0 0 1-1.98-.248 5.86 5.86 0 0 1-1.76-.95 5.624 5.624 0 0 1-1.341-1.503 5.59 5.59 0 0 1-.742-1.903 5.006 5.006 0 0 1 .028-1.959c.134-.608.4-1.17.761-1.645a4.362 4.362 0 0 1 1.361-1.17 4.29 4.29 0 0 1 1.836-.513 5.276 5.276 0 0 1 1.97.256c.628.21 1.218.533 1.741.951.523.419.98.923 1.332 1.493.352.571.609 1.208.742 1.893a4.591 4.591 0 0 1-.028 1.94c-.143.6-.391 1.17-.752 1.646a4.36 4.36 0 0 1-1.351 1.18 4.447 4.447 0 0 1-1.836.532h.019Z"/>
  <path fill="var(--sapContent_Illustrative_Color23)" d="M168.683 101.018a3.5 3.5 0 0 1 1.37.162 4.16 4.16 0 0 1 2.198 1.759c.256.419.456.885.561 1.38l1.884 9.035c.104.504.104.989.028 1.436a3.224 3.224 0 0 1-.485 1.227 2.894 2.894 0 0 1-.913.884c-.362.219-.79.371-1.266.419l-76.723 7.637c-.514.047-1.028 0-1.513-.152a4.21 4.21 0 0 1-1.342-.704 4.543 4.543 0 0 1-1.027-1.141 4.085 4.085 0 0 1-.562-1.465l-1.712-9.549a3.833 3.833 0 0 1 .028-1.512 3.354 3.354 0 0 1 1.618-2.207c.409-.237.885-.38 1.398-.428l76.448-6.8.01.019Z"/>
  <path fill="var(--sapContent_Illustrative_Color8)" d="M118.352 111.404c.028.133.057.267.076.409.019.143.047.276.057.419.009.142.028.285.038.428.009.142.019.295.019.447.095-.105.19-.2.295-.305.105-.104.2-.19.295-.285.095-.095.2-.181.295-.266.095-.086.2-.162.304-.248l1.028 1.313c-.105.076-.21.152-.324.228-.114.076-.219.152-.342.228-.124.077-.238.143-.352.219-.114.076-.248.143-.371.209.152.038.295.086.437.134l.428.142c.143.048.276.105.41.152.133.048.266.105.399.162l-.523 1.446c-.124-.057-.257-.114-.381-.181-.123-.067-.257-.133-.38-.2a7.401 7.401 0 0 1-.381-.218c-.123-.077-.257-.153-.39-.238.057.142.105.285.143.428.038.142.085.285.124.418.038.133.066.276.095.419.028.142.057.276.076.409l-1.523.142c-.028-.133-.057-.266-.076-.399l-.057-.419c-.019-.142-.028-.285-.038-.437l-.028-.447c-.095.105-.191.2-.286.304-.095.105-.2.19-.295.286-.095.095-.2.18-.304.266-.105.085-.2.171-.305.247l-1.027-1.312c.104-.076.209-.152.314-.238.104-.086.219-.152.342-.228.124-.076.238-.153.352-.219.115-.067.248-.143.371-.209-.142-.038-.285-.076-.428-.124l-.428-.143a4.968 4.968 0 0 1-.409-.161 13.318 13.318 0 0 1-.39-.172l.542-1.445c.124.057.248.114.371.181.124.066.257.133.381.199.124.067.257.143.38.219.124.076.257.152.381.238a7.238 7.238 0 0 1-.133-.428c-.038-.143-.086-.285-.124-.419-.038-.133-.066-.275-.095-.418-.029-.143-.057-.276-.076-.409l1.513-.143v.019Z"/>
  <path fill="var(--sapContent_Illustrative_Color2)" d="M73.52 49.917a4.027 4.027 0 0 1 1.503.21c.485.16.923.408 1.322.722.4.314.733.694 1 1.122.266.428.456.904.542 1.408.085.504.076.989-.038 1.436a3.255 3.255 0 0 1-.59 1.208 3.131 3.131 0 0 1-1.037.856c-.41.21-.885.342-1.399.37a4.03 4.03 0 0 1-1.503-.209 4.257 4.257 0 0 1-1.323-.722 4.543 4.543 0 0 1-1.008-1.122 3.886 3.886 0 0 1-.543-1.418 3.664 3.664 0 0 1 .039-1.445 3.05 3.05 0 0 1 .59-1.208 3.309 3.309 0 0 1 1.046-.856 3.241 3.241 0 0 1 1.399-.361v.009Z"/>
  <path fill="var(--sapContent_Illustrative_Color8)" d="M102.358 85.754a8.35 8.35 0 0 1 2.179.123 8.95 8.95 0 0 1 2.074.666 9.62 9.62 0 0 1 3.463 2.682 10.72 10.72 0 0 1-1.474 2.292 10.308 10.308 0 0 1-2.018 1.836 10.62 10.62 0 0 1-2.492 1.284 11.41 11.41 0 0 1-2.902.618 12.057 12.057 0 0 1-3.045-.133 13.418 13.418 0 0 1-2.911-.837 14.539 14.539 0 0 1-2.664-1.465 14.463 14.463 0 0 1-2.312-2.007c.257-.647.59-1.246.999-1.788a7.241 7.241 0 0 1 1.437-1.417 6.887 6.887 0 0 1 1.807-.97c.657-.238 1.36-.4 2.103-.457l5.766-.437-.01.01Zm6.365 26.544c.028.133.057.276.076.409.019.133.048.276.057.419.01.142.029.285.038.427.01.143.019.295.019.448.095-.105.2-.21.295-.305.095-.095.2-.19.295-.285.095-.095.2-.181.305-.266.104-.086.199-.172.304-.248l1.037 1.322c-.105.076-.219.162-.323.238-.105.076-.229.152-.343.228a4.81 4.81 0 0 1-.361.219c-.124.067-.248.143-.381.209.152.038.295.086.447.133.152.048.286.096.428.143.143.048.276.105.419.152.143.048.266.105.4.162l-.533 1.455c-.124-.057-.257-.114-.381-.181-.124-.066-.257-.133-.38-.199-.124-.067-.257-.143-.391-.219a8.682 8.682 0 0 1-.39-.238c.057.143.105.295.143.438.038.142.086.285.114.428.029.142.067.275.095.418.029.143.058.276.077.409l-1.542.152c-.028-.133-.057-.266-.076-.409l-.057-.418a6 6 0 0 1-.038-.438l-.029-.447c-.095.105-.19.21-.285.305-.095.095-.2.19-.304.285-.105.095-.21.181-.305.266a4.027 4.027 0 0 1-.314.248l-1.037-1.322c.105-.077.209-.162.324-.238l.342-.228c.114-.077.238-.153.362-.219.123-.067.247-.143.371-.209-.143-.039-.295-.077-.438-.124l-.428-.143c-.143-.047-.276-.104-.419-.161a5.606 5.606 0 0 1-.399-.181l.561-1.455c.124.057.247.114.381.18.133.067.256.134.38.2.124.067.257.143.39.219.133.076.257.152.39.238a8.112 8.112 0 0 1-.133-.438c-.038-.143-.086-.285-.124-.428a7.161 7.161 0 0 1-.095-.418c-.028-.143-.057-.276-.076-.409l1.532-.143v.019Zm-9.733.894c.028.133.057.276.076.409.019.133.047.276.057.419.01.142.028.285.038.437.01.152.019.295.019.447.095-.105.2-.209.304-.304.105-.095.2-.19.305-.286.104-.095.2-.18.304-.266.105-.085.209-.171.314-.247l1.037 1.322c-.104.076-.219.162-.333.238-.114.076-.228.152-.352.228-.124.076-.238.152-.361.219-.124.066-.257.142-.381.209.152.038.305.085.447.133.143.048.295.095.428.143.134.047.286.104.419.161.133.057.276.114.409.172l-.542 1.464a6.795 6.795 0 0 1-.39-.181c-.133-.066-.257-.133-.39-.199-.134-.067-.257-.143-.39-.219a8.164 8.164 0 0 1-.4-.238c.057.143.105.295.143.438.038.142.085.285.114.428.028.142.066.285.095.418.029.133.048.276.076.419l-1.56.152a4.95 4.95 0 0 1-.076-.409l-.058-.428c-.019-.143-.028-.295-.037-.438l-.03-.447c-.094.105-.19.21-.294.305-.105.095-.2.19-.304.285-.105.095-.21.181-.314.266-.105.086-.21.172-.314.248l-1.047-1.332.324-.238c.104-.076.228-.152.352-.228.123-.076.237-.152.37-.219.134-.066.248-.142.381-.209a5.639 5.639 0 0 1-.438-.124c-.142-.047-.294-.095-.428-.142a8.006 8.006 0 0 1-.418-.162c-.133-.057-.276-.114-.4-.181l.571-1.464c.124.057.257.123.38.18.124.058.257.134.39.2.134.067.258.143.39.219.134.076.258.162.39.238-.047-.152-.094-.295-.132-.438-.038-.142-.086-.285-.115-.428-.028-.142-.066-.285-.095-.418a6.179 6.179 0 0 1-.076-.409l1.551-.143h-.01Zm3.891 21.323c.028.143.057.276.076.419.019.143.048.285.057.428.01.143.029.295.038.447.01.152.019.304.019.456.105-.104.2-.209.305-.313.104-.105.199-.2.304-.295.105-.095.209-.191.305-.276.095-.086.209-.171.313-.257l1.047 1.332c-.105.085-.219.161-.333.247a4.612 4.612 0 0 1-.352.238c-.124.076-.238.152-.371.228-.133.076-.257.152-.39.219.152.038.304.085.447.133l.438.142c.142.048.285.105.418.153.134.047.276.104.409.161l-.542 1.493a7.527 7.527 0 0 1-.39-.18c-.133-.067-.257-.133-.39-.2s-.257-.143-.39-.219c-.133-.076-.267-.152-.4-.237.057.152.105.294.143.447.038.152.086.294.124.437.038.143.066.285.095.428.028.143.057.285.076.419l-1.56.171a6.53 6.53 0 0 1-.077-.409c-.019-.133-.038-.286-.057-.428-.019-.143-.028-.295-.038-.447l-.028-.457a8.49 8.49 0 0 1-.295.314 8.35 8.35 0 0 1-.619.571l-.314.257-1.046-1.342c.105-.085.219-.161.333-.247.114-.085.228-.161.352-.238l.371-.228c.124-.076.247-.152.381-.219a8.291 8.291 0 0 1-.448-.123 22.655 22.655 0 0 1-.437-.143 4.854 4.854 0 0 1-.419-.162c-.133-.057-.276-.114-.409-.171l.571-1.493c.123.057.257.114.38.181.124.066.257.133.39.2.134.066.267.142.391.218.123.076.266.152.39.238l-.143-.447c-.048-.152-.086-.295-.124-.437-.038-.143-.066-.286-.104-.428-.038-.143-.057-.286-.077-.419l1.561-.162h.019Zm47.772-5.059c.028.133.057.266.085.409.029.142.048.275.067.418.019.143.038.285.048.428l.028.437c.095-.104.181-.209.276-.304l.285-.285c.096-.095.191-.181.286-.266.095-.086.19-.172.285-.248l1.018 1.294c-.104.076-.199.161-.314.237-.114.077-.209.153-.323.229a6.135 6.135 0 0 1-.343.218c-.114.067-.238.143-.361.21.143.038.285.085.428.123.143.038.276.095.409.143.133.048.266.095.4.152.133.057.257.105.39.162l-.485 1.446-.372-.172a6.859 6.859 0 0 1-.371-.19c-.123-.066-.247-.143-.38-.209-.133-.067-.257-.152-.381-.228.057.142.105.285.143.428.038.142.086.285.124.418.038.133.066.276.095.409.028.133.057.276.076.409l-1.475.162c-.028-.133-.057-.267-.076-.4-.019-.133-.047-.276-.067-.418a5.934 5.934 0 0 1-.047-.438c-.01-.152-.029-.295-.038-.447a4.44 4.44 0 0 1-.276.305l-.285.285a4.116 4.116 0 0 1-.295.266c-.105.086-.2.171-.295.247l-1.018-1.302c.095-.077.199-.162.304-.238.105-.076.219-.152.324-.229.104-.076.228-.152.342-.218l.352-.21a26.595 26.595 0 0 1-.419-.114 6.703 6.703 0 0 1-.409-.133c-.133-.047-.266-.104-.399-.152s-.257-.114-.39-.171l.504-1.446c.124.057.238.114.361.181.124.066.248.124.372.2.123.076.247.142.371.218.123.076.247.153.38.238l-.143-.428c-.047-.142-.085-.285-.123-.418a5.574 5.574 0 0 1-.105-.419c-.028-.142-.057-.276-.076-.409l1.475-.152.038-.028Zm-9.324.989c.028.133.057.266.085.409.029.142.048.276.067.418.019.143.038.286.048.438l.028.447c.095-.105.19-.21.286-.305l.285-.285a6.93 6.93 0 0 1 .58-.514l1.018 1.303c-.104.077-.209.162-.314.238a8.735 8.735 0 0 1-.333.228 5.936 5.936 0 0 1-.342.219c-.114.067-.238.143-.362.209.143.039.295.086.428.124.134.038.286.095.419.143.133.047.276.095.409.152.133.057.267.105.39.162l-.494 1.455a6.028 6.028 0 0 1-.371-.181c-.124-.067-.248-.124-.372-.2-.123-.076-.247-.142-.38-.218a9.058 9.058 0 0 1-.39-.238c.057.142.104.285.143.428.038.142.085.285.123.418.038.133.067.276.095.419.029.142.057.276.076.409l-1.493.161a5.6 5.6 0 0 1-.076-.399c-.019-.133-.048-.276-.057-.419-.01-.142-.029-.285-.048-.437-.019-.152-.019-.295-.029-.447-.085.105-.18.209-.276.304l-.285.286c-.095.095-.2.18-.295.266-.095.086-.2.171-.295.247l-1.027-1.312c.095-.076.199-.162.314-.238.114-.076.218-.152.333-.228.114-.076.228-.152.352-.229.123-.076.237-.142.361-.209a7.644 7.644 0 0 1-.428-.123c-.143-.048-.276-.086-.419-.134-.142-.047-.276-.104-.409-.152-.133-.047-.266-.114-.39-.171l.523-1.455c.124.057.248.114.372.181.123.066.247.123.371.199.123.076.256.143.38.219.124.076.257.152.381.238-.048-.143-.095-.295-.143-.438a6.699 6.699 0 0 1-.124-.428c-.038-.142-.076-.275-.104-.418-.029-.143-.057-.276-.076-.409l1.484-.162-.019.029Zm-28.667 3.034c.029.133.057.276.076.418.02.143.048.286.067.428.019.143.029.295.038.438.01.142.019.304.019.456.095-.104.2-.209.295-.314.095-.104.2-.199.305-.294.104-.096.199-.181.304-.276.105-.095.2-.172.304-.257l1.038 1.322a4.18 4.18 0 0 1-.333.238c-.115.076-.229.161-.343.237-.114.077-.238.153-.362.229-.123.076-.247.142-.38.218.152.038.304.086.447.134l.428.142c.143.048.276.105.419.152.143.048.276.105.399.162l-.532 1.484a6.494 6.494 0 0 1-.39-.181c-.134-.066-.257-.133-.391-.2-.133-.066-.256-.142-.39-.218a9.31 9.31 0 0 1-.399-.238c.057.152.104.295.143.437.038.143.085.286.123.428.038.143.067.286.095.428.029.143.057.276.076.419l-1.541.171c-.028-.133-.057-.266-.076-.409l-.057-.428a6.255 6.255 0 0 1-.038-.447l-.029-.456c-.095.104-.19.209-.295.313-.104.105-.199.2-.304.295-.105.095-.209.19-.314.276l-.314.257-1.047-1.332c.105-.085.21-.161.324-.247.114-.086.228-.162.342-.238.115-.076.238-.152.362-.228.124-.076.247-.152.371-.219-.143-.038-.295-.076-.438-.123-.142-.048-.285-.086-.428-.143-.143-.057-.285-.105-.418-.162l-.4-.171.561-1.484c.124.057.248.115.381.181.133.067.257.133.39.2.133.066.257.142.39.219.133.076.257.152.39.237a17.353 17.353 0 0 0-.143-.437c-.047-.143-.085-.295-.123-.438-.038-.142-.067-.285-.105-.428a3.192 3.192 0 0 1-.076-.418l1.541-.162.038.029Z"/>
  <path fill="var(--sapContent_Illustrative_Color14)" d="M88.096 167.822a4.91 4.91 0 0 1-1.941-.152 5.19 5.19 0 0 1-1.722-.875 5.511 5.511 0 0 1-1.313-1.455 5.128 5.128 0 0 1-.714-1.883L64.814 62.528l-2.093-12.04a4.174 4.174 0 0 1-.066-.904c0-.295.047-.58.114-.856.066-.276.161-.542.276-.79a4.09 4.09 0 0 1 .428-.703l-2.655 3.452a4.692 4.692 0 0 0-.428.695 4.125 4.125 0 0 0-.39 1.626c0 .295.01.59.067.894l2.064 11.907 17.288 99.825c.114.676.361 1.303.704 1.865a5.247 5.247 0 0 0 2.997 2.301 4.653 4.653 0 0 0 1.922.152l155.15-19.601 4.462-2.15-156.558 19.621Z"/>
  <path fill="var(--sapContent_Illustrative_Color1)" d="m253.834 162.905-3.835 2.463s-.085.057-.123.076c-.038.019-.086.057-.124.076-.038.019-.086.057-.124.076-.038.019-.085.057-.123.077-.819.494-1.656.941-2.522 1.35-.865.409-1.75.751-2.664 1.056a26.275 26.275 0 0 1-5.661 1.236c-.485.057-.98.095-1.465.124-.485.028-.989.038-1.484.047-.495.01-.999 0-1.503-.028-.505-.029-1.009-.057-1.513-.114a31.04 31.04 0 0 1-4.539-.799 33.46 33.46 0 0 1-4.443-1.474 33.875 33.875 0 0 1-4.272-2.131 36.36 36.36 0 0 1-4.024-2.748 36.433 36.433 0 0 1-3.654-3.301 38.547 38.547 0 0 1-3.187-3.747 37.56 37.56 0 0 1-2.664-4.128 34.923 34.923 0 0 1-2.084-4.441 34.368 34.368 0 0 1-1.455-4.632 34.674 34.674 0 0 1-.79-4.689 31.914 31.914 0 0 1-.114-4.66c.076-1.541.266-3.062.561-4.546a28.117 28.117 0 0 1 1.199-4.232 27.48 27.48 0 0 1 1.798-3.9 25.586 25.586 0 0 1 5.224-6.553l3.387-3.053a25.403 25.403 0 0 0-2.893 3.082 26.417 26.417 0 0 0-2.369 3.538 28.085 28.085 0 0 0-1.808 3.937 30.037 30.037 0 0 0-1.208 4.28 30.816 30.816 0 0 0-.561 4.594 32.588 32.588 0 0 0 .123 4.708c.153 1.578.419 3.157.8 4.736.38 1.579.875 3.139 1.474 4.679a37.889 37.889 0 0 0 2.113 4.499 36.299 36.299 0 0 0 2.692 4.175 39.418 39.418 0 0 0 3.216 3.795 36.032 36.032 0 0 0 3.692 3.338 35.728 35.728 0 0 0 8.382 4.936 32.331 32.331 0 0 0 4.49 1.503c1.523.39 3.045.666 4.586.818.514.047 1.018.086 1.532.114a26.572 26.572 0 0 0 3.016-.009 29.963 29.963 0 0 0 4.396-.59c.961-.2 1.893-.466 2.807-.77a27.27 27.27 0 0 0 2.683-1.066 23.183 23.183 0 0 0 2.54-1.36c.048-.028.086-.057.133-.076.048-.019.086-.057.124-.076.038-.019.085-.057.124-.076.038-.019.085-.057.123-.086"/>
  <path fill="var(--sapContent_Illustrative_Color23)" d="M252.14 111.319a38.06 38.06 0 0 1 4.605 4.403 37.57 37.57 0 0 1 3.777 5.079 36.889 36.889 0 0 1 4.728 11.612c.324 1.532.543 3.063.657 4.594.114 1.531.124 3.044.019 4.537a31.146 31.146 0 0 1-.618 4.422 29.316 29.316 0 0 1-1.256 4.233 27.195 27.195 0 0 1-1.875 3.928 27.68 27.68 0 0 1-2.435 3.519 24.466 24.466 0 0 1-2.969 3.053 25.403 25.403 0 0 1-3.463 2.529c-.818.504-1.665.951-2.54 1.36-.876.409-1.77.761-2.683 1.066a26.69 26.69 0 0 1-5.719 1.236c-.494.057-.989.095-1.484.124a39.05 39.05 0 0 1-1.503.047c-.504.01-1.009-.009-1.513-.038a30.283 30.283 0 0 1-6.118-.932 34.05 34.05 0 0 1-8.81-3.662 35.88 35.88 0 0 1-4.062-2.777 37.109 37.109 0 0 1-3.692-3.338 38.355 38.355 0 0 1-3.216-3.795 37.094 37.094 0 0 1-2.692-4.175 36.536 36.536 0 0 1-2.113-4.499 36.405 36.405 0 0 1-1.474-4.679 34.246 34.246 0 0 1-.8-4.736 33.889 33.889 0 0 1-.123-4.708c.066-1.56.257-3.091.561-4.594a28.747 28.747 0 0 1 1.237-4.356 29.006 29.006 0 0 1 1.855-4.004 25.86 25.86 0 0 1 2.436-3.585 24.82 24.82 0 0 1 2.978-3.101 25.02 25.02 0 0 1 3.444-2.549 25.997 25.997 0 0 1 7.897-3.214 28.104 28.104 0 0 1 4.32-.628 29.414 29.414 0 0 1 5.927.228c1.969.276 3.929.742 5.851 1.389a33.773 33.773 0 0 1 5.614 2.482 36.77 36.77 0 0 1 5.233 3.519l.019.01Z"/>
  <path fill="var(--sapContent_Illustrative_Color8)" d="M242.264 121.685c.19-.019.39-.009.59.019a3.17 3.17 0 0 1 1.142.381 3.921 3.921 0 0 1 .989.789c.143.152.267.333.381.514.114.181.209.371.285.561a3.331 3.331 0 0 1 .2 1.807c-.038.19-.086.38-.162.552a3.632 3.632 0 0 1-.266.504l-5.366 7.799 8.325 6.638c.086.067.162.133.238.209.076.076.152.152.219.229.066.076.142.161.199.247.058.085.124.171.181.266.057.095.114.19.162.285.048.096.095.191.133.295.038.105.076.2.105.305.028.104.057.199.076.304.019.105.038.2.047.304.01.105.02.21.02.305v.304c0 .105-.02.2-.039.295-.019.095-.038.2-.066.295-.029.095-.057.19-.095.276-.038.085-.076.18-.124.266-.048.085-.095.162-.143.247l-.171.228a1.407 1.407 0 0 1-.2.21 3.531 3.531 0 0 1-.219.18 1.993 1.993 0 0 1-.237.152 1.978 1.978 0 0 1-.248.124 2.265 2.265 0 0 1-.266.105c-.095.028-.181.057-.276.076-.095.019-.19.038-.286.038-.095 0-.199.009-.295.009-.095 0-.199 0-.294-.019-.096-.019-.2-.028-.295-.047a3.452 3.452 0 0 1-.295-.076 3.664 3.664 0 0 1-.286-.105 2.425 2.425 0 0 1-.276-.133 4.512 4.512 0 0 1-.266-.162 4.235 4.235 0 0 1-.257-.19l-8.354-6.657-5.432 7.941c-.057.076-.114.162-.181.228-.067.067-.133.143-.2.21-.066.066-.143.123-.219.18a3.454 3.454 0 0 1-.238.162c-.085.047-.171.095-.256.133a2.505 2.505 0 0 1-.276.105c-.095.028-.191.057-.286.076-.095.019-.19.038-.295.047-.104.01-.199.01-.304.01-.105 0-.2 0-.305-.019-.104-.019-.199-.029-.304-.048-.105-.019-.2-.047-.305-.076a1.517 1.517 0 0 1-.294-.114c-.096-.048-.191-.086-.286-.133-.095-.048-.181-.105-.276-.162a2.556 2.556 0 0 1-.266-.19c-.086-.067-.171-.143-.248-.209a2.755 2.755 0 0 1-.228-.238 2.725 2.725 0 0 1-.209-.257c-.067-.095-.124-.181-.191-.276-.057-.095-.104-.19-.161-.285-.057-.095-.095-.2-.133-.295a3.581 3.581 0 0 1-.181-.618c-.019-.105-.038-.209-.048-.314-.009-.104-.019-.209-.019-.314 0-.104 0-.209.01-.314.009-.104.019-.199.038-.304.019-.105.047-.2.076-.295.028-.095.057-.19.095-.285.038-.095.076-.181.124-.266.047-.086.095-.172.152-.248l5.48-7.941-8.391-6.686a3.466 3.466 0 0 1-.467-.447 2.96 2.96 0 0 1-.38-.523c-.105-.191-.21-.371-.286-.571a3.548 3.548 0 0 1-.18-.618 3.423 3.423 0 0 1-.067-.618 2.95 2.95 0 0 1 .228-1.161c.076-.18.172-.352.276-.504.114-.161.238-.304.381-.428.142-.123.295-.237.456-.333.162-.095.343-.161.524-.218.181-.057.38-.095.571-.105.19-.009.399-.009.599.01.2.019.4.066.599.133.2.066.39.142.571.247.181.105.362.219.533.361l8.363 6.677 5.376-7.761a2.248 2.248 0 0 1 .808-.751c.162-.086.333-.162.514-.219.181-.057.371-.086.562-.105h.066Z"/>
</svg>
