<svg id="tnt-Spot-Company" xmlns="http://www.w3.org/2000/svg" width="128" height="128" fill="none" viewBox="0 0 128 128">
  <rect width="128" height="55" y="40" fill="var(--sapContent_Illustrative_Color20)" rx="8"/>
  <path fill="var(--sapContent_Illustrative_Color2)" d="m45.833 78.502 13.462-.627V30.681l-13.758 7.98.296 39.84Z"/>
  <path fill="var(--sapContent_Illustrative_Color27)" d="m57.16 50.044-9.818 4.015.021 1.967 9.8 1.97-.002-7.952Z"/>
  <path fill="var(--sapContent_Illustrative_Color13)" d="m74.249 83.702-14.954 2.344V30.68l14.954 5.869v47.152Z"/>
  <path fill="var(--sapContent_Illustrative_Color14)" d="m72.736 61.098-11.432-1.196v-27.02l11.432 4.322v23.894Zm0 25.095L61.304 88.28V61.257l11.432 1.041v23.895Z"/>
  <path fill="var(--sapContent_Illustrative_Color13)" d="m64.795 33.794-.014 26.415h-1.085l.014-26.416h1.085Zm3.261.779-.032 26.543-1.085-.001.032-26.544 1.085.002Zm2.794 1.47v24.803h-1.085V36.043h1.085Z"/>
  <path fill="var(--sapContent_Illustrative_Color14)" d="M52.764 53.264v13.008L67 61.29l-14.236-8.026Z"/>
  <path fill="var(--sapContent_Illustrative_Color13)" d="m54.394 55.678 12.132 6.136-4.078 1.27-8.03-2.765-.024-4.641Zm-.022 5.38.025 4.7 7.403-2.357-7.428-2.343Z"/>
  <path fill="var(--sapContent_Illustrative_Color14)" d="m91.817 96.872-15.243.162v-39.38l15.186 7.83.057 31.388Z"/>
  <path fill="var(--sapContent_Illustrative_Color13)" d="M35.309 97.035v-35.31l17.455-8.461.06 12.913 23.8-8.512-.018 39.37H35.31Zm55.516-25.419-12.713-5.43v-6.21l12.67 6.658.043 4.982Zm-.081 5.652-12.632-3.836v-6.206l12.59 5.063.042 4.979Zm-.004 5.913-12.68-2.368v-6.207l12.638 3.604.043 4.971Zm.11 6.006L78.053 88.02v-6.21l12.755 2.406.042 4.972Zm-.054 5.963-12.793.309v-6.207l12.751.932.042 4.965Z"/>
  <path fill="var(--sapContent_Illustrative_Color27)" d="m53.292 67.88 21.928-7.322.01 4.162-21.928 6.133-.01-2.973Zm.011 6.048 21.924-5.359.004 4.17-21.928 4.349v-3.16Zm0 6.133 21.928-3.937v4.184l-21.928 2.91V80.06Zm0 6.176 21.928-2.6v4.19L53.303 89.39v-3.153Zm.017 6.006 21.91-.932v3.986H53.32v-3.054Zm-16.699-28.93 14.342-6.143.017 2.91-14.33 5.805-.029-2.572Zm.029 5.105 14.359-5.334.017 2.938-14.377 4.993v-2.597Zm-.029 4.919 14.38-4.412.015 2.959-14.395 4.07v-2.617Zm.029 4.737 14.341-3.61.018 2.984-14.36 3.258v-2.632Zm-.029 4.939 14.363-2.65.017 3.009-14.352 2.29-.028-2.65Zm.039 4.92 14.317-1.791.014 3.033-14.342 1.428.011-2.67Zm-.01 4.954 14.317-.841.02 3.248-14.338.274v-2.681Zm20.077-57.035-9.396 4.983.005 10.29 9.423-3.952-.032-11.32Z"/>
</svg>
