<svg id="tnt-Spot-Mission" xmlns="http://www.w3.org/2000/svg" width="129" height="128" fill="none" viewBox="0 0 129 128">
  <path fill="var(--sapContent_Illustrative_Color20)" fill-rule="evenodd" d="M128.582 49.795v36c0 5.299-4.302 9.6-9.6 9.6h-108.8c-5.298 0-9.6-4.301-9.6-9.6v-36c0-5.298 4.302-9.6 9.6-9.6h108.8c5.298 0 9.6 4.302 9.6 9.6Z" clip-rule="evenodd"/>
  <path fill="var(--sapContent_Illustrative_Color11)" d="m74.97 79.668.959-12.894-13.2 10.709 4.49 10.512a1.4 1.4 0 0 0 2.4.301l4.108-5.363a6.113 6.113 0 0 0 1.243-3.265Z"/>
  <path fill="var(--sapContent_Illustrative_Color1)" d="M75.461 73.047a25.11 25.11 0 0 1-2.85 2.784c-2.21 1.819-1.098 6.736-3.035 8.843l-1.84 2.001a1.708 1.708 0 0 1-.863.51l-4.145-9.702 13.2-10.71-.467 6.274Z"/>
  <path fill="var(--sapContent_Illustrative_Color25)" d="M67.072 45.173C51.576 57.172 41.94 69.846 40.815 76.694c-.199 6.778 5.833 10.439 9.333 10.74 5.664-.634 14.013-8.404 24.315-16.846 13.115-10.747 28.552-35.015 24.73-39.03-3.61-3.795-14.839.233-32.12 13.615Z"/>
  <path fill="var(--sapContent_Illustrative_Color24)" d="M71.337 73.05c.855-10.272-6.264-14.58-11.743-16.566-.434-.157-.7.415-.319.676 4.022 2.75 8.853 6.87 9.358 11.794.609 5.939 2.205 4.096 2.704 4.096Z"/>
  <path fill="var(--sapContent_Illustrative_Color24)" d="M98.946 31.32c.086.076.169.154.248.237 3.821 4.015-11.616 28.283-24.73 39.03C64.16 79.03 55.811 86.8 50.147 87.435c-3.5-.301-9.532-3.962-9.333-10.74.82-4.998 6.176-13.099 15.033-21.776-1.324 7.517-.989 14.65 5.93 18.518l13.575-9.5.296-.201a8.7 8.7 0 0 0 3.457-9.613l13.249-9.278c3.577-3.44 5.876-9.566 6.591-13.524Z"/>
  <path fill="var(--sapContent_Illustrative_Color11)" d="M84.416 33.704c7.528-3.864 12.572-4.463 14.777-2.146 1.55 1.63-.07 6.594-3.421 12.637-.148-1.694-.754-3.572-2.168-5.426-2.122-2.78-5.841-4.299-9.188-5.065Z"/>
  <path fill="var(--sapContent_Illustrative_Color1)" d="M95.517 44.731c3.74-6.587 5.299-11.468 3.676-13.173a3.51 3.51 0 0 0-.246-.235c.2 2.75-1.834 6.769-3.853 10.04.645 1.607.536 2.015.423 3.368Z"/>
  <path fill="var(--sapContent_Illustrative_Color11)" d="M43.536 70c3.01-.517 6.8.867 9.768 3.866 3.267 3.302 4.564 7.58 3.538 10.69-2.524 1.617-4.765 2.662-6.695 2.878-3.5-.302-9.53-3.962-9.332-10.74.304-1.85 1.229-4.124 2.721-6.694Z"/>
  <ellipse cx="45.95" cy="81.347" fill="var(--sapContent_Illustrative_Color1)" rx="6.053" ry="2.874" transform="rotate(49.245 45.95 81.347)"/>
  <path fill="var(--sapContent_Illustrative_Color11)" d="m38.982 55.424 3.45-2.646a10.43 10.43 0 0 1 5.908-2.147l12.43-.526c-.508 5.317-9.698 11.637-11.578 12.276l-9.775-3.857c-1.3-.513-1.544-2.249-.435-3.1Z"/>
  <ellipse cx="68.115" cy="69.327" fill="var(--sapContent_Illustrative_Color11)" rx="2.63" ry="9.102" transform="rotate(50.927 68.115 69.327)"/>
  <path fill="var(--sapContent_Illustrative_Color11)" d="M90.73 55.003c-2.585 4.066-7.058 5.468-10.316 3.397-3.258-2.07-3.784-6.734-1.2-10.8 2.4-3.4 6.6-5.2 10.2-3.4 3.258 2.07 3.9 6.737 1.315 10.803Z"/>
  <ellipse cx="86.283" cy="52.167" fill="var(--sapContent_Illustrative_Color2)" rx="5.138" ry="6.359" transform="rotate(32.437 86.283 52.167)"/>
  <path fill="var(--sapContent_Illustrative_Color8)" d="M82.568 48.557a7.73 7.73 0 0 1 1.482-1.38l7.258 2.666a6.474 6.474 0 0 1-.065 1.901l-8.675-3.187Zm8.43 4.163a8.248 8.248 0 0 1-1.978 3.255l-8.29-3.045c.093-1.159.495-2.383 1.216-3.52l.009-.012 9.043 3.323Z"/>
  <path fill="var(--sapContent_Illustrative_Color1)" d="M90.16 47.135c2.034 1.676 2.304 5.057.538 7.837-1.884 2.964-5.37 4.122-7.786 2.586a4.295 4.295 0 0 1-.314-.22c2.582.224 5.268-1.048 6.828-3.502 1.345-2.116 1.539-4.615.735-6.701Z"/>
  <path fill="var(--sapContent_Illustrative_Color26)" d="M34.014 91.795c7.327-3.158 21.384-10.576 17.595-14.745-5.409-5.949-14.714 11.062-17.595 14.745Z"/>
  <path fill="var(--sapContent_Illustrative_Color11)" d="M53.283 73.85c3.606 3.646 4.459 8.093 3.632 10.652-2.508 1.758-5.023 2.718-6.789 2.916-.889-.077-1.941-.37-3.014-.876l.433-.497c.96.347 1.8.33 2.334-.13 1.203-1.036.409-3.93-1.774-6.461-2.182-2.532-4.926-3.745-6.128-2.709-.572.493-.692 1.406-.426 2.5l-.422.4a10.29 10.29 0 0 1-.335-2.967c.282-1.722 1.05-3.86 2.705-6.703 3.109-.914 6.564.62 9.784 3.875Z"/>
  <path fill="var(--sapContent_Illustrative_Color1)" d="M60.735 50.375c-.783 5.258-9.696 11.378-11.544 12.007l-10.43-4.116a1.4 1.4 0 0 1-.338-2.413l.561-.431c4.47 2.882 13.045 4.664 21.75-5.047Z"/>
  <path fill="var(--sapContent_Illustrative_Color2)" d="M30.389 79.366c0-.225-.654-.405-1.527-.446-.05-.872-.242-1.52-.467-1.52-.225 0-.412.654-.46 1.53-.875.06-1.526.256-1.523.481.003.226.653.406 1.526.446.053.872.242 1.52.467 1.52.224 0 .412-.654.46-1.53.876-.06 1.526-.256 1.524-.481Zm73.999 1.199c0-.225-.653-.405-1.526-.446-.05-.872-.242-1.52-.467-1.52-.225.001-.412.654-.46 1.53-.875.06-1.526.256-1.523.481.003.226.653.406 1.526.447.053.871.242 1.52.467 1.519.224 0 .412-.654.46-1.53.876-.06 1.526-.255 1.523-.48Zm9.624-24.384c0-.18-.525-.326-1.228-.359-.04-.701-.194-1.223-.376-1.222-.181 0-.331.526-.37 1.23-.704.049-1.228.206-1.225.388.002.181.525.326 1.228.359.042.701.194 1.223.375 1.223s.332-.526.371-1.232c.704-.048 1.228-.205 1.225-.387Z"/>
  <circle cx="22.456" cy="74.242" r=".442" fill="var(--sapContent_Illustrative_Color2)"/>
  <path fill="var(--sapContent_Illustrative_Color2)" d="M20.998 53.258c0-.35-1.016-.63-2.374-.694-.078-1.356-.376-2.365-.726-2.364-.35.001-.642 1.017-.716 2.38-1.362.093-2.374.397-2.37.748.005.351 1.017.631 2.374.694.082 1.356.377 2.364.726 2.364.35-.001.642-1.017.717-2.38 1.361-.093 2.373-.398 2.369-.748Z"/>
  <circle cx="93.254" cy="84.242" r=".442" fill="var(--sapContent_Illustrative_Color2)"/>
</svg>
