<svg id="tnt-Dot-Teams" xmlns="http://www.w3.org/2000/svg" width="45" height="45" fill="none" viewBox="0 0 45 45">
  <path fill="var(--sapContent_Illustrative_Color27)" d="m22.833 27.943-4.547 10.066h22.672l-4.547-10.663-13.578.597Z"/>
  <path fill="var(--sapContent_Illustrative_Color26)" d="M22.107 28.142c.045-.858.794-1.247.794-1.247h13.09c.223.041.674.17 1.166.608.171.153.456.61.396.917-.16.833-1.087 1.66-2.85 2.129-1.765.469-6.2.667-8.183.493-.75-.066-2.727-.725-3.372-1.16-.235-.16-1.086-.883-1.04-1.74Z"/>
  <path fill="var(--sapContent_Illustrative_Color26)" d="M23.645 29.012c-.877-.66-1.336-1.902-.691-2.332 1.097-.734 12.347-.257 12.754-.294.407-.037 1.222.623 1.128 1.32-.094.696-1.575 1.743-5.233 2.2-2.35.293-7.523-.567-7.958-.894Z"/>
  <path fill="var(--sapContent_Illustrative_Color27)" d="M38.511 28.412c-.188.079-.429.486-.97.486l-1.138 9.112h7.473c0-1.839.167-5.288-.863-6.844-.455-.688-.87-1.03-1.245-1.03-.66 0-.312-.448-1.509-1.238-.204-.134-.958-.822-1.748-.486Zm-15.747-1.543c0-.14.252-.41.459-.41 1.81 3.567 14.486-.34 12.049 1.337-3.572 2.458-11.16 1.41-12.05.31-.255-.315-.458-1.063-.458-1.237Z"/>
  <path fill="var(--sapContent_Illustrative_Color26)" d="M23.085 12.456c1.331-1.698 4.598-2.86 6.615-2.834 2.95-.167 5.647 1.136 6.554 2.252.717.881 2.642 3.514 2.642 8.17 0 4.656-.887 5.343-1.714 6.2-1.835 1.9-3.152 2.04-4.578 2.251-3.758.558-7.15.168-8.141-.528-.733-.514-3.092-3.189-3.274-7.338-.181-4.15.759-6.722 1.896-8.173Z"/>
  <path fill="var(--sapContent_Illustrative_Color22)" d="M28.405 27.88c3.937.115 6.715-.508 8.374-2.886 1.66-2.378 1.656-5.425.738-8.277-.611-1.9-2.932-4.457-7.015-4.457-4.73 0-5.737 1.198-7.133 2.897-1.697 2.064-1.625 5.949-1.431 7.31.192 1.363 1.546 5.27 6.467 5.414Z"/>
  <path fill="var(--sapContent_Illustrative_Color26)" d="M39.692 18.81c-.125-2.635-1.342-2.167-2.459-1.58-.22.115-.231 5.87-.048 6.699.058.267.08.794 1.674.582.701-.093.958-3.066.833-5.701Z"/>
  <path fill="var(--sapContent_Illustrative_Color27)" d="M30.34 13.304c-4.47-.427-6.569 3.39-6.856 5.31-.372 2.488 1.603-.905 3.036-2.103 2.254-1.886 6.673-2.934 3.82-3.207Zm7.2 4.028.68-.36c-.452 1.366-.228 5.605-.128 7.438a.856.856 0 0 1-.716-.446c-.19-.356-.31-6.45.164-6.632Z"/>
  <path fill="var(--sapContent_Illustrative_Color27)" d="M25.026 12.098c-2.08 1.354-3.044 4.034-3.006 5.118-.178 0 .203.051-.674-.406.598-4.307 2.668-5.796 4.965-6.758 1.867-.782 6.385-1.016 8.481.962-5.8-1.056-7.132-.63-9.767 1.084Z"/>
  <path fill="var(--sapContent_Illustrative_Color26)" d="M33.662 29.716c-.499.441-6.7-1.378-3.732 8.294h13.963c0-6.127-.368-6.79-1.335-5.384-.38.552-1.41 3.715-1.41 2.679 0-.452-.342-.876-.673-.308-1.709 2.934-.968.098 0-1.836.838-1.675-1.601-.878-1.368-1.515.29-.797.32-2.165.278-2.84-.033-.539-.791-.328-1.027-.103l-2.037 4.966c-.444.92-2.16-4.394-2.659-3.953Z"/>
  <path fill="var(--sapContent_Illustrative_Color22)" d="M39.108 28.44c-.127-.409-1.026-.34-1.46-.255-.762.808-.445 1.573-.889 3.998-.355 1.94-.486 4.693-.508 5.827h2.158v-4.721c0-.409.466-2.723.699-3.828.053-.17.127-.613 0-1.021Z"/>
  <path fill="var(--sapContent_Illustrative_Color2)" d="M6.542 27.166c1.154-.586 3.455-.433 4.269-.24l1.177 11.083H1.108c0-.782.056-4.256.127-4.72.088-.582.23-1.002.494-1.583.265-.58 1.384-.818 1.648-.973.265-.154.248-.564.248-1.183 0-.62 1.931-1.883 2.917-2.384Z"/>
  <path fill="var(--sapContent_Illustrative_Color2)" d="M9.336 26.712 4.046 38.01H30.42l-5.29-11.967-15.793.67Z"/>
  <path fill="var(--sapContent_Illustrative_Color2)" d="m6.925 26.988 1.662-.22c.163.551.694 1.46.99 1.644 4.538 2.808 8.736 1.549 8.21 1.83-.763.408-3.263.384-4.95.384-1.406 0-2.96-.781-3.627-.8-.535-.014-.63 1.924-.706 2.702l-1.58-5.54Z"/>
  <path fill="var(--sapContent_Illustrative_Color13)" d="M8.491 26.935c.053-.962.923-1.4.923-1.4h15.227c.259.047.783.192 1.355.684.2.17.53.684.462 1.028-.187.935-1.265 1.863-3.317 2.39-2.052.526-7.21.748-9.516.552-.873-.073-3.173-.813-3.923-1.302-.274-.178-1.263-.99-1.21-1.952Z"/>
  <path fill="var(--sapContent_Illustrative_Color2)" d="M8.738 26.144c.034-.174.272-.405.386-.446.215.574-.356.942.997 2.026 1.045.837 5.313.996 7.889 1.327-1.753.049-5.192-.198-5.917-.27-1.888-.191-2.82-.89-3.034-1.18-.215-.291-.364-1.239-.321-1.457Z"/>
  <path fill="var(--sapContent_Illustrative_Color13)" d="M10.279 27.911c-1.02-.74-1.554-2.134-.804-2.618 1.276-.822 14.361-.288 14.835-.329.474-.041 1.422.7 1.313 1.481-.11.782-1.833 1.956-6.088 2.469-2.734.329-8.75-.636-9.256-1.003Z"/>
  <path fill="var(--sapContent_Illustrative_Color2)" d="M28.357 27.223c-.881-.24-1.367.307-1.996.307l-1.24 10.48h9.943c-.403-1.787-1.17-5.542-1.518-6.201-.435-.825-.853-.901-1.289-.901-.767 0-.21-1.39-1.603-2.277-.897-.57-1.2-1.11-2.297-1.408ZM9.255 25.506c0-.157.293-.46.534-.46 2.105 4.003 16.85-.382 14.015 1.5-4.154 2.759-12.98 1.584-14.015.35-.297-.355-.534-1.195-.534-1.39Z"/>
  <path fill="var(--sapContent_Illustrative_Color13)" d="M9.628 9.331c1.548-1.905 5.348-3.208 7.694-3.18 3.43-.187 6.568 1.275 7.624 2.527.833.99 3.073 3.944 3.073 9.17 0 5.224-1.033 5.996-1.994 6.957-2.135 2.132-3.666 2.29-5.325 2.527-4.371.626-8.316.188-9.47-.593-.852-.577-3.596-3.578-3.807-8.236-.211-4.657.881-7.543 2.205-9.172Z"/>
  <path fill="var(--sapContent_Illustrative_Color22)" d="M15.815 26.642c4.58.129 7.81-.57 9.741-3.24 1.93-2.668 1.925-6.088.858-9.289-.71-2.132-3.41-5.002-8.16-5.002-5.501 0-6.673 1.345-8.297 3.252-1.974 2.317-1.89 6.676-1.665 8.204.225 1.529 1.8 5.914 7.523 6.075Z"/>
  <path fill="var(--sapContent_Illustrative_Color2)" d="M5.873 16.462c.146-2.957 1.561-2.432 2.86-1.774.257.13.27 6.59.057 7.519-.068.3-.094.891-1.947.654-.816-.105-1.115-3.442-.97-6.399Z"/>
  <path fill="var(--sapContent_Illustrative_Color13)" d="M28.946 16.462c-.145-2.957-1.56-2.432-2.86-1.774-.257.13-.27 6.59-.057 7.519.069.3.095.891 1.948.654.816-.105 1.114-3.442.969-6.399Z"/>
  <path fill="var(--sapContent_Illustrative_Color27)" d="M10.3 17.16c.798-5.204 4.644-6.635 6.377-6.478 2.246.203-1.2 1.6-2.61 2.931-2.218 2.095-4.278 6.869-3.768 3.547Z"/>
  <path fill="var(--sapContent_Illustrative_Color13)" d="m8.303 14.85-.792-.38c.527 1.44.266 5.908.15 7.838.185 0 .61-.093.832-.47.222-.375.361-6.796-.19-6.987Z"/>
  <path fill="var(--sapContent_Illustrative_Color2)" d="m26.441 14.804.792-.405c-.527 1.534-.265 6.292-.15 8.348-.185 0-.61-.1-.832-.5-.222-.4-.361-7.239.19-7.443ZM11.885 8.929c-2.42 1.519-3.54 4.528-3.496 5.744-.207 0 .236.057-.785-.456.696-4.834 3.104-6.505 5.776-7.584 2.171-.878 7.427-1.14 9.865 1.08-6.747-1.185-8.296-.708-11.36 1.216Z"/>
  <path fill="var(--sapContent_Illustrative_Color13)" d="M24.033 35.427c-.58.495-6.062 2.33-7.48 2.583h18.655c-.161-1.078-.561-2.917-.87-4.458-.388-1.927-.422-2.498-1.86-2.232-1.065.198 1.412.71 1.249 4.107-.044.916-3.355.445-4.278 1.666-.461.611-.234-1.018.153-2.119.387-1.1-.167-1.124-.387-.413-.704 2.278-1.423 2.757-1.183.413.07-.697-.1-3.405.48-4.934.338-.894-.432-1.962-.48-2.72-.04-.605-1.401-.007-1.675.245l-.685 1.995c-.4 2.76-1.059 5.372-1.64 5.867Z"/>
  <path fill="var(--sapContent_Illustrative_Color22)" d="M28.265 27.269c-.148-.458-1.194-.382-1.698-.286-.886.907-.517 1.766-1.034 4.487-.413 2.176-.566 5.266-.59 6.54h2.51v-5.3c0-.458.541-3.054.812-4.295.062-.191.148-.688 0-1.146Z"/>
  <path fill="var(--sapContent_Illustrative_Color13)" d="M9.276 31.76c0-1.038.187-2.915-.41-4.3-.32.2-1.757 2.54-2.269 3.18-.64.8.96 6.518-.28 6.518s-1.453.52-1.8.84h7.798c-.4-.626-1.839-.416-2.159-1.12-.4-.88-.88-4.333-.88-5.118Z"/>
  <path fill="var(--sapContent_Illustrative_Color22)" d="M6.412 26.832c.147-.477 1.193-.397 1.698-.298 1.033.204.581 2.123.863 5 .29 2.946.436 5.15.461 6.475h-2.21c0-1.64-.325-5.017-.325-5.493 0-.477-.217-3.2-.487-4.491-.062-.2-.148-.716 0-1.193Z"/>
</svg>
