<svg id="tnt-Spot-Dialog" xmlns="http://www.w3.org/2000/svg" width="128" height="128" fill="none" viewBox="0 0 128 128">
  <rect width="128" height="55" y="40" fill="var(--sapContent_Illustrative_Color20)" rx="8"/>
  <path fill="var(--sapContent_Illustrative_Color21)" d="M82.353 79.457c.387.406.547.78.483 1.106-.068.326-.374.603-.897.816-.522.213-1.27.358-2.251.414l5.391 2.835c.097.048.17.096.226.14a.557.557 0 0 1 .116.129c.028.044.024.08.012.113a.238.238 0 0 1-.096.092c-.02.008-.044.016-.06.024 0 0-.009.004-.017.004 0 0-.008 0-.008.004l-1.266.398a.412.412 0 0 1-.069.016l-.076.012c-.024 0-.052.008-.08.012-.028 0-.06.004-.093.008h-.273c-.036 0-.064 0-.1-.008-.013 0-.025-.004-.033-.004-.06-.008-.129-.012-.189-.02-.076-.012-.149-.02-.225-.036h-.004l-15.314-2.83-3.627.144.085.045c.836.45 1.431.884 1.789 1.29.354.406.474.78.362 1.102-.113.325-.462.599-1.033.808-.016.004-.029.012-.049.016l-1.025.386a3.853 3.853 0 0 1-.55.16c-.02.005-.045.013-.069.017-.076.016-.157.036-.237.048a1.94 1.94 0 0 1-.065.012c-.036.008-.068.016-.104.02a7.345 7.345 0 0 1-.651.085c-.23.024-.483.036-.736.052l-8.387.39-3.192 3.269a.398.398 0 0 1-.08.052c-.013.008-.037.012-.057.02H49.9c-.004.004-.008.008-.024.012-.024.012-.052.02-.084.032-.025.012-.053.02-.08.032-.029.008-.053.02-.085.033-.025.012-.053.02-.085.032-.024.012-.052.02-.084.032-.024.012-.052.02-.085.032-.024.012-.056.02-.08.032a.721.721 0 0 0-.084.032c-.025.012-.057.02-.085.033-.024.012-.056.02-.084.032a.12.12 0 0 1-.04.016c-.013.004-.025.012-.04.016-.04.012-.061.02-.097.028h-.008a1.282 1.282 0 0 1-.056.012h-.029a.994.994 0 0 1-.213.024h-.285a1.96 1.96 0 0 1-.153-.008c-.056-.004-.113-.012-.169-.016a4.576 4.576 0 0 1-.398-.064 4.224 4.224 0 0 1-.724-.21 1.884 1.884 0 0 1-.285-.136l-5.058-2.798c-.611.02-1.262 0-1.93-.036h-.052c-.068 0-.137-.009-.209-.013a35.55 35.55 0 0 1-.88-.072c-.077-.008-.15-.012-.222-.02-.068-.008-.132-.012-.2-.02-.11-.012-.222-.028-.338-.04-.06-.008-.121-.012-.177-.02a35.6 35.6 0 0 1-3.217-.555l-.462-.109c-.08-.02-.165-.036-.245-.056-.153-.036-.31-.076-.463-.117-.104-.028-.205-.052-.31-.08-.22-.06-.441-.12-.659-.181-.132-.04-.269-.076-.402-.117-.008 0-.016-.004-.024-.008l-.346-.108a32.25 32.25 0 0 1-.438-.145l-.185-.06-.1-.036a18.492 18.492 0 0 1-.66-.242c-.06-.024-.124-.048-.18-.072a17.034 17.034 0 0 1-.362-.145c-.029-.012-.049-.02-.077-.036-.543-.23-1.053-.47-1.5-.72l-8.965-5.005a7.251 7.251 0 0 1-1.134-.764l-.016-.012s-.028-.024-.036-.036a2.41 2.41 0 0 1-.205-.193c-.02-.02-.04-.044-.064-.065-.06-.064-.109-.124-.161-.184-.012-.013-.028-.029-.032-.045-.02-.028-.033-.052-.049-.076s-.036-.048-.048-.073c-.008-.011-.012-.024-.02-.036-.016-.036-.036-.072-.052-.108-.012-.036-.029-.069-.037-.105-.008-.028-.024-.06-.028-.088-.012-.04-.008-.077-.012-.113v-.04c0-.096 0-.197.04-.285.013-.04.04-.08.065-.121a.978.978 0 0 1 .213-.265c.012-.017.04-.037.052-.053.008-.008.02-.016.032-.024a.356.356 0 0 1 .057-.052c.02-.012.04-.036.06-.052.008-.008.024-.02.028-.028.016-.017.044-.037.06-.053l.02-.02.097-.084.032-.028c.016-.017.044-.037.06-.057.005-.004.013-.012.02-.016l.033-.028c.237-.23.619-.426 1.137-.575.664-.193 1.548-.313 2.654-.342l13.57-.377-1.235-.672a7.842 7.842 0 0 1-1.242-.808c-.318-.261-.547-.51-.68-.748-.14-.237-.185-.458-.145-.663.04-.205.17-.39.378-.555l.483-.378c.22-.257.61-.478 1.174-.643.671-.19 1.576-.306 2.697-.33l3.808-.076 1.745-.037 15.044-.31h.013a24.952 24.952 0 0 1 3.45.19 36.23 36.23 0 0 1 3.73.643 36.72 36.72 0 0 1 3.578.99c1.118.377 2.147.795 3.004 1.246l9.484 4.949c.856.446 1.476.88 1.866 1.282l-.017-.008Z"/>
  <path fill="var(--sapContent_Illustrative_Color14)" d="M93.632 61.3c-.19.121-.39.234-.591.33a6.978 6.978 0 0 1-1.295.479 8.07 8.07 0 0 1-.704.14l-.048.009.129.579c.04-.017.056-.025.096-.045.201-.096.398-.209.583-.325l1.83-1.162V61.3Zm-1.488 9.534a.652.652 0 0 1-.093.044 1.38 1.38 0 0 1-.096.033c-.028.008-.064.016-.097.024a.44.44 0 0 1-.1.016c-.06.004-.12.004-.185.004-.064 0-.125-.012-.19-.024a.863.863 0 0 1-.188-.06 1.14 1.14 0 0 1-.185-.093h-.008L79.318 63.42l.032-.02h-.052v.004l-5.685.551.201.961 3.824-.374 11.539 7.293h.008c.056.033.12.06.177.085.052.02.108.04.16.052.008 0 .016.008.024.012.029.008.06.012.093.016.032.004.06.008.093.008h.092c.028 0 .06-.004.088-.004.032-.004.069-.008.1-.016.033-.008.07-.016.097-.024.029-.008.06-.02.093-.032a.668.668 0 0 0 .092-.044l1.838-1.046c-.024.012-.049.029-.077.037l.077-.045h.012ZM56.345 38.56c.181-.614.43-1.194.744-1.724a7.013 7.013 0 0 1 1.126-1.44h-.004l-1.48 1.456c-.43.422-.804.9-1.117 1.427a7.372 7.372 0 0 0-.74 1.709 7.872 7.872 0 0 0-.314 1.926A8.85 8.85 0 0 0 54.725 44h.004l.354 1.814 1.709-.201-.596-3.008a8.758 8.758 0 0 1-.164-2.098c.028-.68.132-1.331.313-1.946Zm9.79 36.786-8.95 1.009.921-.985 9.633-1.078h.016l.025-.004c.124-.016.229-.028.35-.048.466-.125.936-.21 1.39-.374.145-.056.286-.117.423-.177.068-.032.128-.064.197-.096.164-.085.325-.173.482-.27l-1.54.99c-.213.14-.434.26-.663.373l-.105.044-.092.045c-.1.044-.201.088-.306.128a.62.62 0 0 1-.08.028c-.044.017-.089.04-.133.057-.25.088-.502.16-.764.22-.261.065-.53.097-.804.133v.005Z"/>
  <path fill="var(--sapContent_Illustrative_Color8)" d="M46.33 58.326a2.838 2.838 0 0 0-1.057-.12h-.008a2.274 2.274 0 0 0-.98.293 2.345 2.345 0 0 0-1.134 1.552 2.652 2.652 0 0 0-.013 1.07 3.09 3.09 0 0 0 2.07 2.344c.343.108.7.152 1.066.116a2.4 2.4 0 0 0 .986-.306 2.3 2.3 0 0 0 .723-.65c.19-.266.326-.576.398-.906.073-.33.08-.691.008-1.065a3.053 3.053 0 0 0-1.117-1.825 2.936 2.936 0 0 0-.937-.503h-.004Zm9.058-.736a2.76 2.76 0 0 0-1.057-.12h-.008a2.275 2.275 0 0 0-.981.293 2.348 2.348 0 0 0-1.134 1.552 2.653 2.653 0 0 0-.012 1.07c.073.374.21.723.402 1.033a3.093 3.093 0 0 0 1.669 1.31c.341.11.7.153 1.065.117a2.4 2.4 0 0 0 .985-.305 2.3 2.3 0 0 0 .724-.652 2.48 2.48 0 0 0 .398-.904c.072-.33.08-.692.008-1.066a3.05 3.05 0 0 0-.402-1.025 3.091 3.091 0 0 0-1.653-1.303h-.004Zm8.958-.86a2.77 2.77 0 0 0-1.062-.12h-.008a2.274 2.274 0 0 0-.981.293 2.346 2.346 0 0 0-1.134 1.552 2.65 2.65 0 0 0-.012 1.07c.073.373.21.723.402 1.033a3.09 3.09 0 0 0 1.669 1.31c.342.109.7.153 1.065.117.366-.032.696-.14.985-.306a2.3 2.3 0 0 0 .724-.651 2.47 2.47 0 0 0 .398-.905c.072-.33.08-.691.008-1.065a3.053 3.053 0 0 0-1.118-1.825 2.937 2.937 0 0 0-.936-.503Z"/>
  <path fill="var(--sapContent_Illustrative_Color14)" d="M47.331 84.125h.004l.005-.004-.009.004Z"/>
  <path fill="var(--sapContent_Illustrative_Color14)" d="m32.862 57.068 2.287 12.901a9.02 9.02 0 0 0 .543 1.858l.032.088c.053.125.109.246.165.366.028.064.056.129.089.193.104.21.217.414.337.615.02.032.037.065.053.097.032.052.068.1.1.153.08.124.16.249.25.37.064.092.128.188.2.28l.012.021c.08.105.165.201.246.302.132.16.27.317.414.47l.2.213c.101.1.202.201.306.297.057.053.113.101.17.15.108.092.208.192.32.28a9.383 9.383 0 0 0 2.474 1.428c.052.02.1.04.152.056.093.037.185.077.282.109.056.02.116.032.173.048.064.02.128.036.193.056.257.073.518.137.784.185.064.012.124.028.189.037.016 0 .032 0 .048.003.619.101 1.25.137 1.885.093l1.323 7.209a1.283 1.283 0 0 0 .293.647 1.3 1.3 0 0 0 .57.406c.05.016.098.032.146.044.044.012.097.016.141.024a.737.737 0 0 0 .14.009c.053 0 .097-.004.146-.008a.762.762 0 0 0 .244-.06c.009 0 .013-.005.02-.005.005-.004.009-.004.017-.008.024-.012.048-.02.072-.032.004 0 .008-.004.012-.008a1.25 1.25 0 0 0 .133-.073c.02-.011.04-.028.06-.04.02-.012.04-.028.065-.04a2.16 2.16 0 0 1 .124-.08c.04-.024.085-.057.125-.08.04-.025.084-.053.125-.081.04-.028.084-.052.124-.08.04-.029.085-.053.125-.08.04-.03.084-.053.124-.081.04-.028.085-.053.125-.08.04-.029.084-.053.125-.081a2.15 2.15 0 0 1 .124-.08c.04-.025.085-.057.125-.081.02-.012.024-.02.048-.032-.008.004 0 0-.008 0a1.451 1.451 0 0 1-.136.068 1.421 1.421 0 0 1-.273.076.597.597 0 0 1-.093.009h-.145c-.024 0-.048 0-.072-.008-.02 0-.045-.008-.065-.013a2.265 2.265 0 0 0-.068-.011h-.012c-.048-.009-.097-.029-.145-.045-.08-.036-.153-.068-.225-.108a1.196 1.196 0 0 1-.213-.153c-.065-.052-.113-.12-.169-.185a1.434 1.434 0 0 1-.165-.261 1.792 1.792 0 0 1-.117-.35l-1.346-7.297a8.51 8.51 0 0 1-.845.016c-.345-.04-.691-.056-1.037-.105-.108-.016-.217-.04-.326-.06a10.407 10.407 0 0 1-.96-.241 11.157 11.157 0 0 1-.338-.117c-.129-.044-.253-.096-.378-.145-.097-.04-.197-.08-.294-.124a10.12 10.12 0 0 1-.59-.294c-.097-.052-.19-.108-.286-.165a5.708 5.708 0 0 1-.334-.205c-.104-.068-.213-.136-.313-.209-.109-.072-.21-.153-.314-.229-.076-.056-.153-.112-.23-.173-.068-.052-.132-.112-.196-.169a10.06 10.06 0 0 1-.33-.29 7.689 7.689 0 0 1-.51-.515 9.334 9.334 0 0 1-.656-.775c-.072-.092-.136-.189-.205-.285-.088-.129-.177-.257-.257-.39-.044-.072-.093-.145-.137-.217a9.613 9.613 0 0 1-1.194-3.18S34.132 55.78 34.136 55.78a8.479 8.479 0 0 1-.08-2.46 7.86 7.86 0 0 1 .265-1.323c.125-.414.282-.812.47-1.194l.025-.049c.056-.112.116-.225.177-.333.04-.077.088-.149.132-.221.08-.133.17-.266.258-.394l.144-.205c.065-.089.133-.173.201-.258.049-.06.1-.116.153-.173.056-.064.113-.128.169-.189l-.048.053s.032-.032.044-.053a.958.958 0 0 0-.048.057l-.1.108-.045.044c-.036.04-.093.097-.129.137-.02.024-.048.052-.076.08l-.201.214s-.032.032-.044.048c-.036.036-.093.092-.129.133-.016.02-.04.044-.064.068-.04.036-.089.096-.129.133-.04.036-.093.092-.129.132-.016.02-.04.044-.064.069-.036.04-.088.092-.125.132-.193.205-.37.422-.538.644l-.032.044c-.077.104-.157.205-.226.313a7.084 7.084 0 0 0-.474.849c-.044.096-.097.189-.137.285-.032.077-.056.153-.088.23a5.11 5.11 0 0 0-.1.265 4.865 4.865 0 0 0-.093.281.627.627 0 0 1-.032.093c-.017.06-.032.124-.049.185-.016.068-.04.132-.056.2-.008.037-.012.077-.02.113a6.3 6.3 0 0 0-.088.479l-.025.169c-.024.164-.04.33-.052.494 0 .028-.008.06-.008.088v.073c-.032.623 0 1.27.12 1.926h-.003Z"/>
  <path fill="var(--sapContent_Illustrative_Color2)" d="M61.922 45.263a8.032 8.032 0 0 1 3.148.426 9.317 9.317 0 0 1 2.802 1.552 9.946 9.946 0 0 1 2.175 2.44 9.469 9.469 0 0 1 1.254 3.096l2.043 9.874.124.604.15.7.224 1.085a8.921 8.921 0 0 1 .069 3.32 7.683 7.683 0 0 1-1.11 2.843 6.941 6.941 0 0 1-2.11 2.079 6.933 6.933 0 0 1-2.924 1.005l-9.657 1.077-8.43 9.408a1.118 1.118 0 0 1-.31.23c-.053.028-.117.048-.177.072a.715.715 0 0 1-.19.036c-.044 0-.096.008-.14.008-.044 0-.096 0-.14-.008a11.794 11.794 0 0 0-.15-.024 1.42 1.42 0 0 1-.724-.454 1.476 1.476 0 0 1-.192-.302 1.479 1.479 0 0 1-.113-.342l-1.347-7.297a8.607 8.607 0 0 1-3.309-.43 9.476 9.476 0 0 1-2.938-1.616 9.851 9.851 0 0 1-2.244-2.561 9.551 9.551 0 0 1-1.234-3.261L34.148 55.78a8.31 8.31 0 0 1 .076-3.374 7.537 7.537 0 0 1 1.327-2.826 7.217 7.217 0 0 1 2.336-1.994 7.687 7.687 0 0 1 3.112-.885l15.535-1.07.261-.015 1.452-.1 3.683-.25-.008-.004Zm2.263 16.653a2.178 2.178 0 0 0 1.608-.933c.181-.261.302-.559.366-.88a2.562 2.562 0 0 0-.012-1.034 3.051 3.051 0 0 0-1.098-1.78 2.898 2.898 0 0 0-.9-.491 2.52 2.52 0 0 0-1.01-.121 2.15 2.15 0 0 0-.928.29 2.22 2.22 0 0 0-.683.627 2.362 2.362 0 0 0-.374.88c-.069.326-.069.68.004 1.038.072.361.209.703.402 1.009.193.305.43.57.703.788.274.217.583.386.909.49.326.105.671.145 1.013.117ZM46.27 63.58c.366-.032.695-.145.985-.305a2.332 2.332 0 0 0 1.121-1.556c.073-.33.077-.696.009-1.066a2.954 2.954 0 0 0-.402-1.025 3.035 3.035 0 0 0-.716-.8 3.106 3.106 0 0 0-.937-.503 2.687 2.687 0 0 0-1.061-.12 2.376 2.376 0 0 0-.981.297 2.338 2.338 0 0 0-1.134 1.552 2.583 2.583 0 0 0-.012 1.07c.072.374.209.723.402 1.033a3.091 3.091 0 0 0 1.668 1.31c.342.11.7.153 1.066.117m9.062-.848a2.236 2.236 0 0 0 1.656-.945c.185-.265.314-.567.382-.892a2.63 2.63 0 0 0 0-1.05 2.889 2.889 0 0 0-.402-1.009 3.176 3.176 0 0 0-.707-.792 2.942 2.942 0 0 0-.917-.495 2.638 2.638 0 0 0-1.033-.12 2.282 2.282 0 0 0-.957.293 2.216 2.216 0 0 0-.704.636 2.445 2.445 0 0 0-.39.892c-.072.33-.076.688 0 1.053a3.098 3.098 0 0 0 1.114 1.822c.278.22.595.39.925.498a2.5 2.5 0 0 0 1.037.117"/>
  <path fill="var(--sapContent_Illustrative_Color13)" d="M84.062 32.282a8.135 8.135 0 0 1 3.197.498 9.858 9.858 0 0 1 2.874 1.652c.873.716 1.64 1.58 2.256 2.55a10.15 10.15 0 0 1 1.339 3.208l2.89 12.753a9.083 9.083 0 0 1 .153 3.305 7.621 7.621 0 0 1-.993 2.842 6.695 6.695 0 0 1-1.982 2.103 6.585 6.585 0 0 1-2.802 1.061l1.612 7.306c.024.124.04.249.036.361a1.356 1.356 0 0 1-.056.334 1.045 1.045 0 0 1-.362.527c-.036.028-.076.052-.113.076-.036.02-.08.04-.12.06a.88.88 0 0 1-.262.06.715.715 0 0 1-.184 0c-.065 0-.125-.011-.19-.023a.854.854 0 0 1-.189-.06.99.99 0 0 1-.184-.093l-11.68-7.398-5.737.56-.145-.7-.125-.604-2.042-9.874a9.497 9.497 0 0 0-1.25-3.096 9.794 9.794 0 0 0-2.175-2.44 9.365 9.365 0 0 0-2.803-1.552 8.021 8.021 0 0 0-3.148-.426l-3.678.25-1.456.1-.595-3.008a8.8 8.8 0 0 1 0-3.477 7.438 7.438 0 0 1 1.283-2.895 6.937 6.937 0 0 1 2.327-2.014 7.372 7.372 0 0 1 3.136-.849l3.912-.2 1.794-.093 15.462-.8.012-.008-.012.004Z"/>
</svg>
