<svg id="tnt-Dialog-NoApplications" xmlns="http://www.w3.org/2000/svg" width="160" height="160" fill="none" viewBox="0 0 160 160">
  <rect width="160" height="69" y="50" fill="var(--sapContent_Illustrative_Color20)" rx="12"/>
  <path fill="var(--sapContent_Illustrative_Color21)" fill-rule="evenodd" d="m46.388 115.245 68.96-12.465c.428-.079.443-.689.025-.799l-43.24-10.905a3.947 3.947 0 0 0-1.583-.073l-54.445 8.493c-.964.152-1.15 1.472-.263 1.89l28.984 13.645a2.57 2.57 0 0 0 1.567.204l-.005.01Z" clip-rule="evenodd"/>
  <path fill="var(--sapContent_Illustrative_Color13)" d="M117.719 38.003c.273-.016.552.036.81.13a2.696 2.696 0 0 1 1.314 1.096c.16.256.279.538.351.836l1.284 5.653-83.495 5.09-1.078-6.285a2.224 2.224 0 0 1 .031-.945 2.062 2.062 0 0 1 1.067-1.342c.269-.135.573-.219.908-.24l78.808-3.993Z"/>
  <path fill="var(--sapContent_Illustrative_Color8)" d="m37.978 50.808 83.491-5.084 10.73 47.237c.072.318.082.631.051.918a2.149 2.149 0 0 1-.263.794 1.775 1.775 0 0 1-.531.58 1.708 1.708 0 0 1-.747.281l-80.727 10.242c-.345.047-.68.01-1-.078a2.452 2.452 0 0 1-.887-.46 2.863 2.863 0 0 1-.675-.757 2.707 2.707 0 0 1-.367-.981l-9.07-52.692h-.005Z"/>
  <path fill="var(--sapContent_Illustrative_Color20)" d="m45.893 55.797 22.57-1.258c.195-.01.391.016.577.073a1.74 1.74 0 0 1 .902.679c.108.157.175.334.211.517l3.904 20.28a1.33 1.33 0 0 1-.232 1.034 1.375 1.375 0 0 1-.397.355c-.155.094-.34.156-.537.177l-22.594 2.761a1.877 1.877 0 0 1-1.243-.302 1.517 1.517 0 0 1-.655-.987l-3.846-21.789a1.21 1.21 0 0 1 .025-.563c.052-.173.14-.34.263-.48.124-.142.274-.256.454-.34.18-.084.382-.14.598-.157Zm53.976-3.006 16.727-.934c.144-.01.294.015.433.068.139.052.273.13.392.23.118.099.227.224.309.36.083.135.15.287.186.448l3.882 17.477c.037.168.042.324.021.475a1.073 1.073 0 0 1-.144.408.91.91 0 0 1-.671.444l-16.675 2.04a1.279 1.279 0 0 1-.928-.276 1.526 1.526 0 0 1-.34-.37 1.36 1.36 0 0 1-.196-.481l-3.909-18.584a1.29 1.29 0 0 1-.01-.485 1.02 1.02 0 0 1 .17-.407.98.98 0 0 1 .748-.418l.005.005ZM75.093 54.17l19.304-1.071c.17-.01.336.016.5.073.166.057.31.141.45.245.139.105.252.235.345.381.093.147.16.308.196.48l3.908 18.767c.036.177.036.35.005.512a1.142 1.142 0 0 1-.97.924l-19.284 2.36c-.195.02-.386 0-.567-.048a1.542 1.542 0 0 1-.882-.637 1.394 1.394 0 0 1-.21-.511l-3.91-20.05a1.292 1.292 0 0 1 .006-.523 1.05 1.05 0 0 1 .211-.438c.103-.126.227-.235.377-.314.15-.078.32-.13.505-.14l.016-.01Z"/>
  <path fill="var(--sapContent_Illustrative_Color2)" d="M42.469 44.225c.263-.016.526.026.773.11.253.083.475.214.681.375.206.162.376.36.516.585.139.224.237.47.278.736a1.75 1.75 0 0 1-.325 1.383 1.665 1.665 0 0 1-1.258.642 2.172 2.172 0 0 1-1.454-.486 2.34 2.34 0 0 1-.52-.584 1.95 1.95 0 0 1-.28-.74 1.857 1.857 0 0 1 .021-.758c.052-.235.16-.454.305-.631a1.655 1.655 0 0 1 1.263-.637v.005Z"/>
  <path fill="var(--sapContent_Illustrative_Color14)" d="M49.987 105.776a2.57 2.57 0 0 1-1-.079 2.616 2.616 0 0 1-.888-.459 2.808 2.808 0 0 1-.675-.762 2.678 2.678 0 0 1-.366-.982l-9.07-52.686-1.078-6.285a2.091 2.091 0 0 1-.036-.47 2.16 2.16 0 0 1 .201-.861c.057-.13.14-.256.222-.366l-1.366 1.801a3.2 3.2 0 0 0-.222.36c-.057.13-.108.261-.145.407a2.091 2.091 0 0 0-.056.444c0 .152 0 .308.036.465l1.062 6.217 8.915 52.107a2.796 2.796 0 0 0 1.026 1.723c.263.203.557.355.877.454.32.094.655.125.99.078l79.999-10.231 2.3-1.122-80.726 10.241v.006Z"/>
  <path fill="var(--sapContent_Illustrative_Color17)" d="m135.586 103.411-2.006 1.311s-.046.031-.067.041c-.02.011-.046.032-.062.042-.02.011-.046.031-.062.042-.02.01-.046.031-.067.042a14.68 14.68 0 0 1-1.314.715 13.649 13.649 0 0 1-2.842.971c-.495.109-1 .193-1.505.245-.253.031-.511.052-.763.068-.253.016-.516.021-.774.026-.258 0-.521 0-.783-.021-.263-.021-.526-.031-.789-.062a16.417 16.417 0 0 1-2.372-.423 17.214 17.214 0 0 1-2.321-.783 18.465 18.465 0 0 1-4.331-2.589 19.224 19.224 0 0 1-1.908-1.754 21.015 21.015 0 0 1-1.665-1.99 19.923 19.923 0 0 1-1.392-2.192 19.394 19.394 0 0 1-1.093-2.36 18.459 18.459 0 0 1-.764-2.458 18.128 18.128 0 0 1-.474-4.964c.036-.82.139-1.624.299-2.412a15.17 15.17 0 0 1 .624-2.245c.263-.72.578-1.414.938-2.072a13.483 13.483 0 0 1 2.728-3.477l1.769-1.618a13.64 13.64 0 0 0-2.749 3.513 15.34 15.34 0 0 0-.943 2.088 14.796 14.796 0 0 0-.624 2.271 16.915 16.915 0 0 0-.237 4.938c.077.84.216 1.681.417 2.516.202.836.459 1.666.769 2.485.319.82.685 1.613 1.103 2.38a20.298 20.298 0 0 0 3.089 4.234 19.283 19.283 0 0 0 4.053 3.247c.732.439 1.485.82 2.253 1.148.768.329 1.552.59 2.346.799a15.796 15.796 0 0 0 3.192.496c.268.016.526.021.789.021s.52-.011.783-.021c.263-.01.516-.036.774-.068.51-.057 1.021-.141 1.521-.245.5-.105.99-.246 1.464-.407.48-.162.944-.355 1.403-.564.459-.214.897-.454 1.325-.72.026-.016.046-.032.067-.042.026-.011.046-.032.062-.042.02-.01.046-.031.062-.042.02-.01.046-.031.067-.047"/>
  <path fill="var(--sapContent_Illustrative_Color9)" d="M134.704 76.026a19.67 19.67 0 0 1 2.403 2.339 20.836 20.836 0 0 1 1.975 2.693c.582.95 1.082 1.947 1.495 2.98a19.6 19.6 0 0 1 .974 3.185 17.923 17.923 0 0 1 .356 4.844c-.057.794-.16 1.582-.325 2.35a15.797 15.797 0 0 1-.654 2.244 14.594 14.594 0 0 1-.98 2.083 14.24 14.24 0 0 1-1.274 1.869c-.469.584-.99 1.127-1.552 1.618-.562.496-1.165.945-1.81 1.342a13.057 13.057 0 0 1-2.727 1.284c-.48.161-.97.297-1.465.407-.495.109-1.005.193-1.521.245a9.583 9.583 0 0 1-.773.063c-.258.015-.521.021-.784.021s-.526 0-.789-.021a22.361 22.361 0 0 1-.799-.063 15.212 15.212 0 0 1-2.393-.433 17.123 17.123 0 0 1-2.346-.799 18.62 18.62 0 0 1-4.377-2.62 20.083 20.083 0 0 1-1.929-1.77 19.55 19.55 0 0 1-1.681-2.015 19.988 19.988 0 0 1-2.511-4.604c-.319-.82-.572-1.65-.768-2.485a19.326 19.326 0 0 1-.418-2.516c-.077-.84-.098-1.67-.062-2.5.042-.83.14-1.64.299-2.438.16-.799.372-1.571.64-2.313.268-.74.598-1.45.969-2.124a12.83 12.83 0 0 1 1.279-1.906 13.34 13.34 0 0 1 1.557-1.644 12.866 12.866 0 0 1 1.8-1.352 13.724 13.724 0 0 1 4.125-1.712 14.02 14.02 0 0 1 2.258-.334 15.033 15.033 0 0 1 3.099.12 16.63 16.63 0 0 1 3.058.736c1.005.344 1.985.783 2.934 1.315a19.259 19.259 0 0 1 2.732 1.87V76l-.015.026Z"/>
  <path fill="var(--sapContent_Illustrative_Color8)" d="M124.974 79.466a1.306 1.306 0 0 1 .929.309c.128.104.247.24.34.386.093.146.16.313.196.49l1.351 6.714 6.259-.543c.165-.016.33.01.485.062.155.052.304.136.433.24a1.534 1.534 0 0 1 .537.877c.036.178.036.35.01.507a1.148 1.148 0 0 1-.17.433 1.029 1.029 0 0 1-.32.313c-.129.078-.278.13-.443.146l-6.265.564 1.366 6.786c.036.183.036.355.005.517a1.212 1.212 0 0 1-.18.444 1.066 1.066 0 0 1-.784.47c-.17.015-.335 0-.495-.058a1.478 1.478 0 0 1-.443-.245 1.509 1.509 0 0 1-.542-.893l-1.356-6.807-6.399.574a1.16 1.16 0 0 1-.5-.062 1.52 1.52 0 0 1-.995-1.138 1.249 1.249 0 0 1 .186-.956 1.085 1.085 0 0 1 .799-.459l6.393-.558-1.345-6.734a1.226 1.226 0 0 1 .18-.934 1.005 1.005 0 0 1 .779-.444h-.011Z"/>
</svg>
