<svg id="tnt-Dialog-ChartFlow" xmlns="http://www.w3.org/2000/svg" width="160" height="160" fill="none" viewBox="0 0 160 160">
  <rect width="160" height="69" y="50" fill="var(--sapContent_Illustrative_Color20)" rx="12"/>
  <path fill="var(--sapContent_Illustrative_Color21)" fill-rule="evenodd" d="m53.994 114.979 75.325-13.45c.469-.085.486-.746.028-.859L82.114 88.904a4.35 4.35 0 0 0-1.729-.08l-59.473 9.167c-1.051.164-1.255 1.588-.288 2.04l31.658 14.722c.53.248 1.13.327 1.712.22v.006Z" clip-rule="evenodd"/>
  <path fill="var(--sapContent_Illustrative_Color8)" d="m33.44 48.955 85.503-5.142 10.987 47.78c.076.321.086.638.051.929a2.053 2.053 0 0 1-.272.804c-.14.236-.321.437-.542.587a1.72 1.72 0 0 1-.764.286l-82.67 10.361c-.351.045-.698.01-1.025-.08a2.65 2.65 0 0 1-.909-.462 2.897 2.897 0 0 1-.693-.769 2.743 2.743 0 0 1-.377-.994l-9.29-53.3Z"/>
  <path fill="var(--sapContent_Illustrative_Color13)" d="M115.1 36.003a2.13 2.13 0 0 1 .828.13c.267.096.523.246.754.437a2.823 2.823 0 0 1 .95 1.517l1.316 5.72-85.509 5.148-1.105-6.358a2.245 2.245 0 0 1 .03-.955 2.055 2.055 0 0 1 1.095-1.356 2.42 2.42 0 0 1 .93-.24l80.711-4.043Zm-76.375 10.17c.27-.016.522-.086.738-.196.216-.11.402-.267.548-.452a1.717 1.717 0 0 0 .331-1.397 2.063 2.063 0 0 0-.286-.743 2.306 2.306 0 0 0-1.226-.974 2.112 2.112 0 0 0-.794-.11c-.271.014-.517.08-.738.19a1.67 1.67 0 0 0-.864 1.09c-.056.236-.07.497-.02.763a2.184 2.184 0 0 0 .819 1.341c.21.166.447.297.698.382a2.1 2.1 0 0 0 .794.11"/>
  <path fill="var(--sapContent_Illustrative_Color14)" d="M45.732 104.555c-.351.045-.698.01-1.024-.081a2.724 2.724 0 0 1-.91-.462 2.892 2.892 0 0 1-.693-.768 2.707 2.707 0 0 1-.377-.994l-9.29-53.295-1.105-6.358c-.03-.16-.04-.322-.035-.477 0-.156.025-.306.06-.452a2.147 2.147 0 0 1 .372-.789l-1.401 1.823a2.48 2.48 0 0 0-.227.367 2.215 2.215 0 0 0-.206.859c0 .156.005.311.036.472l1.09 6.288L41.15 103.4a2.807 2.807 0 0 0 1.055 1.742c.27.206.572.362.899.457.326.096.668.126 1.015.081l81.926-10.35 2.356-1.136-82.67 10.361Z"/>
  <path fill="var(--sapContent_Illustrative_Color2)" d="M38.036 42.295a2.13 2.13 0 0 1 .794.111 2.308 2.308 0 0 1 1.226.974c.14.226.241.478.286.744a1.718 1.718 0 0 1-.332 1.396 1.653 1.653 0 0 1-.547.452c-.216.11-.467.181-.739.196a2.126 2.126 0 0 1-.793-.11 2.25 2.25 0 0 1-.699-.382 2.398 2.398 0 0 1-.532-.593 2.055 2.055 0 0 1-.287-.748 1.937 1.937 0 0 1 .02-.764 1.62 1.62 0 0 1 .312-.638 1.713 1.713 0 0 1 1.291-.643v.005Z"/>
  <path fill="var(--sapContent_Illustrative_Color13)" d="M109.718 64.534c.681-.057 1.326.473 1.462 1.204l1.069 5.579c.143.738-.28 1.398-.94 1.47l-11.12 1.275c-.695.065-1.34-.473-1.477-1.204l-.243-1.262-.387-2.015-.452-2.337c-.144-.745.294-1.405.96-1.477l11.121-1.233h.007Z"/>
  <path fill="var(--sapContent_Illustrative_Color20)" d="m90.666 70.414 7.413-.832.388 2.015-7.887.889.244-.373c.323-.51.244-1.219-.158-1.7Z"/>
  <path fill="var(--sapContent_Illustrative_Color14)" d="M83.29 64.814c.308-.029.638.072.918.301l6.252 5.09c.079.065.143.13.208.208.408.488.487 1.198.157 1.7l-.243.372-3.57 5.478-.259.394a1.091 1.091 0 0 1-.824.502 1.212 1.212 0 0 1-.66-.129 1.736 1.736 0 0 1-.258-.165l-5.9-4.775-.38-.308c-.51-.409-.703-1.111-.495-1.67a1.11 1.11 0 0 1 .121-.244l4.102-6.245a1.07 1.07 0 0 1 .824-.495l.007-.014Z"/>
  <path fill="var(--sapContent_Illustrative_Color20)" d="m87.018 77.963 1.843 9.571c.035.187.193.323.358.308l6.008-.724.387 2.022-5.993.724s-.05 0-.072.007c-1.169.1-2.295-.831-2.545-2.115l-1.735-9.033c.215.107.444.15.66.129.329-.029.63-.201.824-.502l.258-.394.007.007Z"/>
  <path fill="var(--sapContent_Illustrative_Color13)" d="M68.383 69.1c.703-.064 1.37.481 1.513 1.227l.451 2.366.395 2.043.244 1.276c.15.76-.294 1.427-.99 1.506L57.55 78.945c-.724.064-1.391-.488-1.535-1.233l-1.104-5.729c-.143-.76.309-1.434 1.011-1.505l5.377-.596 1.893-.208 5.184-.573h.007Z"/>
  <path fill="var(--sapContent_Illustrative_Color20)" d="m61.61 61.416 1.591 8.26-1.893.207-1.591-8.266 1.893-.201Zm16.632 10.388c-.208.56-.014 1.262.495 1.67l.38.309-8.367.946-.394-2.043 7.893-.882h-.007Z"/>
  <path fill="var(--sapContent_Illustrative_Color15)" d="M112.893 81.448c.688-.058 1.319.466 1.456 1.19l1.075 5.578c.143.738-.28 1.398-.946 1.484l-17.1 2.093c-.703.065-1.34-.466-1.484-1.197l-.28-1.463-.387-2.021-.408-2.144c-.144-.746.286-1.413.96-1.491l17.114-2.037v.008Z"/>
  <path fill="var(--sapContent_Illustrative_Color9)" d="M69.71 51.73c.702-.065 1.369.487 1.512 1.233l1.14 5.922c.144.753-.3 1.413-.99 1.491l-9.764 1.033-1.893.2-6.216.66c-.717.065-1.39-.487-1.534-1.233l-1.147-5.987c-.144-.76.308-1.426 1.01-1.498l17.882-1.828v.007Z"/>
</svg>
