<svg id="tnt-Spot-Calculator" xmlns="http://www.w3.org/2000/svg" width="128" height="128" fill="none" viewBox="0 0 128 128">
  <rect width="128" height="55" y="40" fill="var(--sapContent_Illustrative_Color20)" rx="8"/>
  <path fill="var(--sapContent_Illustrative_Color21)" d="m54.863 92.712 35.982-5.92c.44-.07.483-.716.061-.855l-35.78-10.394a6.686 6.686 0 0 0-3.331-.231l-29.848 3.58c-.415.079-.476.679-.085.845L51.12 92.254a6.743 6.743 0 0 0 3.744.458Z"/>
  <path fill="var(--sapContent_Illustrative_Color17)" d="M81.72 27.2c.44-.017.879.063 1.3.219.42.156.813.389 1.167.68.355.293.668.643.915 1.036.246.392.434.83.538 1.292l3.505 15.757L49.28 48.98l-3.13-16.913c-.09-.494-.076-.97.028-1.407a2.936 2.936 0 0 1 1.572-1.97 3.297 3.297 0 0 1 1.345-.33L81.72 27.2Z"/>
  <path fill="var(--sapContent_Illustrative_Color25)" d="m85.363 39.775-1.902-8.64a1.879 1.879 0 0 0-.243-.59 2.017 2.017 0 0 0-.417-.472 1.883 1.883 0 0 0-.536-.31 1.583 1.583 0 0 0-.594-.097l-9.289.372-1.933.076-2.138.087-5.399.216-12.682.507c-.222.01-.43.062-.608.153a1.325 1.325 0 0 0-.706.9 1.574 1.574 0 0 0-.01.638l1.72 9.188c.035.184.098.358.185.522.087.163.219.28.344.413.125.132.295.215.452.306.156.09.507.208.681.25l31.959-1.87c.202-.013.386-.069.546-.155.156-.09.292-.212.393-.362.1-.15.17-.323.205-.514a1.658 1.658 0 0 0-.018-.611l-.01-.007Z"/>
  <path fill="var(--sapContent_Illustrative_Color22)" d="m80.857 39.403-3.838.22.772-1.099 1.86-.104 1.206.983Zm-5.764-2.626.574 2.716-1.22-.99-.296-1.413.487-.685.455.372Zm2.163.15.302 1.406-.772 1.098-.573-2.713.288-.407.755.616Zm5.75 2.354-.978.056-.221-1.035.972-.056.227 1.035Zm-3.269-3.338-.379.542-2.102.108-.609-.493.386-.542 2.104-.105.6.49Zm-4.894-.343-.288.417-.762-.63-.296-1.407.78-1.08.566 2.7Zm5.315-.265-.281.41-.755-.622-.299-1.392.758-1.07.577 2.674ZM73.272 33.8l-1.892.087-1.224-1.004 3.894-.174-.778 1.09Zm5.333-.25-1.857.087-1.21-.993 3.824-.171-.757 1.077Z"/>
  <path fill="var(--sapContent_Illustrative_Color8)" d="m72.381 30.034-1.86.077 1.86-.077ZM51.224 42.79s.038.024.055.038a.54.54 0 0 1-.087-.07c.01.011.018.021.032.028v.004Zm.31.205-.09-.052c.027.017.058.034.09.052Zm.264.132s.01 0 .014.007c-.007 0-.014-.004-.021-.007h.007Zm.396.135-.055-.017c.017.007.038.01.055.017Z"/>
  <path fill="var(--sapContent_Illustrative_Color2)" d="M52.285 43.287h.017c-.035-.01-.076-.018-.108-.028l.094.028h-.003Zm-.147-.042Zm-.531-.208c.048.027.114.059.187.086a2.228 2.228 0 0 1-.257-.128c.024.014.049.028.07.042Zm-.164-.094a1.884 1.884 0 0 1-.164-.111c.052.038.105.08.164.11Zm-.288-.213.041.032a1.388 1.388 0 0 1-.125-.122c.028.028.056.06.084.087v.004Zm-.508-.857c.034.156.09.306.163.444.048.094.118.174.188.25a1.592 1.592 0 0 1-.15-.2 1.698 1.698 0 0 1-.201-.494Z"/>
  <path fill="var(--sapContent_Illustrative_Color9)" d="M56.045 85.547 49.28 48.98l39.864-2.796 7.551 33.951a4.11 4.11 0 0 1 .063 1.466 3.5 3.5 0 0 1-.438 1.268 2.944 2.944 0 0 1-.866.938 2.787 2.787 0 0 1-1.217.469L60.517 89a3.612 3.612 0 0 1-1.51-.108 4.011 4.011 0 0 1-1.345-.684 4.283 4.283 0 0 1-1.036-1.153 4.429 4.429 0 0 1-.58-1.504v-.004Z"/>
  <path fill="var(--sapContent_Illustrative_Color17)" d="M94.822 84.13c-.063.02-.125.042-.188.063a3.182 3.182 0 0 1-.396.083L60.516 89a3.609 3.609 0 0 1-1.508-.108 4.011 4.011 0 0 1-1.346-.684 4.226 4.226 0 0 1-1.036-1.153 4.333 4.333 0 0 1-.58-1.504L49.28 48.98l-3.13-16.913a3.476 3.476 0 0 1-.048-.369c0-.041 0-.083-.003-.125-.004-.08-.01-.156-.007-.232 0-.046.007-.09.01-.14.004-.069.007-.138.014-.208a1.76 1.76 0 0 1 .028-.142c.01-.063.02-.129.035-.191.01-.049.027-.094.041-.143.018-.059.032-.118.053-.173.017-.046.038-.09.055-.136.024-.055.045-.111.07-.166.02-.046.048-.087.073-.13.027-.051.055-.103.083-.152.028-.042.06-.08.087-.122.035-.048.066-.097.1-.142l-2.095 2.62s-.004.006-.008.006c-.034.042-.062.09-.093.136-.028.038-.06.076-.084.118-.031.048-.055.1-.087.153-.02.041-.048.08-.066.121v.007a3.031 3.031 0 0 0-.066.157c-.017.045-.041.09-.055.135-.021.056-.035.115-.053.17-.013.045-.03.09-.041.14a3.507 3.507 0 0 0-.035.187c-.007.045-.02.09-.024.139-.01.07-.01.142-.018.212 0 .041-.007.083-.01.125 0 .076 0 .152.007.229v.121c.01.119.024.24.048.362l3.025 16.57 6.532 35.785a4.224 4.224 0 0 0 1.578 2.595 3.87 3.87 0 0 0 1.318.667c.473.135.973.173 1.477.104l33.12-4.697c.067-.01.133-.02.199-.034.066-.014.128-.032.19-.049a2.857 2.857 0 0 0 .362-.132l3.143-1.396c-.06.027-.118.052-.18.073l-.004.01Z"/>
  <path fill="var(--sapContent_Illustrative_Color15)" d="m88.178 59.783-.737.476a3.214 3.214 0 0 1-.302.17 2.846 2.846 0 0 1-.674.233 4.088 4.088 0 0 1-.37.059 3.48 3.48 0 0 1-1.449-.17 4.328 4.328 0 0 1-1.314-.726c-.4-.32-.75-.72-1.032-1.167a4.523 4.523 0 0 1-.602-1.49 4.138 4.138 0 0 1-.087-1.102c.021-.354.087-.691.195-1.004a3.18 3.18 0 0 1 1.112-1.518l.713-.514c-.257.184-.48.41-.668.664-.187.253-.34.545-.448.858a3.648 3.648 0 0 0-.195 1.007c-.017.354.007.726.09 1.108.115.542.324 1.046.61 1.5.284.456.635.852 1.035 1.175.4.323.848.573 1.321.733.473.16.967.222 1.457.174a3.19 3.19 0 0 0 1.05-.292c.104-.052.208-.108.306-.17"/>
  <path fill="var(--sapContent_Illustrative_Color14)" d="m79.615 60.55-.702.48a3.587 3.587 0 0 1-.337.201c-.118.063-.24.115-.365.16a3.417 3.417 0 0 1-.81.18 3.737 3.737 0 0 1-1.505-.17 4.392 4.392 0 0 1-1.36-.736 4.66 4.66 0 0 1-1.665-2.699 4.139 4.139 0 0 1-.08-1.084c.021-.35.087-.68.195-.99.108-.309.257-.597.438-.854.18-.257.403-.486.654-.677l.674-.518a3.1 3.1 0 0 0-.653.68c-.185.261-.334.55-.442.859a3.7 3.7 0 0 0-.195.993c-.02.348.004.716.08 1.088a4.71 4.71 0 0 0 1.676 2.712 4.38 4.38 0 0 0 1.363.74 3.782 3.782 0 0 0 1.512.174 3.312 3.312 0 0 0 .813-.18 2.982 2.982 0 0 0 .706-.361"/>
  <path fill="var(--sapContent_Illustrative_Color8)" d="M76.46 53.197a3.793 3.793 0 0 1 1.502.188c.483.16.938.413 1.345.74.407.326.761.722 1.046 1.173.285.452.494.96.609 1.498.114.538.121 1.07.035 1.556a3.53 3.53 0 0 1-.525 1.327 3.155 3.155 0 0 1-.995.959c-.4.243-.865.403-1.38.451a3.713 3.713 0 0 1-1.512-.174 4.413 4.413 0 0 1-1.363-.74 4.792 4.792 0 0 1-1.063-1.19 4.559 4.559 0 0 1-.612-1.522 4.06 4.06 0 0 1-.021-1.57 3.54 3.54 0 0 1 .546-1.327 3.13 3.13 0 0 1 1.011-.945c.403-.236.87-.386 1.38-.428l-.003.004Z"/>
  <path fill="var(--sapContent_Illustrative_Color15)" d="M91.752 79.291a2.699 2.699 0 0 1-.483.146 3.474 3.474 0 0 1-1.745-.087 4.137 4.137 0 0 1-1.353-.719 4.722 4.722 0 0 1-1.063-1.188 4.866 4.866 0 0 1-.626-1.542l-2.058-9.702c-.087-.406-.115-.806-.087-1.188.028-.382.108-.743.233-1.077a3.28 3.28 0 0 1 .514-.906c.212-.268.47-.5.758-.685l-.73.466a3.065 3.065 0 0 0-.754.68 3.394 3.394 0 0 0-.511.904 3.861 3.861 0 0 0-.233 1.073c-.028.379 0 .778.087 1.181l2.04 9.653c.119.556.334 1.074.62 1.532a4.64 4.64 0 0 0 1.056 1.181c.407.323.866.567 1.346.712a3.5 3.5 0 0 0 1.738.084 2.864 2.864 0 0 0 .483-.146 3.04 3.04 0 0 0 .226-.1l.772-.376a3.52 3.52 0 0 1-.226.1l-.004.004Z"/>
  <path fill="var(--sapContent_Illustrative_Color14)" d="m81.42 70.35-.72.427a3.025 3.025 0 0 1-.615.282 3.442 3.442 0 0 1-.692.153c-.514.059-1.025 0-1.515-.15a4.195 4.195 0 0 1-1.367-.73 4.693 4.693 0 0 1-1.682-2.73 4.355 4.355 0 0 1-.077-1.17c.028-.375.108-.737.233-1.067.125-.33.296-.639.508-.91.212-.27.459-.507.744-.698l.692-.469a3.18 3.18 0 0 0-.748.702 3.5 3.5 0 0 0-.507.913 3.861 3.861 0 0 0-.233 1.074c-.028.378-.004.774.08 1.177a4.745 4.745 0 0 0 1.69 2.748c.413.33.882.58 1.372.733a3.7 3.7 0 0 0 1.523.153 3.599 3.599 0 0 0 .692-.153 3.629 3.629 0 0 0 .619-.285m-10.69-9.007-.66.482a3.27 3.27 0 0 1-1.206.549c-.15.035-.307.06-.463.077a3.829 3.829 0 0 1-1.55-.17 4.427 4.427 0 0 1-1.391-.747 4.774 4.774 0 0 1-1.078-1.206 4.5 4.5 0 0 1-.608-1.538 4.258 4.258 0 0 1-.073-1.06c.02-.34.087-.67.19-.976a3.384 3.384 0 0 1 1.053-1.539l.634-.52a3.22 3.22 0 0 0-.633.69 3.58 3.58 0 0 0-.427.855c-.105.306-.17.639-.192.98-.02.34 0 .701.073 1.066.108.56.324 1.08.612 1.55.289.468.66.875 1.081 1.211.421.337.897.591 1.398.75.5.16 1.029.227 1.557.174a3.5 3.5 0 0 0 1.304-.393c.129-.069.254-.149.369-.232"/>
  <path fill="var(--sapContent_Illustrative_Color26)" d="M87.212 61.874a3.62 3.62 0 0 1 1.467.167 4.2 4.2 0 0 1 1.32.722 4.71 4.71 0 0 1 1.651 2.66l2.097 9.571a4.34 4.34 0 0 1 .06 1.591c-.077.5-.247.97-.494 1.376a3.137 3.137 0 0 1-2.301 1.518 3.483 3.483 0 0 1-1.488-.132 4.173 4.173 0 0 1-1.353-.72 4.783 4.783 0 0 1-1.063-1.187 4.784 4.784 0 0 1-.626-1.543l-2.058-9.702a4.18 4.18 0 0 1-.042-1.577c.084-.496.26-.948.514-1.337a3.071 3.071 0 0 1 2.316-1.41v.003Z"/>
  <path fill="var(--sapContent_Illustrative_Color8)" d="M80.457 72.476a3.682 3.682 0 0 1 1.52.15c.49.152.949.402 1.362.729a4.75 4.75 0 0 1 1.686 2.737 4.33 4.33 0 0 1 .042 1.619c-.087.51-.264.986-.521 1.4a3.29 3.29 0 0 1-2.392 1.546 3.69 3.69 0 0 1-1.533-.133 4.21 4.21 0 0 1-1.384-.73 4.732 4.732 0 0 1-1.707-2.775 4.35 4.35 0 0 1-.028-1.64c.094-.517.279-.99.546-1.4a3.283 3.283 0 0 1 2.413-1.507l-.004.004Z"/>
  <path fill="var(--sapContent_Illustrative_Color14)" d="m83.232 80.323-.737.375a3.391 3.391 0 0 1-1.074.33c-.519.07-1.033.02-1.527-.129a4.223 4.223 0 0 1-1.376-.722 4.72 4.72 0 0 1-1.697-2.761 4.538 4.538 0 0 1-.076-1.272c.034-.406.132-.796.278-1.15.146-.354.344-.68.584-.962a3.32 3.32 0 0 1 .845-.712l.709-.417a3.32 3.32 0 0 0-.848.716 3.549 3.549 0 0 0-.584.969 4.05 4.05 0 0 0-.278 1.157c-.039.41-.014.84.076 1.278a4.74 4.74 0 0 0 1.706 2.775c.421.33.89.577 1.385.73a3.623 3.623 0 0 0 1.533.132 3.866 3.866 0 0 0 .563-.125 3.374 3.374 0 0 0 .514-.209m-10.76-9.006-.678.43a3.755 3.755 0 0 1-.326.184 3.493 3.493 0 0 1-1.116.32 3.812 3.812 0 0 1-1.561-.15c-.5-.153-.977-.41-1.401-.74a4.65 4.65 0 0 1-1.085-1.212 4.581 4.581 0 0 1-.615-1.563 4.374 4.374 0 0 1-.07-1.157c.028-.372.108-.726.233-1.06a3.66 3.66 0 0 1 .497-.91c.205-.274.449-.514.727-.712l.65-.469a3.476 3.476 0 0 0-1.227 1.63 4.077 4.077 0 0 0-.164 2.226 4.694 4.694 0 0 0 1.71 2.79 4.4 4.4 0 0 0 1.409.746 3.85 3.85 0 0 0 1.568.153c.135-.014.267-.038.396-.07.129-.03.254-.065.375-.107a3.18 3.18 0 0 0 .685-.33"/>
  <path fill="var(--sapContent_Illustrative_Color8)" d="M69.388 63.656a3.845 3.845 0 0 1 1.554.17c.497.16.967.414 1.387.744a4.734 4.734 0 0 1 1.693 2.747c.115.56.115 1.109.021 1.616-.094.507-.285.98-.556 1.39a3.362 3.362 0 0 1-1.04 1.013 3.43 3.43 0 0 1-1.432.494 3.85 3.85 0 0 1-1.567-.153 4.333 4.333 0 0 1-1.408-.747 4.724 4.724 0 0 1-1.71-2.79 4.215 4.215 0 0 1-.008-1.629c.101-.51.3-.98.577-1.385a3.366 3.366 0 0 1 1.057-.997c.42-.25.904-.417 1.436-.47l-.004-.003Z"/>
  <path fill="var(--sapContent_Illustrative_Color14)" d="m61.577 62.142-.62.486c-.128.1-.26.191-.402.27-.143.08-.289.154-.445.216a3.244 3.244 0 0 1-.484.153 4.14 4.14 0 0 1-.518.087 4.006 4.006 0 0 1-1.599-.174 4.508 4.508 0 0 1-1.425-.757 4.73 4.73 0 0 1-1.095-1.223c-.292-.472-.504-1-.608-1.566a4.19 4.19 0 0 1-.067-1.032 3.75 3.75 0 0 1 .588-1.8c.167-.26.368-.493.598-.698l.587-.524a3.52 3.52 0 0 0-.601.702c-.17.26-.306.545-.407.847-.1.302-.163.625-.184.962-.02.337 0 .685.066 1.039.108.57.32 1.101.615 1.573.296.473.671.893 1.102 1.23a4.59 4.59 0 0 0 1.433.764 4.04 4.04 0 0 0 1.606.174 3.55 3.55 0 0 0 1.008-.243c.156-.063.306-.136.448-.215.143-.08.279-.174.404-.275"/>
  <path fill="var(--sapContent_Illustrative_Color8)" d="M58.163 54.712a4.028 4.028 0 0 1 1.593.19c.507.167.987.428 1.411.761.424.334.793.747 1.085 1.213.292.465.504.99.611 1.549.108.56.105 1.105 0 1.608a3.72 3.72 0 0 1-.587 1.376c-.282.403-.65.743-1.081.997a3.63 3.63 0 0 1-1.478.472 3.978 3.978 0 0 1-1.606-.174 4.53 4.53 0 0 1-1.432-.764 4.842 4.842 0 0 1-1.102-1.23 4.59 4.59 0 0 1-.615-1.573 4.05 4.05 0 0 1 .017-1.626c.111-.51.32-.972.612-1.372a3.495 3.495 0 0 1 2.576-1.428h-.004Z"/>
  <path fill="var(--sapContent_Illustrative_Color14)" d="m74.214 81.48-.695.375a3.459 3.459 0 0 1-.877.33 3.804 3.804 0 0 1-1.891-.073 4.25 4.25 0 0 1-1.411-.733 4.72 4.72 0 0 1-1.095-1.22 4.644 4.644 0 0 1-.689-2.844c.039-.407.133-.792.279-1.147.146-.354.34-.684.577-.969a3.5 3.5 0 0 1 .834-.733l.668-.417a3.529 3.529 0 0 0-.838.737 3.68 3.68 0 0 0-.58.976c-.147.358-.24.747-.279 1.153-.038.406-.017.834.066 1.268.115.58.33 1.115.626 1.594.295.48.67.893 1.102 1.227.431.333.91.587 1.418.736a3.776 3.776 0 0 0 2.204-.01 3.765 3.765 0 0 0 .571-.247m-10.955-9.177-.636.43a3.414 3.414 0 0 1-.755.39 3.42 3.42 0 0 1-.862.204 3.987 3.987 0 0 1-1.61-.149 4.403 4.403 0 0 1-1.435-.75 4.7 4.7 0 0 1-1.724-2.82 4.335 4.335 0 0 1-.063-1.133c.028-.365.108-.716.226-1.042a3.71 3.71 0 0 1 .48-.907c.198-.274.434-.521.702-.73l.605-.472a3.587 3.587 0 0 0-.703.73 3.824 3.824 0 0 0-.709 1.962c-.028.368-.01.75.063 1.14.108.58.323 1.118.622 1.597.3.48.678.9 1.113 1.24.434.341.924.598 1.442.758a3.962 3.962 0 0 0 2.062.076 3.639 3.639 0 0 0 1.178-.518m1.673 10.348-.65.376a3.225 3.225 0 0 1-.637.288 3.582 3.582 0 0 1-.706.163 3.917 3.917 0 0 1-1.62-.128 4.37 4.37 0 0 1-1.446-.744 4.713 4.713 0 0 1-1.741-2.852 4.332 4.332 0 0 1-.056-1.247c.042-.403.132-.785.278-1.139a3.92 3.92 0 0 1 .567-.972c.233-.289.507-.546.817-.75l.622-.418a3.603 3.603 0 0 0-.82.754 3.864 3.864 0 0 0-.57.98 4.16 4.16 0 0 0-.279 1.146 4.52 4.52 0 0 0 .06 1.254 4.74 4.74 0 0 0 1.752 2.87c.438.34.931.593 1.456.746a3.95 3.95 0 0 0 1.989.063c.118-.028.233-.06.347-.098a3.436 3.436 0 0 0 .64-.288"/>
  <path fill="var(--sapContent_Illustrative_Color26)" d="M85.15 52.478c.491-.042.981.028 1.444.188.462.16.904.41 1.3.729.396.32.74.712 1.018 1.157.278.444.487.941.605 1.476s.129 1.053.052 1.532c-.076.48-.243.924-.486 1.302a3.042 3.042 0 0 1-.942.942 3.058 3.058 0 0 1-1.318.441 3.522 3.522 0 0 1-1.457-.174 4.2 4.2 0 0 1-1.32-.733 4.8 4.8 0 0 1-1.037-1.174 4.67 4.67 0 0 1-.608-1.5 4.07 4.07 0 0 1-.038-1.543 3.42 3.42 0 0 1 .507-1.302c.25-.379.574-.695.96-.928.386-.232.83-.378 1.32-.42v.007Z"/>
  <path fill="var(--sapContent_Illustrative_Color8)" d="M78.44 62.753a3.685 3.685 0 0 1 1.51.167 4.31 4.31 0 0 1 1.352.733c.41.326.768.726 1.057 1.184.288.459.5.97.615 1.522.115.552.125 1.087.038 1.587s-.264.963-.525 1.365a3.29 3.29 0 0 1-.997.997c-.4.254-.87.424-1.384.483a3.7 3.7 0 0 1-1.523-.153 4.305 4.305 0 0 1-1.373-.733 4.745 4.745 0 0 1-1.69-2.748 4.152 4.152 0 0 1-.024-1.6c.094-.5.278-.963.546-1.362a3.25 3.25 0 0 1 1.015-.98 3.295 3.295 0 0 1 1.387-.458l-.003-.004Zm-10.985-8.809a3.867 3.867 0 0 1 1.544.19c.493.164.96.421 1.376.751.417.33.779.733 1.064 1.195.285.462.5.973.612 1.522.111.548.111 1.087.017 1.58a3.58 3.58 0 0 1-.556 1.351c-.271.396-.622.73-1.036.977-.414.246-.897.41-1.425.462a3.871 3.871 0 0 1-1.558-.174 4.44 4.44 0 0 1-1.397-.75 4.696 4.696 0 0 1-1.693-2.762 4.05 4.05 0 0 1 0-1.598c.104-.5.299-.955.577-1.348a3.327 3.327 0 0 1 1.053-.962c.42-.243.9-.392 1.426-.438l-.004.004Zm3.901 19.598a3.775 3.775 0 0 1 1.564.15 4.34 4.34 0 0 1 1.394.736 4.747 4.747 0 0 1 1.711 2.782 4.4 4.4 0 0 1 .024 1.647 3.921 3.921 0 0 1-.556 1.424c-.272.42-.626.782-1.043 1.053a3.5 3.5 0 0 1-1.44.528c-.535.073-1.07.02-1.578-.129a4.29 4.29 0 0 1-1.418-.736 4.781 4.781 0 0 1-1.102-1.227 4.633 4.633 0 0 1-.626-1.594 4.413 4.413 0 0 1-.01-1.667c.1-.525.299-1.008.577-1.428a3.463 3.463 0 0 1 2.503-1.539ZM60.04 64.59a3.961 3.961 0 0 1 1.603.17c.514.164.994.421 1.422.755.427.333.8.75 1.095 1.219.295.469.507 1 .618 1.57.112.57.108 1.126.004 1.643a3.898 3.898 0 0 1-.588 1.414c-.281.417-.65.771-1.084 1.035a3.64 3.64 0 0 1-1.485.504 3.961 3.961 0 0 1-1.616-.153 4.492 4.492 0 0 1-1.443-.757 4.812 4.812 0 0 1-1.112-1.24 4.605 4.605 0 0 1-.623-1.598 4.226 4.226 0 0 1 .014-1.66c.111-.522.32-.998.612-1.411a3.546 3.546 0 0 1 2.587-1.497l-.004.007Zm1.916 10.057a3.942 3.942 0 0 1 1.613.146 4.388 4.388 0 0 1 1.432.75 4.79 4.79 0 0 1 1.106 1.23 4.67 4.67 0 0 1 .626 1.598 4.47 4.47 0 0 1 .007 1.678 3.958 3.958 0 0 1-.588 1.451 3.676 3.676 0 0 1-1.088 1.074 3.643 3.643 0 0 1-1.491.538 3.944 3.944 0 0 1-1.627-.128 4.495 4.495 0 0 1-1.457-.747 4.656 4.656 0 0 1-1.123-1.247 4.714 4.714 0 0 1-.629-1.622c-.111-.59-.1-1.164.007-1.699.108-.535.32-1.025.612-1.452a3.642 3.642 0 0 1 2.597-1.57h.003Z"/>
</svg>
