<svg id="tnt-Scene-ChartPie" xmlns="http://www.w3.org/2000/svg" width="320" height="240" fill="none" viewBox="0 0 320 240">
  <rect width="320" height="138" y="59" fill="var(--sapContent_Illustrative_Color20)" rx="24"/>
  <path fill="var(--sapContent_Illustrative_Color21)" fill-rule="evenodd" d="m108.418 192.85 147.17-26.279c.916-.165.949-1.457.055-1.678l-92.284-22.988a8.508 8.508 0 0 0-3.378-.155l-116.2 17.91c-2.053.32-2.45 3.102-.563 3.986l61.854 28.762a5.528 5.528 0 0 0 3.346.431v.011Z" clip-rule="evenodd"/>
  <path fill="var(--sapContent_Illustrative_Color8)" d="m67.913 61.77 170.091-10.23 21.857 95.05c.15.639.17 1.268.1 1.848a4.108 4.108 0 0 1-.539 1.598c-.28.47-.64.869-1.08 1.169-.439.3-.949.5-1.519.57l-164.454 20.61c-.7.09-1.39.02-2.039-.16a5.27 5.27 0 0 1-1.809-.919 5.774 5.774 0 0 1-1.38-1.529 5.453 5.453 0 0 1-.749-1.978L67.913 61.771Z"/>
  <path fill="var(--sapContent_Illustrative_Color13)" d="M230.359 36.005c.559-.03 1.119.07 1.649.26s1.039.49 1.499.87c.46.379.859.828 1.179 1.338.32.51.57 1.079.71 1.678l2.618 11.38-170.1 10.24-2.2-12.648a4.46 4.46 0 0 1 .06-1.898c.15-.59.42-1.13.79-1.589.37-.46.84-.84 1.39-1.109a4.804 4.804 0 0 1 1.848-.48l160.557-8.042ZM78.427 56.235c.54-.03 1.04-.169 1.47-.389.43-.22.799-.53 1.089-.899.29-.37.5-.8.62-1.269.12-.47.13-.979.04-1.508a4.105 4.105 0 0 0-.57-1.479 4.73 4.73 0 0 0-1.05-1.179c-.41-.33-.89-.59-1.389-.759-.5-.17-1.04-.25-1.579-.22-.54.03-1.03.16-1.47.38-.439.22-.799.53-1.098.899-.3.37-.51.8-.62 1.269-.11.47-.14.989-.04 1.518.1.53.29 1.04.57 1.489a4.711 4.711 0 0 0 2.448 1.938c.5.17 1.04.25 1.58.22"/>
  <path fill="var(--sapContent_Illustrative_Color14)" d="M92.37 172.375c-.7.09-1.39.02-2.04-.16a5.413 5.413 0 0 1-1.808-.919 5.77 5.77 0 0 1-1.38-1.528 5.392 5.392 0 0 1-.75-1.978L67.915 61.771l-2.2-12.648c-.06-.32-.08-.64-.07-.949 0-.31.05-.61.12-.899.07-.29.17-.57.29-.83.12-.259.28-.509.45-.739l-2.788 3.627c-.17.23-.32.47-.45.73a4.33 4.33 0 0 0-.41 1.708c0 .31.01.62.07.939l2.17 12.508 18.159 104.859c.12.71.38 1.369.74 1.959a5.504 5.504 0 0 0 3.148 2.417c.649.19 1.329.25 2.018.16l162.975-20.59 4.688-2.258-164.455 20.61Z"/>
  <path fill="var(--sapContent_Illustrative_Color2)" d="M77.058 48.523c.54-.03 1.07.05 1.58.22.509.17.969.43 1.388.76.42.329.77.728 1.05 1.178.28.45.48.95.57 1.479.09.53.08 1.039-.04 1.508-.12.47-.33.9-.62 1.269-.29.37-.66.68-1.09.9-.43.219-.929.359-1.469.389-.54.03-1.069-.05-1.579-.22a4.46 4.46 0 0 1-1.389-.76 4.77 4.77 0 0 1-1.06-1.178 4.08 4.08 0 0 1-.569-1.489c-.09-.54-.07-1.049.04-1.518.11-.47.33-.91.62-1.269a3.407 3.407 0 0 1 2.568-1.279v.01Z"/>
  <path fill="var(--sapContent_Illustrative_Color13)" d="M163.871 108.832c.087.812.769 1.465 1.524 1.465l33.623-.159-33.957.159c-.668.058-1.118.494-1.205 1.089l-5.529 35.873c-.116.769.363 1.567 1.089 1.785-6.792-1.625-13.235-5.21-18.604-10.376-5.762-5.544-10.014-12.64-12.219-20.389-2.221-7.75-2.293-15.789-.204-23.103 2.09-7.3 6.211-13.525 11.857-17.879-.523.465-.552 1.365-.059 2.003l22.407 29.154c.174.232.421.32.638.305.32-.029.595-.305.566-.711l.087.798-.014-.014Z"/>
  <path fill="var(--sapContent_Illustrative_Color14)" d="m164.959 110.297 34.059-.159c.668 0 1.292.537 1.437 1.248.015.072.029.145.029.232 0 .189.029.392.029.58 0 .102 0 .204.015.305v.639c.014.595.029 1.059.014 1.523v.552c0 .551-.029 1.016-.058 1.48 0 .276-.029.406-.029.537v.189c0 .13-.014.246-.029.377 0 .102-.014.189-.029.29 0 .16-.029.334-.043.494 0 .116-.029.232-.029.333 0 .087-.015.175-.03.262 0 .116-.029.246-.043.362 0 .073-.015.145-.029.218-.029.189-.044.377-.073.566a8.214 8.214 0 0 1-.101.624c-.044.29-.073.45-.102.624-.058.319-.087.493-.13.682-.044.247-.087.45-.131.653-.058.261-.087.421-.131.581 0 .058-.029.116-.043.188a5.378 5.378 0 0 1-.102.407c-.014.072-.029.13-.043.203l-.087.348c-.058.203-.102.406-.16.61-.073.232-.116.391-.16.551a40.45 40.45 0 0 1-.609 1.901c-1.916 5.471-5.021 10.26-9.099 13.989a31.577 31.577 0 0 1-4.455 3.425l-.131.087c-.058.044-.13.087-.188.116a31.378 31.378 0 0 1-8.94 3.773c-.13.029-.203.044-.29.073l-.392.087c-.159.029-.319.073-.464.102l-.232.043c-.044 0-.087.015-.145.029a32.458 32.458 0 0 1-3.57.508 33.15 33.15 0 0 1-4.804.073c-.217 0-.348-.015-.493-.029a2.44 2.44 0 0 1-.319-.029c-.088 0-.16 0-.247-.015a36.21 36.21 0 0 1-4.615-.696l-.551-.131a1.645 1.645 0 0 1-1.147-1.799l5.529-35.874c.087-.609.537-1.045 1.103-1.088l.058-.044Z"/>
  <path fill="var(--sapContent_Illustrative_Color15)" d="M185.145 64.251c.246-.029.522.03.769.189 6.603 3.904 12.335 9.476 16.688 16.166 4.339 6.69 7.111 14.265 8.083 22.029.102.769-.391 1.393-1.074 1.451l-38.34-.13c-1.016 0-1.799-1.19-1.407-2.163l14.294-36.773c.174-.45.551-.725.987-.754v-.015Z"/>
  <path fill="var(--sapContent_Illustrative_Color21)" d="M156.919 70.796c.581-.044 1.147-.087 1.727-.102.697-.029 1.35.552 1.495 1.306a.5.5 0 0 0 .029.146l3.628 35.858c.029.436-.247.711-.566.74-.218.015-.45-.072-.639-.304l-22.406-29.155c-.493-.638-.479-1.538.058-2.002a31.791 31.791 0 0 1 16.674-6.487Z"/>
</svg>
