<svg id="tnt-Dot-Systems" xmlns="http://www.w3.org/2000/svg" width="45" height="45" fill="none" viewBox="0 0 45 45">
  <g clip-path="url(#a)">
    <path fill="var(--sapContent_Illustrative_Color20)" d="M39.25 20.12c.1-.61.16-1.24.16-1.88C39.41 12.03 34.38 7 28.17 7c-4.53 0-8.43 2.68-10.21 6.55a8.544 8.544 0 0 0-3.5-.74c-4.35 0-7.95 3.22-8.54 7.41-3.28.04-5.93 2.7-5.93 5.99 0 7.42 8.61 6.9 10.12 6.87 1.17-.02 1.46-.1 2.53-.2 1.21 2.23 4.01 3.15 6.94 3.15 2.7 0 5.13-1.18 6.8-3.05 1.04.45 5.4 1.26 12.03.36 3.63-.49 6.63-2.97 6.63-6.63 0-3.38-2.53-6.17-5.79-6.58v-.01Z"/>
    <path fill="var(--sapContent_Illustrative_Color20)" d="M20.58 15.57c-.18-.79-.71-5.21 3.89-7.91a11.252 11.252 0 0 0-6.5 5.92s1.9.83 2.62 1.99h-.01Z"/>
    <path fill="var(--sapContent_Illustrative_Color25)" d="M39.25 20.12c.1-.61.16-1.24.16-1.88C39.41 12.03 34.38 7 28.17 7c-4.53 0-8.43 2.68-10.21 6.55a8.544 8.544 0 0 0-3.5-.74c-4.35 0-7.95 3.22-8.54 7.41-3.28.04-5.93 2.7-5.93 5.99 0 7.42 8.61 6.9 10.12 6.87 1.17-.02 1.46-.1 2.53-.2 1.21 2.23 4.01 3.15 6.94 3.15 2.7 0 5.13-1.18 6.8-3.05 1.04.45 5.4 1.26 12.03.36 3.63-.49 6.63-2.97 6.63-6.63 0-3.38-2.53-6.17-5.79-6.58v-.01Z"/>
    <path fill="var(--sapContent_Illustrative_Color24)" d="M10.42 13.81c-.51.4-.88.99-1.08 1.61-.3.96-.22 2.01 0 2.99.14.59.33 1.19.67 1.69.61.9 1.65 1.41 2.64 1.86-.62-.06-1.28.12-1.73.56-.45.44-.58 1.1-.39 1.7.58 1.85 4.418.59 4.99.24-.67.66-1.75 1.21-1.75 3.35 0 4.79 5.88 8.74 11.72 6.03-2.68 2.18-5.12 2.18-5.9 2.18h-.01c-2.93 0-5.73-.92-6.94-3.15-1.07.1-1.36.18-2.53.2-1.51.03-10.12.55-10.12-6.87 0-3.29 2.65-5.95 5.93-5.99a8.615 8.615 0 0 1 4.5-6.4Zm10.17 1.76h-.01l-.004-.02.014.02Zm3.88-7.91c-4.563 2.678-4.078 7.048-3.894 7.89-.73-1.15-2.606-1.97-2.606-1.97 1.27-2.76 3.61-4.91 6.5-5.92Z"/>
    <path fill="var(--sapContent_Illustrative_Color1)" fill-rule="evenodd" d="M27.297 23.06a3.97 3.97 0 0 1 4.74 2.99 3.97 3.97 0 0 1-2.99 4.74 3.97 3.97 0 0 1-4.74-2.99 3.97 3.97 0 0 1 2.99-4.74Zm.54-7.46 1.14 2.52c.79.07 1.57.25 2.31.53l2.13-1.77c1.3.68 2.45 1.6 3.39 2.71l-1.26 2.47c.44.66.78 1.38 1.03 2.14l2.71.56c.28 1.44.28 2.91 0 4.34l-2.71.55c-.25.75-.59 1.47-1.03 2.13l1.25 2.47c-.95 1.11-2.1 2.03-3.4 2.7l-2.12-1.78c-.74.28-1.52.45-2.31.52l-1.15 2.52c-1.46-.05-2.9-.38-4.23-.97l.07-2.77c-.68-.41-1.3-.91-1.85-1.48l-2.69.67c-.87-1.17-1.51-2.5-1.88-3.92l2.21-1.68c-.11-.79-.1-1.58 0-2.37l-2.2-1.68a11.26 11.26 0 0 1 1.89-3.91l2.69.68c.55-.57 1.17-1.07 1.86-1.48l-.05-2.77c1.34-.59 2.78-.92 4.24-.96l-.04.03Z" clip-rule="evenodd"/>
  </g>
  <defs>
    <clipPath id="a">
      <path fill="var(--sapContent_Illustrative_Color8)" d="M0 0h45v45H0z"/>
    </clipPath>
  </defs>
</svg>
