<svg id="tnt-Scene-ChartBullet" xmlns="http://www.w3.org/2000/svg" width="320" height="240" fill="none" viewBox="0 0 320 240">
  <rect width="320" height="138" y="59" fill="var(--sapContent_Illustrative_Color20)" rx="24"/>
  <path fill="var(--sapContent_Illustrative_Color21)" fill-rule="evenodd" d="m108.418 192.85 147.17-26.278c.917-.166.95-1.457.056-1.678l-92.284-22.988a8.494 8.494 0 0 0-3.379-.155l-116.2 17.909c-2.053.32-2.45 3.103-.563 3.986l61.854 28.763a5.528 5.528 0 0 0 3.346.43v.011Z" clip-rule="evenodd"/>
  <path fill="var(--sapContent_Illustrative_Color2)" d="M77.057 48.524c.54-.03 1.07.05 1.58.22.509.17.969.429 1.388.759.42.33.77.729 1.05 1.179.28.45.48.949.57 1.478.09.53.08 1.04-.04 1.509-.12.47-.33.899-.62 1.269-.29.37-.66.679-1.09.899-.43.22-.929.36-1.469.39a4.23 4.23 0 0 1-1.579-.22 4.46 4.46 0 0 1-1.389-.76c-.41-.33-.78-.73-1.06-1.179a4.082 4.082 0 0 1-.569-1.488c-.09-.54-.07-1.05.04-1.519.11-.47.33-.909.62-1.269.29-.36.66-.669 1.1-.899.439-.23.928-.36 1.468-.38v.01Z"/>
  <path fill="var(--sapContent_Illustrative_Color8)" d="m67.912 61.771 170.092-10.23 21.857 95.049c.15.64.17 1.269.1 1.848-.07.58-.26 1.129-.54 1.599-.28.469-.64.869-1.079 1.169-.44.3-.95.499-1.519.569L92.368 172.386c-.7.089-1.39.02-2.039-.16a5.27 5.27 0 0 1-1.809-.919 5.77 5.77 0 0 1-1.379-1.529 5.451 5.451 0 0 1-.75-1.978L67.912 61.771Z"/>
  <path fill="var(--sapContent_Illustrative_Color13)" d="M230.358 36.005c.56-.03 1.12.07 1.649.26.53.19 1.04.49 1.499.87.46.379.86.828 1.18 1.338.32.51.569 1.079.709 1.678l2.619 11.38L67.912 61.77l-2.198-12.648a4.46 4.46 0 0 1 .06-1.898c.15-.59.42-1.13.79-1.589.369-.46.839-.84 1.388-1.109.55-.27 1.17-.44 1.85-.48l160.556-8.042ZM78.426 56.235a3.66 3.66 0 0 0 1.47-.389c.43-.22.799-.53 1.089-.899.29-.37.5-.8.62-1.269.12-.47.13-.979.04-1.508a4.101 4.101 0 0 0-.57-1.479 4.73 4.73 0 0 0-1.05-1.179c-.41-.33-.89-.59-1.389-.759-.5-.17-1.04-.25-1.579-.22-.54.03-1.03.16-1.47.38a3.32 3.32 0 0 0-1.098.9c-.3.369-.51.798-.62 1.268-.11.47-.14.989-.04 1.518.1.53.29 1.04.57 1.489a4.713 4.713 0 0 0 2.449 1.938c.499.17 1.039.25 1.578.22"/>
  <path fill="var(--sapContent_Illustrative_Color14)" d="M92.368 172.376c-.7.09-1.389.02-2.038-.16a5.433 5.433 0 0 1-1.81-.919 5.786 5.786 0 0 1-1.379-1.528 5.39 5.39 0 0 1-.75-1.979L67.913 61.772l-2.198-12.648c-.06-.32-.08-.64-.07-.95 0-.309.05-.609.12-.898.07-.29.17-.57.29-.83.12-.26.28-.51.45-.739l-2.789 3.627c-.17.23-.32.47-.45.729a4.33 4.33 0 0 0-.41 1.708c0 .31.01.62.07.94l2.17 12.507 18.159 104.86c.12.71.38 1.369.74 1.958a5.504 5.504 0 0 0 3.148 2.418c.649.19 1.329.25 2.018.16l162.976-20.59 4.687-2.258-164.455 20.61Z"/>
  <path fill="var(--sapContent_Illustrative_Color13)" d="m180.425 146.336-8.702-45.182 15.013-1.672 8.673 45.025c.288 1.498-.576 2.838-1.931 3.011l-10.071 1.239c-1.412.13-2.708-.937-2.996-2.421h.014Z"/>
  <path fill="var(--sapContent_Illustrative_Color21)" d="M210.177 96.874c1.384-.115 2.666.95 2.954 2.42l8.112 42.056c.273 1.499-.577 2.824-1.902 2.997l-9.942 1.225c-1.397.13-2.679-.937-2.968-2.406l-8.126-42.2c-.288-1.499.577-2.81 1.917-2.968l9.955-1.11v-.014Z"/>
  <path fill="var(--sapContent_Illustrative_Color22)" d="M187.442 95.26c1.037-.087 2.017.72 2.233 1.815.216 1.124-.432 2.118-1.455 2.233l-1.469.159-15.013 1.671-1.484.158c-1.066.087-2.046-.734-2.262-1.844-.216-1.124.432-2.132 1.469-2.233l1.499-.158 15.027-1.657 1.484-.159-.029.014Z"/>
  <path fill="var(--sapContent_Illustrative_Color15)" d="M151.062 66.359c1.397-.13 2.723.98 3.011 2.464l9.192 47.747-15.2 1.743-9.221-47.906c-.288-1.512.605-2.838 1.988-2.996l10.23-1.052Z"/>
  <path fill="var(--sapContent_Illustrative_Color14)" d="M133.384 115.489c1.441-.13 2.767.965 3.04 2.449l6.354 33.008c.288 1.513-.591 2.882-1.988 3.055l-10.316 1.268c-1.455.129-2.781-.951-3.069-2.45l-6.368-33.123c-.288-1.527.619-2.882 2.017-3.04l10.33-1.167Z"/>
  <path fill="var(--sapContent_Illustrative_Color22)" d="M164.822 116.396c1.008-.086 1.988.735 2.204 1.83.216 1.124-.447 2.132-1.47 2.248l-1.498.173-15.2 1.757-1.513.173c-1.066.087-2.06-.72-2.276-1.844-.217-1.138.461-2.147 1.498-2.262l1.498-.173 15.201-1.743 1.498-.173h.058v.014Z"/>
  <path fill="var(--sapContent_Illustrative_Color15)" d="m154.073 149.563-5.216-27.144 15.201-1.758 5.201 27.043c.288 1.513-.591 2.868-1.96 3.04l-10.2 1.24h-.087c-1.354.115-2.651-.951-2.939-2.435v.014Z"/>
  <path fill="var(--sapContent_Illustrative_Color13)" d="M180.771 81.514c1.383-.115 2.694.966 2.982 2.435l2.205 11.469-15.028 1.657-2.218-11.498c-.289-1.498.576-2.824 1.959-2.968l10.085-1.08.015-.015Z"/>
  <path fill="var(--sapContent_Illustrative_Color22)" d="M132.965 91.817c1.081-.1 2.075.72 2.291 1.844.216 1.124-.461 2.147-1.498 2.262l-18.457 2.017c-1.08.101-2.089-.734-2.305-1.858-.216-1.139.461-2.147 1.513-2.262l18.456-1.989v-.014Zm77.457-14.322c1.023-.087 2.002.72 2.219 1.83.216 1.109-.433 2.103-1.441 2.204l-17.779 1.916c-1.038.087-2.017-.72-2.234-1.83-.216-1.11.447-2.118 1.456-2.219l17.764-1.901h.015Z"/>
</svg>
