<svg id="tnt-Spot-Help" xmlns="http://www.w3.org/2000/svg" width="129" height="128" fill="none" viewBox="0 0 129 128">
  <path fill="var(--sapContent_Illustrative_Color20)" fill-rule="evenodd" d="M128.5 49.6v36c0 5.298-4.302 9.6-9.6 9.6H10.1c-5.298 0-9.6-4.302-9.6-9.6v-36c0-5.298 4.302-9.6 9.6-9.6h108.8c5.298 0 9.6 4.302 9.6 9.6Z" clip-rule="evenodd"/>
  <path fill="var(--sapContent_Illustrative_Color21)" fill-rule="evenodd" d="m38.027 92.568 52.335-9.344c.325-.06.337-.517.02-.6L57.566 74.45a3.03 3.03 0 0 0-1.202-.055l-41.32 6.367c-.731.114-.872 1.104-.2 1.417l21.997 10.229c.368.172.787.227 1.19.153l-.004.007Z" clip-rule="evenodd"/>
  <path fill="var(--sapContent_Illustrative_Color13)" d="M92.162 34.664a1.57 1.57 0 0 1 .614.098 2.041 2.041 0 0 1 .998.822c.122.191.212.403.266.626l.975 4.238-63.367 3.815-.818-4.711c-.043-.25-.035-.49.024-.709a1.532 1.532 0 0 1 .81-1.006c.203-.1.434-.164.688-.18l59.81-2.993Z"/>
  <path fill="var(--sapContent_Illustrative_Color8)" d="m31.645 44.263 63.363-3.812 8.143 35.411c.055.239.063.474.039.689a1.602 1.602 0 0 1-.199.594 1.35 1.35 0 0 1-.403.435c-.165.11-.353.184-.568.211L40.755 85.47a1.897 1.897 0 0 1-.76-.059 1.864 1.864 0 0 1-.673-.344 2.155 2.155 0 0 1-.512-.567 2.02 2.02 0 0 1-.278-.736l-6.884-39.5h-.003Z"/>
  <path fill="var(--sapContent_Illustrative_Color14)" d="M40.758 85.469a1.97 1.97 0 0 1-.76-.059 2 2 0 0 1-.672-.344 2.117 2.117 0 0 1-.79-1.307l-6.884-39.496-.818-4.712a1.55 1.55 0 0 1-.027-.352 1.615 1.615 0 0 1 .152-.646 1.39 1.39 0 0 1 .168-.274l-1.037 1.35a2.403 2.403 0 0 0-.168.27 1.547 1.547 0 0 0-.153.638c0 .114 0 .231.028.349l.806 4.66 6.766 39.062c.043.266.14.509.274.728.133.219.31.41.505.563.2.153.422.266.665.34.243.071.497.095.751.06l60.714-7.67 1.745-.842-61.265 7.678v.004Z"/>
  <path fill="var(--sapContent_Illustrative_Color9)" d="M77.116 49.178c.81.662 1.565 1.386 2.254 2.168a18.681 18.681 0 0 1 3.256 5.26c.387.954.696 1.945.915 2.95.16.755.27 1.507.321 2.262.051.755.063 1.499.008 2.23a14.926 14.926 0 0 1-.92 4.258 13.465 13.465 0 0 1-.92 1.933 13.42 13.42 0 0 1-1.193 1.73 11.737 11.737 0 0 1-1.455 1.503c-.529.458-1.092.876-1.699 1.244a12.239 12.239 0 0 1-2.559 1.194 13.234 13.234 0 0 1-3.534.669c-.242.015-.489.02-.735.02-.247 0-.493-.005-.744-.02-.246-.016-.5-.032-.751-.055a15.835 15.835 0 0 1-4.445-1.143 17.184 17.184 0 0 1-2.114-1.06 17.97 17.97 0 0 1-3.8-3.013 18.414 18.414 0 0 1-1.577-1.867 18.508 18.508 0 0 1-2.355-4.261c-.298-.76-.536-1.53-.724-2.302a16.54 16.54 0 0 1-.392-2.328 15.837 15.837 0 0 1 .223-4.578c.15-.74.349-1.456.603-2.145.25-.688.56-1.342.908-1.968.348-.626.751-1.213 1.197-1.765.447-.552.932-1.06 1.46-1.526.528-.47 1.092-.885 1.69-1.252a13.044 13.044 0 0 1 1.863-.951 13.018 13.018 0 0 1 4.124-.947 14.187 14.187 0 0 1 2.908.113 15.75 15.75 0 0 1 2.869.685c.943.317 1.862.724 2.75 1.22a18.31 18.31 0 0 1 2.568 1.73v.016-.004Z"/>
  <path fill="var(--sapContent_Illustrative_Color8)" d="M73.977 53.909a6.072 6.072 0 0 1 .869 1.338 6.2 6.2 0 0 1 .305.763c.086.266.16.54.223.826.043.2.075.391.094.575.02.184.035.368.04.544a4.352 4.352 0 0 1-.2 1.432 4.32 4.32 0 0 1-.321.799 3.03 3.03 0 0 1-.207.348c-.075.11-.157.227-.243.344-.086.118-.18.239-.282.36-.102.121-.207.25-.317.38a92.51 92.51 0 0 0-.638.716c-.09.102-.172.2-.25.297-.078.098-.153.188-.22.274a8.61 8.61 0 0 0-.187.255 3.547 3.547 0 0 0-.423.814 2.934 2.934 0 0 0-.192.994 4.114 4.114 0 0 0 .063.77l-3.588.337a7.243 7.243 0 0 1-.094-1.201 5.98 5.98 0 0 1 .035-.54c.02-.173.05-.34.094-.501a6.49 6.49 0 0 1 .282-.88 5.64 5.64 0 0 1 .172-.376c.059-.118.125-.227.196-.333.07-.106.144-.211.227-.329.082-.117.172-.235.273-.364l.317-.399c.114-.14.235-.282.364-.434a13.928 13.928 0 0 0 .493-.591c.075-.094.137-.18.2-.262.063-.083.117-.165.168-.239.051-.078.102-.157.145-.235a2.48 2.48 0 0 0 .121-.25c.036-.086.07-.176.102-.266a2.492 2.492 0 0 0 .149-.892 3.706 3.706 0 0 0-.074-.673 4.03 4.03 0 0 0-.165-.58 3.044 3.044 0 0 0-.242-.508 2.716 2.716 0 0 0-.72-.798 2.68 2.68 0 0 0-.466-.283 2.897 2.897 0 0 0-.517-.187 3.231 3.231 0 0 0-.567-.094 4.063 4.063 0 0 0-.618 0c-.228.015-.443.05-.646.098a3.35 3.35 0 0 0-1.096.473c-.16.11-.313.235-.45.376-.14.14-.274.297-.395.47a5.543 5.543 0 0 0-.646 1.216 8.19 8.19 0 0 0-.25.748l-3.4-1.268a8.077 8.077 0 0 1 .778-2.055c.168-.309.364-.594.575-.864a6.44 6.44 0 0 1 .7-.76c.255-.234.529-.446.83-.63.302-.184.622-.34.97-.473a7.212 7.212 0 0 1 1.112-.321 10.636 10.636 0 0 1 2.238-.196c.321.008.63.028.936.063a7.79 7.79 0 0 1 1.71.395c.266.094.52.204.763.329.242.125.473.258.696.407.223.148.427.313.627.485s.383.364.555.567l-.008-.011Zm-1.561 14.227a2.234 2.234 0 0 1 .599.67 2.6 2.6 0 0 1 .2.422c.054.153.1.31.136.482.035.172.055.32.059.473a2.018 2.018 0 0 1-.14.834 1.861 1.861 0 0 1-.474.665c-.102.09-.216.168-.337.23a2.3 2.3 0 0 1-.861.247 2.812 2.812 0 0 1-.955-.055 2.264 2.264 0 0 1-1.608-1.467 3.629 3.629 0 0 1-.137-.481 2.773 2.773 0 0 1-.059-.493 2.073 2.073 0 0 1 .141-.85c.05-.129.117-.246.2-.356a1.693 1.693 0 0 1 .622-.528 2.1 2.1 0 0 1 .41-.156 2.965 2.965 0 0 1 .96-.094 2.447 2.447 0 0 1 .864.227c.133.062.259.144.38.234v-.004Z"/>
</svg>
