<svg id="tnt-Dialog-Mission" xmlns="http://www.w3.org/2000/svg" width="161" height="160" fill="none" viewBox="0 0 161 160">
  <path fill="var(--sapContent_Illustrative_Color20)" fill-rule="evenodd" d="M160.582 61.195v45c0 6.623-5.377 12-12 12h-136c-6.623 0-12-5.377-12-12v-45c0-6.623 5.377-12 12-12h136c6.623 0 12 5.377 12 12Z" clip-rule="evenodd"/>
  <path fill="var(--sapContent_Illustrative_Color11)" d="m93.565 98.537 1.199-16.119-16.5 13.386 5.614 13.14a1.75 1.75 0 0 0 2.998.377l5.135-6.704a7.643 7.643 0 0 0 1.554-4.08Z"/>
  <path fill="var(--sapContent_Illustrative_Color1)" d="M94.181 90.26a31.386 31.386 0 0 1-3.562 3.48c-2.762 2.274-1.372 8.419-3.794 11.054l-2.3 2.501a2.133 2.133 0 0 1-1.079.638l-5.18-12.128 16.499-13.387-.584 7.842Z"/>
  <path fill="var(--sapContent_Illustrative_Color25)" d="M83.694 55.418c-19.37 14.998-31.416 30.84-32.82 39.401-.25 8.473 7.29 13.049 11.664 13.425 7.08-.792 17.517-10.505 30.395-21.058 16.393-13.434 35.689-43.769 30.913-48.788-4.514-4.743-18.55.293-40.152 17.02Z"/>
  <path fill="var(--sapContent_Illustrative_Color24)" d="M89.026 90.264c1.068-12.84-7.83-18.224-14.679-20.708-.543-.197-.875.519-.399.845 5.027 3.439 11.067 8.587 11.698 14.743.76 7.423 2.755 5.12 3.38 5.12Z"/>
  <path fill="var(--sapContent_Illustrative_Color24)" d="M123.537 38.102c.107.094.21.192.309.296 4.776 5.019-14.519 35.353-30.913 48.788C80.056 97.738 69.62 107.45 62.54 108.244c-4.375-.377-11.915-4.953-11.666-13.426 1.026-6.247 7.72-16.373 18.79-27.219-1.654 9.395-1.235 18.312 7.414 23.147l16.969-11.874.37-.252a10.876 10.876 0 0 0 4.321-12.016l16.561-11.597c4.471-4.3 7.345-11.959 8.239-16.905Z"/>
  <path fill="var(--sapContent_Illustrative_Color11)" d="M105.375 41.081c9.41-4.83 15.715-5.578 18.471-2.683 1.938 2.037-.088 8.244-4.276 15.798-.184-2.118-.943-4.466-2.711-6.783-2.651-3.474-7.301-5.374-11.484-6.332Z"/>
  <path fill="var(--sapContent_Illustrative_Color1)" d="M119.252 54.865c4.675-8.234 6.624-14.335 4.595-16.467a4.763 4.763 0 0 0-.308-.293c.249 3.438-2.292 8.46-4.816 12.55.807 2.01.67 2.519.529 4.21Z"/>
  <path fill="var(--sapContent_Illustrative_Color11)" d="M54.275 86.451c3.762-.646 8.5 1.084 12.21 4.833 4.082 4.127 5.705 9.475 4.421 13.363-3.155 2.021-5.956 3.327-8.368 3.597-4.375-.377-11.914-4.953-11.665-13.426.38-2.311 1.536-5.153 3.402-8.367Z"/>
  <ellipse cx="57.292" cy="100.635" fill="var(--sapContent_Illustrative_Color1)" rx="7.566" ry="3.593" transform="rotate(49.245 57.292 100.635)"/>
  <path fill="var(--sapContent_Illustrative_Color11)" d="m48.581 68.231 4.311-3.308a13.037 13.037 0 0 1 7.387-2.683l15.537-.657c-.636 6.645-12.123 14.545-14.472 15.345l-12.22-4.822c-1.625-.642-1.929-2.81-.543-3.875Z"/>
  <ellipse cx="84.999" cy="85.61" fill="var(--sapContent_Illustrative_Color11)" rx="3.287" ry="11.377" transform="rotate(50.927 85 85.61)"/>
  <path fill="var(--sapContent_Illustrative_Color11)" d="M113.265 67.705c-3.23 5.082-8.821 6.835-12.894 4.246-4.073-2.588-4.73-8.417-1.5-13.5 3-4.25 8.25-6.5 12.75-4.25 4.073 2.589 4.874 8.422 1.644 13.504Z"/>
  <ellipse cx="107.708" cy="64.159" fill="var(--sapContent_Illustrative_Color2)" rx="6.423" ry="7.949" transform="rotate(32.437 107.708 64.16)"/>
  <path fill="var(--sapContent_Illustrative_Color8)" d="M103.064 59.647a9.668 9.668 0 0 1 1.853-1.725l9.071 3.333a8.095 8.095 0 0 1-.08 2.376l-10.844-3.984Zm10.538 5.205a10.227 10.227 0 0 1-1.106 2.35 10.305 10.305 0 0 1-1.366 1.719l-10.362-3.808c.116-1.448.617-2.978 1.52-4.398l.01-.017 11.304 4.154Z"/>
  <path fill="var(--sapContent_Illustrative_Color1)" d="M112.553 57.87c2.542 2.094 2.88 6.32.672 9.795-2.355 3.705-6.712 5.153-9.733 3.234a5.406 5.406 0 0 1-.392-.276c3.228.28 6.586-1.31 8.536-4.378 1.68-2.644 1.922-5.768.917-8.376Z"/>
  <path fill="var(--sapContent_Illustrative_Color26)" d="M42.371 113.695c9.159-3.948 26.731-13.22 21.994-18.43-6.76-7.437-18.393 13.827-21.994 18.43Z"/>
  <path fill="var(--sapContent_Illustrative_Color11)" d="M66.457 91.264c4.508 4.557 5.574 10.116 4.54 13.315-3.135 2.197-6.279 3.398-8.486 3.645-1.111-.096-2.427-.462-3.767-1.095l.54-.622c1.2.434 2.25.414 2.919-.162 1.503-1.295.51-4.911-2.218-8.076-2.728-3.166-6.157-4.681-7.66-3.386-.715.616-.866 1.757-.533 3.124l-.528.5a12.862 12.862 0 0 1-.418-3.708c.353-2.152 1.313-4.825 3.381-8.379 3.886-1.143 8.205.775 12.23 4.844Z"/>
  <path fill="var(--sapContent_Illustrative_Color1)" d="M75.774 61.92c-.978 6.572-12.12 14.222-14.43 15.008l-13.037-5.145c-1.265-.499-1.502-2.188-.423-3.016l.702-.539c5.587 3.603 16.306 5.83 27.188-6.308Z"/>
  <path fill="var(--sapContent_Illustrative_Color2)" d="M37.842 98.158c0-.281-.817-.506-1.908-.558-.062-1.09-.303-1.9-.584-1.899-.281 0-.515.817-.575 1.913-1.094.074-1.908.319-1.904.6.004.283.817.508 1.908.558.065 1.09.302 1.9.583 1.9.28-.001.516-.817.576-1.913 1.094-.075 1.907-.32 1.904-.601Zm92.5 1.5c0-.281-.817-.506-1.908-.558-.062-1.09-.303-1.9-.584-1.899-.281 0-.515.817-.575 1.913-1.094.074-1.908.319-1.904.6.004.283.817.508 1.908.558.065 1.09.302 1.9.583 1.9.281-.001.516-.817.576-1.913 1.094-.075 1.907-.32 1.904-.601Zm12.029-30.48c0-.226-.657-.407-1.535-.448-.05-.877-.244-1.53-.47-1.529-.226 0-.415.658-.463 1.54-.88.06-1.535.256-1.532.483.003.227.657.408 1.535.449.053.877.244 1.529.47 1.528.226 0 .415-.657.463-1.539.88-.06 1.535-.257 1.532-.484Z"/>
  <circle cx="27.923" cy="91.753" r=".552" fill="var(--sapContent_Illustrative_Color2)"/>
  <path fill="var(--sapContent_Illustrative_Color2)" d="M26.103 65.523c0-.438-1.27-.788-2.967-.867-.098-1.696-.471-2.956-.909-2.955-.437.001-.801 1.271-.894 2.975-1.702.116-2.968.497-2.962.935.006.439 1.27.789 2.968.868.101 1.695.47 2.955.907 2.954.436-.001.802-1.271.895-2.975 1.702-.116 2.967-.496 2.962-.935Z"/>
  <circle cx="116.423" cy="104.253" r=".552" fill="var(--sapContent_Illustrative_Color2)"/>
</svg>
