<svg id="tnt-Dialog-SessionExpiring" xmlns="http://www.w3.org/2000/svg" width="160" height="160" fill="none" viewBox="0 0 160 160">
  <rect width="160" height="69" y="50" fill="var(--sapContent_Illustrative_Color20)" rx="12"/>
  <path fill="var(--sapContent_Illustrative_Color21)" d="M67.77 65.718c.4.126.974.279 1.39.39.657 6.124 3.23 12.17 8.129 16.316h-.005c23.398 16.9-5.168 12.28-7.956 35.39l-.032.237c-.058.4-.095.805-.137 1.205h38.827c-2.568-25.64-32.297-19.163-7.593-37.38 0 0 .837-.789 1.231-1.22v-.005c3.71-3.952 5.893-9.219 6.014-14.47a30.14 30.14 0 0 0 1.779-.484v53.569h2.657V64.65c1.158-.605 1.836-1.263 1.915-1.958H114v-3.91c0-2.872-11.402-5.203-25.446-5.203-15.932 0-25.446 1.494-25.446 5.93v1.752-.005c0 1.557.016 2.478 2.026 3.452v54.558h2.657V65.718h-.02Zm44.283-1.079v.042-.042Z"/>
  <path fill="var(--sapContent_Illustrative_Color15)" fill-rule="evenodd" d="M95.084 114.481v5.315c0 4.524-12.931 8.2-28.86 8.2-15.928 0-28.86-3.676-28.86-8.2 0-.207.027-.409.08-.61l-.08-.021v-4.689c0 4.164 12.932 7.542 28.86 7.542 15.929 0 28.86-3.378 28.86-7.542v.005Zm-.053-.456.053.011v.445c0-.154-.016-.302-.053-.451v-.005Zm-57.661.456v-.445l.053-.011a2.174 2.174 0 0 0-.053.451v.005Z" clip-rule="evenodd"/>
  <path fill="var(--sapContent_Illustrative_Color28)" fill-rule="evenodd" d="M41.072 123.811v-5.639c2.674 1.242 6.652 2.265 11.447 2.944v5.893c-4.795-.737-8.773-1.851-11.447-3.198Zm50.432 0v-5.639c-2.673 1.242-6.651 2.265-11.446 2.944v5.893c4.795-.737 8.773-1.851 11.446-3.198Z" clip-rule="evenodd"/>
  <path fill="var(--sapContent_Illustrative_Color26)" fill-rule="evenodd" d="M66.224 106.938c15.929 0 28.86 3.379 28.86 7.543s-12.931 7.543-28.86 7.543c-15.928 0-28.86-3.379-28.86-7.543s12.932-7.543 28.86-7.543Z" clip-rule="evenodd"/>
  <path fill="var(--sapContent_Illustrative_Color2)" fill-rule="evenodd" d="M87.595 49.86c-.753 3.427-2.042 6.705-4.142 9.882-2.032 3.071-5.21 5.718-8.18 8.078-3.972 3.156-6.921 5.883-6.905 8.328v.228c0 4.29 10.31 9.091 15.085 16.31 4.296 6.503 5.192 13.42 5.065 21.137.01.059.01.112.01.17 0 2.716-9.992 4.917-22.298 4.917-12.306 0-22.299-2.207-22.299-4.917 0-.058 0-.117.01-.17-.132-7.717.77-14.634 5.066-21.137 4.774-7.219 15.085-12.014 15.085-16.31v-.228c.016-2.445-2.928-5.172-6.906-8.328-2.97-2.36-6.153-5.007-8.179-8.078-2.1-3.177-3.389-6.46-4.142-9.882 5.283 1.358 12.9 2.212 21.365 2.212 8.465 0 16.087-.854 21.365-2.212Z" clip-rule="evenodd"/>
  <path fill="var(--sapContent_Illustrative_Color15)" fill-rule="evenodd" d="M81.055 62.712c-.44.488-1.39 1.385-1.395 1.385-2.292 1.49-6.137 2.132-10.21 2.323-6.175.292-12.88-.525-15.701-1.443-.096-.085-.186-.17-.281-.254.254-.053.573-.101.95-.154 4.19-.589 7.287-2.111 10.008-3.5 2.562-1.311 4.763-2.515 7.299-2.542 6.646-.069 8.815 3.178 9.33 4.19v-.005ZM95.079 37.82v.08-.08Zm-57.71.08v-.123h.006c0 .043-.005.08-.005.122Zm57.715 0v4.434h-.01c-.388 3.368-13.165 6.073-28.85 6.073-15.684 0-28.86-2.79-28.86-6.232v-4.276c0 3.257 12.932 5.904 28.855 5.904s28.86-2.647 28.86-5.904h.005Z" clip-rule="evenodd"/>
  <path fill="var(--sapContent_Illustrative_Color21)" fill-rule="evenodd" d="M88.2 46.216a35.752 35.752 0 0 1-.605 3.644c-5.283 1.358-12.9 2.212-21.365 2.212-8.466 0-16.088-.854-21.366-2.212a36.246 36.246 0 0 1-.604-3.644c5.293 1.342 13.175 2.19 21.97 2.19 8.794 0 16.676-.848 21.97-2.19Z" clip-rule="evenodd"/>
  <path fill="var(--sapContent_Illustrative_Color15)" fill-rule="evenodd" d="M37.37 40.71v-.127h.005c0 .042-.005.085-.005.127Zm2.302 73.214v-71.75h3.013v71.745c0 .541-.674.981-1.507.981-.832 0-1.506-.44-1.506-.981v.005Z" clip-rule="evenodd"/>
  <path fill="var(--sapContent_Illustrative_Color28)" fill-rule="evenodd" d="M41.072 45.23v-4.44c2.674.97 6.652 1.772 11.447 2.302v4.567c-4.795-.562-8.773-1.406-11.447-2.43Z" clip-rule="evenodd"/>
  <path fill="var(--sapContent_Illustrative_Color15)" fill-rule="evenodd" d="M89.892 113.924v-71.75h3.012v71.745c0 .541-.673.981-1.506.981s-1.506-.44-1.506-.981v.005Z" clip-rule="evenodd"/>
  <path fill="var(--sapContent_Illustrative_Color28)" fill-rule="evenodd" d="M91.371 45.23v-4.44c-2.673.97-6.651 1.772-11.446 2.302v4.567c4.795-.562 8.773-1.406 11.446-2.43Zm-48.693.546v.62s-1.204 1.273-3.012.44v-2.222c.811.414 1.824.801 3.012 1.162Z" clip-rule="evenodd"/>
  <path fill="var(--sapContent_Illustrative_Color28)" fill-rule="evenodd" d="M89.892 45.722v1.453s1.505.292 3.011-1.145v-1.469c-.81.414-1.824.8-3.011 1.161Z" clip-rule="evenodd"/>
  <path fill="var(--sapContent_Illustrative_Color26)" fill-rule="evenodd" d="M66.224 31.996c15.929 0 28.86 2.647 28.86 5.904 0 3.256-12.931 5.903-28.86 5.903-15.928 0-28.86-2.647-28.86-5.903 0-3.257 12.937-5.904 28.86-5.904Z" clip-rule="evenodd"/>
  <path fill="var(--sapContent_Illustrative_Color3)" d="M53.049 62.558c1.65-.217 3.877-.207 6.141.26 3.263.674 5.968 1.677 8.488 2.366 2.646.722 5.097 1.092 7.749.461 1.384-.329 3.06-1.023 4.238-1.553-1.41 1.33-3.32 2.922-4.8 4.094-2.265 1.798-3.756 3.05-5.108 4.78-.393.503-.86 1.198-1.4 2.445-.483 1.114-.992 2.196-1.061 5.203v12.813c4.416.663 8.607 5.502 11.684 8.668 1.581 1.629 7.633 6.381-4.996 5.941a85.175 85.175 0 0 0-1.92-.031c3.915.954 7.103 1.081 8.779.201 2.238-1.172 6.036-2.244 7.277-2.578.292 2.217.402 4.498.402 6.847 0 .456-.004.913-.01 1.369.011.053.01.117.01.17 0 .053.001.111-.01.164l-31.486 2.297c-.53-.058-1.251-.117-1.76-.18l-10.593-1.019c-.392-.329-.641-.663-.72-1.013l.3-8.067c.043-.361.091-.722.145-1.077.397-.361 1.914-1.607 4.417-1.968a23.77 23.77 0 0 1 3.163-.228c2.166-4.216 8.89-8.942 13.207-9.517V80.704c-.011-3.324-1.023-5.201-1.157-5.505-1.214-2.732-3.246-4.472-6.44-7.007-2.052-1.628-4.2-3.39-5.992-5.342a10.27 10.27 0 0 1 1.453-.292Z"/>
  <path fill="var(--sapContent_Illustrative_Color15)" fill-rule="evenodd" d="M88.082 105.331c.382 2.737.483 5.564.43 8.508.01.059.01.112.01.17 0 2.716-9.993 4.901-22.298 4.901-12.306 0-22.299-2.185-22.299-4.901 0-.058 0-.117.01-.17-.052-3.119.064-6.105.505-8.99 1.511 1.983 6.322 7.372 13.902 7.372 9.287 0 11.282-4.869 19.493-6.073 6.301-.923 9.224-.886 10.242-.817h.005Z" clip-rule="evenodd"/>
  <path fill="var(--sapContent_Illustrative_Color8)" fill-rule="evenodd" d="M52.773 92.893c-2.588 4.45-3.872 9.022-4.312 14.31.642.695 1.936 1.231 5.256 1.21.059-5.485.207-9.94 2.955-15.308l-3.893-.207-.006-.005Zm5.198-2.164c1.135-1.544 1.676-2.35 3.183-4.047-.997-.207-1.411-.35-2.721-.35a36.528 36.528 0 0 0-4.031 4.206l3.57.19Z" clip-rule="evenodd"/>
  <path fill="var(--sapContent_Illustrative_Color31)" d="M53.712 108.408c.032-3.098.095-5.867.637-8.657-1.003 1.045-1.836 2.127-2.371 3.178-1.21.016-2.218.1-2.976.201a40.898 40.898 0 0 0-.541 4.069c.642.694 1.936 1.23 5.256 1.209h-.005Z"/>
  <path fill="var(--sapContent_Illustrative_Color28)" fill-rule="evenodd" d="M74.547 106.906c.52 5.538.79 10.174.87 11.574 4.211-.419 7.728-1.114 10.051-1.989-.106-2.806-.302-8.004-.69-11.112-1.633.101-3.887.323-6.937.769-1.22.18-2.302.44-3.294.753v.005Z" clip-rule="evenodd"/>
</svg>
