<svg id="tnt-Spot-ChartFlow" xmlns="http://www.w3.org/2000/svg" width="128" height="128" fill="none" viewBox="0 0 128 128">
  <rect width="128" height="55" y="40" fill="var(--sapContent_Illustrative_Color20)" rx="8"/>
  <path fill="var(--sapContent_Illustrative_Color21)" fill-rule="evenodd" d="m44.654 93.022 59.062-10.546c.368-.067.381-.585.022-.674l-37.034-9.225a3.41 3.41 0 0 0-1.356-.062l-46.633 7.187c-.824.129-.984 1.245-.226 1.6l24.823 11.543a2.22 2.22 0 0 0 1.343.172v.005Z" clip-rule="evenodd"/>
  <path fill="var(--sapContent_Illustrative_Color8)" d="m27.822 41.187 67.24-4.044 8.64 37.574c.059.253.067.502.039.73a1.603 1.603 0 0 1-.213.633 1.454 1.454 0 0 1-.427.462 1.345 1.345 0 0 1-.6.225L37.49 84.914a2.077 2.077 0 0 1-1.521-.427 2.279 2.279 0 0 1-.545-.603 2.155 2.155 0 0 1-.297-.782l-7.305-41.915Z"/>
  <path fill="var(--sapContent_Illustrative_Color13)" d="M92.04 31.002a1.67 1.67 0 0 1 .652.103c.21.075.41.193.593.343a2.207 2.207 0 0 1 .746 1.193l1.035 4.498-67.243 4.048-.869-5a1.763 1.763 0 0 1 .024-.75 1.617 1.617 0 0 1 .861-1.066c.217-.107.462-.174.73-.19l63.471-3.179Z"/>
  <path fill="var(--sapContent_Illustrative_Color14)" d="M37.49 84.91a2.04 2.04 0 0 1-.807-.063 2.15 2.15 0 0 1-.715-.363 2.284 2.284 0 0 1-.545-.604 2.128 2.128 0 0 1-.297-.782l-7.305-41.91-.869-5a1.737 1.737 0 0 1 .02-.731 1.84 1.84 0 0 1 .114-.328 1.7 1.7 0 0 1 .178-.292l-1.102 1.433a1.96 1.96 0 0 0-.178.289 1.742 1.742 0 0 0-.162.675c0 .123.004.245.028.371l.857 4.945 7.179 41.452c.047.28.15.541.292.774a2.179 2.179 0 0 0 1.245.956c.257.075.525.099.798.063l64.426-8.14 1.853-.892-65.01 8.148Z"/>
  <path fill="var(--sapContent_Illustrative_Color13)" d="M87.814 53.437c.536-.045 1.043.373 1.15.948l.84 4.388c.114.58-.22 1.1-.738 1.156l-8.747 1.003c-.547.051-1.055-.372-1.162-.947l-.191-.993-.305-1.584-.355-1.839c-.113-.586.23-1.105.755-1.162l8.747-.97h.006Z"/>
  <path fill="var(--sapContent_Illustrative_Color14)" d="M67.025 53.658a.998.998 0 0 1 .722.236l4.918 4.005c.062.05.112.101.163.163.322.384.384.942.124 1.337l-.192.293L69.952 64l-.203.31a.859.859 0 0 1-.649.394.952.952 0 0 1-.518-.101 1.353 1.353 0 0 1-.203-.13l-4.642-3.756-.299-.242c-.4-.322-.552-.874-.389-1.314a.87.87 0 0 1 .096-.192l3.226-4.912a.843.843 0 0 1 .648-.39l.006-.01Z"/>
  <path fill="var(--sapContent_Illustrative_Color13)" d="M55.3 57.03c.553-.05 1.078.378 1.19.964l.355 1.861.31 1.608.192 1.004c.119.597-.23 1.122-.778 1.184l-9.79 1.122c-.57.05-1.094-.383-1.207-.97l-.869-4.506c-.112-.598.243-1.128.796-1.184l4.23-.468 1.488-.164 4.078-.451h.005Z"/>
  <path fill="var(--sapContent_Illustrative_Color15)" d="M90.31 66.741c.542-.045 1.038.367 1.145.936l.846 4.388c.113.58-.22 1.1-.744 1.167l-13.45 1.647c-.553.05-1.055-.367-1.168-.942l-.22-1.15-.305-1.59-.321-1.687c-.113-.587.226-1.111.756-1.173l13.461-1.602v.006Z"/>
  <path fill="var(--sapContent_Illustrative_Color9)" d="M56.342 43.365c.553-.05 1.077.384 1.19.97l.897 4.659c.113.592-.237 1.11-.779 1.173l-7.68.812-1.49.158-4.889.519c-.564.05-1.094-.384-1.207-.97l-.902-4.71c-.113-.597.242-1.122.795-1.178l14.065-1.438v.005Z"/>
  <path fill="var(--sapContent_Illustrative_Color20)" d="m72.827 58.062 5.832-.654.304 1.585-6.203.7.191-.294c.254-.4.192-.959-.124-1.337ZM69.956 64l1.45 7.53c.028.146.152.253.281.242l4.727-.57.304 1.59-4.715.57s-.04 0-.056.006c-.92.08-1.805-.654-2.002-1.664L68.58 64.6a.96.96 0 0 0 .519.101.85.85 0 0 0 .648-.395l.204-.31.005.006ZM49.972 50.984l1.252 6.497-1.489.164-1.252-6.503 1.49-.158Zm13.083 8.172c-.163.44-.011.992.39 1.314l.298.242-6.581.745-.31-1.608 6.209-.693h-.006Z"/>
</svg>
