<svg id="tnt-Dot-ChartDoughnut" xmlns="http://www.w3.org/2000/svg" width="45" height="45" fill="none" viewBox="0 0 45 45">
  <path fill="var(--sapContent_Illustrative_Color21)" fill-rule="evenodd" d="m13.783 38.688 30.54-5.454c.191-.034.198-.302.012-.348l-19.15-4.77a1.762 1.762 0 0 0-.702-.032L.37 31.8a.436.436 0 0 0-.117.827l12.836 5.97c.215.1.458.132.694.088v.003Z" clip-rule="evenodd"/>
  <path fill="var(--sapContent_Illustrative_Color25)" d="m5.34 11.57 35.118-2.112 4.513 19.625c.03.132.035.262.02.381a.845.845 0 0 1-.11.33.758.758 0 0 1-.224.241.705.705 0 0 1-.313.118l-33.955 4.255a1.065 1.065 0 0 1-.794-.222 1.191 1.191 0 0 1-.285-.316 1.125 1.125 0 0 1-.155-.408L5.34 11.57Z"/>
  <path fill="var(--sapContent_Illustrative_Color13)" d="M38.883 6.251a.873.873 0 0 1 .34.054 1.155 1.155 0 0 1 .7.802l.54 2.35-35.12 2.114-.454-2.612a.922.922 0 0 1 .013-.392.86.86 0 0 1 .45-.556.994.994 0 0 1 .381-.1l33.15-1.66Z"/>
  <path fill="var(--sapContent_Illustrative_Color14)" d="M10.39 34.406a1.067 1.067 0 0 1-.795-.222 1.191 1.191 0 0 1-.285-.316 1.112 1.112 0 0 1-.155-.408L5.34 11.57l-.454-2.61a.905.905 0 0 1 .163-.706l-.576.75a1.018 1.018 0 0 0-.093.15.912.912 0 0 0-.07.546l.448 2.583 3.75 21.65a1.141 1.141 0 0 0 .802.903c.134.04.275.052.417.033l33.649-4.25.968-.467-33.955 4.255Z"/>
  <path fill="var(--sapContent_Illustrative_Color13)" d="M32.142 21.693c.153-.006.295.13.31.295l.009.132c-.012-.165-.15-.3-.304-.3l-2.64.014c-.166.012-.266.145-.26.307a4.777 4.777 0 0 1-.259 1.786 4.037 4.037 0 0 1-1.09 1.665 3.768 3.768 0 0 1-2.234.975 4.1 4.1 0 0 1-1.201-.075c-.03-.006-.057-.009-.087-.006a.272.272 0 0 0-.244.232l-.434 2.812c-.024.16.072.322.22.364-1.364-.325-2.665-1.032-3.758-2.056a9.523 9.523 0 0 1-2.601-4.194c-.485-1.602-.524-3.276-.115-4.803.169-.626.41-1.216.714-1.758-.066.136-.009.32.127.413l2.426 1.601a.29.29 0 0 0 .187.048.272.272 0 0 0 .21-.132 3.85 3.85 0 0 1 .901-1.036c-.662.533-1.135 1.286-1.367 2.156a5.01 5.01 0 0 0 .07 2.743c.273.915.788 1.75 1.48 2.397a4.772 4.772 0 0 0 2.388 1.234c.368.066.738.084 1.096.054a3.81 3.81 0 0 0 1.385-.391 3.915 3.915 0 0 0 1.738-1.786c.34-.698.496-1.499.448-2.32-.009-.163.09-.299.238-.311l2.659-.06h-.012Z"/>
  <path fill="var(--sapContent_Illustrative_Color15)" d="M26.191 11.806h.033c.9.042 1.807.256 2.67.632a8.608 8.608 0 0 1 2.614 1.78 9.453 9.453 0 0 1 1.888 2.646c.434.894.72 1.846.852 2.812.021.16-.078.292-.22.304l-3.185.01c-.154 0-.295-.14-.32-.305a4.906 4.906 0 0 0-.406-1.267 4.842 4.842 0 0 0-.954-1.334 4.36 4.36 0 0 0-1.319-.891 3.836 3.836 0 0 0-1.201-.304.361.361 0 0 1-.317-.317l-.349-3.471c-.015-.154.078-.286.217-.298l-.003.003Z"/>
  <path fill="var(--sapContent_Illustrative_Color21)" d="M23.417 13.657a7.04 7.04 0 0 1 .355-.021c.157-.006.295.132.314.301l.295 2.903c.018.17-.097.305-.247.317a3.74 3.74 0 0 0-.49.066c-.028.006-.05.009-.07.015-.022.006-.043.009-.06.015-.01 0-.019.006-.03.006-.013 0-.019.006-.031.006l-.04.01a3.907 3.907 0 0 0-.65.234l-.039.018a3.663 3.663 0 0 0-.325.178 3.88 3.88 0 0 0-1.286 1.31.272.272 0 0 1-.21.132.29.29 0 0 1-.188-.048l-2.427-1.602c-.136-.093-.193-.274-.127-.413a6.35 6.35 0 0 1 .205-.343c.03-.045.051-.081.076-.117l.08-.12.073-.103a.253.253 0 0 0 .027-.04l.045-.063c.012-.015.021-.03.034-.042l.045-.057.072-.09c.009-.013.021-.025.03-.037.018-.02.033-.042.051-.06a30.475 30.475 0 0 1 .078-.093c.007-.01.016-.015.022-.024.066-.075.132-.148.202-.22l.072-.075c.105-.106.201-.2.3-.29l.028-.024c.021-.018.04-.036.06-.05a.301.301 0 0 1 .036-.03c.021-.019.046-.037.067-.058l.075-.063c.012-.013.027-.022.042-.034l.054-.042c.01-.009.021-.015.03-.024.021-.018.046-.033.07-.051.006-.006.015-.009.02-.015l.085-.063a6.632 6.632 0 0 1 3.28-1.208l-.003.009Z"/>
  <path fill="var(--sapContent_Illustrative_Color14)" d="m29.488 21.837 2.661-.018c.154 0 .295.138.307.304.006.07.01.135.012.205 0 .057.003.087.006.117 0 .075.004.127.004.18v.356c0 .04 0 .078-.004.117v.052c0 .024 0 .05-.003.075 0 .018 0 .036-.003.054a.637.637 0 0 1-.006.075c0 .015 0 .034-.003.049l-.009.117c0 .018-.003.033-.006.051 0 .024-.006.045-.006.07 0 .02-.006.045-.006.066 0 .018-.003.033-.006.05 0 .025-.006.05-.009.073 0 .01 0 .021-.003.03a7.9 7.9 0 0 1-.382 1.596 7.206 7.206 0 0 1-1.313 2.306c-.009.012-.018.021-.027.034a7.119 7.119 0 0 1-.548.566 6.521 6.521 0 0 1-2.993 1.568 6.57 6.57 0 0 1-.918.145 7.157 7.157 0 0 1-2.282-.172.337.337 0 0 1-.238-.37l.433-2.812a.271.271 0 0 1 .331-.226c.4.084.807.108 1.202.075a3.768 3.768 0 0 0 2.234-.976 4.077 4.077 0 0 0 1.09-1.665 4.72 4.72 0 0 0 .259-1.785c-.006-.163.093-.292.238-.304l-.012-.003Z"/>
</svg>
