<svg id="tnt-Spot-ChartGantt" xmlns="http://www.w3.org/2000/svg" width="128" height="128" fill="none" viewBox="0 0 128 128">
  <rect width="128" height="55" y="40" fill="var(--sapContent_Illustrative_Color20)" rx="8"/>
  <path fill="var(--sapContent_Illustrative_Color21)" fill-rule="evenodd" d="m44.654 93.03 59.062-10.547c.368-.066.381-.585.022-.673l-37.034-9.226a3.412 3.412 0 0 0-1.356-.062L18.715 79.71c-.824.129-.984 1.245-.226 1.6l24.823 11.543a2.22 2.22 0 0 0 1.343.173v.004Z" clip-rule="evenodd"/>
  <path fill="var(--sapContent_Illustrative_Color8)" d="M31.438 35.95c.214-.012.423.02.625.087a1.816 1.816 0 0 1 .964.766c.11.178.19.376.225.585a1.351 1.351 0 0 1-.26 1.098 1.3 1.3 0 0 1-.431.355 1.44 1.44 0 0 1-.581.154 1.671 1.671 0 0 1-.625-.086 1.767 1.767 0 0 1-.549-.3 1.885 1.885 0 0 1-.419-.467 1.614 1.614 0 0 1-.225-.588 1.524 1.524 0 0 1 .016-.6c.043-.186.13-.36.245-.502a1.345 1.345 0 0 1 1.016-.506v.004Zm-3.614 5.238 67.24-4.044 8.64 37.574a2.1 2.1 0 0 1 .039.73 1.603 1.603 0 0 1-.213.632 1.453 1.453 0 0 1-.427.462 1.344 1.344 0 0 1-.6.225l-65.011 8.148a2.078 2.078 0 0 1-1.521-.427 2.284 2.284 0 0 1-.545-.604 2.155 2.155 0 0 1-.297-.782l-7.305-41.914Z"/>
  <path fill="var(--sapContent_Illustrative_Color13)" d="M92.041 31.002a1.67 1.67 0 0 1 .652.103c.21.075.41.193.593.343a2.207 2.207 0 0 1 .746 1.193l1.035 4.498-67.243 4.048-.869-5a1.766 1.766 0 0 1 .024-.75 1.616 1.616 0 0 1 .861-1.066c.217-.107.462-.174.73-.19l63.471-3.179Z"/>
  <path fill="var(--sapContent_Illustrative_Color14)" d="M37.49 84.91a2.04 2.04 0 0 1-.806-.063 2.15 2.15 0 0 1-.715-.363 2.28 2.28 0 0 1-.545-.604 2.13 2.13 0 0 1-.297-.782l-7.305-41.91-.869-5a1.737 1.737 0 0 1 .02-.731 1.84 1.84 0 0 1 .114-.328 1.78 1.78 0 0 1 .178-.292l-1.102 1.433a1.95 1.95 0 0 0-.178.289 1.742 1.742 0 0 0-.162.675c0 .123.004.245.028.371l.857 4.945 7.179 41.452a2.184 2.184 0 0 0 .83 1.37c.213.163.45.285.707.36.257.075.525.099.798.063l64.426-8.14 1.853-.892-65.011 8.148Z"/>
  <path fill="var(--sapContent_Illustrative_Color20)" d="M52.273 47.319c.313-.026.613.226.679.561l.435 2.254-1.149.117-.435-2.258c-.065-.343.14-.648.457-.678h.013v.004Zm4.503 26.557-3.572-18.575 1.149-.126 3.567 18.558c.065.344-.14.652-.453.692-.326.03-.626-.214-.691-.553v.004Zm10.502-11.915 1.092-.126h.03l1.997 10.37c.066.34-.13.645-.439.684-.326.03-.613-.213-.679-.548l-1.996-10.375-.005-.005ZM64.79 46.048c.314-.026.618.217.684.557l1.97 10.24-1.122.122-1.97-10.245c-.066-.34.13-.644.443-.674h-.004Zm16.739 24.784-.426-2.215 1.1-.135.427 2.215c.065.335-.13.64-.435.679h-.018c-.296.026-.587-.214-.648-.549v.005Zm-4.455-26.037c.31-.026.605.217.67.552l3.507 18.193-1.101.13-3.506-18.21c-.066-.334.126-.635.435-.665h-.005Z"/>
  <path fill="var(--sapContent_Illustrative_Color15)" d="M60.066 49.446c.421-.04.826.291.913.743l.644 3.363c.087.457-.178.857-.596.9l-6.673.723-1.149.126-4.115.444c-.435.039-.844-.296-.931-.749l-.653-3.397c-.087-.461.187-.87.614-.914l4.115-.426 1.148-.117 6.678-.697h.005Z"/>
  <path fill="var(--sapContent_Illustrative_Color14)" d="M84.803 63.126c.417-.034.8.288.883.727l.64 3.306c.086.444-.17.848-.57.896l-3.555.43-1.1.136-8.183.987c-.426.04-.818-.282-.905-.73l-.644-3.346c-.087-.452.174-.857.588-.905l8.187-.957 1.1-.13 3.554-.418.005.004Z"/>
  <path fill="var(--sapContent_Illustrative_Color13)" d="M67.275 56.877c.43-.03.818.296.905.735l.648 3.35c.083.44-.165.84-.566.9h-.03l-1.092.126-9.875 1.132c-.435.039-.835-.292-.922-.744l-.649-3.38c-.09-.462.179-.866.6-.914l9.88-1.092 1.096-.122.005.009Zm9.569-1.071c.418-.034.81.287.892.736l.64 3.323c.087.448-.174.848-.579.896l-6.442.74c-.422.039-.818-.287-.905-.735l-.644-3.346c-.087-.452.174-.852.587-.9l6.447-.714h.004Z"/>
</svg>
