<svg id="tnt-Dialog-Success" xmlns="http://www.w3.org/2000/svg" width="160" height="160" fill="none" viewBox="0 0 160 160">
  <rect width="160" height="69" y="50" fill="var(--sapContent_Illustrative_Color20)" rx="11.988"/>
  <path fill="var(--sapContent_Illustrative_Color2)" d="M147.588 102.719c0-.299-.867-.538-2.025-.592-.067-1.157-.322-2.017-.62-2.017-.299.001-.547.868-.611 2.031-1.162.079-2.025.339-2.021.638.004.299.867.539 2.025.592.069 1.157.321 2.017.619 2.017.298-.001.548-.868.612-2.031 1.161-.079 2.024-.339 2.021-.638Zm-115.98-2.774c0-.3-.867-.538-2.025-.593-.066-1.157-.321-2.017-.62-2.016-.299 0-.547.868-.61 2.03-1.162.08-2.026.34-2.022.639.004.299.867.538 2.025.592.07 1.157.322 2.017.62 2.016.298 0 .547-.867.611-2.03 1.162-.08 2.025-.339 2.021-.638ZM29.61 65.341c0-.437-1.269-.787-2.964-.866-.097-1.693-.47-2.952-.908-2.952-.437.001-.8 1.27-.894 2.972-1.7.117-2.964.497-2.958.935.006.438 1.269.788 2.964.866.102 1.694.47 2.953.907 2.952.436-.001.801-1.27.894-2.972 1.7-.116 2.964-.496 2.96-.934Z"/>
  <circle cx="12.939" cy="92.203" r="2.498" fill="var(--sapContent_Illustrative_Color2)"/>
  <circle cx="30.609" cy="70.247" r=".999" fill="var(--sapContent_Illustrative_Color2)"/>
  <circle cx="102.088" cy="84.736" r="39.832" fill="var(--sapContent_Illustrative_Color15)" transform="rotate(-12 102.088 84.736)"/>
  <path fill="var(--sapContent_Illustrative_Color16)" d="M136.502 104.792c-5.46 9.361-14.696 16.474-26.131 18.905a39.645 39.645 0 0 1-22.574-1.78c1.826.27 4.478.614 7.09.846 2.888.257 5.696.379 7.288.137l.392-.065c2.04-.367 5.224-1.326 8.462-2.408a245.946 245.946 0 0 0 9.125-3.271l.206-.083c1.06-.45 2.591-1.422 4.331-2.668 1.849-1.324 3.914-2.944 5.865-4.539a195.201 195.201 0 0 0 5.173-4.385c.276-.244.534-.475.773-.689Z"/>
  <path fill="var(--sapContent_Illustrative_Color16)" d="M101.418 111.278c.416-.143.874-.163 1.37-.111.564.059 1.2.214 1.906.404 1.242.336 2.733.79 4.557 1.09l.803.119.009.001.01.002c1.953.404 3.332.556 4.538.54 1.206-.016 2.252-.198 3.547-.473 1.642-.35 4.533-1.512 6.709-2.302a33.18 33.18 0 0 1 1.453-.497c.411-.128.766-.22 1.014-.244a.763.763 0 0 1 .371.037c.065.03.137.085.178.176a.36.36 0 0 1 .014.242.914.914 0 0 1-.214.347 3.39 3.39 0 0 1-.182.189l-.239.218c-2.414 2.097-4.035 3.159-5.133 3.711a6.881 6.881 0 0 1-1.291.514c-.31.085-.556.117-.668.14-2.141.455-4.852.683-7.643.755l-1.201.022c-1.374.015-2.233.597-2.987 1.253-.368.32-.745.692-1.117.987-.335.265-.697.497-1.118.63l-.184.051c-.545.13-1.087-.06-1.539-.379a3.84 3.84 0 0 1-1.115-1.28c-.266-.488-.427-1.031-.374-1.5.027-.239.111-.467.273-.652.072-.083.157-.154.254-.212a46.589 46.589 0 0 0-2.186-.004l-.713.016c-.939.026-1.867.277-3.185.66-1.21.352-2.732.807-4.849 1.278.313.03.704.051 1.148.049 1.581-.007 3.749-.275 5.34-1.116l.115-.055c.576-.257 1.221-.198 1.775.049.591.262 1.107.749 1.37 1.35.266.61.266 1.333-.172 2.028-.379.6-1.072 1.162-2.156 1.628l-.49.193c-.405.147-1.207.236-2.234.243a25.8 25.8 0 0 1-3.777-.281c-2.682-.388-5.83-1.231-8.532-2.825l-.534-.328a1.995 1.995 0 0 1-.469-.396.755.755 0 0 1-.188-.469c-.003-.35.283-.595.585-.765.63-.355 1.776-.631 3.083-.864 1.32-.236 2.852-.437 4.28-.628 1.434-.191 2.761-.373 3.69-.57 1.85-.393 2.91-.93 3.704-1.451.404-.266.735-.523 1.087-.776a6.413 6.413 0 0 1 1.132-.674l.175-.07Z"/>
  <path fill="var(--sapContent_Illustrative_Color16)" d="M102.897 103.272c2.112-1.351 4.921-2.468 8.53-1.94l2.792.395c2.912.4 6.113.8 8.943 1.101 1.887.2 3.608.356 4.969.438.68.041 1.269.063 1.742.063.478 0 .822-.023 1.021-.065.944-.201 1.928-.283 3.362-.714 1.131-.339 2.528-.897 4.346-1.893-.225.514-.46 1.023-.706 1.527-4.025 2.927-8.618 5.077-12.536 6.552a64.09 64.09 0 0 1-6.124 1.968c-.805.212-1.482.368-1.995.472-.501.101-.87.155-1.044.154-.174-.002-.458-.055-.801-.132-.353-.08-.797-.192-1.305-.322-1.018-.262-2.303-.601-3.674-.918-1.371-.317-2.824-.611-4.174-.782-1.184-.149-2.276-.202-3.159-.1l-.366.054c-.935.169-1.896.608-2.945 1.176-1.031.559-2.18 1.26-3.412 1.893-2.418 1.243-5.304 2.305-9.031 1.952l-.364-.039a39.334 39.334 0 0 1-2.203-.308c-.51-.091-.856-.178-1.047-.267a.662.662 0 0 1-.146-.089.342.342 0 0 1-.119-.199.307.307 0 0 1 .073-.253.45.45 0 0 1 .137-.104c.083-.043.192-.077.304-.104.116-.029.255-.055.406-.079.601-.095 1.48-.169 2.273-.235.808-.067 1.51-.125 1.793-.186.119-.025.34-.113.66-.265.311-.149.698-.35 1.135-.588.875-.478 1.948-1.102 3.038-1.746 2.173-1.282 4.433-2.655 5.3-3.096l.151-.085c.159-.098.343-.234.555-.404.282-.226.6-.501.962-.81.721-.614 1.604-1.347 2.659-2.022Z"/>
  <path fill="var(--sapContent_Illustrative_Color16)" d="M62.483 80.422a16.605 16.605 0 0 1 8.525 3.735c.537.165 1.06.315 1.564.443 1.53.389 2.803.572 3.71.51l.285-.013c1.446-.045 3.143.285 4.88.756 1.87.506 3.891 1.206 5.845 1.88 1.97.68 3.869 1.333 5.55 1.775 1.713.45 3.055.64 3.955.5 2.187-.34 7.241-1.476 11.979-2.835 2.366-.68 4.628-1.406 6.398-2.108.886-.351 1.629-.689 2.193-1.001.595-.33.876-.573.965-.693.812-1.103 1.145-2.123 1.614-3.199.459-1.054 1.059-2.153 2.461-2.792.469-.214.968-.248 1.412-.227.446.02.927.103 1.395.194.972.19 1.995.433 3.171.514.941.065 1.98.021 3.102-.27a41.746 41.746 0 0 0 2.191-2.793c1.033-1.447 1.932-2.951 2.223-4.07l.107-.441c.416-1.844.56-4.065.59-5.457a39.607 39.607 0 0 1 3.71 8.685 32.485 32.485 0 0 1-1.748 1.898l-.514.505c-3.638 3.514-7.027 4.128-9.798 3.937-1.337-.092-2.535-.374-3.417-.547-.458-.089-.816-.146-1.105-.16-.291-.014-.43.022-.49.05-.709.323-1.053.842-1.458 1.773-.396.91-.851 2.245-1.836 3.584-.361.49-.971.904-1.606 1.256-.668.37-1.498.743-2.424 1.111-1.748.693-3.917 1.395-6.163 2.048-2.118.958-4.871 2.15-7.636 3.24-3.354 1.323-6.749 2.508-9.053 2.945l-.445.078c-1.458.226-2.627.053-3.65-.395-1.018-.445-1.877-1.157-2.727-1.979-1.689-1.633-3.36-3.708-6.252-5.315-1.299-.31-2.432-.478-3.348-.45l-.222.01c-.827.056-1.788-.04-2.816-.233a16.598 16.598 0 0 1 3.37 9.184c.455.087.883.157 1.282.207l1.412.182c3.219.428 5.926.865 8.37 1.145 2.78.318 5.159.425 7.428.074l.842-.138c4.248-.732 9.093-2.118 13.323-3.634 4.522-1.622 8.305-3.38 9.914-4.633l.143-.119c.707-.61 1.27-1.536 1.807-2.564.561-1.077 1.098-2.275 1.726-3.216.63-.946 1.399-1.709 2.466-1.855 1.062-.144 2.336.333 3.949 1.64l.145.104c.173.117.428.266.75.443.423.232.944.501 1.506.792 1.12.58 2.404 1.242 3.374 1.841.483.299.901.59 1.183.854.14.13.261.267.335.405.075.139.121.317.044.495-.074.17-.234.273-.401.335a2.502 2.502 0 0 1-.664.122c-.406.03-.954.02-1.662-.038l-.763-.073c-.854-.094-2.116.127-3.601.55-1.477.42-3.146 1.03-4.801 1.692a154.914 154.914 0 0 0-4.706 1.993c-1.058.465-1.997.881-2.722 1.186l-.651.265c-8.45 3.305-21.15 5.858-27.89 6.05l-.633.012c-1.907.011-6.487.255-11.07-.02a56.097 56.097 0 0 1-.709-.048 16.632 16.632 0 0 1-4.144 8.188c2.098.254 4.323.159 6.6-.202 5.568-.883 11.335-3.342 16.066-5.991 2.843-1.591 5.846-2.784 8.718-3.672l-.001-.075c.081-.002.167-.002.257-.003a57.593 57.593 0 0 1 5.57-1.388c4.325-.853 7.749-1.026 8.81-.932l.357.036c1.783.201 3.573.72 5.37 1.115 1.953.428 4.046.747 6.526.515 4.135-.39 6.312-1.893 10.152-4.306-.159.71-.338 1.414-.534 2.111-3.105 1.949-5.535 3.316-9.478 3.686-2.697.254-4.961-.097-6.988-.542-1.935-.425-3.548-.903-5.204-1.09l-.332-.033c-.857-.075-4.121.069-8.39.91-.179.035-.361.073-.543.11 1.904.161 3.967.436 5.8.89l.945.22c2.275.497 5.01.884 7.606 1.098 2.984.245 5.71.254 7.329-.031l.528-.106c1.324-.299 3.261-.928 5.29-1.675.901-.332 1.81-.685 2.68-1.035a39.46 39.46 0 0 1-.721 1.895c-.479.185-.961.369-1.441.546-2.029.747-4.052 1.41-5.495 1.734l-.582.118c-1.817.319-4.702.294-7.71.047-2.647-.217-5.452-.613-7.809-1.128l-.981-.228c-3.623-.897-8.266-1.068-10.525-1.04-2.802.863-5.72 2.02-8.472 3.56-4.816 2.696-10.757 5.243-16.563 6.165-2.786.441-5.569.51-8.19.028-.046.04-.095.079-.142.118a39.664 39.664 0 0 1-7.927-16.7 39.795 39.795 0 0 1-.645-12.595Z"/>
  <path fill="var(--sapContent_Illustrative_Color16)" d="M130.181 90.18c3.601-.765 6.802-.061 7.15 1.571.347 1.633-2.292 3.577-5.893 4.343-3.601.765-6.802.062-7.149-1.57-.346-1.633 2.291-3.578 5.892-4.343Zm2.512-9.542c.379-.008.861.204 1.4.62l.153.108c.379.246.916.454 1.562.623.733.192 1.587.33 2.466.426 1.248.136 2.537.184 3.594.187a39.77 39.77 0 0 1 .028 3.749c-1.675.065-2.797.022-3.752-.2-.955-.22-1.735-.616-2.721-1.227l-1.07-.683c-.799-.519-1.378-1.053-1.761-1.542-.376-.482-.582-.946-.588-1.321a.747.747 0 0 1 .176-.522.695.695 0 0 1 .513-.218Zm.885-20.308a39.5 39.5 0 0 1 1.334 1.826c-.908 1.842-2.037 4.028-2.956 5.522l-.277.44c-.999 1.538-3.173 3.35-5.776 4.856-2.63 1.52-5.842 2.815-9.017 3.218-1.535.195-3.164.312-4.769.429-1.617.118-3.212.236-4.73.432-3.078.399-5.606 1.099-7.191 2.549-1.75 1.602-3.11 3.478-3.774 4.91-.295.637-.407 1.09-.422 1.352 1.134.024 4.326-.055 7.669-.742 1.75-.359 3.508-.878 5.021-1.613 1.517-.737 2.727-1.663 3.468-2.802.396-.607.458-.934.455-1.054 0-.022.022-.025-.068-.077-.151-.088-.461-.181-.98-.211-.501-.029-1.109.005-1.781.094a21.26 21.26 0 0 0-2.805.586l.324.003c.109 0 .196-.002.263-.006.058-.003.086-.007.091-.007l.261-.052c.253-.046.48-.074.679-.082.237-.01.543.004.809.14a.955.955 0 0 1 .417.406.943.943 0 0 1 .091.579c-.046.293-.215.531-.337.68-.267.324-.695.673-1.164 1a16.22 16.22 0 0 1-1.666 1.007c-1.187.629-2.592 1.206-3.675 1.32-.431.046-.969.036-1.411-.222a1.665 1.665 0 0 1-.844-.211 1.366 1.366 0 0 1-.66-.966 1.964 1.964 0 0 1 .092-.924c.087-.267.22-.54.377-.808.316-.539.787-1.153 1.384-1.817l.122-.123c.303-.28.733-.516 1.13-.706a16.571 16.571 0 0 1 1.787-.71c1.341-.454 2.976-.87 4.474-1.068.749-.098 1.49-.146 2.156-.108.646.037 1.323.16 1.871.479.607.353 1.043.95 1.061 1.76.015.713-.299 1.453-.778 2.189-1.009 1.549-2.563 2.679-4.27 3.508-1.713.832-3.644 1.394-5.492 1.774-3.09.634-6.048.777-7.574.785a4.543 4.543 0 0 1-1.412.284c-.678.016-1.403-.171-1.888-.805l-.094-.132c-.257-.397-.514-.779-.722-1.137-.207-.358-.378-.714-.458-1.065a1.616 1.616 0 0 1 .094-1.065c.16-.346.456-.66.893-.957l.347-.25c.907-.675 2.435-1.966 3.896-3.173.44-.365.875-.722 1.282-1.05.135-.13.272-.26.411-.386 2.078-1.902 5.164-2.653 8.285-3.057 1.582-.205 3.233-.327 4.84-.444 1.619-.118 3.192-.231 4.664-.418 2.84-.361 5.797-1.537 8.267-2.966 2.496-1.444 4.355-3.064 5.102-4.214l.261-.415c1.027-1.673 2.367-4.326 3.313-6.285Z"/>
  <path fill="var(--sapContent_Illustrative_Color16)" fill-rule="evenodd" d="M93.808 45.775a39.703 39.703 0 0 1 15.917-.142c.381.448.639.944.754 1.486.81 3.81-5.681 8.419-14.499 10.293a37.23 37.23 0 0 1-4.003.628c.096.229.2.526.308.872.086-.01.172-.017.258-.026 3.002-.323 5.749-.825 7.785-1.779l1.588-.745-.169 1.746c-.087.896-.591 1.674-1.234 2.317-.65.648-1.52 1.24-2.516 1.77-1.167.621-2.56 1.186-4.084 1.676.127.29.26.557.396.794.356-.044.71-.086 1.058-.132 5.467-.72 9.907-1.72 12.803-5.053l.454-.533c2.286-2.726 4.746-6.369 6.206-9.578.337-.74.609-1.44.817-2.088.628.228 1.25.47 1.865.73a21.78 21.78 0 0 1-.863 2.186c-1.552 3.41-4.122 7.206-6.498 10.04l-.473.554c-3.445 3.966-8.626 5.01-14.05 5.724l-.17.02c.143.527.213 1.08.436 1.522 2.564-.167 5.927-.672 10.736-2.16l.399-.13c4.09-1.41 7.12-4.674 9.254-8.253 1.741-2.92 2.873-6.031 3.498-8.464a40.06 40.06 0 0 1 7.852 5.12c-1.705 3.946-4.076 6.87-6.368 8.904-2.489 2.208-4.895 3.382-6.255 3.672-1.311.278-5.162.907-9.07 1.55-3.613.593-7.279 1.198-9.071 1.553.063.263.135.551.23.852a31.616 31.616 0 0 1 5.392-.76l.1.484c-1.839.686-3.322 1.375-4.56 2.044.174.208.377.41.613.602 2.83-1.49 5.848-2.307 8.805-2.807 2.625-.444 5.234-.642 7.625-.83 2.415-.19 4.584-.37 6.431-.762l.249-.058c2.55-.642 4.491-2.674 5.899-5.176 1.364-2.424 2.142-5.145 2.458-7.012a40.013 40.013 0 0 1 1.678 1.76c-.446 1.871-1.218 4.14-2.395 6.233-1.532 2.722-3.842 5.301-7.15 6.133l-.324.074c-1.999.425-4.306.612-6.69.8-2.408.189-4.925.382-7.447.809-5.033.85-9.97 2.616-13.794 7.026-4.38 5.05-11.19 5.577-16.842 4.637-2.853-.474-5.494-1.331-7.525-2.244-1.015-.456-1.896-.934-2.583-1.396-.567-.381-1.1-.815-1.428-1.282l-.127-.203c-.593-1.066-1.46-2.063-2.25-2.837.168-.739.356-1.471.566-2.197 1.064.925 2.5 2.392 3.43 4.063l.083.111c.126.144.384.38.84.687.57.383 1.347.809 2.288 1.231 1.881.846 4.357 1.652 7.033 2.097 5.404.898 11.31.285 15.005-3.975.815-.94 1.676-1.77 2.57-2.504h-.002c-.383-.174-.614-.341-.85-.49-.192.145-.378.287-.56.427-1.78 1.373-3.162 2.515-5.626 3.118l-.508.114c-2.745.556-5.44.733-7.577.556-1.067-.088-2.004-.266-2.742-.534-.73-.266-1.305-.636-1.587-1.136a.587.587 0 0 0-.333-.29c-.139-.046-.318-.052-.543-.013-.46.078-1.02.318-1.649.587-.612.26-1.283.543-1.918.663-.6.113-1.21.089-1.725-.266l-.102-.076c-.934-.743-2.203-2.238-3.388-3.56a36.96 36.96 0 0 0-1.343-1.434c-.2.003-.402-.001-.609-.009 4.1-13.39 15.152-24.213 29.821-27.331ZM77.653 74.08c.199.253.407.507.64.75.738.776 1.69 1.445 3.14 1.6l.526.045c2.599.162 4.697-.586 6.528-1.566.17-.09.335-.184.5-.278-.398.043-.83.087-1.286.133-.317.154-.64.299-.97.43l-.372.144c-2.038.747-3.96.466-5.476-.231l-.085-.041c-.035-.002-.071-.001-.106-.003-.738-.265-1.857-.588-3.038-.983Zm-9.225-1.388c.36.313.73.63 1.103.925.618.49 1.231.923 1.79 1.213.567.295 1.036.419 1.381.356l.323-.051c.312-.045.595-.07.836-.088.292-.022.5-.037.638-.062l-.032-.042a4.107 4.107 0 0 0-.313-.312c-.473-.436-1.532-1.348-2.714-2.4-.708.105-1.412.317-2.333.392-.228.019-.455.043-.679.07Z" clip-rule="evenodd"/>
  <circle cx="49.094" cy="95.546" r="18.841" fill="var(--sapContent_Illustrative_Color14)" transform="rotate(-12 49.094 95.546)"/>
  <path fill="var(--sapContent_Illustrative_Color13)" d="M45.176 77.118c6.322-1.344 12.575.654 16.926 4.798 2.13 10.863-4.843 21.463-15.71 23.773a20.24 20.24 0 0 1-14.438-2.312 18.902 18.902 0 0 1-1.29-3.913c-2.163-10.178 4.334-20.183 14.512-22.346Z"/>
  <path fill="var(--sapContent_Illustrative_Color14)" d="m63.897 84.8-.653 4.346s-3.856-4.808-6.8-6.443c-2.944-1.635-8.249-3.499-8.249-3.499l1.3-.13s5.244.88 7.938 2.095c2.694 1.215 6.464 3.63 6.464 3.63Z"/>
  <path fill="var(--sapContent_Illustrative_Color22)" d="M48.165 42.281h1.499v36.936s-.248.228-.75.228c-.501 0-.749-.228-.749-.228V42.281Z"/>
  <path fill="var(--sapContent_Illustrative_Color9)" d="M51.779 49.886c-.569-2.63-1.948-6.608-3.369-7.415 2.961.888 11.1 3.734 13.249 4.002 3.13.391 4.817 1.483 6.239 1.75 1.57-.208 4.305-.323 5.147-.506.694-.151 3.852-.83 5.185-1.244a19.57 19.57 0 0 1 2.932 1.244c1.51.8 3.844 2.008 4.554 2.808.71.8.94 1.63 1.474 2.785.533 1.155 1.312 5.157 2.44 6.24.782.75.437 2.094 1.243 2.67.65.464.184 2.693 2.371 4.051-.977 1.688-3.025 1.853-3.453 1.658-.977-.444-.76-.847-3.154-.847-1.069 0-5.364.709-8.817.525-1.155-.415-3.43-.99-5.065-1.842-2.043-1.066-2.852-.335-4.596-.193-2.08.17-3.95.987-6.615 0-3.988-1.476-14.224 1.802-12.628-1.017 1.257-1.738 1.668-3.869 1.668-5.006 0-3.58 1.905-6.376 1.195-9.663Z"/>
  <path fill="var(--sapContent_Illustrative_Color17)" d="M78.741 47.578c-.276-.681-.867-.698-1.128-.621.369-.277.898-.185 1.128 0 .23.184 2.421 2.716 2.694 3.038.218.258.198.63.161.783.575-.215 1.975-.65 2.97-.667.994-.019 2.026 2.125 2.417 3.2-.223-.23-.663-.608-.645-.277.023.415-.874 1.68-1.772 2.302-.719.498-2.034 1.282-2.602 1.612.154-.507.369-1.62 0-2.026-.46-.506-1.634-2.486-1.91-3.177-.277-.69-.967-3.315-1.313-4.167Zm-18.443 1.22c-1.215-.854-5.792-3.167-7.929-4.217.675 0 6.467 1.8 7.929 2.53 1.17.585 5.173 1.744 7.029 2.25-1.178-.157-3.304-.446-3.83-.535.678.235 3.964 1.951 5.742 2.84 1.912.956 4.836 3.487 4.161 2.924-.675-.562-4.724-.9-6.073-1.462-1.35-.562-5.51-3.261-7.03-4.33Zm2.531 7.311c.855 1.304 2.793 2.343 3.655 2.699-1.575-.843-2.812-3.093-3.655-4.555-.675-1.17-3.318-2.999-4.555-3.767l-5.567-4.668c3.018 2.887 9.267 8.986 10.122 10.29Zm14.058 2.081c-.9-.54-1.237-1.575-1.293-2.025.43.431 1.473 1.44 2.193 2.024.226.184.643.329 1.15.453.106.017.212.04.319.073 1.492.325 3.503.522 3.817.993.36.54 3.186 1.05 4.554 1.237-.674.187-2.294.54-3.373.45-1.35-.113-3.43-1.631-4.387-2.362a1.926 1.926 0 0 0-.611-.318c-.11-.023-.217-.048-.32-.073-.638-.105-1.293.001-2.049-.453Zm-5.063 5.904c-1.26-.99-2.661-3.487-3.205-4.612 1.069 0 3.295.068 3.655.338.45.337 4.218 4.274 5.23 4.948.81.54 3.749 1.087 5.117 1.294-1.5.018-4.825.045-6.13 0-1.63-.057-3.092-.731-4.667-1.968Zm2.306-12.989c.72.54 1.687.825 2.08.9h.226c-2.654-1.305-3.73-2.906-3.936-3.543h-3.824c1.518.656 4.734 2.103 5.454 2.643Z"/>
  <circle cx="48.915" cy="41.888" r="1.319" fill="var(--sapContent_Illustrative_Color22)"/>
</svg>
