<svg id="tnt-Dot-SessionExpired" xmlns="http://www.w3.org/2000/svg" width="45" height="45" fill="none" viewBox="0 0 45 45">
  <path fill="var(--sapContent_Illustrative_Color15)" fill-rule="evenodd" d="M36.027 38.667v2.49c0 2.12-6.06 3.843-13.526 3.843-7.465 0-13.526-1.723-13.526-3.843 0-.095.012-.19.036-.285l-.036-.01v-2.198c0 1.951 6.06 3.535 13.526 3.535 7.465 0 13.526-1.584 13.526-3.535v.003Zm-.023-.213h.023v.213a.958.958 0 0 0-.023-.213Zm-27.03.213v-.208h.024a.94.94 0 0 0-.023.208Z" clip-rule="evenodd"/>
  <path fill="var(--sapContent_Illustrative_Color26)" fill-rule="evenodd" d="M22.501 35.129c7.465 0 13.526 1.584 13.526 3.535 0 1.95-6.06 3.535-13.526 3.535-7.465 0-13.526-1.584-13.526-3.535s6.06-3.535 13.526-3.535Z" clip-rule="evenodd"/>
  <path fill="var(--sapContent_Illustrative_Color2)" fill-rule="evenodd" d="M32.516 8.374a13.549 13.549 0 0 1-1.94 4.634c-.95 1.437-2.442 2.68-3.836 3.786-1.864 1.479-3.245 2.758-3.237 3.905v.108c0 2.013 4.834 4.261 7.07 7.645 2.015 3.047 2.433 6.292 2.374 9.91a.417.417 0 0 1 .005.079c0 1.273-4.682 2.305-10.453 2.305-5.771 0-10.454-1.032-10.454-2.305 0-.026 0-.054.006-.08-.062-3.617.359-6.86 2.374-9.91 2.236-3.383 7.07-5.631 7.07-7.644v-.108c.008-1.148-1.373-2.423-3.237-3.905-1.394-1.106-2.883-2.346-3.835-3.786a13.477 13.477 0 0 1-1.941-4.634c2.475.637 6.048 1.037 10.014 1.037 3.967 0 7.54-.4 10.015-1.037h.005Z" clip-rule="evenodd"/>
  <path fill="var(--sapContent_Illustrative_Color15)" fill-rule="evenodd" d="M36.028 2.729v.036-.036Zm-27.053.038v-.056h.003l-.003.056Zm27.053 0v2.077h-.005c-.18 1.58-6.172 2.847-13.524 2.847-7.352 0-13.526-1.309-13.526-2.921V2.765c0 1.527 6.06 2.767 13.526 2.767 7.465 0 13.526-1.24 13.526-2.767l.003.002Z" clip-rule="evenodd"/>
  <path fill="var(--sapContent_Illustrative_Color21)" fill-rule="evenodd" d="M32.8 6.665a16.837 16.837 0 0 1-.282 1.71c-2.474.636-6.048 1.036-10.014 1.036-3.966 0-7.54-.4-10.015-1.037a17.1 17.1 0 0 1-.282-1.71c2.482.63 6.177 1.027 10.3 1.027 4.122 0 7.816-.397 10.299-1.026h-.005Z" clip-rule="evenodd"/>
  <path fill="var(--sapContent_Illustrative_Color15)" fill-rule="evenodd" d="M8.975 4.085v-.062h.002l-.002.062Zm1.078 34.32V4.773h1.412v33.632c0 .255-.316.462-.706.462-.39 0-.706-.205-.706-.462Zm23.541 0V4.773h1.412v33.632c0 .255-.316.462-.706.462-.39 0-.706-.205-.706-.462Z" clip-rule="evenodd"/>
  <path fill="var(--sapContent_Illustrative_Color1)" fill-rule="evenodd" d="M11.465 6.461v.29s-.565.596-1.412.206V5.915c.382.192.855.374 1.412.544v.002Zm22.129-.027v.68s.706.136 1.412-.537v-.69a9.016 9.016 0 0 1-1.412.544v.003Z" clip-rule="evenodd"/>
  <path fill="var(--sapContent_Illustrative_Color26)" fill-rule="evenodd" d="M22.501 0c7.465 0 13.526 1.24 13.526 2.767 0 1.528-6.06 2.768-13.526 2.768-7.465 0-13.526-1.24-13.526-2.768C8.975 1.24 15.035 0 22.5 0Z" clip-rule="evenodd"/>
  <path fill="var(--sapContent_Illustrative_Color3)" d="M22.799 25.746c1.39.467 8.392 6.124 9.184 8.59.333.134.61.226.784.18.136 1.04.19 2.107.19 3.209 0 .213 0 .426-.005.641a.435.435 0 0 1 .005.08c0 .026 0 .051-.005.077L18.194 39.6c-.25-.025-.589-.053-.827-.084l-4.965-.478c-.185-.151-.3-.31-.337-.474l.142-3.781c.02-.17.04-.337.065-.506a3.77 3.77 0 0 1 1.23-.71c1.735-2.466 7.532-7.2 9.296-7.82Z"/>
  <path fill="var(--sapContent_Illustrative_Color15)" fill-rule="evenodd" d="M32.747 34.377c.18 1.281.226 2.608.203 3.99a.409.409 0 0 1 .005.08c0 1.272-4.683 2.297-10.454 2.297-5.77 0-10.453-1.025-10.453-2.298 0-.025 0-.054.005-.08-.026-1.463.028-2.862.236-4.215.709.93 2.963 3.456 6.518 3.456 4.354 0 5.29-2.282 9.14-2.847 2.951-.434 4.322-.416 4.8-.385v.002Z" clip-rule="evenodd"/>
</svg>
