<svg id="tnt-Scene-ChartGantt" xmlns="http://www.w3.org/2000/svg" width="320" height="240" fill="none" viewBox="0 0 320 240">
  <rect width="320" height="138" y="59" fill="var(--sapContent_Illustrative_Color20)" rx="24"/>
  <path fill="var(--sapContent_Illustrative_Color21)" fill-rule="evenodd" d="m108.418 192.851 147.171-26.279c.916-.166.949-1.457.055-1.678l-92.284-22.988a8.494 8.494 0 0 0-3.379-.155l-116.2 17.909c-2.053.32-2.45 3.103-.563 3.986l61.854 28.763a5.536 5.536 0 0 0 3.346.431v.011Z" clip-rule="evenodd"/>
  <path fill="var(--sapContent_Illustrative_Color8)" d="m67.912 61.771 170.092-10.23 21.857 95.049c.15.64.17 1.269.1 1.849a4.093 4.093 0 0 1-.54 1.598c-.28.47-.639.869-1.079 1.169-.44.3-.949.499-1.519.569L92.368 172.386c-.7.09-1.39.02-2.039-.16a5.27 5.27 0 0 1-1.809-.919 5.774 5.774 0 0 1-1.379-1.529 5.453 5.453 0 0 1-.75-1.978L67.912 61.771Z"/>
  <path fill="var(--sapContent_Illustrative_Color13)" d="M230.357 36.005c.56-.03 1.12.07 1.65.26.529.19 1.039.49 1.499.87.459.379.859.828 1.179 1.338.32.51.57 1.079.71 1.678l2.618 11.38L67.911 61.77l-2.198-12.648a4.46 4.46 0 0 1 .06-1.898c.15-.59.42-1.13.79-1.589.369-.46.839-.84 1.388-1.109.55-.27 1.17-.44 1.85-.48l160.556-8.042ZM78.425 56.236c.54-.03 1.04-.17 1.47-.39.43-.22.799-.53 1.089-.899.29-.37.5-.8.62-1.269.12-.47.13-.979.04-1.508a4.105 4.105 0 0 0-.57-1.479 4.73 4.73 0 0 0-1.05-1.179 4.59 4.59 0 0 0-1.389-.759c-.5-.17-1.04-.25-1.579-.22-.54.03-1.03.16-1.469.38-.44.22-.8.53-1.1.9-.3.369-.51.798-.619 1.268-.11.47-.14.989-.04 1.518.1.53.29 1.04.57 1.489a4.713 4.713 0 0 0 2.448 1.938c.5.17 1.04.25 1.58.22"/>
  <path fill="var(--sapContent_Illustrative_Color14)" d="M92.368 172.376c-.7.09-1.389.02-2.038-.16a5.414 5.414 0 0 1-1.81-.919 5.77 5.77 0 0 1-1.379-1.528 5.39 5.39 0 0 1-.75-1.978L67.913 61.771l-2.198-12.647c-.06-.32-.08-.64-.07-.95 0-.309.05-.609.12-.898.07-.29.17-.57.29-.83.12-.26.28-.51.45-.739l-2.789 3.627c-.17.23-.32.47-.45.729a4.33 4.33 0 0 0-.41 1.708c0 .31.01.62.07.94l2.17 12.507 18.159 104.86c.12.71.38 1.369.74 1.959a5.63 5.63 0 0 0 1.359 1.508c.54.41 1.139.719 1.788.909.65.19 1.33.25 2.02.16l162.975-20.59 4.687-2.258-164.455 20.61Z"/>
  <path fill="var(--sapContent_Illustrative_Color2)" d="M77.058 48.524c.54-.03 1.07.05 1.58.22.509.17.969.429 1.388.759.42.33.77.729 1.05 1.179.28.45.48.949.57 1.478.09.53.08 1.04-.04 1.509-.12.47-.33.899-.62 1.269-.29.37-.66.679-1.09.899-.43.22-.929.36-1.469.39a4.23 4.23 0 0 1-1.579-.22 4.46 4.46 0 0 1-1.389-.76 4.77 4.77 0 0 1-1.06-1.179 4.08 4.08 0 0 1-.569-1.488c-.09-.54-.07-1.05.04-1.519.11-.47.33-.909.62-1.269.29-.36.66-.669 1.1-.899.439-.23.928-.36 1.468-.38v.01Z"/>
  <path fill="var(--sapContent_Illustrative_Color20)" d="M134.911 153.244 123.678 94.82l3.612-.397 11.22 58.369c.205 1.081-.438 2.053-1.423 2.176-1.027.096-1.971-.67-2.176-1.738v.014Zm33.032-37.475 3.435-.397h.095l6.281 32.619c.205 1.067-.411 2.025-1.382 2.148-1.026.096-1.929-.67-2.135-1.724l-6.28-32.632-.014-.014Zm-7.827-50.052c.985-.082 1.943.684 2.148 1.751l6.198 32.209-3.53.383-6.198-32.222c-.205-1.067.41-2.025 1.395-2.121h-.013Zm38.639-3.941c.971-.082 1.902.685 2.107 1.738l11.028 57.221-3.461.41L197.4 63.87c-.205-1.054.397-1.998 1.369-2.093h-.014Zm-78.003 7.937c.985-.082 1.929.711 2.135 1.765l1.368 7.088-3.612.369-1.369-7.101c-.205-1.081.438-2.039 1.437-2.135h.041v.014Zm92.014 73.952-1.341-6.964 3.461-.425 1.341 6.965c.206 1.053-.41 2.011-1.368 2.134h-.055c-.93.082-1.847-.67-2.038-1.724v.014Z"/>
  <path fill="var(--sapContent_Illustrative_Color15)" d="M145.256 76.403c1.327-.123 2.6.917 2.874 2.34l2.025 10.577c.273 1.436-.561 2.695-1.875 2.832l-20.989 2.271-3.612.397-12.944 1.396c-1.368.123-2.654-.93-2.928-2.354l-2.052-10.686c-.274-1.45.588-2.736 1.929-2.873l12.944-1.34 3.612-.37 21.003-2.19h.013Z"/>
  <path fill="var(--sapContent_Illustrative_Color14)" d="M223.07 119.435c1.313-.11 2.517.903 2.777 2.285l2.012 10.398c.273 1.396-.534 2.668-1.793 2.819l-11.178 1.354-3.462.425-25.737 3.106c-1.341.123-2.572-.89-2.846-2.299l-2.025-10.522c-.273-1.423.548-2.695 1.847-2.846l25.751-3.01 3.462-.411 11.178-1.313.014.014Z"/>
  <path fill="var(--sapContent_Illustrative_Color13)" d="M167.934 99.775c1.354-.095 2.572.931 2.846 2.313l2.039 10.535c.26 1.382-.52 2.641-1.779 2.833h-.096l-3.434.396-31.06 3.558c-1.368.123-2.627-.917-2.9-2.34l-2.039-10.631c-.287-1.451.561-2.723 1.888-2.874l31.073-3.434 3.448-.383.014.027Zm30.097-3.369c1.313-.109 2.545.904 2.805 2.313l2.011 10.453c.274 1.41-.547 2.668-1.82 2.819l-20.264 2.326c-1.327.123-2.572-.903-2.846-2.312l-2.025-10.522c-.273-1.423.548-2.682 1.848-2.833l20.277-2.244h.014Z"/>
</svg>
