<svg id="tnt-Spot-UnsuccessfulAuth" xmlns="http://www.w3.org/2000/svg" width="128" height="128" fill="none" viewBox="0 0 128 128">
  <rect width="128" height="55" y="40" fill="var(--sapContent_Illustrative_Color20)" rx="8"/>
  <path fill="var(--sapContent_Illustrative_Color21)" fill-rule="evenodd" d="m39.9 92.272 58.706-8.529c.359-.065.372-.57.021-.657l-35.466-9.278a3.328 3.328 0 0 0-1.324-.06l-47.25 5.526c-.804.126-.96 1.215-.22 1.561L38.59 92.1c.406.19.865.251 1.31.169v.004Z" clip-rule="evenodd"/>
  <path fill="var(--sapContent_Illustrative_Color8)" d="m30.18 44.09 62.95-4.82 8.05 37.76c.08.39.09.77.03 1.13-.06.36-.19.68-.37.96-.18.28-.42.52-.7.69-.28.17-.61.29-.97.33l-58.03 5.93c-.39.04-.78 0-1.14-.12-.36-.12-.71-.3-1.02-.54a3.51 3.51 0 0 1-.79-.88c-.22-.34-.36-.72-.44-1.13l-7.57-39.31Z"/>
  <path fill="var(--sapContent_Illustrative_Color23)" d="M84.24 60.04c.17-.01.33 0 .49.06.16.06.31.14.44.24.13.1.25.24.34.39.09.15.16.32.2.49l.9 4.31a1.258 1.258 0 0 1-.16.95 1.09 1.09 0 0 1-.78.46l-36.31 3.38c-.17.02-.35 0-.51-.06-.16-.06-.32-.14-.46-.25-.14-.11-.26-.24-.35-.4a1.75 1.75 0 0 1-.2-.51l-.87-4.42a1.3 1.3 0 0 1 0-.52c.03-.16.1-.31.19-.44s.21-.24.35-.32c.14-.08.3-.13.47-.15l36.26-3.22v.01Z"/>
  <path fill="var(--sapContent_Illustrative_Color8)" d="m61.89 64.02.16 1.1.81-.49.41.77-.89.33.88.8-.6.54-.76-.96-.37 1.07-.82-.43.56-.92-1.01-.16.11-.81 1 .33-.3-1.09.82-.08Zm10.36-.93.16 1.09.8-.49.41.77-.89.32.87.8-.58.54-.77-.95-.35 1.05-.8-.42.54-.92-.99-.15.1-.81.98.33-.29-1.09.81-.07Z"/>
  <path fill="var(--sapContent_Illustrative_Color23)" d="M81.91 48.86c.17-.01.33 0 .49.06.16.06.31.14.44.25a1.592 1.592 0 0 1 .54.88l.9 4.28c.04.18.04.35.01.51-.03.16-.09.31-.17.43-.08.12-.19.23-.33.31-.14.08-.28.13-.45.14l-36.23 3.12c-.17.02-.35 0-.51-.06-.16-.06-.32-.14-.46-.25-.14-.11-.26-.24-.35-.4-.09-.16-.16-.32-.2-.5l-.86-4.38a1.3 1.3 0 0 1 0-.52 1.156 1.156 0 0 1 .53-.76c.13-.08.3-.13.47-.14l36.18-2.96v-.01Z"/>
  <path fill="var(--sapContent_Illustrative_Color8)" d="m59.23 52.76.15 1.07.78-.48.41.74-.88.31.86.77-.59.52-.73-.93-.35 1.03-.78-.42.53-.88-.98-.15.1-.79.97.33-.28-1.06.79-.06Zm7.86 10.8.15 1.09.81-.49.42.77-.9.32.88.8-.6.55-.76-.96-.36 1.06-.8-.43.54-.92-.99-.15.09-.82.99.33-.28-1.08.81-.07ZM54.18 53.18l.15 1.07.79-.48.4.75-.88.31.86.77-.59.52-.74-.93-.36 1.03-.79-.42.55-.88-.98-.16.1-.79.97.33-.28-1.06.8-.06Zm-5.09.42.15 1.08.79-.48.41.74-.89.31.86.78-.59.53-.74-.94-.36 1.03-.79-.42.55-.89-.98-.15.09-.79.98.33-.28-1.06.8-.07Zm7.58 10.89.15 1.11.81-.5.43.77-.92.33.89.81-.61.55-.76-.97-.37 1.07-.81-.43.56-.92-1.01-.16.1-.82 1 .33-.29-1.09.83-.08Zm-5.26.48.14 1.11.83-.5.42.77-.91.33.89.81-.62.55-.76-.97-.38 1.07-.81-.43.56-.92-1.01-.16.1-.82 1.01.33-.3-1.1.84-.07Z"/>
  <path fill="var(--sapContent_Illustrative_Color14)" d="M99.93 79.92c-.08.04-.16.07-.24.1-.08.03-.17.05-.26.07-.09.02-.18.03-.27.04l-58.03 5.93c-.39.04-.78 0-1.14-.12-.36-.12-.71-.3-1.02-.54a3.51 3.51 0 0 1-.79-.88c-.22-.34-.36-.72-.44-1.13l-7.56-39.3-.74-3.83c-.05-.24-.06-.48-.05-.71.01-.23.05-.45.12-.66.07-.21.16-.41.27-.59.11-.18.25-.34.4-.49l-1.39 1.28c-.15.14-.29.31-.4.49-.11.18-.2.38-.27.58-.07.21-.11.43-.12.66-.01.23 0 .47.05.71l.73 3.82 7.52 39.14c.08.41.23.79.44 1.12.21.34.48.63.78.87.3.24.65.42 1.01.54.36.12.75.16 1.14.12l57.82-5.94c.09 0 .18-.02.27-.04.09-.02.17-.04.26-.07.09-.03.16-.06.24-.1.08-.04.15-.08.22-.12l1.67-1.06c-.07.05-.15.09-.22.13v-.02Z"/>
  <path fill="var(--sapContent_Illustrative_Color13)" d="M89.16 33c.36-.03.72.03 1.06.14.34.11.66.3.95.53.29.23.54.52.74.84.2.32.35.68.43 1.06l.79 3.69-62.95 4.83-.74-3.83c-.08-.4-.07-.78 0-1.14.07-.36.22-.68.42-.96.2-.28.46-.51.77-.68.31-.17.66-.28 1.04-.31L89.16 33Z"/>
  <path fill="var(--sapContent_Illustrative_Color1)" d="m101.526 83.084-1.429.918s-.032.021-.046.028c-.014.007-.032.022-.046.029-.014.007-.032.02-.046.028-.014.007-.032.021-.046.028-.305.185-.617.351-.94.504a8.91 8.91 0 0 1-.992.393 9.846 9.846 0 0 1-2.11.46c-.18.022-.365.036-.545.047-.181.01-.37.014-.553.017-.185.004-.373 0-.56-.01a11.503 11.503 0 0 1-2.255-.34 12.428 12.428 0 0 1-3.247-1.344 13.503 13.503 0 0 1-2.861-2.253 14.033 14.033 0 0 1-2.18-2.934A13.014 13.014 0 0 1 82.893 77a12.922 12.922 0 0 1-.837-3.473 11.631 11.631 0 0 1 .167-3.43 10.466 10.466 0 0 1 1.117-3.03 9.632 9.632 0 0 1 1.946-2.442l1.262-1.137c-.39.35-.751.737-1.078 1.148a9.833 9.833 0 0 0-.882 1.318c-.259.464-.486.957-.674 1.467a11.075 11.075 0 0 0-.66 3.307 12.738 12.738 0 0 0 .344 3.519 13.847 13.847 0 0 0 2.341 4.975c.368.496.769.967 1.198 1.413.429.447.89.862 1.375 1.244a13.312 13.312 0 0 0 3.123 1.84 12.046 12.046 0 0 0 3.382.864c.192.018.38.032.57.043a10.087 10.087 0 0 0 1.678-.05c.365-.039.726-.1 1.084-.174a9.271 9.271 0 0 0 1.046-.287c.34-.113.674-.248 1-.396.326-.15.642-.32.946-.507.018-.01.032-.022.05-.029.018-.007.032-.02.046-.028.014-.007.032-.021.046-.028.014-.007.032-.022.046-.032"/>
  <path fill="var(--sapContent_Illustrative_Color23)" d="M100.895 63.863a14.145 14.145 0 0 1 3.123 3.533 13.781 13.781 0 0 1 1.762 4.327c.12.57.202 1.141.244 1.712a11.638 11.638 0 0 1-.223 3.338 10.904 10.904 0 0 1-.468 1.577 10.08 10.08 0 0 1-1.606 2.774c-.333.412-.705.79-1.106 1.138a9.552 9.552 0 0 1-4.282 2.133 9.855 9.855 0 0 1-1.085.174 9.628 9.628 0 0 1-.553.046c-.184.01-.372.014-.56.018a7.417 7.417 0 0 1-.564-.014 11.289 11.289 0 0 1-2.28-.347 12.707 12.707 0 0 1-3.282-1.365 13.44 13.44 0 0 1-1.514-1.035 13.857 13.857 0 0 1-2.573-2.657 13.818 13.818 0 0 1-2.34-4.976 12.626 12.626 0 0 1-.344-3.519 10.965 10.965 0 0 1 .67-3.334c.195-.521.426-1.017.691-1.492a9.631 9.631 0 0 1 2.017-2.491 9.28 9.28 0 0 1 1.284-.95 9.69 9.69 0 0 1 2.942-1.198 10.473 10.473 0 0 1 3.818-.149c.734.103 1.464.277 2.18.518.716.24 1.415.55 2.092.925s1.329.811 1.95 1.31l.007.004Z"/>
  <path fill="var(--sapContent_Illustrative_Color8)" d="M97.216 67.726a1.125 1.125 0 0 1 .436.057c.07.024.141.053.209.092a1.444 1.444 0 0 1 .51.485 1.29 1.29 0 0 1 .199.663 1.102 1.102 0 0 1-.078.425c-.029.064-.06.128-.1.188l-1.999 2.906 3.102 2.473a1.779 1.779 0 0 1 .17.163c.025.029.053.06.075.092.02.032.046.064.067.1.021.035.043.07.06.106.018.035.036.07.05.11.014.039.028.074.039.113.01.039.021.075.028.114.007.038.014.074.018.113.003.039.007.078.007.113v.114a.54.54 0 0 1-.014.11c-.007.035-.014.074-.025.11a.885.885 0 0 1-.035.102c-.015.032-.029.068-.047.1l-.053.091-.063.085a.51.51 0 0 1-.075.078.743.743 0 0 1-.17.124c-.028.018-.06.032-.092.047a.835.835 0 0 1-.1.039c-.035.01-.067.02-.102.028-.036.007-.071.014-.107.014-.035 0-.074.004-.11.004-.035 0-.074 0-.11-.007-.035-.008-.074-.011-.11-.018a1.277 1.277 0 0 1-.216-.067 1.462 1.462 0 0 1-.298-.18L95.17 74.33l-2.024 2.96c-.021.028-.043.06-.067.084l-.075.078c-.025.025-.053.046-.081.067a1.31 1.31 0 0 1-.089.06.893.893 0 0 1-.305.117.722.722 0 0 1-.11.018c-.039.004-.074.004-.113.004-.04 0-.075 0-.114-.007-.039-.007-.074-.01-.113-.018-.04-.007-.075-.018-.114-.028a.588.588 0 0 1-.11-.043l-.106-.05c-.035-.017-.067-.038-.103-.06-.035-.02-.067-.046-.099-.07-.032-.025-.064-.054-.092-.078a1.044 1.044 0 0 1-.085-.089 1.017 1.017 0 0 1-.078-.096l-.071-.103c-.021-.035-.039-.07-.06-.106-.022-.035-.036-.074-.05-.11a1.056 1.056 0 0 1-.039-.113c-.01-.039-.021-.078-.028-.117a1.342 1.342 0 0 1-.018-.117 1.148 1.148 0 0 1-.007-.117c0-.039 0-.078.003-.117a1.22 1.22 0 0 1 .015-.113.84.84 0 0 1 .028-.11.836.836 0 0 1 .138-.298l2.042-2.959-3.127-2.49a1.285 1.285 0 0 1-.173-.167 1.093 1.093 0 0 1-.142-.195c-.039-.071-.078-.138-.106-.213a1.316 1.316 0 0 1-.093-.46 1.16 1.16 0 0 1 .086-.433c.028-.067.063-.131.102-.188a.874.874 0 0 1 .142-.16.95.95 0 0 1 .578-.245c.07-.002.149-.002.223.005a.99.99 0 0 1 .224.05c.074.024.145.053.212.092a1.4 1.4 0 0 1 .199.134l3.116 2.488 2.003-2.892a.842.842 0 0 1 .301-.28 1.036 1.036 0 0 1 .4-.12h.026Z"/>
</svg>
