<svg id="tnt-Scene-Fingerprint" xmlns="http://www.w3.org/2000/svg" width="320" height="240" fill="none" viewBox="0 0 320 240">
  <path fill="var(--sapContent_Illustrative_Color20)" fill-rule="evenodd" d="M320 83v90c0 13.246-10.754 24-24 24H24c-13.246 0-24-10.754-24-24V83c0-13.246 10.754-24 24-24h272c13.246 0 24 10.754 24 24Z" clip-rule="evenodd"/>
  <path fill="var(--sapContent_Illustrative_Color21)" fill-rule="evenodd" d="M87.87 183.675c.14.74.4 1.42.78 2.03.37.6.85 1.12 1.39 1.53.54.41 1.15.72 1.8.89.65.17 1.32.22 2.01.11l27.781-4.57c.2.29.43.59.71.91.84.94 3.75 2.91 5.9 4.56 1.98 1.53 7.59 6.22 9.42 7.8h72.36l-8.62-7.31c-1.19-1.03-2.64-1.6-4.16-1.64l-2.75-.07-2.97-3.59c-1.33-2.07-3.08-3.7-5.15-4.8-.15-.08-.31-.15-.47-.23-.48-1.7-.63-3.36-.81-4.89-.26-2.1-.99-6.48-1.3-7.83-.32-1.35-1.51-5.55-1.92-6.93-.41-1.39-1.19-7.4-1.63-9.56-.38-1.82-1.66-3.85-2.59-5.14 0 .02.03.06.07.14l-.08-.11v-.02c-.03-.04-.04-.06-.07-.09-.14-.2-.28-.38-.39-.53-.89-1.17-3.92-3.77-4.66-4.46-.74-.69-2.66-1.83-3.48-2.49-.82-.66-2.54-1.23-4.16-.85-.59.14-1.11.46-1.55.81.01-.01.02-.03.04-.05-.78.62-1.28 1.35-1.28 1.35s-.23-.33-.41-.72c-.18-.39-1.2-2.88-1.82-4.24-.63-1.36-1.62-3.36-2.65-4.52-1.02-1.16-2.69-1.43-3.98-1.3-1.28.13-2.71 1.16-3.46 1.95-.28.29-.48.68-.63 1.1h-.01c-.09.26-.15.53-.21.8l-.03.17c-.02.1-.03.19-.04.28l-.03.24c0 .08-.02.16-.02.23s0 .13-.01.2c0 .07-.01.14-.01.2-.03.76-.25 2.36-.34 3.03-.03.18-.05.29-.05.29v.03s-.78-1.87-1.19-2.92c-.42-1.06-1.34-3.54-1.92-5.3-.44-1.34-1.79-2.47-3.02-3.02l-13.71-61.66c-.14-.6-.39-1.19-.72-1.71-.33-.52-.75-.99-1.22-1.39-.47-.39-1.01-.71-1.57-.92-.56-.21-1.14-.33-1.73-.32l-49.36.79c-.66 0-1.27.16-1.8.4-.53.25-.99.6-1.35 1.04-.18.21-.32.44-.45.69.02-.04.04-.09.07-.13.06-.11.14-.22.21-.33l-3.01 4.23c-.15.21-.27.43-.37.67-.1.24-.18.48-.24.75-.05.26-.08.53-.09.81 0 .28.02.57.07.86l20.93 114.71-.05.04Z" clip-rule="evenodd"/>
  <path fill="var(--sapContent_Illustrative_Color9)" d="M141.78 34.425c.64 0 1.28.12 1.89.35.6.23 1.19.58 1.71 1 .52.43.97.94 1.33 1.51.36.57.63 1.2.78 1.86l26.34 118.44c.17.75.2 1.51.1 2.2-.1.69-.32 1.35-.65 1.93-.33.57-.76 1.06-1.27 1.44-.52.38-1.12.64-1.79.74l-56.26 9.19a5.4 5.4 0 0 1-2.23-.12c-.72-.19-1.4-.54-1.99-1-.6-.47-1.13-1.04-1.55-1.71-.42-.66-.71-1.43-.86-2.25L83.76 40.515c-.13-.7-.11-1.39.05-2 .16-.62.44-1.18.83-1.66.4-.48.89-.86 1.47-1.13a4.78 4.78 0 0 1 1.96-.44l53.71-.86Z"/>
  <path fill="var(--sapContent_Illustrative_Color17)" d="m170.22 163.924-56.26 9.191c-.75.13-1.51.08-2.21-.12-.71-.2-1.4-.54-1.99-1a6.368 6.368 0 0 1-1.55-1.71 6.316 6.316 0 0 1-.86-2.25L83.76 40.515a5.34 5.34 0 0 1-.09-.95c0-.3.04-.61.1-.9.06-.29.15-.57.27-.82.06-.13.12-.26.19-.38s.15-.24.23-.36l-3.28 4.61c-.16.23-.3.47-.41.72-.11.26-.2.53-.26.81-.06.29-.09.58-.1.88 0 .31.02.62.08.93l22.78 124.819c.15.8.44 1.55.84 2.2.41.66.92 1.221 1.51 1.671.59.45 1.25.779 1.96.969.7.19 1.44.24 2.18.121l55.25-9.09 5.21-1.831v.01Z"/>
  <path fill="var(--sapContent_Illustrative_Color8)" d="M140.911 36.315c.51-.02 1.02.07 1.5.25s.94.45 1.35.77c.41.33.76.73 1.05 1.19.29.46.5.95.61 1.48l25.4 118.49c.12.58.14 1.14.05 1.68a4.06 4.06 0 0 1-.53 1.45c-.26.43-.6.79-1.01 1.07-.41.28-.88.47-1.41.54l-53.45 7.34c-.57.08-1.13.03-1.67-.13s-1.04-.42-1.5-.77c-.46-.36-.84-.78-1.16-1.29-.32-.51-.54-1.06-.65-1.67l-23.65-124.12c-.11-.56-.09-1.08.02-1.57s.33-.93.62-1.31.66-.68 1.11-.91c.45-.23.94-.36 1.49-.38l51.84-2.11h-.01Z"/>
  <path fill="var(--sapContent_Illustrative_Color9)" d="m104.16 37.305 25.19-.81.32 1.96c.06.39.01.76-.13 1.11-.14.35-.38.67-.68.94-.31.28-.69.52-1.14.69-.45.18-.94.3-1.49.35h-.32l-16.62.61c-.61.02-1.19-.04-1.74-.18-.55-.14-1.05-.34-1.49-.6-.44-.26-.81-.58-1.08-.93-.27-.36-.46-.74-.52-1.16l-.3-2v.03-.01Z"/>
  <path fill="var(--sapContent_Illustrative_Color28)" d="m113.341 66.055.39 1.88-6.47.49c-.32.02-.62.1-.87.23-.26.13-.49.29-.66.49-.18.2-.31.43-.39.67-.08.25-.09.52-.03.78l1.52 7.51-1.82.15-1.51-7.51a3.62 3.62 0 0 1 .02-1.54c.11-.48.34-.92.65-1.3s.69-.69 1.16-.93c.47-.24.98-.38 1.56-.43l6.47-.48-.02-.01Zm22.08-1.62a4.4 4.4 0 0 1 1.62.19c.52.16 1.01.41 1.45.72.44.32.81.7 1.11 1.14.3.44.52.93.62 1.46l1.62 7.61-1.74.14-1.62-7.62a2 2 0 0 0-.34-.74c-.16-.23-.38-.43-.62-.59-.25-.16-.53-.29-.81-.37-.29-.08-.61-.12-.91-.09l-6.98.52-.39-1.86 6.98-.51h.01Zm-24.141 35.9 1.46 7.26c.06.28.18.54.35.76.17.23.4.44.65.6.25.16.55.29.84.37.3.08.63.11.95.07l6.29-.63.4 1.92-6.3.65c-.58.06-1.15 0-1.7-.15s-1.05-.4-1.51-.71c-.46-.32-.85-.73-1.16-1.18-.31-.46-.54-.96-.65-1.52l-1.46-7.26 1.82-.17h.02v-.01Zm35.121-3.45 1.54 7.22c.11.54.11 1.06 0 1.55s-.31.93-.6 1.32-.66.73-1.1.96c-.44.24-.95.41-1.51.47l-7.12.72-.4-1.91 7.12-.71c.31-.03.6-.12.85-.25s.47-.31.63-.51c.17-.2.3-.44.36-.68.06-.25.08-.52.02-.78l-1.54-7.23 1.74-.17h.01Z"/>
  <path fill="var(--sapContent_Illustrative_Color30)" d="M121.21 37.725h.04c.11 0 .21.02.31.05.1.03.19.09.27.17.08.08.15.16.21.25s.09.2.11.32c.02.11 0 .21-.01.31a.62.62 0 0 1-.12.26.72.72 0 0 1-.2.19c-.08.05-.17.08-.27.09h-.04c-.11 0-.21 0-.31-.05a.77.77 0 0 1-.27-.17c-.08-.08-.15-.16-.21-.26a.87.87 0 0 1-.11-.32c-.02-.11-.01-.21 0-.31 0-.1.06-.18.12-.26.06-.08.12-.14.21-.19.09-.05.18-.08.28-.09h-.01v.01Zm-8.82.29 6.93-.23a.793.793 0 0 1 .54.2c.07.06.14.14.19.23.05.09.08.19.1.29v.06a.659.659 0 0 1-.11.53.614.614 0 0 1-.45.25l-6.93.24a.793.793 0 0 1-.54-.2c-.07-.06-.14-.15-.19-.23a.905.905 0 0 1-.1-.29v-.06a.659.659 0 0 1 .11-.53c.05-.07.12-.13.2-.17a.72.72 0 0 1 .26-.08l-.01-.01Z"/>
  <path fill="var(--sapContent_Illustrative_Color15)" d="M132.921 83.685h.08c.85 1.1 1.46 2.42 1.87 3.85.41 1.43.61 2.99.67 4.55.06 1.56-.04 3.13-.25 4.6-.21 1.47-.53 2.83-.91 3.99-.04.11-.11.35-.22.63-.11.29-.25.66-.4.99-.15.34-.32.67-.49.92-.17.25-.34.42-.49.44h-.07s-.02 0-.03-.01c0-.01-.02-.01-.03-.02-.03-.1-.07-.18-.1-.26-.03-.08-.07-.15-.1-.22a.794.794 0 0 1-.06-.22v-.28c.03-.28.13-.64.27-1.02s.31-.82.49-1.27c.18-.45.36-.9.52-1.36.16-.46.29-.88.37-1.27.13-.67.24-1.42.31-2.21s.12-1.64.13-2.48c.01-.84-.01-1.69-.07-2.5-.06-.81-.17-1.58-.31-2.26-.07-.32-.19-.67-.34-1.03-.15-.36-.33-.74-.5-1.1-.17-.36-.34-.7-.47-1-.13-.3-.23-.57-.26-.75a.646.646 0 0 1 0-.24c.02-.08.03-.15.07-.22.04-.07.08-.12.13-.16.05-.04.12-.07.19-.08v-.01Zm-7.73 4.42.93.18c.16.23.29.77.38 1.47.09.69.14 1.54.13 2.35-.01.81-.06 1.61-.19 2.2-.13.6-.33.99-.61 1.02h-.08c-.22-.18-.34-.41-.4-.68-.06-.28-.05-.58-.02-.9.03-.33.09-.66.14-.98.05-.33.09-.64.09-.92 0-.31 0-.62-.02-.93-.02-.32-.03-.63-.06-.93-.03-.31-.07-.63-.12-.94-.05-.32-.11-.63-.19-.93h.01l.01-.01Z"/>
  <path fill="var(--sapContent_Illustrative_Color15)" d="M124.4 81.875c.48-.04.961-.02 1.451.05.49.07.97.2 1.44.38s.94.42 1.39.71c.45.3.869.65 1.269 1.06 1.05 1.09 1.751 2.53 2.151 4.15.41 1.62.54 3.42.45 5.22-.09 1.8-.391 3.6-.821 5.22-.44 1.62-1.009 3.06-1.649 4.12-.05.08-.14.23-.25.41-.11.18-.261.4-.421.6-.16.21-.319.41-.489.57-.17.16-.321.26-.471.27h-.099s-.031 0-.05-.02c-.02-.01-.03-.02-.05-.03-.07-.34-.041-.65.029-.94.07-.29.21-.57.37-.82.16-.26.33-.521.5-.761a4.91 4.91 0 0 0 .441-.759c.43-.98.81-2.07 1.13-3.23.32-1.15.559-2.35.689-3.58.14-1.23.181-2.47.091-3.69a14.51 14.51 0 0 0-.7-3.55 6.39 6.39 0 0 0-1.031-1.89c-.44-.55-.96-1-1.53-1.37a5.81 5.81 0 0 0-1.83-.79 5.75 5.75 0 0 0-1.93-.17c-.25.02-.5.06-.74.12-.25.06-.48.13-.71.23-.24.1-.46.21-.679.34-.22.13-.431.28-.621.46-.08.07-.199.23-.339.43-.14.2-.3.44-.47.66-.17.23-.34.46-.5.63-.16.17-.3.28-.41.29h-.101c-.14-.21-.21-.43-.22-.64 0-.21.031-.42.111-.62s.189-.39.309-.57a4 4 0 0 1 .391-.49c.25-.29.529-.56.819-.78.3-.23.611-.43.941-.59.34-.16.68-.29 1.03-.39.36-.1.71-.16 1.09-.19v-.03l.019-.02Z"/>
  <path fill="var(--sapContent_Illustrative_Color15)" d="M129.351 92.305c.119.63.159 1.27.129 1.93-.03.66-.12 1.31-.25 1.96-.13.65-.32 1.28-.53 1.9-.21.62-.44 1.19-.68 1.73-.06.14-.249.5-.509.949-.26.46-.59 1.011-.93 1.561-.35.55-.72 1.07-1.07 1.47-.35.4-.67.67-.91.69h-.06s-.041-.001-.061-.011c-.019-.009-.039-.009-.049-.019a.219.219 0 0 0-.05-.03c-.08-.35-.041-.68.069-1 .11-.32.31-.63.53-.93.22-.3.48-.601.71-.891.24-.29.471-.59.641-.88.34-.589.649-1.21.909-1.85.27-.64.491-1.3.681-1.98.19-.67.329-1.37.439-2.069.11-.7.171-1.42.181-2.13l.81-.35v-.05Zm-4.731 5.54h.24c.23.19.201.56.021 1.01-.18.46-.521 1.01-.901 1.549-.39.54-.81 1.07-1.2 1.5-.39.43-.71.741-.88.851-.08.05-.16.1-.24.14-.08.039-.15.08-.22.11s-.14.049-.2.069c-.06.02-.12.03-.18.03a.454.454 0 0 1-.269-.04.229.229 0 0 1-.12-.189c-.01-.09 0-.2.059-.34.06-.14.141-.3.271-.49.13-.2.31-.41.5-.62.19-.21.41-.43.63-.63.22-.21.439-.431.649-.65.21-.22.401-.43.561-.64.1-.13.17-.29.25-.47.08-.18.139-.36.229-.54.09-.18.191-.34.321-.46a.86.86 0 0 1 .507-.228l-.028.038Zm.431-12.941c.2-.02.399-.01.599 0 .2 0 .411.06.601.12a3.855 3.855 0 0 1 1.21.61c.24.17.51.431.75.731.25.31.48.66.63.99.15.34.23.66.17.94-.06.28-.241.49-.601.59-.09-.4-.25-.78-.46-1.14a4.71 4.71 0 0 0-.739-.96 3.34 3.34 0 0 0-.931-.65c-.33-.15-.679-.22-1.029-.19-.1 0-.19.02-.29.05-.1.03-.19.06-.29.1-.1.04-.19.09-.28.15-.09.06-.181.13-.281.21-.39.34-.6.74-.7 1.21-.11.47-.109.97-.069 1.52.04.55.129 1.1.189 1.67.06.57.12 1.12.09 1.65-.05.74-.22 1.6-.5 2.46-.28.86-.649 1.76-1.109 2.59-.46.83-.99 1.61-1.58 2.25-.58.65-1.231 1.14-1.901 1.42-.04.02-.08.029-.12.049a.506.506 0 0 1-.119.04 1.6 1.6 0 0 0-.11.031c-.03.01-.07.009-.1.009-.14.01-.261.001-.351-.049a.32.32 0 0 1-.17-.21.67.67 0 0 1 .05-.35c.05-.13.161-.301.311-.471.61-.68 1.18-1.25 1.72-1.8.539-.55 1.02-1.039 1.44-1.609.42-.57.76-1.18 1.02-1.95.26-.76.43-1.68.48-2.82.02-.56-.031-1.13-.101-1.69s-.16-1.12-.2-1.66c-.04-.54-.03-1.06.08-1.55s.341-.94.731-1.35c.14-.14.289-.27.439-.38.15-.11.321-.21.481-.29a2.3 2.3 0 0 1 .519-.19c.18-.04.36-.08.54-.1h.011l-.03.02Zm12.759 5.272c.054 0 .107.005.161.058.06.05.12.11.17.21.05.1.109.21.149.35.04.14.08.301.11.491.11.69.15 1.43.14 2.18-.01.75-.06 1.52-.14 2.29-.08.77-.19 1.53-.299 2.27-.11.74-.231 1.46-.331 2.12l-1.07-.52c.28-.65.45-1.34.54-2.05.09-.71.111-1.46.101-2.2-.01-.74-.041-1.49-.051-2.2-.01-.71 0-1.41.07-2.06.02-.15.041-.28.071-.4.03-.12.059-.21.099-.28.04-.07.08-.13.13-.17.05-.04.1-.06.15-.07v-.02Z"/>
  <path fill="var(--sapContent_Illustrative_Color15)" d="M119.77 87.225c.12.02.211.07.281.15.07.08.119.18.149.29.03.11.06.23.07.34 0 .11.03.22.04.31.13.86.221 1.68.241 2.45.02.77-.011 1.52-.141 2.22-.13.7-.33 1.39-.63 2.04a8.44 8.44 0 0 1-1.269 1.93 9.31 9.31 0 0 1-1.41 1.34c-.27.2-.56.37-.85.5-.3.13-.621.22-.931.25h-.239c-.03-.11-.06-.2-.08-.28-.02-.08-.04-.16-.04-.23s0-.14.04-.21c.04-.07.079-.15.149-.23.1-.11.251-.23.431-.35.18-.12.4-.26.63-.4.23-.14.47-.29.68-.46.22-.17.44-.34.61-.53.35-.38.65-.77.92-1.19.27-.42.479-.85.649-1.31.17-.46.3-.94.38-1.44.08-.5.12-1.03.11-1.59 0-.14-.05-.42-.11-.77-.06-.35-.13-.78-.17-1.19-.04-.41-.05-.8 0-1.1.05-.3.181-.5.41-.52l.014-.02h.066Zm4.878 10.582.002-.002h.01l-.012.002Z"/>
  <path fill="var(--sapContent_Illustrative_Color15)" d="M125.101 78.775c.419.02.829.08 1.259.16a9.965 9.965 0 0 1 2.54.87c.22.11.47.23.71.37.24.14.491.3.691.47.21.17.4.38.53.6.13.22.209.47.199.74-.31-.03-.6-.11-.87-.24a7.31 7.31 0 0 1-.819-.45c-.28-.17-.55-.35-.83-.52-.29-.17-.58-.32-.91-.43-.31-.11-.601-.19-.911-.27a7.44 7.44 0 0 0-.899-.17c-.3-.04-.601-.06-.891-.07-.3 0-.59 0-.87.03-.82.07-1.61.26-2.34.57-.74.31-1.4.72-1.99 1.24a6.99 6.99 0 0 0-1.479 1.87c-.4.71-.67 1.54-.8 2.43-.11.71-.11 1.4-.07 2.05.04.65.129 1.3.179 1.94.05.64.06 1.28-.04 1.94-.1.65-.31 1.33-.71 2.04-.08.14-.249.36-.489.61s-.531.54-.841.8c-.32.27-.65.53-.979.71-.33.19-.64.33-.89.35h-.2c-.06 0-.12-.03-.17-.06a.532.532 0 0 1-.141-.12.788.788 0 0 1-.109-.18c-.06-.14.03-.31.21-.49s.44-.38.71-.58c.28-.2.589-.4.849-.58.27-.18.5-.36.63-.5.47-.53.761-1.02.941-1.51.18-.49.24-.97.24-1.46s-.061-1-.141-1.54a17.29 17.29 0 0 1-.179-1.74 8.78 8.78 0 0 1 .479-3.45 7.98 7.98 0 0 1 1.641-2.74 8.49 8.49 0 0 1 2.5-1.87 8.63 8.63 0 0 1 3.067-.83l-.038.03c.41-.03.811-.04 1.231-.02Z"/>
  <path fill="var(--sapContent_Illustrative_Color15)" d="M120.56 76.254c.117 0 .233.001.331.02.1.02.2.07.28.14.08.07.149.17.189.29.04.12.081.28.091.46-.95.26-1.86.66-2.67 1.18-.81.52-1.55 1.17-2.18 1.92-.63.74-1.15 1.6-1.55 2.51-.4.91-.65 1.92-.76 2.97-.06.59-.02 1.23.04 1.9.06.67.13 1.35.16 2 .03.66 0 1.28-.16 1.84s-.44 1.03-.91 1.4c-.09.07-.19.14-.3.21-.11.07-.231.13-.351.19-.12.06-.25.11-.37.15a1.66 1.66 0 0 1-.359.08c-.11 0-.22 0-.32-.02a.523.523 0 0 1-.27-.15.818.818 0 0 1-.19-.3 1.53 1.53 0 0 1-.08-.47c.77-.18 1.28-.42 1.62-.7.34-.29.49-.63.55-1.01.059-.39.01-.82-.05-1.31-.06-.49-.14-1.02-.16-1.6-.03-1.16.049-2.28.259-3.34.21-1.06.531-2.07.971-3.01.45-.93 1.01-1.79 1.7-2.54.68-.75 1.5-1.41 2.43-1.95.12-.07.26-.15.42-.24a7.052 7.052 0 0 1 1.099-.52c.19-.07.371-.11.54-.12v.02Zm-8.87 4.11h.04c.28.04.42.2.46.44.04.24 0 .54-.08.84-.08.31-.199.631-.309.9-.11.27-.19.49-.22.61-.05.25-.101.53-.141.81-.04.29-.089.6-.139.9-.05.31-.081.62-.111.9-.03.29-.049.581-.059.821 0 .08.03.36.07.72.04.37.09.84.12 1.31.03.47.03.92-.02 1.27s-.15.58-.34.6h-.101c-.02 0-.039 0-.059-.02l-.06-.03c-.18-.11-.31-.46-.41-.94-.1-.49-.15-1.09-.17-1.73-.02-.64-.03-1.27-.02-1.82 0-.55.029-.98.049-1.21.02-.17.08-.53.17-.96.09-.44.211-.96.351-1.46.14-.5.3-.98.46-1.34.16-.36.34-.6.51-.62l.009.01Zm13.931-4.559c.25-.02.59.02.96.11.38.09.78.2 1.18.34.4.14.78.28 1.12.42.34.14.62.26.78.34.76.37 1.54.85 2.29 1.43a17.232 17.232 0 0 1 3.96 4.26c.52.8.93 1.63 1.21 2.46.03.09.1.33.18.64.08.31.159.66.219 1.03s.091.7.071.97c-.02.27-.1.44-.26.46h-.13c-.03 0-.05-.02-.07-.03-.02 0-.05-.03-.08-.04-.33-1.27-.76-2.47-1.31-3.58a16.247 16.247 0 0 0-1.971-3.07 13.37 13.37 0 0 0-2.649-2.44c-.99-.69-2.1-1.28-3.32-1.71-.19-.07-.48-.11-.79-.17-.32-.06-.66-.11-.97-.19-.31-.08-.581-.2-.731-.37-.159-.17-.199-.39-.069-.67.02-.02.04-.03.069-.05.03-.02.061-.03.09-.04.03 0 .071-.02.101-.03.03 0 .08 0 .12-.02v-.05Z"/>
  <path fill="var(--sapContent_Illustrative_Color15)" d="m122.391 72.625.02.04c2.01-.16 4.07.12 6.04.76 1.97.65 3.85 1.66 5.529 2.98a18.407 18.407 0 0 1 4.301 4.82c1.15 1.88 1.96 4.01 2.32 6.33-.04.04-.081.07-.121.1a.628.628 0 0 1-.109.07c-.04.02-.071.03-.101.04-.029 0-.06.02-.089.02-.15 0-.27-.07-.36-.22a2.27 2.27 0 0 1-.22-.58c-.06-.23-.11-.48-.15-.7a3.5 3.5 0 0 0-.15-.6 21.3 21.3 0 0 0-2.81-5.24c-1.13-1.53-2.43-2.82-3.88-3.85a15.214 15.214 0 0 0-4.73-2.28c-1.7-.48-3.5-.66-5.38-.52-.13 0-.26.02-.39.04s-.26.03-.39.04c-.13 0-.26.03-.39.05l-.4.06c-.65.11-1.23.3-1.77.54-.54.24-1.05.52-1.54.8-.49.29-.98.6-1.49.86-.51.27-1.031.52-1.611.7-.179-.14-.189-.33-.099-.54.09-.21.28-.43.5-.65.22-.22.48-.42.7-.59.23-.17.419-.3.52-.36.49-.32.98-.61 1.49-.85a12.986 12.986 0 0 1 3.15-1.07c.54-.11 1.08-.18 1.63-.23l-.02.03Zm-2.687 14.6h-.033l.04-.01-.007.01Zm4.217-8.46h-.013.013Z"/>
  <path fill="var(--sapContent_Illustrative_Color15)" d="m144.628 80.905-39.87 4.27-.213-1.989 39.87-4.269.213 1.988Z"/>
  <path fill="var(--sapContent_Illustrative_Color28)" d="M157.881 184.685c1.34 1.18 3.41 2.93 4.96 3.17 1.56.24 6.08 2.28 8.03 3.39 1.08.62 4.069 2.914 6.879 5.704l54.461.006c-4.9-5.46-9.14-10.24-10.48-11.91-3.75-4.67-5.27-7.51-6.61-9.5-1.33-1.99-3.31-5.75-4.46-8.32-1.15-2.57-1.35-5.11-1.63-7.39-.28-2.28-1.07-7.05-1.42-8.52-.35-1.47-1.65-6.03-2.08-7.54-.44-1.51-1.28-8.05-1.77-10.4-.5-2.35-2.37-5-3.33-6.27-.96-1.27-4.27-4.1-5.07-4.85-.8-.75-2.9-1.99-3.79-2.71-.89-.71-2.76-1.34-4.53-.92-1.77.43-3.04 2.31-3.04 2.31s-.25-.36-.45-.78c-.2-.43-1.3-3.14-1.98-4.61-.68-1.48-1.77-3.65-2.88-4.92-1.11-1.26-2.93-1.56-4.33-1.42-1.39.14-2.95 1.26-3.76 2.12-.81.86-1.05 2.49-1.09 3.55-.04 1.05-.42 3.61-.42 3.61s-.84-2.03-1.3-3.18c-.46-1.15-1.46-3.85-2.09-5.77-.64-1.92-2.98-3.45-4.5-3.65-1.52-.2-3.22.18-4.8 1.19-1.6 1-2.34 3.23-2.44 4.27-.09 1.03.91 3.7.91 3.7s-.12.42-.12.75.03 2.36.28 3.64c.25 1.28 1.1 2.8 1.1 2.8l.16 1.89c-.56 0-3.36-.87-4.18-1.47-.81-.58-2.52-3.33-3.59-5.85-1.07-2.52-3.02-7.58-3.9-9.38-.88-1.8-4.18-7.91-4.7-9.24-.53-1.33-2.6-7.06-3.11-8.61-.51-1.56-2.39-7.06-2.99-8.63-.6-1.57-3.09-4.97-7.13-3.58-4.04 1.39-3.92 5.7-3.42 8.58.51 2.89 1.58 7.4 2.66 10.18 1.07 2.78 3.52 10.82 4.42 13.4.89 2.58 3.77 7.74 5.36 10.97 1.59 3.21 3.85 7.46 4.54 9.26.68 1.8 2.64 8.21 2.88 8.77.24.56 1.14 2.49 1.61 3.46.47.97.67 2.9.74 4.07.08 1.17.1 7.75.1 7.75s-.39-.06-.8-.16c-.42-.1-1.3-.16-1.3-.16.02-.4-.22-1.09-.52-1.52-.3-.43-1.9-1.77-3.07-2.79-1.16-1.02-2.6-1.77-2.6-1.77s-.11-1.27-.18-1.93c-.08-.65-.85-2.16-1.39-3.1-.54-.93-1.69-2.5-2.55-3.52-.85-1.01-2.78-2.66-4.89-3.87s-3.57-1.17-4.72-1.04c-1.15.13-2.36.99-2.74 1.5-.38.51-.34 1.2-.34 1.2-.12.18.02 1.1.58 2.2.57 1.1 2.38 4.47 2.65 4.93.28.46.3.87.33 1.43.03.55.15 1.48.31 2.23.16.76.42 4.5.38 5.06-.03.57.12 1.1.31 1.31.19.2.23.84.4 1.15.17.31 1.4 1.83 1.96 2.34.57.52 1.18.77 1.38.83.2.06.72.76 1.36 1.17.64.42 4.65 3.88 6.88 6.31 2.22 2.43 2.27 3.56 3.78 5.25.91 1.02 4.08 3.17 6.42 4.96 2.34 1.8 9.34 7.67 10.68 8.85l-.02.02Z"/>
  <path fill="var(--sapContent_Illustrative_Color16)" d="M145.18 143.545c-.11-.6-.26-1.17-.46-1.58-.47-.97-1.37-2.91-1.61-3.47-.24-.57-2.19-6.97-2.88-8.77-.68-1.8-2.95-6.04-4.54-9.26-.96-1.96-2.4-4.61-3.58-6.99.94 1.62 1.88 3.24 2.32 4.02 1.06 1.88 5.28 9.47 6.58 13.04 1.3 3.56 2.77 8.15 3.44 9.81.65 1.62.7 3.15.7 3.21l.03-.01Z"/>
  <path fill="var(--sapContent_Illustrative_Color30)" d="M124.43 134.695c-3.55.32-3.96 2.34-3.98 2.43-.04-.25-.03-.42.02-.49 0 0 .18-.71.91-1.2 1.14-.76 2.83-.8 3.05-.75v.01Z"/>
  <path fill="var(--sapContent_Illustrative_Color30)" d="M125.831 140.995v.07c-.03.66-.65 1.36-.95 1.64-.3.28-1.11 1.18-1.11 1.18a.746.746 0 0 0-.07-.12c-.27-.47-2.08-3.83-2.65-4.93-.35-.68-.54-1.3-.6-1.72.02-.08.43-2.11 3.98-2.43.22.06.54 1.57.76 2.45.22.86.62 3.1.63 3.85l.01.01Z"/>
  <path fill="var(--sapContent_Illustrative_Color16)" d="M177.757 196.945c-2.84-2.829-5.796-5.096-6.896-5.716-1.95-1.1-6.47-3.149-8.03-3.379-1.55-.24-3.62-1.989-4.96-3.169-1.34-1.189-8.34-7.057-10.68-8.857-2.34-1.799-5.51-3.938-6.42-4.958-1.51-1.689-1.56-2.819-3.79-5.248-2.23-2.429-6.241-5.898-6.881-6.308-.64-.42-1.16-1.11-1.36-1.17-.2-.06-.81-.32-1.38-.829-.56-.52-1.8-2.03-1.96-2.34-.17-.31-.21-.949-.4-1.149-.19-.21-.34-.75-.31-1.31.04-.57-.22-4.308-.38-5.058s-.28-1.679-.31-2.229c-.02-.32-.04-.6-.1-.85.05.12.44 1.17.67 2.749.25 1.679.46 4.938.56 5.348.1.41.83-.19.83-.19-.49.96-.37 2.34.05 2.899.41.55 1.72 1.96 2.53 2.07.8.11 1.51-.28 1.51-.28-.37.659-.23 1.389.03 1.589.26.2 4.091 3.609 5.931 5.218 1.84 1.61 3.21 4.059 4.17 5.498.95 1.45 3.15 2.87 6.79 5.739 1.42 1.119 8.28 6.457 11.72 9.206 3.44 2.739 4 2.39 6.2 2.959 2.2.57 7.05 2.899 10.83 6.308 1.13 1.02 2.47 1.95 3.61 3.469"/>
  <path fill="var(--sapContent_Illustrative_Color16)" d="M186.2 196.944c-3.11-3.52-5.65-6.36-6.78-7.54l.04-.04c-4.23-4.39-10.02-7.92-14.29-10.42s-10.89-5.49-12.88-7.34c-1.99-1.86-4.74-8.61-5.18-11.85-.43-3.25-.43-10.19-.45-13.44-.01-3.25-1.85-7.19-2.52-9.18-.68-1.99-2.81-8.04-3.75-9.83-.93-1.8-3.23-5.58-4.24-7.79-1.01-2.21-.39-2.83-.39-2.83-.72-.14-1.62-.8-2.54-2.04-2.03-2.74-3.36-6.65-3.32-6.52.18.55.34 1.02.46 1.38.17.49.41 1.06.69 1.7.02.05.05.11.07.16.1.22.2.44.31.67 0 .02.02.04.03.06.07.15.15.31.22.47.1.21.21.43.32.64.01.02.02.05.04.07a2.256 2.256 0 0 0 .13.25c.93 1.61 1.87 3.21 2.3 3.99 1.06 1.88 5.28 9.47 6.58 13.04 1.3 3.56 2.77 8.15 3.44 9.81.62 1.55.69 3.02.7 3.2v.02c.06.33.11.65.15.98.01.11.03.22.04.33 0 .06 0 .12.02.19 0 .08.02.17.02.25 0 .05 0 .1.01.15.02.22.03.42.04.6v.78c.05 2.11.07 6.96.07 6.96s-.39-.07-.8-.17c-.42-.09-1.3-.16-1.3-.16.02-.39-.22-1.09-.52-1.52-.3-.43-1.91-1.76-3.07-2.78-1.16-1.02-2.6-1.78-2.6-1.78s-.11-1.27-.18-1.93c0-.07-.02-.15-.05-.24-.02-.09-.06-.19-.09-.3-.04-.11-.08-.22-.13-.34l-.06-.15s-.01-.02-.01-.03l-.08-.18c-.03-.07-.06-.14-.1-.2a6.98 6.98 0 0 0-.19-.39c-.03-.07-.07-.13-.1-.2-.2-.39-.41-.76-.59-1.08-.03-.06-.07-.12-.11-.18-.57-.94-1.64-2.38-2.44-3.33-.03-.04-.06-.07-.09-.11-.07-.08-.14-.15-.21-.23l-.12-.12c2.16 3.18 2.94 4.76 3.5 6.28.58 1.52-.52 3.29-.52 3.29.53 0 1.17 0 1.82.36.65.36 3.96 3.39 4.62 4.17.66.76-.71 2.33-.71 2.33.9-.19 2.07-.11 2.52.47.45.58.45 2.24.48 2.88.03.64-.48 3.56-1.28 3.55-.81 0-6.31-5.23-8.36-7.35-2.04-2.13-2.34-3.46-2.34-3.46-.53.31-2.22-.32-2.68-.78-.46-.48-.45-1.43-.45-1.43-.61.09-1.29-.26-1.42-.64-.13-.38-.45-1.48-.71-3.43-.17-1.31-.9-2.79-1.38-3.62v.07c-.03.67-.66 1.36-.95 1.64-.29.27-1.06 1.12-1.11 1.18.06.11.1.22.13.33l.03.1v.02c.05.12.44 1.17.68 2.75.25 1.68.46 4.94.56 5.35.1.41.83-.19.83-.19-.49.96-.37 2.35.05 2.9.42.55 1.72 1.97 2.53 2.07.8.11 1.51-.28 1.51-.28-.37.66-.23 1.39.03 1.59.26.2 4.09 3.61 5.92 5.22 1.83 1.61 3.22 4.06 4.17 5.5.95 1.45 3.15 2.87 6.79 5.74 1.42 1.12 8.28 6.46 11.72 9.21 3.44 2.74 4.01 2.39 6.2 2.96 2.2.57 7.05 2.9 10.83 6.31 1.3 1.09 2.59 2.09 3.63 3.46m-33.79-42.7c0-.34.02-.48.02-.48s-.01.13-.02.48c0 .17-.01.4-.02.68 0-.29 0-.51.02-.68Zm-5.32-4.36s-.08-.07-.12-.1c.04.03.08.07.12.1Zm-3.17-4.03c-.02.6-.11 1.45-.38 1.7.27-.26.36-1.1.38-1.7Zm.66 2.02c.02.01.05.04.07.05a.304.304 0 0 0-.07-.05Zm3.11 2.53c.84.74 1.76 1.49 1.97 1.79.09.12.18.34.24.6-.06-.26-.15-.47-.24-.6-.21-.29-1.11-1.05-1.97-1.79Zm2.25 2.92c0 .28-.08.56-.26.76.18-.22.25-.49.26-.76Zm.95.49c-.27 0-.52.07-.73.13.21-.06.47-.12.73-.13.21 0 .39.06.55.15-.16-.09-.34-.16-.55-.15Zm1.12 1.02c0-.09-.04-.16-.07-.24.03.08.06.15.07.24 0 .04 0 .09.01.17 0-.07 0-.13-.01-.17Zm.02.42c0 .21.02.48.03.78.03.91.08 2.2.17 3.43-.09-1.23-.13-2.51-.17-3.43 0-.31-.02-.58-.03-.78Zm.36 5.95c-.06-.51-.11-1.06-.16-1.65.04.58.09 1.14.16 1.65Zm.25 1.38s-.09-1.58-.16-3.25c.07 1.68.16 3.25.16 3.25Z"/>
  <path fill="var(--sapContent_Illustrative_Color30)" d="M132.181 84.774c-.2.14-1.87.57-2.49.7-1.19.27-1.93.26-2.77.3-.83.04-1.14-.44-1.37-.75-.23-.33-1.56-3.63-1.6-3.88 0 0 .93-2.44 3.33-3.19 2.37-.73 4.51 1.31 4.57 1.37.17.61.6 2.89.68 3.63.09.81-.15 1.68-.35 1.82Z"/>
  <path fill="var(--sapContent_Illustrative_Color16)" d="M131.861 79.315c-.06-.05-2.19-2.1-4.57-1.37-2.4.74-3.33 3.19-3.33 3.19-.09-.52 1.17-3.23 3.64-3.54 2.47-.32 4.09 1.28 4.22 1.61 0 .02.02.06.04.12v-.01Zm24.28 42.91c-.05-.09-.86-1.56-1.1-2.8-.25-1.28-.28-3.31-.28-3.64 0-.33.12-.75.12-.75s.44 1.56.69 3.15c.25 1.55.56 3.94.57 4.06v-.02Zm14.84-2.12c-.02-.75-.12-2.96-.12-2.96s-.07-1.85-.09-2.54c-.02-.69-.1-2.93-.86-2.09-.27.77-.37 1.65-.4 2.3-.03.82-.27 2.57-.37 3.29-.03.2-.05.32-.05.32s.86 1.93 1.05 2.3c.19.36 1.09 1.69 1.16 1.79-.02-.1-.32-1.69-.34-2.42h.01l.01.01Zm15.9 5.04c-.08-.11-.72-.98-1.36-1.82-.66-.89-1.52-2.42-1.52-2.42s.54-.79 1.39-1.47c-.82.82-.58 2.03-.03 3.03.52.94 1.42 2.53 1.51 2.68h.01Zm-30.39.6s-3.44-1.06-4.47-1.67c-1.03-.6-2.02-2.48-2.94-3.88-.91-1.4-1.07-2.52-2.03-4.69-.96-2.17-2.35-3.14-2.35-3.14s.25-2.27-.51-3.74c-.76-1.47-2.07-3.07-2.07-3.07.36-1.19-3.01-7.35-4.02-10.72-.79-2.64-1.54-2.39-1.54-2.39.22-.51.39-.47-.28-2.72s-3.27-10.23-3.27-10.23c.39.52.66 1.03.8 1.43.6 1.58 2.48 7.08 2.99 8.63.51 1.56 2.58 7.28 3.11 8.61.53 1.33 3.82 7.44 4.7 9.24.88 1.8 2.83 6.86 3.9 9.38 1.07 2.52 2.78 5.27 3.59 5.86.81.6 3.62 1.48 4.18 1.47l.19 1.64.02-.01Zm43.789 3.18s-.53 2.46-2.91 2.46-5.09-1.87-5.09-1.87 3.07.54 4.92.4c1.85-.15 3.09-.99 3.09-.99h-.01Zm-13.319.689s-.29 4.81-2.99 4.75c-2.7-.06-6.37-3.95-6.37-3.95 7.91 3.05 9.36-.8 9.36-.8Zm-16.48 7.841c-2.73.65-7.94-3.29-8.03-3.38.13.05 5.15 1.88 7.98.98 2.87-.9 3.11-3.56 3.11-3.56s-.32 5.31-3.06 5.96Zm-13.5 7.02c-3.09.42-6-1.85-6.11-1.93.11.04 3.9 1.39 5.59.25 1.72-1.16 2.01-4.04 2.01-4.04s1.63 5.31-1.5 5.74l.01-.02Zm19.26 14.45c-1.6-1.2-3.19-2.4-4.68-3.73-2.45-2.2-4.65-4.8-7.63-6.19 1.65 2.11 4.14 3.35 6.47 4.68 2.78 1.58 5.44 3.38 7.95 5.35 1.66 1.31 6.16 4.17 6.46 6.31-2.99-1.89-5.76-4.29-8.58-6.42h.01Zm8.439-4.81c-.61-1.91-1.21-3.8-1.65-5.76-.71-3.22-1-6.61-2.63-9.47.12 2.68 1.43 5.14 2.56 7.57 1.35 2.9 2.48 5.89 3.37 8.97.6 2.02 2.61 6.97 1.61 8.88-1.34-3.27-2.2-6.83-3.28-10.2h.01l.01.01Z"/>
  <path fill="var(--sapContent_Illustrative_Color16)" d="M231.08 196.944c-5.44-6.06-10.01-11.21-10.66-12.08-1.7-2.31-4.41-6.16-6.42-9.42-2.01-3.24-3.88-6.32-4.72-9.48-.84-3.16-1.5-8.4-1.68-10.28l-1.24-6.4c-.39-1.09-1.24-4.4-1.61-6.32-.37-1.93-.79-5.43-1.1-7.46-.31-2.03-.76-3.82-1.17-4.68-.4-.83-1.48-2.91-1.55-3.04-.19-.26-.36-.49-.51-.68-.24-.31-.62-.71-1.06-1.16 2.33 3.24 2.95 5.55 3.68 8.9.73 3.34 1.24 11.09 2.66 14.94 1.42 3.85 1.45 14.83 3.43 19.38 1.98 4.56 6.9 12.49 11.77 17.99 1.48 1.68 4.81 5.42 8.7 9.8h1.47l.01-.01Z"/>
  <path fill="var(--sapContent_Illustrative_Color16)" d="M232.511 196.945c-5.07-5.47-9.44-10.26-10.77-11.92-3.74-4.68-5.27-7.51-6.6-9.5-1.33-1.98-3.31-5.75-4.46-8.32-1.15-2.57-1.35-5.11-1.63-7.39-.28-2.28-1.07-7.05-1.42-8.52-.35-1.47-1.65-6.03-2.08-7.54-.45-1.51-1.29-8.05-1.78-10.4-.42-1.98-1.81-4.19-2.82-5.59.06.13 1.15 2.2 1.55 3.04.41.86.86 2.65 1.17 4.68.31 2.03.73 5.55 1.1 7.46.37 1.93 1.21 5.23 1.61 6.32.4 1.09 1.06 4.52 1.24 6.4.18 1.89.83 7.13 1.68 10.28.84 3.16 2.71 6.22 4.72 9.48 2.02 3.26 4.73 7.11 6.42 9.42.63.86 5.18 6 10.63 12.09h1.43l.01.01Z"/>
  <path fill="var(--sapContent_Illustrative_Color8)" d="m237.831 196.944-21.77-26.34c-1.45-2.25-3.35-4.03-5.61-5.22-2.25-1.19-4.8-1.79-7.5-1.73-2.7.06-5.48.75-8.18 2.05-2.7 1.3-5.26 3.17-7.52 5.49-3.61 3.71-6.4 8.34-8.04 13.3-1.38 4.19-1.87 8.47-1.46 12.46h60.08v-.01Z"/>
  <path fill="var(--sapContent_Illustrative_Color8)" d="m237.831 196.944-21.77-26.34c-1.45-2.25-3.35-4.03-5.61-5.22-2.25-1.19-4.8-1.79-7.5-1.73-2.7.06-5.48.75-8.18 2.05-2.7 1.3-5.26 3.17-7.52 5.49-3.61 3.71-6.4 8.34-8.04 13.3-1.38 4.19-1.87 8.47-1.46 12.46h60.08v-.01Z"/>
  <path fill="var(--sapContent_Illustrative_Color13)" fill-rule="evenodd" d="m251.081 197-24.275-20.634c-1.301-1.121-2.871-1.741-4.531-1.791l-3.621-.09c-12.852-.341-27.401 8.996-34.272 22.476l66.699.039Z" clip-rule="evenodd"/>
</svg>
