<svg id="tnt-Dialog-Tools" xmlns="http://www.w3.org/2000/svg" width="160" height="160" fill="none" viewBox="0 0 160 160">
  <rect width="160" height="69" y="50" fill="var(--sapContent_Illustrative_Color20)" rx="12"/>
  <path fill="var(--sapContent_Illustrative_Color21)" d="M98.571 87.273h-.006v.006l.006-.006Z"/>
  <path fill="var(--sapContent_Illustrative_Color21)" d="m83.017 96.77 14.153-8.618.796-.486c.18-.076.576-.368.6-.382l-.048.014c.052-.038.113-.075.165-.113l.038-.028c.085-.047.17-.09.25-.142l4.544-2.828c-.037.014-.085.028-.122.042a1.99 1.99 0 0 0 .377-.203c1.108-.825-.604-2.248-3.828-3.177-3.22-.929-6.737-1.014-7.85-.189-.014.01-.023.024-.038.033l-4.62 2.933c-.052.033-.09.06-.132.094l-16.086 9.792-31.662-8.764-.679.31 18.396 16.94-2.546 1.551-3.937 5.87s-.014.018-.042.061l-1.216 1.82-.58.872 1.791-.538.642-.193 2.8-.849 9.34-2.838 8.023 7.388.915-.132 39.022-10.363-28.462-7.873-.004-.004Zm-24.883-2.758 8.462 2.31h-.01l-8.438-2.301-.01-.01h-.004Zm.726.669 7.203 1.961-3.05 1.858-4.153-3.819Zm10.848 9.981 6.044-3.466 2.168-1.32 17.35 4.729-20.009 5.167-5.548-5.106-.005-.004Zm5.61 5.157 20.909-5.398h.019-.01l-17.797-4.86h.01l17.81 4.855-20.936 5.408-.005-.005Z"/>
  <path fill="var(--sapContent_Illustrative_Color8)" d="M77.436 95.199h-.005s0-.01-.01-.01h.015v.01Z"/>
  <path fill="var(--sapContent_Illustrative_Color8)" d="M77.436 95.198h-.005s0-.005-.01-.005c0 0 .01.005.015.005Z"/>
  <path fill="var(--sapContent_Illustrative_Color31)" d="M67.629 86.84s7.076 8.472 9.801 8.373l-12.63 7.765-2.338-2.509 4.479-13.153.688-.476Z"/>
  <path fill="var(--sapContent_Illustrative_Color8)" d="M70.915 92.748c-.717-.57-1.523-.698-2.212-.67h.26c.132.01.269.014.396.043h.01c.094.014.183.033.277.052.198.047.396.113.6.202.084.038.16.071.244.118.137.08.279.175.406.278.702.561 1.028 1.297 1.164 1.966-.127-.678-.434-1.428-1.145-1.99Zm-7.124 8.92c-.73-.585-1.108-1.41-1.028-2.094l-1.32 3.871-.688 2.032 1.83-1.132 3.422-2.121c-.656.198-1.504.014-2.216-.547v-.009Zm12.328-6.879a3.941 3.941 0 0 0-1.16.127c-.014 0-.018 0-.037.01-.306.07-.627.189-.98.353a5.511 5.511 0 0 1 2.144-.443l.01-.01c.67.043 1.117.25 1.296.355l.057-.038c-.16-.094-.627-.311-1.33-.354Zm-8.849-2.8a.85.85 0 0 0-.075.198c.047-.1.085-.194.118-.293-.01.033-.029.062-.043.095Zm-.179.443.019-.014v-.019l-.019.033Zm.472-1.199c-.08.203-.142.434-.25.66.542-1.4.56-2.607.443-3.441-.014-.09-.033-.165-.043-.222-.018-.052-.023-.094-.033-.118v-.018a2.613 2.613 0 0 0-.127-.359c0-.01 0-.028-.014-.042a3.271 3.271 0 0 0-.415-.646c.109.123.283.32.439.608.377.674.683 1.839 0 3.578Z"/>
  <path fill="var(--sapContent_Illustrative_Color14)" d="m107.872 88.112-.972.392-37.937-21.876.778-.532 38.121 22.016h.01Z"/>
  <path fill="var(--sapContent_Illustrative_Color14)" d="m86.934 99.55-.886.34 20.847-11.385.971-.392L86.93 99.551h.004Z"/>
  <path fill="var(--sapContent_Illustrative_Color26)" d="m72.782 95.966-.16.104c-.057.042-.114.08-.18.127a8.854 8.854 0 0 1-.415.255l35.896-44.618.104.033c.099.028.193.052.297.075.198.048.41.09.618.118l.311.043h.061c.08.01.156.014.236.014.316.028.618.028.891.014L76.035 94.906l-.024.037-.01.01c-.546 0-1.3.094-2.144.443-.35.146-.717.34-1.09.575h.015v-.005Z"/>
  <path fill="var(--sapContent_Illustrative_Color29)" d="M102.747 47.62a1.246 1.246 0 0 1-.071-.16l-.009-.015-.01-.014s-.009-.019-.009-.028c-.014-.005-.014-.019-.014-.019l-.01-.028s-.014-.033-.023-.047c-.01-.014-.01-.029-.01-.029l-.014-.028-.009-.028v-.014l-.01-.01v-.01h-.009l-.014-.032-.019-.043v-.01l-.009-.018-.015-.028v-.01l-.014-.018v-.015h-.009v-.01l-.014-.032v-.014l-.01-.014-.014-.029v-.042s0-.024-.014-.038c-.009-.047-.028-.085-.042-.132v-.01c-.01-.056-.033-.108-.048-.16v-.032l-.042-.118c0-.014-.014-.057-.014-.057v-.019l-.01-.028v-.019s-.014-.038-.014-.052c0-.028-.014-.08-.014-.08v-.014a3.86 3.86 0 0 1-.127-.679 5.225 5.225 0 0 1-.043-.66c.01-.65.132-1.273.406-1.843l-.09.108-35.33 43.91-4.286 12.603-.047.132-1.325 3.903-.631 1.872 1.834-1.127 3.507-2.154v-.019c-.033.019-.061.023-.094.033-.646.202-1.504.019-2.216-.547a2.827 2.827 0 0 1-.947-1.363l4.469-12.757c.08.113.061.094.146.269 0 .014 0 .033.014.047.024.052.047.113.066.174.278.707.453 1.806-.056 3.324-.09.283-.222.613-.34.929l-.085.226 1.334-1.556 34.416-43.16.014-.02c-.023-.047-.056-.099-.075-.15v.009Z"/>
  <path fill="var(--sapContent_Illustrative_Color15)" d="M72.032 96.453a4.726 4.726 0 0 0-.033-1.49c0-.037-.014-.07-.014-.108-.141-.67-.467-1.4-1.17-1.966-.131-.104-.273-.188-.41-.278a4.028 4.028 0 0 0-.244-.123 2.773 2.773 0 0 0-.594-.202 4.553 4.553 0 0 0-.279-.052h-.01a2.874 2.874 0 0 0-.395-.038h-.01c-.084 0-.17-.01-.25 0h-.028c-.06 0-.113 0-.165.01a4.997 4.997 0 0 0-1.376.296L102.93 47.9l.014-.02c.179.307.377.61.604.901.207.279.438.547.702.806a7.778 7.778 0 0 0 .542.505c.09.085.189.156.278.231a8.479 8.479 0 0 0 2.862 1.509l-.019.028-35.868 44.599h-.014v-.005Z"/>
  <path fill="var(--sapContent_Illustrative_Color31)" d="M109.385 45.032c-2.739-1.881-3.819-4.767-3.498-6.634l-4.851 6.285c-1.665 2.079.099 4.728 2.875 7.11 2.777 2.38 6.497 3.262 8.52.546l4.723-6.006c-1.272 1.127-4.846.712-7.769-1.301Z"/>
  <path fill="var(--sapContent_Illustrative_Color25)" d="M117.418 45.994c1.16-1.759-.481-4.89-3.663-6.992-3.182-2.098-6.709-2.376-7.873-.618-1.165 1.759.481 4.89 3.663 6.992 3.182 2.098 6.709 2.376 7.873.618Z"/>
  <path fill="var(--sapContent_Illustrative_Color8)" d="M116.155 46.21c.561-.655.056-1.998-1.122-3.012-1.184-1.014-2.593-1.306-3.154-.655-.561.655-.057 1.999 1.122 3.012 1.183 1.014 2.593 1.306 3.154.656Zm-64.97.283 32.902 64.009 39.022-21.923-71.924-42.086Zm18.58 19.598 38.121 22.017-20.937 11.437-17.185-33.449v-.005Z"/>
  <path fill="var(--sapContent_Illustrative_Color14)" d="m51.185 46.493-.68.655 32.667 63.632.915-.278-32.902-64.009ZM74.95 83.427l-3.22 1.73.231.429 3.216-1.73-.231-.43h.005ZM62.311 61.8l-2.003 1.076.23.429 2.004-1.075-.23-.43Zm6.604 12.834-2.013 1.084.231.43 2.013-1.08-.23-.43v-.004Zm-3.413-6.628-2.008 1.08.231.428 2.009-1.08-.231-.428Zm6.648 12.902-1.985 1.066.231.429 1.985-1.066-.231-.429Zm3.352 6.46-2.004 1.075.231.43 2.004-1.076-.231-.429Zm3.225 6.284-1.99 1.07.231.43 1.99-1.07-.231-.43Zm3.276 6.369-1.984 1.066.23.429 1.985-1.065-.23-.43Z"/>
  <path fill="var(--sapContent_Illustrative_Color26)" d="m112.016 52.904-1.071.769c-.843.664-1.188-.066-2.715.32-.085-.023-.151-.042-.189-.042-.08 0-.268-.07-.349-.08-.023 0-.056-.02-.075-.02-.099-.018-.061-.032-.165-.046-.207-.033-.16-.062-.358-.109-.109-.018-.142-.051-.241-.08l-.311-.118-22.464 27.938 2.258.533-5.172 6.657c.118.174.844 1.626.844 1.626l6.29-7.82 22.251-27.67.83-1.033c.194-.165.627-.825.627-.825h.01Z"/>
  <path fill="var(--sapContent_Illustrative_Color29)" d="m75.285 76.774 25.473-31.668.018-.051c-.273.57-.381.815-.396 1.47 0 .222.505.27.528.49.019.227.066.453.128.68v.014l.014.08c0 .014.009.038.014.052v.019s0 .014.009.028v.019s.015.042.015.057c.014.042.028.08.042.117v.033c.014.052.038.104.047.16v.01c.014.047.033.085.043.132.009.014.014.019.014.038 0 0-.326-.212-.326-.208l.33.217v.01l.01.01v.009s.009.014.014.028c0 0 0 .01.009.014v.014s.01.019.015.033v.01h.009v.014s.014.014.014.019v.009s.01.014.014.028l.01.02v.009l.019.042.014.033h.009v.01l.01.009v.014s0 .014.009.028l.014.029s0 .014.01.028c.009.014.014.033.028.047l.009.028s0 .014.014.02c0 .009.01.018.01.027 0 0 0 .005.009.015l.01.014c.019.052.042.108.07.16.359-.193-.094.24-.07.288l-.198.471-24.313 30.163"/>
  <path fill="var(--sapContent_Illustrative_Color15)" d="m76.954 80.122 24.619-30.606.014-.019c.179.306.377.608.604.9.207.279.438.547.702.807.109.113.231.235.359.344.056.052.122.108.183.16.09.085.189.156.279.231a8.474 8.474 0 0 0 2.861 1.509l-.019.028L84.082 81.41"/>
  <path fill="var(--sapContent_Illustrative_Color11)" d="M113.166 46.97c-1.324-.377-2.88-1.122-4.073-2.065-1.806-1.433-3.107-2.815-3.507-4.635l-5.059 6.29c-.245 1.31.844 3.38 3.309 5.332 1.401 1.112 2.824 1.636 3.942 1.824l5.921-6.746h-.533Z"/>
  <path fill="var(--sapContent_Illustrative_Color1)" d="M100.762 47.889c.207 1.06.98 2.24 2.201 3.451l5.516-6.685c-1.004-1.056-2.013-1.976-2.512-3.21l-5.201 6.453v-.009h-.004Z"/>
  <path fill="var(--sapContent_Illustrative_Color8)" d="M109.612 54.097c-1.594 0-3.55-.622-5.384-1.83-3.338-2.201-4.696-5.331-3.447-7.217l-.014.028c-.867 1.754.566 4.762 3.701 6.827 3.13 2.065 6.643 2.347 7.755.66l-.089.136c-.566.854-1.221 1.405-2.522 1.405v-.01Z"/>
  <path fill="var(--sapContent_Illustrative_Color14)" d="m84.728 102.284-3.229 1.735.4.736 3.23-1.735-.4-.736Zm-3.276-6.355-3.23 1.735.401.735 3.23-1.735-.4-.735Zm-3.301-6.359-3.23 1.734.402.736 3.229-1.735-.4-.736Zm-3.375-6.365-3.23 1.735.402.736 3.229-1.736-.4-.735Zm-3.253-6.384-3.23 1.735.402.736 3.23-1.735-.402-.736Zm-3.295-6.327-3.23 1.735.4.736 3.23-1.735-.4-.736Zm-3.188-6.241-3.229 1.735.401.735 3.23-1.735-.401-.735Zm-3.422-6.333-3.23 1.736.401.735 3.23-1.735-.4-.735Z"/>
</svg>
