<svg xmlns="http://www.w3.org/2000/svg" viewBox="0 0 512 512">
	<path d="M184.5 460q11 0 18 7t7 18-7 18.5-18 7.5h-82q-32 0-54-22.5t-22-54.5V127q0-32 22-54t54-22h26q0-21 15-36t36-15h102q21 0 36 15t15 36h26q32 0 54 22t22 54v54q0 11-7 18t-18 7-18.5-7-7.5-18v-54q0-11-7-18t-18-7h-26q0 21-15 36t-36 15h-102q-21 0-36-15t-15-36h-26q-11 0-18 7t-7 18v307q0 11 7 18.5t18 7.5h82zm-5-358h102V51h-102v51zm299 238q8 8 8 18t-8 18l-102 102q-8 8-18 8t-18-8l-51-51q-8-8-8-18t8-18 18-8 18 8l33 33 84-84q8-8 18-8t18 8z"/>
</svg>