<svg xmlns="http://www.w3.org/2000/svg" viewBox="0 0 512 512">
	<path d="M479.5 384q14 0 23 9t9 23-9 23-23 9h-287q-14 0-23-9t-9-23 9-23 23-9h287zm-287-255q-14 0-23-9t-9-23 9-23 23-9h287q14 0 23 9t9 23-9 23-23 9h-287zm-144 239q20 0 34 14t14 34-14 34-34 14-34-14-14-34 14-34 34-14zm0-159q20 0 34 13.5t14 33.5-14 34-34 14-34-14-14-34 14-33.5 34-13.5zm0-160q20 0 34 14t14 34-14 34-34 14-34-14-14-34 14-34 34-14zm431 175q14 0 23 9t9 23q0 15-9 23.5t-23 8.5h-287q-14 0-23-8.5t-9-23.5q0-14 9-23t23-9h287z"/>
</svg>