<svg xmlns="http://www.w3.org/2000/svg" viewBox="0 0 512 512">
	<path d="M457.5 58q16 0 28.5 8t19 20.5 6.5 27-9 27.5l-80 117q-7 11-21 11h-198l-29 56h277q12 0 19.5 7.5t7.5 19.5-7.5 19.5-19.5 7.5h-320q-6 0-12.5-4t-8.5-10q-10-13 0-27l48-96-94-189h-37q-12 4-19.5-3T.5 31 8 12t19.5-7h53q17 0 24 16l19 37h334zm-30 347q23 0 38.5 15.5t15.5 38.5q0 22-15.5 37.5T427.5 512q-22 0-37.5-15.5T374.5 459q0-23 15.5-38.5t37.5-15.5zm-267 0q23 0 38.5 15.5t15.5 38.5q0 22-15.5 37.5T160.5 512q-22 0-37.5-15.5T107.5 459q0-23 15.5-38.5t37.5-15.5z"/>
</svg>