<svg xmlns="http://www.w3.org/2000/svg" viewBox="0 0 512 512">
	<path d="M205 205q11 0 18.5 7t7.5 19v153q0 11-7.5 18.5T205 410t-18-7.5-7-18.5V231q0-26 25-26zm102 0q26 0 26 26v153q0 11-7 18.5t-19 7.5q-11 0-18-7.5t-7-18.5V231q0-26 25-26zm154-102q25 0 25 26 0 25-25 25h-26v281q0 33-22 55t-55 22H154q-32 0-54.5-22T77 435V154H52q-26 0-26-25 0-26 26-26h76V77q0-32 22.5-54T205 1h102q33 0 55 22t22 54v26h77zm-281 0h153V77q0-25-26-25H205q-25 0-25 25v26zm204 51H128v281q0 12 7.5 19t18.5 7h204q26 0 26-26V154z"/>
</svg>