<svg xmlns="http://www.w3.org/2000/svg" viewBox="0 0 512 512">
	<path d="M444 52q5 2 8.5 8.5T456 72v248q0 8-4.5 13.5T441 343l-17 7q-46 20-90 20-26 0-49.5-7T238 345l-15-7q-28-15-59-15t-58 15v148q0 11-6.5 18T82 511q-25 0-25-25V25Q57 0 82 0q11 0 17.5 7t6.5 18v8q30-11 58-11 21 0 42 5.5T245 45l15 10q37 20 76 20 17 0 33.5-4T402 60l17-8q6-3 12-3 7 0 13 3zm-40 62q-33 12-68 12-53 0-98-27l-15-7q-29-17-61-17-30 0-56 15v193q27-9 58-9 21 0 42 4.5t39 17.5l15 9q14 10 31 14.5t34 4.5h11q34 0 68-16V114z"/>
</svg>