<svg xmlns="http://www.w3.org/2000/svg" viewBox="0 0 512 512">
	<path d="M461 10q11 0 18 7.5t7 18.5v128q0 11-7 18t-18 7-18.5-7-7.5-18V98l-70 70q-7 7-18 7t-18.5-7-7.5-18q0-10 8-18l70-71h-66q-11 0-18.5-7T307 36t7.5-18.5T333 10h128zM205 61q11 0 18.5 7.5T231 87t-7.5 18-18.5 7h-76v77q0 11-7.5 18.5T103 215t-18.5-7.5T77 189V87q0-11 7.5-18.5T103 61h102zm205 205q11 0 18 7t7 18v103q0 11-7 18t-18 7H307q-11 0-18-7t-7-18 7-18.5 18-7.5h77v-77q0-11 7.5-18t18.5-7zM180 419q11 0 18 7.5t7 18.5-7 18-18 7H52q-11 0-18.5-7T26 445V317q0-11 7.5-18.5T52 291t18 7.5 7 18.5v66l71-70q8-8 18-8 11 0 18 7.5t7 18.5-7 18l-70 70h66z"/>
</svg>