<svg xmlns="http://www.w3.org/2000/svg" viewBox="0 0 512 512">
	<path d="M435 19q33 0 55 22t22 55v307q0 33-22 55t-55 22h-51q-11 0-18.5-7t-7.5-19q0-11 7.5-18t18.5-7h51q12 0 19-7.5t7-18.5V96q0-11-7-18.5T435 70h-51q-11 0-18.5-7T358 45q0-12 7.5-19t18.5-7h51zM128 429q11 0 18.5 7t7.5 18q0 12-7.5 19t-18.5 7H77q-33 0-55-22T0 403V96q0-33 22-55t55-22h51q11 0 18.5 7t7.5 19q0 11-7.5 18T128 70H77q-12 0-19 7.5T51 96v307q0 11 7 18.5t19 7.5h51zm230-307q26 0 26 25 0 11-7 18.5t-19 7.5H154q-12 0-19-7.5t-7-18.5q0-25 26-25h204zM256 326q11 0 18.5 7.5T282 352t-7.5 18-18.5 7H154q-26 0-26-25 0-11 7-18.5t19-7.5h102zm102-102q26 0 26 26 0 25-26 25H154q-26 0-26-25 0-26 26-26h204z"/>
</svg>