<svg xmlns="http://www.w3.org/2000/svg" viewBox="0 0 512 512">
	<path d="M167.5 358q25 0 25 25v102q0 26-25 26h-102q-26 0-26-26V383q0-25 26-25h102zm-26 51h-51v51h51v-51zm26-230q25 0 25 25v103q0 25-25 25h-102q-26 0-26-25V204q0-25 26-25h102zm-26 51h-51v51h51v-51zm26-230q25 0 25 25v103q0 25-25 25h-102q-26 0-26-25V25q0-25 26-25h102zm-26 51h-51v51h51V51zm153 51q-25 0-25-25 0-26 25-26h154q25 0 25 26 0 25-25 25h-154zm154 128q25 0 25 25 0 26-25 26h-154q-25 0-25-26 0-25 25-25h154zm0 179q25 0 25 25 0 26-25 26h-154q-25 0-25-26 0-25 25-25h154z"/>
</svg>