<svg xmlns="http://www.w3.org/2000/svg" viewBox="0 0 512 512">
	<path d="M488.5 341q23 0 23 23v93q0 23-23 23h-93q-23 0-23-23v-93q0-23 23-23h23v-24q0-10-6-16.5t-17-6.5h-116v47h23q11 0 17.5 6t6.5 17v93q0 11-6.5 17t-17.5 6h-93q-23 0-23-23v-93q0-23 23-23h24v-47h-117q-10 0-16.5 6.5T93.5 317v24h23q11 0 17.5 6t6.5 17v93q0 11-6.5 17t-17.5 6h-92q-11 0-17.5-6T.5 457v-93q0-11 6.5-17t17.5-6h23v-24q0-29 20-49t49-20h117v-47h-70q-23 0-23-23V85q0-23 23-23h186q23 0 23 23v93q0 23-23 23h-70v47h116q30 0 50 20t20 49v24h23zm-302-186h140v-47h-140v47zm-93 232h-46v47h46v-47zm186 0h-46v47h46v-47zm186 0h-47v47h47v-47z"/>
</svg>