<svg xmlns="http://www.w3.org/2000/svg" viewBox="0 0 512 512">
	<path d="M483.5 1q28 0 28 28v341q0 28-28 28t-28-28V29q0-28 28-28zm-227 397q-13 0-21-7.5t-8-20.5V115q0-13 8-21t21-8 20.5 8 7.5 21v255q0 28-28 28zm113 0q-28 0-28-28V200q0-13 7.5-21t20.5-8 21 8 8 21v170q0 13-8 20.5t-21 7.5zm-227 0q-28 0-28-28V200q0-13 7.5-21t20.5-8 21 8 8 21v170q0 13-8 20.5t-21 7.5zm-113 0q-13 0-21-7.5T.5 370v-85q0-13 8-20.5t21-7.5q28 0 28 28v85q0 28-28 28zm454 57q13 0 20.5 8t7.5 21q0 28-28 28h-454q-13 0-21-7.5T.5 484t8-21 21-8h454z"/>
</svg>