<svg xmlns="http://www.w3.org/2000/svg" viewBox="0 0 512 512">
	<path d="M0 288v-64c0-19 13-32 32-32h28c3-11 8-18 12-29l-20-20c-6-7-9-15-9-23 0-9 3-16 9-22l46-46c6-6 13-9 22-9s17 3 23 9l20 20c11-4 18-9 29-12V32c0-19 13-32 32-32h64c9 0 17 3 23 9 7 7 9 13 9 20v31c11 3 20 8 29 12l20-20c6-6 14-9 23-9 10 0 17 3 22 9l46 46c6 6 9 13 9 22 0 3 0 6-1 8h-23l-53-53-37 36-21-10c-3-3-6-2-9-5-5-3-10-2-15-5l-22-8V32h-64v51l-22 8c-3 1-7 1-10 4l-15 6-20 10-37-36-45 45 36 37-10 20-6 15c-3 3-3 7-4 10l-8 22H32v64h51l8 22c1 3 3 7 4 10 1 1 1 3 2 4 1 3 3 7 4 10l10 21-36 37 45 45 8-8v39c-1 1-4 1-8 1-9 0-16-3-22-9l-46-46c-12-12-12-32 0-45l20-20c-4-11-9-18-12-29H32c-19 0-32-13-32-32zm160 192V192c0-17 15-32 32-32h288c19 0 32 15 32 32v288c0 19-13 32-32 32H192c-17 0-32-13-32-32zm32-288v64h288v-64H192zm208 16h32c11 0 16 5 16 16s-5 16-16 16h-32c-11 0-16-5-16-16s5-16 16-16zm80 80H192v192h288V288zM355 416H224v-96h131v96zm-99-64v32h67v-32h-67z"/>
</svg>