<svg xmlns="http://www.w3.org/2000/svg" viewBox="0 0 512 512">
	<path d="M0 395V117c0-15 7-25 21-30L245 2c3-1 6-2 11-2s9 1 11 2l224 85c14 5 21 15 21 30v278c0 15-7 25-21 30l-224 85c-2 1-6 2-11 2s-8-1-11-2L21 425c-14-5-21-15-21-30zM256 32L32 117v278l224 85 224-85V117zm56 363v-25h18c11 0 17-7 17-20v-61c0-18 9-31 27-39-18-6-27-19-27-38v-60c0-14-6-21-17-21h-18v-24h23c29 0 42 19 42 46v57c0 20 10 25 29 28v25c-12 1-20 4-23 8-4 4-6 11-6 20v58c0 27-14 46-42 46h-23zM106 263v-25c19-3 29-8 29-28v-57c0-27 13-46 42-46h23v24h-18c-11 0-17 7-17 21v60c0 19-9 32-27 38 18 8 27 21 27 39v61c0 13 6 20 17 20h18v25h-23c-28 0-42-19-42-46v-58c0-9-2-16-6-20-3-4-11-7-23-8z"/>
</svg>