<svg xmlns="http://www.w3.org/2000/svg" viewBox="0 0 512 512">
	<path d="M256 26V5c0-3 2-5 6-5h52c5 0 7 2 7 5v21c0 4-2 6-7 6h-52c-4 0-6-2-6-6zM0 58V5c0-3 2-5 6-5h20c4 0 6 2 6 5v53c0 5-2 7-6 7H6c-4 0-6-2-6-7zm160-32V5c0-3 2-5 6-5h52c4 0 6 2 6 5v21c0 4-2 6-6 6h-52c-4 0-6-2-6-6zM358 0h52c4 0 6 2 6 5v21c0 4-2 6-6 6h-52c-4 0-6-2-6-6V5c0-3 2-5 6-5zm97 0h51c4 0 6 2 6 5v21c0 4-2 6-6 6h-51c-4 0-6-2-6-6V5c0-3 2-5 6-5zM71 0h51c4 0 6 2 6 5v21c0 4-2 6-6 6H71c-4 0-6-2-6-6V5c0-3 2-5 6-5zm415 65h20c4 0 6 2 6 5v52c0 4-2 6-6 6h-20c-4 0-6-2-6-6V70c0-3 2-5 6-5zM0 154v-52c0-3 2-5 6-5h20c4 0 6 2 6 5v52c0 4-2 6-6 6H6c-4 0-6-2-6-6zm486 6h20c4 0 6 2 6 5v53c0 4-2 6-6 6h-20c-4 0-6-2-6-6v-53c0-3 2-5 6-5zM0 250v-52c0-3 2-5 6-5h20c4 0 6 2 6 5v52c0 4-2 6-6 6H6c-4 0-6-2-6-6zm480 64v-53c0-3 2-5 6-5h20c4 0 6 2 6 5v53c0 5-2 7-6 7h-20c-4 0-6-2-6-7zM0 346v-53c0-3 2-5 6-5h20c4 0 6 2 6 5v53c0 4-2 6-6 6H6c-4 0-6-2-6-6zm486 6h20c4 0 6 2 6 5v53c0 4-2 6-6 6h-20c-4 0-6-2-6-6v-53c0-3 2-5 6-5zM0 442v-53c0-3 2-5 6-5h20c4 0 6 2 6 5v53c0 5-2 7-6 7H6c-4 0-6-2-6-7zm486 7h20c4 0 6 2 6 5v52c0 4-2 6-6 6h-20c-4 0-6-2-6-6v-52c0-3 2-5 6-5zM0 506v-21c0-3 2-5 6-5h52c5 0 7 2 7 5v21c0 4-2 6-7 6H6c-4 0-6-2-6-6zm390-26h52c5 0 7 2 7 5v21c0 4-2 6-7 6h-52c-4 0-6-2-6-6v-21c0-3 2-5 6-5zm-102 26v-21c0-3 2-5 6-5h52c4 0 6 2 6 5v21c0 4-2 6-6 6h-52c-4 0-6-2-6-6zm-95 0v-21c0-3 2-5 6-5h51c4 0 6 2 6 5v21c0 4-2 6-6 6h-51c-4 0-6-2-6-6zm-96 0v-21c0-3 2-5 6-5h51c4 0 6 2 6 5v21c0 4-2 6-6 6h-51c-4 0-6-2-6-6z"/>
</svg>