<svg xmlns="http://www.w3.org/2000/svg" viewBox="0 0 512 512">
	<path d="M32 448V64c0-19 13-32 32-32h384c16 0 32 12 32 29v389c0 19-16 30-32 30H62c-17 0-30-16-30-32zm32 0h384V64H64v384zm112-288c15 0 27 12 27 27 0 13-6 22-18 25v31l34 21 58-34-26-17c-3-2-4-4-4-7v-58c-12-3-18-12-18-25 0-15 12-27 27-27s27 12 27 27c0 12-8 23-20 26v52l31 20 32-18v-18c-13-5-19-13-19-26 0-15 12-27 27-27s28 12 28 27c0 13-6 21-19 26v23c0 3-1 5-3 6l-30 17 29 17c3 1 4 4 4 7v44c13 5 19 13 19 25 0 16-12 28-27 28-16 0-28-12-28-28 0-12 6-20 19-25v-39l-32-20-58 34 24 16c2 1 3 3 3 7v66c11 3 20 13 20 25 0 15-13 28-28 28s-27-13-27-28c0-12 6-20 19-25v-62l-28-17-34 18v24c13 3 19 12 19 25 0 15-12 27-27 27s-28-12-28-27c0-11 7-21 18-25v-28c0-4 2-7 5-8l30-17-30-19c-3-2-5-4-5-7v-35c-11-4-18-13-18-25 0-15 12-27 27-27zm80-26c7 0 11-4 11-11s-4-11-11-11-11 4-11 11 4 11 11 11zm78 36c8 0 12-4 12-11s-4-11-12-11c-7 0-11 4-11 11s4 11 11 11zm-158 28c7 0 11-4 11-11s-4-11-11-11-11 4-11 11 4 11 11 11zm147 126c0 8 4 12 12 12 7 0 11-4 11-12 0-7-4-11-11-11-8 0-12 4-12 11zm-146 38c7 0 11-4 11-11s-4-11-11-11c-8 0-12 4-12 11s4 11 12 11zm78 38c8 0 12-4 12-12 0-7-4-11-12-11-7 0-11 4-11 11 0 8 4 12 11 12z"/>
</svg>