<svg xmlns="http://www.w3.org/2000/svg" viewBox="0 0 512 512">
	<path d="M160 136c39 0 74 11 101 28l61-60c-1-4-2-7-2-8V32c0-19 13-32 32-32h64c19 0 32 13 32 32v64c0 19-13 32-32 32h-64c-1 0-4-1-8-2l-57 58c17 17 27 35 31 56h66v-16c0-19 13-32 32-32h64c19 0 32 13 32 32v64c0 19-13 32-32 32h-64c-19 0-32-13-32-32v-16h-66c-4 21-14 39-31 56l57 58c4-1 7-2 8-2h64c19 0 32 13 32 32v64c0 19-13 32-32 32h-64c-19 0-32-13-32-32v-64c0-1 1-4 2-8l-61-60c-27 17-62 28-101 28C72 376 0 322 0 256s72-120 160-120zM416 32h-64v64h64V32zM32 256c0 48 60 88 128 88s128-40 128-88-60-88-128-88-128 40-128 88zm448 32v-64h-64v64h64zM352 416v64h64v-64h-64z"/>
</svg>