<svg xmlns="http://www.w3.org/2000/svg" viewBox="0 0 512 512">
	<path d="M409 8l83 83c4 4 7 11 7 18 0 6-3 12-7 16l-83 83c-4 4-10 7-16 7-7 0-14-3-18-7-9-9-9-24 0-34l43-43h-42c-51 0-92 42-92 93 0 14-11 25-25 25-13 0-23-11-23-25 0-78 62-140 140-140h42l-43-43c-9-9-9-24 0-33 9-10 24-10 34 0zm-3 242l40 23c11 6 19 19 23 31s2 25-5 36l-22 40c-13 23-44 31-67 18l-28-16-30 16v32c0 27-21 50-48 50h-46c-27 0-50-23-50-50v-31l-29-17-27 16c-23 13-54 5-68-18l-23-40c-13-23-5-54 18-67l28-15v-35l-28-16c-23-14-31-45-18-68l23-39c14-22 45-30 68-17l27 15 29-16V49c0-13 11-23 24-23 14 0 25 10 25 23v47c0 8-4 17-12 21l-54 31c-7 4-18 2-25-2l-39-21-24 39 39 24c8 4 12 13 12 21v62c0 8-4 17-12 21l-39 22 23 42 40-23c7-4 18-4 25 0l54 31c8 4 12 12 12 20v46l47 2 1-48c0-8 4-17 12-21l53-30c6-4 17-4 24 0l39 23 25-39-41-25c-12-7-15-22-8-34 6-12 20-15 32-8z"/>
</svg>