<svg xmlns="http://www.w3.org/2000/svg" viewBox="0 0 512 512">
	<path d="M427.5 416V115c0-12-9-21-21-21h-66v29c0 12-9 21-21 21s-21-9-21-21V94h-86v29c0 12-9 21-21 21s-22-9-22-21V94h-64c-12 0-21 9-21 21v301c0 12 9 21 21 21h301c12 0 21-9 21-21zm-87-365h66c36 0 64 28 64 64v301c0 36-28 64-64 64h-301c-36 0-64-28-64-64V115c0-36 28-64 64-64h64V23c0-12 10-22 22-22s21 10 21 22v28h86V23c0-12 9-22 21-22s21 10 21 22v28zm-131 194h144c12 0 21 9 21 21s-9 21-21 21h-144l38 38c8 8 8 21 0 29-4 4-9 7-15 7-5 0-12-3-16-7l-73-73c-2-2-2-2-2-3-1-1-2-3-4-4-1-3-1-5-1-8s0-7 1-9l4-4c0-2 0-2 2-3l73-73c8-9 23-9 31 0 8 8 8 22 0 30z"/>
</svg>