<svg xmlns="http://www.w3.org/2000/svg" viewBox="0 0 512 512">
	<path d="M376 355V125c0-3-3-4-5-4H140c-2 0-4 1-4 4v230c0 3 2 4 4 4h231c2 0 5-1 5-4zm0-306v24c27 3 48 25 48 52v230c0 27-21 50-48 53v13c0 32-27 59-59 59H195c-32 0-59-27-59-59v-13c-27-3-48-26-48-53V125c0-27 21-49 48-52V49c0-27 22-48 48-48h144c27 0 48 21 48 48zm-48 359H184v13c0 7 4 11 11 11h122c7 0 11-4 11-11v-13zM184 73h144V49H184v24zm112 149c4 5 12 5 16 0l29-30c4-5 11-8 11-19 1-13-8-25-22-28-10-2-21 2-26 10-6-7-14-11-22-11-15 0-27 12-27 27 0 12 11 21 11 21zm17 87l-31-50c-2-5-9-8-15-8-5 0-12 3-14 8l-12 20-24-120c-2-8-8-15-17-15-8 0-16 7-17 15l-28 163c-1 9 4 19 13 20h3c8 0 15-5 16-13l13-75 15 75c2 6 7 12 14 13 6 1 13-3 17-8l21-33 22 33c3 5 9 8 15 8h37c9 0 16-8 16-17 0-10-7-16-16-16h-28z"/>
</svg>