<svg xmlns="http://www.w3.org/2000/svg" viewBox="0 0 512 512">
	<path d="M119 101c-4 5-10 8-16 8-7 0-13-4-18-8-9-10-9-25 0-34l59-59c4-4 11-6 16-6 7 0 13 2 17 6l59 59c9 9 9 24 0 34-4 4-11 8-17 8-7 0-11-4-16-8l-19-18v70c0 13-11 24-24 24s-24-11-24-24V83zm209 12h94c9 0 17 5 21 14l51 122c1 3 1 5 1 9v43c0 35-25 63-58 69 6 11 10 24 10 38 0 40-30 72-71 72-40 0-72-32-72-72 0-14 3-26 10-36H199c6 10 9 22 9 36 0 40-31 72-71 72s-72-32-72-72c0-14 4-27 11-38-34-6-59-34-59-69v-43c0-13 11-24 24-24h263v-97c0-14 11-24 24-24zm24 121h83l-29-73h-54v73zM89 324h334c14 0 24-10 24-23v-19H65v19c0 13 11 23 24 23zm310 84c0-14-11-24-24-24s-23 10-23 24c0 13 10 24 23 24s24-11 24-24zm-262 24c14 0 23-11 23-24 0-14-9-24-23-24-13 0-24 10-24 24 0 13 11 24 24 24z"/>
</svg>