<svg xmlns="http://www.w3.org/2000/svg" viewBox="0 0 512 512">
	<path d="M396 356q-17 0-29 11.5T355 397t12 30 29 12q19 0 30.5-12t11.5-30-11.5-29.5T396 356zM169 170q5 5 25.5 11.5T250 188q36 0 56-6.5t25-11.5q-5-5-25-12t-56-7q-35 0-55.5 7T169 170zm81 208q-22 0-44-3.5T167.5 364t-27-17.5T130 321V170q0-15 10.5-26t27-18 38.5-10.5 44-3.5q23 0 44.5 3.5T333 126t27.5 18 10.5 26v86q0 8-6 14t-14 6-13.5-6-5.5-14v-43q-17 7-38 10t-44 3q-22 0-43-3t-38-10v107q2 5 22.5 12t58.5 7q8 0 13.5 6t5.5 14q0 19-19 19zm-96 134H77q-32 0-54.5-24T0 429V84q0-35 22.5-59.5T77 0h358q32 0 54.5 24.5T512 84v86q0 11-7 18t-18 7-18.5-7-7.5-18V84q0-14-7.5-23.5T435 51H77q-11 0-18.5 9.5T51 84v345q0 13 7.5 22.5T77 461h77q11 0 18 7.5t7 18.5-7 18-18 7zm175-22q-10 0-18-8t-8-18 8-18l5-4q-4-7-8-19h-1q-11 0-18-7.5t-7-18.5 7-18 18-7q3-9 8-20l-4-4q-8-8-8-18.5t8-18.5q7-7 18-7 12 0 19 7l4 5q7-5 19-8v-1q0-11 7-18t18-7 18.5 7 7.5 18v1q9 3 20 8l4-5q7-7 18-7t18 7q8 8 8 18.5t-8 18.5l-4 4q5 11 8 20h1q11 0 18 7t7 18-7 18.5-18 7.5h-1l-4 10-4 10 4 3q8 8 8 18t-8 18-18 8-18-8l-4-4q-5 3-10 4.5t-10 3.5v1q0 11-7.5 18t-18.5 7-18-7-7-18v-1q-12-3-20-8l-3 4q-8 8-19 8z"/>
</svg>