<svg xmlns="http://www.w3.org/2000/svg" viewBox="0 0 512 512">
	<path d="M258.5 313q6-6 11-6 6 0 12 6 5 6 5 12t-5 12l-102 102q-10 10-23 10t-22-10l-102-102q-6-6-6-12t6-12 11-6q6 0 11 6l85 87V140q0-16 16-16t16 16v262zm100 72q5 6 8.5 11t7.5 8q7 7 16 11 7 4 26 4 20 0 36-9t16-32q0-16-9-25-8-11-22-14.5t-26-3.5h-21v-31h21q19 0 35-11t16-32q0-18-12-27-10-10-33-10-12 0-23 3-9 4-16 11-7 4-15 17l-27-17q10-21 33-32 21-12 48-12t43 9q16 7 26 23 8 14 8 32 0 22-11 38t-32 22v1q22 5 36 21t14 39q0 24-10 37-7 16-29 25-17 4-28.5 6t-17.5 2q-31 0-51-12-19-10-34-33z"/>
</svg>