<svg xmlns="http://www.w3.org/2000/svg" viewBox="0 0 512 512">
	<path d="M256.966 0q52.166 0 98.536 20.287t81.147 55.064 55.064 81.147T512 256t-20.287 99.502-55.064 81.147-81.147 54.581-98.536 19.804q-53.132 0-99.985-19.804t-81.63-54.58-55.064-81.148T0 256t20.287-99.502T75.35 75.351t81.63-55.064T256.966 0zm0 459.834q41.54 0 78.732-15.94t64.725-43.471 43.471-64.725T459.834 256t-15.94-79.698-43.471-65.208-64.725-43.954-78.732-15.94q-42.506 0-80.181 15.94t-65.208 43.954-43.471 65.208T52.166 256t15.94 79.698 43.471 64.725 65.208 43.471 80.181 15.94z"/>
</svg>