<svg xmlns="http://www.w3.org/2000/svg" viewBox="0 0 512 512">
	<path d="M192 142q0-8 8-8 3 0 4 1l123 74q4 3 4 7 0 8-8 8H200q-8 0-8-8v-74zm160 74v-74q0-8 8-8 3 0 4 1l123 74q4 3 4 7 0 8-8 8H360q-8 0-8-8zM40 134q3 0 4 1l123 74q4 3 4 7 0 8-8 8H40q-8 0-8-8v-74q0-8 8-8zM0 272q0-16 16-16h480q6 0 11 4.5t5 11.5v208H0V272zm32 176h32v-88q0-17 11.5-28.5T104 320h16q17 0 28.5 11.5T160 360v88h48v-88q0-17 11.5-28.5T248 320h16q17 0 28.5 11.5T304 360v88h48v-88q0-17 11.5-28.5T392 320h16q17 0 28.5 11.5T448 360v88h32V288H32v160z"/>
</svg>