<svg xmlns="http://www.w3.org/2000/svg" viewBox="0 0 512 512">
	<path d="M256.5 13q53 0 99.5 20t81 54.5 54.5 81 20 99.5q0 42-13 80.5t-36 70.5-55 55.5-70 36.5q-11 2-14.5-2.5t-3.5-9.5v-71q0-17-5-29t-12-18q21-2 42-8.5t37.5-20 27-37 10.5-60.5q0-21-7-38t-19-31q1-2 2.5-8t2-14.5-1-20-6.5-24.5q-7-1-17 1-8 2-21.5 7t-31.5 18q-31-9-64-9t-65 9q-18-13-31-18t-22-7q-10-2-17-1-10 26-7 44t5 23q-12 14-19 31t-7 38q0 37 10 60.5t26.5 37 37.5 20 42 8.5q-5 5-9.5 13.5t-6.5 20.5q-5 2-13 4.5t-17 2.5q-11 0-23-5.5t-21-21.5q-4-7-10-13-5-5-12.5-9t-17.5-5q-7 0-10 2-2 2-1 4.5t9 8.5q5 3 10 8 11 9 19 30 4 10 12 18 7 8 18.5 13.5t30.5 5.5q12 0 25-3v44q0 5-3.5 9.5t-13.5 2.5q-38-12-70-36T50 419.5 13.5 349t-13-81q0-53 20-99.5t54.5-81T156.5 33t100-20z"/>
</svg>