<svg width="33" height="34" viewBox="0 0 33 34" fill="none" xmlns="http://www.w3.org/2000/svg">
<path d="M7.08998 21.4854C7.08998 23.3911 5.58797 24.9313 3.72956 24.9313C1.87115 24.9313 0.369141 23.3911 0.369141 21.4854C0.369141 19.5798 1.87115 18.0396 3.72956 18.0396H7.08998V21.4854ZM8.77019 21.4854C8.77019 19.5798 10.2722 18.0396 12.1306 18.0396C13.989 18.0396 15.491 19.5798 15.491 21.4854V30.1002C15.491 32.0058 13.989 33.546 12.1306 33.546C10.2722 33.546 8.77019 32.0058 8.77019 30.1002V21.4854Z" fill="black"/>
<path d="M12.1307 7.64861C10.2723 7.64861 8.77026 6.1084 8.77026 4.20272C8.77026 2.29704 10.2723 0.756836 12.1307 0.756836C13.9891 0.756836 15.4911 2.29704 15.4911 4.20272V7.64861H12.1307ZM12.1307 9.39766C13.9891 9.39766 15.4911 10.9379 15.4911 12.8436C15.4911 14.7492 13.9891 16.2894 12.1307 16.2894H3.70417C1.84576 16.2894 0.34375 14.7492 0.34375 12.8436C0.34375 10.9379 1.84576 9.39766 3.70417 9.39766H12.1307Z" fill="black"/>
<path d="M25.5973 12.8436C25.5973 10.9379 27.0993 9.39766 28.9578 9.39766C30.8162 9.39766 32.3182 10.9379 32.3182 12.8436C32.3182 14.7492 30.8162 16.2894 28.9578 16.2894H25.5973V12.8436ZM23.9171 12.8436C23.9171 14.7492 22.4151 16.2894 20.5567 16.2894C18.6983 16.2894 17.1963 14.7492 17.1963 12.8436V4.20272C17.1963 2.29704 18.6983 0.756836 20.5567 0.756836C22.4151 0.756836 23.9171 2.29704 23.9171 4.20272V12.8436V12.8436Z" fill="black"/>
<path d="M20.5577 26.6543C22.4161 26.6543 23.9181 28.1945 23.9181 30.1002C23.9181 32.0058 22.4161 33.546 20.5577 33.546C18.6993 33.546 17.1973 32.0058 17.1973 30.1002V26.6543H20.5577ZM20.5577 24.9313C18.6993 24.9313 17.1973 23.3911 17.1973 21.4854C17.1973 19.5798 18.6993 18.0396 20.5577 18.0396H28.9842C30.8426 18.0396 32.3446 19.5798 32.3446 21.4854C32.3446 23.3911 30.8426 24.9313 28.9842 24.9313H20.5577Z" fill="black"/>
</svg>
