<svg width="178" height="292" viewBox="0 0 178 292" fill="none" xmlns="http://www.w3.org/2000/svg">
<path d="M172.411 0.744629L176.47 23.3C179.568 40.5406 174.489 58.2376 162.727 71.2149L145.486 90.2244L141.369 65.4925C138.41 47.6977 144.133 29.5686 156.768 16.6972L172.419 0.752782L172.411 0.744629Z" fill="url(#paint0_linear_175_956)"/>
<path d="M4.21903 221.913C5.29504 226.543 6.19986 231.206 6.98242 235.885C12.3706 267.961 40.6077 292.285 74.396 291.527C76.7355 291.478 79.0424 291.291 81.3167 291.006C68.0052 270.92 60.2123 246.629 60.2123 220.454C60.2123 199.382 65.2662 179.533 74.1759 162.113C72.0239 171.438 70.8827 181.171 70.8827 191.182C70.8827 226.641 85.1724 258.644 108.119 281.403C126.672 269.779 139.201 249.302 139.641 226.046C139.894 212.669 136.209 200.173 129.672 189.625C126.998 185.312 124.708 180.772 122.629 176.142L112.472 153.472C93.43 110.962 94.0495 62.2319 114.159 20.2188L104.589 25.9656C69.0893 47.2901 47.561 85.8389 48.0338 127.249L48.0909 132.547C48.0501 133.574 46.7051 133.925 46.1589 133.061L43.0613 128.154C39.5317 122.57 36.6379 116.603 34.4288 110.375L30.622 99.6313L26.318 110.709C17.6365 133.036 15.9736 157.401 21.4189 180.585C21.5982 181.334 21.4189 182.117 20.9298 182.712C20.726 182.965 20.5222 183.217 20.3266 183.47C19.5522 184.457 18.0278 184.375 17.3757 183.291C13.2021 176.346 9.89253 168.92 7.52042 161.176L5.04234 153.073L3.8359 158.844C-0.50889 179.655 -0.386616 201.143 4.20273 221.905L4.21903 221.913Z" fill="url(#paint1_linear_175_956)"/>
<path d="M8.7252 196.358C8.7252 187.644 9.54036 179.125 11.0729 170.876C9.72785 167.713 8.54587 164.477 7.53507 161.184L5.05699 153.081L3.85055 158.852C-0.494241 179.663 -0.371968 201.151 4.21737 221.913C5.29338 226.543 6.19821 231.206 6.98076 235.885C10.2903 255.587 22.2324 272.355 38.7801 282.194C20.0151 258.929 8.7252 229.005 8.7252 196.358Z" fill="url(#paint2_linear_175_956)"/>
<path d="M21.2792 177.422C21.2792 154.858 26.6755 133.599 36.2047 114.94C35.5771 113.44 34.9902 111.916 34.444 110.375L30.6372 99.6313L26.3332 110.709C17.7251 132.849 16.0214 157.002 21.3118 180.014C21.2955 179.15 21.2792 178.294 21.2792 177.422Z" fill="url(#paint3_linear_175_956)"/>
<path d="M107.531 36.2693C109.439 30.8322 111.648 25.4685 114.166 20.2107L104.597 25.9575C69.0964 47.282 47.568 85.8308 48.0408 127.241L48.0979 132.539L50.4048 121.233C57.4967 86.4911 78.0305 55.9553 107.523 36.2693H107.531Z" fill="url(#paint4_linear_175_956)"/>
<defs>
<linearGradient id="paint0_linear_175_956" x1="172.248" y1="0.687568" x2="145.307" y2="90.1592" gradientUnits="userSpaceOnUse">
<stop stop-color="#D40E0C"/>
<stop offset="1" stop-color="#F7A42C"/>
</linearGradient>
<linearGradient id="paint1_linear_175_956" x1="70.16" y1="20.2187" x2="70.16" y2="291.545" gradientUnits="userSpaceOnUse">
<stop stop-color="#D5140D"/>
<stop offset="1" stop-color="#F7A22B"/>
</linearGradient>
<linearGradient id="paint2_linear_175_956" x1="19.7306" y1="153.081" x2="19.7306" y2="282.194" gradientUnits="userSpaceOnUse">
<stop stop-color="#EE7E24"/>
<stop offset="1" stop-color="#F7A42C"/>
</linearGradient>
<linearGradient id="paint3_linear_175_956" x1="27.2552" y1="99.6313" x2="27.2552" y2="180.014" gradientUnits="userSpaceOnUse">
<stop stop-color="#EE7E24"/>
<stop offset="1" stop-color="#F7A42C"/>
</linearGradient>
<linearGradient id="paint4_linear_175_956" x1="81.0998" y1="20.2107" x2="81.0998" y2="132.539" gradientUnits="userSpaceOnUse">
<stop stop-color="#EE7E24"/>
<stop offset="1" stop-color="#F7A42C"/>
</linearGradient>
</defs>
</svg>
