<svg xmlns="http://www.w3.org/2000/svg" viewBox="0 0 512 512">
	<path d="M360 297l125 127c7 6 11 14 11 24 0 17-17 34-34 34-10 0-18-4-25-10L312 345c-32 23-68 34-107 34-103 0-189-84-189-189C16 87 101 2 205 2c102 0 188 84 188 188 0 38-12 76-33 107zm-155 47c21 0 41-4 60-11 57-25 94-80 94-143 0-21-4-41-12-60-28-56-76-94-142-94-85 0-155 67-155 154s67 154 155 154zm-7-223l-69 69c-3 3-3 6 0 10l68 69c3 2 5 6 5 10 0 3-2 6-5 9-2 3-5 4-9 4s-7-1-10-4l-83-84c-3-2-4-5-4-9s1-7 4-10l83-83c3-3 6-5 10-5s7 2 10 5c3 2 4 6 4 9 0 4-1 8-4 10zm100 0l-70 69c-1 1-2 3-2 5s1 3 2 5l69 69c3 2 4 6 4 10 0 8-7 13-14 13-4 0-7-1-10-4l-83-84c-2-2-4-5-4-9s2-7 4-10l84-83c2-3 6-5 10-5 7 0 13 7 13 14 0 4-1 8-3 10z"/>
</svg>