<svg xmlns="http://www.w3.org/2000/svg" viewBox="0 0 512 512">
	<path d="M29 152v-38L257 0l227 114v38h-28v24H57v-24H29zm455 360H29v-48h455v48zM208 400c-9-9-14-21-16-37l35-4c2 12 9 22 20 29v-55c-33-11-50-31-50-58 0-23 16-44 37-51 4-1 9-2 13-2v-19h20v19c5 0 9 1 13 2 19 6 30 25 36 44l-35 4c-1-11-6-19-14-22v53c40 8 54 25 54 56 0 17-5 30-16 41-9 10-21 16-38 18v18h-20v-17c-17-2-30-8-39-19zm-84 0H60V224h64v176zm272 0V224h64v176h-64zM219 116c0 17 15 34 32 36h9c22-4 34-24 34-40 0-19-15-36-35-36-23 0-40 23-40 40zm48 273c7-1 12-4 14-9 5-5 7-10 7-16 0-11-6-22-21-26v51zm-20-140c-12 7-16 17-16 25 0 5 4 17 16 21v-46z"/>
</svg>