<svg xmlns="http://www.w3.org/2000/svg" viewBox="0 0 512 512">
	<path d="M441 33c37 0 68 58 68 127 0 59-21 107-49 122v99c0 72-60 132-136 132h-65c-75 0-135-60-135-132v-89C56 279 4 220 4 148 4 67 70 1 151 1s147 66 147 147c0 79-63 144-142 147v86c0 55 46 100 103 100h65c59 0 104-45 104-100v-96c-31-12-54-62-54-125 0-69 31-127 67-127zM36 148c0 63 52 115 115 115 64 0 115-52 115-115 0-64-51-115-115-115C88 33 36 84 36 148zm115 14c-19-1-15-23-15-28 0-10 1-20 2-31 3-17 7-36 13-57 6 22 10 42 13 59 1 15 3 26 3 31 0 10-2 26-14 26h-2z"/>
</svg>