<svg xmlns="http://www.w3.org/2000/svg" viewBox="0 0 512 512">
	<path d="M255.501 404.21C114.776 404.21 0 375.268 0 340.336c0-1.996 0-3.992.998-5.988V148.71C40.92 84.834 182.643 84.834 264.483 84.834c88.827 0 223.564 0 247.517 63.876v191.625c0-35.93-113.778-63.875-255.501-63.875 140.725 0 254.503 27.945 254.503 63.875 0 34.932-113.778 63.876-255.501 63.876zm-214.58-63.875c27.944 12.975 101.8 31.938 214.58 31.938 113.778 0 187.634-18.963 215.579-31.938-27.945-13.972-101.801-31.937-215.579-31.937-112.78 0-186.636 17.965-214.58 31.937z"/>
</svg>