<svg xmlns="http://www.w3.org/2000/svg" viewBox="0 0 512 512">
	<path d="M173 178c0-3 3-6 6-6h129c4 0 6 3 6 6v327c0 3-2 6-6 6H179c-3 0-6-3-6-6V178zM7 33C7 15 20 1 38 1h175c5 0 9 2 12 5l23 27h226c7 0 13 2 17 5 5 3 8 7 10 11 3 5 4 10 4 16v68h-31V97c-1-9-5-16-10-22-5-7-12-10-21-10H232c-5 0-9-2-12-5l-21-22c-4-3-7-5-12-5H69c-7 0-13 2-18 5-4 3-7 7-9 11-3 5-4 10-4 16v320c0 13 4 22 16 28 4 3 9 4 15 4h59v32H38c-6 0-11-1-15-4-4-2-8-5-11-9-3-5-5-11-5-19V33zm355 278V178c0-3 3-6 6-6h129c3 0 6 3 6 6v133c0 3-3 6-6 6H368c-3 0-6-3-6-6zm0 127c0-40 30-72 70-72s71 32 71 72-30 73-71 73-70-33-70-73z"/>
</svg>