<svg xmlns="http://www.w3.org/2000/svg" viewBox="0 0 512 512">
	<path d="M0 448.496a126.62 126.62 0 01127.008-127.008h15.876c-44.651 0-79.38-35.72-79.38-79.38s34.729-79.38 79.38-79.38c43.659 0 79.38 35.722 79.38 79.38s-35.721 79.38-79.38 79.38h15.876c23.814 0 44.65 5.954 63.504 17.86v38.699c-16.869-16.869-38.698-24.807-63.504-24.807h-31.752c-52.59 0-95.256 42.667-95.256 95.256v31.752h190.512V512H0v-63.504zM285.767 512v-31.752H476.28v-31.752c0-52.589-42.667-95.256-95.256-95.256h-31.752c-24.806 0-46.635 7.938-63.504 24.807v-38.698c18.853-11.907 40.683-17.86 63.504-17.86h15.876c-43.659 0-79.38-35.722-79.38-79.38s35.721-79.38 79.38-79.38c44.651 0 79.38 35.72 79.38 79.38s-34.729 79.38-79.38 79.38h15.876a126.62 126.62 0 01127.008 127.007V512H285.767zM399.876 88.31l-39.69-30.76 3.969-10.914h48.62L427.66 0h12.9l14.883 46.636h48.62l3.969 10.914-39.69 30.76 15.876 47.628-10.915 5.953-39.69-27.782-40.682 28.775-8.93-6.946zm-34.729 106.17c-26.79 0-47.628 20.838-47.628 47.629s20.838 47.627 47.628 47.627 47.628-20.837 47.628-47.627-20.837-47.628-47.628-47.628zM95.256 242.11c0 26.79 20.837 47.627 47.628 47.627s47.628-20.837 47.628-47.627-20.838-47.628-47.628-47.628-47.628 20.837-47.628 47.628z"/>
</svg>