<svg xmlns="http://www.w3.org/2000/svg" viewBox="0 0 512 512">
	<path d="M76.255 448.619v-61.4c0-8.913 2.971-16.836 9.904-21.788 4.951-5.942 11.884-8.913 21.787-8.913v-31.69c0-17.826 5.942-32.681 18.816-43.575 10.894-12.874 25.749-18.816 43.575-18.816h108.936v-61.4h-77.246c-8.913 0-16.836-2.971-22.777-8.913-5.942-6.933-8.913-13.865-8.913-22.778V121.81h31.69v47.536H387.22v-93.09H279.273c.99-1.981.99-4.952.99-9.904V45.555H387.22c8.913 0 15.845 2.971 22.777 8.913 5.942 6.932 8.913 13.865 8.913 21.787v93.091c0 6.933-2.97 14.855-8.913 22.778-7.922 5.942-15.845 8.913-22.777 8.913h-77.246v61.4h108.936c17.826 0 32.68 5.942 43.575 18.816 12.874 12.875 18.816 26.74 18.816 43.575v31.69c8.913 0 15.845 2.971 21.787 8.913 5.942 6.933 8.913 13.865 8.913 21.788v61.4c0 8.913-2.971 15.845-8.913 22.778-5.942 5.941-12.874 8.912-21.787 8.912h-62.39c-9.904 0-17.827-2.97-22.778-8.912-5.942-4.952-8.913-12.875-8.913-22.778v-61.4c0-8.913 2.97-16.836 8.913-21.788 4.951-5.942 12.874-8.913 22.777-8.913h30.7v-31.69c0-8.913-2.97-15.845-7.922-22.778-7.923-5.942-15.846-8.913-22.778-8.913H309.973v63.381h15.845c8.913 0 15.845 2.971 21.787 8.913 5.942 6.933 8.913 13.865 8.913 21.788v61.4c0 8.913-2.97 15.845-8.913 22.778-5.942 5.941-12.874 8.912-21.787 8.912h-62.39c-9.904 0-17.826-2.97-22.778-8.912-5.942-4.952-8.913-12.875-8.913-22.778v-61.4c0-8.913 2.97-16.836 8.913-21.788 4.952-5.942 12.874-8.913 22.777-8.913h15.846v-63.38H170.337c-8.913 0-16.836 2.97-22.778 8.912-5.942 7.923-8.913 15.846-8.913 22.778v31.69h31.69c16.836 0 31.691 13.865 31.691 30.7v61.401c0 17.826-13.865 31.69-31.69 31.69h-62.391c-9.903 0-16.836-2.97-21.787-8.912-6.933-4.952-9.904-12.875-9.904-22.778zM93.091 50.507l1.98-1.98v-3.962h13.865v13.864c0 15.846 11.884 27.73 27.73 27.73h81.206c8.913 0 14.855-2.971 17.826-7.923 4.952-4.952 7.923-11.884 7.923-19.807l.99-7.922c0-12.875-13.864-25.749-26.739-25.749h-51.497L150.53 8.913h67.342c2.971 0 7.923.99 14.855 1.98 6.933 3.962 11.884 6.933 14.855 9.904 7.923 8.913 11.884 18.816 11.884 29.71v7.922c0 4.952-.99 10.894-2.97 17.826l-5.943 9.904-2.97 2.97c-2.972 2.972-7.923 5.943-14.856 8.914-4.951 2.97-9.903 3.96-14.855 3.96l-81.207-.99c-11.884 0-21.787-3.96-29.71-11.883-8.912-6.933-13.864-19.807-13.864-30.7v-7.923zM3.96 80.217C.991 75.265 0 69.323 0 64.37V56.45c0-12.875 3.961-22.778 12.874-30.7 7.923-8.913 17.826-12.875 29.71-12.875h69.323c4.952 0 10.894.99 15.845 3.962 2.971.99 7.923 3.96 12.875 8.913 8.913 7.922 13.864 17.825 13.864 30.7v8.913h-14.855l-2.97-16.836c0-10.894-14.856-19.806-24.759-19.806H42.584c-14.855 0-26.739 12.874-26.739 27.729v7.922c0 13.865 12.875 25.749 26.74 25.749h37.632l15.845 15.845H42.584c-11.884 0-21.787-3.961-29.71-12.874-4.951-4.952-7.922-9.903-8.913-12.874zm259.466 307.002v61.4h62.391v-61.4h-62.39zm155.482 61.4h62.39v-61.4h-62.39v61.4zm-310.963 0h62.39v-61.4h-62.39v61.4z"/>
</svg>