<svg xmlns="http://www.w3.org/2000/svg" viewBox="0 0 512 512">
	<path d="M121 191c0-13 12-27 27-27h27c-16-5-27-21-27-37 0-23 19-40 40-40 23 0 40 17 40 40 0 16-10 32-26 37h26c13 0 15 19 20 27 5-8 7-23 14-27 1-1 2-1 3-1h3v1h27c-16-5-27-21-27-37 0-23 18-40 41-40 21 0 41 17 41 40 0 16-12 32-28 37h28c14 0 12 19 20 27l4-11c5-15 8-16 16-16h26c-16-5-26-21-26-37 0-23 16-40 40-40 21 0 39 17 39 40 0 16-11 32-26 37h26c16 0 27 12 27 27v27H121v-27zM16 106c0-5 0-9 1-11 3-12 10-21 21-27 7-3 14-5 22-6h52v33H60c-3 0-5 0-6 1-4 1-6 5-6 10v194c0 7 2 13 6 16 2 1 4 2 6 2h181v110l48-110h56c1 0 3-1 5-2 4-3 6-9 6-16v-44h32v44c0 30-16 43-43 51h-43l-43 99h-46v-99H60c-16 0-27-5-34-15-6-10-10-22-10-36V106z"/>
</svg>