<svg xmlns="http://www.w3.org/2000/svg" viewBox="0 0 512 512">
	<path d="M206.875 429v-77l38-38v77h133v-15c0-11 3-19 9-25 6-7 13-10 23-10h64c8 0 16 3 22 10 7 6 10 14 10 25v68c0 11-3 19-10 25-6 7-14 10-22 10h-64c-10 0-17-3-23-10-6-6-9-14-9-25v-15h-171zm-193 44c-7-7-7-18 0-24l463-464c3-3 7-5 12-5 4 0 9 2 12 5 7 7 7 18 0 25l-463 463c-3 3-8 5-12 5s-8-2-12-5zm1-183c-6-6-9-14-9-24v-69c0-10 3-19 9-25 6-7 14-10 23-10h64c20 0 32 16 32 35v13h71l-39 38h-32v18c0 9-3 17-9 24l-1 1c-6 6-14 9-22 9h-64c-9 0-17-3-23-10zm192-82V29h171V13c0-10 3-18 9-24 6-7 13-10 23-10h25l-88 88h-102v103zm235-91l64-64v29c0 10-3 19-10 25-6 7-14 10-22 10h-32z"/>
</svg>