<svg xmlns="http://www.w3.org/2000/svg" viewBox="0 0 512 512">
	<path d="M216 320c-5 0-8-3-8-8V200c0-5 3-8 8-8h144c5 0 8 3 8 8v112c0 5-3 8-8 8H216zm-32 160c-5 0-8-3-8-8V360c0-5 3-8 8-8h144c5 0 8 3 8 8v112c0 5-3 8-8 8H184zm-40-328V40c0-5 3-8 8-8h144c5 0 8 3 8 8v112c0 5-3 8-8 8H152c-5 0-8-3-8-8zm248 328c-5 0-8-3-8-8V360c0-5 3-8 8-8h48c5 0 8 3 8 8v112c0 5-3 8-8 8h-48zm24-280c0-5 3-8 8-8h48c5 0 8 3 8 8v112c0 5-3 8-8 8h-48c-5 0-8-3-8-8V200zM64 360c0-5 3-8 8-8h48c5 0 8 3 8 8v112c0 5-3 8-8 8H72c-5 0-8-3-8-8V360zM40 160c-5 0-8-3-8-8V40c0-5 3-8 8-8h48c5 0 8 3 8 8v112c0 5-3 8-8 8H40zm56 40c0-5 3-8 8-8h48c5 0 8 3 8 8v112c0 5-3 8-8 8h-48c-5 0-8-3-8-8V200zm264-40c-5 0-8-3-8-8V40c0-5 3-8 8-8h48c5 0 8 3 8 8v112c0 5-3 8-8 8h-48z"/>
</svg>