<svg xmlns="http://www.w3.org/2000/svg" viewBox="0 0 512 512">
	<path d="M0 392.25v-60.346c0-66.003 53.746-120.692 120.692-120.692h30.174c-49.975 0-90.52-40.545-90.52-90.52s40.545-90.519 90.52-90.519 90.519 40.545 90.519 90.52-40.545 90.519-90.52 90.519h30.174c33.002 0 63.175 14.143 85.804 35.83-8.486 6.6-15.086 14.144-21.686 21.687-16.973-17.915-38.66-27.344-64.118-27.344h-60.347c-49.974 0-90.519 40.545-90.519 90.52v30.172h181.982v30.173H0zm256.471-17.915c0-59.403 48.089-108.434 108.435-108.434 59.403 0 108.435 49.03 108.435 108.434 0 60.346-49.032 108.435-108.435 108.435-60.346 0-108.435-48.089-108.435-108.435zm108.435-95.234c-52.803 0-95.234 42.431-95.234 95.234 0 53.746 41.488 95.234 95.234 95.234 52.803 0 95.234-42.43 95.234-95.234s-42.431-95.234-95.234-95.234zm27.344-37.716L271.558 120.692 392.25.942 512 120.693zm-94.29-120.693l94.29 94.291 93.349-94.29-93.349-93.349zm-.943 253.643c0-34.887 30.173-67.89 67.89-67.89 34.887 0 67.889 33.003 67.889 67.89 0 37.717-33.002 67.89-67.89 67.89-37.716 0-67.89-30.173-67.89-67.89zM150.866 60.346c-33.002 0-60.347 27.345-60.347 60.346s27.345 60.347 60.347 60.347 60.346-27.345 60.346-60.347-27.345-60.346-60.346-60.346zm214.04 259.3c-31.116 0-54.689 25.459-54.689 54.69 0 31.115 23.573 54.688 54.69 54.688 29.23 0 54.688-23.573 54.688-54.689 0-29.23-25.459-54.689-54.689-54.689zm-27.344 54.69c0-15.087 12.258-27.345 27.344-27.345s27.344 12.258 27.344 27.344c0 16.03-12.257 27.345-27.344 27.345s-27.344-11.315-27.344-27.345zm47.145-246.1l-7.543-51.86c0-10.372 7.543-15.087 15.086-15.087 6.6 0 14.144 4.715 14.144 15.087l-6.6 51.86c0 3.771-3.772 7.543-7.544 7.543s-6.6 0-7.543-7.543zm7.543 50.917c-7.543 0-15.086-4.715-15.086-15.087s7.543-14.143 15.086-14.143c6.6 0 14.144 3.771 14.144 14.143s-7.543 15.087-14.144 15.087z"/>
</svg>