<svg xmlns="http://www.w3.org/2000/svg" viewBox="0 0 512 512">
	<path d="M501.23 103.97c0 57.87-45.119 102.988-102.008 102.988-59.831 0-104.95-45.119-104.95-102.989C294.272 43.157 339.391 0 399.222 0c56.89 0 102.008 43.157 102.008 103.97zm-103.97 77.486c42.177 0 78.468-37.272 78.468-77.487 0-44.138-36.291-78.467-78.467-78.467-40.215 0-77.487 34.33-77.487 78.467 0 40.215 37.272 77.487 77.487 77.487zm.981-121.625v39.234h51.985v25.502H372.74V59.831h25.502zm-80.429 174.59H88.295l-37.272-33.348h227.556zm-65.716 187.341l248.153-210.88V512H1.981V210.881zm212.843 54.928V287.387L252.096 465.9 37.29 287.387V476.69H464.94z"/>
</svg>