<svg xmlns="http://www.w3.org/2000/svg" viewBox="0 0 512 512">
	<path d="M350 75c86 0 156 70 156 157 0 86-70 156-156 156-37 0-71-14-98-36-26 18-56 29-90 29C76 381 6 311 6 224 6 138 76 68 162 68c38 0 72 14 98 36 26-18 57-29 90-29zm-97 235c21-23 34-52 34-86 0-29-11-56-28-78-21 23-34 53-34 86 0 29 11 56 28 78zM37 224c0 69 56 125 125 125 25 0 48-7 67-19-22-27-35-61-35-98 0-42 16-80 43-108-21-15-47-25-75-25-69 0-125 57-125 125zm313 133c69 0 125-56 125-125s-56-125-125-125c-25 0-48 7-67 19 22 27 36 61 36 98 0 42-17 80-43 108 20 15 46 25 74 25z"/>
</svg>