<svg xmlns="http://www.w3.org/2000/svg" viewBox="0 0 512 512">
	<path d="M1.5 350V191h477c17 0 32 15 32 32v127c0 19-13 32-32 32h-109c-7 39-41 64-78 64-39 0-70-27-78-64h-3c-7 37-40 64-77 64-39 0-71-25-79-64h-21c-19 0-32-13-32-32zm32-127v127h21c8-37 40-63 79-63 37 0 70 26 77 63h3c8-37 39-63 78-63 37 0 71 26 78 63h109V223h-445zm214 159c6 19 23 32 44 32s39-13 45-32c2-5 3-10 3-16s-1-11-3-16c-2-6-6-12-11-18-9-9-21-14-34-14s-24 5-33 14c-5 6-9 12-11 18-2 5-3 10-3 16s1 11 3 16zm-160-32c-1 5-2 10-2 16s1 11 2 16c2 7 6 13 11 18 11 9 22 14 35 14 21 0 38-13 44-32 2-5 3-10 3-16s-1-11-3-16c-2-6-6-12-11-18-9-9-20-14-33-14s-24 5-35 14c-5 5-9 11-11 18z"/>
</svg>