<svg xmlns="http://www.w3.org/2000/svg" viewBox="0 0 512 512">
	<path d="M130 120V0c47 3 89 31 110 72zm-15 132C51 252 0 199 0 136 0 82 40 27 96 19v120l57 104c-13 6-25 9-38 9zm122-105c0 33-28 71-56 87l-47-82 97-42c4 12 6 24 6 37zm126 44l140 245c3 5 5 9 6 14 1 1 1 2 1 3l1 7c1 1 1 2 1 3v4c0 15-6 26-17 34-13 7-25 11-37 11H180c-27 0-52-17-52-46-1-3-1-5-1-7 0-9 5-14 9-23l140-245c11-19 25-28 44-28 18 0 32 9 43 28zm114 276v-3c-1-1-2-3-2-5s-1-4-3-7L333 209c-3-7-8-11-13-11-3 0-5 0-6 1-2 1-5 5-9 10L167 452c-3 7-5 11-5 12v2c0 8 11 11 18 11h278c4 0 7 0 9-1l6-3c3-1 4-3 4-6zm-157-95c-8 0-11-1-15-20l-5-65c0-13 6-19 19-19s19 6 19 19l-4 65c-4 19-7 20-14 20zm0 35c11 0 17 6 17 18 0 5-2 9-5 12s-7 5-12 5c-6 0-10-2-13-5s-5-7-5-12c0-12 6-18 18-18z"/>
</svg>