<svg xmlns="http://www.w3.org/2000/svg" viewBox="0 0 512 512">
	<path d="M192 406c-4-5-8-10-13-17s-8-13-9-19c-2-6-3-11-3-16 0-14 5-24 15-34 16-16 26-28 30-35s6-14 6-23v-4c-1-8-8-15-19-20-8-3-15-4-23-4-28 0-72 24-75 53-2 9-3 16-3 22 0 27 11 51 22 75 1 3 2 5 3 7l2 6c4 11 5 23 5 35 1 9 2 19 3 28 1 10 5 17 10 22 4 3 10 5 18 5h8c23-2 41-13 41-38 0-9-3-22-8-30-1-1-3-3-4-6-2-2-4-4-6-7zm202-157c3-8 7-17 12-28 6-14 10-30 10-45 0-42-37-76-79-76-9 0-17 1-22 4-12 4-19 10-20 19 0 28 17 44 36 62 13 13 15 17 15 34 0 5-1 10-2 16-2 6-5 12-10 19s-9 12-13 17c-2 3-4 5-5 7-2 3-4 5-5 7-5 7-8 21-8 30 0 7 2 13 5 18 5 11 17 17 36 19 3 1 6 1 9 1 7 0 12-2 17-6 5-5 9-12 10-22 1-9 2-19 3-28 1-7 1-13 2-19 0-5 1-11 3-16l3-6s2-4 3-7zM87 233h-2c-3 0-5-1-7-4-3-2-5-5-6-9-1-2-1-4-1-6 0-6 3-10 9-12 1-1 2-1 3-1 2 0 4 1 7 3 2 3 4 6 5 11v4c0 7-1 12-8 14zm20-21h-2c-6 0-11-9-12-14v-5c0-7 3-12 9-13h2c3 0 5 1 8 4 2 3 3 6 4 10v5c0 7-3 12-9 13zm25-16c-10 0-16-11-16-20s6-21 16-21c11 0 15 12 15 21s-5 20-15 20zm109 61v4c0 14-3 26-9 36s-17 23-33 40c-6 5-9 11-9 17 0 2 1 5 3 10 1 5 7 14 17 27 4 5 8 11 12 17 6 13 11 28 11 43 0 9-2 18-7 27-3 7-9 13-17 20-8 6-20 10-37 12-2 0-4 0-5 1-15 0-27-1-39-12-9-7-15-17-17-30-2-12-3-24-4-36 0-13-1-22-3-28-1-1-2-3-2-5-14-28-26-57-26-89 0-9 1-20 4-32 2-11 9-23 21-35 25-25 41-32 75-32 11 0 22 2 31 5 21 9 33 22 34 40zm-70-63c-5-1-10-4-13-9-4-5-6-12-6-20 2-12 7-26 21-26 5 1 10 4 14 9 3 5 5 12 5 19-2 11-8 27-21 27zm51-63h3c14 2 20 18 20 31 0 2 0 4-1 7-1 14-9 33-26 33h-2c-7-1-12-5-15-12-3-6-5-12-5-19 0-3 0-5 1-8 1-10 5-18 10-24 5-5 10-8 15-8zm76-61h-2c-16 0-26-19-27-33-1-3-1-5-1-7 0-13 6-29 20-31h3c5 0 11 3 16 8 5 6 8 14 9 24 1 3 1 5 1 8 0 7-1 13-4 19-3 7-8 11-15 12zm45-8c-5 0-10-3-14-8-5-5-7-11-7-19v-3c0-12 6-23 18-25 14 0 20 15 21 27v3c0 11-7 23-18 25zm-37 20c9-3 20-5 31-5 7 0 17 1 30 3 26 4 61 39 68 64 2 12 3 23 3 32 0 30-9 57-23 83-4 7-7 16-7 24-1 5-1 10-2 16-1 11-2 23-4 35-2 13-8 23-17 31-9 7-21 11-34 11-4 0-7 0-9-1-34-2-62-23-62-59 0-15 5-30 11-43 2-4 6-9 12-16 10-13 16-23 18-28 1-5 2-8 2-10 0-6-3-12-8-17-23-22-43-43-43-76v-4c1-18 13-31 34-40zm76-18c-10 0-16-11-16-20s6-21 16-21c11 0 15 12 15 21s-5 20-15 20zm26 16h-2c-6-1-9-6-9-13v-5c1-4 3-7 5-10 2-2 4-3 7-3h2c6 1 9 6 9 13v4c-1 6-4 14-12 14zm23-10h2c6 1 9 4 9 11 0 2 0 4-1 7-1 6-6 13-13 13h-2c-5-2-8-6-8-11 0-2 0-4 1-7 2-9 6-13 12-13z"/>
</svg>