<svg xmlns="http://www.w3.org/2000/svg" viewBox="0 0 512 512">
	<path d="M191 194h129l-18-42h-91zm64 115l91-59-8-16H174l-8 16zm-36 24l-69-46-57 130zm73 0l128 84-59-130zM252 60l-24 52h55l-23-52c-1-4-2-7-4-8-1 1-2 4-4 8zm201 427h-4c-9 0-20-5-30-13l-131-93c-17-12-48-12-65 0L93 474c-11 8-20 13-29 13h-6c-5 0-9-1-13-5-12-10-15-28-4-51l126-279H65v82c0 11-9 20-20 20s-20-9-20-20v-93c0-1 1-2 1-4 0-1-1-4-1-5 0-11 9-20 20-20h140l30-69c13-28 32-32 41-32 10 0 27 4 40 32l31 69h140c10 0 20 9 20 20v102c0 11-10 20-20 20-11 0-20-9-20-20v-82H346l125 279c10 23 9 41-3 51-4 4-9 5-15 5z"/>
</svg>