<svg xmlns="http://www.w3.org/2000/svg" viewBox="0 0 512 512">
	<path d="M6 168h500v312H6V168zm31 31v250h438V199H37zm85 188c-1-3-2-7-1-11l15-61c1-3 3-6 6-8 2-1 4-2 6-2s3 1 5 1c3 2 6 4 8 8s3 8 2 11l-6 26 183-82-25-9c-5-1-8-4-10-7-1-4-2-7-1-12s8-10 13-10c2 0 3 1 5 1l58 22c4 1 7 4 8 7 2 4 3 8 2 12l-15 60c-1 4-3 7-6 9h-11c-4-2-7-4-9-8-2-3-2-7-1-11l6-26-183 82 25 9c4 1 7 4 9 8 2 3 2 7 1 11s-3 7-6 9h-11l-58-21c-4-2-7-4-9-8zm92-275c-4-5-6-11-6-19 0-7 0-13 1-16 0-1 0-2-1-3V64c0-6 1-9 4-9 5 0 8 3 10 10s3 13 4 16c0 1 0 4 1 9 1 0 1 1 1 3 4 7 10 13 18 13 3 0 6-1 9-3 4-1 7-3 9-6 1-4 2-7 4-10l-2-10-32-65c0-2-1-5-1-7 0-17 8-25 25-25 11 0 19 6 21 18 2 4 2 7 2 9s-1 5-2 9c-2 3-4 6-6 8-1 4-2 6-2 7 0 4 2 8 5 11 4 4 8 9 13 14 4 6 7 12 9 19 2 5 4 10 4 16 0 8-6 20-10 27-3 4-8 9-15 14-2 2-5 4-8 5-5 2-11 3-17 4-9-2-18-4-25-11-6-5-11-11-13-18zM84 137l83-84v37l-47 47H84zm261-47V54l83 83h-36z"/>
</svg>