<svg xmlns="http://www.w3.org/2000/svg" viewBox="0 0 512 512">
	<path d="M126 17c4 3 6 7 6 11 0 5-2 8-6 11l-73 65h157c11 0 16 6 16 16s-5 16-16 16H53l73 66c4 4 6 8 6 12 0 8-10 16-17 16-4 0-7-2-11-5l-88-83c-7-6-10-14-10-22 0-9 3-17 10-22l88-81c4-4 7-5 11-5 3 0 7 1 11 5zm282 0l88 83c7 5 10 13 10 22 0 8-3 16-10 21l-88 83c-3 4-6 6-10 6-7 0-17-8-17-16 0-3 2-7 5-12l73-66H303c-10 0-16-6-16-16s6-16 16-16h156l-73-66c-3-3-5-7-5-11 0-2 2-6 5-12 4-3 8-5 12-5s7 2 10 5zm13 283v168c0 3-2 6-4 9-3 2-6 3-10 3s-7-1-10-3c-2-3-4-6-4-9V300c0-10 5-14 14-14s14 4 14 14zm-96-14c9 0 14 4 14 14v168c0 3-2 6-4 9-3 2-6 3-10 3s-7-1-10-3c-2-3-4-6-4-9V300c0-10 5-14 14-14zm-68 14v168c0 3-2 6-4 9-3 2-6 3-10 3s-7-1-10-3c-3-3-4-6-4-9V300c0-10 5-14 14-14s14 4 14 14zm-82 0v168c0 3-2 6-4 9-3 2-6 3-10 3s-7-1-10-3c-3-3-4-6-4-9V300c0-10 5-14 14-14s14 4 14 14zm-96-14c9 0 13 4 13 14v168c0 3-1 6-3 9-3 2-6 3-10 3s-7-1-10-3c-3-3-4-6-4-9V300c0-10 5-14 14-14z"/>
</svg>