<svg xmlns="http://www.w3.org/2000/svg" viewBox="0 0 512 512">
	<path d="M0 350.697c0-94.244 40.779-188.488 124.149-236.516h87.9c22.655 0 41.686-13.593 49.841-35.342 67.059 5.437 119.618 19.936 171.271 66.152l-50.747 32.623-12.687-9.062c-34.435-21.748-72.495-32.623-113.274-32.623-52.56 0-108.743 18.124-143.179 58.903-38.966 38.966-55.278 96.056-55.278 149.522 0 10.874-.906 20.842 2.719 32.623 2.719 9.968 3.625 21.749 3.625 33.53 0 6.343-2.719 13.592-9.062 20.842-5.437 5.437-11.78 8.155-19.936 8.155s-15.406-3.624-19.937-9.968c-4.53-4.53-8.155-12.686-10.874-22.655C1.812 398.726.906 388.758 0 378.79v-28.092zm201.175 5.438c0-15.406 5.437-28.093 17.218-39.873 2.719-.906 7.25-4.531 14.499-10.874l65.246-44.404L452.191 159.49l-125.96 192.114-29.905 41.684c-12.687 11.781-26.28 17.218-39.873 17.218-14.499 0-27.186-5.437-38.06-17.218-11.78-9.968-17.218-21.748-17.218-37.153zm230.174-121.43l33.529-51.654C499.313 227.455 512 286.358 512 341.635v32.623c-.906 10.875-.906 22.655-4.531 29.905-3.625 9.968-5.437 18.124-9.968 24.467s-10.874 9.968-19.03 9.968-15.406-2.718-21.749-7.25c-5.437-7.249-8.156-13.592-8.156-19.936 0-12.686.907-24.467 3.625-34.435 2.719-11.78 3.625-22.655 3.625-32.623 0-40.779-8.156-77.933-24.467-109.65zM88.807 55.277V41.685h14.5v14.5c0 6.342 2.718 12.686 7.249 17.217 4.53 3.625 9.968 6.343 18.124 8.156l75.214-.907c14.499 0 26.28-9.968 26.28-25.373v-7.25c0-7.25-2.72-13.593-8.156-18.124-4.531-4.53-10.875-7.25-17.218-7.25h-48.935L141.366 8.157h62.528c5.437 0 10.874.906 15.405 3.625 4.531.906 9.062 3.624 13.593 8.155 8.156 7.25 11.78 16.312 11.78 28.092v7.25c0 5.437-.906 10.874-3.624 15.405-5.437 12.687-9.062 16.312-21.749 21.749-4.53 2.718-9.968 3.625-15.405 3.625l-75.214-.907c-9.968 0-19.937-3.624-28.999-10.874-2.718-2.718-5.437-7.25-8.155-13.593-1.813-2.718-2.719-8.156-2.719-15.405zM0 52.559c0-22.655 17.218-40.778 39.873-40.778h65.246c22.654 0 37.154 19.936 40.778 40.778l-.906 7.25v.906h-13.593L128.68 45.31c0-2.719-1.813-6.344-5.438-10.875-4.53-4.53-9.061-7.25-14.499-7.25h-3.624l-65.246-.905c-8.156.906-13.593 3.624-18.124 8.155-4.531 6.344-7.25 12.687-7.25 18.124v7.25c0 13.593 11.78 25.373 25.374 25.373H76.12l14.5 14.5H39.872c-11.781 0-20.843-3.625-28.092-11.781-4.531-4.531-7.25-9.062-8.156-12.687C.906 70.684 0 65.246 0 59.81v-7.25zm230.173 301.763c0 6.343 2.719 12.687 8.156 19.03 6.344 5.437 11.78 8.156 18.124 8.156 7.25 0 13.593-2.719 19.936-8.156 5.438-6.343 8.156-12.687 8.156-19.03 0-8.156-2.718-15.405-8.156-19.936-4.53-5.437-11.78-8.156-19.936-8.156-7.25 0-13.593 2.719-18.124 8.156-5.437 4.53-8.156 11.78-8.156 19.936z"/>
</svg>