<svg xmlns="http://www.w3.org/2000/svg" viewBox="0 0 512 512">
	<path d="M22 137c-11 0-16-5-16-16 0-10 5-15 16-15h157l-73-67c-4-4-6-7-6-11 0-5 2-8 6-11 4-4 8-6 11-6 4 0 7 2 11 6l88 83c2 2 4 4 5 6 4 5 5 10 5 15 0 6-1 12-4 16-1 3-3 5-6 7l-88 81c-4 3-7 5-11 5-3 0-7-2-11-5-4-4-6-8-6-12s2-8 6-11l73-65H22zm269 0c-2-4-4-10-4-16 0-5 2-10 5-15 1-2 3-4 5-6l88-83c3-4 7-6 11-6s8 2 11 6c4 3 5 7 5 11 0 2-1 6-5 11l-73 67h157c10 0 15 5 15 15 0 11-5 16-15 16H334l73 66c4 4 5 7 5 11 0 8-8 18-16 18-4 0-8-2-11-6l-88-82c-2-2-4-4-6-7zM147 299c0-9 5-14 14-14s14 5 14 14v168c0 3-2 6-4 9-3 3-6 4-10 4-7 0-14-5-14-13V299zm82 168V299c0-9 5-14 14-14s14 5 14 14v168c0 3-2 6-4 9-3 3-6 4-10 4-7 0-14-5-14-13zm86 9c-2-3-4-6-4-9V299c0-9 5-14 14-14s14 5 14 14v168c0 3-2 6-4 9-3 3-6 4-10 4s-7-1-10-4zm78-177c0-9 5-14 14-14s14 5 14 14v168c0 3-2 6-4 9-3 3-6 4-10 4s-7-1-10-4c-2-3-4-6-4-9V299zM79 480c-7 0-14-5-14-13V299c0-9 5-14 14-14s13 5 13 14v168c0 3-1 6-3 9-3 3-6 4-10 4z"/>
</svg>