<svg xmlns="http://www.w3.org/2000/svg" viewBox="0 0 512 512">
	<path d="M260 150c-3-9-4-20-4-31C256 53 311 0 377 0c64 0 119 55 119 119 0 65-53 121-119 121-51 0-90-28-112-74-2-5-4-10-5-16zm-244 0c0-9 3-16 8-21 5-6 13-10 21-10h181v31H45v301h421V240h30v211c0 8-3 14-8 20-6 6-14 9-22 9H45c-16 0-29-13-29-29V150zm269-31c0 4 2 9 2 14 1 4 2 11 4 17 12 36 48 61 86 61 51 0 89-42 89-92s-39-89-89-89-92 38-92 89zm-33 298c-12 0-22-9-22-21V240c0-12 10-21 22-21s21 9 21 21v156c0 12-9 21-21 21zm-111 0c-12 0-22-9-22-21V274c0-12 10-22 22-22s21 10 21 22v122c0 12-9 21-21 21zm223 0c-12 0-21-9-21-21v-82c0-12 9-22 21-22 13 0 22 10 22 22v82c0 12-9 21-22 21zm57-267h-61V75c0-10 4-15 15-15 10 0 15 5 15 15v44h31c10 0 15 6 15 17 0 9-5 14-15 14z"/>
</svg>