<svg xmlns="http://www.w3.org/2000/svg" viewBox="0 0 512 512">
	<path d="M1.466 165.192V59.894L105.798 0l103.366 59.894v106.264l-103.366 60.86zM23.685 153.6l82.113 49.268 81.147-49.268V72.453L105.798 24.15 23.685 72.453V153.6zM266.16 401.872c0-61.827 48.302-105.298 91.774-110.129V404.77l53.132 98.536c-11.592 5.796-23.185 8.694-35.743 8.694-58.929 0-109.163-49.268-109.163-110.128zm-52.166 92.74H1.466V282.082h29.947v181.615h182.581v30.913zm175.82-221.223c46.369 2.898 85.01 29.947 104.331 68.588l-104.332 45.404V273.39zm3.863 143.94l91.774-39.608c3.864 10.626 5.796 22.219 5.796 34.777 0 24.151-19.32 63.759-53.132 82.113zm-7.728-271.457V0h34.777v145.872H385.95zM494.145 204.8H312.53v-23.185h181.615V204.8zM43.972 371.925c0-4.83 1.932-8.695 5.796-10.627l76.317-38.641 77.283 56.996c2.898 2.898 3.864 5.796 3.864 9.66 0 6.762-3.864 10.627-11.592 10.627 0 0-1.932-.966-6.763-1.932l-64.724-50.234-64.725 32.845c-3.864.966-5.796 1.932-5.796 1.932-3.864 0-6.762-1.932-8.694-6.762-.966-.966-.966-1.932-.966-3.864zm413.464-226.053V36.709h36.71v109.163h-36.71zM39.142 76.317l96.603 46.37-21.253 62.792zm273.388 69.555v-73.42h36.71v73.42h-36.71zM84.545 373.857l19.321-9.66 22.219 39.607 24.15-28.981 17.39 13.524-44.438 54.098zm53.132-270.491L79.715 76.317l21.253-35.743 52.166 54.098zM43.006 300.438c0-7.729 3.864-11.593 10.626-11.593 2.898 0 6.762 1.932 10.626 5.797l23.185 40.573-19.32 10.627-23.185-39.608c0-2.898-.966-3.864-1.932-5.796zm145.871 61.826l-18.354-13.524 16.422-20.287c1.932-2.898 4.83-3.864 8.695-3.864l1.932.966c6.762 0 8.694 1.932 8.694 9.66 0 .966-.966 3.864-1.932 7.728zM57.497 136.211l-18.355 9.66 11.592-18.354z"/>
</svg>