<svg xmlns="http://www.w3.org/2000/svg" viewBox="0 0 512 512">
	<path d="M35.756 240c0-85 60-154 135-154 54 0 102 36 124 92 1 4 1 10 0 14-3 4-6 8-11 9h-13c-4-3-7-5-8-11-18-43-53-69-92-69-55 0-100 53-100 119s45 119 100 119c45 0 85-36 97-88h-91c-10 0-18-8-18-18 0-9 8-17 18-17h116c10 0 18 8 18 17 0 2-1 3-1 3v122c0 8-8 17-18 17-9 0-17-9-17-17v-39c-26 36-63 56-104 56-75 0-135-69-135-155zm341-59c-4-3-7-8-7-13V17c0-9 8-17 17-17 11 0 19 8 19 17v141l63 50c8 5 10 17 4 25-4 4-9 7-15 7-4 0-8-1-10-4zm-7 282V284c0-9 8-17 17-17 11 0 19 8 19 17v179c0 9-8 17-19 17-9 0-17-8-17-17z"/>
</svg>