<svg xmlns="http://www.w3.org/2000/svg" viewBox="0 0 512 512">
	<path d="M49 511c-27 0-48-22-48-48V49C1 22 22 1 49 1h414c27 0 48 21 48 48v414c0 26-21 48-48 48H49zM33 49v414c0 9 7 16 16 16h414c9 0 16-7 16-16V49c0-9-7-16-16-16H49c-9 0-16 7-16 16zm32 15h318v64H65V64zm382 160H161v-48h286v48zM161 328v-48h286v48H161zm95 103v-48h191v48H256zM65 304c0-14 10-24 24-24 13 0 24 10 24 24 0 13-11 24-24 24-14 0-24-11-24-24zm0-104c0-13 10-24 24-24 13 0 24 11 24 24s-11 24-24 24c-14 0-24-11-24-24zm120 231c-14 0-24-11-24-24s10-24 24-24c12 0 23 11 23 24s-11 24-23 24z"/>
</svg>