<svg xmlns="http://www.w3.org/2000/svg" viewBox="0 0 512 512">
	<path d="M4 398c-3-3-4-6-4-9v-42c0-4 2-8 5-11 3-2 6-3 9-3h338V215c0-4 2-8 5-11 3-2 6-3 9-3h133c9 0 13 5 13 14v174c0 5-1 8-4 10-3 3-6 4-9 4h-61c-1 1-1 2-1 2l-1 1c0 1 0 1-1 2l-1 1c0 1 0 1-1 2l-4 4c-1 1-1 1-2 1l-3 3c-1 0-2 0-3 1s-1 1-2 1h-1l-1 1h-2c-1 1-1 1-2 1h-4c-1 1-2 1-3 1s-1 0-2-1h-4c-1 0-1 0-2-1h-2c-1-1-2-1-3-2h-2c-1-1-1-1-2-1l-3-3c-1 0-2-1-3-2l-3-3c-1-1-2-2-3-6l-2-2H175c-1 2-1 2-2 5l-12 11c-1 0-1 0-2 1h-1c-1 1-2 1-4 2h-2c-1 1-1 1-2 1h-3c-1 1-2 1-3 1s-2 0-2-1h-4c-1 0-2 0-2-1-1 0-2 0-4-1-1 0-2 0-2-1h-2c0-1-1-1-2-1l-3-3c-1 0-1 0-1-1l-3-3c-1 0-1 0-1-1l-3-3v-1c-1-2-2-2-2-4h-7c0 2-1 2-2 4v1l-3 3c0 1 0 1-1 1v1c-1 1-2 2-3 2l-4 4-4-7 3 7c-1 1-2 1-2 1h-1c-1 1-2 1-5 2-1 1-2 1-3 1h-3c-1 1-2 1-3 1s-2 0-2-1h-4c-1 0-1 0-2-1-1 0-2-1-5-2h-3l-3-3c-1 0-2-1-3-2l-3-3c-1 0-1 0-1-1l-2-3h-1v-1l-1-1c0-1 0-2-1-3H14c-5 0-8-2-10-5zm1-108c-2-5-3-11-3-17v-30c0-31 18-47 46-54h246c20 0 39 8 48 27 1 1 1 1 1 2l1 6c1 1 1 1 1 2 2 5 3 10 3 17v30c0 20-8 39-27 48l-9 3c-5 2-11 3-18 3H57c-20 0-39-8-48-27-3-3-3-7-4-10zm45-86c-20 5-33 16-33 39v30c0 2 0 4 1 6 1 1 1 1 1 2v2c1 1 1 1 1 2 1 1 1 1 1 2l1 4c1 1 1 1 1 2 6 13 17 19 34 19h237c2 0 4 0 6-1 3-1 4-1 7-2 1 0 3-1 7-2 13-7 19-18 19-34v-30c0-2 0-4-1-6-1-1-1-4-1-7-6-17-19-26-37-26H50zm317 144H16v40h25c3-19 15-33 34-33 9 0 17 3 24 9 7 7 10 15 10 24h1c0-9 3-17 10-24 7-6 15-9 24-9s17 3 24 9c5 7 9 15 10 24h194c3-19 15-33 34-33 9 0 17 3 24 9 6 6 10 14 11 24h56V217H367v131zm30-94c0-4 2-8 5-11 3-2 6-3 9-3h56c5 0 8 1 11 4 2 3 3 6 3 10v48c0 4-1 7-4 10-3 1-5 2-8 2h-3l-57-13c-8-2-12-7-12-15v-32zm69 1h-54v31h1l53 12v-43zm-81 148l5-4 2 2v1h1c1 0 1 1 1 2h1l2 2h1c1 1 1 1 2 1h1c1 1 1 1 2 1h1l-1 7 2-6c0-1 0-1 1-1h4c1 0 1 0 2-1h1c1-1 1-1 2-1h1l2-2h1l1-1v-1h1v-1c1 0 1-1 1-2l6 4h1l-7-4c1-1 2-3 3-4 0-1 0-2 1-3v-4c-1-5-3-10-6-13-5-3-9-5-14-5-13 0-19 6-19 18 0 2 0 3 1 4 0 1 0 3 1 4 0 1 0 1 1 2v1l-6 4h1zm-316 5v-1h1c0 1 1 1 2 1h6v1c1-1 1-1 3-2h1c1 0 1 0 2-1h1l4-4c0-1 0-1 1-1l1-1v-1c1-1 2-3 2-4 1-1 1-3 1-6 0-6-2-9-5-14-5-3-9-5-14-5-13 0-19 6-19 18 0 4 1 7 2 8v2l1 1v1l1 1h1v1l2 2h1c1 1 1 1 1 2h1l2 1v1h1zm57-13c0 1 1 3 2 4v1l6 6h1c1 0 1 0 1 1h2l2 1h7c1 0 2 0 2-1h2c1-1 1-1 2-1h1c1-1 1-1 1-2h1l2-2v-1c1-1 1-1 2-1v-1c1-1 1-1 1-2s0-1 1-2 1-3 1-7c0-5-2-8-5-13-5-3-9-5-14-5-13 0-19 6-19 18 0 4 0 6 1 7zm46 13h1v-1l-7-4zm-119-5l-7 4 1 1zm63 4h1l4-3v-1zm-13 0l-5-4v1zm326-3l6 4-5-4h-1zm-48 2l3-2h-1z"/>
</svg>