<svg xmlns="http://www.w3.org/2000/svg" viewBox="0 0 512 512">
	<path d="M327 104l29-28 42 44 87-109 27 28-113 137zM0 255h70c3-11 7-20 12-28l-50-50 60-59 49 48c9-5 18-8 29-11V85h85v70c9 3 19 6 28 11l24-23 60 59-23 25c5 8 8 17 11 28h70v85h-70c-3 10-7 20-12 29l49 48-59 61-50-50c-8 5-17 9-28 12v70h-85v-70c-10-3-20-7-29-12l-48 50-61-60 50-49c-5-9-9-19-12-29H0v-85zm170-3c-12 12-21 22-22 41-1 1-1 4-1 8 0 15 5 28 14 39 3 4 6 7 9 10 16 13 30 15 50 15 13-2 24-8 35-17 13-13 20-29 20-47 0-35-28-64-63-64-16 0-30 5-42 15z"/>
</svg>