<svg xmlns="http://www.w3.org/2000/svg" viewBox="0 0 512 512">
	<path d="M16 289.736v-31.752h476.28v31.752H16zm127.008-79.38H79.504V0h63.504v210.357zm142.883 0h-63.503V67.474h63.503v142.884zm142.884 0h-63.504v-79.38h63.504v79.38zm-158.76 127.008h63.504v63.504h-63.503v-63.504zm0 174.636v-63.504h63.504V512h-63.503zM79.505 400.868v-63.504h63.504v63.504H79.504zM143.008 512H79.504v-63.504h63.504V512zm285.767-111.132h-63.504v-63.504h63.504v63.504zM174.76 337.364h63.504v63.504H174.76v-63.504zM365.27 448.496h63.504V512h-63.504v-63.504zm-128 63.504H174.76v-63.504h62.511V512z"/>
</svg>