<svg xmlns="http://www.w3.org/2000/svg" viewBox="0 0 512 512">
	<path d="M50.972 221c-8 0-16-8-16-17 0-8 8-16 16-16h109V95c0-8 8-16 17-16 8 0 16 8 16 16v93h108c9 0 17 8 17 16 0 9-8 17-17 17h-250zm-16 52c0-8 8-16 16-16h250c9 0 17 8 17 16 0 10-8 16-17 16h-108v93c0 9-8 16-16 16-9 0-17-7-17-16v-93h-109c-8 0-16-6-16-16zm335-256c0-9 8-17 19-17 10 0 18 8 18 17v141l63 50c8 5 9 17 4 24-4 5-10 8-15 8-4 0-8-2-11-4l-70-55c-5-3-8-8-8-14V17zm0 446V284c0-9 8-17 19-17 10 0 18 8 18 17v179c0 9-8 17-18 17-11 0-19-8-19-17z"/>
</svg>