<svg xmlns="http://www.w3.org/2000/svg" viewBox="0 0 512 512">
	<path d="M0 379c0-62 43-142 105-174-19-31-36-60-36-79 0-32-3-41 8-41 13 0 21 23 38 23h3c11-1 13-12 24-13h3c11 0 24 10 33 11 31-8 26-21 37-21s8 8 8 41c0 20-12 46-31 73 70 24 128 112 128 180 0 108-40 133-161 133C50 512 0 487 0 379zm32 0c0 81 26 101 127 101 89 0 129-4 129-100 0-67-66-155-133-155-68 0-123 93-123 154zm352-123c-71 0-128-58-128-128C256 57 313 0 384 0s128 57 128 128c0 70-57 128-128 128zm0-228c-55 0-100 43-100 100 0 56 44 99 100 99s100-43 100-99c0-57-43-100-100-100zM88 400l32-3c1 7 3 13 6 17 1 1 6 5 15 10v-50c-19-5-31-12-37-21-7-9-11-20-11-33s4-24 12-33c7-9 19-14 36-16v-25h18v25c15 3 26 7 33 14 8 7 13 16 15 29l-31 3c-1-9-6-15-17-19v47c29 8 53 18 53 52 0 16-4 28-13 37-9 10-22 16-40 18v21h-18v-20c-31-6-49-21-53-53zm-1-281c1 27 25 56 41 79 12-4 24-6 37-6 12-15 32-33 37-62-7 3-20 9-27 10h-3c-9 0-18-8-26-15l-1-1c-3 0-5 6-6 6-8 4-11 8-20 8h-3c-16-3-26-16-29-19zm283-55h32v64h46v32h-78V64zM178 388c-3-4-10-7-19-9v46c9-1 15-4 18-8 3-3 5-9 5-16 0-6-1-10-4-13zm-56-71c0 1 0 6 4 13 3 3 8 6 15 9v-41c-8 2-19 10-19 19z"/>
</svg>