<svg xmlns="http://www.w3.org/2000/svg" viewBox="0 0 512 512">
	<path d="M32 320v64H0v-64c0-70 57-128 128-128h32c-53 0-96-43-96-96s43-96 96-96 96 43 96 96-43 96-96 96h32c35 0 67 15 91 38-9 7-16 15-23 23-18-19-41-29-68-29h-64c-53 0-96 43-96 96zM160 32c-35 0-64 29-64 64s29 64 64 64 64-29 64-64-29-64-64-64zM76 431v-82c0-4 2-9 5-14-3-5-5-10-5-13h244V186h45c52 0 98 35 107 91l7 45h5c15 0 28 12 28 27v82c0 15-13 27-28 27h-29c-5 31-33 54-66 54s-60-23-67-54h-57c-7 31-33 54-66 54s-60-23-67-54h-28c-16 0-28-12-28-27zm289-218h-17v109h104l-7-41c-7-39-41-68-80-68zm119 136H104v82h28c7-31 34-55 67-55s59 24 66 55h57c7-31 34-55 67-55s61 24 66 55h29v-82zM350 458c7 16 20 27 39 27s32-11 39-27c1-5 2-10 2-14 0-3-1-8-2-13-5-16-20-28-39-28s-34 12-39 28c-1 5-2 10-2 13 0 4 1 9 2 14zm-190 0c7 16 20 27 39 27s32-11 39-27c1-5 2-10 2-14 0-3-1-8-2-13-5-16-20-28-39-28s-34 12-39 28c-1 5-2 10-2 13 0 4 1 9 2 14z"/>
</svg>