<svg xmlns="http://www.w3.org/2000/svg" viewBox="0 0 512 512">
	<path d="M341.647 352H256V216.47h85.647V29.177h94.118c14.117 0 25.411 13.177 25.411 25.412 0 7.53-2.823 12.236-6.588 16.941L512 216.471V336c0 8.47-7.53 16-16 16h-17.882c0-36.706-31.06-66.824-67.765-66.824-37.647 0-68.706 30.118-68.706 66.824zM0 451.765v-78.118c0-34.823 28.235-62.118 62.118-62.118h30.117c-34.823-6.588-61.176-38.588-61.176-75.294 0-44.235 35.765-79.059 78.117-79.059s78.118 34.824 78.118 79.06c0 36.705-26.353 68.705-63.059 75.293h32c33.883 0 62.118 27.295 62.118 61.177v79.059H0zM423.53 80h-47.06v136.47h101.648zM256 181.647V80h51.765v101.647H256zm155.294 204.235c-17.882 0-33.882-11.294-33.882-33.882 0-17.882 15.059-33.882 33.882-33.882s33.882 16 33.882 33.882c0 22.588-16 33.882-33.882 33.882z"/>
</svg>