<svg xmlns="http://www.w3.org/2000/svg" viewBox="0 0 512 512">
	<path d="M376 425c30 0 52-22 52-52 0-16-6-29-17-38-11-8-23-13-35-13-27 0-50 25-50 51 0 15 5 27 14 37 10 10 22 15 36 15zM171 56h-52v52h52V56zm111 0h-51v52h51V56zm112 0h-52v52h52V56zM98 221c11 0 17 5 17 16 0 5-1 8-5 12-3 4-7 6-12 6s-9-2-12-6c-4-4-5-7-5-12 0-11 5-16 17-16zm0 68c11 0 17 5 17 17 0 9-8 17-17 17s-17-8-17-17c0-12 5-17 17-17zm0 68c11 0 17 6 17 18 0 9-8 17-17 17s-17-8-17-17c0-12 5-18 17-18zm68 0h52v35h-52c-4 0-8-2-12-5-3-4-5-8-5-12 0-5 2-10 5-13 4-3 8-5 12-5zm52-68v34h-52c-4 0-8-2-12-5-3-4-5-8-5-12 0-5 2-9 5-13 4-2 8-4 12-4h52zm51-34H166c-4 0-8-2-12-6-3-4-5-7-5-12 0-4 2-9 5-12 4-3 8-4 12-4h103c12 0 17 5 17 16 0 5-1 8-4 12-4 4-8 6-13 6zM51 459h167v34H51c-10 0-18-3-25-10-6-7-10-15-10-24V48c0-19 16-35 35-35h411c9 0 16 4 24 10 7 6 10 15 10 25v195h-34v-93H51v309zm445-103v34h-35c-2 10-6 20-12 31l25 25-24 24-25-25c-9 6-19 10-31 12v36h-35v-36c-9-2-19-6-30-12l-26 25-23-24 25-25c-3-6-6-10-7-15-2-5-4-10-5-16h-37v-34h37c2-12 6-22 12-31l-25-26 23-22 26 24c5-3 10-6 15-8 4-1 9-2 15-3v-37h35v36c4 0 10 2 15 4 6 1 11 4 16 8l25-24 23 22-24 26c4 4 6 9 8 15 1 5 2 11 4 16h35z"/>
</svg>