<svg width="61" height="100" viewBox="0 0 61 100" fill="none" xmlns="http://www.w3.org/2000/svg">
<path d="M59.2003 0L60.5962 7.75632C61.6614 13.685 59.9151 19.7706 55.8701 24.2333L49.9415 30.7702L48.5259 22.2654C47.5084 16.1462 49.4762 9.91195 53.821 5.48577L59.2031 0.00280375L59.2003 0Z" fill="url(#paint0_linear_1116_312)"/>
<path d="M1.36323 76.0552C1.73325 77.6474 2.0444 79.2508 2.3135 80.8598C4.16637 91.8902 13.8765 100.255 25.4955 99.9941C26.3 99.9773 27.0933 99.9128 27.8753 99.8147C23.2978 92.9077 20.618 84.5543 20.618 75.5534C20.618 68.3073 22.356 61.4816 25.4198 55.4913C24.6798 58.6981 24.2873 62.045 24.2873 65.4873C24.2873 77.681 29.2012 88.6862 37.0921 96.5126C43.472 92.5153 47.7805 85.4738 47.9318 77.4764C48.0187 72.8764 46.7517 68.5792 44.5036 64.9519C43.5842 63.469 42.7965 61.9077 42.0817 60.3155L38.589 52.5199C32.0408 37.9015 32.2539 21.1442 39.1692 6.69678L35.8783 8.673C23.6706 16.006 16.2675 29.2622 16.4301 43.5022L16.4497 45.3242C16.4357 45.6774 15.9732 45.798 15.7854 45.5008L14.7202 43.8133C13.5064 41.8932 12.5113 39.8413 11.7517 37.6996L10.4426 34.0051L8.96255 37.8146C5.9772 45.4924 5.40536 53.871 7.27786 61.8432C7.33953 62.1011 7.27786 62.3702 7.10967 62.5748C7.0396 62.6617 6.96952 62.7486 6.90224 62.8355C6.63594 63.1747 6.11176 63.1467 5.8875 62.7738C4.4523 60.3856 3.31422 57.8319 2.49851 55.1689L1.64635 52.3826L1.23149 54.3672C-0.262589 61.5236 -0.220542 68.9127 1.35763 76.0524L1.36323 76.0552Z" fill="url(#paint1_linear_1116_312)"/>
<path d="M2.91265 67.2672C2.91265 64.2706 3.19296 61.3413 3.71995 58.5045C3.25743 57.4169 2.85098 56.3041 2.50339 55.1716L1.65123 52.3853L1.23637 54.3699C-0.257706 61.5263 -0.215659 68.9154 1.36251 76.0551C1.73252 77.6473 2.04367 79.2507 2.31277 80.8597C3.45085 87.6349 7.55745 93.401 13.2478 96.7844C6.795 88.7842 2.91265 78.4938 2.91265 67.2672Z" fill="url(#paint2_linear_1116_312)"/>
<path d="M7.22956 60.7555C7.22956 52.9964 9.08524 45.6857 12.3621 39.2693C12.1463 38.7535 11.9444 38.2294 11.7566 37.6996L10.4476 34.005L8.96751 37.8145C6.00739 45.4278 5.42153 53.7336 7.24077 61.6469C7.23517 61.3498 7.22956 61.0554 7.22956 60.7555Z" fill="url(#paint3_linear_1116_312)"/>
<path d="M36.8896 12.2162C37.5456 10.3465 38.3052 8.502 39.1714 6.69397L35.8805 8.67019C23.6728 16.0032 16.2697 29.2593 16.4323 43.4994L16.4519 45.3214L17.2452 41.4334C19.684 29.4864 26.7451 18.9858 36.8868 12.2162H36.8896Z" fill="url(#paint4_linear_1116_312)"/>
<defs>
<linearGradient id="paint0_linear_1116_312" x1="59.1442" y1="-0.0196222" x2="49.8798" y2="30.7478" gradientUnits="userSpaceOnUse">
<stop stop-color="#5D39FF"/>
<stop offset="1" stop-color="#3AB1D2"/>
</linearGradient>
<linearGradient id="paint1_linear_1116_312" x1="24.0388" y1="6.69678" x2="24.0388" y2="100" gradientUnits="userSpaceOnUse">
<stop stop-color="#5553F5"/>
<stop offset="1" stop-color="#39B6D0"/>
</linearGradient>
<linearGradient id="paint2_linear_1116_312" x1="6.69716" y1="52.3853" x2="6.69716" y2="96.7844" gradientUnits="userSpaceOnUse">
<stop stop-color="#31D1C5"/>
<stop offset="1" stop-color="#3CAAD4"/>
</linearGradient>
<linearGradient id="paint3_linear_1116_312" x1="9.28457" y1="34.005" x2="9.28457" y2="61.6469" gradientUnits="userSpaceOnUse">
<stop stop-color="#31D1C5"/>
<stop offset="1" stop-color="#3CAAD4"/>
</linearGradient>
<linearGradient id="paint4_linear_1116_312" x1="27.8005" y1="6.69397" x2="27.8005" y2="45.3214" gradientUnits="userSpaceOnUse">
<stop stop-color="#31D1C5"/>
<stop offset="1" stop-color="#3CAAD4"/>
</linearGradient>
</defs>
</svg>
