<svg width="310" height="263" viewBox="0 0 310 263" fill="none" xmlns="http://www.w3.org/2000/svg">
<g clip-path="url(#clip0_224_310)">
<path d="M261.995 173.013C261.607 164.098 260.445 138.517 268.971 136.191C274.397 134.641 281.373 143.556 282.148 144.718C290.287 155.184 285.636 164.098 286.799 196.657C287.187 211.386 288.349 215.649 285.249 223.401C280.986 233.091 273.622 238.905 268.584 242.006" stroke="#5D36FF" stroke-width="29.2558" stroke-miterlimit="10" stroke-linecap="round"/>
<path d="M45.7383 83.4804C33.3363 78.8292 22.4846 67.5888 17.0587 54.0228C15.5084 50.5344 14.7333 47.046 13.5706 43.5576C12.7955 40.0692 12.0204 36.5808 11.6328 31.9296C11.6328 29.604 11.6328 27.2784 13.5706 22.6272C13.5706 22.2396 14.3458 21.4644 14.7333 20.6892C15.1209 19.914 15.5084 19.1388 16.2836 18.7512C17.0587 17.976 18.2214 17.2008 18.9965 16.4256C19.3841 16.038 20.1592 15.6504 20.5468 15.2628C20.9343 14.8752 22.097 14.8752 22.8721 14.4876C24.4224 14.1 25.9726 13.7124 27.5229 14.1C29.0731 14.1 30.6234 14.4876 31.3985 14.8752C32.1736 15.2628 33.3363 15.6504 33.7239 16.038C34.499 16.4256 34.8866 16.8132 35.6617 17.2008C36.4368 17.976 37.212 18.3636 37.9871 19.1388C38.3746 19.5264 39.1498 20.3016 39.5373 20.6892C40.3125 21.4644 41.0876 22.6272 41.8627 23.4024C43.0254 24.9528 44.1881 26.5032 45.3508 27.666C49.614 33.0924 53.102 37.7436 56.5901 42.3948C60.4657 47.046 63.9538 51.3096 67.8294 55.5732C71.705 59.4492 75.5807 63.7128 79.8439 66.8136L82.9444 69.5268L86.4324 72.24C88.7578 73.7904 91.0832 75.3408 93.4086 76.8912C98.0593 79.992 102.71 82.7052 107.361 85.0308C112.012 87.3564 117.05 88.9068 121.701 90.4572C131.39 93.1704 141.466 93.1704 152.318 91.62C162.782 89.682 173.634 85.0308 184.098 79.2168C194.562 73.4028 205.027 65.6508 215.103 57.5112C211.228 70.302 204.251 81.93 194.95 92.3952C185.648 102.86 174.409 112.163 160.457 117.589C153.481 120.302 146.117 122.628 138.366 123.403C130.615 124.566 122.863 124.178 115.112 123.016C107.361 121.853 100.385 119.527 93.4086 116.814C86.4324 113.713 79.8439 110.225 74.0304 106.349C70.9299 104.411 68.217 102.085 65.504 100.147L61.6284 97.0464C60.4657 95.8836 58.9155 94.7208 57.3652 93.558C51.9393 88.5192 46.901 83.4804 42.6378 77.6664C33.7239 66.426 27.1353 54.0228 21.7094 42.7824L20.5468 38.5188L19.7716 37.356C19.7716 36.9684 19.7716 37.356 19.7716 36.9684C19.7716 36.9684 20.1592 36.9684 20.1592 37.356C20.5468 37.356 20.5468 37.7436 20.9343 37.7436C20.9343 37.7436 22.097 38.1312 22.4846 38.5188C22.8721 38.5188 24.0348 38.9064 25.1975 38.9064C26.3602 38.9064 27.5229 38.9064 28.6856 38.5188C29.0731 38.5188 29.8483 38.1312 30.2358 37.7436C30.6234 37.7436 31.011 37.356 31.3985 36.9684C32.1736 36.5808 32.9488 35.8056 33.3363 35.418C33.7239 35.418 34.1115 35.0304 34.499 34.6428C34.499 34.2552 34.8866 33.8676 34.8866 33.48C35.2741 31.542 34.499 32.7048 34.499 33.48C33.7239 35.418 33.7239 38.1312 33.7239 41.232C33.7239 43.9452 33.7239 47.046 33.7239 49.7592C34.1115 60.9996 37.9871 72.6276 45.7383 83.4804Z" fill="#3BADD3"/>
<path d="M189.912 237.744C186.036 239.682 178.672 243.17 168.596 245.496C90.3081 265.263 -1.93178 192.394 4.26923 173.79C5.43192 170.689 9.30754 168.751 12.0205 167.976C20.1593 165.65 25.9727 173.014 43.0255 183.48C60.4658 194.332 70.93 197.821 74.0305 198.984C80.2315 200.922 85.6574 202.084 89.533 202.86" stroke="white" stroke-width="2" stroke-miterlimit="10" stroke-linecap="round"/>
<path d="M244.574 216.436C232.947 221.087 221.32 225.35 209.693 230.002" stroke="white" stroke-width="2" stroke-miterlimit="10" stroke-linecap="round"/>
<path d="M242.62 156.348C236.419 155.961 226.73 154.798 215.491 152.472C202.314 149.759 201.926 148.596 196.113 148.596C184.098 148.209 175.184 152.86 161.232 160.224C153.481 164.1 155.806 163.713 141.854 171.852C120.925 183.868 120.538 188.519 110.849 191.232C98.4468 194.721 91.4707 190.845 89.5329 195.108C86.4324 200.922 95.3463 215.263 106.973 218.364C116.275 220.69 123.251 215.651 134.103 210.612C144.954 205.573 161.62 200.147 184.486 198.984" stroke="white" stroke-width="2" stroke-miterlimit="10" stroke-linecap="round"/>
<path d="M303.486 150.527C302.324 146.651 301.161 141.225 296.898 136.961C286.434 126.109 266.28 121.845 258.142 129.209C255.429 131.535 254.654 134.636 254.266 136.961C249.228 158.279 250.39 178.435 250.39 179.597C251.553 207.505 249.228 217.97 254.266 241.613C255.816 249.753 257.754 254.792 262.017 257.117C270.544 261.381 284.883 251.303 293.022 241.613C305.037 226.885 304.262 205.567 304.262 197.039" stroke="white" stroke-width="2" stroke-miterlimit="10" stroke-linecap="round"/>
<path d="M304.629 183.48C305.016 176.115 305.404 175.728 305.404 171.077" stroke="white" stroke-width="2" stroke-miterlimit="10" stroke-linecap="round"/>
<path d="M22.5058 10.9912C10.1038 26.4952 9.7162 39.6736 10.1038 45.1C11.654 73.3948 44.2093 100.527 91.4919 107.504" stroke="white" stroke-width="2" stroke-miterlimit="10"/>
<path d="M22.3281 10.9316C29.9792 17.0344 41.4557 26.9514 54.845 39.5383C86.2143 68.5264 89.2747 74.6292 104.577 85.309C123.322 98.2774 147.423 115.06 173.436 108.194C204.423 100.184 217.43 64.3308 219.342 58.6094" stroke="white" stroke-width="2" stroke-miterlimit="10"/>
<path d="M242.638 1.30957C236.824 13.7128 224.422 35.806 200.006 55.5736C174.039 76.504 147.685 83.8684 134.12 86.5816" stroke="white" stroke-width="2" stroke-miterlimit="10"/>
<path d="M31.0117 36.1924C33.3371 47.4328 39.9257 68.7508 58.1411 86.5804C99.9979 127.666 163.171 110.999 166.659 109.836" stroke="white" stroke-width="2" stroke-miterlimit="10"/>
<path d="M170.533 63.3242C160.456 66.8126 145.729 70.301 127.901 71.0762C112.011 71.4638 98.8336 69.5258 89.1445 67.2002" stroke="white" stroke-width="2" stroke-miterlimit="10"/>
<path d="M216.268 76.1146C216.268 77.665 216.655 79.9906 216.268 82.7038C215.88 92.3938 212.392 97.8202 212.78 98.2078C213.555 98.5954 223.631 87.7426 228.282 71.0758C232.933 54.7966 232.545 33.091 224.407 29.9902C220.143 28.4398 217.818 33.4786 204.253 40.4554C189.526 48.2074 176.349 50.533 169.76 52.0834C153.483 55.1842 142.631 54.409 142.631 55.9594C142.631 57.5098 151.157 59.0602 157.358 59.8354C162.784 60.223 167.435 59.8354 170.923 59.4478" stroke="white" stroke-width="2" stroke-miterlimit="10"/>
</g>
<defs>
<clipPath id="clip0_224_310">
<rect width="309.275" height="261.63" fill="white" transform="translate(0 0.535156)"/>
</clipPath>
</defs>
</svg>
