<svg xmlns="http://www.w3.org/2000/svg" viewBox="0 0 512 512">
	<path d="M228.554 474.074c.998 0 2.994 0 4.99.998 14.97 3.992 30.94 4.99 46.908 4.99 19.961 0 41.918-3.992 57.887-11.976 4.99-1.996 8.983-4.99 10.979-6.987 2.994-2.994 3.992-4.99 3.992-4.99 0-.998 0-.998-.998-1.996-1.996 0-3.992-.998-6.986-.998-3.993-.998-7.985-.998-11.977-.998-3.992-.998-7.984-.998-11.977-1.996-8.982-.998-18.963-1.996-27.945-2.994-6.986-1.996-16.967-3.992-22.955-6.987-7.985-4.99-15.97-9.98-23.953-16.967-2.995 3.993-4.99 7.985-6.987 11.977-3.992 4.99-6.986 16.967-8.982 27.946-.998 3.992-1.996 7.984-1.996 10.978zm245.52-246.518c-1.996 0-2.994 0-4.99.998-8.983 1.996-20.96 5.988-28.944 9.98-5.988 1.996-9.98 4.99-14.97 7.985 20.959 26.947 27.945 58.885 27.945 92.818 0 2.994-.998 4.99-.998 6.987 0 3.992 1.996 5.988 1.996 6.986h.998c.998.998 2.994 0 2.994-.998 13.973-24.951 18.963-52.897 19.961-77.848 0-19.961-1.996-36.928-3.992-46.908zm36.928-179.65v135.735c-9.98-7.984-22.955-9.98-26.947-10.978h-4.99v-27.946H31.937v318.379c0 7.984 6.986 15.968 15.968 15.968h125.755c0 1.996 0 3.993.998 5.989 0 9.98 3.992 18.963 9.98 25.949H47.906C20.96 511.002 0 489.045 0 463.096V47.906C0 20.96 20.96 0 47.906 0h415.19c25.949 0 47.906 20.96 47.906 47.906zm-8.983 162.683c3.993 11.976 7.985 35.93 7.985 63.875-.998 30.94-10.979 110.784-53.895 110.784-20.959 0-35.93-17.965-35.93-38.924 0-3.993.998-6.987.998-9.98 0-4.991 0-9.981-.998-14.972 0-8.982-2.994-19.96-8.982-36.928-.998-3.992-3.992-7.984-6.986-12.974-9.981 15.969-15.97 35.93-18.963 55.89-1.997 8.983-9.98 14.971-18.963 12.975-8.983-.998-14.971-9.98-12.975-17.965 3.992-24.95 12.975-52.896 28.943-75.851-.998 0-1.996-.999-2.994-1.997-16.967-12.974-37.926-23.953-59.883-26.947 0 .998-.998.998-.998 1.996-1.996 4.99-1.996 14.97-1.996 25.95 0 11.976.998 23.953 2.994 33.933v5.988c.998 7.985 1.996 14.971 1.996 19.962 0 3.992-1.996 7.984-4.99 10.978-3.992 2.994-7.984 4.99-12.975 3.992-1.996 0-5.988 0-9.98-.998-11.977-.998-28.944-3.992-46.908-3.992-10.979 0-20.96.998-25.95 2.994h-1.996c1.996 16.967 9.98 35.93 21.957 52.897 1.996 1.996 3.992 4.99 5.989 7.984 21.957-16.967 49.902-26.947 77.847-26.947 30.94 0 62.878 11.976 89.825 38.924v.998l8.982 8.982c5.989 6.987 4.99 16.967-.998 22.956-6.986 5.988-16.966 4.99-22.955-.999l-7.984-8.982c-20.96-20.959-44.912-29.941-67.868-29.941-19.96 0-37.926 5.988-53.894 16.966 5.988 3.993 10.978 7.985 15.968 10.979 1.997.998 5.989 1.996 13.973 2.994 6.987 1.996 15.969 2.994 24.951 3.992 3.993 0 7.985 0 11.977.998 18.963 0 38.924 3.993 46.908 23.954 2.995 7.984 2.995 15.968 0 22.955C369.28 503.018 313.388 512 281.451 512c-17.966 0-54.893-2.994-67.868-9.98-1.996 0-.998 0-5.988-1.997-5.989-2.994-8.983-5.988-9.981-11.976-.998-1.996-.998-2.994-.998-4.99v-7.985c0-4.99.998-10.978 1.996-17.965 2.994-11.976 6.986-27.945 12.975-37.926 2.994-5.988 6.986-12.974 11.976-17.965l-8.982-11.976c-14.97-19.961-25.95-44.913-27.946-69.864-.998-7.984 1.997-15.969 6.987-21.957 4.99-4.99 10.978-7.984 16.967-9.98 10.978-2.995 23.953-3.993 36.928-3.993 13.972 0 27.945 1.996 39.922 2.995v-2.995c-.998-10.978-2.995-23.953-2.995-36.927 0-11.977 0-25.95 3.993-36.928 2.994-14.971 15.968-23.954 30.94-23.954 31.937 2.995 58.884 17.965 79.843 33.934.998 1.996 2.994 2.994 3.992 3.992 13.973-11.976 40.92-22.955 58.885-26.947 5.989-.998 12.975-1.996 18.963-.998 5.989 0 17.965 2.994 20.96 14.97z"/>
</svg>