<svg xmlns="http://www.w3.org/2000/svg" viewBox="0 0 512 512">
	<path d="M256.5 12c141 0 255 114 255 256 0 113-73 207-174 242-2 1-4 1-6 1-8 0-12-6-12-13v-70c0-24-8-40-17-48 56-5 117-27 117-126 0-28-10-51-26-68 2-6 5-24 5-28 0-9-1-23-8-40h-5c-3 0-7 0-12 1-11 3-29 8-53 25-21-7-41-8-64-8s-44 1-65 8c-24-17-41-22-53-25-5-1-9-1-12-1h-5c-5 13-8 25-8 36 0 5 3 25 6 32-16 17-26 40-26 68 0 99 59 121 116 126-7 7-13 18-16 35-8 3-19 7-31 7-1 0-26 3-43-28-3-5-6-9-10-13-7-7-17-13-30-13-5 0-8 0-10 1-1 1-1 2-1 3s-2 3 9 11c3 1 7 4 10 7 7 7 12 15 19 30 3 9 9 17 16 23 13 11 32 15 45 15 7 0 16-1 25-3v43c0 7-4 13-11 13-2 0-4 0-6-1-101-32-175-131-175-242 0-142 114-256 256-256z"/>
</svg>