<svg xmlns="http://www.w3.org/2000/svg" viewBox="0 0 512 512">
	<path d="M252 32c54 0 101 17 142 52l32-33 32 117-117-30 30-31c-33-27-75-43-119-43-61 0-114 30-148 74s-40 88-40 115c0 16 2 32 6 48 1 2 1 4 1 5 0 5-4 12-12 15-27 0-27-45-27-69C32 132 132 32 252 32zm-75 240h-34v-32h34c1-10 5-19 12-28l-24-24 22-23 25 24c8-5 17-9 27-12v-34h32v34c11 3 20 7 29 12l24-24 23 23-24 24c7 11 9 17 12 28h34v32h-34c-3 12-7 21-12 28l24 25-23 22-24-24c-9 6-18 10-29 12v34h-32v-34c-10-2-19-6-27-12l-25 24-22-22 24-25c-6-8-10-17-12-28zM86 461L54 344l117 30-30 31c33 27 75 43 119 43 103 0 188-85 188-188 0-14-2-29-5-44-1-1-1-3-1-4 0-5 4-12 13-15 9 0 16 1 19 12 4 17 6 34 6 51 0 120-100 220-220 220-54 0-101-17-142-52zm125-221c-2 5-3 10-3 16 0 5 1 11 3 16 7 20 25 33 45 33 3 0 8-1 15-2 15-7 25-15 30-31 2-5 3-11 3-16 0-20-14-37-33-44-5-2-10-3-15-3-19 0-35 10-43 27-1 1-2 3-2 4z"/>
</svg>