<svg xmlns="http://www.w3.org/2000/svg" viewBox="0 0 512 512">
	<path d="M490 18c15 11 22 24 22 41 0 9-3 17-9 24-9 9-53 57-53 77h-41c0-23 4-47 31-70 29-16 29-24 29-32 0-19-18-28-39-28-19 0-39 9-42 34l-42-5c4-32 35-59 83-59 28 0 48 6 61 18zM270 214l169 167c12 13 12 32 0 44l-46 46c-6 6-13 9-21 9-9 0-17-3-23-9L186 307c-15 7-33 10-52 10-63 0-114-40-134-93h118c19 0 41-14 41-33v-32c0-19-22-32-41-32H0c20-56 71-95 134-95 79 0 142 66 142 143 0 13-2 26-6 39zm102 234l44-44-182-181 5-18c4-12 5-21 5-30 0-60-49-111-110-111-31 0-56 11-77 33h61c35 0 73 27 73 62v32c0 35-38 64-73 64H57c20 19 48 30 77 30 11 0 25-3 41-8l19-8zm89-224c0 19-13 32-32 32-17 0-32-13-32-32s15-32 32-32c19 0 32 13 32 32z"/>
</svg>