<svg width="103" height="92" viewBox="0 0 103 92" fill="none" xmlns="http://www.w3.org/2000/svg">
<path d="M96.4344 12.1727C84.9401 -0.0543907 62.2389 -3.67853 45.8249 4.09407L16.9978 17.7493C9.12355 21.4311 3.69988 27.4075 2.05677 34.213C0.681653 39.8824 1.8903 45.7307 5.49135 50.832C3.02381 53.6139 1.34085 56.7389 0.544166 60.0179C-1.11483 66.9541 1.0553 74.0945 6.56462 79.8272C18.0613 92.0554 40.7626 95.678 57.1741 87.9058L86.0012 74.2506C93.876 70.5692 99.2999 64.5926 100.942 57.7869C102.317 52.1176 101.109 46.2694 97.5102 41.1675C99.9771 38.3856 101.659 35.2608 102.455 31.982C104.115 25.0458 101.945 17.9051 96.4348 12.1727" fill="#FF3E00"/>
<path d="M43.006 80.9904C33.7112 82.7867 23.8958 80.0826 18.4219 74.2177C15.1071 70.7694 13.8013 66.474 14.7994 62.3014C14.9668 61.6233 15.197 60.9546 15.4885 60.3001L16.0316 59.0694L17.5089 59.8759C20.9207 61.7391 24.7355 63.1557 28.7888 64.0646L29.8605 64.3062L29.7618 65.1012C29.6308 66.2321 30.0428 67.361 30.9248 68.2877C32.5722 70.0543 35.5274 70.8696 38.3267 70.3296C38.9533 70.2051 39.5507 70.01 40.0979 69.751L68.9342 56.0934C70.3609 55.4257 71.3441 54.343 71.6435 53.1099C71.9424 51.8523 71.549 50.5582 70.5517 49.5182C68.9034 47.7512 65.9474 46.9357 63.147 47.4752C62.5212 47.5997 61.9246 47.7947 61.3781 48.0533L50.3744 53.2668C48.565 54.1218 46.5904 54.7663 44.5189 55.1779C35.2243 56.974 25.409 54.2699 19.9351 48.4051C16.6202 44.9569 15.3145 40.6614 16.3127 36.4889C17.3009 32.3953 20.5638 28.8006 25.3008 26.5867L54.1346 12.9279C55.9448 12.0714 57.9209 11.4261 59.994 11.0145C69.2886 9.21839 79.1038 11.9224 84.5777 17.7872C87.8924 21.2355 89.1982 25.5309 88.2001 29.7035C88.0321 30.3815 87.8018 31.0501 87.511 31.7048L86.968 32.9355L85.4914 32.1303C82.0798 30.266 78.2647 28.8488 74.2108 27.9397L73.139 27.698L73.2378 26.903C73.3676 25.7722 72.9557 24.6436 72.0747 23.7166C70.4274 21.95 67.4721 21.1347 64.6729 21.6747C64.0462 21.7992 63.4489 21.9943 62.9017 22.2533L34.0653 35.9115C32.6389 36.5787 31.6562 37.6613 31.3582 38.8942C31.0574 40.1517 31.4501 41.4463 32.4478 42.4863C34.0962 44.2532 37.0521 45.0688 39.8525 44.5293C40.4791 44.4045 41.0763 44.2094 41.6236 43.9507L52.6259 38.7393C54.4345 37.8831 56.4091 37.238 58.4807 36.8266C67.7754 35.0305 77.5907 37.7346 83.0645 43.5994C86.3794 47.0476 87.6852 51.3431 86.6869 55.5156C85.6981 59.6094 82.4355 63.2044 77.6989 65.4194L48.8649 79.077C47.0547 79.9335 45.0787 80.5788 43.0055 80.9904" fill="white"/>
</svg>
