<svg width="46" height="34" viewBox="0 0 46 34" fill="none" xmlns="http://www.w3.org/2000/svg">
<path d="M22.8489 0.403809C22.8489 0.403809 8.55763 0.403822 4.97069 1.35883C3.05013 1.90867 1.46869 3.52907 0.93206 5.52589C2.12355e-05 9.20117 0 16.8124 0 16.8124C0 16.8124 2.12355e-05 24.4525 0.93206 28.0699C1.46869 30.0667 3.02188 31.6582 4.97069 32.208C8.58587 33.1919 22.8489 33.192 22.8489 33.192C22.8489 33.192 37.1686 33.192 40.7555 32.237C42.7043 31.6871 44.2574 30.1246 44.7658 28.0989C45.7261 24.4525 45.7261 16.8413 45.7261 16.8413C45.7261 16.8413 45.7544 9.20117 44.7658 5.52589C44.2574 3.52907 42.7043 1.93764 40.7555 1.41673C37.1686 0.403855 22.8489 0.403809 22.8489 0.403809V0.403809ZM18.3017 9.78026L30.1924 16.8124L18.3017 23.8155V9.78026V9.78026Z" fill="black"/>
</svg>
