<svg width="33" height="34" viewBox="0 0 33 34" fill="none" xmlns="http://www.w3.org/2000/svg">
<path fill-rule="evenodd" clip-rule="evenodd" d="M16.619 0.65625C7.8117 0.65625 0.667969 8.18003 0.667969 17.4559C0.667969 24.8766 5.26736 31.1636 11.5304 33.4311C12.3132 33.5341 12.6068 33.0188 12.6068 32.6066C12.6068 32.1943 12.6068 31.1636 12.6068 29.7207C8.20314 30.7514 7.22454 27.4533 7.22454 27.4533C6.53953 25.495 5.46308 24.9797 5.46308 24.9797C3.99519 23.9491 5.56094 23.9491 5.56094 23.9491C7.12668 24.0521 8.00742 25.7012 8.00742 25.7012C9.47531 28.2778 11.7261 27.5564 12.6068 27.1441C12.7047 26.0104 13.194 25.2889 13.5854 24.8766C10.0625 24.4644 6.34381 23.0215 6.34381 16.5283C6.34381 14.6732 6.93097 13.2302 8.00742 11.9935C7.8117 11.5812 7.3224 9.82908 8.20314 7.56164C8.20314 7.56164 9.57317 7.14938 12.6068 9.31375C13.879 8.90149 15.249 8.79843 16.619 8.79843C17.9891 8.79843 19.3591 9.00456 20.6313 9.31375C23.6649 7.14938 25.0349 7.56164 25.0349 7.56164C25.9157 9.82908 25.3285 11.5812 25.2307 11.9935C26.2093 13.1272 26.8943 14.6732 26.8943 16.5283C26.8943 23.0215 23.1756 24.3613 19.6527 24.7736C20.2398 25.2889 20.7291 26.3196 20.7291 27.8655C20.7291 30.133 20.7291 31.8851 20.7291 32.5035C20.7291 32.9158 21.0227 33.4311 21.8056 33.328C28.1664 31.0606 32.668 24.7736 32.668 17.3529C32.5701 8.18004 25.4264 0.65625 16.619 0.65625Z" fill="black"/>
</svg>
