<svg id="tnt-Spot-EmptyContentPane" xmlns="http://www.w3.org/2000/svg" width="128" height="128" fill="none" viewBox="0 0 128 128">
  <rect width="128" height="55" y="40" fill="var(--sapContent_Illustrative_Color20)" rx="8"/>
  <path fill="var(--sapContent_Illustrative_Color21)" fill-rule="evenodd" d="m35.83 92.26 54.743-9.775c.34-.062.352-.54.02-.626l-34.325-8.551a3.173 3.173 0 0 0-1.257-.058l-43.22 6.66c-.765.119-.912 1.154-.208 1.482l23.007 10.7c.385.18.823.237 1.245.16l-.004.007Z" clip-rule="evenodd"/>
  <path fill="var(--sapContent_Illustrative_Color13)" d="M92.456 31.693c.216-.013.437.028.642.102a2.135 2.135 0 0 1 1.044.86c.127.2.22.421.278.654l1.02 4.433-66.281 3.991-.856-4.928a1.724 1.724 0 0 1 .024-.74 1.604 1.604 0 0 1 .847-1.052c.214-.107.455-.173.721-.19l62.56-3.13Z"/>
  <path fill="var(--sapContent_Illustrative_Color8)" d="m29.154 41.734 66.277-3.987 8.518 37.04c.057.249.066.495.041.72a1.667 1.667 0 0 1-.209.622 1.39 1.39 0 0 1-.421.454 1.37 1.37 0 0 1-.594.221l-64.083 8.031c-.274.037-.54.008-.794-.061a1.952 1.952 0 0 1-.704-.36 2.26 2.26 0 0 1-.536-.594 2.113 2.113 0 0 1-.29-.77l-7.2-41.316h-.005Z"/>
  <path fill="var(--sapContent_Illustrative_Color14)" d="M38.687 84.834c-.274.033-.54.008-.794-.061a2.092 2.092 0 0 1-.704-.36 2.213 2.213 0 0 1-.827-1.367l-7.2-41.313-.855-4.928a1.613 1.613 0 0 1-.029-.368 1.689 1.689 0 0 1 .16-.676c.045-.102.11-.2.176-.286l-1.085 1.412a2.5 2.5 0 0 0-.176.282 1.616 1.616 0 0 0-.16.667c0 .12 0 .242.029.365l.843 4.875 7.077 40.858a2.198 2.198 0 0 0 .815 1.351c.209.16.442.278.696.356.254.073.52.098.786.061l63.505-8.023 1.826-.88-64.083 8.031v.004Z"/>
  <path fill="var(--sapContent_Illustrative_Color20)" d="M50.478 60.486a1.352 1.352 0 0 1 .96.305c.137.108.255.24.348.393a1.6 1.6 0 0 1 .202.497c.04.177.034.354 0 .516a1.11 1.11 0 0 1-.521.762c-.138.084-.29.133-.462.148l-11.399 1.032a1.307 1.307 0 0 1-.516-.059 1.411 1.411 0 0 1-.463-.25 1.735 1.735 0 0 1-.359-.399 1.424 1.424 0 0 1-.201-1.032c.034-.168.103-.315.192-.448a1.01 1.01 0 0 1 .354-.32c.142-.078.3-.132.477-.147l11.388-.993v-.005Z"/>
  <path fill="var(--sapContent_Illustrative_Color14)" d="M59.754 43.142a.624.624 0 0 1 .438.151.777.777 0 0 1 .164.184c.045.07.078.148.094.23l.577 2.71a.663.663 0 0 1 .004.237.485.485 0 0 1-.45.405l-24.31 1.658a.7.7 0 0 1-.245-.033.757.757 0 0 1-.483-.557l-.54-2.82a.619.619 0 0 1 0-.245.513.513 0 0 1 .262-.348.651.651 0 0 1 .229-.066l24.26-1.51v.004Z"/>
  <path fill="var(--sapContent_Illustrative_Color20)" d="M54.249 52.6c.167-.01.334.01.497.069a1.526 1.526 0 0 1 .988 1.126c.035.177.035.344.005.506-.03.163-.093.305-.182.428a1.045 1.045 0 0 1-.787.443L38.09 56.43a1.209 1.209 0 0 1-.516-.07 1.687 1.687 0 0 1-.462-.25 1.444 1.444 0 0 1-.354-.398 1.484 1.484 0 0 1-.197-.502 1.401 1.401 0 0 1 0-.516c.03-.162.103-.31.192-.438a1.06 1.06 0 0 1 .349-.31c.138-.078.3-.127.477-.137l16.665-1.205.005-.005Zm-2.39 15.577c.172-.02.344 0 .506.054a1.53 1.53 0 0 1 1.013 1.146c.035.182.04.36.005.526a1.27 1.27 0 0 1-.182.453 1.14 1.14 0 0 1-.34.33 1.12 1.12 0 0 1-.466.157l-11.458 1.214c-.177.02-.354 0-.521-.054a1.485 1.485 0 0 1-.467-.25 1.481 1.481 0 0 1-.36-.404 1.571 1.571 0 0 1-.2-.516 1.308 1.308 0 0 1 .192-.993 1.133 1.133 0 0 1 .83-.492l11.443-1.175.005.004Zm-3.716 8.384c.172-.02.35 0 .517.054.167.054.324.138.462.246.138.108.26.246.359.398.098.153.167.325.206.512a1.365 1.365 0 0 1-.187.998 1.127 1.127 0 0 1-.821.502l-6.235.708c-.177.02-.354 0-.521-.05a1.471 1.471 0 0 1-.468-.245 1.567 1.567 0 0 1-.57-.924 1.336 1.336 0 0 1 .192-1.004 1.146 1.146 0 0 1 .836-.502l6.23-.688v-.005Z"/>
  <path fill="var(--sapContent_Illustrative_Color25)" d="M108.552 80.042a.497.497 0 0 1-.201.318.437.437 0 0 1-.184.068l-24.842 2.974a.552.552 0 0 1-.21-.018.636.636 0 0 1-.426-.48L73.774 36.85a.53.53 0 0 1 0-.206.542.542 0 0 1 .08-.17.428.428 0 0 1 .336-.175l24.34-1.367a.492.492 0 0 1 .198.032.7.7 0 0 1 .179.098.6.6 0 0 1 .215.35l9.422 44.415a.606.606 0 0 1 .008.215Z"/>
  <path fill="var(--sapContent_Illustrative_Color1)" d="m108.292 80.392-.04.014c-.013 0-.027.009-.04.009-.014 0-.027.004-.045.008l-24.842 2.975a.552.552 0 0 1-.21-.018.634.634 0 0 1-.426-.48l-8.915-46.054c-.01-.04-.01-.08-.01-.121a.448.448 0 0 1 .13-.3l-.609.623a.4.4 0 0 0-.067.085.448.448 0 0 0-.063.215c0 .04 0 .08.01.12l8.852 45.859a.635.635 0 0 0 .233.376.535.535 0 0 0 .403.12l24.748-2.974s.027-.004.045-.009a.128.128 0 0 0 .04-.009c.013 0 .027-.009.04-.013.014-.005.027-.014.036-.018l.762-.426s-.023.014-.036.018h.004Z"/>
  <path fill="var(--sapContent_Illustrative_Color1)" d="M91.56 64.438a2.046 2.046 0 0 1 1.514.461 2.459 2.459 0 0 1 .851 1.429c.063.296.067.583.027.838a1.7 1.7 0 0 1-.273.695 1.591 1.591 0 0 1-.529.492 1.959 1.959 0 0 1-.748.238c-.282.031-.551 0-.811-.076a2.221 2.221 0 0 1-.708-.368 2.243 2.243 0 0 1-.542-.614 2.437 2.437 0 0 1-.314-.82 2.414 2.414 0 0 1-.022-.837c.04-.26.139-.497.278-.704.139-.206.318-.371.533-.497a1.81 1.81 0 0 1 .748-.228h-.004v-.01Z"/>
  <path fill="var(--sapContent_Illustrative_Color24)" d="M97.047 37.705c.144-.009.287.014.422.063a1.342 1.342 0 0 1 .846.963c.032.148.032.296.01.43a.882.882 0 0 1-.43.614.9.9 0 0 1-.39.112l-.52.031a1.151 1.151 0 0 1-.807-.273 1.392 1.392 0 0 1-.296-.332 1.243 1.243 0 0 1-.179-.85.905.905 0 0 1 .435-.614.902.902 0 0 1 .39-.113l.52-.03Z"/>
  <path fill="var(--sapContent_Illustrative_Color1)" d="M88.93 49.739a8.578 8.578 0 0 1 2.576.17c.784.18 1.483.475 2.087.887a5.38 5.38 0 0 1 1.515 1.537c.398.614.69 1.326.855 2.123a5.67 5.67 0 0 1 .103 1.766 4.429 4.429 0 0 1-.403 1.41 5.988 5.988 0 0 1-.743 1.17c-.287.359-.6.695-.91 1.026-.26.282-.493.529-.69.757a3.592 3.592 0 0 0-.475.659 2.04 2.04 0 0 0-.242.64c-.035.22-.035.457.023.713l.058.277-2.863.265-.058-.282a4.562 4.562 0 0 1-.076-1.474c.05-.435.179-.82.354-1.174.174-.354.394-.672.645-.972.25-.3.524-.587.802-.874.228-.242.457-.475.658-.721a4.35 4.35 0 0 0 .534-.78c.143-.278.25-.569.3-.891.049-.323.04-.677-.036-1.071a3.28 3.28 0 0 0-.435-1.102 2.703 2.703 0 0 0-.761-.784 3.04 3.04 0 0 0-1.044-.444 4.14 4.14 0 0 0-1.286-.076c-.466.04-.896.135-1.268.278a3.914 3.914 0 0 0-1.008.578c-.296.237-.56.524-.784.838a6.538 6.538 0 0 0-.6 1.061l-2.402-1.908c.216-.444.475-.883.793-1.286a5.82 5.82 0 0 1 1.138-1.102c.444-.327.964-.6 1.568-.81a8.287 8.287 0 0 1 2.08-.418v.01l-.005.004Z"/>
  <path fill="var(--sapContent_Illustrative_Color24)" d="m91.08 38.333.34 1.649-14.896.918-.327-1.684 14.883-.883Z"/>
</svg>
