<svg id="tnt-Dialog-EmptyContentPane" xmlns="http://www.w3.org/2000/svg" width="160" height="160" fill="none" viewBox="0 0 160 160">
  <rect width="160" height="69" y="50" fill="var(--sapContent_Illustrative_Color20)" rx="12"/>
  <path fill="var(--sapContent_Illustrative_Color21)" fill-rule="evenodd" d="m46.063 112.937 68.897-12.302c.427-.077.443-.68.026-.788L71.785 89.085a3.99 3.99 0 0 0-1.581-.072l-54.395 8.382c-.964.15-1.15 1.453-.263 1.865l28.957 13.466a2.608 2.608 0 0 0 1.566.201l-.006.01Z" clip-rule="evenodd"/>
  <path fill="var(--sapContent_Illustrative_Color13)" d="M117.329 36.71c.273-.016.552.036.809.129a2.692 2.692 0 0 1 1.314 1.082c.16.252.278.53.35.824l1.283 5.579-83.419 5.022-1.076-6.202a2.168 2.168 0 0 1 .03-.932 2.019 2.019 0 0 1 1.066-1.324c.269-.134.573-.217.908-.237l78.735-3.941Z"/>
  <path fill="var(--sapContent_Illustrative_Color8)" d="m37.661 49.347 83.414-5.018 10.72 46.616c.072.314.082.624.051.907a2.1 2.1 0 0 1-.262.783c-.14.232-.315.427-.531.572a1.721 1.721 0 0 1-.747.278l-80.652 10.107a2.5 2.5 0 0 1-1-.077 2.465 2.465 0 0 1-.886-.453 2.866 2.866 0 0 1-.674-.747 2.666 2.666 0 0 1-.366-.969l-9.062-52h-.005Z"/>
  <path fill="var(--sapContent_Illustrative_Color2)" d="M42.148 42.85c.263-.015.525.027.773.109a2.246 2.246 0 0 1 1.195.948 1.9 1.9 0 0 1 .278.726 1.706 1.706 0 0 1-.324 1.365c-.145.18-.325.335-.536.444a1.802 1.802 0 0 1-.721.19 2.179 2.179 0 0 1-1.453-.48 2.309 2.309 0 0 1-.52-.576 1.91 1.91 0 0 1-.279-.732 1.813 1.813 0 0 1 .021-.747 1.5 1.5 0 0 1 .304-.623 1.66 1.66 0 0 1 1.262-.629v.006Z"/>
  <path fill="var(--sapContent_Illustrative_Color14)" d="M49.659 103.592c-.345.041-.68.01-1-.077a2.637 2.637 0 0 1-.886-.454 2.778 2.778 0 0 1-.675-.752 2.619 2.619 0 0 1-.365-.968L37.67 49.346l-1.076-6.202a2.038 2.038 0 0 1-.036-.464c0-.15.025-.298.056-.443a2.18 2.18 0 0 1 .144-.407c.057-.128.14-.252.222-.36l-1.365 1.777a3.138 3.138 0 0 0-.222.355 2.468 2.468 0 0 0-.144.402 2.038 2.038 0 0 0-.057.438c0 .15 0 .304.036.459l1.062 6.135 8.907 51.423c.056.35.185.669.36.958.175.288.407.541.665.742.263.2.556.35.876.448.319.092.654.123.989.077l79.925-10.097 2.298-1.108-80.652 10.108v.005Z"/>
  <path fill="var(--sapContent_Illustrative_Color20)" d="M68.91 79.52c.26-.022.522.015.77.09.246.075.477.21.687.374.209.164.388.366.53.597.142.232.247.486.307.755.06.27.052.538 0 .785a1.856 1.856 0 0 1-.277.673 1.687 1.687 0 0 1-.516.486c-.209.127-.44.201-.702.224l-17.325 1.57a1.989 1.989 0 0 1-.784-.09 2.144 2.144 0 0 1-.703-.382 2.64 2.64 0 0 1-.545-.605 2.163 2.163 0 0 1-.307-1.57c.052-.254.157-.478.292-.68a1.53 1.53 0 0 1 .538-.485c.216-.12.456-.202.725-.225l17.31-1.51v-.007Z"/>
  <path fill="var(--sapContent_Illustrative_Color14)" d="M76.174 51.118a.785.785 0 0 1 .552.191c.082.067.15.144.206.232a.834.834 0 0 1 .118.288l.727 3.41c.02.104.02.207.005.3a.61.61 0 0 1-.567.51L46.62 58.134a.88.88 0 0 1-.309-.041.872.872 0 0 1-.278-.155.952.952 0 0 1-.33-.546l-.68-3.55a.78.78 0 0 1 0-.309.646.646 0 0 1 .33-.438.821.821 0 0 1 .288-.082l30.533-1.9v.004Z"/>
  <path fill="var(--sapContent_Illustrative_Color20)" d="M73.705 60.408c.254-.015.509.015.755.105.247.09.471.209.68.373a2.321 2.321 0 0 1 .823 1.338c.052.27.052.523.007.77a1.59 1.59 0 0 1-.277.65 1.588 1.588 0 0 1-1.195.673L49.146 66.23a1.869 1.869 0 0 1-.785-.105 2.565 2.565 0 0 1-.702-.38 2.194 2.194 0 0 1-.538-.606 2.258 2.258 0 0 1-.3-.762 2.13 2.13 0 0 1 0-.785c.046-.247.158-.471.292-.665a1.61 1.61 0 0 1 .53-.471c.21-.12.457-.195.726-.21l25.329-1.83.007-.008Zm-6.421 9.815a1.92 1.92 0 0 1 .77.097 2.318 2.318 0 0 1 1.218.964c.142.225.247.486.307.755.06.27.052.538 0 .778-.052.239-.142.47-.277.665a1.58 1.58 0 0 1-.515.478c-.21.12-.441.195-.703.217l-17.287 1.435c-.27.022-.53-.015-.785-.097a2.323 2.323 0 0 1-1.24-.987 2.309 2.309 0 0 1-.307-.77 2.018 2.018 0 0 1 0-.792 1.88 1.88 0 0 1 .291-.672c.135-.195.322-.36.539-.479.216-.12.456-.194.725-.217l17.264-1.375Zm6.721 18.135c.262-.023.516.007.763.09a2.283 2.283 0 0 1 1.218.971c.142.232.247.486.306.762a1.947 1.947 0 0 1-.27 1.472 1.683 1.683 0 0 1-.507.494 1.664 1.664 0 0 1-.702.232l-20.763 2.04c-.269.03-.538 0-.792-.09a2.293 2.293 0 0 1-.703-.38 2.529 2.529 0 0 1-.545-.614c-.15-.239-.254-.5-.307-.777a2.095 2.095 0 0 1 0-.807 1.95 1.95 0 0 1 .292-.688c.134-.201.321-.373.538-.493.217-.12.456-.21.725-.232l20.74-1.965.007-.015Z"/>
  <path fill="var(--sapContent_Illustrative_Color25)" d="M139.294 97.52a.631.631 0 0 1-.091.231.546.546 0 0 1-.396.255l-31.402 3.761a.697.697 0 0 1-.266-.023.827.827 0 0 1-.431-.334.805.805 0 0 1-.107-.272l-11.27-58.217a.671.671 0 0 1 0-.26.687.687 0 0 1 .102-.216.54.54 0 0 1 .425-.22l30.768-1.728a.626.626 0 0 1 .249.04.886.886 0 0 1 .226.124.98.98 0 0 1 .176.199.762.762 0 0 1 .096.243l11.91 56.144a.764.764 0 0 1 .011.272Z"/>
  <path fill="var(--sapContent_Illustrative_Color24)" d="m135.085 92 .682 3.303-10.101.903-.666-3.342L135.085 92Z"/>
  <path fill="var(--sapContent_Illustrative_Color1)" d="m138.966 97.962-.051.017c-.017 0-.034.011-.051.011-.017 0-.034.006-.057.011l-31.402 3.761a.697.697 0 0 1-.266-.023.823.823 0 0 1-.43-.334.807.807 0 0 1-.108-.272l-11.27-58.217c-.011-.05-.011-.102-.011-.153a.571.571 0 0 1 .164-.38l-.77.788a.505.505 0 0 0-.085.108.566.566 0 0 0-.08.272c0 .05 0 .101.012.152l11.19 57.968a.833.833 0 0 0 .108.272.808.808 0 0 0 .187.204.682.682 0 0 0 .51.153l31.283-3.76s.034-.006.056-.012c.017 0 .034-.006.051-.011.017 0 .034-.012.051-.017.017-.006.034-.017.046-.023l.962-.538s-.028.017-.045.023h.006Z"/>
  <path fill="var(--sapContent_Illustrative_Color1)" d="M117.814 77.794a2.587 2.587 0 0 1 1.914.583c.266.216.493.482.68.782.187.306.317.645.396 1.025.079.374.085.736.034 1.059a2.14 2.14 0 0 1-.345.878c-.176.26-.397.464-.669.623-.271.153-.589.26-.945.3-.357.04-.697 0-1.025-.097a2.806 2.806 0 0 1-.895-.464 2.826 2.826 0 0 1-.685-.776 3.09 3.09 0 0 1-.397-1.036 3.07 3.07 0 0 1-.028-1.06c.051-.328.175-.628.351-.888s.402-.47.674-.629a2.29 2.29 0 0 1 .946-.289h-.006v-.011Z"/>
  <path fill="var(--sapContent_Illustrative_Color24)" d="M124.752 44.003c.181-.01.363.017.532.08a1.695 1.695 0 0 1 1.071 1.217c.039.187.039.374.011.544a1.105 1.105 0 0 1-.544.776c-.141.08-.305.13-.492.141l-.657.04a1.456 1.456 0 0 1-1.02-.345 1.764 1.764 0 0 1-.373-.42 1.558 1.558 0 0 1-.227-1.075 1.138 1.138 0 0 1 .55-.776c.141-.08.305-.13.492-.142l.657-.04Z"/>
  <path fill="var(--sapContent_Illustrative_Color1)" d="M114.49 59.213c1.178-.09 2.265-.01 3.257.216.991.226 1.874.6 2.639 1.12a6.804 6.804 0 0 1 1.914 1.943 7.807 7.807 0 0 1 1.081 2.685 7.15 7.15 0 0 1 .131 2.231 5.613 5.613 0 0 1-.51 1.784 7.61 7.61 0 0 1-.94 1.478c-.363.453-.759.878-1.15 1.297-.328.357-.623.668-.872.957-.255.289-.453.56-.6.832-.147.272-.261.533-.306.81a2.34 2.34 0 0 0 .028.9l.074.352-3.619.334-.073-.357c-.142-.697-.165-1.314-.097-1.863.063-.55.227-1.036.448-1.484.221-.447.498-.85.815-1.229.317-.38.663-.742 1.014-1.104.289-.306.578-.6.832-.912.261-.311.493-.634.674-.985a3.66 3.66 0 0 0 .38-1.127 3.941 3.941 0 0 0-.046-1.354 4.137 4.137 0 0 0-.549-1.393 3.41 3.41 0 0 0-.963-.99 3.834 3.834 0 0 0-1.319-.562 5.234 5.234 0 0 0-1.625-.096 5.907 5.907 0 0 0-1.603.351c-.47.182-.901.436-1.274.73a5.33 5.33 0 0 0-.991 1.06 8.216 8.216 0 0 0-.759 1.342l-3.036-2.412a8.873 8.873 0 0 1 1.003-1.626c.402-.51.872-.98 1.438-1.393a7.44 7.44 0 0 1 1.982-1.025c.765-.266 1.631-.447 2.628-.526v.01l-.006.006Z"/>
  <path fill="var(--sapContent_Illustrative_Color24)" d="m117.208 44.796.431 2.084-18.83 1.16-.413-2.129 18.812-1.115Z"/>
</svg>
