<svg xmlns="http://www.w3.org/2000/svg" viewBox="0 0 512 512">
	<path d="M320 128q0 26-11 51t-31 44l9 4q15 8 15 24 0 10-7 17t-18 7q-9 0-20-6-10-5-26-9t-33-4h-12q-28 0-52.5 10.5t-43 28.5-29 42.5T51 390v7h179q11 0 18.5 7t7.5 18-7.5 18.5T230 448H26q-11 0-18.5-7.5T0 422v-32q0-56 29-100.5t77-66.5l-4-5q-19-18-28.5-41T64 128q0-27 10-50t27.5-40.5 41-27.5T192 0t49.5 10 41 27.5 27.5 41 10 49.5zM192 51q-32 0-54.5 22.5T115 128t22.5 54.5T192 205t54.5-22.5T269 128t-22.5-54.5T192 51zm154 301q-11 0-18.5-7.5T320 326t7.5-18 18.5-7h140q11 0 18.5 7t7.5 18-7.5 18.5T486 352H346zm140 23q11 0 18.5 7t7.5 18-7.5 18.5T486 426H346q-11 0-18.5-7.5T320 400t7.5-18 18.5-7h140zm0 73q11 0 18.5 7t7.5 18-7.5 18.5T486 499H346q-11 0-18.5-7.5T320 473t7.5-18 18.5-7h140z"/>
</svg>