<svg xmlns="http://www.w3.org/2000/svg" viewBox="0 0 512 512">
	<path d="M90 115q-7 0-7 7v332q0 7 7 7h70q11 0 18.5 7t7.5 18-7.5 18.5T160 512H90q-24 0-41-17t-17-41V122q0-24 17-41t41-17h38v-6q0-24 17-41t41-17h76q24 0 41 17t17 41v6h38q24 0 41 17t17 41v76q0 11-7.5 18.5T390 224t-18-7.5-7-18.5v-76q0-7-7-7h-39q-5 20-20.5 32.5T262 160h-76q-21 0-36.5-12.5T130 115H90zm89-13q0 7 7 7h76q7 0 7-7V58q0-7-7-7h-76q-7 0-7 7v44zm275 250q11 0 18.5 7.5T480 378q0 8-6 16l-94 109q-7 9-19 9-11 0-19-8l-47-52q-7-7-7-17 0-11 7.5-18.5T314 409q10 0 19 9l27 30 75-87q8-9 19-9z"/>
</svg>