<svg xmlns="http://www.w3.org/2000/svg" viewBox="0 0 512 512">
	<path d="M378 160q-11 0-18.5-7.5T352 134q0-10 8-18l36-36-36-36q-8-8-8-18 0-11 7.5-18.5T378 0t18 7l36 37 36-37q7-7 18-7t18.5 7.5T512 26t-7 18l-37 36 37 36q7 7 7 18t-7.5 18.5T486 160q-10 0-18-8l-36-36-36 36q-8 8-18 8zm38 160q41 0 68.5 27.5T512 416t-27.5 68.5T416 512t-68.5-27.5T320 416l1-10-159-79q-28 25-66 25-41 0-68.5-27.5T0 256t27.5-68.5T96 160q38 0 65 25l90-45q6-3 11-3 11 0 18.5 7.5T288 163q0 15-14 23l-86 43q4 11 4 27 0 15-4 27l151 75q29-38 77-38zM96 301q20 0 32.5-12.5T141 256t-12.5-32.5T96 211t-32.5 12.5T51 256t12.5 32.5T96 301zm320 160q20 0 32.5-12.5T461 416t-12.5-32.5T416 371t-32.5 12.5T371 416t12.5 32.5T416 461z"/>
</svg>