<svg xmlns="http://www.w3.org/2000/svg" viewBox="0 0 512 512">
	<path d="M166 160H58q-11 0-18.5-7.5T32 134V26q0-11 7.5-18.5T58 0h108q11 0 18.5 7.5T192 26v108q0 11-7.5 18.5T166 160zm288-64H282q-11 0-18.5-7.5T256 70t7.5-18 18.5-7h172q11 0 18.5 7t7.5 18-7.5 18.5T454 96zM83 109h58V51H83v58zm83 227H58q-11 0-18.5-7.5T32 310V202q0-11 7.5-18.5T58 176h108q11 0 18.5 7.5T192 202v108q0 11-7.5 18.5T166 336zm-83-51h58v-58H83v58zm371 3H282q-11 0-18.5-7.5T256 262t7.5-18 18.5-7h172q11 0 18.5 7t7.5 18-7.5 18.5T454 288zM166 512H58q-11 0-18.5-7.5T32 486V378q0-11 7.5-18.5T58 352h108q11 0 18.5 7.5T192 378v108q0 11-7.5 18.5T166 512zm-83-51h58v-58H83v58zm371 6H282q-11 0-18.5-7t-7.5-18 7.5-18.5T282 416h172q11 0 18.5 7.5T480 442t-7.5 18-18.5 7z"/>
</svg>