<svg width="106" height="95" viewBox="0 0 106 95" fill="none" xmlns="http://www.w3.org/2000/svg">
<path d="M52.5651 57.1765C57.878 57.1765 62.1849 52.8575 62.1849 47.5297C62.1849 42.2019 57.878 37.8828 52.5651 37.8828C47.2523 37.8828 42.9453 42.2019 42.9453 47.5297C42.9453 52.8575 47.2523 57.1765 52.5651 57.1765Z" fill="#00D8FF"/>
<path d="M52.5648 27.9141C65.4797 27.9141 77.4816 29.773 86.5247 32.8964C97.4247 36.6595 104.125 42.3634 104.125 47.5278C104.125 52.9129 97.023 58.9701 85.3186 62.8592C76.4688 65.7995 64.8245 67.3342 52.5616 67.3342C39.9958 67.3342 28.0884 65.8932 19.1409 62.8269C7.81882 58.9496 1 52.8106 1 47.5331C1 42.4097 7.39781 36.751 18.1453 32.9933C27.2281 29.8129 39.5233 27.9141 52.5648 27.9141Z" stroke="#00D8FF" stroke-width="2" stroke-miterlimit="10"/>
<path d="M35.5383 37.7848C41.9898 26.5654 49.5894 17.0714 56.8035 10.7719C65.5029 3.18319 73.7727 0.217062 78.2362 2.79115C82.8855 5.48372 84.5728 14.6772 82.0843 26.7884C80.2027 35.9431 75.7112 46.821 69.5862 57.4782C63.3098 68.3917 56.1194 78.0128 48.9998 84.253C39.9922 92.1498 31.2788 95.0071 26.7219 92.3706C22.297 89.8105 20.6001 81.4248 22.7266 70.2119C24.5212 60.7373 29.0224 49.1097 35.5383 37.7848Z" stroke="#00D8FF" stroke-width="2" stroke-miterlimit="10"/>
<path d="M35.5541 57.5007C29.0875 46.2932 24.6755 34.9478 22.839 25.5314C20.6255 14.1871 22.1946 5.51271 26.6474 2.92462C31.2925 0.232058 40.081 3.35543 49.3013 11.5667C56.2726 17.7736 63.4308 27.1103 69.5773 37.7513C75.8709 48.6626 80.5912 59.7118 82.4277 69.0184C84.7508 80.7892 82.8702 89.7823 78.3132 92.4275C73.8926 94.994 65.8022 92.2767 57.1758 84.8323C49.8866 78.5382 42.0883 68.8191 35.5541 57.5007Z" stroke="#00D8FF" stroke-width="2" stroke-miterlimit="10"/>
</svg>
