<svg xmlns="http://www.w3.org/2000/svg" viewBox="0 0 512 512">
	<path d="M502.02 108.788q-31.938 10.978-47.408 26.448t-26.448 47.407q-2.994 8.983-12.975 8.983t-12.975-8.983q-10.978-31.937-26.448-47.407t-47.407-26.448q-8.983-2.995-8.983-12.975t8.983-12.975q31.937-10.978 47.407-26.448t26.448-47.408Q405.21 0 415.19 0t12.975 8.982q10.978 31.938 26.448 47.408t47.407 26.448q8.983 2.994 8.983 12.975t-8.983 12.975zM334.346 358.3q-27.945 9.98-49.404 21.458t-37.426 27.447-27.447 37.427-21.458 50.401q-1.996 7.985-8.483 12.476T175.657 512q-16.967 0-22.955-16.967-9.98-28.943-21.458-50.401t-27.447-37.427-36.928-27.447T16.967 358.3q-8.983-2.994-12.975-9.481T0 335.345t3.992-13.474 12.975-9.481q28.943-9.98 49.902-21.458t36.928-27.447 27.447-37.427 21.458-49.403q5.988-16.967 22.955-16.967 7.984 0 14.472 4.491t8.483 12.476q9.98 27.945 21.458 49.403t27.447 37.427 37.426 27.447 49.404 21.458q7.984 2.994 12.476 9.481t4.49 13.474-4.49 13.474-12.476 9.481z"/>
</svg>