<svg xmlns="http://www.w3.org/2000/svg" viewBox="0 0 512 512">
	<path d="M224 232q0-8 8-8h144q8 0 8 8v80q0 8-8 8H232q-8 0-8-8v-80zM32 312v-79q0-8 8-8h144q8 0 8 8v79q0 8-8 8H40q-8 0-8-8zm0 160v-80q0-8 8-8h112q8 0 8 8v80q0 8-8 8H40q-8 0-8-8zm320-80q0-8 8-8h112q8 0 8 8v79q0 8-8 8H360q-8 0-8-8v-79zm-96-240V72q0-8 8-8h80q8 0 8 8v80q0 8-8 8h-80q-8 0-8-8zM32 72q0-8 8-8h80q8 0 8 8v80q0 8-8 8H40q-8 0-8-8V72zm192 320q0-8 8-8h80q8 0 8 8v79q0 8-8 8h-80q-8 0-8-8v-79zm192-160q0-8 8-8h48q8 0 8 8v80q0 8-8 8h-48q-8 0-8-8v-80zM168 64h48q8 0 8 8v80q0 8-8 8h-48q-8 0-8-8V72q0-8 8-8z"/>
</svg>