<svg xmlns="http://www.w3.org/2000/svg" viewBox="0 0 512 512">
	<path d="M8.982 86.83Q0 77.848 0 64.374t8.982-22.456q9.981-9.98 22.956-9.98t22.955 9.98l191.626 191.626Q255.5 242.526 255.5 256t-8.982 22.456L55.89 471.08q-9.98 9.98-22.955 9.98t-21.957-9.98q-9.98-8.983-9.98-21.957t9.98-22.955l156.694-158.69q11.976-11.977 0-22.956zm471.08 328.36q13.973 0 22.956 8.982T512 447.127q0 12.974-8.982 22.456t-22.956 9.481H256.5q-12.975 0-22.456-9.481t-9.482-22.456q0-13.973 9.482-22.955t22.456-8.983h223.563z"/>
</svg>