<svg xmlns="http://www.w3.org/2000/svg" viewBox="0 0 512 512">
	<path d="M96 480h320V32H96v448zm48-192h32q16 0 16 16 0 6-4.5 11t-11.5 5h-32q-6 0-11-5t-5-11q0-7 5-11.5t11-4.5zm0-96h32q16 0 16 16 0 6-4.5 11t-11.5 5h-32q-6 0-11-5t-5-11q0-7 5-11.5t11-4.5zm0-96h32q16 0 16 16 0 6-4.5 11t-11.5 5h-32q-6 0-11-5t-5-11q0-7 5-11.5t11-4.5zM64 480V32q0-14 9.5-23T96 0h320q14 0 23 9t9 23v448q0 13-9 22.5t-23 9.5H96q-13 0-22.5-9.5T64 480zm176-288h128q16 0 16 16 0 6-4.5 11t-11.5 5H240q-6 0-11-5t-5-11q0-7 5-11.5t11-4.5zm0-96h128q16 0 16 16 0 6-4.5 11t-11.5 5H240q-6 0-11-5t-5-11q0-7 5-11.5t11-4.5zm0 192h128q16 0 16 16 0 6-4.5 11t-11.5 5H240q-6 0-11-5t-5-11q0-7 5-11.5t11-4.5z"/>
</svg>