<svg xmlns="http://www.w3.org/2000/svg" viewBox="0 0 512 512">
	<path d="M104 352h56v56q0 8-8 8h-48q-8 0-8-8v-48q0-8 8-8zm-8-72v-48q0-8 8-8h80q8 0 8 8v48q0 8-8 8h-80q-8 0-8-8zM64 32v416h416v32H32V32h32zm128 376v-48q0-8 8-8h144q8 0 8 8v48q0 8-8 8H200q-8 0-8-8zm32-176q0-8 8-8h144q8 0 8 8v56H232q-8 0-8-8v-48zm160 176v-48q0-8 8-8h80q8 0 8 8v48q0 8-8 8h-80q-8 0-8-8zM96 152v-48q0-8 8-8h16q8 0 8 8v48q0 8-8 8h-16q-8 0-8-8zm72-56h80q8 0 8 8v48q0 8-8 8h-80q-8 0-8-8v-48q0-8 8-8zm120 56v-48q0-8 8-8h176q8 0 8 8v48q0 8-8 8H296q-8 0-8-8zm128 80q0-8 8-8h48q8 0 8 8v48q0 8-8 8h-48q-8 0-8-8v-48z"/>
</svg>