<svg xmlns="http://www.w3.org/2000/svg" viewBox="0 0 512 512">
	<path d="M32 480V32h32v416h416v32H32zm96-440q0-8 8-8h48q8 0 8 8v176q0 8-8 8h-48q-8 0-8-8V40zm256 79V40q0-8 8-8h48q8 0 8 8v79q0 8-8 8h-48q-8 0-8-8zM256 88V40q0-8 8-8h48q8 0 8 8v48q0 8-8 8h-48q-8 0-8-8zm0 192V136q0-8 8-8h48q8 0 8 8v144q0 8-8 8h-48q-8 0-8-8zm128 32V168q0-8 8-8h48q8 0 8 8v144q0 8-8 8h-48q-8 0-8-8zm-248-56h48q8 0 8 8v79q0 8-8 8h-48q-8 0-8-8v-79q0-8 8-8zm120 73q0-8 8-8h48q8 0 8 8v79q0 8-8 8h-48q-8 0-8-8v-79zm136 23h48q8 0 8 8v48q0 8-8 8h-48q-8 0-8-8v-48q0-8 8-8zm-264 56v-16q0-8 8-8h48q8 0 8 8v16q0 8-8 8h-48q-8 0-8-8z"/>
</svg>