<svg xmlns="http://www.w3.org/2000/svg" viewBox="0 0 512 512">
	<path d="M64 32v416h416v32H32V32h32zm224 120v-48q0-8 8-8h176q8 0 8 8v48q0 8-8 8H296q-8 0-8-8zm-64 80q0-8 8-8h144q8 0 8 8v56H232q-8 0-8-8v-48zm-32 176v-48q0-8 8-8h144q8 0 8 8v48q0 8-8 8H200q-8 0-8-8zm192 0v-48q0-8 8-8h80q8 0 8 8v48q0 8-8 8h-80q-8 0-8-8zM168 96h80q8 0 8 8v48q0 8-8 8h-80q-8 0-8-8v-48q0-8 8-8zM96 280v-48q0-8 8-8h80q8 0 8 8v48q0 8-8 8h-80q-8 0-8-8zm8 72h56v56q0 8-8 8h-48q-8 0-8-8v-48q0-8 8-8zm312-120q0-8 8-8h48q8 0 8 8v48q0 8-8 8h-48q-8 0-8-8v-48zM96 152v-48q0-8 8-8h16q8 0 8 8v48q0 8-8 8h-16q-8 0-8-8z"/>
</svg>