<svg xmlns="http://www.w3.org/2000/svg" viewBox="0 0 512 512">
	<path d="M32.5 252V32h96q-26 0-45 19t-19 45q0 27 19 45.5t45 18.5 45-18.5 19-45.5q0-26-19-45t-45-19h95v56l-64 104v37l-37-37h-53v49l87 27q-13 8-20.5 21.5t-7.5 30.5q0 26 19 45t45 19h7q3 0 6-1l-45 97-34-31-15-95-46-87zm160 20q20 0 34 14t14 34-14 34-34 14-34-14-14-34 14-34 34-14zm141 89l-74-74 37-63h120q-26 0-45 19t-19 45q0 27 19 45.5t45 18.5q21 0 37-12l-6 12-64 96-50 32V361zm-205-313q20 0 34 14t14 34-14 34-34 14-34-14-14-34 14-34 34-14zm186 37l37-53v53h-37zm-17 111v-55l36-32h37l73-77h36v146l-36-37v37h-19l-18-37h-36l-37 55h-36zm119 44q20 0 34 14t14 34-14 34-34 14-34-14-14-34 14-34 34-14zm1-16h62v54q-4-23-21-39-18-15-41-15z"/>
</svg>