<svg xmlns="http://www.w3.org/2000/svg" viewBox="0 0 512 512">
	<path d="M394 362h55q14 0 22.5 9t8.5 23v54q0 14-8.5 23t-22.5 9h-55q-14 0-22.5-9t-8.5-23v-54q0-14 8.5-23t22.5-9zM228 197h55q14 0 22.5 9t8.5 23v54q0 13-9 22.5t-22 9.5h-55q-13 0-22-9.5t-9-22.5v-54q0-14 8.5-23t22.5-9zm135-79V64q0-14 8.5-23t22.5-9h55q14 0 22.5 9t8.5 23v54q0 13-9 22.5t-22 9.5h-55q-13 0-22-9.5t-9-22.5zm31 79h55q14 0 22.5 9t8.5 23v54q0 13-9 22.5t-22 9.5h-55q-13 0-22-9.5t-9-22.5v-54q0-14 8.5-23t22.5-9zM63 32h55q14 0 22.5 9t8.5 23v54q0 13-9 22.5t-22 9.5H63q-13 0-22-9.5T32 118V64q0-14 8.5-23T63 32zM32 229q0-14 8.5-23t22.5-9h55q14 0 22.5 9t8.5 23v54q0 13-9 22.5t-22 9.5H63q-13 0-22-9.5T32 283v-54zm31 133h55q14 0 22.5 9t8.5 23v54q0 13-9 22.5t-22 9.5H63q-13 0-22-9.5T32 448v-54q0-14 8.5-23t22.5-9zM228 32h55q14 0 22.5 9t8.5 23v54q0 13-9 22.5t-22 9.5h-55q-13 0-22-9.5t-9-22.5V64q0-14 8.5-23t22.5-9zm-31 362q0-14 8.5-23t22.5-9h55q14 0 22.5 9t8.5 23v54q0 13-9 22.5t-22 9.5h-55q-13 0-22-9.5t-9-22.5v-54z"/>
</svg>