<svg xmlns="http://www.w3.org/2000/svg" viewBox="0 0 512 512">
	<path d="M40 128h112q8 0 8 8v48q0 8-8 8H40q-8 0-8-8v-48q0-8 8-8zm-8 248v-48q0-8 8-8h112q8 0 8 8v48q0 8-8 8H40q-8 0-8-8zm0 96v-48q0-8 8-8h112q8 0 8 8v48q0 8-8 8H40q-8 0-8-8zm8-248h112q8 0 8 8v48q0 8-8 8H40q-8 0-8-8v-48q0-8 8-8zm152 64v-64h128v56q0 8-8 8H192zm0 96v-56q0-8 8-8h112q8 0 8 8v48q0 8-8 8H192zm8 32h112q8 0 8 8v48q0 8-8 8H200q-8 0-8-8v-48q0-8 8-8zm152 56v-48q0-8 8-8h112q8 0 8 8v48q0 8-8 8H360q-8 0-8-8zM200 32h112q8 0 8 8v48q0 8-8 8H200q-8 0-8-8V40q0-8 8-8zm-8 152v-48q0-8 8-8h112q8 0 8 8v48q0 8-8 8H200q-8 0-8-8zm160-56h120q8 0 8 8v48q0 8-8 8H360q-8 0-8-8v-56zm120 96q8 0 8 8v48q0 8-8 8H360q-8 0-8-8v-56h120zM352 328q0-8 8-8h112q8 0 8 8v48q0 8-8 8H352v-56zM40 32h112q8 0 8 8v48q0 8-8 8H40q-8 0-8-8V40q0-8 8-8zm320 0h112q8 0 8 8v48q0 8-8 8H360q-8 0-8-8V40q0-8 8-8z"/>
</svg>