<svg xmlns="http://www.w3.org/2000/svg" viewBox="0 0 512 512">
	<path d="M32 32h32v416h416v32H32V32zm192 200q0-8 8-8h144q8 0 8 8v48q0 8-8 8H232q-8 0-8-8v-48zm64-128q0-8 8-8h80q8 0 8 8v48q0 8-8 8h-80q-8 0-8-8v-48zm-120-8h80q8 0 8 8v48q0 8-8 8h-80q-8 0-8-8v-48q0-8 8-8zM96 280v-48q0-8 8-8h80q8 0 8 8v48q0 8-8 8h-80q-8 0-8-8zm168 72h48q8 0 8 8v48q0 8-8 8h-48q-8 0-8-8v-48q0-8 8-8zm152-72v-48q0-8 8-8h48q8 0 8 8v48q0 8-8 8h-48q-8 0-8-8zm-312 72h48q8 0 8 8v48q0 8-8 8h-48q-8 0-8-8v-48q0-8 8-8zm88 56v-48q0-8 8-8h16q8 0 8 8v48q0 8-8 8h-16q-8 0-8-8zM96 104q0-8 8-8h16q8 0 8 8v48q0 8-8 8h-16q-8 0-8-8v-48z"/>
</svg>