<svg xmlns="http://www.w3.org/2000/svg" viewBox="0 0 512 512">
	<path d="M32 256h244q-1-9-1.5-16.5T274 224h-98q-6 0-11-5t-5-11q0-7 5-11.5t11-4.5h95v-16q0-11 8-15 1 0 1-.5t1-.5q5-2 7.5-2.5t7.5-.5q-8-5-8-13 0-7 5-11.5t12-4.5q15 0 15 15 0 7-4 11-4 5-11 5h1q0 1 1 1 9 8 22 17.5t27 20.5q5-6 13-6 15 0 15 16 0 6-3 9 12 10 24.5 19.5T430 256h50V32H32v224zm272-3q1 11 1 35 3 33 5.5 65.5T316 420q3 11 12 11 10 0 11-9l20-66 66 123q0 2 3 3 1 1 2 1l.5-.5 1.5-.5 36-19q4-1 4-5 0-2-1-4l-67-122 66 20q11 0 15-6 2-4 2-7 0-4-4-8l-1-1q-1 0-16-12t-38-30l-20-16q-10-8-25-19-22-17-46-36t-40-31q2 18 4 35.5t3 31.5zM64 80q0-7 5-11.5T81 64q15 0 15 15 0 7-4.5 12T80 96q-6 0-11-5t-5-11zm16 48h32q16 0 16 15 0 7-4.5 12t-11.5 5H80q-6 0-11-5t-5-11q0-7 5-11.5t11-4.5zm-16 80q0-7 5-11.5t11-4.5h32q16 0 16 15 0 7-4.5 12t-11.5 5H80q-6 0-11-5t-5-11zm64-128q0-7 5-11.5t12-4.5q15 0 15 15 0 7-4.5 12T144 96q-6 0-11-5t-5-11zm49 48q15 0 15 15 0 7-4.5 12t-11.5 5q-6 0-11-5t-5-11q0-7 5-11.5t12-4.5zm32-64q15 0 15 15 0 7-4.5 12T208 96q-6 0-11-5t-5-11q0-7 5-11.5t12-4.5zm32 64q15 0 15 15 0 7-4.5 12t-11.5 5q-6 0-11-5t-5-11q0-7 5-11.5t12-4.5zM0 32Q0 18 9.5 9T32 0h448q14 0 23 9t9 23v224q0 13-9 22.5t-23 9.5h-9q11 9 17.5 14t8.5 7h1l3 2q9 10 10 18t1 11q0 10-5 19-12 20-32 20-1 0-4-.5t-8-1.5l-5-2 36 67q4 7 4 15 0 5-3 14t-15 15l-35 18q-8 5-14 5-1 0-2-1-20 0-28-18l-35-66-2 6q-5 12-14.5 19.5T328 457q-1 0-4-.5t-8-1.5q-22-7-25-28l-1-4q0-1-1-13t-2.5-30.5T283 337t-4-49H32q-13 0-22.5-9.5T0 256V32zm256 48q0-7 5-11.5t12-4.5q15 0 15 15 0 7-4.5 12T272 96q-6 0-11-5t-5-11zm81-16q15 0 15 15 0 7-4.5 12T336 96q-6 0-11-5t-5-11q0-7 5-11.5t12-4.5zm31 64h64q16 0 16 15 0 7-4.5 12t-11.5 5h-64q-6 0-11-5t-5-11q0-7 5-11.5t11-4.5zm32-64h32q16 0 16 15 0 7-4.5 12T432 96h-32q-6 0-11-5t-5-11q0-7 5-11.5t11-4.5zm16 144q0-7 5-11.5t12-4.5q15 0 15 15 0 7-4.5 12t-11.5 5q-6 0-11-5t-5-11z"/>
</svg>