<svg xmlns="http://www.w3.org/2000/svg" viewBox="0 0 512 512">
	<path d="M32 478v-34q0-11 8-22l152-195V32h-16q-16 0-16-16t16-16h16q13 0 22.5 9.5T224 32v196q0 10-7 20L70 436q-6 7-6 19v25h384v-25q0-12-7-19L294 248q-6-9-6-20V32q0-13 9-22.5T320 0h16q6 0 11 4.5t5 11.5-5 11.5-11 4.5h-16v195l153 195q7 10 7 22v34q0 14-9.5 24T446 512H66q-14 0-24-10t-10-24zm99-56l93-134h64l92 134q6 8 2 17t-14 9H144q-11 0-15-9t2-17zm141-38q6 0 11-4.5t5-11.5-5-11.5-11-4.5q-16 0-16 16t16 16zm-64 32q6 0 11-4.5t5-11.5-5-11.5-11-4.5q-16 0-16 16t16 16z"/>
</svg>