<svg xmlns="http://www.w3.org/2000/svg" viewBox="0 0 512 512">
	<path d="M79.5 64q16 0 16 16t-16 16-16-16 16-16zm96 32q-16 0-16-16t16-16h257q6 0 11 4.5t5 11.5-5 11.5-11 4.5h-257zm-96 64q16 0 16 16t-16 16-16-16 16-16zm353 0q6 0 11 4.5t5 11.5-5 11.5-11 4.5h-257q-16 0-16-16t16-16h257zm-353 96q16 0 16 16t-16 16-16-16 16-16zm353 0q6 0 11 4.5t5 11.5-5 11.5-11 4.5h-257q-16 0-16-16t16-16h257zm-353 96q16 0 16 16t-16 16-16-16 16-16zm353 0q6 0 11 4.5t5 11.5-5 11.5-11 4.5h-257q-16 0-16-16t16-16h257zm-353 96q16 0 16 16t-16 16-16-16 16-16zm353 0q6 0 11 4.5t5 11.5-5 11.5-11 4.5h-257q-16 0-16-16t16-16h257z"/>
</svg>