<svg xmlns="http://www.w3.org/2000/svg" viewBox="0 0 512 512">
	<path d="M79.5 256q-16 0-16 16t16 16 16-16-16-16zm0 192q-16 0-16 16t16 16 16-16-16-16zm0-288q-16 0-16 16t16 16 16-16-16-16zm0 192q-16 0-16 16t16 16 16-16-16-16zm0-288q-16 0-16 16t16 16 16-16-16-16zm353 288q6 0 11 4.5t5 11.5-5 11.5-11 4.5h-257q-16 0-16-16t16-16h257zm0 96q6 0 11 4.5t5 11.5-5 11.5-11 4.5h-257q-16 0-16-16t16-16h257zm-257-352q-16 0-16-16t16-16h257q6 0 11 4.5t5 11.5-5 11.5-11 4.5h-257zm257 160q6 0 11 4.5t5 11.5-5 11.5-11 4.5h-257q-16 0-16-16t16-16h257zm0-96q6 0 11 4.5t5 11.5-5 11.5-11 4.5h-257q-16 0-16-16t16-16h257z"/>
</svg>