<svg xmlns="http://www.w3.org/2000/svg" viewBox="0 0 512 512">
	<path d="M79.5 64q-16 0-16 16t16 16 16-16-16-16zm0 96q-16 0-16 16t16 16 16-16-16-16zm0 96q-16 0-16 16t16 16 16-16-16-16zm0 96q-16 0-16 16t16 16 16-16-16-16zm0 96q-16 0-16 16t16 16 16-16-16-16zm96-352q-16 0-16-16t16-16h257q6 0 11 4.5t5 11.5-5 11.5-11 4.5h-257zm257 64q6 0 11 4.5t5 11.5-5 11.5-11 4.5h-257q-16 0-16-16t16-16h257zm0 96q6 0 11 4.5t5 11.5-5 11.5-11 4.5h-257q-16 0-16-16t16-16h257zm0 96q6 0 11 4.5t5 11.5-5 11.5-11 4.5h-257q-16 0-16-16t16-16h257zm0 96q6 0 11 4.5t5 11.5-5 11.5-11 4.5h-257q-16 0-16-16t16-16h257z"/>
</svg>