<svg xmlns="http://www.w3.org/2000/svg" viewBox="0 0 512 512">
	<path d="M496 223q16 0 16 16t-16 16h-85v44h60q16 0 16 16t-16 16h-60v60q0 16-16 16-6 0-11-4.5t-5-11.5V239q0-7 5-11.5t11-4.5h101zm-363 67q0 27-19 46.5T67 356H32v35q0 16-16 16-6 0-11-4.5T0 391V239q0-7 5-11.5t11-4.5h51q28 0 47 19.5t19 47.5zM32 324h35q14 0 24-10t10-24-10-24.5T67 255H32v69zm221-101q28 0 47 19.5t19 47.5v50q0 28-19 47.5T253 407h-51q-6 0-11-4.5t-5-11.5V239q0-7 5-11.5t11-4.5h51zm34 67q0-14-10-24.5T253 255h-35v120h35q14 0 24-10.5t10-24.5v-50zm132 153h32v36q0 14-9 23t-23 9H99q-14 0-23-9t-9-23v-33h32v33h320v-36zM99 192H67v-64L195 0h224q13 0 22 9 10 10 10 23v64h-32V32H227v96q0 13-10 22-9 9-23 9H99v33z"/>
</svg>