<svg xmlns="http://www.w3.org/2000/svg" viewBox="0 0 512 512">
	<path d="M32 512v-42.916l89.825-58.885 70.861 50.9 75.852-54.892 37.926 54.892 103.797-50.9 68.866 54.893V512l-73.856-58.885-110.784 54.893-33.933-50.9-67.868 49.902-71.86-53.895zm111.782-352.312h94.814q15.97 0 15.97 15.969 0 5.988-4.492 10.978t-11.478 4.99h-94.814q-5.989 0-10.979-4.99t-4.99-10.978q0-6.986 4.99-11.478t10.979-4.49zm-15.97-47.906q0-6.987 4.991-11.478t10.979-4.491h94.814q15.97 0 15.97 15.969 0 5.988-4.492 10.978t-11.478 4.99h-94.814q-5.989 0-10.979-4.99t-4.99-10.978zM63.939 32.936q0-13.973 8.982-23.455T95.875 0h319.376q13.973 0 22.956 9.481t8.982 23.455V384.25h-31.938V32.936H95.875V384.25H63.938V32.936zm255.5 142.72q0-6.985 4.99-11.477t10.98-4.49h31.937q15.969 0 15.969 15.968 0 5.988-4.491 10.978t-11.478 4.99h-31.938q-5.988 0-10.978-4.99t-4.99-10.978zm15.97 111.783h31.937q15.969 0 15.969 15.968 0 5.989-4.491 10.979t-11.478 4.99h-31.938q-5.988 0-10.978-4.99t-4.99-10.979q0-6.986 4.99-11.477t10.978-4.491zm0-63.876h31.937q15.969 0 15.969 15.97 0 5.987-4.491 10.978t-11.478 4.99h-31.938q-5.988 0-10.978-4.99t-4.99-10.979q0-6.986 4.99-11.477t10.978-4.492z"/>
</svg>