<svg xmlns="http://www.w3.org/2000/svg" viewBox="0 0 512 512">
	<path d="M96 96h32V64H96v32zm224 0h32V64h-32v32zM96 256q-14 0-23-9t-9-23 9-23 23-9 23 9 9 23-9 23-23 9zm0 128q-14 0-23-9t-9-23 9-23 23-9 23 9 9 23-9 23-23 9zm-64 96h256v32H32q-14 0-23-9t-9-23V64q0-14 9-23t23-9h64V0h32v32h192V0h32v32h64q14 0 23 9t9 23v256h-32V128H32v352zm192-96q-14 0-23-9t-9-23 9-23 23-9 23 9 9 23-9 23-23 9zm266-24l22 21-109 131-72-73 21-23 51 52zM224 256q-14 0-23-9t-9-23 9-23 23-9 23 9 9 23-9 23-23 9zm128 0q-14 0-23-9t-9-23 9-23 23-9 23 9 9 23-9 23-23 9zm0 128q-14 0-23-9t-9-23 9-23 23-9 23 9 9 23-9 23-23 9z"/>
</svg>