<svg xmlns="http://www.w3.org/2000/svg" viewBox="0 0 512 512">
	<path d="M416 0q14 0 23 9.5t9 22.5v448q0 14-9 23t-23 9H96q-14 0-23-9t-9-23V32q0-13 9-22.5T96 0h320zm0 32H96v448h320V32zm-32 128H128V64h256v96zm-224 96q-14 0-23-9t-9-23q0-13 9-22.5t23-9.5 23 9.5 9 22.5q0 14-9 23t-23 9zm96-64q14 0 23 9.5t9 22.5q0 14-9 23t-23 9-23-9-9-23q0-13 9-22.5t23-9.5zm96 0q14 0 23 9.5t9 22.5q0 14-9 23t-23 9-23-9-9-23q0-13 9-22.5t23-9.5zM160 352q-14 0-23-9t-9-23q0-13 9-22.5t23-9.5 23 9.5 9 22.5q0 14-9 23t-23 9zm96-64q14 0 23 9.5t9 22.5q0 14-9 23t-23 9-23-9-9-23q0-13 9-22.5t23-9.5zm96 0q14 0 23 9.5t9 22.5q0 14-9 23t-23 9-23-9-9-23q0-13 9-22.5t23-9.5zM160 448q-14 0-23-9t-9-23q0-13 9-22.5t23-9.5 23 9.5 9 22.5q0 14-9 23t-23 9zm96-64q14 0 23 9.5t9 22.5q0 14-9 23t-23 9-23-9-9-23q0-13 9-22.5t23-9.5zm96 0q14 0 23 9.5t9 22.5q0 14-9 23t-23 9-23-9-9-23q0-13 9-22.5t23-9.5z"/>
</svg>