<svg xmlns="http://www.w3.org/2000/svg" viewBox="0 0 512 512">
	<path d="M405.022 498.566q-9.951 9.951-22.888 9.951t-21.893-9.951l-101.504-100.51q-11.942-11.941 0-22.888 4.975-4.976 10.946-4.976t10.947 4.976l84.587 84.587v-317.45q0-15.922 15.922-15.922t15.922 15.922v319.44l86.577-86.577q10.947-10.946 22.889 0 10.946 10.947 0 22.888zM253.761 110.46q10.946 11.941 0 22.888-4.976 4.976-11.444 4.976t-11.444-4.976l-86.578-86.577v319.44q0 15.922-15.922 15.922t-15.922-15.922V48.762l-84.587 84.587q-4.976 4.976-10.947 4.976t-10.946-4.976q-11.942-10.947 0-22.888L107.475 9.95Q116.431 0 129.368 0t22.889 9.951z"/>
</svg>