<svg xmlns="http://www.w3.org/2000/svg" viewBox="0 0 512 512">
	<path d="M127 240q0-7 5-11.5t11-4.5h224q16 0 16 16 0 6-4.5 11t-11.5 5H143q-6 0-11-5t-5-11zm0 96q0-7 5-11.5t11-4.5h224q16 0 16 16 0 6-4.5 11t-11.5 5H143q-6 0-11-5t-5-11zm289-48h22q16 2 26 10t10 26q0 14 3.5 21.5t8.5 11 12 4 14 .5v47q-14 0-26 4.5T474 444q0 18-10 26t-26 10h-22v-32h32q0-21 4-33.5t9-19 11-9.5q5-2 8-2-3 0-8-2-6-2-11-9t-9-19.5-4-33.5h-32v-32zM0 105q7 0 13.5-.5t12-4 8.5-11T37 68q0-18 10-26t26-10h23v32H64q0 21-4 33.5T51 117t-10 9q-6 2-9 2 3 0 9 2 5 3 10 9.5t9 19 4 33.5h32v32H73q-16-2-26-10t-10-26q0-27-11.5-31.5T0 152v-47zm127 39q0-7 5-11.5t11-4.5h224q16 0 16 16 0 6-4.5 11t-11.5 5H143q-6 0-11-5t-5-11z"/>
</svg>