<svg xmlns="http://www.w3.org/2000/svg" viewBox="0 0 512 512">
	<path d="M279 256l39 40q5 5 5 11 0 16-16 16-6 0-11-5l-40-39-40 39q-5 5-11 5-16 0-16-16 0-6 5-11l39-40-39-40q-5-5-5-11 0-16 16-16 6 0 11 5l40 39 40-39q5-5 11-5 16 0 16 16 0 6-5 11zM496 33q7 0 11.5 5t4.5 11v114q0 16-16 16H383q-16 0-16-16t16-16h81q-35-54-90-84.5T253 32q-72 0-131.5 37T30 170q-4 9-14 9-7 0-11.5-5T0 163q0-3 5-14 17-33 42.5-60.5t58-47T176 11t78-11q68 0 127 30t99 83V49q0-6 4.5-11t11.5-5zM16 479q-7 0-11.5-5T0 463V349q0-16 16-16h113q16 0 16 16t-16 16H48q35 54 90 84.5T258 480q72 0 132-37t92-101q4-9 14-9 7 0 11.5 5t4.5 11q0 3-5 14-16 33-42 60.5t-58.5 47-70 30.5-78.5 11q-68 0-127-30t-99-83v64q0 6-4.5 11T16 479z"/>
</svg>