<svg xmlns="http://www.w3.org/2000/svg" viewBox="0 0 512 512">
	<path d="M136 256h48q8 0 8 8v80q0 8-8 8h-48q-8 0-8-8v-80q0-8 8-8zm-8 136q0-8 8-8h48q8 0 8 8v16q0 8-8 8h-48q-8 0-8-8v-16zm264-40h48q8 0 8 8v48q0 8-8 8h-48q-8 0-8-8v-48q0-8 8-8zM128 216v-80q0-8 8-8h48q8 0 8 8v80q0 8-8 8h-48q-8 0-8-8zM32 32h32v416h416v32H32V32zm224 248V136q0-8 8-8h48q8 0 8 8v144q0 8-8 8h-48q-8 0-8-8zm8 40h48q8 0 8 8v80q0 8-8 8h-48q-8 0-8-8v-80q0-8 8-8zm120-8v-48q0-8 8-8h48q8 0 8 8v48q0 8-8 8h-48q-8 0-8-8zM256 40q0-8 8-8h48q8 0 8 8v48q0 8-8 8h-48q-8 0-8-8V40zm128 176v-48q0-8 8-8h48q8 0 8 8v48q0 8-8 8h-48q-8 0-8-8z"/>
</svg>