<svg width="428" height="389" viewBox="0 0 428 389" fill="none" xmlns="http://www.w3.org/2000/svg">
<g clip-path="url(#clip0_151_184)">
<path d="M155.662 235.028H109.623V261.663H155.662V235.028Z" fill="#3BADD3" stroke="black" stroke-width="1.275" stroke-miterlimit="10"/>
<path d="M155.681 280.576H109.642V307.211H155.681V280.576Z" fill="#3BADD3" stroke="black" stroke-width="1.275" stroke-miterlimit="10"/>
<path d="M155.681 326.107H109.642V352.742H155.681V326.107Z" fill="#3BADD3" stroke="black" stroke-width="1.275" stroke-miterlimit="10"/>
<path d="M216.091 95.6831C216.091 153.482 216.091 211.28 216.091 269.079C216.091 285.326 216.091 301.84 216.091 318.088C216.091 328.475 225.139 338.597 236.05 338.064C246.961 337.531 256.009 329.274 256.009 318.088C256.009 260.289 256.009 202.491 256.009 144.692C256.009 128.445 256.009 111.931 256.009 95.6831C256.009 85.2954 246.961 75.174 236.05 75.7067C225.405 75.973 216.091 84.4963 216.091 95.6831Z" fill="#5D36FF"/>
<path d="M265.855 96.482C265.855 154.014 265.855 211.28 265.855 268.812C265.855 285.06 265.855 301.574 265.855 317.821C265.855 328.209 274.903 338.33 285.814 337.798C296.725 337.265 305.773 329.008 305.773 317.821C305.773 260.289 305.773 203.023 305.773 145.491C305.773 129.243 305.773 112.729 305.773 96.482C305.773 86.0942 296.725 75.9728 285.814 76.5055C275.169 77.0382 265.855 85.2951 265.855 96.482Z" fill="#5D36FF"/>
<path d="M315.354 96.4819C315.354 148.421 315.354 200.36 315.354 252.298C315.354 267.214 315.354 281.863 315.354 296.779C315.354 307.167 324.402 317.288 335.313 316.756C346.224 316.223 355.272 307.966 355.272 296.779C355.272 244.84 355.272 192.902 355.272 140.963C355.272 126.047 355.272 111.398 355.272 96.4819C355.272 86.0942 346.224 75.9728 335.313 76.5055C324.668 77.0382 315.354 85.2951 315.354 96.4819Z" fill="#5D36FF"/>
<path d="M2.12866 385.195C143.173 385.195 284.217 385.195 425.262 385.195H2.12866Z" fill="black"/>
<path d="M2.12866 385.195C143.173 385.195 284.217 385.195 425.262 385.195" stroke="black" stroke-width="1.275" stroke-miterlimit="10" stroke-linecap="round"/>
<path d="M365.411 128.354C365.411 128.621 365.411 381.129 365.411 384.87C312.359 384.87 259.307 384.87 206.254 384.87V57.0107H365.411C365.411 63.4236 365.411 70.1037 365.411 76.5166V94.4193" stroke="black" stroke-width="1.275" stroke-miterlimit="10" stroke-linecap="round" stroke-linejoin="round"/>
<path d="M365.651 112.196V119.654" stroke="black" stroke-width="1.275" stroke-miterlimit="10" stroke-linecap="round"/>
<path d="M303.112 70.3804H268.516V336.467H303.112V70.3804Z" stroke="black" stroke-width="1.275" stroke-miterlimit="10"/>
<path d="M351.813 70.3804H317.217V336.467H351.813V70.3804Z" stroke="black" stroke-width="1.275" stroke-miterlimit="10"/>
<path d="M256.009 304.504C256.009 315.159 256.009 325.546 256.009 336.2H221.413V70.3804H256.009C256.009 70.9131 256.009 247.771 256.009 247.771" stroke="black" stroke-width="1.275" stroke-miterlimit="10" stroke-linecap="round"/>
<path d="M256.01 261.622C256.01 261.622 256.01 286.659 256.01 286.925" stroke="black" stroke-width="1.275" stroke-miterlimit="10" stroke-linecap="round"/>
<path d="M256.009 292.043V300.178" stroke="black" stroke-width="1.275" stroke-miterlimit="10" stroke-linecap="round"/>
<path d="M205.978 190.016H109.642V216.651H205.978V190.016Z" stroke="black" stroke-width="1.275" stroke-miterlimit="10"/>
<path d="M109.642 235.296H62.2722V261.932H109.642V235.296Z" stroke="black" stroke-width="1.275" stroke-miterlimit="10"/>
<path d="M205.978 384.677H52.4263V352.714C84.627 352.714 116.828 352.714 149.028 352.714H156.48C157.012 352.714 205.446 352.714 205.978 352.714C205.978 363.368 205.978 374.023 205.978 384.677Z" stroke="black" stroke-width="1.275" stroke-miterlimit="10"/>
<path d="M102.99 171.37L116.029 161.781L127.739 153.258L135.722 147.398L201.987 99.4548C203.051 98.6557 204.382 97.8567 205.446 97.0576" stroke="black" stroke-width="1.275" stroke-miterlimit="10"/>
<path d="M374.965 57.0108H197.247C195.121 57.0108 193.262 54.9227 193.262 52.5363V43.5873C193.262 41.2009 195.121 39.1128 197.247 39.1128H375.231C377.356 39.1128 379.216 41.2009 379.216 43.5873V52.5363C378.95 54.9227 377.356 57.0108 374.965 57.0108Z" stroke="black" stroke-width="1.275" stroke-miterlimit="10"/>
<path d="M230.461 38.1507V7.2538C230.461 4.05757 232.324 1.39404 234.453 1.39404H338.241C340.37 1.39404 342.232 4.05757 342.232 7.2538V38.4171" stroke="black" stroke-width="1.275" stroke-miterlimit="10"/>
<path d="M201.987 190.016H104.32C102.191 190.016 100.328 188.151 100.328 186.021V175.366C100.328 173.236 102.191 171.371 104.32 171.371H201.987C204.116 171.371 205.978 173.236 205.978 175.366V186.021C205.978 188.151 204.382 190.016 201.987 190.016Z" stroke="black" stroke-width="1.275" stroke-miterlimit="10"/>
<path d="M202.252 235.297H57.7479C55.6189 235.297 54.0222 233.698 54.0222 231.568V220.647C54.0222 218.516 55.8851 216.652 58.014 216.652H202.252C204.381 216.652 205.978 218.25 205.978 220.381V231.568C205.978 233.432 204.381 235.297 202.252 235.297Z" stroke="black" stroke-width="1.275" stroke-miterlimit="10"/>
<path d="M202.252 280.842H57.7479C55.6189 280.842 54.0222 279.244 54.0222 277.113V266.193C54.0222 264.062 55.8851 262.197 58.014 262.197H202.252C204.381 262.197 205.978 263.795 205.978 265.926V277.113C205.978 279.244 204.381 280.842 202.252 280.842Z" stroke="black" stroke-width="1.275" stroke-miterlimit="10"/>
<path d="M202.252 325.856H57.7479C55.6189 325.856 54.0222 324.258 54.0222 322.127V311.206C54.0222 309.075 55.8851 307.211 58.014 307.211H202.252C204.381 307.211 205.978 308.809 205.978 310.94V322.127C205.978 323.991 204.381 325.856 202.252 325.856Z" stroke="black" stroke-width="1.275" stroke-miterlimit="10"/>
<path d="M350.795 344.192H221.683V353.955H350.795V344.192Z" fill="white" stroke="black" stroke-width="1.275" stroke-miterlimit="10"/>
<path d="M302.885 354.769H267.968V383.243H302.885V354.769Z" stroke="black" stroke-width="1.275" stroke-miterlimit="10"/>
<path d="M285.833 382.429C285.833 373.209 285.833 363.989 285.833 354.769" stroke="black" stroke-width="1.275" stroke-miterlimit="10"/>
<path d="M386.941 287.989C381.884 284.26 376.03 281.863 370.441 283.195C360.328 285.592 352.611 300.242 354.474 309.83C355.006 311.961 356.337 315.424 354.474 317.821C352.611 320.218 349.684 318.886 346.49 320.484C341.434 323.148 339.039 332.204 341.168 339.129C343.031 346.054 348.885 349.25 354.474 352.447C361.925 356.708 369.11 357.507 373.102 357.774C380.554 358.306 387.473 359.105 394.392 355.11C404.239 349.517 410.359 336.998 407.698 328.475C407.166 326.877 405.835 322.882 402.376 320.484" fill="white"/>
<path d="M386.941 287.989C381.884 284.26 376.03 281.863 370.441 283.195C360.328 285.592 352.611 300.242 354.474 309.83C355.006 311.961 356.337 315.424 354.474 317.821C352.611 320.218 349.684 318.886 346.49 320.484C341.434 323.148 339.039 332.204 341.168 339.129C343.031 346.054 348.885 349.25 354.474 352.447C361.925 356.708 369.11 357.507 373.102 357.774C380.554 358.306 387.473 359.105 394.392 355.11C404.239 349.517 410.359 336.998 407.698 328.475C407.166 326.877 405.835 322.882 402.376 320.484" stroke="black" stroke-width="1.275" stroke-miterlimit="10" stroke-linecap="round"/>
<path d="M397.053 318.088C394.126 314.625 397.053 309.564 397.053 304.77C397.053 300.508 394.658 295.714 390.933 291.719" fill="white"/>
<path d="M397.053 318.088C394.126 314.625 397.053 309.564 397.053 304.77C397.053 300.508 394.658 295.714 390.933 291.719" stroke="black" stroke-width="1.275" stroke-miterlimit="10" stroke-linecap="round"/>
<path d="M109.642 280.842H62.2722V307.477H109.642V280.842Z" stroke="black" stroke-width="1.275" stroke-miterlimit="10"/>
<path d="M109.642 326.374H62.2722V353.009H109.642V326.374Z" stroke="black" stroke-width="1.275" stroke-miterlimit="10"/>
<line x1="373.357" y1="320.424" x2="373.357" y2="384.232" stroke="black" stroke-width="1.275" stroke-linecap="round"/>
<line x1="0.6375" y1="-0.6375" x2="17.2151" y2="-0.6375" transform="matrix(0.500334 -0.865833 0.865019 0.501739 373.531 350.701)" stroke="black" stroke-width="1.275" stroke-linecap="round"/>
<line x1="0.6375" y1="-0.6375" x2="26.1883" y2="-0.6375" transform="matrix(-0.817299 -0.576214 0.574773 -0.818313 374.343 349.074)" stroke="black" stroke-width="1.275" stroke-linecap="round"/>
</g>
<defs>
<clipPath id="clip0_151_184">
<rect width="427.125" height="388.875" fill="white" transform="translate(0 0.0625)"/>
</clipPath>
</defs>
</svg>
