<svg width="60" height="52" viewBox="0 0 60 52" fill="none" xmlns="http://www.w3.org/2000/svg">
<path d="M29.9434 31.2184C32.8437 31.2184 35.1949 28.8579 35.1949 25.9461C35.1949 23.0343 32.8437 20.6738 29.9434 20.6738C27.0431 20.6738 24.6919 23.0343 24.6919 25.9461C24.6919 28.8579 27.0431 31.2184 29.9434 31.2184Z" fill="#00D8FF"/>
<path d="M29.9434 15.2266C36.9936 15.2266 43.5455 16.2425 48.4822 17.9495C54.4325 20.0061 58.0905 23.1233 58.0905 25.9457C58.0905 28.8888 54.2133 32.1991 47.8238 34.3246C42.9926 35.9315 36.636 36.7702 29.9416 36.7702C23.0819 36.7702 16.5816 35.9827 11.6971 34.3069C5.51636 32.1879 1.79395 28.8328 1.79395 25.9487C1.79395 23.1486 5.28653 20.0561 11.1536 18.0024C16.112 16.2643 22.8239 15.2266 29.9434 15.2266Z" stroke="#00D8FF" stroke-width="2" stroke-miterlimit="10"/>
<path d="M20.6487 20.6213C24.1706 14.4897 28.3192 9.3011 32.2574 5.85831C37.0064 1.71094 41.5209 0.0899067 43.9576 1.49669C46.4957 2.96822 47.4168 7.99261 46.0583 14.6116C45.0311 19.6148 42.5792 25.5597 39.2355 31.3841C35.8092 37.3485 31.8839 42.6065 27.9973 46.017C23.08 50.3327 18.3234 51.8942 15.8357 50.4533C13.4202 49.0542 12.4938 44.4713 13.6547 38.3432C14.6344 33.1652 17.0916 26.8105 20.6487 20.6213Z" stroke="#00D8FF" stroke-width="2" stroke-miterlimit="10"/>
<path d="M20.6569 31.3973C17.1268 25.2722 14.7182 19.0718 13.7157 13.9256C12.5073 7.72576 13.3639 2.98511 15.7947 1.57068C18.3304 0.099156 23.1281 1.80612 28.1615 6.29368C31.9672 9.68583 35.8749 14.7885 39.2303 20.6039C42.666 26.5671 45.2428 32.6057 46.2454 37.6919C47.5135 44.1248 46.4869 49.0396 43.9992 50.4853C41.586 51.8879 37.1694 50.4029 32.4603 46.3344C28.4811 42.8946 24.2239 37.583 20.6569 31.3973Z" stroke="#00D8FF" stroke-width="2" stroke-miterlimit="10"/>
</svg>
