<svg xmlns="http://www.w3.org/2000/svg" viewBox="0 0 512 512">
	<path d="M490 360l22 21-109 131-72-73 21-23 51 52zM320 96h32V64h-32v32zM96 96h32V64H96v32zM32 480h256v32H32q-14 0-23-9t-9-23V64q0-14 9-23t23-9h64V0h32v32h192V0h32v32h64q14 0 23 9t9 23v256h-32V128H32v352zm64-224q-14 0-23-9t-9-23 9-23 23-9 23 9 9 23-9 23-23 9zm0 128q-14 0-23-9t-9-23 9-23 23-9 23 9 9 23-9 23-23 9zm128-128q-14 0-23-9t-9-23 9-23 23-9 23 9 9 23-9 23-23 9zm0 128q-14 0-23-9t-9-23 9-23 23-9 23 9 9 23-9 23-23 9zm128-128q-14 0-23-9t-9-23 9-23 23-9 23 9 9 23-9 23-23 9zm0 128q-14 0-23-9t-9-23 9-23 23-9 23 9 9 23-9 23-23 9z"/>
</svg>