<svg xmlns="http://www.w3.org/2000/svg" viewBox="0 0 512 512">
	<path d="M368 472V288h88q8 0 8 8v176q0 8-8 8h-80q-8 0-8-8zM208 72q0-8 8-8h80q8 0 8 8v144q0 8-8 8h-80q-8 0-8-8V72zm0 280h88q8 0 8 8v112q0 8-8 8h-80q-8 0-8-8V352zm168-224h80q8 0 8 8v112q0 8-8 8h-80q-8 0-8-8V136q0-8 8-8zM48 248v-80q0-8 8-8h80q8 0 8 8v80q0 8-8 8H56q-8 0-8-8zm8 136h80q8 0 8 8v80q0 8-8 8H56q-8 0-8-8v-80q0-8 8-8zM368 88V40q0-8 8-8h80q8 0 8 8v48q0 8-8 8h-80q-8 0-8-8zM216 256h80q8 0 8 8v48q0 8-8 8h-80q-8 0-8-8v-48q0-8 8-8zM56 288h80q8 0 8 8v48q0 8-8 8H56q-8 0-8-8v-48q0-8 8-8z"/>
</svg>