<svg xmlns="http://www.w3.org/2000/svg" viewBox="0 0 512 512">
	<path d="M181 71q7-7 17-7 11 0 18.5 7.5T224 90q0 10-8 18L101 217q-7 7-17 7-11 0-18-7L8 162q-8-8-8-19t7.5-18 18.5-7q10 0 17 7l41 38zm133 89q-11 0-18.5-7.5T288 134t7.5-18 18.5-7h172q11 0 18.5 7t7.5 18-7.5 18.5T486 160H314zM181 295q7-7 17-7 11 0 18.5 7.5T224 314q0 10-8 18L101 441q-7 7-17 7-11 0-18-7L8 386q-8-8-8-19t7.5-18 18.5-7q10 0 17 7l41 38zm305 38q11 0 18.5 7t7.5 18-7.5 18.5T486 384H314q-11 0-18.5-7.5T288 358t7.5-18 18.5-7h172z"/>
</svg>