<svg xmlns="http://www.w3.org/2000/svg" viewBox="0 0 512 512">
	<path d="M196 441q6-2 10-2 11 0 18.5 7.5T232 465q0 17-16 23l-53 22q-6 2-9 2-11 0-18.5-7.5T128 486V184q0-18 16-24l190-76-49-30-234 88v312q0 11-7 18.5T26 480t-18.5-7.5T0 454V125q0-17 17-24L279 2q3-2 9-2 7 0 14 4l102 64q12 7 12 22v140q0 11-7.5 18.5T390 256t-18-7.5-7-18.5V127l-186 74v247zm290-67q11 0 18.5 7.5T512 400t-7.5 18.5T486 426h-60v60q0 11-7.5 18.5T400 512t-18.5-7.5T374 486v-60h-60q-11 0-18.5-7.5T288 400t7.5-18.5T314 374h60v-60q0-11 7.5-18.5T400 288t18.5 7.5T426 314v60h60z"/>
</svg>