<svg xmlns="http://www.w3.org/2000/svg" viewBox="0 0 512 512">
	<path d="M502.5 109q-31 11-47 27t-27 48q-3 9-13 9t-13-9q-11-32-26.5-48t-47.5-27q-9-3-9-12.5t9-12.5q32-11 47.5-27t26.5-48q3-9 13-9t13 9q11 32 27 48t47 27q10 3 10 12.5t-10 12.5zm-167 250q-28 10-49.5 21.5T248.5 408 221 445t-21.5 50q-2 8-8.5 12.5t-14.5 4.5q-7 0-13.5-4.5t-9.5-12.5q-19-57-49-87t-87-49q-8-3-12-9.5t-4-13.5 4-13.5 12-9.5q29-10 50-21.5t37-27.5 27.5-37.5 21.5-49.5q3-8 9.5-12.5t13.5-4.5q8 0 14.5 4.5t8.5 12.5q10 28 21.5 49.5t27.5 37.5 37.5 27.5 49.5 21.5q8 3 12.5 9.5t4.5 13.5-4.5 13.5-12.5 9.5z"/>
</svg>