<svg xmlns="http://www.w3.org/2000/svg" viewBox="0 0 512 512">
	<path d="M336 360q-28 9-49.5 21T249 408.5 221.5 445 200 495q-2 8-8.5 12.5T177 512q-17 0-23-17-10-29-21.5-50T105 408.5 68 381t-50-21q-8-3-12-9.5t-4-14 4-14 12-9.5q29-10 50-21.5t37-27.5 27.5-37.5T154 177q6-17 23-17 8 0 14.5 4.5T200 177q10 28 21.5 49.5T249 264t37.5 27.5T336 313q8 3 12.5 9.5t4.5 14-4.5 14T336 360zm167-251q-32 11-47.5 27T429 184q-3 9-13 9t-13-9q-11-32-27-48t-47-27q-10-3-10-12.5T329 84q31-11 47-27t27-48q3-9 13-9t13 9q11 32 26.5 48T503 84q9 3 9 12.5t-9 12.5z"/>
</svg>