<svg xmlns="http://www.w3.org/2000/svg" viewBox="0 0 512 512">
	<path d="M32 352q14 0 23 9t9 23-9 23-23 9-23-9-9-23 9-23 23-9zm-6-77q-11 0-18.5-7T0 250t7.5-18.5T26 224h108q11 0 18.5 7.5T160 250t-7.5 18-18.5 7H26zm236 77q11 0 18.5 7.5T288 378t-7.5 18-18.5 7H154q-11 0-18.5-7t-7.5-18 7.5-18.5T154 352h108zm122 0q14 0 23 9t9 23-9 23-23 9-23-9-9-23 9-23 23-9zM32 160q-14 0-23-9t-9-23 9-23 23-9 23 9 9 23-9 23-23 9zm122-13q-11 0-18.5-7t-7.5-18 7.5-18.5T154 96h44q11 0 18.5 7.5T224 122t-7.5 18-18.5 7h-44zm102 141q-14 0-23-9t-9-23 9-23 23-9 23 9 9 23-9 23-23 9zm96-160q0 14-9 23t-23 9-23-9-9-23 9-23 23-9 23 9 9 23zm64 32q-14 0-23-9t-9-23 9-23 23-9 23 9 9 23-9 23-23 9zm70 64q11 0 18.5 7.5T512 250t-7.5 18-18.5 7H378q-11 0-18.5-7t-7.5-18 7.5-18.5T378 224h108z"/>
</svg>