<svg xmlns="http://www.w3.org/2000/svg" viewBox="0 0 512 512">
	<path d="M67 201v260h83q11 0 18.5 7t7.5 18-7.5 18.5T150 512H42q-11 0-18.5-7.5T16 486V192q0-10 6-17L165 9q6-9 19-9h190q11 0 18.5 7.5T400 26v140q0 11-7.5 18.5T374 192t-18-7.5-7-18.5V51H196l-20 24v66q0 21-15 36t-36 15H75zm403 157q11 0 18.5 7.5T496 384t-7 18L386 505q-9 7-18 7t-18-7L248 402q-8-8-8-18t8-18l102-103q7-7 18-7t18 7l51 52q8 8 8 18t-8 18l-51 51q-8 8-18 8-11 0-18.5-7.5T342 384q0-10 8-18l33-33-15-15-66 66 66 66 84-84q8-8 18-8z"/>
</svg>