<svg xmlns="http://www.w3.org/2000/svg" viewBox="0 0 512 512">
	<path d="M154 383q-11 0-18.5-7t-7.5-18 7.5-18.5T154 332t18 7.5 7 18.5-7 18-18 7zm0-159q-11 0-18.5-7.5T128 198t7.5-18 18.5-7 18 7 7 18-7 18.5-18 7.5zm160 160q-11 0-18.5-7t-7.5-18 7.5-18.5T314 333t18 7.5 7 18.5-7 18-18 7zm102-64q-14 0-23-9t-9-23 9-23 23-9 23 9 9 23-9 23-23 9zM224 96q-14 0-23-9t-9-23 9-23 23-9 23 9 9 23-9 23-23 9zm230 384H58q-11 0-18.5-7.5T32 454V58q0-11 7.5-18.5T58 32t18 7.5T83 58v371h371q11 0 18.5 7t7.5 18-7.5 18.5T454 480zM288 256q-14 0-23-9t-9-23 9-23 23-9 23 9 9 23-9 23-23 9zm112-96q-20 0-34-14t-14-34 14-34 34-14 34 14 14 34-14 34-34 14z"/>
</svg>