<svg xmlns="http://www.w3.org/2000/svg" viewBox="0 0 512 512">
	<path d="M198 0q11 0 18.5 7.5T224 26t-7.5 18-18.5 7H26q-11 0-18.5-7T0 26 7.5 7.5 26 0h172zm270 324q7-7 18-7t18.5 7 7.5 18q0 9-7 18L390 476q-9 7-18 7-10 0-19-7l-57-58q-8-8-8-18 0-11 7.5-18.5T314 374q10 0 18 8l40 39zM198 86q11 0 18.5 7.5T224 112t-7.5 18.5T198 138H26q-11 0-18.5-7.5T0 112t7.5-18.5T26 86h172zm-64 87q11 0 18.5 7t7.5 18-7.5 18.5T134 224H26q-11 0-18.5-7.5T0 198t7.5-18 18.5-7h108zM26 403q11 0 18 7.5t7 18.5v57q0 11-7 18.5T26 512t-18.5-7.5T0 486v-57q0-11 7.5-18.5T26 403zm86-115q11 0 18 7.5t7 18.5v172q0 11-7 18.5t-18 7.5-18.5-7.5T86 486V314q0-11 7.5-18.5T112 288zm86 58q11 0 18 7t7 18v115q0 11-7 18.5t-18 7.5-18.5-7.5T172 486V371q0-11 7.5-18t18.5-7zm116-121q-11 0-18.5-8.5T288 193q0-12 5.5-24t15.5-21 22.5-14.5T359 128h82q15 0 27.5 5.5T491 148t15.5 21 5.5 24q0 15-7.5 23.5T486 225H314zm86-129q-20 0-34-14t-14-34 14-34 34-14 34 14 14 34-14 34-34 14z"/>
</svg>