<svg xmlns="http://www.w3.org/2000/svg" viewBox="0 0 512 512">
	<path d="M60 105q9 0 16 7.5t7 17.5q0 4-1.5 8T75 150q-14 25-25 61-5 18-24 18-11 0-18.5-7T0 205q0-8 5-24.5t13.5-33 19-29.5T60 105zM50 301q11 36 25 61 5 8 6.5 12t1.5 8q0 11-7.5 18T60 407q-10 0-21-12t-19.5-28-14-32.5T0 308q0-11 7.5-18t18.5-7q19 0 24 18zm80-218q-10 0-17.5-7T105 59q0-12 11-22.5T142.5 18t32-12.5T201 1q11 0 19.5 6.5T229 25q0 9-7 16.5T200 52q-11 2-26 8.5T149 75q-11 8-19 8zm70 376q15 4 22 11.5t7 16.5q0 10-7.5 17.5T204 512q-9 0-25.5-4.5t-33-12.5-28.5-18.5-12-22.5q0-10 7-17t17-7q9 0 22 8 8 7 23 13t26 8zm262-248q-11-36-25-61-5-8-6.5-12t-1.5-8q0-11 7.5-18t15.5-7q11 0 21.5 12t19 28 14 32.5T512 204q0 11-7.5 18t-18.5 7q-19 0-24-18zm24 72q11 0 18.5 7t7.5 17q0 7-5 23.5T493.5 364t-19 30-22.5 13q-8 0-15.5-7t-7.5-18q0-4 1.5-8t6.5-12q14-25 25-61 5-18 24-18zM311 52q-14-3-21-10.5T283 25q0-10 7.5-17.5T309 0q9 0 25 5t32.5 13T395 36.5 407 58t-7.5 18-17.5 7q-7 0-20-8-12-8-26-14.5T311 52zm61 379q6-2 10-2 11 0 18 7.5t7 18.5q0 16-15 24l-74 31q-6 2-10 2-11 0-18-7.5t-7-18.5q0-16 15-23zM224 122q0-11 7.5-18.5T250 96t18 7.5 7 18.5v126l71 95q5 8 5 15 0 11-7.5 18.5T325 384q-12 0-20-10l-76-102q-5-8-5-15V122z"/>
</svg>