<svg xmlns="http://www.w3.org/2000/svg" viewBox="0 0 512 512">
	<path d="M247 85q9 7 9 20v349q0 11-7.5 18.5T230 480H26q-11 0-18.5-7.5T0 454V250q0-11 7.5-18.5T26 224h70V104q0-13 9-20l54-46q8-6 16-6 10 0 17 6zm192 145q30 0 51.5 22.5T512 307t-21.5 54.5T439 384h-4v38q0 11-7 18.5t-18 7.5-18.5-7.5T384 422v-38h-38q-11 0-18.5-7.5T320 358t7.5-18 18.5-7h93q9 0 15.5-7.5T461 307t-6.5-18-15.5-7h-46q-30 0-51.5-22.5T320 205t21.5-54.5T393 128h4V90q0-11 7-18.5t18-7.5 18.5 7.5T448 90v38h38q11 0 18.5 7.5T512 154t-7.5 18-18.5 7h-93q-9 0-15.5 7.5T371 205t6.5 18 15.5 7h46zM51 275v58h45v-58H51zm0 154h154v-45H51v45zm154-154h-58v58h58v-58zm-58-51h58v-45h-58v45zm0-108v12h58v-12l-30-25z"/>
</svg>