<svg xmlns="http://www.w3.org/2000/svg" viewBox="0 0 512 512">
	<path d="M390 0q11 0 18.5 7.5T416 26q0 10-7 17l-69 76q-6 9-19 9H218q-11 0-18.5-7.5T192 102V26q0-11 7.5-18.5T218 0h172zM194 288l-27 45h256q11 0 18.5 7.5T449 359t-7.5 18-18.5 7H122q-11 0-18.5-7T96 359q0-8 4-13l49-83L58 83H26q-11 0-18.5-7T0 58t7.5-18.5T26 32h48q17 0 23 14l96 191h196l75-128q4-7 10-10t12-3q11 0 18.5 7.5T512 122q0 6-4 13l-83 140q-6 13-22 13H194zm-50 128q20 0 34 14t14 34-14 34-34 14-34-14-14-34 14-34 34-14zm256 0q20 0 34 14t14 34-14 34-34 14-34-14-14-34 14-34 34-14z"/>
</svg>