<svg xmlns="http://www.w3.org/2000/svg" viewBox="0 0 512 512">
	<path d="M200 108q-8-8-8-18 0-11 7.5-18.5T218 64q10 0 18 8l33 33V26q0-11 7-18.5T294 0t18.5 7.5T320 26v79l33-33q8-8 18-8 11 0 18.5 7.5T397 90q0 10-8 18l-76 77q-7 7-19 7-11 0-18-7zm286-16q11 0 18.5 7.5T512 118q0 7-3 13l-83 144q-8 13-23 13H192l-26 45h256q11 0 18.5 7t7.5 18-7.5 18.5T422 384H122q-11 0-18.5-7.5T96 358q0-6 3-12l49-84L58 84H26q-11 0-18.5-7.5T0 58t7.5-18.5T26 32h48q16 0 23 14l96 191h196l75-132q8-13 22-13zm-86 324q20 0 34 14t14 34-14 34-34 14-34-14-14-34 14-34 34-14zm-256 0q20 0 34 14t14 34-14 34-34 14-34-14-14-34 14-34 34-14z"/>
</svg>