<svg xmlns="http://www.w3.org/2000/svg" viewBox="0 0 512 512">
	<path d="M104 240q-10 4-14 4-11 0-18.5-7.5T64 218q0-13 11-21l45-30q7-4 14-4 11 0 18.5 7.5T160 189v140q0 11-7.5 18.5T134 355t-18-7.5-7-18.5v-93zM454 67q24 0 41 17t17 41v332q0 24-17 41t-41 17H58q-24 0-41-17T0 457V125q0-24 17-41t41-17h396zM218 355q-11 0-18.5-7.5T192 329t7-18l21-20-21-20q-7-7-7-18t7.5-18.5T218 227t18 7l20 21 20-21q7-7 18-7t18.5 7.5T320 253t-7 18l-21 20 21 20q7 7 7 18t-7.5 18.5T294 355t-18-7l-20-21-20 21q-7 7-18 7zm142-115q-10 4-14 4-11 0-18.5-7.5T320 218q0-13 11-21l45-30q7-4 14-4 11 0 18.5 7.5T416 189v140q0 11-7.5 18.5T390 355t-18-7.5-7-18.5v-93zM58 118q-7 0-7 7v262h410V125q0-7-7-7H58zm396 346q7 0 7-7v-19H51v19q0 7 7 7h396z"/>
</svg>