<svg xmlns="http://www.w3.org/2000/svg" viewBox="0 0 512 512">
	<path d="M451 197q26 8 43.5 31.5T512 282v12q0 11-7.5 18.5T486 320t-18-7.5-7-18.5v-12q0-17-11-28t-28-11h-1q11 25 11 45 0 15-7.5 23.5T406 320t-18-8.5-7-22.5q0-12-5.5-24T360 244t-22.5-14.5T310 224H202q-15 0-27.5 5.5T152 244t-15.5 21-5.5 24q0 14-7 22.5t-18 8.5-18.5-8.5T80 288q0-20 11-45h-1q-17 0-28 11t-11 28v12q0 11-7 18.5T26 320t-18.5-7.5T0 294v-12q0-30 17.5-53T61 197q-14-14-21.5-33T32 125t7.5-37 21-29.5 31-19.5 36.5-7q22 0 41 9 17-20 40-30.5T256 0t47 10.5T343 41q18-9 38-9t38 7 31.5 20T472 89.5t8 37.5-7.5 38-21.5 32zm-22-69q0-19-13-32t-33-13q-10 0-18 4 3 12 3 25 0 27-12 51 11 10 27 10 17 0 31.5-12.5T429 128zm-112-16q0-26-18-43.5T255 51t-43 18-17 42q0 25 17 43.5t42 18.5h3q23 0 41.5-17t18.5-44zM83 128q0 20 14.5 32.5T129 173q16 0 27-10-12-24-12-51 0-13 3-25-8-4-19-4-18 0-31.5 13.5T83 128zm339 224q11 0 18.5 7.5T448 378v76q0 11-7.5 18.5T422 480t-18-7.5-7-18.5v-11l-46 36q-21 17-45.5 25t-49.5 8-49.5-8-45.5-25l-46-36v11q0 11-7 18.5T90 480t-18.5-7.5T64 454v-76q0-11 7.5-18.5T90 352h76q11 0 18.5 7.5T192 378t-7.5 18-18.5 7h-19l46 36q28 22 63 22t63-22l46-36h-19q-11 0-18.5-7t-7.5-18 7.5-18.5T346 352h76z"/>
</svg>