<svg xmlns="http://www.w3.org/2000/svg" viewBox="0 0 512 512">
	<path d="M51 201v260h83q11 0 18.5 7t7.5 18-7.5 18.5T134 512H26q-11 0-18.5-7.5T0 486V192q0-10 6-17L149 9q6-9 19-9h190q11 0 18.5 7.5T384 26v76q0 11-7.5 18.5T358 128t-18-7.5-7-18.5V51H180l-20 23v67q0 21-15 36t-36 15H59zm444 11q17 5 17 24v218q0 11-7.5 18.5T486 480t-18-7.5-7-18.5V254l-115-41-33 18 86 31q17 5 17 24v200q0 11-7 18.5t-18 7.5q-6 0-9-1l-141-51q-17-5-17-24V236q0-15 14-23l94-50q6-3 12-3t9 1zm-130 92l-90-32v146l90 32V304z"/>
</svg>