<svg xmlns="http://www.w3.org/2000/svg" viewBox="0 0 512 512">
	<path d="M167 461q11 0 18 7.5t7 18.5-7.5 18-18.5 7H90q-24 0-41-17t-17-41V58q0-24 17-41T90 0h268q24 0 41 17t17 41v140q0 11-7.5 18.5T390 224t-18-7.5-7-18.5V58q0-7-7-7H90q-7 0-7 7v396q0 7 7 7h77zm127-352q11 0 18.5 7t7.5 18-7.5 18.5T294 160H154q-11 0-18.5-7.5T128 134t7.5-18 18.5-7h140zm0 96q11 0 18.5 7t7.5 18-7.5 18.5T294 256H154q-11 0-18.5-7.5T128 230t7.5-18 18.5-7h140zm160 169q11 0 18.5 7.5T480 400t-7.5 18.5T454 426h-60v60q0 11-7.5 18.5T368 512t-18.5-7.5T342 486v-60h-60q-11 0-18.5-7.5T256 400t7.5-18.5T282 374h60v-60q0-11 7.5-18.5T368 288t18.5 7.5T394 314v60h60zm-256-73q11 0 18.5 7t7.5 18-7.5 18.5T198 352h-44q-11 0-18.5-7.5T128 326t7.5-18 18.5-7h44z"/>
</svg>