<svg xmlns="http://www.w3.org/2000/svg" viewBox="0 0 512 512">
	<path d="M480 224v64h6q11 0 18.5 7.5T512 314v76q0 11-7.5 18.5T486 416h-9q-8 28-32 46t-54 18H122q-34 0-59-22t-30-55h-7q-11 0-18.5-7.5T0 377t7.5-18 18.5-7h6v-32h-6q-11 0-18.5-7.5T0 294t7.5-18 18.5-7h6v-26h-6q-11 0-18.5-7.5T0 217t7.5-18 18.5-7h6v-32h-6q-11 0-18.5-7.5T0 134t7.5-18 18.5-7h7q5-33 30-55t59-22h269q30 0 54 18t32 46h9q11 0 18.5 7.5T512 122v76q0 11-7.5 18.5T486 224h-6zm-51-102q0-17-11-28t-27-11H122q-16 0-27 11t-11 28v268q0 17 11 28t27 11h269q16 0 27-11t11-28V122zM256 256q-20 0-34-14t-14-34 14-34 34-14 34 14 14 34-14 34-34 14zm58 32q29 0 49.5 19.5T384 352q0 15-7 23.5t-18 8.5H154q-13 0-19.5-8.5T128 353q0-12 5.5-24t15.5-21 22.5-14.5T199 288h115z"/>
</svg>