<svg xmlns="http://www.w3.org/2000/svg" viewBox="0 0 512 512">
	<path d="M486 288q11 0 18.5 7.5T512 314q0 27-10 51.5t-27.5 43-41 29T382 448H109q-22 0-42-9t-35-24-23.5-35.5T0 336t8.5-43 23-35 34-24 41.5-9q4-25 16-47.5t29-40 39.5-28.5T239 96h4q10-1 17.5 6t8.5 17v2q0 10-7.5 17.5T237 148q-16 1-30.5 10t-26 22-18 29-6.5 32q0 18-7.5 26.5T130 276h-21q-24 0-41 17.5T51 336q0 26 17 43.5t41 17.5h273q33 0 56-24.5t23-58.5q0-11 7-18.5t18-7.5zm-222-52q-8-8-8-18 0-11 7.5-18.5T282 192t18 7l33 34V90q0-11 7-18.5t18-7.5 18.5 7.5T384 90v143l33-34q7-7 18-7t18.5 7.5T461 218q0 10-8 18l-76 76q-8 8-19 8-10 0-18-8z"/>
</svg>