<svg xmlns="http://www.w3.org/2000/svg" viewBox="0 0 512 512">
	<path d="M454 288q11 0 18.5 7.5T480 314t-7.5 18-18.5 7H346q-11 0-18.5-7t-7.5-18 7.5-18.5T346 288h108zm0 86q11 0 18.5 7.5T480 400t-7.5 18.5T454 426H346q-11 0-18.5-7.5T320 400t7.5-18.5T346 374h108zm0 87q11 0 18.5 7t7.5 18-7.5 18.5T454 512H346q-11 0-18.5-7.5T320 486t7.5-18 18.5-7h108zm36-288q9 2 15.5 9t6.5 16q0 11-8 19l-32 31q-8 8-18 8-11 0-18-7.5t-7-18.5q0-8 4-13l-111-16q-14-3-20-15l-46-99-46 99q-6 12-19 15L78 217l81 85q7 7 7 17v5l-20 115 72-39q6-3 12-3 11 0 18.5 7t7.5 18q0 15-13 23l-119 64q-6 3-12 3-11 0-18.5-7.5T86 486q0-1 .5-1.5t.5-2.5l26-154L7 216q-7-7-7-18 0-9 6.5-16t15.5-9l147-21 64-137q7-15 23-15t23 15l64 137z"/>
</svg>