<svg xmlns="http://www.w3.org/2000/svg" viewBox="0 0 512 512">
	<path d="M58 51q-11 0-18.5-7T32 26t7.5-18.5T58 0h140q11 0 18.5 7.5T224 26t-7.5 18-18.5 7H58zm396 45q11 0 18.5 7.5T480 122v76q0 11-7.5 18.5T454 224H58q-11 0-18.5-7.5T32 198v-76q0-11 7.5-18.5T58 96h396zm-25 51H83v26h346v-26zM58 339q-11 0-18.5-7T32 314t7.5-18.5T58 288h140q11 0 18.5 7.5T224 314t-7.5 18-18.5 7H58zm396 45q11 0 18.5 7.5T480 410v76q0 11-7.5 18.5T454 512H58q-11 0-18.5-7.5T32 486v-76q0-11 7.5-18.5T58 384h396zm-25 51H83v26h346v-26z"/>
</svg>