<svg xmlns="http://www.w3.org/2000/svg" viewBox="0 0 512 512">
	<path d="M90 83q-17 0-28 11t-11 28v268q0 17 11 28t28 11h332q17 0 28-11t11-28V173q0-17-11-28t-28-11H256q-9 0-18-7l-44-44H90zm38 269q-14 0-23-9t-9-23 9-23 23-9 23 9 9 23-9 23-23 9zm0-96q-14 0-23-9t-9-23 9-23 23-9 23 9 9 23-9 23-23 9zm294 224H90q-38 0-64-26T0 390V122q0-38 26-64t64-26h115q9 0 18 7l44 44h155q38 0 64 26t26 64v217q0 38-26 64t-64 26zm-32-224H250q-11 0-18.5-7.5T224 230t7.5-18 18.5-7h140q11 0 18.5 7t7.5 18-7.5 18.5T390 256zm0 96H250q-11 0-18.5-7.5T224 326t7.5-18 18.5-7h140q11 0 18.5 7t7.5 18-7.5 18.5T390 352z"/>
</svg>