<svg xmlns="http://www.w3.org/2000/svg" viewBox="0 0 512 512">
	<path d="M390 512H122q-24 0-41-17t-17-41V58q0-24 17-41t41-17h268q24 0 41 17t17 41v396q0 24-17 41t-41 17zM122 51q-7 0-7 7v396q0 7 7 7h268q7 0 7-7V58q0-7-7-7H122zm204 128h-44q-11 0-18.5-7t-7.5-18 7.5-18.5T282 128h44q11 0 18.5 7.5T352 154t-7.5 18-18.5 7zm0 96h-44q-11 0-18.5-7t-7.5-18 7.5-18.5T282 224h44q11 0 18.5 7.5T352 250t-7.5 18-18.5 7zm0 96h-44q-11 0-18.5-7t-7.5-18 7.5-18.5T282 320h44q11 0 18.5 7.5T352 346t-7.5 18-18.5 7zM191 192h-2q-2 0-4-1-6-2-12-6-1-1-1.5-1t-1.5-1l-1-1q-9-9-9-22 0-4 1-7v-1l4-8q1-2 1.5-2.5t1.5-2.5l1-1q9-9 19-10h8q1 0 1.5.5t1.5.5q2 0 3 1h1l6 3 1 1q1 0 2 1l1 1 2 2 1 1 1 1 1 1q1 1 1 2 1 1 1 2t1 2v1q2 4 2 5t1 2v10l-1 1v1q0 2-1 4l-2 4q0 1-6 8l-3 3q-4 2-5 2v1q-6 3-13 3h-2zm1 26h4q2 0 5 1h1l4 2q1 1 1.5 1t1.5 1h1l4 4 5 5q0 1 1 3 1 1 1 2l1 1 1 1v2q0 2 1 5v4q0 4-1 6 0 2-1 4 0 1-.5 1.5t-.5 1.5q-2 4-3 5l-2 2v1h-1q-1 3-4 4-1 1-2 1v1q-1 0-1.5.5t-1.5.5l-4 2q-2 0-3 1h-1q-1 0-4 1h-2q-2 0-3-1-4 0-5-1h-2l-3-1.5-3-1.5q1 0-4-3l-2-2q-2-2-3-2-7-11-7-20 0-12 10-23l2-2q1-1 1.5-1t1.5-1q4-3 13-5h4zm0 96h5q2 0 4 1 1 0 1.5.5t1.5.5q-1 0 3 2l4 2 5 5 3 3q0 1 1 3l1 1q0 1 2 5 0 3 1 4v10q-1 0-1 2v1l-1 2q-1 2-1 2.5t-1 2.5l-1 1v1q-3 3-3 4-2 0-2 2h-1l-3 3-5 3q-1 0-1.5.5t-1.5.5h-1q-2 1-6 1-1 1-3 1h-2q-1-1-3-1h-2q-1-1-2-1h-1q-1-1-2-1t-3-1q-1-1-2-1v-1q-2-1-2.5-1.5T170 369q0-1-.5-1t-.5-1q-6-6-9-17v-9l1-2v-1q1-4 3-7t4-7q2-2 4-3 1-1 3-2 2-2 6-3l1-1h2q1-1 4-1h4z"/>
</svg>