<svg xmlns="http://www.w3.org/2000/svg" viewBox="0 0 512 512">
	<path d="M390 512H122q-24 0-41-17t-17-41V58q0-24 17-41t41-17h268q24 0 41 17t17 41v396q0 24-17 41t-41 17zM122 51q-7 0-7 7v396q0 7 7 7h268q7 0 7-7V58q0-7-7-7H122zm204 128h-44q-11 0-18.5-7t-7.5-18 7.5-18.5T282 128h44q11 0 18.5 7.5T352 154t-7.5 18-18.5 7zm0 96h-44q-11 0-18.5-7t-7.5-18 7.5-18.5T282 224h44q11 0 18.5 7.5T352 250t-7.5 18-18.5 7zm0 96h-44q-11 0-18.5-7t-7.5-18 7.5-18.5T282 320h44q11 0 18.5 7.5T352 346t-7.5 18-18.5 7zM192 192q-13 0-22.5-9.5T160 160t9.5-22.5T192 128t22.5 9.5T224 160t-9.5 22.5T192 192zm0-64q13 0 22.5 9.5T224 160t-9.5 22.5T192 192t-22.5-9.5T160 160t9.5-22.5T192 128zm0 154q-13 0-22.5-9.5T160 250t9.5-22.5T192 218t22.5 9.5T224 250t-9.5 22.5T192 282zm0-64q13 0 22.5 9.5T224 250t-9.5 22.5T192 282t-22.5-9.5T160 250t9.5-22.5T192 218zm0 160q-13 0-22.5-9.5T160 346t9.5-22.5T192 314t22.5 9.5T224 346t-9.5 22.5T192 378zm0-64q13 0 22.5 9.5T224 346t-9.5 22.5T192 378t-22.5-9.5T160 346t9.5-22.5T192 314z"/>
</svg>