<svg xmlns="http://www.w3.org/2000/svg" viewBox="0 0 512 512">
	<path d="M390 32q38 0 64 26t26 64v268q0 38-26 64t-64 26h-14q-11 0-18-7.5t-7-18.5 7-18 18-7h14q17 0 28-11t11-28V211H83v179q0 17 11 28t28 11h12q11 0 18.5 7t7.5 18-7.5 18.5T134 480h-12q-38 0-64-26t-26-64V122q0-38 26-64t64-26h268zm-33 308q8 8 8 18 0 11-7.5 18.5T339 384t-18-7l-33-34v111q0 11-7.5 18.5T262 480t-18-7.5-7-18.5V343l-33 34q-7 7-18 7t-18.5-7.5T160 358t7-18l77-77q9-7 18-7 10 0 19 7zm72-180v-38q0-17-11-28t-28-11H122q-17 0-28 11t-11 28v38h346z"/>
</svg>