<svg xmlns="http://www.w3.org/2000/svg" viewBox="0 0 512 512">
	<path d="M28 448q12 0 19.5 7.5T55 476q0 12-7.5 19.5T28 503q-28 0-28-28 0-12 7.5-19.5T28 448zm0-119q12 0 19.5 7.5T55 356q0 13-7.5 20.5T28 384q-28 0-28-28 0-12 7.5-19.5T28 329zm105 119q12 0 19.5 7.5T160 476q0 12-7.5 19.5T133 503q-28 0-28-28 0-12 7.5-19.5T133 448zm224 0q12 0 19.5 7.5T384 476q0 12-7.5 19.5T357 503q-28 0-28-28 0-12 7.5-19.5T357 448zm119 0q12 0 19.5 7.5T503 476q0 12-7.5 19.5T476 503q-28 0-28-28 0-12 7.5-19.5T476 448zM28 224q12 0 19.5 7.5T55 252q0 12-7.5 19.5T28 279q-28 0-28-28 0-12 7.5-19.5T28 224zm110-16q17 0 29 12t12 29-12 29.5-29 12.5-29.5-12.5T96 249t12.5-29 29.5-12zm0 111q17 0 29 12t12 29-12 29.5-29 12.5-29.5-12.5T96 360t12.5-29 29.5-12zm109 110q17 0 29 12t12 29-12 29.5-29 12.5-29.5-12.5T205 470t12.5-29 29.5-12zm0-123q23 0 39 16t16 39-16 39-39 16-39-16-16-39 16-39 39-16zm1-98q17 0 29 12t12 29-12 29.5-29 12.5-29.5-12.5T206 249t12.5-29 29.5-12zm113-16q23 0 39 16t16 39-16 39-39 16-39-16-16-39 16-39 39-16zm1 127q17 0 29 12t12 29-12 29.5-29 12.5-29.5-12.5T320 360t12.5-29 29.5-12zm114 10q12 0 19.5 7.5T503 357q0 12-7.5 19.5T476 384q-28 0-28-28 0-12 7.5-19.5T476 329zM28 105q11 0 19 8t8 20-7.5 19.5T28 160q-28 0-28-28 0-12 7.5-19.5T28 105zm448 119q12 0 19.5 7.5T503 252q0 12-7.5 19.5T476 279q-28 0-28-28 0-12 7.5-19.5T476 224zM28 0q12 0 19.5 7.5T55 28q0 12-7.5 19.5T28 55q-13 0-20.5-7.5T0 28Q0 0 28 0zm103 105q14 0 21.5 8t7.5 20-7.5 19.5T133 160q-28 0-28-28 0-27 26-27zm2-50q-28 0-28-28 0-12 7.5-19.5T133 0q12 0 19.5 7.5T160 27q0 13-7.5 20.5T133 55zm114 125q-17 0-29.5-12.5T205 138t12.5-29T247 97t29 12 12 29-12 29.5-29 12.5zm5-125q-28 0-28-28 0-12 7.5-19.5T252 0q12 0 19.5 7.5T279 27q0 13-7.5 20.5T252 55zm105 0q-28 0-28-28 0-12 7.5-19.5T357 0q12 0 19.5 7.5T384 27q0 13-7.5 20.5T357 55zm5 125q-17 0-29.5-12.5T320 138t12.5-29T362 97t29 12 12 29-12 29.5-29 12.5zm150-42q0 17-12 29.5T471 180t-29.5-12.5T429 138t12.5-29T471 97t29 12 12 29zm-36-83q-28 0-28-28 0-12 7.5-19.5T476 0q12 0 19.5 7.5T503 27q0 13-7.5 20.5T476 55z"/>
</svg>