<svg xmlns="http://www.w3.org/2000/svg" viewBox="0 0 512 512">
	<path d="M96 176q0 20-14 34t-34 14-34-14-14-34 14-34 34-14 34 14 14 34zm42 0q0-20 14-34t34-14 34 14 14 34-14 34-34 14-34-14-14-34zm140 0q0-20 14-34t34-14 34 14.5 14 33.5-14 33.5-34 14.5-34-14-14-34zm138 0q0-20 14-34t34-14 34 14 14 34-14 34-34 14-34-14-14-34zM0 336q0-20 14-34t34-14 34 14 14 34-14 34-34 14-34-14-14-34zm138 0q0-20 14-34t34-14 34 14 14 34-14 34-34 14-34-14-14-34zm140 0q0-20 14-34t34-14 34 14.5 14 33.5-14 33.5-34 14.5-34-14-14-34zm138 0q0-20 14-34t34-14 34 14 14 34-14 34-34 14-34-14-14-34z"/>
</svg>