<svg xmlns="http://www.w3.org/2000/svg" viewBox="0 0 512 512">
	<path d="M486 352q11 0 18.5 7.5T512 378q0 8-6 16l-94 109q-7 9-19 9-13 0-19-8l-47-52q-7-7-7-17 0-11 7.5-18.5T346 409t18 9l28 30 75-87q8-9 19-9zm-116-27q0 11-7 19t-18 8q-8 0-15.5-6T317 327q-7-15-20-28t-29-22.5-34-15-36-5.5h-12q-28 0-52.5 10.5t-43 29-29 43T51 391v6h179q11 0 18.5 7.5T256 423t-7.5 18-18.5 7H26q-11 0-18.5-7T0 423v-32q0-56 29-100.5t77-67.5q-42-39-42-95 0-27 10.5-50.5t28-41 40.5-27T192 0t49.5 10 41 27.5 27.5 41 10 49.5-11 51-31 44q11 5 27 17t30.5 26.5 24.5 30 10 28.5zM192 51q-32 0-54.5 22.5T115 128t22.5 54.5T192 205q33 0 55-23t22-54q0-32-22.5-54.5T192 51z"/>
</svg>