<svg xmlns="http://www.w3.org/2000/svg" viewBox="0 0 512 512">
	<path d="M122 416q29 0 49.5 20t20.5 45q0 15-7.5 23t-18.5 8H26q-13 0-19.5-8.5T0 481q0-25 20.5-45T70 416h52zm22-80q0 20-14 34t-34 14-34-14-14-34 14-34 34-14 34 14 14 34zm150 16q11 0 18.5 7.5T320 378t-7.5 18-18.5 7h-76q-11 0-18.5-7t-7.5-18 7.5-18.5T218 352h76zm148 64q29 0 49.5 20t20.5 45q0 15-7.5 23t-18.5 8H346q-13 0-19.5-8.5T320 481q0-25 20.5-45t49.5-20h52zm22-80q0 20-14 34t-34 14-34-14-14-34 14-34 34-14 34 14 14 34zM422 0q38 0 64 26t26 64v108q0 11-7.5 18.5T486 224t-18-7.5-7-18.5V90q0-17-11-28t-28-11H90q-17 0-28 11T51 90v108q0 11-7 18.5T26 224t-18.5-7.5T0 198V90q0-38 26-64T90 0h332zM204 298q-4-7-9-15l-10-16q-10-14-17.5-29.5T160 198q0-42 26.5-72T256 96q42 0 69 29.5t27 71.5q0 23-7.5 38T327 266q-5 8-10 16.5t-9 15.5q-11 22-26 22h-52q-15 0-26-22zm52-151q-20 0-32.5 14.5T211 199q0 11 4 19t13 21q4 6 8.5 13t9.5 17h20l18-31q9-14 13-22t4-19q0-22-12.5-36T256 147z"/>
</svg>