<svg xmlns="http://www.w3.org/2000/svg" viewBox="0 0 512 512">
	<path d="M160 87v338l33-34q7-7 18-7t18.5 7.5T237 410q0 10-8 18l-76 77q-9 7-19 7-9 0-18-7l-77-77q-7-7-7-18t7.5-18.5T58 384t18 7l33 34V87l-33 34q-7 7-18 7t-18.5-7.5T32 102t7-18l77-77q9-7 18-7 10 0 19 7l76 77q8 8 8 18 0 11-7.5 18.5T211 128t-18-7zm294 150q11 0 18.5 7t7.5 18-7.5 18.5T454 288H282q-11 0-18.5-7.5T256 262t7.5-18 18.5-7h172zm0 192q11 0 18.5 7t7.5 18-7.5 18.5T454 480H282q-11 0-18.5-7.5T256 454t7.5-18 18.5-7h172zm0-96q11 0 18.5 7t7.5 18-7.5 18.5T454 384H346q-11 0-18.5-7.5T320 358t7.5-18 18.5-7h108zM282 83q-11 0-18.5-7T256 58t7.5-18.5T282 32h172q11 0 18.5 7.5T480 58t-7.5 18-18.5 7H282zm172 45q11 0 18.5 7.5T480 154t-7.5 18-18.5 7H346q-11 0-18.5-7t-7.5-18 7.5-18.5T346 128h108z"/>
</svg>