<svg xmlns="http://www.w3.org/2000/svg" viewBox="0 0 512 512">
	<path d="M358 512H154q-38 0-64-26t-26-64V90q0-38 26-64t64-26h204q38 0 64 26t26 64v332q0 38-26 64t-64 26zM154 51q-17 0-28 11t-11 28v332q0 17 11 28t28 11h204q17 0 28-11t11-28V90q0-17-11-28t-28-11H154zm172 288H186q-11 0-18.5-7t-7.5-18 7.5-18.5T186 288h140q11 0 18.5 7.5T352 314t-7.5 18-18.5 7zm0 83H186q-11 0-18.5-7.5T160 396t7.5-18 18.5-7h140q11 0 18.5 7t7.5 18-7.5 18.5T326 422zm0-179H186q-11 0-18.5-7t-7.5-18 7.5-18.5T186 192h140q11 0 18.5 7.5T352 218t-7.5 18-18.5 7zm13-160q13 0 21 8t8 21-8 21-21 8-21-8-8-21 8-21 21-8z"/>
</svg>