<svg xmlns="http://www.w3.org/2000/svg" viewBox="0 0 512 512">
	<path d="M486 512h-76q-12 0-18-7l-22-25h-37q-11 0-18.5-7.5T307 454v-19h-25q-11 0-18.5-7t-7.5-18v-26h-26q-11 0-18-7.5t-7-18.5v-40l-11-11h-40q-32 0-60-12t-49-32.5T12 214 0 154t12-60 33-49 49-33 60-12 60 12 48.5 33T295 94t12 60v40l198 197q7 9 7 19v76q0 11-7.5 18.5T486 512zm-66-51h41v-41L264 223q-8-8-8-18v-51q0-44-29.5-73.5T154 51q-44 0-73.5 29.5T51 154q0 43 29.5 72.5T154 256h51q9 0 18 7l26 26q7 9 7 18v26h26q11 0 18 7t7 18v26h26q11 0 18 7.5t7 18.5v19h26q12 0 18 7zM147 198q-21 0-36-15t-15-36 15-36 36-15 36 15 15 36-15 36-36 15z"/>
</svg>