<svg xmlns="http://www.w3.org/2000/svg" viewBox="0 0 512 512">
	<path d="M422 32q38 0 64 26t26 64v76q0 11-7.5 18.5T486 224t-18-7.5-7-18.5v-76q0-17-11-28t-28-11H90q-17 0-28 11t-11 28v204q0 16 11 27.5T90 365h172q11 0 18.5 7t7.5 18-7.5 18.5T262 416H90q-38 0-64-26T0 326V122q0-38 26-64t64-26h332zM122 141q25 0 25 25 0 26-25 26-26 0-26-26 0-25 26-25zm121 25q0 26-25 26-26 0-26-26 0-25 26-25 25 0 25 25zm96 0q0 26-25 26-26 0-26-26 0-25 26-25 25 0 25 25zm83 0q0 26-25 26-26 0-26-26 0-25 26-25 25 0 25 25zM218 288q-11 0-18.5-7.5T192 262t7.5-18 18.5-7h44q11 0 18.5 7t7.5 18-7.5 18.5T262 288h-44zm-96-51q25 0 25 25 0 26-25 26-26 0-26-26 0-25 26-25zm390 121q0 17-14 23l-21 11 31 48q4 7 4 14 0 11-7.5 18.5T486 480q-7 0-14-5l-45-31-10 21q-7 17-24 15-18-2-23-17l-49-141q0-2-.5-4t-.5-4q0-11 7.5-18.5T346 288q5 0 7 1l141 45q16 5 18 22v2z"/>
</svg>