<svg xmlns="http://www.w3.org/2000/svg" viewBox="0 0 512 512">
	<path d="M285 320h5q10 0 17 3l109-80v-3q-1-20 13.5-34t34.5-14 34 14 14 34-14 34-34 14q-9 0-17-3l-109 80v3q1 20-13.5 34T290 416t-34-14-14-34q0-9 3-16l-78-96h-5q-6 0-14-2l-51 42q1 3 1 8 0 20-14 34t-34 14-34-14-14-34 14-34 34-14q5 0 13 2l51-43v-7q0-20 14-34t34-14 34 14 14 34q0 8-3 16zm201 32q11 0 18.5 7.5T512 378v44q0 38-26 64t-64 26H90q-38 0-64-26T0 422v-13q0-11 7.5-18t18.5-7 18 7 7 18v13q0 17 11 28t28 11h332q17 0 28-11t11-28v-44q0-11 7-18.5t18-7.5zM26 192q-11 0-18.5-7.5T0 166v-44q0-38 26-64t64-26h140q11 0 18.5 7.5T256 58t-7.5 18-18.5 7H90q-17 0-28 11t-11 28v44q0 11-7 18.5T26 192zm301-92q-7-7-7-17 0-11 7.5-18.5T346 57t18 9l28 30 75-87q8-9 19-9t18.5 7.5T512 26q0 8-6 16l-94 109q-7 9-19 9-13 0-19-8z"/>
</svg>