<svg xmlns="http://www.w3.org/2000/svg" viewBox="0 0 512 512">
	<path d="M486 32q11 0 18.5 7.5T512 58v332q0 11-7.5 18.5T486 416q-8 0-13-4-21-14-47-27.5t-54-26-56-22-53-13.5l18 76q0 2 .5 3t.5 3q0 10-8 18l-51 50q-9 7-18 7-16 0-23-15l-70-145H96q-40 0-68-28T0 224t28-68 68-28h134q27 0 59.5-9T355 96.5t64-30T473 36q5-4 13-4zM228 396l-23-96V179H96q-19 0-32 13t-13 32 13 32 32 13h32q17 0 23 14l62 128zm233-294q-18 10-42.5 21.5T367 146t-55.5 20-55.5 12v92q27 3 55.5 12t55.5 20 51.5 22.5T461 346V102z"/>
</svg>