<svg xmlns="http://www.w3.org/2000/svg" viewBox="0 0 512 512">
	<path d="M198 205q11 0 18.5 7t7.5 18-7.5 18.5T198 256h-44q-11 0-18.5-7.5T128 230t7.5-18 18.5-7h44zm0 78q11 0 18.5 7.5T224 309t-7.5 18.5T198 335h-44q-11 0-18.5-7.5T128 309t7.5-18.5T154 283h44zm0 82q11 0 18.5 7t7.5 18-7.5 18.5T198 416h-44q-11 0-18.5-7.5T128 390t7.5-18 18.5-7h44zM358 64q24 0 41 17t17 41v44q0 11-7.5 18.5T390 192t-18-7.5-7-18.5v-44q0-7-7-7h-39q-5 20-20.5 32.5T262 160h-76q-21 0-36.5-12.5T129 115H90q-7 0-7 7v332q0 7 7 7h108q11 0 18.5 7t7.5 18-7.5 18.5T198 512H90q-24 0-41-17t-17-41V122q0-24 17-41t41-17h38v-6q0-24 17-41t41-17h76q24 0 41 17t17 41v6h38zm96 160q11 0 18.5 7.5T480 250q0 4-2 10l-30 67v128q0 23-17 40t-41 17h-76q-24 0-41-17t-17-40V230q0-11 7.5-18t18.5-7h44q11 0 18.5 7t7.5 18-7.5 18.5T326 256h-19v28h19q11 0 18.5 7.5T352 310t-7.5 18.5T326 336h-19v29h19q11 0 18.5 7.5T352 391t-7.5 18-18.5 7h-19v39q0 6 7 6h76q7 0 7-6V321q0-4 2-10l32-72q7-15 23-15zM269 58q0-7-7-7h-76q-7 0-7 7v44q0 7 7 7h76q7 0 7-7V58z"/>
</svg>