<svg xmlns="http://www.w3.org/2000/svg" viewBox="0 0 512 512">
	<path d="M265 32q53 0 98 19t78 51.5 52 76 19 93.5-19 93.5-51.5 76-76 51.5-93.5 19q-63 0-117.5-29.5T68 399l-5-8q-3-6-3-13 0-11 7.5-18.5T85 352q15 0 23 13l4 7q25 42 68 65.5t92 23.5q39 0 73.5-15t60-40.5 40.5-60 15-73.5-15-73.5-40.5-60-60-40.5T272 83q-26 0-41 5-4 1-12 1-11 0-19-6.5T192 65q0-12 9.5-18.5t21.5-10 24-4 18-.5zM160 262q0 11-7.5 18.5T134 288H57q-11 0-18-7.5T32 262t7-18 18-7h22l-52-60Q0 145 0 106q0-22 8-41.5T29.5 31t31-22.5T96 0t26.5 7.5T131 26t-7.5 18-21.5 7q-20 0-35.5 16T51 106q0 10 4 19t10 17l44 51v-8q0-11 7-18t18-7 18.5 7 7.5 18v77z"/>
</svg>