<svg xmlns="http://www.w3.org/2000/svg" viewBox="0 0 512 512">
	<path d="M112 0q48 0 80 32t32 80-32 80-80 32-80-32-32-80 32-80 80-32zm0 173q26 0 43.5-17t17.5-43h-61V51q-26 0-43.5 17.5T51 112t17.5 43.5T112 173zm0 115q48 0 80 32t32 80-32 80-80 32-80-32-32-80 32-80 80-32zm0 51q-26 0-43.5 17.5T51 400q0 27 18 43l43-43v-61zm288-51q48 0 80 32t32 80-32 80-80 32-80-32-32-80 32-80 80-32zm0-64q-48 0-80-32t-32-80 32-80 80-32 80 32 32 80-32 80-80 32zm0-173q-26 0-43.5 17.5T339 112t17.5 43.5T400 173q6 0 9-1V52q-3-1-9-1z"/>
</svg>