<svg xmlns="http://www.w3.org/2000/svg" viewBox="0 0 512 512">
	<path d="M112 0q48 0 80 32t32 80-32 80-80 32-80-32-32-80 32-80 80-32zm288 224q-48 0-80-32t-32-80 32-80 80-32 80 32 32 80-32 80-80 32zm-288-51q26 0 43.5-17t17.5-43h-61V51q-26 0-43.5 17.5T51 112t17.5 43.5T112 173zM400 51q-26 0-43.5 17.5T339 112t17.5 43.5T400 173q6 0 9-1V52q-3-1-9-1zM112 288q48 0 80 32t32 80-32 80-80 32-80-32-32-80 32-80 80-32zm288 0q48 0 80 32t32 80-32 80-80 32-80-32-32-80 32-80 80-32zm-288 51q-26 0-43.5 17.5T51 400q0 27 18 43l43-43v-61z"/>
</svg>