<svg xmlns="http://www.w3.org/2000/svg" viewBox="0 0 512 512">
	<path d="M198 0q11 0 18.5 7.5T224 26q0 8-6 16l-94 109q-7 9-19 9-11 0-19-8l-47-52q-7-7-7-17 0-11 7.5-18.5T58 57q10 0 19 9l27 30 75-87q8-9 19-9zm84 96q-11 0-18.5-7.5T256 70t7.5-18 18.5-7h172q11 0 18.5 7t7.5 18-7.5 18.5T454 96H282zm-84 80q11 0 18.5 7.5T224 202q0 8-6 16l-94 109q-7 9-19 9-11 0-19-8l-47-52q-7-7-7-17 0-11 7.5-18.5T58 233q10 0 19 9l27 30 75-87q8-9 19-9zm256 48q11 0 18.5 7.5T480 250t-7.5 18-18.5 7H282q-11 0-18.5-7t-7.5-18 7.5-18.5T282 224h172zM198 352q11 0 18.5 7.5T224 378q0 8-6 16l-94 109q-7 9-19 9-11 0-19-8l-47-52q-7-7-7-17 0-11 7.5-18.5T58 409q10 0 19 9l27 30 75-87q8-9 19-9zm256 64q11 0 18.5 7.5T480 442t-7.5 18-18.5 7H282q-11 0-18.5-7t-7.5-18 7.5-18.5T282 416h172z"/>
</svg>