<svg xmlns="http://www.w3.org/2000/svg" viewBox="0 0 512 512">
	<path d="M486 333q11 0 18.5 7t7.5 18-7.5 18.5T486 384H365l-15 106q-2 10-9 16t-16 6q-13 0-19.5-9t-6.5-20l14-99H162l-15 106q-2 10-9 16t-16 6q-13 0-19.5-9T96 483l14-99H26q-11 0-18.5-7.5T0 358t7.5-18 18.5-7h92l22-154H26q-11 0-18.5-7T0 154t7.5-18.5T26 128h121l15-106q2-10 9-16t16-6q13 0 19.5 9t6.5 20l-14 99h151l15-106q2-10 9-16t16-6q13 0 19.5 9t6.5 20l-14 99h84q11 0 18.5 7.5T512 154t-7.5 18-18.5 7h-92l-22 154h114zm-165 0l22-154H191l-22 154h152z"/>
</svg>