<svg xmlns="http://www.w3.org/2000/svg" viewBox="0 0 512 512">
	<path d="M159 108h196l-98-53zM91 416q-11 0-18.5-7.5T65 390V250q0-11 7.5-18.5T91 224t18 7.5 7 18.5v140q0 11-7 18.5T91 416zm109 0q-11 0-18.5-7.5T174 390V250q0-11 7.5-18.5T200 224t18 7.5 7 18.5v140q0 11-7 18.5t-18 7.5zm115 0q-11 0-18.5-7.5T289 390V250q0-11 7.5-18.5T315 224t18 7.5 7 18.5v140q0 11-7 18.5t-18 7.5zm109 0q-11 0-18.5-7.5T398 390V250q0-11 7.5-18.5T424 224t18 7.5 7 18.5v140q0 11-7 18.5t-18 7.5zm31-256H59q-11 0-18.5-7.5T33 134q0-16 13-22L245 3q6-3 12-3 8 0 12 3l199 109q13 6 13 22 0 11-7.5 18.5T455 160zm0 352H59q-11 0-18.5-7.5T33 486t7.5-18 18.5-7h396q11 0 18.5 7t7.5 18-7.5 18.5T455 512z"/>
</svg>