<svg xmlns="http://www.w3.org/2000/svg" viewBox="0 0 512 512">
	<path d="M262 352q11 0 18.5 7.5T288 378t-7 18l-37 36 37 36q7 7 7 18t-7.5 18.5T262 512t-18-7l-36-37-36 37q-7 7-18 7t-18.5-7.5T128 486t7-18l37-36-37-36q-7-7-7-18t7.5-18.5T154 352t18 7l36 37 36-37q7-7 18-7zm-70-227q0 28-19.5 47.5T125 192H91l-8 9v285q0 11-7 18.5T58 512t-18.5-7.5T32 486V192q0-10 6-17L180 9q8-9 19-9h190q11 0 18.5 7.5T415 26v109q0 11-7.5 18.5T389 161t-18-7.5-7-18.5V51H211l-19 23v51zm102 35q11 0 18.5 7.5T320 186q0 8-6 16l-94 109q-7 9-19 9-13 0-19-8l-47-52q-7-7-7-17 0-11 7.5-18.5T154 217t18 9l28 30 75-87q8-9 19-9zm58 102q0-11 7.5-18t18.5-7h76q11 0 18.5 7t7.5 18-7.5 18.5T454 288h-76q-11 0-18.5-7.5T352 262zm102 135q11 0 18.5 7t7.5 18-7.5 18.5T454 448h-76q-11 0-18.5-7.5T352 422t7.5-18 18.5-7h76z"/>
</svg>