<svg xmlns="http://www.w3.org/2000/svg" viewBox="0 0 512 512">
	<path d="M454 237q11 0 18.5 7t7.5 18-7.5 18.5T454 288H282q-11 0-18.5-7.5T256 262t7.5-18 18.5-7h172zM58 83q-11 0-18.5-7T32 58t7.5-18.5T58 32h396q11 0 18.5 7.5T480 58t-7.5 18-18.5 7H58zm396 346q11 0 18.5 7t7.5 18-7.5 18.5T454 480H58q-11 0-18.5-7.5T32 454t7.5-18 18.5-7h396zm0-301q11 0 18.5 7.5T480 154t-7.5 18-18.5 7H282q-11 0-18.5-7t-7.5-18 7.5-18.5T282 128h172zm0 205q11 0 18.5 7t7.5 18-7.5 18.5T454 384H282q-11 0-18.5-7.5T256 358t7.5-18 18.5-7h172zm-320 32q-10 0-18-8l-77-76q-7-9-7-19 0-9 7-18l77-77q7-7 18-7t18.5 7.5T160 186t-7 18l-59 58 59 59q7 7 7 18t-7.5 18.5T134 365z"/>
</svg>