<svg xmlns="http://www.w3.org/2000/svg" viewBox="0 0 512 512">
	<path d="M406.5 308q20 9 31 27t11 40v20q0 51-26.5 84t-79.5 33q-12 0-20-1.5t-12-2.5q-53-14-102-42T119 398.5 49 310 5.5 206q-1-4-3-13.5T.5 169q0-53 33-79t84-26h31q35 0 51 32l28 55q6 13 6 26 0 34-32 52l-5 2q9 26 34 51t50 34l3-6q8-15 22-23t30-8q6 0 12.5 1t12.5 5zm-10 67q0-16-13-22l-46-23h-3q-3 0-5 3l-11 23q-9 14-27 14-22 0-48.5-15t-48.5-37.5-37-48.5-15-48q0-21 14-27l22-11q4-3 4-5t-1-4l-28-55q-1-4-5-4h-31q-66 0-66 53 0 6 1 12.5t4 17.5q12 45 36.5 87t59 76 77.5 59 90 37q13 4 22 4 32 0 43.5-18.5t11.5-47.5v-20zm-115-247q-13 0-19-8t-6-18q0-9 6-17t19-8h143l-33-33q-8-8-8-18 0-11 7.5-18.5T409.5 0t18 7l77 77q7 7 7 18 0 12-7 19l-77 76q-8 8-18 8-11 0-18.5-7.5t-7.5-18.5q0-10 8-18l33-33h-143z"/>
</svg>