<svg xmlns="http://www.w3.org/2000/svg" viewBox="0 0 512 512">
	<path d="M200 460q15 3 22 10.5t7 16.5q0 10-7.5 17.5T204 512q-9 0-25.5-4.5t-33-12.5-28.5-18.5-12-22.5q0-10 7-17t17-7q9 0 22 8 8 7 23 13.5t26 8.5zm162-23q13-8 20-8 10 0 17.5 7t7.5 18q0 12-12.5 22.5t-29 18.5-33 12.5T308 512q-10 0-17.5-7.5T283 487q0-9 7-16.5t21-10.5q11-2 25-8.5t26-14.5zM58 105q9 0 17 7.5t8 17.5q0 4-1.5 8T75 150q-14 25-25 61-5 18-24 18-11 0-18.5-7T0 205q0-8 4.5-24.5t12.5-33T35.5 118 58 105zm-8 196q11 36 25 61 5 8 6.5 12t1.5 8q0 9-7 16t-17 7q-11 0-21.5-11t-19-26.5T5 336t-5-26q0-12 7.5-19.5T26 283q19 0 24 18zm334-45q0 27-10 50t-27.5 40.5T306 374t-50 10-50-10-40.5-27.5T138 306t-10-50 10-50 27.5-40.5T206 138t50-10 50 10 40.5 27.5T374 206t10 50zm78-45q-11-36-25-61-5-8-6.5-12t-1.5-8q0-11 7.5-18t15.5-7q11 0 21.5 12t19 28 14 32.5T512 204q0 11-7.5 18t-18.5 7q-19 0-24-18zm24 72q11 0 18.5 7t7.5 17q0 7-5 23.5T493.5 364t-19 30-22.5 13q-8 0-15.5-7t-7.5-18q0-4 1.5-8t6.5-12q14-25 25-61 5-18 24-18zM130 83q-10 0-17.5-7T105 59q0-12 11-22.5T142.5 18t32-12.5T201 1q11 0 19.5 6.5T229 25q0 9-7 16.5T200 52q-11 2-26 8.5T149 75q-11 8-19 8zM310 1q10 0 26.5 5t32 13 27 18T407 58q0 10-7 17.5T382 83q-7 0-20-8-12-8-26-14.5T311 52q-14-3-21-10.5T283 25q0-11 8-17.5T310 1z"/>
</svg>