<svg xmlns="http://www.w3.org/2000/svg" viewBox="0 0 512 512">
	<path d="M256 224q20 0 34 14t14 34-14 34-34 14-34-14-14-34 14-34 34-14zm224 70q0 37-19.5 66.5T410 404l63 65q7 7 7 17 0 11-7.5 18.5T454 512q-10 0-18-8l-86-88H161l-85 88q-8 8-18 8-11 0-18.5-7.5T32 486q0-10 7-17l62-65q-31-14-50-43.5T32 294V122q0-25 9.5-47.5t26-39 39-26T154 0h204q25 0 47.5 9.5t39 26 26 39T480 122v172zM154 51q-29 0-50 21t-21 50v6h346v-6q0-29-21-50t-50-21H154zm204 314q29 0 50-21t21-50V179H83v115q0 29 21 50t50 21h204z"/>
</svg>