<svg xmlns="http://www.w3.org/2000/svg" viewBox="0 0 512 512">
	<path d="M160 240q-33 0-56.5-23.5T80 160t23.5-56.5T160 80t56.5 23.5T240 160t-23.5 56.5T160 240zm0-109q-12 0-20.5 8.5T131 160t8.5 20.5T160 189t20.5-8.5T189 160t-8.5-20.5T160 131zM38 179H26q-11 0-18.5-7T0 154t7.5-18.5T26 128h12q11 0 18.5 7.5T64 154t-7.5 18-18.5 7zm256 0h-12q-11 0-18.5-7t-7.5-18 7.5-18.5T282 128h12q11 0 18.5 7.5T320 154t-7.5 18-18.5 7zM160 64q-11 0-18.5-7.5T134 38V26q0-11 7.5-18.5T160 0t18.5 7.5T186 26v12q0 11-7.5 18.5T160 64zm0 256q-11 0-18.5-7.5T134 294v-12q0-11 7.5-18.5T160 256t18.5 7.5T186 282v12q0 11-7.5 18.5T160 320zM70 96q-11 0-18-7L39 76q-7-7-7-18t7.5-18.5T58 32t18 7l13 13q7 7 7 18t-7.5 18.5T70 96zm192 192q-11 0-18-7l-13-13q-7-7-7-18t7.5-18.5T250 224t18 7l13 13q7 7 7 18t-7.5 18.5T262 288zM250 96q-11 0-18.5-7.5T224 70t7-18l13-13q7-7 18-7t18.5 7.5T288 58t-7 18l-13 13q-7 7-18 7zM58 288q-11 0-18.5-7.5T32 262t7-18l13-13q7-7 18-7t18.5 7.5T96 250t-7 18l-13 13q-7 7-18 7zm428 224H346q-11 0-18.5-7.5T320 486q0-9 7-18l141-141q9-7 18-7 11 0 18.5 7.5T512 346v140q0 11-7.5 18.5T486 512zm-79-51h54v-54zm-189 19q-11 0-18.5-7.5T192 454t7-18l237-237q7-7 18-7t18.5 7.5T480 218t-7 18L236 473q-7 7-18 7z"/>
</svg>