<svg xmlns="http://www.w3.org/2000/svg" viewBox="0 0 512 512">
	<path d="M230.944 154.087q0-10.997 6.998-18.495t17.996-7.498 18.495 7.498 7.498 18.495v91.978l87.979 87.978q6.998 6.999 6.998 17.996t-6.998 18.496-17.996 7.498q-9.997 0-17.996-7.998l-95.976-95.977q-6.998-6.998-6.998-17.996V154.087zM488.88 256.062q9.997 1 16.995 8.498t5.999 16.496v5q-3.999 47.987-25.994 89.477t-56.486 71.983-78.98 47.488T256.936 512q-53.987 0-100.475-19.995t-81.48-54.987-54.987-81.48T0 255.063q0-48.988 16.996-93.477t47.488-78.981 71.983-56.486T225.945.125h4.999q9.997-1 16.995 5.999t7.999 16.995v3q1 9.997-5.999 16.995t-16.996 7.999q-38.99 3.999-72.482 21.494t-57.986 44.99-37.99 62.984-13.497 74.482q0 42.99 15.996 80.48t43.989 65.484 65.484 43.99 80.48 15.995q38.99 0 74.482-13.996t62.985-37.99 44.989-57.487 21.494-72.482q1-9.998 7.999-16.996t16.995-5.999h3zM323.92 86.104q-4-3.999-4-10.997 0-13.997 13.997-15.996l47.989-6.999 18.995-41.99q4-9.997 14.996-9.997t14.997 9.998l18.995 41.99 47.988 6.998q13.997 2 13.997 15.996 0 6.998-3.999 10.997l-34.991 37.99 7.998 51.988q0 15.996-15.996 15.996-2 0-7.999-2l-40.99-22.994-40.99 22.995q-5.998 2-7.998 2-15.996 0-15.996-15.997l7.998-51.987z"/>
</svg>