<svg xmlns="http://www.w3.org/2000/svg" viewBox="0 0 512 512">
	<path d="M507 303q5 13 5 23 0 24-17 41t-41 17h-66l22 44q7 11 7 26 0 23-16 40.5T359 512H154q-26 0-42-17.5T96 454q0-13 6-25l54-109H58q-25 0-41.5-17.5T0 262q0-11 4-22L89 36q7-17 21.5-26.5T142 0t31.5 9T195 35l68 158q3 1 5.5 1t4.5 2l40-96q7-17 21-26.5t32-9.5q17 0 31.5 9T419 99zm-326-34l22-44q2-5 5-9l6-8-66-153q-1-4-6-4t-6 4L52 260q-2 3 0 6t6 3h123zm178 192q10 0 6-10L260 247q-1-3-6-3-3 0-5 3L148 452q-2 3 0 6t6 3h205zm95-129q10 0 6-9l-88-204q-1-4-6-4t-6 4l-48 117 50 96h92z"/>
</svg>