<svg xmlns="http://www.w3.org/2000/svg" viewBox="0 0 512 512">
	<path d="M103 359q-11 0-19-8L7 274q-7-7-7-18t7-18l77-77q8-8 19-8 10 0 17.5 7.5T128 179t-7 18l-59 59 59 59q7 7 7 18t-7.5 18.5T103 359zm307 0q-11 0-18-7.5t-7-18.5 7-18l59-59-59-59q-7-7-7-18t7-18.5 18-7.5q10 0 18 8l77 77q7 7 7 18t-7 18l-77 77q-8 8-18 8zM198 480q-11 0-18-7.5t-7-18.5V58q0-11 7-18.5t18-7.5 18.5 7.5T224 58v396q0 11-7.5 18.5T198 480zm116 0q-11 0-18.5-7.5T288 454V58q0-11 7.5-18.5T314 32t18 7.5 7 18.5v396q0 11-7 18.5t-18 7.5z"/>
</svg>