<svg xmlns="http://www.w3.org/2000/svg" viewBox="0 0 512 512">
	<path d="M256 512q-9 0-18-7l-77-77q-8-8-8-19 0-10 7.5-17.5T179 384t18 7l59 59 59-59q7-7 18-7t18.5 7.5T359 409q0 11-8 19l-77 77q-7 7-18 7zm198-173H58q-11 0-18.5-7T32 314t7.5-18.5T58 288h396q11 0 18.5 7.5T480 314t-7.5 18-18.5 7zM315 121l-59-59-59 59q-7 7-18 7t-18.5-7.5T153 103q0-11 8-19l77-77q7-7 18-7t18 7l77 77q8 8 8 19 0 10-7.5 17.5T333 128t-18-7zm139 103H58q-11 0-18.5-7.5T32 198t7.5-18 18.5-7h396q11 0 18.5 7t7.5 18-7.5 18.5T454 224z"/>
</svg>