<svg xmlns="http://www.w3.org/2000/svg" viewBox="0 0 512 512">
	<path d="M454 429q11 0 18.5 7t7.5 18-7.5 18.5T454 480H58q-11 0-18.5-7.5T32 454V58q0-11 7.5-18.5T58 32t18 7.5T83 58v371h371zm0-237q11 0 18.5 7.5T480 218t-7.5 18-18.5 7H319v115q0 11-7 18.5t-18 7.5-18.5-7.5T268 358V243H154q-11 0-18.5-7t-7.5-18 7.5-18.5T154 192h114V58q0-11 7.5-18.5T294 32t18 7.5 7 18.5v134h135zm-6-96q-13 0-22.5-9.5T416 64t9.5-22.5T448 32t22.5 9.5T480 64t-9.5 22.5T448 96zm-288 64q-13 0-22.5-9.5T128 128t9.5-22.5T160 96t22.5 9.5T192 128t-9.5 22.5T160 160zm223 0q-13 0-22.5-9.5T351 128t9.5-22.5T383 96t22.5 9.5T415 128t-9.5 22.5T383 160zM192 352q0 13-9.5 22.5T160 384t-22.5-9.5T128 352t9.5-22.5T160 320t22.5 9.5T192 352zm256 0q0 13-9.5 22.5T416 384t-22.5-9.5T384 352t9.5-22.5T416 320t22.5 9.5T448 352z"/>
</svg>