<svg xmlns="http://www.w3.org/2000/svg" viewBox="0 0 512 512">
	<path d="M416 320q41 0 68.5 27.5T512 416t-27.5 68.5T416 512q-42 0-69-28t-27-68v-10l-158-79q-28 25-65 25-18 0-35.5-6.5t-31-19-22-30.5T0 256t8.5-40 22-30.5 31-19T97 160q36 0 64 25l159-80v-9q0-40 27-68t69-28q41 0 68.5 27.5T512 96t-27.5 68.5T416 192q-48 0-78-39l-150 76q4 12 4 27t-4 27l151 75q29-38 77-38zm0-269q-20 0-32.5 12.5T371 96t12.5 32.5T416 141t32.5-12.5T461 96t-12.5-32.5T416 51zM96 301q20 0 32.5-12.5T141 256t-12.5-32.5T96 211t-32.5 12.5T51 256t12.5 32.5T96 301zm320 160q20 0 32.5-12.5T461 416t-12.5-32.5T416 371t-32.5 12.5T371 416t12.5 32.5T416 461z"/>
</svg>