<svg xmlns="http://www.w3.org/2000/svg" viewBox="0 0 512 512">
	<path d="M486 150q11 0 18.5 7t7.5 18q0 12-7 19l-55 54q-8 8-18 8t-18-8l-54-54q-8-7-8-19 1-11 8-18t18-7q10 0 18 8l10 11v-47q0-29-20.5-50T336 51H90q-11 0-18.5-7T64 26t7.5-18.5T90 0h246q25 0 47.5 9.5t39 26 26 38.5 9.5 48v47l10-11q8-8 18-8zm-64 311q11 0 18.5 7t7.5 18-7.5 18.5T422 512H176q-25 0-47.5-9.5t-39-26-26-39T54 390v-47l-10 11q-7 7-18 7t-18-7-8-17q0-12 8-19l54-55q7-7 18-7t18 7l55 55q7 7 7 19 0 11-7.5 18t-18.5 6q-11 0-18-7l-10-11v47q0 29 20.5 50t49.5 21h246z"/>
</svg>