<svg xmlns="http://www.w3.org/2000/svg" viewBox="0 0 512 512">
	<path d="M254.503.998q52.897 0 99.805 19.462t81.84 53.895 55.392 81.34T512 256.5t-20.46 100.304-55.392 80.842-81.84 53.895-99.805 19.462h-9.98q-50.901-5.988-95.813-26.448t-77.848-52.897-51.899-75.852T0 260.491q0-53.895 19.462-100.803t53.895-82.34 80.842-55.89T254.503.998zM185.637 312.39l-18.963-55.891-69.863-21.957-43.914 31.938q0 51.898 31.937 98.807h62.878zm141.724 83.836l-36.928-49.902H224.56l-37.926 52.896 17.965 53.895q24.952 6.986 50.901 6.986 12.975 0 25.95-1.996t26.947-4.99zM183.64 64.873q-50.9 18.963-84.834 61.88l18.963 60.88 71.86 21.958 40.92-29.942V99.805zm231.548 61.88q-36.928-42.917-84.834-61.88l-47.907 34.932v79.844l40.92 29.942 71.86-21.957zm12.975 238.534q28.943-43.915 31.937-98.807l-42.916-31.938-70.861 21.957-17.965 54.893 39.922 53.895h59.883z"/>
</svg>