<svg xmlns="http://www.w3.org/2000/svg" viewBox="0 0 512 512">
	<path d="M275 512q-37 0-63-26L8 282q-8-8-8-19V122q0-11 8-19l96-96q7-7 18-7h141q11 0 19 8l204 204q13 12 19.5 28.5T512 275q0 37-26 63L338 486q-26 26-63 26zM51 253l197 197q11 11 27 11t27-11l148-148q11-11 11-27t-11-27L253 51H132l-81 81v121zm125-29q-20 0-34-14t-14-34 14.5-34 33.5-14q20 0 34 14t14 34q0 19-14 33.5T176 224zm65 106q-11 0-18.5-7.5T215 304q0-10 8-18l86-87q7-7 18-7t18.5 7.5T353 218t-7 18l-87 86q-8 8-18 8zm57 54q-11 0-18.5-7.5T272 358q0-10 8-18l48-45q7-7 17-7 11 0 18.5 7.5T371 314q0 10-8 18l-48 45q-7 7-17 7z"/>
</svg>