<svg xmlns="http://www.w3.org/2000/svg" viewBox="0 0 512 512">
	<path d="M474 95q6 7 6 17 0 12-7 18L131 472q-8 8-19 8-4 0-9-2t-14-10q-43-34-66-89T0 267q0-46 16-89.5T62 98L40 76q-8-8-8-18 0-11 7.5-18.5T58 32t18 7l22 22q36-29 79.5-45T268 0q60 0 113 25.5T474 95zm-56 17q-30-28-68.5-44.5T268 51q-40 0-78 15l19 7q36 14 74 40.5t73 61.5zm-98 99q-15-15-36.5-32.5t-46-33.5-50-26.5T140 108q-32 0-32 32 0 22 11 47.5t26.5 50 33.5 46 32 36.5zM175 356q-35-36-61.5-73.5T73 209l-7-19q-15 37-15 80 0 42 16 81t45 68zm330 112q7 7 7 18t-7.5 18.5T486 512t-18-7L328 364q-8-8-8-18 0-11 7.5-18.5T346 320t18 7z"/>
</svg>