<svg xmlns="http://www.w3.org/2000/svg" viewBox="0 0 512 512">
	<path d="M256 0q53 0 99.5 20T437 75t55 81.5 20 99.5-20 99.5-55 81.5-81.5 55-99.5 20-99.5-20T75 437t-55-81.5T0 256t20-99.5T75 75t81.5-55T256 0zm0 461q42 0 79.5-16t65.5-44 44-65.5 16-79.5-16-79.5-44-65.5-65.5-44T256 51t-79.5 16-65.5 44-44 65.5T51 256t16 79.5 44 65.5 65.5 44 79.5 16zm-48-205q0-22 13.5-35.5T257 207q8 0 12 1l89-76q4-4 10-4 16 0 16 16 0 6-4 10l-76 88q1 4 1.5 7t.5 7q0 22-13.5 35.5T257 305t-35.5-13.5T208 256zm-48 70q11 0 18.5 7.5T186 352t-7.5 18.5T160 378t-18.5-7.5T134 352t7.5-18.5T160 326zm96-179q-11 0-18.5-7.5T230 122q0-11 7.5-18.5T256 96t18.5 7.5T282 122q0 10-7.5 17.5T256 147zm90 179q10 0 17.5 7.5T371 352t-7.5 18.5T346 378q-11 0-18.5-7.5T320 352t7.5-18.5T346 326zM154 189q-11 0-18.5-7.5T128 163q0-10 7.5-17.5T154 138q10 0 17.5 7.5T179 163q0 11-7.5 18.5T154 189zm-7 67q0 11-7.5 18.5T122 282q-11 0-18.5-7.5T96 256t7.5-18.5T122 230q10 0 17.5 7.5T147 256zm109 109q11 0 18.5 7.5T282 390q0 11-7.5 18.5T256 416t-18.5-7.5T230 390q0-10 7.5-17.5T256 365zm160-109q0 11-7.5 18.5T390 282q-10 0-17.5-7.5T365 256q0-10 7.5-18t17.5-8q11 0 18.5 7.5T416 256z"/>
</svg>