<svg xmlns="http://www.w3.org/2000/svg" viewBox="0 0 512 512">
	<path d="M391 71q9-7 18-7 10 0 19 7l76 77q8 8 8 18 0 11-7.5 18.5T486 192q-10 0-18-8l-33-33v143q0 11-7.5 18.5T409 320t-18-7.5-7-18.5V151l-33 33q-8 8-18 8-11 0-18.5-7.5T307 166q0-10 8-18zm95 217q11 0 18.5 7.5T512 314q0 27-10 51.5t-27 43-41 29-52 10.5H109q-22 0-42-9t-35-24-23.5-35.5T0 336t8.5-43 23-35 34-24 41.5-9q4-25 16-47.5t29-40 39.5-28.5T239 96h4q10-1 17.5 6t8.5 17v2q1 10-7 17.5t-25 9.5q-16 1-30.5 10t-26 22-18 29-6.5 32q0 18-7.5 26.5T130 276h-21q-24 0-41 17.5T51 336q0 26 17 43.5t41 17.5h273q17 0 31-6.5t25-17 17-24.5 6-28q0-17 7-25t18-8z"/>
</svg>