<svg xmlns="http://www.w3.org/2000/svg" viewBox="0 0 512 512">
	<path d="M176 0q20 0 34 14t14 34-14 34-34 14-34-14-14-34 14-34 34-14zm0 138q20 0 34 14t14 34-14 34-34 14-34-14-14-34 14-34 34-14zm0 140q20 0 34 14t14 34-14.5 34-33.5 14-33.5-14-14.5-34 14-34 34-14zm0 138q20 0 34 14t14 34-14 34-34 14-34-14-14-34 14-34 34-14zM336 96q-20 0-34-14t-14-34 14-34 34-14 34 14 14 34-14 34-34 14zm0 42q20 0 34 14t14 34-14 34-34 14-34-14-14-34 14-34 34-14zm0 140q20 0 34 14t14 34-14.5 34-33.5 14-33.5-14-14.5-34 14-34 34-14zm0 138q20 0 34 14t14 34-14 34-34 14-34-14-14-34 14-34 34-14z"/>
</svg>