<svg xmlns="http://www.w3.org/2000/svg" viewBox="0 0 512 512">
	<path d="M454 480H58q-11 0-18.5-7.5T32 454t7.5-18 18.5-7h396q11 0 18.5 7t7.5 18-7.5 18.5T454 480zm-204-96q-11 0-18.5-7.5T224 358V218q0-11 7.5-18.5T250 192t18 7.5 7 18.5v140q0 11-7 18.5t-18 7.5zm172 0q-11 0-18-7.5t-7-18.5V154q0-11 7-18.5t18-7.5 18.5 7.5T448 154v204q0 11-7.5 18.5T422 384zm-332 0q-11 0-18.5-7.5T64 358v-44q0-11 7.5-18.5T90 288t18 7.5 7 18.5v44q0 11-7 18.5T90 384zm44-141H58q-11 0-18.5-7T32 218t7.5-18.5T58 192h76q11 0 18.5 7.5T160 218t-7.5 18-18.5 7zm160-96h-76q-11 0-18.5-7t-7.5-18 7.5-18.5T218 96h76q11 0 18.5 7.5T320 122t-7.5 18-18.5 7zm160-64h-76q-11 0-18.5-7T352 58t7.5-18.5T378 32h76q11 0 18.5 7.5T480 58t-7.5 18-18.5 7z"/>
</svg>