<svg xmlns="http://www.w3.org/2000/svg" viewBox="0 0 512 512">
	<path d="M263 480q-11 0-18.5-7.5T237 454V346q0-11 7.5-18.5T263 320t18 7.5 7 18.5v108q0 11-7 18.5t-18 7.5zm83-32q-11 0-18.5-7.5T320 422V314q0-11 7.5-18.5T346 288t18 7.5 7 18.5v108q0 11-7 18.5t-18 7.5zm-179 0q-11 0-18.5-7.5T141 422V314q0-11 7.5-18.5T167 288t18 7.5 7 18.5v108q0 11-7 18.5t-18 7.5zm137-192q-8 0-16-6l-54-45q-10-7-10-19 0-11 7.5-18.5T250 160q9 0 16 6l35 29L403 73q8-9 20-9 11 0 18 7.5t7 18.5q0 8-6 16L324 247q-7 9-20 9zM67 384q-15 0-27-10.5t-21-27T5 311t-5-35q0-21 8-40.5T30 201t32-25 38-14q5-28 19.5-51.5t35.5-41T202.5 42 259 32q7 0 17.5 1t20 4 16.5 9 7 17-7.5 18-18.5 7q-7 0-10-1-5-2-12.5-3T256 83q-22 0-41 8t-33.5 21-23 30-9.5 35q-2 17-9 25.5t-17 8.5q-29 0-50.5 20T51 280q0 18 8 32.5T80 334q16 10 16 24 0 11-8.5 18.5T67 384zm377 0q-11 0-19-6.5t-8-17.5q0-15 17-28 27-19 27-60 0-21-6-38.5T439 207q-10-12-10-22t7.5-17 18.5-7q15 0 26 13t17.5 31 10 36.5T512 272q0 13-5 32t-14 37-21.5 30.5T444 384z"/>
</svg>