<svg xmlns="http://www.w3.org/2000/svg" viewBox="0 0 512 512">
	<path d="M26 160q-11 0-18.5-7.5T0 134V90q0-38 26-64T90 0h44q11 0 18.5 7.5T160 26t-7.5 18-18.5 7H90q-17 0-28 11T51 90v44q0 11-7 18.5T26 160zm479-66q7 7 7 18t-7 18L130 505q-9 7-18 7H26q-11 0-18.5-7.5T0 486v-86q0-10 8-18L382 7q9-7 18-7t18 7zm-55 18l-50-50-50 50 50 50zm-86 86l-50-50L62 400l50 50zm122 154q11 0 18.5 7.5T512 378v44q0 38-26 64t-64 26h-44q-11 0-18.5-7.5T352 486t7.5-18 18.5-7h44q17 0 28-11t11-28v-44q0-11 7-18.5t18-7.5z"/>
</svg>