<svg xmlns="http://www.w3.org/2000/svg" viewBox="0 0 512 512">
	<path d="M486 0q11 0 18.5 7.5T512 26t-7.5 18-18.5 7h-19v19q0 11-7 18.5T442 96t-18.5-7.5T416 70V51h-45v19q0 11-7 18.5T346 96t-18.5-7.5T320 70V51h-64v19q0 11-7.5 18.5T230 96t-18-7.5-7-18.5V51h-45v19q0 11-7.5 18.5T134 96t-18-7.5-7-18.5V51H51v90h26q11 0 18 7t7 18-7 18.5-18 7.5H51v45h26q11 0 18 7t7 18-7 18.5-18 7.5H51v45h26q11 0 18 7t7 18-7 18.5-18 7.5H51v102q0 11-7 18.5T26 512t-18.5-7.5T0 486V26Q0 15 7.5 7.5T26 0h460zm-98 243q-7 0-10.5 3t-4.5 5l-52 69 51 69q2 2 5.5 5t10.5 3h2q11 0 18.5 7t7.5 18-7.5 18.5T390 448h-2q-17 0-31.5-7.5T332 420l-43-57-42 57q-9 12-25 20t-31 8h-5q-11 0-18.5-7.5T160 422t7.5-18 18.5-7h5q9 0 15-8l51-68-51-67q-8-11-20-11-11 0-18.5-7t-7.5-18 8-18.5 22-7.5 30 8 27 22l42 56 43-58q10-14 24.5-21t31.5-7h2q11 0 18.5 7.5T416 218t-7.5 18-18.5 7h-2z"/>
</svg>