<?xml version="1.0" encoding="UTF-8"?>
<svg width="1320px" height="702px" viewBox="0 0 1320 702" version="1.1" xmlns="http://www.w3.org/2000/svg" xmlns:xlink="http://www.w3.org/1999/xlink">
    <!-- Generator: Sketch 52.5 (67469) - http://www.bohemiancoding.com/sketch -->
    <title>Untitled</title>
    <desc>Created with Sketch.</desc>
    <defs>
        <rect id="path-1" x="0" y="0" width="1440" height="702"></rect>
    </defs>
    <g id="Demokit-Like" stroke="none" stroke-width="1" fill="none" fill-rule="evenodd">
        <g id="Untitled">
            <mask id="mask-2" fill="white">
                <use xlink:href="#path-1"></use>
            </mask>
            <g id="Mask"></g>
            <g opacity="0.600000024" mask="url(#mask-2)" id="Path">
                <g transform="translate(-352.000000, -423.000000)">
                    <path d="M634.084353,989.869392 C850.781799,880.283489 1022.42791,698.48496 1119.3919,475.856213 C1119.3919,475.856213 1228.30224,232.503234 1126.58409,0 C1126.58409,0 1148.37835,290.626866 487.236504,599.41791 C-173.905339,908.208955 29.5222509,1217 29.5222509,1217 C66.9634458,1182.68311 112.772312,1158.80671 162.35142,1147.7741 C271.139859,1118.49895 442.368021,1088.69263 634.084353,989.869392 Z" fill="#FF8C17" opacity="0.6"></path>
                    <path d="M653.256581,1124.36197 C937.340373,1124.36197 1265.97011,992.315542 1428.59109,697.471078 C1458.18388,637.187121 1478.1969,572.661862 1487.89859,506.211906 C1507.01459,391.235193 1506.69237,273.872204 1486.94933,159 C1486.94933,159 1433.1023,309.823111 1119.71311,475.738984 C974.954043,549.704839 823.454299,609.640435 667.269175,654.718413 C-79.9704788,881.501749 29.6395337,1217 29.6395337,1217 C147.392353,1139.05411 148.106481,1124.36197 653.256581,1124.36197 Z" fill="#FF7A17" opacity="0.4"></path>
                    <path d="M652.784232,1124.44301 C914.012608,1124.44301 1269.17274,1139.11361 1453.63893,984.663432 C1566.76995,889.939794 1670.05743,764.761191 1672,574 C1672,574 1517.25607,676.024129 1428.28964,697.960404 C1305.22797,728.302249 1083.79189,774.846135 881.197906,763.360263 C193.683288,724.377909 29,1217 29,1217 C123.811579,1129.42023 239.181348,1124.44301 652.784232,1124.44301 Z" fill="#FF6416" opacity="0.2"></path>
                </g>
            </g>
        </g>
    </g>
</svg>