<?xml version="1.0" encoding="UTF-8"?>
<svg width="48px" height="48px" viewBox="0 0 48 48" version="1.1" xmlns="http://www.w3.org/2000/svg" xmlns:xlink="http://www.w3.org/1999/xlink">
    <!-- Generator: Sketch 52.5 (67469) - http://www.bohemiancoding.com/sketch -->
    <title>building</title>
    <desc>Created with Sketch.</desc>
    <g id="Demokit-Like" stroke="none" stroke-width="1" fill="none" fill-rule="evenodd">
        <path d="M18,15 L30,15 L30,18 L18,18 L18,15 Z M18,21 L30,21 L30,24 L18,24 L18,21 Z M18,27 L30,27 L30,30 L18,30 L18,27 Z M18,42 L30,42 L30,48 L27,48 L27,45 L21,45 L21,48 L18,48 L18,42 Z M47.8125,34.3125 L47.8125,48 L34.5,48 L34.5,3 L13.5,3 L13.5,48 L0.09375,48 L0.09375,27.375 L10.3125,20.625 L10.3125,0 L37.59375,0 L37.59375,27.375 L47.8125,34.3125 Z M44.34375,37.6875 L37.59375,37.6875 L37.59375,41.0625 L44.34375,41.0625 L44.34375,37.6875 Z M18,33 L30,33 L30,36 L18,36 L18,33 Z M10.3125,37.6875 L3.5625,37.6875 L3.5625,41.0625 L10.3125,41.0625 L10.3125,37.6875 Z M10.3125,30.84375 L3.5625,30.84375 L3.5625,34.3125 L10.3125,34.3125 L10.3125,30.84375 Z M18,9 L30,9 L30,12 L18,12 L18,9 Z" id="building" fill="#FF5316"></path>
    </g>
</svg>