<svg width="209" height="45" viewBox="0 0 209 45" fill="none" xmlns="http://www.w3.org/2000/svg">
<g clip-path="url(#clip0_1_1751)">
<path d="M0.126953 31.0551L2.96817 29.1555C3.37831 30.1331 4.02568 30.9582 4.83452 31.5341C5.64335 32.11 6.5802 32.4129 7.53542 32.4074C9.25436 32.4074 10.4974 31.683 10.4974 30.2019C10.4974 28.7208 9.28277 28.1171 7.05242 27.4168C4.02652 26.4589 0.858565 25.5735 0.858565 21.5407C0.858565 17.9506 3.33753 15.7934 6.98849 15.7934C8.31978 15.7276 9.64307 16.0578 10.8269 16.7512C12.0107 17.4445 13.0137 18.4769 13.7364 19.7456L11.1438 21.9834C10.6984 21.1754 10.083 20.5053 9.35284 20.0333C8.62265 19.5612 7.80048 19.302 6.96008 19.2788C5.3761 19.2788 4.50243 20.0837 4.50243 21.2026C4.50243 22.732 5.76677 23.2794 7.99002 23.9877C10.9733 24.8973 14.1341 25.9598 14.1341 29.9363C14.1341 33.0353 12.0743 35.7882 7.35074 35.7882C3.68557 35.7882 1.39129 33.8161 0.126953 31.0551ZM14.8302 35.426L20.8394 16.1073H24.3909L30.4001 35.426H26.6284L25.3569 31.1356H19.5822L18.2681 35.426H14.8302ZM20.5127 28.0688H24.5117L22.5583 21.5165H22.5157L20.5127 28.0688ZM32.3108 35.426V16.1797H38.4834C42.1059 16.1797 45.4159 17.2745 45.4159 22.3456C45.4159 27.4168 41.8644 28.5839 38.4336 28.5839H36.0115V35.426H32.3108ZM36.0115 25.3078H38.5544C40.87 25.3078 41.7437 24.2936 41.7437 22.4503C41.7437 20.6069 40.8984 19.641 38.5544 19.641H36.0115V25.3078ZM53.485 35.426V16.1636H64.7149V19.7054H57.2283V24.358H62.5556V27.7146H57.2283V35.3938L53.485 35.426ZM66.448 19.6491V16.3085H70.1771V19.6651L66.448 19.6491ZM66.448 35.426V21.5487H70.1771V35.426H66.448ZM72.3933 28.5035C72.3933 23.1103 76.0229 21.2589 78.5516 21.2589C81.0803 21.2589 84.1772 22.6917 84.1772 28.9864V29.6143H76.1011C76.2786 31.9003 77.408 32.7858 78.9423 32.7858C80.2891 32.7402 81.5768 32.149 82.5719 31.1195L83.9925 33.6229C82.5117 35.0253 80.6299 35.7666 78.7008 35.7077C75.476 35.7077 72.4217 33.8644 72.4217 28.5035H72.3933ZM80.8672 27.1511C80.6896 25.1951 79.9083 24.2614 78.5303 24.2614C77.3796 24.2614 76.3994 25.1146 76.1153 27.1511H80.8672ZM86.5141 35.426V16.1636H90.1935V35.426H86.5141ZM92.4665 28.6081C92.4665 23.7784 94.4198 21.267 97.2184 21.267C97.9397 21.2199 98.6596 21.3813 99.3107 21.7362C99.9618 22.091 100.523 22.6276 100.94 23.2955V16.1636H104.634V32.0372C104.56 33.1833 104.685 34.3348 105.003 35.426H101.217C101.021 34.754 100.927 34.0489 100.94 33.3412C100.531 34.0493 99.9705 34.6296 99.3116 35.0289C98.6527 35.4283 97.9159 35.634 97.1687 35.6272C94.3275 35.6272 92.4309 33.3975 92.4309 28.6081H92.4665ZM100.94 31.1276V25.9679C100.635 25.5757 100.26 25.2601 99.8404 25.0411C99.421 24.8221 98.9658 24.7046 98.5041 24.6961C96.9698 24.6961 96.16 26.0242 96.16 28.5437C96.16 30.8619 96.8703 32.4477 98.5538 32.4477C99.4598 32.3738 100.304 31.8997 100.905 31.1276H100.94ZM106.268 37.5108C106.268 36.1504 107.255 35.2408 108.399 34.7257C108.143 34.5555 107.931 34.3118 107.785 34.0192C107.639 33.7266 107.564 33.3955 107.568 33.0594C107.568 31.9084 108.37 30.9183 109.336 30.218C108.708 29.8199 108.187 29.2343 107.832 28.5248C107.476 27.8153 107.299 27.0089 107.319 26.1933C107.319 23.4081 109.294 21.2267 112.831 21.2267C114.304 21.154 115.749 21.6952 116.894 22.7481C117.794 21.9326 118.886 21.4344 120.033 21.3153V24.5351C119.338 24.5426 118.646 24.6481 117.973 24.849C118.128 25.2865 118.205 25.7542 118.201 26.2255C118.201 29.0428 116.29 31.1759 112.781 31.1759C112.148 31.1708 111.518 31.0926 110.899 30.9424C110.643 31.1759 110.487 31.3852 110.487 31.6427C110.487 32.166 110.963 32.2706 111.858 32.3189L113.697 32.4477C117.902 32.6328 119.6 33.7758 119.6 36.3758C119.6 39.2414 116.638 40.6259 112.575 40.6259C107.823 40.634 106.232 39.4588 106.232 37.5108H106.268ZM116.347 37.0922C116.347 36.2309 115.985 35.8446 113.087 35.6836L111.155 35.5789L110.352 35.5065C110.148 35.6271 109.976 35.8055 109.852 36.0242C109.727 36.2428 109.655 36.4943 109.642 36.7541C109.642 37.9455 110.629 38.525 113.136 38.525C115.054 38.525 116.347 38.0421 116.347 37.0922ZM114.926 26.3945C114.926 26.0837 114.872 25.776 114.767 25.4889C114.662 25.2017 114.509 24.9409 114.315 24.7211C114.121 24.5013 113.89 24.327 113.637 24.2081C113.384 24.0892 113.112 24.028 112.838 24.028C112.564 24.028 112.292 24.0892 112.039 24.2081C111.785 24.327 111.555 24.5013 111.361 24.7211C111.167 24.9409 111.014 25.2017 110.909 25.4889C110.804 25.776 110.75 26.0837 110.75 26.3945C110.75 26.7053 110.804 27.013 110.909 27.3001C111.014 27.5873 111.167 27.8481 111.361 28.0679C111.555 28.2876 111.785 28.462 112.039 28.5809C112.292 28.6998 112.564 28.761 112.838 28.761C113.112 28.761 113.384 28.6998 113.637 28.5809C113.89 28.462 114.121 28.2876 114.315 28.0679C114.509 27.8481 114.662 27.5873 114.767 27.3001C114.872 27.013 114.926 26.7053 114.926 26.3945ZM121.823 35.4179V16.1475H125.496V35.4179H121.823ZM127.662 31.8842C127.662 28.6644 130.049 26.9097 135.419 26.4186V26.0806C135.419 25.0663 134.964 24.4143 133.771 24.4143C132.298 24.4567 130.882 25.0608 129.75 26.1289L128.188 23.714C129.86 22.017 132.053 21.13 134.296 21.2428C137.649 21.2428 139.027 23.1184 139.027 26.6762V32.013C138.962 33.1566 139.078 34.3041 139.368 35.4018H135.696C135.513 34.7455 135.42 34.0615 135.419 33.3734C134.902 34.0848 134.25 34.6553 133.513 35.0426C132.775 35.43 131.97 35.6243 131.157 35.6111C130.706 35.649 130.253 35.5805 129.827 35.4099C129.401 35.2393 129.01 34.9704 128.681 34.6201C128.351 34.2699 128.089 33.8459 127.911 33.3749C127.733 32.904 127.644 32.3964 127.648 31.8842H127.662ZM135.419 31.2886V28.7047C132.499 29.0508 131.263 29.8799 131.263 31.1195C131.263 32.005 131.817 32.4477 132.62 32.4477C133.129 32.4773 133.638 32.3899 134.117 32.1907C134.595 31.9915 135.033 31.6846 135.404 31.2886H135.419ZM140.817 33.5746L142.287 31.2322C143.483 32.3689 144.988 33.003 146.549 33.0272C147.693 33.0272 148.495 32.5845 148.495 31.6749C148.495 30.7653 147.856 30.3468 146.18 30.0087C143.857 29.5418 141.378 28.914 141.378 25.662C141.378 22.8769 143.395 21.267 146.13 21.267C148.073 21.142 149.988 21.8358 151.507 23.215L150.086 25.5815C149.042 24.6841 147.786 24.16 146.478 24.0763C145.427 24.0763 144.83 24.5431 144.83 25.2998C144.83 26.0564 145.469 26.4669 146.961 26.7728C149.369 27.2397 151.933 27.8675 151.933 31.0149C151.933 34.3715 149.362 35.6997 146.542 35.6997C144.463 35.817 142.419 35.0602 140.803 33.5746H140.817ZM152.97 33.5746L154.433 31.2322C155.63 32.3666 157.135 33.0003 158.695 33.0272C159.846 33.0272 160.649 32.5845 160.649 31.6749C160.649 30.7653 160.009 30.3468 158.326 30.0087C156.01 29.5418 153.531 28.914 153.531 25.662C153.531 22.8769 155.549 21.267 158.283 21.267C160.224 21.1425 162.137 21.8364 163.653 23.215L162.233 25.5815C161.189 24.6841 159.932 24.16 158.624 24.0763C157.566 24.0763 156.976 24.5431 156.976 25.2998C156.976 26.0564 157.637 26.4669 159.15 26.7809C161.565 27.2477 164.122 27.8756 164.122 31.0229C164.122 34.3796 161.551 35.7077 158.724 35.7077C156.634 35.8331 154.578 35.0727 152.956 33.5746H152.97Z" fill="black"/>
<path fill-rule="evenodd" clip-rule="evenodd" d="M181.503 36.7455C181.922 38.2105 182.718 41.4383 182.292 42.9677C181.865 44.4971 180.587 43.5553 180.09 42.9677C179.912 42.7826 179.827 42.7343 179.699 42.5813C179.221 42.0139 178.77 41.4174 178.349 40.7944L177.185 38.8464C177.071 38.6613 177.014 38.5244 176.908 38.3232L175.153 34.6043C174.691 33.413 174.272 32.3344 173.86 31.1189C173.669 30.5072 173.313 29.2917 173.15 28.6316C172.901 27.5691 171.658 21.846 174.073 22.997C174.388 23.1757 174.675 23.4093 174.926 23.6893C175.316 24.0779 175.68 24.5004 176.013 24.953C176.268 25.2992 176.765 26.0397 176.957 26.3537C177.363 26.9825 177.73 27.6414 178.058 28.3258L177.305 27.2552C176.084 25.6051 174.833 25.2509 175.174 27.8911C175.316 28.9425 175.542 29.9771 175.849 30.9821L176.332 32.3907C176.481 32.8657 176.673 33.2601 176.837 33.6867C177.589 35.7528 178.692 37.6315 180.083 39.2167C181.425 40.5529 181.716 39.2972 181.539 37.7517L181.262 36.1418C181.361 36.3329 181.442 36.5352 181.503 36.7455ZM199.034 11.9451C198.876 11.5803 198.693 11.2303 198.487 10.8987C197.019 8.10794 195.264 5.52472 193.259 3.20342C193.143 3.05868 193.019 2.92161 192.889 2.7929C192.227 2.06425 191.464 1.46333 190.631 1.01397C190.404 0.905869 190.165 0.835381 189.92 0.804688H189.423C189.22 0.831848 189.024 0.906728 188.848 1.02454C188.672 1.14235 188.519 1.3005 188.4 1.48889C187.988 2.32673 187.782 3.27474 187.804 4.23375C187.788 5.29602 187.835 6.35828 187.946 7.41329C188.209 9.29697 188.567 11.1621 189.018 12.9996C189.345 14.2151 189.729 15.6559 190.119 16.8553C190.652 18.5376 191.22 20.0751 191.81 21.7413C191.945 22.176 192.122 22.5463 192.264 22.9407C192.747 24.3413 194.104 27.3759 194.701 28.696C195.169 29.7505 196.334 32.0205 196.874 33.0347L198.011 35.1276C198.889 36.6452 199.838 38.1095 200.852 39.5145C201.412 40.3117 202.017 41.0673 202.663 41.7764C203.508 42.7262 206.215 45.3504 207.451 43.3863C207.99 42.525 207.948 41.6557 208.076 40.6736C208.09 40.1363 208.073 39.5986 208.026 39.0637C208.007 38.5651 207.965 38.068 207.898 37.5746C207.806 36.7696 207.451 34.6929 207.294 34.0006L206.818 31.9883C206.518 30.676 206.141 29.3879 205.689 28.1326L206.044 29.7425C206.321 31.0787 207.095 35.8923 205.27 35.9164C204.587 35.8293 203.948 35.4899 203.452 34.9505C202.903 34.4116 202.394 33.822 201.932 33.1876C201.612 32.761 201.221 32.2298 200.93 31.779L200.22 30.5877C199.842 30.0025 199.491 29.3953 199.168 28.7685C198.955 28.3499 198.742 27.9152 198.501 27.5128C197.982 26.6032 197.165 24.623 196.682 23.5363L195.851 21.4676C195.645 21.033 194.701 18.2479 194.587 17.8615L194.154 16.3079C193.699 14.7191 193.362 13.0902 193.145 11.438C192.922 10.2586 192.981 9.03321 193.316 7.88821C193.398 7.66358 193.533 7.46875 193.706 7.32474C195.035 6.39906 197.457 9.65104 198.245 10.8585C198.487 11.2393 198.751 11.6023 199.034 11.9451ZM192.016 32.8737L192.413 35.2885C192.555 36.1534 192.516 37.0438 192.3 37.8885C191.625 39.4421 189.65 37.0836 189.302 36.5121C188.954 35.9406 188.628 35.5944 188.187 34.9022C188.003 34.6043 187.846 34.3307 187.676 34.0328C187.335 33.4613 187.044 32.8415 186.724 32.2298C186.549 31.9254 186.393 31.608 186.255 31.2799L185.19 28.8651C184.849 28.0601 184.543 27.1827 184.245 26.3295C183.74 24.8883 183.34 23.4021 183.052 21.8862C182.846 20.9364 182.562 19.0206 183.016 18.111C183.471 17.2014 184.259 17.7568 184.728 18.111C185.637 19.0089 186.45 20.0247 187.15 21.1376C187.059 20.8684 186.937 20.614 186.788 20.381L185.957 18.8677C185.687 18.3847 184.906 17.2014 184.579 16.7507C184.039 15.9457 183.869 15.8411 183.449 15.2535C182.739 14.2473 180.608 12.1383 179.592 13.3699C178.882 14.2473 178.989 16.4528 179.117 17.5476C179.63 21.1545 180.552 24.6715 181.858 28.0118C182.533 29.7264 182.86 30.5716 183.584 32.2217C184.38 34.0006 184.962 35.1276 185.928 36.9548C186.191 37.4538 186.482 37.969 186.767 38.4278L187.676 39.8767C187.981 40.3436 188.784 41.4866 189.16 41.9213C189.871 42.7987 191.291 44.4005 192.47 44.3361C194.182 44.2315 193.728 40.086 193.493 38.7015C193.203 37.036 192.818 35.3932 192.342 33.7833L192.158 33.1071C192.142 33.0015 192.091 32.9067 192.016 32.8415V32.8737ZM197.812 17.3302C197.812 19.6807 200.745 26.08 201.541 26.08C202.159 26.08 201.484 23.6088 201.385 23.2868L200.745 21.3549C200.646 21.1296 200.568 20.9847 200.483 20.7593C200.001 19.5872 199.39 18.4891 198.664 17.4912C198.508 17.2658 197.812 16.5494 197.812 17.298V17.3302ZM186.603 25.0818C186.603 26.3698 188.429 30.7165 189.047 30.7165C189.665 30.7165 188.471 27.4484 188.237 26.9574C187.903 26.1955 187.456 25.504 186.916 24.9128C186.788 24.8484 186.603 24.8887 186.603 25.0496V25.0818ZM177.675 31.3282C177.77 32.0141 177.969 32.6759 178.264 33.2842C178.309 33.4349 178.366 33.5805 178.435 33.7189C178.534 33.9201 178.882 34.5721 179.06 34.6204C179.656 34.8136 178.634 32.1171 178.009 31.4007C177.952 31.2719 177.675 31.0626 177.675 31.296V31.3282ZM192.016 32.8496V32.6564H191.93C191.93 32.9542 191.93 32.7127 192.016 32.8174V32.8496ZM187.129 21.1376V21.2262L187.207 21.1376H187.129Z" fill="black"/>
</g>
<defs>
<clipPath id="clip0_1_1751">
<rect width="207.998" height="43.4831" fill="white" transform="translate(0.126953 0.820312)"/>
</clipPath>
</defs>
</svg>
