<svg xmlns="http://www.w3.org/2000/svg" viewBox="0 0 512 512">
	<path d="M0 242c0-45 36-81 80-81 31 0 57 18 70 43l61-13c-3-15-5-27-5-38C206 68 275 0 359 0c85 0 153 68 153 153 0 65-40 120-100 143l15 56h10c46 3 75 44 75 80v5c-3 47-41 75-85 75-45-3-75-41-75-80v-5c3-31 20-54 44-66l-15-57c-7 1-14 2-22 2-21 0-41-5-62-14l-64 84c15 15 23 34 23 56 0 44-36 80-80 80s-80-36-80-80 36-80 80-80c11 0 21 2 31 6l62-82c-20-15-35-33-46-54l-64 13c1 1 1 3 1 7 0 44-36 79-80 79S0 286 0 242zM254 92h53c9-27 20-46 32-59-37 7-65 27-85 59zm157 0h53c-19-31-48-52-85-59 14 14 25 34 32 59zm-83 0h63c-7-22-18-40-32-53-13 13-24 31-31 53zm-11 61c0 13 1 25 4 35h77c2-11 3-23 3-35 0-11-1-20-2-31h-79c-2 10-3 20-3 31zm100 35h59c3-13 5-25 5-35 0-13-1-23-4-31h-59c1 11 2 20 2 31 0 12-1 24-3 35zm-180-35c0 12 2 24 6 35h58c-2-11-3-23-3-35 0-11 1-21 3-31h-60c-3 10-4 20-4 31zM32 242c0 27 21 47 48 47s48-20 48-47-21-49-48-49-48 22-48 49zm348 31c35-7 62-25 82-54h-52c-7 21-17 39-30 54zm-72-54h-51c20 29 47 47 81 54-12-15-23-33-30-54zm82 0h-61c7 19 17 35 30 47 13-11 23-28 31-47zM176 480c27 0 48-21 48-48s-21-48-48-48-48 21-48 48 21 48 48 48zm253 0c27 0 48-18 51-45v-5c0-23-18-43-45-46-31 0-48 15-51 45v5c0 23 18 43 45 46z"/>
</svg>