<svg xmlns="http://www.w3.org/2000/svg" viewBox="0 0 512 512">
	<path d="M103 0h249l128 128v127l-32 1v-96h-96c-19 0-32-13-32-32V32H134v448h122v32H103V0zM63 512H0V0h63v32H31v448h32v32zm225-98v-31h34c3-12 7-21 11-28l-23-24 22-22 24 23c9-5 18-9 29-11v-34h31v34c11 3 20 4 28 11l24-23 22 22-23 24c7 8 8 17 11 28h34v31h-34c-2 11-6 20-11 29l23 24-22 22-24-23c-10 5-19 9-28 11v34h-31v-34c-9-1-18-4-29-11l-24 23-22-22 23-24c-5-9-8-18-11-29h-34zm68-31c-2 5-3 10-3 16 0 3 1 8 2 15 5 15 15 26 30 31 7 1 12 2 15 2 6 0 11-1 16-3 15-4 26-15 31-30 1-7 2-12 2-15 0-20-14-38-33-45-5-2-10-3-16-3-3 0-8 1-15 2-15 5-25 15-29 30z"/>
</svg>