<svg xmlns="http://www.w3.org/2000/svg" viewBox="0 0 512 512">
	<path d="M256 0c141 0 256 115 256 256S397 512 256 512 0 397 0 256 115 0 256 0zm0 486c126 0 229-103 229-230 0-125-103-228-229-228S27 131 27 256c0 127 103 230 229 230zm0-432c111 0 202 91 202 202s-91 202-202 202S54 367 54 256 145 54 256 54zm0 378c96 0 175-80 175-176S352 81 256 81c-97 0-175 79-175 175s78 176 175 176zm0-283h2c1 0 1 0 2 1l90 182c0 2-1 3-2 4 0 1 0 1-1 1 0 0-1 0-2-1l-89-58-88 58h-4c-1-1-2-2-2-4l90-182c1-1 2-1 4-1z"/>
</svg>