<svg xmlns="http://www.w3.org/2000/svg" viewBox="0 0 512 512">
	<path d="M11.5 367V112c0-19 13-32 32-32h255c19 0 33 13 33 32v255c0 19-14 33-33 33h-255c-19 0-32-14-32-33zm32 1h256V112h-256v256zm38-144l57-57c2-3 5-4 8-4 4 0 7 1 9 4 4 4 4 12 0 17l-56 56 56 55c3 3 5 6 5 9s-2 5-5 8c-2 3-5 4-9 4-3 0-6-1-8-4l-57-57c-4-4-6-9-6-15s2-11 6-16zm105-57c2-2 5-3 8-3 4 0 7 1 9 3l57 57c5 5 7 10 7 15 0 6-2 11-7 16l-57 57c-3 3-5 4-8 4-2 0-5-1-9-4-3-3-4-5-4-8s1-6 4-9l56-56-56-55c-3-3-4-6-4-9s1-5 4-8zm177 233V192h137v38h-92v51h65v36h-65v83h-45z"/>
</svg>