<svg xmlns="http://www.w3.org/2000/svg" viewBox="0 0 512 512">
	<path d="M44 224c0-3 1-6 2-8l45-80c3-5 8-8 14-8h302c6 0 11 3 14 8l45 80c1 1 2 4 2 8v2c0 8-7 14-15 14H59c-8 0-15-8-15-16zm43-16h338l-28-48H115zM0 400v-96c0-27 21-48 48-48h416c27 0 48 21 48 48v96c0 27-21 48-48 48H48c-27 0-48-21-48-48zm352-92v89c0 11 9 19 20 19h8c11 0 20-8 20-19v-89c0-11-9-20-20-20h-9c-11 0-19 9-19 20zm100 108h8c11 0 20-8 20-19v-89c0-11-9-20-20-20h-9c-11 0-19 9-19 20v89c0 11 9 19 20 19zm-320 0h8c11 0 20-8 20-19v-89c0-11-9-20-20-20h-9c-11 0-19 9-19 20v89c0 11 9 19 20 19zM32 308v89c0 11 9 19 20 19h8c11 0 20-8 20-19v-89c0-11-9-20-20-20h-9c-11 0-19 9-19 20zm160 0v89c0 11 9 19 20 19h8c11 0 20-8 20-19v-89c0-11-9-20-20-20h-9c-11 0-19 9-19 20zm80 0v89c0 11 9 19 20 19h8c11 0 20-8 20-19v-89c0-11-9-20-20-20h-9c-11 0-19 9-19 20z"/>
</svg>