<svg xmlns="http://www.w3.org/2000/svg" viewBox="0 0 512 512">
	<path d="M217.944 40.99l-27.993 13.996-39.99-19.995L217.945 0l217.944 109.972v133.965l-35.99 17.996V131.966zM35.991 131.965v245.937l162.958 81.98v40.989L0 399.898V109.972l108.972-54.986 217.944 108.972v61.984l-36.99 15.996v-54.986L108.972 94.976zM72.98 355.91V309.92l76.98 36.99V393.9zm285.927-37.99l66.983 82.978c3 3 4.999 6.998 4.999 10.997s-2 7.998-5 11.997l-65.982 81.98c-6.998 7.997-16.996 7.997-23.994 1s-6.998-16.997 0-23.995l47.988-62.984c2.999-2.999 3.999-4.998 3.999-7.998s-1-4.998-4-6.998l-48.987-63.983c-6.998-6.999-6.998-15.996 0-22.994 4-4 7.998-5.999 11.997-5.999s7.998 2 11.997 5.999zm-81.979 0l66.983 82.978c3 3 4.999 6.998 4.999 10.997s-2 7.998-5 11.997l-66.982 81.98c-6.998 7.997-15.996 7.997-22.994 1-4-4-5.999-7.999-5.999-12.998 0-2.999 2-6.998 5-10.997l48.987-62.984c2.999-2.999 3.999-4.998 3.999-7.998s-1-4.998-4-6.998l-48.987-63.983c-3-4-4.999-7.998-4.999-10.998 0-3.999 2-7.998 5-11.996 6.997-6.999 16.995-6.999 23.993 0zm162.958 0l66.983 82.978c3 4 4.999 7.998 4.999 11.997 0 3-2 6.998-4.999 10.997l-66.983 81.98c-6.998 7.997-16.995 7.997-23.994 1-2.999-4-4.998-7.999-4.998-11.998s2-7.998 4.998-11.997l48.988-62.984c3-2.999 3.999-4.998 3.999-7.998s-1-4.998-4-6.998l-48.987-63.983c-6.998-6.999-6.998-15.996 0-22.994s16.996-6.999 23.994 0z"/>
</svg>