<svg xmlns="http://www.w3.org/2000/svg" viewBox="0 0 512 512">
	<path d="M143 32c5 0 9 0 11 1l-15-14c-3-3-4-5-4-8 0-4 3-11 12-11 3 0 5 1 8 3l31 29c4 4 6 9 6 14v2c0 6-2 12-6 17l-31 27c-2 2-4 3-7 3-8 0-12-4-12-12s9-13 16-18c-2-1-5-1-9-1-25 0-47 21-47 48s21 48 48 48c6 0 11-1 16-3v33c-5 1-9 2-16 2-44 0-80-36-80-80 0-45 36-80 79-80zm184 126l31-27c1-2 4-3 8-3 8 0 12 4 12 11 0 3-1 5-4 8l-13 11c2 1 5 1 8 1 24-1 47-25 47-50 0-24-21-45-48-45-5 0-10 1-16 3V33c3-1 6-1 9-1h7c45 0 80 35 80 80 0 47-37 79-81 79h-8l15 13c3 3 4 5 4 8s-2 11-11 11c-3 0-6-1-9-3l-31-28c-5-5-7-10-7-17 1-7 4-12 7-17zM0 400v-96c0-27 21-48 48-48h184V115c0-11 9-19 20-19h9c13 0 19 6 19 19v141h184c27 0 48 21 48 48v96c0 27-21 48-48 48H48c-27 0-48-21-48-48zm352-92v88c0 11 9 20 20 20h9c11 0 19-9 19-20v-88c0-11-8-20-19-20h-9c-11 0-20 9-20 20zm80 0v88c0 11 9 20 20 20h9c11 0 19-9 19-20v-88c0-11-8-20-19-20h-9c-11 0-20 9-20 20zM132 416h9c11 0 19-9 19-20v-88c0-11-8-20-19-20h-9c-11 0-20 9-20 20v88c0 11 9 20 20 20zM32 308v88c0 11 9 20 20 20h9c11 0 19-9 19-20v-88c0-11-8-20-19-20h-9c-11 0-20 9-20 20zm160 0v88c0 11 9 20 20 20h9c11 0 19-9 19-20v-88c0-11-8-20-19-20h-9c-11 0-20 9-20 20zm80 0v88c0 11 9 20 20 20h9c11 0 19-9 19-20v-88c0-11-8-20-19-20h-9c-11 0-20 9-20 20z"/>
</svg>