<svg xmlns="http://www.w3.org/2000/svg" viewBox="0 0 512 512">
	<path d="M376 359c-11-9-19-23-24-44-7-19-10-41-10-68 0-25 5-47 10-66s12-33 24-44c11-10 24-15 39-15 5 0 11 1 16 2l6 3c1 0 2 0 3 1h1c1 1 2 1 3 1 7 4 14 8 21 19 5 8 10 20 13 35l-33 15c-4-11-7-18-12-25-3-4-9-6-18-6-22 0-33 27-33 80 0 27 3 48 8 63 5 16 14 24 26 24 5 0 10-2 14-5 3-3 5-6 9-11 3-5 3-12 6-19l36 16c-7 19-14 33-25 44s-24 16-40 16-28-4-40-16zm-232 15l-11-56H79l-10 56H31l53-248h45l52 248h-37zm56 0V126h59c19 0 33 5 43 15 13 11 17 26 17 45 0 15-3 27-8 36-7 11-11 18-22 21 13 2 22 8 28 19 5 11 8 24 8 41 0 16-3 30-6 38-7 13-15 19-23 24-10 6-20 9-31 9h-65zm39-148h19c7 0 13-2 17-7 3-6 5-14 5-25 0-9 0-14-1-17-3-5-6-9-9-10-4-3-6-3-13-3h-18v62zM88 278h38l-13-70c-1-7-2-17-5-28 0-3-1-4-1-5v-2c0 3-3 15-7 35zm151 57h24c7 0 13-3 18-10 3-5 5-14 5-27 0-12-3-22-6-27-5-6-11-9-20-9h-21v73z"/>
</svg>