<svg width="96" height="48" viewBox="0 0 96 48" fill="none" xmlns="http://www.w3.org/2000/svg">
<g clip-path="url(#clip0_1_3142)">
<path fill-rule="evenodd" clip-rule="evenodd" d="M0 48H48.5168L96 0H0V48Z" fill="#231F20"/>
<path fill-rule="evenodd" clip-rule="evenodd" d="M56.972 9.02502H47.5228V31.7356L39.2679 9.02502H31.0828L24.0338 28.018C23.2842 23.2297 18.3815 21.5756 14.5265 20.3356C11.9797 19.5097 9.27925 18.2933 9.30486 16.9497C9.32581 15.8485 10.7528 14.8321 13.5813 14.978C15.4832 15.0791 17.1617 15.2344 20.4976 16.8603L23.7824 11.0838C20.7351 9.51678 16.5262 8.52619 13.0738 8.52148H13.0482C9.0255 8.52148 5.67325 9.83914 3.5944 12.0109C2.15647 13.5029 1.3463 15.4999 1.33395 17.5827C1.28041 20.5121 2.34429 22.5921 4.57912 24.2509C6.46476 25.6485 8.87884 26.5544 11.0043 27.2203C13.6279 28.0415 15.7696 28.7568 15.744 30.2791C15.728 30.8373 15.5063 31.3693 15.1224 31.7709C14.4683 32.4533 13.4649 32.7121 12.0774 32.7356C9.4003 32.7921 7.42155 32.3685 4.25321 30.4791L1.33395 36.3403C4.59622 38.2111 8.28014 39.2013 12.0309 39.2156H12.5221C15.8394 39.1568 18.5142 38.2015 20.6536 36.4603C20.777 36.3638 20.8864 36.2627 21.0005 36.1591L20.06 38.7144H28.6455L30.0865 34.2862C31.7131 34.8319 33.4172 35.1045 35.1311 35.0933C36.8016 35.098 38.4624 34.8368 40.0524 34.3191L41.4492 38.7144H55.4472V29.538H58.5014C65.881 29.538 70.2459 25.738 70.2459 19.3732C70.2436 12.2791 66.0021 9.02502 56.972 9.02502ZM35.1311 28.458C34.0987 28.4643 33.0735 28.2826 32.1048 27.9215L35.0985 18.3709H35.1637L38.1063 27.9497C37.1501 28.2879 36.1441 28.4597 35.1311 28.458ZM57.526 22.9685H55.4448V15.2721H57.526C60.3033 15.2721 62.5171 16.2133 62.5171 19.0697C62.5171 22.0344 60.3033 22.9685 57.526 22.9685Z" fill="white"/>
</g>
<defs>
<clipPath id="clip0_1_3142">
<rect width="96" height="48" fill="white"/>
</clipPath>
</defs>
</svg>
