<svg xmlns="http://www.w3.org/2000/svg" viewBox="0 0 512 512">
	<path d="M422 0q11 0 18.5 7.5T448 26v460q0 11-7.5 18.5T422 512H90q-11 0-18.5-7.5T64 486V192q0-10 6-17L213 9q6-9 19-9h190zm-25 51h-54q10 2 16.5 10t6.5 19q0 12-10 20.5t-22 8.5v5q13-1 22.5 8t9.5 22q0 12-10 20.5t-22 8.5v5q13-1 22.5 8t9.5 22q0 12-10 20.5t-22 8.5v5q13-1 22.5 8t9.5 22q0 12-9 21t-21 9-20.5-10-8.5-23q-14 2-23.5-7t-9.5-22q0-12 10-21t23-9v-5q-14 2-23.5-7t-9.5-22q0-12 10-21t23-9v-5q-14 2-23.5-7t-9.5-22q0-12 10-21t23-9v-5q-13 1-22-6t-10-20h-31l-20 24v66q0 21-15 36t-36 15h-50l-8 9v260h282V51zm-71 301q11 0 18.5 7.5T352 378t-7.5 18-18.5 7h-44q-11 0-18.5-7t-7.5-18 7.5-18.5T282 352h44z"/>
</svg>