<svg xmlns="http://www.w3.org/2000/svg" viewBox="0 0 512 512">
	<path d="M198 256h-44q-11 0-18.5-7.5T128 230t7.5-18 18.5-7h44q11 0 18.5 7t7.5 18-7.5 18.5T198 256zm96 128h-44q-11 0-18.5-7.5T224 358t7.5-18 18.5-7h44q11 0 18.5 7t7.5 18-7.5 18.5T294 384zm64-256H250q-11 0-18.5-7.5T224 102t7.5-18 18.5-7h108q11 0 18.5 7t7.5 18-7.5 18.5T358 128zm96 256h-76q-11 0-18.5-7.5T352 358t7.5-18 18.5-7h76q11 0 18.5 7t7.5 18-7.5 18.5T454 384zm-294 0q-14 0-23-9t-9-23 9-23 23-9 23 9 9 23-9 23-23 9zm0-64q14 0 23 9t9 23-9 23-23 9-23-9-9-23 9-23 23-9zm128-64q-14 0-23-9t-9-23 9-23 23-9 23 9 9 23-9 23-23 9zm0-64q14 0 23 9t9 23-9 23-23 9-23-9-9-23 9-23 23-9zm-128-65q-14 0-23-9t-9-23 9-23 23-9 23 9 9 23-9 23-23 9zm0-64q14 0 23 9t9 23-9 23-23 9-23-9-9-23 9-23 23-9zm288 65q-14 0-23-9t-9-23 9-23 23-9 23 9 9 23-9 23-23 9zm0-64q14 0 23 9t9 23-9 23-23 9-23-9-9-23 9-23 23-9zm6 192h-76q-11 0-18.5-7.5T352 230t7.5-18 18.5-7h76q11 0 18.5 7t7.5 18-7.5 18.5T454 256zm0 224H58q-11 0-18.5-7.5T32 454V58q0-11 7.5-18.5T58 32t18 7.5T83 58v371h371q11 0 18.5 7t7.5 18-7.5 18.5T454 480z"/>
</svg>