<svg xmlns="http://www.w3.org/2000/svg" viewBox="0 0 512 512">
	<path d="M182 403h-76q-11 0-18.5-7.5T80 377t7.5-18 18.5-7h76v-35q-44-9-73-43.5T80 192q0-27 10-50t27.5-40.5T158 74t50-10q26 0 48 9t39 26l48-48h-45q-11 0-18.5-7.5T272 25t7.5-18T298 0h108q11 0 18.5 7t7.5 18v109q0 11-7.5 18.5T406 160t-18-7.5-7-18.5V86l-56 55q11 25 11 51 0 47-29 81.5T234 317v35h76q11 0 18.5 7t7.5 18-7.5 18.5T310 403h-76v83q0 11-7.5 18.5T208 512t-18.5-7.5T182 486v-83zm26-134q32 0 54.5-22.5T285 192t-22.5-54.5T208 115t-54.5 22.5T131 192t22.5 54.5T208 269z"/>
</svg>