<svg xmlns="http://www.w3.org/2000/svg" viewBox="0 0 512 512">
	<path d="M69.864 428.164q10.978 0 18.463 6.986t7.486 17.965-7.486 18.464-18.463 7.485H57.887q-23.953 0-40.92-16.967T0 421.177V57.887q0-23.953 16.967-40.92T57.887 0h363.29q23.954 0 40.92 16.967t16.967 40.92v44.912q0 10.979-7.485 18.464t-18.464 7.486-17.965-7.486-6.986-18.464V57.887q0-6.986-6.987-6.986H57.887q-6.986 0-6.986 6.986v37.926h115.773q10.979 0 18.464 7.485t7.486 18.464-7.486 17.965-18.464 6.986H50.901v274.464q0 6.987 6.986 6.987h11.977zm250.51-300.414q38.924 0 73.856 14.971t61.38 40.92 41.42 60.881T512 319.376t-14.97 74.854-41.42 60.881-61.38 40.92-73.856 14.97q-39.922 0-74.854-14.97t-60.88-40.92-40.92-60.881-14.971-74.854 14.97-74.854 40.92-60.88 60.881-40.92 74.854-14.972zm2.994 332.351l5.989-9.98q6.986-10.979 10.978-21.458t6.987-26.449h-51.899q4.99 14.971 10.979 29.443t13.972 28.444h2.994zm32.936-108.787l1.996-31.938-1.996-31.937h-72.858l-1.996 31.937 1.996 31.938h72.858zm-172.663-63.875q-3.992 12.974-3.992 31.937t3.992 31.938h48.905l-1.996-31.938 1.996-31.937H183.64zM320.374 178.65q-7.984 13.973-13.972 28.445t-10.979 29.442h51.899q-9.98-31.938-23.954-57.887h-2.994zm88.827 140.725l-.998 31.938h48.904q2.994-14.97 2.994-31.938t-2.994-31.937h-48.904zm23.953-82.838q-17.965-25.95-46.908-40.92 4.99 9.98 7.984 19.96t4.99 20.96h33.934zm-176.655-42.916q-29.941 14.97-49.903 42.916h34.932q5.989-20.96 14.971-42.916zm-49.903 208.592q19.962 27.946 49.903 42.917-8.982-21.958-14.97-42.917h-34.933zm179.65 40.92q28.943-14.97 46.908-40.92H399.22q-1.996 10.979-4.99 20.96t-7.984 19.96z"/>
</svg>