<svg xmlns="http://www.w3.org/2000/svg" viewBox="0 0 512 512">
	<path d="M256 0q53 0 100 20t81.5 54.5T492 156t20 100-20 100-54.5 81.5T356 492t-100 20-100-20-81.5-54.5T20 356 0 256t20-100 54.5-81.5T156 20 256 0zm0 461q43 0 80.5-16t65-44 43.5-65 16-80-16-80.5-43.5-65-65-43.5T256 51t-80 16-65 43.5-44 65T51 256t16 80 44 65 65 44 80 16zm0-333q13 0 22.5 9.5T288 160t-9.5 22.5T256 192t-22.5-9.5T224 160t9.5-22.5T256 128zm0 115q11 0 18 7.5t7 18.5v102q0 11-7 18.5t-18 7.5-18.5-7.5T230 371V269q0-11 7.5-18.5T256 243z"/>
</svg>