<svg xmlns="http://www.w3.org/2000/svg" viewBox="0 0 512 512">
	<path d="M160 192q0-14 9-23t23-9 23 9 9 23-9 23-23 9-23-9-9-23zm128 0q0-14 9-23t23-9 23 9 9 23-9 23-23 9-23-9-9-23zm96 32q14 0 23 9t9 23-9 23-23 9-23-9-9-23 9-23 23-9zm-128 64q-14 0-23-9t-9-23 9-23 23-9 23 9 9 23-9 23-23 9zm-128 0q-14 0-23-9t-9-23 9-23 23-9 23 9 9 23-9 23-23 9zm64 0q14 0 23 9t9 23-9 23-23 9-23-9-9-23 9-23 23-9zm128 0q14 0 23 9t9 23-9 23-23 9-23-9-9-23 9-23 23-9zm64 64q14 0 23 9t9 23-9 23-23 9-23-9-9-23 9-23 23-9zm-128 0q14 0 23 9t9 23-9 23-23 9-23-9-9-23 9-23 23-9zm-128 0q14 0 23 9t9 23-9 23-23 9-23-9-9-23 9-23 23-9zM390 32q38 0 64 26t26 64v268q0 38-26 64t-64 26H122q-38 0-64-26t-26-64V122q0-38 26-64t64-26h268zm0 397q17 0 28-11t11-28v-43q-13-10-13-27t13-27v-74q-13-10-13-27t13-27v-5H83v5q13 10 13 27t-13 27v74q13 10 13 27t-13 27v43q0 17 11 28t28 11h43q10-13 27-13t27 13h74q10-13 27-13t27 13h43z"/>
</svg>