<svg xmlns="http://www.w3.org/2000/svg" viewBox="0 0 512 512">
	<path d="M176 0q20 0 34 14t14 34-14 34-34 14-34-14-14-34 14-34 34-14zm160 96q-20 0-34-14t-14-34 14-34 34-14 34 14 14 34-14 34-34 14zm-160 42q20 0 34 14t14 34-14 34-34 14-34-14-14-34 14-34 34-14zm160 0q20 0 34 14t14 34-14 34-34 14-34-14-14-34 14-34 34-14zM176 278q20 0 34 14t14 34q0 19-14.5 33.5T176 374t-33.5-14.5T128 326q0-20 14-34t34-14zm160 0q20 0 34 14t14 34q0 19-14.5 33.5T336 374t-33.5-14.5T288 326q0-20 14-34t34-14zM176 416q20 0 34 14t14 34-14 34-34 14-34-14-14-34 14-34 34-14zm160 0q20 0 34 14t14 34-14 34-34 14-34-14-14-34 14-34 34-14z"/>
</svg>