<svg xmlns="http://www.w3.org/2000/svg" viewBox="0 0 512 512">
	<path d="M198 128q11 0 18.5 7.5T224 154t-7.5 18-18.5 7H58q-11 0-18.5-7T32 154t7.5-18.5T58 128h140zm116 51q-11 0-18.5-7t-7.5-18 7.5-18.5T314 128h140q11 0 18.5 7.5T480 154t-7.5 18-18.5 7H314zm-116 58q11 0 18.5 7t7.5 18-7.5 18.5T198 288H58q-11 0-18.5-7.5T32 262t7.5-18 18.5-7h140zm256 0q11 0 18.5 7t7.5 18-7.5 18.5T454 288H314q-11 0-18.5-7.5T288 262t7.5-18 18.5-7h140zm-256 96q11 0 18.5 7t7.5 18-7.5 18.5T198 384H58q-11 0-18.5-7.5T32 358t7.5-18 18.5-7h140zm256 0q11 0 18.5 7t7.5 18-7.5 18.5T454 384H314q-11 0-18.5-7.5T288 358t7.5-18 18.5-7h140z"/>
</svg>