<svg xmlns="http://www.w3.org/2000/svg" viewBox="0 0 512 512">
	<path d="M80 128q-20 0-34-14T32 80t14-34 34-14 34 14 14 34-14 34-34 14zm176 0q-20 0-34-14t-14-34 14-34 34-14 34 14 14 34-14 34-34 14zm176 0q-20 0-34-14t-14-34 14-34 34-14 34 14 14 34-14 34-34 14zM80 208q20 0 34 14t14 34-14 34-34 14-34-14-14-34 14-34 34-14zm176 0q20 0 34 14t14 34-14 34-34 14-34-14-14-34 14-34 34-14zm176 0q20 0 34 14t14 34-14 34-34 14-34-14-14-34 14-34 34-14zM80 384q20 0 34 14t14 34-14 34-34 14-34-14-14-34 14-34 34-14zm176 0q20 0 34 14t14 34-14 34-34 14-34-14-14-34 14-34 34-14zm176 0q20 0 34 14t14 34-14 34-34 14-34-14-14-34 14-34 34-14z"/>
</svg>