<svg xmlns="http://www.w3.org/2000/svg" viewBox="0 0 512 512">
	<path d="M294 89q-10 0-17-7l-21-21-21 21q-7 7-17 7-11 0-18.5-7.5T192 63q0-10 8-18l38-38q7-7 18-7t18 7l38 38q8 8 8 18 0 11-7.5 18.5T294 89zm-172 96q-11 0-18.5-7.5T96 159t7-18l38-38q7-7 19-7 10 0 17.5 7.5T185 121q0 12-7 18l-38 38q-8 8-18 8zm269 0q-11 0-19-8l-38-38q-7-6-7-18 0-10 7.5-17.5T353 96t18 7l38 38q7 7 7 18t-7.5 18.5T391 185zM64 320q-11 0-19-8L7 274q-7-7-7-18t7-18l38-38q7-8 19-8 10 0 17.5 7.5T89 217q0 11-7 18l-21 21 21 21q7 7 7 17 0 11-7.5 18.5T64 320zm384 0q-10 0-17.5-7.5T423 294q0-10 7-17l21-21-21-21q-7-7-7-18 0-10 7.5-17.5T448 192q12 0 19 8l38 38q7 7 7 18t-7 18l-38 38q-8 8-19 8zm-288 96q-11 0-19-8l-38-38q-7-6-7-18 0-10 7.5-17.5T122 327t18 7l38 38q7 7 7 18t-7.5 18.5T160 416zm193 0q-11 0-18.5-7.5T327 390t7-18l38-38q7-7 19-7 10 0 17.5 7.5T416 352q0 12-7 18l-38 38q-8 8-18 8zm-97 96q-11 0-18-7l-38-38q-8-8-8-19 0-10 7.5-17.5T218 423q10 0 17 7l21 21 21-21q7-7 17-7 11 0 18.5 7.5T320 448q0 11-8 19l-38 38q-7 7-18 7z"/>
</svg>