<svg width="50" height="50" viewBox="0 0 50 50" fill="none" xmlns="http://www.w3.org/2000/svg">
<g clip-path="url(#clip0_494_9999)">
<path d="M49.5 25C49.5 38.531 38.531 49.5 25 49.5C11.469 49.5 0.5 38.531 0.5 25C0.5 11.469 11.469 0.5 25 0.5C38.531 0.5 49.5 11.469 49.5 25Z" stroke="black"/>
<mask id="mask0_494_9999" style="mask-type:alpha" maskUnits="userSpaceOnUse" x="0" y="0" width="50" height="50">
<circle cx="25" cy="25" r="25" fill="#C4C4C4"/>
</mask>
<g mask="url(#mask0_494_9999)">
<path d="M3.96875 0V30.6818H15.1591L25 13.6364H50V0H3.96875Z" fill="#DB4437"/>
<path d="M3.96875 0V30.6818H15.1591L25 13.6364H50V0H3.96875Z" fill="url(#paint0_linear_494_9999)"/>
<path d="M15.4293 30.582L4.11399 11.1758L3.94922 11.4599L15.1822 30.7212L15.4293 30.582Z" fill="#3E2723" fill-opacity="0.15"/>
<path d="M0 50.0018H23.7983L34.8438 38.9563V30.6836H15.1591L0 4.68359V50.0018Z" fill="#0F9D58"/>
<path d="M0 50.0018H23.7983L34.8438 38.9563V30.6836H15.1591L0 4.68359V50.0018Z" fill="url(#paint1_linear_494_9999)"/>
<path d="M34.6137 31.0582L34.3779 30.9219L23.4717 49.9986H23.7984L34.6222 31.0668L34.6137 31.0582Z" fill="#263238" fill-opacity="0.15"/>
<path d="M25 13.6367L34.8438 30.6822L23.7983 50.0004H50V13.6367H25Z" fill="#FFCD40"/>
<path d="M25 13.6367L34.8438 30.6822L23.7983 50.0004H50V13.6367H25Z" fill="url(#paint2_linear_494_9999)"/>
<path d="M25 13.6367L34.8438 30.6822L23.7983 50.0004H50V13.6367H25Z" fill="#FFCD40"/>
<path d="M25 13.6367L34.8438 30.6822L23.7983 50.0004H50V13.6367H25Z" fill="url(#paint3_linear_494_9999)"/>
<path d="M3.96875 0V30.6818H15.1591L25 13.6364H50V0H3.96875Z" fill="#DB4437"/>
<path d="M3.96875 0V30.6818H15.1591L25 13.6364H50V0H3.96875Z" fill="url(#paint4_linear_494_9999)"/>
<path d="M25 13.6367V19.5884L47.2727 13.6367H25Z" fill="url(#paint5_radial_494_9999)"/>
<path d="M0 50.0018H23.7983L34.8438 38.9563V30.6836H15.1591L0 4.68359V50.0018Z" fill="#0F9D58"/>
<path d="M0 50.0018H23.7983L34.8438 38.9563V30.6836H15.1591L0 4.68359V50.0018Z" fill="url(#paint6_linear_494_9999)"/>
<path d="M3.96875 11.4922L20.233 27.7536L15.1591 30.6825L3.96875 11.4922Z" fill="url(#paint7_radial_494_9999)"/>
<path d="M23.8154 49.9698L29.77 27.7539L34.8438 30.6829L23.8154 49.9698Z" fill="url(#paint8_radial_494_9999)"/>
<path d="M24.9999 36.364C31.2758 36.364 36.3635 31.2763 36.3635 25.0004C36.3635 18.7244 31.2758 13.6367 24.9999 13.6367C18.7239 13.6367 13.6362 18.7244 13.6362 25.0004C13.6362 31.2763 18.7239 36.364 24.9999 36.364Z" fill="#F1F1F1"/>
<path d="M25.0001 34.092C30.0209 34.092 34.091 30.0218 34.091 25.0011C34.091 19.9803 30.0209 15.9102 25.0001 15.9102C19.9793 15.9102 15.9092 19.9803 15.9092 25.0011C15.9092 30.0218 19.9793 34.092 25.0001 34.092Z" fill="#4285F4"/>
<path d="M25.0004 13.3555C18.7248 13.3555 13.6367 18.4435 13.6367 24.7191V25.0032C13.6367 18.7276 18.7248 13.6396 25.0004 13.6396H50.0004V13.3555H25.0004Z" fill="#3E2723" fill-opacity="0.2"/>
<path d="M34.8295 30.6836C32.8636 34.0756 29.2017 36.3654 25 36.3654C20.7955 36.3654 17.1335 34.0756 15.1676 30.6836H15.1562L0 4.68359V4.96768L15.1591 30.9677H15.1705C17.1364 34.3597 20.7983 36.6495 25.0028 36.6495C29.2045 36.6495 32.8665 34.3626 34.8324 30.9677H34.8466V30.6836H34.8295Z" fill="white" fill-opacity="0.1"/>
<path opacity="0.1" d="M25.2836 13.6367C25.2354 13.6367 25.1899 13.6424 25.1416 13.6452C31.3518 13.7219 36.3632 18.7731 36.3632 25.0004C36.3632 31.2276 31.3518 36.2788 25.1416 36.3555C25.1899 36.3555 25.2354 36.364 25.2836 36.364C31.5592 36.364 36.6473 31.2759 36.6473 25.0004C36.6473 18.7248 31.5592 13.6367 25.2836 13.6367Z" fill="#3E2723"/>
<path d="M34.9437 31.0621C35.9096 29.3917 36.4693 27.4599 36.4693 25.3917C36.4693 24.1928 36.2818 23.0394 35.938 21.957C36.2079 22.9286 36.3642 23.9485 36.3642 25.0053C36.3642 27.0735 35.8045 29.0053 34.8386 30.6758L34.8443 30.6871L23.7988 50.0053H24.1284L34.9494 31.0735L34.9437 31.0621Z" fill="white" fill-opacity="0.2"/>
<path d="M25 0.284091C38.7585 0.284091 49.9205 11.4006 49.9972 25.142C49.9972 25.0937 50 25.0483 50 25C50 11.1932 38.8068 0 25 0C11.1932 0 0 11.1932 0 25C0 25.0483 0.00284097 25.0937 0.00284097 25.142C0.0795455 11.4006 11.2415 0.284091 25 0.284091Z" fill="white" fill-opacity="0.2"/>
<path d="M25 49.7173C38.7585 49.7173 49.9205 38.6009 49.9972 24.8594C49.9972 24.9077 50 24.9531 50 25.0014C50 38.8082 38.8068 50.0014 25 50.0014C11.1932 50.0014 0 38.8082 0 25.0014C0 24.9531 0.00284097 24.9077 0.00284097 24.8594C0.0795455 38.6009 11.2415 49.7173 25 49.7173Z" fill="#3E2723" fill-opacity="0.15"/>
</g>
</g>
<defs>
<linearGradient id="paint0_linear_494_9999" x1="6.06165" y1="19.0401" x2="20.9764" y2="10.3278" gradientUnits="userSpaceOnUse">
<stop stop-color="#A52714" stop-opacity="0.6"/>
<stop offset="0.66" stop-color="#A52714" stop-opacity="0"/>
</linearGradient>
<linearGradient id="paint1_linear_494_9999" x1="29.2244" y1="44.462" x2="12.6528" y2="34.7546" gradientUnits="userSpaceOnUse">
<stop stop-color="#055524" stop-opacity="0.4"/>
<stop offset="0.33" stop-color="#055524" stop-opacity="0"/>
</linearGradient>
<linearGradient id="paint2_linear_494_9999" x1="32.3466" y1="11.8765" x2="36.5199" y2="30.1509" gradientUnits="userSpaceOnUse">
<stop stop-color="#EA6100" stop-opacity="0.3"/>
<stop offset="0.66" stop-color="#EA6100" stop-opacity="0"/>
</linearGradient>
<linearGradient id="paint3_linear_494_9999" x1="32.3466" y1="11.8765" x2="36.5199" y2="30.1509" gradientUnits="userSpaceOnUse">
<stop stop-color="#EA6100" stop-opacity="0.3"/>
<stop offset="0.66" stop-color="#EA6100" stop-opacity="0"/>
</linearGradient>
<linearGradient id="paint4_linear_494_9999" x1="6.06165" y1="19.0401" x2="20.9764" y2="10.3278" gradientUnits="userSpaceOnUse">
<stop stop-color="#A52714" stop-opacity="0.6"/>
<stop offset="0.66" stop-color="#A52714" stop-opacity="0"/>
</linearGradient>
<radialGradient id="paint5_radial_494_9999" cx="0" cy="0" r="1" gradientUnits="userSpaceOnUse" gradientTransform="translate(23.9148 13.6219) scale(23.8858 23.8858)">
<stop stop-color="#3E2723" stop-opacity="0.2"/>
<stop offset="1" stop-color="#3E2723" stop-opacity="0"/>
</radialGradient>
<linearGradient id="paint6_linear_494_9999" x1="29.2244" y1="44.462" x2="12.6528" y2="34.7546" gradientUnits="userSpaceOnUse">
<stop stop-color="#055524" stop-opacity="0.4"/>
<stop offset="0.33" stop-color="#055524" stop-opacity="0"/>
</linearGradient>
<radialGradient id="paint7_radial_494_9999" cx="0" cy="0" r="1" gradientUnits="userSpaceOnUse" gradientTransform="translate(3.94318 11.5121) scale(22.1716 22.1716)">
<stop stop-color="#3E2723" stop-opacity="0.2"/>
<stop offset="1" stop-color="#3E2723" stop-opacity="0"/>
</radialGradient>
<radialGradient id="paint8_radial_494_9999" cx="0" cy="0" r="1" gradientUnits="userSpaceOnUse" gradientTransform="translate(24.9546 25.0403) scale(24.9631 24.9631)">
<stop stop-color="#263238" stop-opacity="0.2"/>
<stop offset="1" stop-color="#263238" stop-opacity="0"/>
</radialGradient>
<clipPath id="clip0_494_9999">
<rect width="50" height="50" fill="white"/>
</clipPath>
</defs>
</svg>
