<svg width="47" height="49" viewBox="0 0 47 49" fill="none" xmlns="http://www.w3.org/2000/svg">
<path d="M37.6114 4.48633C36.4421 5.85321 35.8976 8.92947 37.0832 12.048C38.2689 15.1665 40.0862 14.4892 41.219 17.6693C42.7142 21.8654 42.0182 27.5022 42.0182 27.5022C42.0182 27.5022 43.8158 32.7282 45.0684 27.1771C47.8411 16.7503 37.6114 7.05396 37.6114 4.48633Z" fill="url(#paint0_radial_494_10040)"/>
<path d="M23.3429 47.7764C35.3173 47.7764 45.0177 37.9849 45.0177 25.9116C45.0177 13.8382 35.3173 4.04688 23.3545 4.04688C11.3917 4.04688 1.69145 13.8383 1.69145 25.9116C1.66825 37.9966 11.3801 47.7764 23.3429 47.7764Z" fill="url(#paint1_radial_494_10040)"/>
<path d="M39.5834 39.3935C39.1149 39.7253 38.6234 40.0232 38.1126 40.2848C38.7892 39.2895 39.4134 38.2593 39.9827 37.1984C40.4446 36.6852 40.8678 36.1862 41.2126 35.6468C41.3804 35.3817 41.5697 35.0546 41.77 34.6752C42.9869 32.4742 44.3286 28.9122 44.3667 25.2534V25.2446C44.3675 25.1545 44.3681 25.0644 44.3673 24.9742C44.3736 24.0558 44.2801 23.1394 44.0884 22.2414C44.0982 22.3116 44.1068 22.3817 44.1156 22.4518C44.1048 22.3978 44.0957 22.3433 44.0841 22.2893C44.102 22.389 44.1164 22.4854 44.1318 22.5826C44.3805 24.7011 44.2034 26.7676 43.3172 28.2911C43.3033 28.3133 43.2889 28.3342 43.2748 28.3559C43.7343 26.0405 43.888 23.4839 43.3768 20.9244C43.3768 20.9244 43.1723 19.6801 41.6494 15.9026C40.7729 13.7284 39.2162 11.9458 37.8408 10.6472C36.6353 9.14983 35.5403 8.14495 34.9368 7.50694C33.676 6.17411 33.1476 5.17507 32.9306 4.52319C32.7424 4.42848 30.3361 2.0816 30.1449 1.99219C29.0946 3.62713 25.7913 8.74114 27.3626 13.5193C28.0748 15.6846 29.8757 17.932 31.7605 19.1927C31.8432 19.2876 32.882 20.4203 33.376 22.975C33.886 25.6144 33.6179 27.674 32.5681 30.7195C31.3334 33.3914 28.1703 36.0328 25.2085 36.303C18.8767 36.8805 16.5586 33.1114 16.5586 33.1114C18.8211 34.0195 21.3227 33.8295 22.844 32.888C24.3772 31.9358 25.3046 31.2298 26.0574 31.5082C26.7996 31.7853 27.3904 30.9809 26.8602 30.147C26.4508 29.5139 25.8649 29.0157 25.1756 28.7143C24.4862 28.413 23.7238 28.3218 22.9833 28.4522C21.4484 28.7027 20.0425 29.9233 18.0315 28.7411C17.9013 28.6653 17.7754 28.5825 17.6541 28.493C17.5215 28.4055 18.0851 28.6262 17.9536 28.5267C17.5622 28.3133 16.8696 27.8482 16.6899 27.6827C16.66 27.6552 16.9936 27.7895 16.9636 27.7619C15.0833 26.2074 15.3181 25.1573 15.3772 24.4986C15.4245 23.9717 15.7661 23.2965 16.3416 23.0226C16.6196 23.1749 16.7928 23.2912 16.7928 23.2912C16.7928 23.2912 16.6742 23.048 16.6101 22.9198C16.6326 22.91 16.6541 22.9126 16.6764 22.903C16.9042 23.0134 17.4077 23.3001 17.6729 23.475C18.0182 23.7195 18.1282 23.9375 18.1282 23.9375C18.1282 23.9375 18.2191 23.8873 18.1519 23.674C18.1275 23.5866 18.0227 23.3087 17.6806 23.0282L17.702 23.0306C17.9067 23.1477 18.1006 23.2829 18.2814 23.4346C18.3779 23.0826 18.5513 22.715 18.5132 22.0575C18.4899 21.5952 18.5006 21.4755 18.4195 21.297C18.3468 21.1436 18.4602 21.0838 18.5864 21.243C18.5648 21.1183 18.5286 20.9965 18.4786 20.8803L18.4796 20.8683C18.6371 20.3175 21.8121 18.8849 22.0432 18.7174C22.4229 18.4477 22.7413 18.1002 22.9773 17.6978C23.154 17.4153 23.2868 17.019 23.3191 16.4178C23.3365 15.9842 23.1356 15.6955 19.9252 15.358C19.0473 15.2712 18.5321 14.6325 18.2394 14.0431C18.186 13.9162 18.1315 13.8011 18.0771 13.6862C18.025 13.5518 17.9833 13.4136 17.9521 13.2729C18.477 11.7595 19.3589 10.4798 20.6556 9.51298C20.7263 9.44837 20.3733 9.52955 20.4439 9.46494C20.5263 9.38954 21.0643 9.17194 21.1659 9.12292C21.29 9.06409 20.6346 8.78467 20.056 8.85271C19.4667 8.91938 19.3415 8.98997 19.027 9.12385C19.1575 8.9934 19.5726 8.82242 19.4752 8.82355C18.8399 8.92134 18.0505 9.29209 17.3756 9.712C17.3743 9.63888 17.3882 9.56629 17.4164 9.49886C17.1019 9.63278 16.3295 10.1748 16.1046 10.6333C16.1143 10.5454 16.1187 10.457 16.1176 10.3686C15.878 10.5692 15.6619 10.7964 15.4733 11.046L15.4616 11.0567C13.6375 10.3189 12.0322 10.2712 10.6738 10.602C10.3767 10.3024 10.2315 10.5214 9.55532 9.02992C9.50937 8.94012 9.59058 9.1186 9.55532 9.02992C9.44409 8.7407 9.62314 9.41582 9.55532 9.02992C8.41841 9.93054 6.92251 10.9512 6.20444 11.6717C6.19556 11.7004 7.04214 11.4315 6.20444 11.6717C5.91108 11.7558 5.93101 11.9305 5.88643 13.5099C5.87568 13.6297 5.88521 13.7638 5.87554 13.8716C5.3019 14.6054 4.91123 15.2267 4.76348 15.5487C4.02163 16.832 3.20459 18.8327 2.4126 21.9974C2.76193 21.1396 3.1831 20.3131 3.67158 19.5267C3.01299 21.2065 2.37632 23.8444 2.24902 27.9066C2.40834 27.0683 2.61263 26.2393 2.86099 25.4232C2.7055 28.7934 3.2844 32.157 4.55728 35.2794C5.01279 36.3981 5.76626 38.0959 7.04893 39.956C11.0789 44.2129 16.763 46.863 23.0573 46.863C29.6282 46.8631 35.5288 43.9768 39.5834 39.3935Z" fill="url(#paint2_linear_494_10040)"/>
<path d="M34.7215 42.4894C42.6741 41.5648 46.1946 33.3369 41.6737 33.1751C37.59 33.0441 30.9546 42.9257 34.7215 42.4894Z" fill="url(#paint3_radial_494_10040)"/>
<path d="M42.2465 31.4913C47.718 28.2943 46.2914 21.3887 46.2914 21.3887C46.2914 21.3887 44.1798 23.8515 42.7453 27.7773C41.3282 31.6648 38.957 33.4222 42.2465 31.4913Z" fill="url(#paint4_radial_494_10040)"/>
<path d="M24.8764 46.573C32.5047 49.0168 39.061 42.9837 35.0196 40.9689C31.3452 39.1519 21.2558 45.4175 24.8764 46.573Z" fill="url(#paint5_radial_494_10040)"/>
<path d="M42.8149 34.4237C43.0005 34.1608 43.2515 33.3191 43.4731 32.9428C44.8199 30.7602 44.8294 29.0199 44.8294 28.9801C45.6429 24.9006 45.5691 23.2348 45.0687 20.1541C44.6658 17.6736 42.9045 14.12 41.3788 12.4087C39.8065 10.6457 40.9142 11.2201 39.3918 9.93226C38.0575 8.44725 36.7638 6.97671 36.0592 6.38532C30.9676 2.11178 31.0826 1.20405 31.1807 1.04929C31.1641 1.06747 31.1398 1.09448 31.1088 1.12983C31.0485 0.888496 31.0059 0.685547 31.0059 0.685547C31.0059 0.685547 28.2227 3.47977 27.6368 8.1368C27.2542 11.1772 28.3879 14.3466 30.0293 16.3724C30.8841 17.4222 31.85 18.3756 32.9102 19.2156V19.2144C34.1504 21.0025 34.833 23.2091 34.833 25.5827C34.833 31.5262 30.0312 36.3444 24.1078 36.3444C23.3006 36.3448 22.4958 36.2541 21.7087 36.0739C18.914 35.5391 17.3001 34.1237 16.4952 33.1629C16.034 32.6122 15.8378 32.2107 15.8378 32.2107C18.3419 33.1113 21.1106 32.9229 22.7943 31.9892C24.491 31.0449 25.5176 30.3448 26.3508 30.6208C27.1721 30.8956 27.8259 30.0979 27.2394 29.271C26.6647 28.4452 25.1691 27.2626 22.9485 27.5902C21.2498 27.8386 19.6938 29.0491 17.468 27.8767C17.3247 27.802 17.1853 27.7198 17.0504 27.6307C16.9036 27.5438 17.5273 27.7628 17.3818 27.6641C16.9487 27.4524 16.1819 26.9911 15.9832 26.8271C15.95 26.7998 16.3193 26.933 16.2859 26.9055C14.2048 25.3639 14.4646 24.3224 14.5301 23.6692C14.5825 23.1467 14.9605 22.477 15.5974 22.2055C15.905 22.3565 16.0967 22.4718 16.0967 22.4718C16.0967 22.4718 15.9655 22.2306 15.8945 22.1035C15.9194 22.094 15.9431 22.0964 15.9678 22.0869C16.2198 22.1963 16.7772 22.4805 17.0706 22.6541C17.4528 22.8966 17.5746 23.1128 17.5746 23.1128C17.5746 23.1128 17.6753 23.063 17.6008 22.8515C17.5736 22.7648 17.4578 22.4892 17.0792 22.211L17.1029 22.2134C17.3276 22.3285 17.5422 22.4625 17.7442 22.6141C17.8509 22.265 18.0429 21.9005 18.0007 21.2484C17.9749 20.79 17.9868 20.6712 17.897 20.4942C17.8166 20.3422 17.9421 20.2828 18.0817 20.4408C18.0575 20.3162 18.0174 20.1952 17.9623 20.0809L17.9635 20.069C18.1379 19.5228 21.6518 18.102 21.9075 17.9359C22.3197 17.6762 22.6721 17.3315 22.9415 16.9246C23.1368 16.6445 23.284 16.2514 23.3198 15.6552C23.3318 15.3866 23.2494 15.174 22.3188 14.9706C21.7603 14.8486 20.8962 14.7298 19.5633 14.6042C18.5916 14.5182 18.0215 13.8848 17.6975 13.3003C17.6383 13.1743 17.5781 13.0601 17.5178 12.9462C17.4605 12.8137 17.4142 12.6766 17.3796 12.5364C17.961 11.0082 19.0081 9.70332 20.3717 8.80771C20.4498 8.74359 20.0592 8.82413 20.1373 8.76006C20.2285 8.6853 20.824 8.46951 20.9365 8.42088C21.0739 8.36274 20.3484 8.08557 19.708 8.15293C19.0558 8.21906 18.9173 8.28901 18.5692 8.42186C18.7137 8.29249 19.173 8.12283 19.0654 8.12406C18.3622 8.22102 17.4882 8.58873 16.7411 9.00512C16.7398 8.93211 16.7552 8.85977 16.7863 8.79374C16.4382 8.92654 15.5833 9.46406 15.3344 9.91878C15.3451 9.83172 15.3499 9.74403 15.3487 9.65632C15.0866 9.85245 14.8475 10.0777 14.6359 10.3279L14.6228 10.3386C12.6039 9.60695 10.8273 9.5596 9.32389 9.8876C8.99498 9.59048 8.46617 9.1412 7.71783 7.66203C7.667 7.57296 7.63971 7.8461 7.60064 7.75816C7.30987 7.08103 7.13419 5.97162 7.16305 5.20679C7.16305 5.20679 6.56158 5.482 6.06378 6.63135C5.97134 6.83798 5.91207 6.95195 5.85284 7.06593C5.82559 7.09916 5.91461 6.68846 5.9004 6.71082C5.81387 6.85788 5.59004 7.06338 5.49166 7.32937C5.42408 7.52649 5.3293 7.63688 5.26881 7.88272L5.2546 7.90527C5.24971 7.83282 5.27252 7.60717 5.25591 7.65345C5.02258 8.12673 4.82179 8.61549 4.65494 9.1163C4.38692 10.0009 4.07491 11.2051 4.02544 12.7716C4.01353 12.8904 4.02413 13.0234 4.01338 13.1303C3.37862 13.8579 2.9461 14.4741 2.78257 14.7935C1.96192 16.0666 1.05762 18.0507 0.181006 21.1892C0.571021 20.3319 1.0374 19.5117 1.57446 18.7387C0.845509 20.4046 0.140869 23.0206 0 27.0493C0.176945 26.2156 0.403126 25.3932 0.677345 24.5864C0.551466 27.2728 0.863136 30.6033 2.55474 34.361C3.55913 36.5712 5.8712 41.0597 11.5206 44.5623L11.5201 44.5627C11.5201 44.5627 13.442 45.999 16.7455 47.0754C16.9897 47.1644 17.237 47.2519 17.4894 47.3369C17.4102 47.3048 17.3336 47.271 17.2592 47.2363C19.458 47.8977 21.741 48.2346 24.0365 48.2363C32.5902 48.2436 35.113 44.795 35.113 44.795C35.113 44.795 35.1041 44.8017 35.0879 44.8135C35.2086 44.6994 35.3249 44.5808 35.4367 44.4577C34.0871 45.7372 31.0073 45.8221 29.8556 45.7298C31.8197 45.1507 33.112 44.6608 35.6259 43.6945C35.9201 43.585 36.2209 43.4602 36.5284 43.32C36.5616 43.3053 36.5952 43.2893 36.6286 43.2741C36.6895 43.2455 36.7499 43.2186 36.8115 43.1886C38.0363 42.6091 39.188 41.8853 40.2423 41.0323C42.7667 39.0077 43.316 37.0342 43.6031 35.7331C43.563 35.8578 43.4383 36.1485 43.3506 36.3368C42.7005 37.733 41.2588 38.5898 39.693 39.3246C40.4381 38.3431 41.129 37.3214 41.7627 36.264C42.2738 35.755 42.4333 34.9588 42.8149 34.4237Z" fill="url(#paint6_radial_494_10040)"/>
<path d="M39.7427 39.2649C40.772 38.1256 41.6963 36.8225 42.3964 35.3448C44.1982 31.5416 46.984 25.218 44.7899 18.6136C43.0559 13.3937 40.6751 10.5395 37.6521 7.75129C32.7428 3.22342 31.3716 1.20204 31.3716 0C31.3716 0 25.7032 6.34375 28.1616 12.9602C30.6199 19.5767 35.6547 19.3341 38.9857 26.2387C42.9054 34.3637 35.8144 43.23 29.9504 45.7117C30.3094 45.6316 42.986 42.7516 43.6523 35.4721C43.6372 35.606 43.3515 37.6193 39.7427 39.2649Z" fill="url(#paint7_radial_494_10040)"/>
<path d="M23.3197 15.6569C23.3389 15.227 23.1167 14.9383 19.5754 14.6048C18.1184 14.4697 17.5605 13.1178 17.3904 12.5488C16.8724 13.9001 16.6585 15.318 16.7734 17.033C16.8521 18.1566 17.604 19.3625 17.9634 20.0706C17.9634 20.0706 18.0433 19.9663 18.0801 19.9278C18.757 19.2204 21.5927 18.1426 21.8591 17.9895C22.1527 17.8033 23.2704 16.9835 23.3197 15.6569Z" fill="url(#paint8_linear_494_10040)"/>
<path d="M7.73067 7.67073C7.67984 7.58162 7.65255 7.85475 7.61348 7.76686C7.32271 7.08976 7.14581 5.99237 7.18771 5.2168C7.18771 5.2168 6.58624 5.49199 6.08844 6.64129C5.99601 6.8479 5.93673 6.96187 5.87751 7.07584C5.85026 7.10908 5.93927 6.69839 5.92506 6.72075C5.83859 6.8678 5.61476 7.07329 5.51755 7.32736C5.43693 7.53515 5.35402 7.64672 5.2923 7.90441C5.27331 7.97446 5.31144 7.59446 5.29484 7.64073C4.13708 9.88703 3.91609 13.2835 4.03811 13.1399C6.50285 10.4978 9.32739 9.87115 9.32739 9.87115C9.02686 9.64889 8.37388 9.00719 7.73072 7.67073H7.73067Z" fill="url(#paint9_linear_494_10040)"/>
<path d="M17.0821 35.3001C13.6776 33.8408 9.80714 31.7826 9.95323 27.1069C10.1522 20.949 15.6732 22.166 15.6732 22.166C15.4648 22.217 14.9078 22.6152 14.7104 23.0396C14.5018 23.5703 14.1211 24.7689 15.2744 26.025C17.0854 27.9952 11.5537 30.6994 20.0919 35.8079C20.3073 35.9255 18.0904 35.7378 17.0822 35.3001H17.0821Z" fill="url(#paint10_linear_494_10040)"/>
<path d="M15.8722 32.2316C18.2864 33.0752 21.0988 32.9272 22.7825 31.9935C23.9097 31.3635 25.3557 30.3545 26.2455 30.6036C25.4751 30.2979 24.8917 30.155 24.1898 30.1201C24.0703 30.1201 23.927 30.1176 23.7969 30.1044C23.5398 30.1036 23.2829 30.1177 23.0275 30.1467C22.5929 30.1868 22.1112 30.4621 21.6732 30.4179C21.6496 30.4155 22.098 30.2329 22.0616 30.2412C21.8295 30.2898 21.5774 30.3003 21.3111 30.3334C21.1418 30.3523 20.9962 30.3736 20.8281 30.3806C15.7997 30.8087 11.55 27.6445 11.55 27.6445C11.1883 28.8676 13.1694 31.2869 15.8723 32.2316H15.8722Z" fill="url(#paint11_linear_494_10040)"/>
<path d="M39.7331 39.2983C44.8192 34.2849 47.3924 28.1908 46.3046 21.3555C46.3046 21.3555 46.7391 24.8605 45.0913 28.4454C45.8829 24.9456 45.9751 20.5964 43.8718 16.0925C41.0645 10.081 36.4476 6.91776 34.6849 5.5981C32.0143 3.59856 30.9072 1.56269 30.8872 1.14258C30.0894 2.78367 27.676 8.40758 30.628 13.2509C33.3936 17.7885 37.7503 19.1354 40.8002 23.2977C46.4191 30.9657 39.7331 39.2983 39.7331 39.2983Z" fill="url(#paint12_linear_494_10040)"/>
<path d="M39.0046 26.2538C37.2272 22.5674 35.0087 20.9595 32.9102 19.2168C33.1543 19.5599 33.2145 19.6812 33.3496 19.9031C35.1967 21.8794 37.9203 26.7001 35.9429 32.7518C32.2208 44.143 17.3324 38.7789 15.7715 37.2721C16.4029 43.8648 27.3944 47.0196 34.5508 42.7443C38.6231 38.8741 41.9174 32.295 39.0046 26.2538Z" fill="url(#paint13_linear_494_10040)"/>
<defs>
<radialGradient id="paint0_radial_494_10040" cx="0" cy="0" r="1" gradientUnits="userSpaceOnUse" gradientTransform="translate(44.3451 12.0668) rotate(2.56484) scale(16.7926 24.7787)">
<stop offset="0.045" stop-color="#FFEA00"/>
<stop offset="0.12" stop-color="#FFDE00"/>
<stop offset="0.254" stop-color="#FFBF00"/>
<stop offset="0.429" stop-color="#FF8E00"/>
<stop offset="0.769" stop-color="#FF272D"/>
<stop offset="0.872" stop-color="#E0255A"/>
<stop offset="0.953" stop-color="#CC2477"/>
<stop offset="1" stop-color="#C42482"/>
</radialGradient>
<radialGradient id="paint1_radial_494_10040" cx="0" cy="0" r="1" gradientUnits="userSpaceOnUse" gradientTransform="translate(32.3784 9.46616) scale(47.3269 47.5139)">
<stop stop-color="#00CCDA"/>
<stop offset="0.22" stop-color="#0083FF"/>
<stop offset="0.261" stop-color="#007AF9"/>
<stop offset="0.33" stop-color="#0060E8"/>
<stop offset="0.333" stop-color="#005FE7"/>
<stop offset="0.438" stop-color="#2639AD"/>
<stop offset="0.522" stop-color="#401E84"/>
<stop offset="0.566" stop-color="#4A1475"/>
</radialGradient>
<linearGradient id="paint2_linear_494_10040" x1="26.3996" y1="35.744" x2="16.9844" y2="5.06644" gradientUnits="userSpaceOnUse">
<stop stop-color="#000F43" stop-opacity="0.4"/>
<stop offset="0.485" stop-color="#001962" stop-opacity="0.173"/>
<stop offset="1" stop-color="#002079" stop-opacity="0"/>
</linearGradient>
<radialGradient id="paint3_radial_494_10040" cx="0" cy="0" r="1" gradientUnits="userSpaceOnUse" gradientTransform="translate(48.4723 31.1527) rotate(5.78454) scale(15.9668 16.029)">
<stop offset="0.003" stop-color="#FFEA00"/>
<stop offset="0.497" stop-color="#FF272D"/>
<stop offset="1" stop-color="#C42482"/>
</radialGradient>
<radialGradient id="paint4_radial_494_10040" cx="0" cy="0" r="1" gradientUnits="userSpaceOnUse" gradientTransform="translate(48.5722 15.7109) rotate(5.78464) scale(26.6631 26.7674)">
<stop offset="0.003" stop-color="#FFE900"/>
<stop offset="0.157" stop-color="#FFAF0E"/>
<stop offset="0.316" stop-color="#FF7A1B"/>
<stop offset="0.472" stop-color="#FF4E26"/>
<stop offset="0.621" stop-color="#FF2C2E"/>
<stop offset="0.762" stop-color="#FF1434"/>
<stop offset="0.892" stop-color="#FF0538"/>
<stop offset="1" stop-color="#FF0039"/>
</radialGradient>
<radialGradient id="paint5_radial_494_10040" cx="0" cy="0" r="1" gradientUnits="userSpaceOnUse" gradientTransform="translate(49.8427 40.7802) rotate(5.7844) scale(24.4664 24.5612)">
<stop offset="0.003" stop-color="#FF272D"/>
<stop offset="0.497" stop-color="#C42482"/>
<stop offset="0.986" stop-color="#620700"/>
</radialGradient>
<radialGradient id="paint6_radial_494_10040" cx="0" cy="0" r="1" gradientUnits="userSpaceOnUse" gradientTransform="translate(34.9214 19.3157) scale(38.1924 38.3436)">
<stop offset="0.156" stop-color="#FFEA00"/>
<stop offset="0.231" stop-color="#FFDE00"/>
<stop offset="0.365" stop-color="#FFBF00"/>
<stop offset="0.541" stop-color="#FF8E00"/>
<stop offset="0.763" stop-color="#FF272D"/>
<stop offset="0.796" stop-color="#F92433"/>
<stop offset="0.841" stop-color="#E91C45"/>
<stop offset="0.893" stop-color="#CF0E62"/>
<stop offset="0.935" stop-color="#B5007F"/>
</radialGradient>
<radialGradient id="paint7_radial_494_10040" cx="0" cy="0" r="1" gradientUnits="userSpaceOnUse" gradientTransform="translate(32.0482 0.0631871) scale(45.0985 45.2765)">
<stop offset="0.279" stop-color="#FFEA00"/>
<stop offset="0.402" stop-color="#FFDD00"/>
<stop offset="0.63" stop-color="#FFBA00"/>
<stop offset="0.856" stop-color="#FF9100"/>
<stop offset="0.933" stop-color="#FF6711"/>
<stop offset="0.994" stop-color="#FF4A1D"/>
</radialGradient>
<linearGradient id="paint8_linear_494_10040" x1="8.74474" y1="17.397" x2="26.1087" y2="14.8002" gradientUnits="userSpaceOnUse">
<stop stop-color="#C42482" stop-opacity="0.5"/>
<stop offset="0.474" stop-color="#FF272D" stop-opacity="0.5"/>
<stop offset="0.486" stop-color="#FF2C2C" stop-opacity="0.513"/>
<stop offset="0.675" stop-color="#FF7A1A" stop-opacity="0.72"/>
<stop offset="0.829" stop-color="#FFB20D" stop-opacity="0.871"/>
<stop offset="0.942" stop-color="#FFD605" stop-opacity="0.964"/>
<stop offset="1" stop-color="#FFE302"/>
</linearGradient>
<linearGradient id="paint9_linear_494_10040" x1="7.01346" y1="12.7394" x2="5.03068" y2="5.65505" gradientUnits="userSpaceOnUse">
<stop stop-color="#891551" stop-opacity="0.6"/>
<stop offset="1" stop-color="#C42482" stop-opacity="0"/>
</linearGradient>
<linearGradient id="paint10_linear_494_10040" x1="10.7658" y1="22.9893" x2="14.8372" y2="28.649" gradientUnits="userSpaceOnUse">
<stop offset="0.005" stop-color="#891551" stop-opacity="0.5"/>
<stop offset="0.484" stop-color="#FF272D" stop-opacity="0.5"/>
<stop offset="1" stop-color="#FF272D" stop-opacity="0"/>
</linearGradient>
<linearGradient id="paint11_linear_494_10040" x1="18.5093" y1="32.9244" x2="18.8806" y2="29.2775" gradientUnits="userSpaceOnUse">
<stop stop-color="#C42482"/>
<stop offset="0.083" stop-color="#C42482" stop-opacity="0.81"/>
<stop offset="0.206" stop-color="#C42482" stop-opacity="0.565"/>
<stop offset="0.328" stop-color="#C42482" stop-opacity="0.362"/>
<stop offset="0.447" stop-color="#C42482" stop-opacity="0.204"/>
<stop offset="0.562" stop-color="#C42482" stop-opacity="0.091"/>
<stop offset="0.673" stop-color="#C42482" stop-opacity="0.023"/>
<stop offset="0.773" stop-color="#C42482" stop-opacity="0"/>
</linearGradient>
<linearGradient id="paint12_linear_494_10040" x1="30.2992" y1="1.77103" x2="45.3224" y2="35.2328" gradientUnits="userSpaceOnUse">
<stop stop-color="#FFF14F"/>
<stop offset="0.268" stop-color="#FFEE4C"/>
<stop offset="0.452" stop-color="#FFE643"/>
<stop offset="0.612" stop-color="#FFD834"/>
<stop offset="0.757" stop-color="#FFC41E"/>
<stop offset="0.892" stop-color="#FFAB02"/>
<stop offset="0.902" stop-color="#FFA900"/>
<stop offset="0.949" stop-color="#FFA000"/>
<stop offset="1" stop-color="#FF9100"/>
</linearGradient>
<linearGradient id="paint13_linear_494_10040" x1="33.2464" y1="21.0409" x2="26.1276" y2="40.0794" gradientUnits="userSpaceOnUse">
<stop stop-color="#FF8E00"/>
<stop offset="0.04" stop-color="#FF8E00" stop-opacity="0.858"/>
<stop offset="0.084" stop-color="#FF8E00" stop-opacity="0.729"/>
<stop offset="0.13" stop-color="#FF8E00" stop-opacity="0.628"/>
<stop offset="0.178" stop-color="#FF8E00" stop-opacity="0.557"/>
<stop offset="0.227" stop-color="#FF8E00" stop-opacity="0.514"/>
<stop offset="0.282" stop-color="#FF8E00" stop-opacity="0.5"/>
<stop offset="0.389" stop-color="#FF8E00" stop-opacity="0.478"/>
<stop offset="0.524" stop-color="#FF8E00" stop-opacity="0.416"/>
<stop offset="0.676" stop-color="#FF8E00" stop-opacity="0.314"/>
<stop offset="0.838" stop-color="#FF8E00" stop-opacity="0.172"/>
<stop offset="1" stop-color="#FF8E00" stop-opacity="0"/>
</linearGradient>
</defs>
</svg>
