<svg width="430" height="364" viewBox="0 0 430 364" fill="none" xmlns="http://www.w3.org/2000/svg">
<path d="M363.882 239.553C363.344 227.171 361.729 191.641 373.571 188.411C381.107 186.258 390.797 198.64 391.873 200.255C403.177 214.79 396.718 227.171 398.332 272.391C398.871 292.848 400.486 298.77 396.179 309.536C390.258 322.995 380.031 331.07 373.033 335.376" stroke="#5D36FF" stroke-width="40.633" stroke-miterlimit="10" stroke-linecap="round"/>
<path d="M63.525 115.201C46.3 108.741 31.2281 93.1297 23.6922 74.288C21.5391 69.443 20.4625 64.598 18.8477 59.753C17.7711 54.908 16.6945 50.063 16.1562 43.603C16.1562 40.373 16.1562 37.143 18.8477 30.683C18.8477 30.1447 19.9242 29.068 20.4625 27.9914C21.0008 26.9147 21.5391 25.838 22.6156 25.2997C23.6922 24.223 25.307 23.1464 26.3836 22.0697C26.9219 21.5314 27.9984 20.993 28.5367 20.4547C29.075 19.9164 30.6899 19.9164 31.7664 19.378C33.9195 18.8397 36.0727 18.3014 38.2258 18.8397C40.3789 18.8397 42.532 19.378 43.6086 19.9164C44.6852 20.4547 46.3 20.993 46.8383 21.5314C47.9149 22.0697 48.4531 22.608 49.5297 23.1464C50.6063 24.223 51.6828 24.7614 52.7594 25.838C53.2977 26.3764 54.3742 27.453 54.9125 27.9914C55.9891 29.068 57.0657 30.683 58.1422 31.7597C59.7571 33.913 61.3719 36.0664 62.9867 37.6814C68.9078 45.218 73.7524 51.678 78.5969 58.138C83.9797 64.598 88.8243 70.5197 94.2071 76.4413C99.5899 81.8247 104.973 87.7463 110.894 92.053L115.2 95.8213L120.045 99.5897C123.274 101.743 126.504 103.896 129.734 106.05C136.193 110.356 142.652 114.125 149.112 117.355C155.571 120.585 162.569 122.738 169.028 124.891C182.485 128.66 196.481 128.66 211.552 126.506C226.086 123.815 241.158 117.355 255.692 109.28C270.225 101.205 284.759 90.438 298.754 79.133C293.371 96.898 283.682 113.048 270.763 127.583C257.845 142.118 242.235 155.038 222.856 162.575C213.167 166.343 202.94 169.573 192.174 170.65C181.409 172.265 170.643 171.726 159.877 170.111C149.112 168.496 139.423 165.266 129.734 161.498C120.045 157.191 110.894 152.346 102.82 146.963C98.5133 144.271 94.7454 141.041 90.9774 138.35L85.5946 134.043C83.9797 132.428 81.8266 130.813 79.6735 129.198C72.1375 122.2 65.1399 115.201 59.2188 107.126C46.8383 91.5147 37.6875 74.288 30.1516 58.6763L28.5367 52.7547L27.4602 51.1397C27.4602 50.6014 27.4602 51.1397 27.4602 50.6013C27.4602 50.6013 27.9984 50.6014 27.9984 51.1397C28.5367 51.1397 28.5367 51.678 29.075 51.678C29.075 51.678 30.6899 52.2164 31.2281 52.7547C31.7664 52.7547 33.3813 53.293 34.9961 53.293C36.611 53.293 38.2258 53.293 39.8406 52.7547C40.3789 52.7547 41.4555 52.2164 41.9938 51.678C42.532 51.678 43.0703 51.1397 43.6086 50.6013C44.6852 50.063 45.7617 48.9864 46.3 48.448C46.8383 48.448 47.3766 47.9097 47.9149 47.3714C47.9149 46.833 48.4531 46.2947 48.4531 45.7564C48.9914 43.0647 47.9149 44.6797 47.9149 45.7564C46.8383 48.448 46.8383 52.2164 46.8383 56.523C46.8383 60.2914 46.8383 64.598 46.8383 68.3663C47.3766 83.978 52.7594 100.128 63.525 115.201Z" fill="#3BADD3"/>
<path d="M263.766 329.456C258.384 332.148 248.156 336.993 234.161 340.223C125.428 367.678 -2.68302 266.471 5.92948 240.631C7.54433 236.325 12.9271 233.633 16.6951 232.556C27.999 229.326 36.0732 239.555 59.7576 254.09C83.9803 269.163 98.5139 274.008 102.82 275.623C111.433 278.315 118.969 279.93 124.351 281.006" stroke="black" stroke-width="1.16094" stroke-miterlimit="10" stroke-linecap="round"/>
<path d="M339.686 299.862C323.538 306.322 307.389 312.243 291.241 318.703" stroke="black" stroke-width="1.16094" stroke-miterlimit="10" stroke-linecap="round"/>
<path d="M336.972 216.406C328.36 215.868 314.903 214.253 299.292 211.023C280.991 207.255 280.453 205.64 272.378 205.64C255.692 205.101 243.311 211.561 223.933 221.79C213.167 227.173 216.397 226.635 197.019 237.94C167.952 254.628 167.413 261.088 153.956 264.856C136.731 269.701 127.042 264.318 124.351 270.24C120.045 278.315 132.425 298.233 148.574 302.54C161.492 305.77 171.181 298.771 186.253 291.773C201.325 284.775 224.471 277.238 256.23 275.623" stroke="black" stroke-width="1.16094" stroke-miterlimit="10" stroke-linecap="round"/>
<path d="M421.509 208.323C419.894 202.939 418.279 195.403 412.358 189.481C397.824 174.408 369.834 168.486 358.53 178.714C354.762 181.944 353.685 186.251 353.147 189.481C346.149 219.089 347.764 247.083 347.764 248.698C349.379 287.458 346.149 301.993 353.147 334.831C355.3 346.136 357.991 353.134 363.912 356.364C375.755 362.286 395.671 348.289 406.975 334.831C423.662 314.374 422.585 284.766 422.585 272.923" stroke="black" stroke-width="1.16094" stroke-miterlimit="10" stroke-linecap="round"/>
<path d="M423.096 254.089C423.634 243.861 424.172 243.323 424.172 236.863" stroke="black" stroke-width="1.16094" stroke-miterlimit="10" stroke-linecap="round"/>
<path d="M31.2577 14.5225C14.0327 36.0558 13.4944 54.3591 14.0327 61.8958C16.1858 101.194 61.4015 138.877 127.072 148.567" stroke="black" stroke-width="1.16094" stroke-miterlimit="10"/>
<path d="M31.0112 14.4395C41.6377 22.9155 57.5773 36.6891 76.1736 54.171C119.742 94.4322 123.993 102.908 145.245 117.741C171.28 135.753 204.753 159.062 240.883 149.527C283.92 138.402 301.985 88.6049 304.642 80.6586" stroke="black" stroke-width="1.16094" stroke-miterlimit="10"/>
<path d="M336.996 1.0752C328.922 18.3019 311.697 48.9869 277.785 76.4419C241.72 105.512 205.117 115.74 186.277 119.509" stroke="black" stroke-width="1.16094" stroke-miterlimit="10"/>
<path d="M43.0708 49.5234C46.3005 65.1351 55.4513 94.7434 80.7505 119.507C138.885 176.57 226.625 153.422 231.469 151.807" stroke="black" stroke-width="1.16094" stroke-miterlimit="10"/>
<path d="M236.852 87.2065C222.856 92.0515 202.402 96.8965 177.641 97.9732C155.571 98.5115 137.27 95.8199 123.812 92.5899" stroke="black" stroke-width="1.16094" stroke-miterlimit="10"/>
<path d="M300.373 104.97C300.373 107.124 300.911 110.354 300.373 114.122C299.834 127.58 294.99 135.117 295.528 135.655C296.605 136.194 310.6 121.12 317.059 97.9722C323.519 75.3622 322.98 45.2155 311.677 40.9088C305.755 38.7555 302.526 45.7538 283.686 55.4438C263.231 66.2105 244.93 69.4405 235.779 71.5938C213.171 75.9005 198.099 74.8238 198.099 76.9772C198.099 79.1305 209.941 81.2838 218.554 82.3605C226.09 82.8988 232.549 82.3605 237.394 81.8221" stroke="black" stroke-width="1.16094" stroke-miterlimit="10"/>
</svg>
