<svg xmlns="http://www.w3.org/2000/svg" viewBox="0 0 512 512">
	<path d="M16.5 73c0-40 32-72 72-72h335c40 0 72 32 72 72v335c0 40-32 72-72 72h-335c-40 0-72-32-72-72V73zm48 144h60v-60h-60v60zm215-168v60h60V49h-60zm0 108v60h60v-60h-60zm0 215v60h60v-60h-60zm168-215h-60v60h60v-60zm-108 108h-60v59h60v-59zm108 0h-60v59h60v-59zm-275-108v60h59v-60h-59zm-48 108h-60v59h60v-59zm48-216v60h59V49h-59zm0 383h59v-60h-59v60zm-48-60h-60v36c0 13 11 24 24 24h36v-60zm263 60h36c13 0 24-11 24-24v-36h-60v60zM64.5 73v36h60V49h-36c-13 0-24 11-24 24zm359-24h-36v60h60V73c0-13-11-24-24-24zm-251 275h59v-59h-59v59z"/>
</svg>