<svg xmlns="http://www.w3.org/2000/svg" viewBox="0 0 512 512">
	<path d="M331.5 126c-13-3-20-13-20-25 0-13 7-23 20-25l45-10 10-45c2-13 13-21 25-21 13 0 23 8 25 21l10 45 45 10c13 2 20 12 20 25 0 12-7 22-20 25l-45 10-10 45c-2 13-12 20-25 20-12 0-23-7-25-20l-10-45zm-276 0c-13-3-20-13-20-25 0-13 7-23 20-25l45-10 10-45c3-13 13-21 25-21 13 0 23 8 25 21l10 45 45 10c13 2 21 12 21 25 0 12-8 22-21 25l-45 10-10 45c-2 13-12 20-25 20-12 0-22-7-25-20l-10-45zm273 143l-225 226c-11 11-27 17-43 17s-31-6-43-17c-22-23-22-63 0-86l226-225c5-5 11-8 18-8 6 0 12 3 17 8l50 50c10 10 10 25 0 35zm-261 190l184-183-15-15-184 183c-5 5-5 10 0 15s10 5 15 0zm424-107c13 2 20 12 20 25 0 12-7 22-20 25l-45 10-10 45c-2 12-12 20-25 20-12 0-23-8-25-20l-10-45-45-10c-13-3-20-13-20-25 0-13 7-23 20-25l45-10 10-46c2-12 13-20 25-20 13 0 23 8 25 20l10 46z"/>
</svg>