<svg xmlns="http://www.w3.org/2000/svg" viewBox="0 0 512 512">
	<path d="M0 122.564c0-38.549 31.63-70.178 70.178-70.178h168.03c12.85 0 23.723 10.873 23.723 23.722 0 14.826-10.873 24.71-23.723 24.71H70.178c-12.85 0-23.722 8.896-23.722 21.746v281.699c0 12.849 10.872 23.722 23.722 23.722h371.644c12.85 0 23.722-10.873 23.722-23.722V196.695c0-12.85 8.896-23.722 23.722-23.722 12.85 0 22.734 10.873 22.734 23.722v207.568c0 38.548-31.63 70.177-70.178 70.177H70.178C31.629 474.44 0 442.81 0 404.263v-281.7zm325.19-4.942c-15.815 0-23.723-7.908-23.723-22.734 0-15.815 7.908-23.722 23.722-23.722h46.456V24.71c0-14.826 8.896-23.722 23.722-23.722s23.722 8.896 23.722 23.722v46.456h46.455c14.827 0 23.722 8.896 23.722 23.722s-8.895 22.734-23.722 22.734H419.09v47.444c0 14.826-7.908 22.733-23.722 22.733s-23.722-7.907-23.722-22.733v-47.444h-46.456zM88.957 359.784v-187.8c0-14.826 7.907-22.733 23.722-22.733 14.826 0 23.722 7.907 23.722 22.734v187.799c0 14.826-8.896 21.745-23.722 21.745-15.815 0-23.722-6.919-23.722-21.745zM324.2 381.529c-15.815 0-23.722-6.919-23.722-21.745V195.707c0-15.815 7.907-23.722 23.722-23.722 14.826 0 21.745 7.907 21.745 23.722v164.077c0 14.826-6.919 21.745-21.745 21.745zm-95.877-139.367c0-14.826 8.896-22.733 23.722-22.733 16.803 0 24.71 7.907 24.71 22.733v117.622c0 14.826-7.907 21.745-24.71 21.745-14.826 0-23.722-6.919-23.722-21.745V242.162zm-70.177 117.622v-70.178c0-15.814 7.907-23.722 24.71-23.722 14.826 0 23.722 8.896 23.722 23.722v70.178c0 14.826-8.896 21.745-23.722 21.745-16.803 0-24.71-6.919-24.71-21.745zm211.521 0v-70.178c0-15.814 7.907-23.722 24.71-23.722 14.827 0 21.746 7.908 21.746 23.722v70.178c0 14.826-6.92 21.745-21.746 21.745-16.803 0-24.71-6.919-24.71-21.745z"/>
</svg>