<svg xmlns="http://www.w3.org/2000/svg" viewBox="0 0 512 512">
	<path d="M3.406 53.957c2.997-12.99 15.987-21.982 28.976-21.982h319.745c18.985 0 31.975 11.99 31.975 31.974 0 18.985-12.99 31.975-31.975 31.975H118.314l156.875 133.893c6.994 6.994 12.99 14.988 12.99 25.979 0 8.993-1.999 17.986-12.99 24.98L118.314 415.67h233.813c18.985 0 31.975 11.99 31.975 31.974 0 18.985-12.99 31.975-31.975 31.975H32.382c-12.99 0-25.979-9.993-28.976-22.982s0-24.98 9.992-34.972l194.844-165.868L13.398 88.929C.408 79.936-3.59 67.946 3.406 53.957zm414.669 291.767l-59.952-57.953c-7.994-6.995-7.994-18.985 0-26.979 2.997-2.998 7.993-4.996 13.989-4.996s10.99 1.998 13.988 4.996l25.98 24.98V178.857c0-10.99 8.992-18.984 19.984-18.984s19.984 7.993 19.984 18.984v106.915l25.98-24.98c2.997-2.998 7.993-4.996 13.988-4.996s10.991 1.998 13.989 4.996c7.993 7.994 7.993 19.984 0 26.979l-59.952 57.953c-3.997 3.997-8.993 5.996-13.99 5.996s-9.991-1.999-13.988-5.996z"/>
</svg>