<svg xmlns="http://www.w3.org/2000/svg" viewBox="0 0 512 512">
	<path d="M65.5 365c-35-7-62-38-62-75v-44c0-15 12-26 25-26h278V118c0-13 12-25 25-25h99c11 0 19 5 23 15l52 127c2 2 3 6 3 11v45c0 39-26 67-61 74 7 12 10 24 10 39 0 41-32 76-75 76-41 0-76-35-76-76 0-14 4-27 11-38h-122c7 12 10 25 10 38 0 41-35 76-76 76-43 0-75-35-75-76 0-13 4-26 11-39zm-62-195V26c0-15 12-26 25-26h227c13 0 25 11 25 26v144c0 15-12 25-25 25h-227c-13 0-25-10-25-25zm51 101v19c0 13 12 25 25 25h353c13 0 25-12 25-25v-19h-403zm0-126h177V51h-177v94zm359-3h-56v78h88zm-284 238c-13 0-26 9-26 24 0 13 13 25 26 25s25-12 25-25c0-15-12-24-25-24zm253 0c-13 0-25 9-25 24 0 13 12 25 25 25 15 0 24-12 24-25 0-15-9-24-24-24z"/>
</svg>