<svg xmlns="http://www.w3.org/2000/svg" viewBox="0 0 512 512">
	<path d="M63 364c-36-7-63-39-63-76v-45c0-15 10-26 25-26h282V112c0-15 11-25 26-25h99c11 0 20 5 25 15l53 130c1 4 2 7 2 10v46c0 37-27 69-63 76 8 12 12 25 12 39 0 43-34 77-77 77s-77-34-77-77c0-15 4-27 11-38H194c7 11 11 24 11 38 0 43-34 77-77 77s-76-34-76-77c0-15 4-28 11-39zm398-96H52v20c0 15 10 25 25 25h359c15 0 25-10 25-25v-20zm-45-129h-57v78h89zM128 378c-15 0-26 10-26 25s11 25 26 25 26-10 26-25-11-25-26-25zm256 0c-15 0-25 10-25 25s10 25 25 25 25-10 25-25-10-25-25-25z"/>
</svg>