<svg xmlns="http://www.w3.org/2000/svg" viewBox="0 0 512 512">
	<path d="M87.375 480c-39 0-71-32-71-71 0-57 38-105 93-117-15-13-22-30-22-51 0-39 34-73 73-73s71 34 71 73c0 18-6 34-19 48 13 3 19 11 19 23 0 15-10 24-23 24h-72c-39 0-72 34-72 73 0 13 10 23 23 23h120c13 0 24 9 24 24 0 13-11 24-24 24h-120zm216-144c-13 0-24-9-24-24 0-12 6-20 19-23-13-14-19-30-19-48 0-39 32-73 71-73s73 34 73 73c0 21-7 38-22 51 55 12 93 60 93 117 0 39-32 71-71 71h-120c-13 0-24-11-24-24 0-15 11-24 24-24h120c13 0 24-10 24-23 0-39-35-73-72-73h-72zm7-245c-9-11-9-25 0-34 5-5 10-7 16-7s13 2 18 7l31 31 79-79c5-6 11-8 17-8s12 2 16 8c11 9 11 24 0 33l-95 96c-4 4-10 7-16 7s-12-3-18-7zm-150 126c-15 0-24 11-24 24s9 24 24 24c13 0 24-11 24-24s-11-24-24-24zm168 24c0 13 9 24 22 24 15 0 25-11 25-24s-10-24-25-24c-13 0-22 11-22 24z"/>
</svg>