<svg xmlns="http://www.w3.org/2000/svg" viewBox="0 0 512 512">
	<path d="M370 415c0 33 28 60 60 60 33 0 60-27 60-60 0-32-27-60-60-60-32 0-60 28-60 60zm86 0c0 14-12 26-26 26-13 0-25-12-25-26s12-26 25-26c14 0 26 12 26 26zm12-82h-76c-12 0-22-11-22-24v-72c0-13 10-24 22-24h76c12 0 22 11 22 24v72c0 13-10 24-22 24zm-53-75v30h30v-30h-30zm-99 215h-76c-12 0-22-11-22-24V237c0-13 10-24 22-24h76c12 0 22 11 22 24v212c0 13-10 24-22 24zm-53-212v165h30V261h-30zM140 420h-40c-47 0-84-37-84-84V84c0-46 37-84 84-84h108c6 0 12 3 16 7l42 41h146c46 0 84 38 84 84 0 13-11 24-24 24-14 0-24-11-24-24 0-20-16-36-36-36H256c-7 0-13-2-17-7l-41-41h-98c-20 0-36 17-36 36v252c0 20 16 36 36 36h40c14 0 24 11 24 24 0 14-10 24-24 24z"/>
</svg>