<svg xmlns="http://www.w3.org/2000/svg" viewBox="0 0 512 512">
	<path d="M14 408c0-59 39-106 94-118-15-13-22-31-22-52 0-40 34-72 74-72s72 32 72 72c0 18-7 35-20 50 11 3 20 10 20 22 0 15-11 24-24 24h-72c-41 0-74 34-74 74 0 13 11 24 24 24h120c15 0 26 11 26 24s-11 24-26 24H86c-40 0-72-32-72-72zm291 72c-13 0-25-11-25-24s12-24 25-24h120c15 0 25-11 25-24 0-40-34-74-74-74h-72c-13 0-24-9-24-24 0-12 9-19 20-22-12-15-20-31-20-50 0-40 32-72 72-72s73 32 73 72c0 21-7 38-21 52 55 12 94 59 94 118 0 40-32 72-73 72H305zm74-428c0-28 26-50 57-50s56 22 56 50c0 23-15 43-38 50-3 9-9 13-18 13-11 0-19-7-19-18V85c0-13 6-19 19-19 11 0 19-7 19-14s-8-13-19-13-19 6-19 13c0 11-7 19-18 19s-20-8-20-19zM160 214c-15 0-26 11-26 24 0 15 11 24 26 24 13 0 24-9 24-24 0-13-11-24-24-24zm168 24c0 15 11 24 24 24s24-9 24-24c0-13-11-24-24-24s-24 11-24 24zm89-95c0-11 8-18 19-18s19 7 19 18-8 20-19 20-19-9-19-20z"/>
</svg>