<svg xmlns="http://www.w3.org/2000/svg" viewBox="0 0 512 512">
	<path d="M122 433h268c-11-64-67-112-135-112-66 0-122 48-133 112zm188-151c74 24 129 94 129 175 0 15-10 23-23 23H96c-15 0-22-8-22-23 0-81 55-151 128-175-8-7-12-16-7-27 7-11 19-17 30-10 9 5 19 6 30 6 39 0 69-29 69-68 0-37-30-68-69-68-25 0-48 15-60 38-5 11-19 17-30 10-11-5-16-19-11-30 20-39 58-63 101-63 63 0 115 50 115 113 0 43-25 79-60 99zm118-156c20 12 33 33 33 57 0 27-13 48-36 60-15 8-32-1-32-20v-40c0-76-63-136-138-136-74 0-136 60-136 136v40c0 19-18 28-33 20-23-13-35-33-35-60 0-25 11-44 32-57C107 53 176 2 255 2c80 0 149 51 173 124zm-238 87c0 12-11 22-23 22s-22-10-22-22 10-23 22-23 23 11 23 23z"/>
</svg>