<svg xmlns="http://www.w3.org/2000/svg" viewBox="0 0 512 512">
	<path d="M466.237 503l-82-81c-40 32-91 52-147 52-131 0-236-105-236-236s105-236 236-236 236 105 236 236c0 56-19 107-51 147l81 81c16 16 5 45-19 45-7 0-13-3-18-8zm-229-82c101 0 184-82 184-183s-83-184-184-184-184 83-184 184 83 183 184 183zm79-301c15 0 26 11 26 26v99c0 15-11 26-26 26s-26-11-26-26v-99c0-15 11-26 26-26zm-105 125v-73c0-15 11-26 26-26s26 11 26 26v73c0 15-11 26-26 26s-26-11-26-26zm-79 0v-20c0-15 12-26 27-26s26 11 26 26v20c0 15-11 26-26 26s-27-11-27-26zm27 58h157c15 0 26 11 26 26s-11 27-26 27h-157c-15 0-27-12-27-27s12-26 27-26z"/>
</svg>