<svg xmlns="http://www.w3.org/2000/svg" viewBox="0 0 512 512">
	<path d="M40 176c-6 0-12-2-17-7-5-4-7-10-7-17 0-1 0-3 1-6 1-2 2-6 5-11 10-21 24-39 40-57 16-17 34-32 54-44s42-21 66-28c23-6 47-10 72-10 38 0 73 8 107 22 33 15 62 36 87 63V51c0-7 2-13 7-18 4-4 10-7 17-7s12 3 17 7c5 5 7 11 7 18v101c0 7-2 13-7 17-5 5-10 7-17 7H370c-6 0-12-2-17-7-5-4-7-10-7-17s2-13 7-17 11-7 17-7h56c-21-26-46-47-76-62s-62-22-96-22c-41 0-79 11-113 32-35 21-61 50-79 87-5 9-12 13-22 13zm432 120c7 0 12 3 17 7 5 5 7 11 7 18 0 1 0 3-1 5 0 3-2 7-5 12-10 20-23 39-39 56-17 17-35 32-56 44-20 13-42 22-65 28-24 7-48 10-72 10-38 0-73-7-106-22-34-14-63-35-88-62v30c0 7-2 13-7 17-4 5-10 7-17 7-6 0-12-2-17-7-5-4-7-10-7-17V321c0-7 2-13 7-18 5-4 11-7 17-7h102c7 0 12 3 17 7 5 5 7 11 7 18s-2 12-7 17c-5 4-10 6-17 6H86c21 27 46 48 76 62 30 15 62 22 96 22 41 0 79-10 113-31 35-22 61-51 79-88 5-8 12-13 22-13zm-228-13c-7 0-13-3-17-8l-74-73c-10-10-10-26 0-35 9-10 25-10 35 0l64 64 84-22c13-3 27 5 30 18 3 14-5 27-18 30l-98 25c-2 0-4 1-6 1z"/>
</svg>