<svg xmlns="http://www.w3.org/2000/svg" viewBox="0 0 512 512">
	<path d="M192 238c0-15 11-27 26-27h81c15 0 26 12 26 27v215c0 15-11 27-26 27h-81c-15 0-26-12-26-27V238zM15 298c0-15 12-27 27-27h79c15 0 26 12 26 27v155c0 15-11 27-26 27H42c-15 0-27-12-27-27V298zm353 55c0-15 12-27 27-27h75c15 0 27 12 27 27v100c0 15-12 27-27 27h-75c-15 0-27-12-27-27V353zM56 224c-17 0-26-9-26-26v-6c0-23 8-41 24-55l17-18H56c-16 0-26-11-26-27s10-27 26-27h33c21 0 43 15 46 38 3 17-4 29-13 40l-29 28h16c16 0 26 11 26 27 0 17-9 26-26 26H56zm324-85c0-16 11-27 27-27h27c29 0 52 25 52 53 0 9-8 14-8 29 0 12 7 16 8 25 0 31-21 52-52 52h-27c-16 0-27-10-27-27 0-16 11-25 27-25h27c-16 0-27-11-27-27s11-27 27-27h-27c-16 0-27-10-27-26zM205 28c0-16 11-27 27-27h27c15 0 26 12 26 27v79c16 0 27 10 27 26s-11 27-27 27h-53c-16 0-27-11-27-27s11-26 27-26V54c-16 0-27-10-27-26z"/>
</svg>