<svg xmlns="http://www.w3.org/2000/svg" viewBox="0 0 512 512">
	<path d="M16.204 288V87c0-48 38-87 86-87h29c13 0 24 10 24 25 0 13-11 24-24 24h-30c-20 0-37 17-37 37v202c0 20 17 37 37 37h218c7 0 13 2 18 7l56 61v-97c0-15 10-25 25-25 13 0 24 10 24 25v159c0 11-4 18-12 21-3 3-7 4-12 4-7 0-13-2-18-7l-92-98h-206c-48 0-86-40-86-87zm220-74c-2-10 3-19 11-24l31-17c7-5 16-7 26-7h21c11 0 20 2 27 7l32 17c8 5 12 14 10 24v2c-2 11-9 16-20 16h-119c-11 0-17-5-19-16v-2zm39-110c0-23 17-40 40-40s41 17 41 40-18 40-41 40-40-17-40-40zm-59 23c-23 0-40-18-40-41s17-40 40-40 40 17 40 40-17 41-40 41zm200 0c-23 0-40-18-40-41s17-40 40-40 40 17 40 40-17 41-40 41zm-48 33l11-5c7-5 16-7 26-7h21c11 0 20 2 27 7l32 17c9 5 12 14 10 25s-9 17-20 17h-62c1-16-7-34-20-41zm-232 37c-2-11 2-20 11-25l31-17c7-5 16-7 27-7h21c11 0 20 2 27 7l10 4-26 14c-13 8-20 25-19 41h-62c-9 0-17-6-20-17z"/>
</svg>