<svg xmlns="http://www.w3.org/2000/svg" viewBox="0 0 512 512">
	<path d="M136.5 283l49-29c0-4-2-9-2-13 0-11 4-22 8-31l-73-72c-10 4-20 6-30 6-40 0-72-31-72-71s32-72 72-72 71 32 71 72c0 10-2 20-7 31l73 72c9-4 19-6 30-6 12 0 22 2 31 6l72-72c-4-9-8-20-8-31 0-40 33-72 73-72s72 32 72 72-32 71-72 71c-11 0-22-2-31-6l-72 72c4 9 6 19 6 31 0 40-30 72-71 72-17 0-33-6-46-18l-51 31c0 3 1 7 1 11 0 40-31 71-71 71s-72-31-72-71 32-72 72-72c19 0 35 6 48 18zm166 149v-72c0-19 11-34 26-42v-7c0-39 32-70 71-70s71 31 71 70v7c15 8 25 23 25 42v72c0 27-21 48-48 48h-97c-27 0-48-21-48-48zm74-121h47c0-13-11-22-24-22-15 0-23 7-23 22zm-26 121h97v-72h-95z"/>
</svg>