<svg xmlns="http://www.w3.org/2000/svg" viewBox="0 0 512 512">
	<path d="M157.781 415l38 19c9 6 15 16 12 27s-12 19-23 19h-143c-11 0-21-8-23-19-3-11 2-21 12-27l37-19c10-5 22-6 33-6h25c11 0 23 1 32 6zm-92-79c0-27 21-48 48-48s47 21 47 48-20 49-47 49-48-22-48-49zm380 79l38 19c9 6 14 16 12 27-3 11-12 19-23 19h-144c-11 0-20-8-23-19-2-11 3-21 12-27l38-19c9-5 22-6 32-6h26c11 0 23 1 32 6zm-93-79c0-27 20-48 47-48s49 21 49 48-22 49-49 49-47-22-47-49zm-98-9c-62 0-113-50-113-112 0-55 41-103 96-111 13-3 24 6 27 20 2 13-7 24-21 27-30 5-53 32-53 64 0 35 29 65 64 65 32 0 59-26 63-57 2-13 14-21 27-20 14 2 23 14 22 27-8 55-57 97-112 97zm206-237l-47 47c-6 6-11 8-18 8h-37l-38 37c-1 1-1 1-3 2l-44 46c-4 4-11 7-16 7-7 0-12-2-18-7-9-9-9-25 0-35l46-46 39-37V73c0-7 1-11 7-16l48-49c7-6 16-9 26-4 9 3 15 12 15 22v23h24c9 0 19 5 21 14 6 10 2 21-5 27zm-175 59l-16 17 15-15z"/>
</svg>