<svg xmlns="http://www.w3.org/2000/svg" viewBox="0 0 512 512">
	<path d="M451.5 191h-392v270h392V191zm0 318h-392c-28 0-49-21-49-48V191c0-27 21-50 49-50h392c27 0 50 23 50 50v270c0 27-23 48-50 48zm-196-96c-15 0-24-12-24-25V262c0-15 9-24 24-24s25 9 25 24v126c0 13-10 25-25 25zm100 0c-15 0-25-12-25-25V262c0-15 10-24 25-24s25 9 25 24v126c0 13-10 25-25 25zm-197 0c-15 0-24-12-24-25V262c0-15 9-24 24-24s25 9 25 24v126c0 13-10 25-25 25zm95-311c-15 0-28-8-33-15-6-6-6-12 0-17 4-5 13-5 17 0 1 1 13 13 26 4 13-13 2-33 1-33-2-2-4-4-5-7-3-4-7-9-11-16-6-16 17-26 23-11 4 8 9 14 13 20 11 14 19 44-7 65-9 7-17 10-24 10zm-193 27c-6 0-11-3-14-10-3-8 1-17 10-20l118-45c10-3 17-1 20 8 3 10 1 17-8 20l-120 46c-3 0-5 1-6 1zm391 2c-1 0-6 1-7-2l-117-51c-17-7-5-35 13-28l117 51c7 3 11 13 8 20s-8 10-14 10z"/>
</svg>