<svg xmlns="http://www.w3.org/2000/svg" viewBox="0 0 512 512">
	<path d="M141.75 215c0-56 40-103 96-111 15 0 23 2 27 20 3 13-6 24-21 27-31 5-53 32-53 64 0 35 29 65 64 65 32 0 59-26 63-57 3-13 14-20 27-20 15 3 23 14 22 27-8 56-56 97-112 97-61 0-113-51-113-112zm98 15c-9-9-9-24 0-35l46-46 39-37V73c0-7 2-12 7-16l48-49c4-4 9-7 15-7 3 0 7 1 11 3 10 3 15 11 15 22v23h24c9 0 18 5 21 14 7 11 2 20-5 27l-47 47c-5 5-11 8-18 8h-37l-38 37c-1 1-2 1-3 2l-44 46c-5 5-10 7-16 7-7 0-13-2-18-7zm66 231c-2-11 2-20 12-27l38-19c9-5 21-6 32-6h26c11 0 23 1 32 6l38 19c10 7 14 16 12 27-3 13-11 19-23 19h-144c-12 0-20-6-23-19zm-287 0c-3-11 1-20 12-27l37-19c11-5 22-6 33-6h25c11 0 23 1 32 6l38 19c9 7 15 16 12 27-3 13-11 19-23 19h-143c-11 0-20-8-23-19zm334-125c0-27 20-48 47-48s49 21 49 48-22 49-49 49-47-22-47-49zm-239 49c-27 0-48-22-48-49s21-48 48-48 47 21 47 48-20 49-47 49zm156-219l16-17z"/>
</svg>