<svg xmlns="http://www.w3.org/2000/svg" viewBox="0 0 512 512">
	<path d="M460.403 118.078H51.597v281.798h408.806V118.078zm0 333.395H51.597C22.822 451.473 0 428.65 0 399.876V118.078c0-27.783 22.822-50.605 51.597-50.605h408.806c28.775 0 51.597 22.822 51.597 50.605v281.798c0 28.775-22.822 51.597-51.597 51.597zM256 350.263c-14.884 0-24.806-9.922-24.806-24.806V193.488c0-12.899 9.922-25.798 24.806-25.798s24.806 12.9 24.806 25.798v131.97c0 14.883-9.922 24.806-24.806 24.806zm104.186 0c-14.884 0-24.806-9.922-24.806-24.806V193.488c0-12.899 9.922-25.798 24.806-25.798s24.806 12.9 24.806 25.798v131.97c0 14.883-9.922 24.806-24.806 24.806zm-204.403 0c-14.884 0-26.79-9.922-26.79-24.806V193.488c0-12.899 11.906-25.798 26.79-25.798s24.806 12.9 24.806 25.798v131.97c0 14.883-9.922 24.806-24.806 24.806z"/>
</svg>