<svg xmlns="http://www.w3.org/2000/svg" viewBox="0 0 512 512">
	<path d="M19 484c-11-11-11-25 0-36L457 10c5-5 11-8 17-8 7 0 13 3 18 8 11 11 11 25 0 36L54 484c-6 5-12 7-18 7-5 0-11-2-17-7zm237-36c-15 0-25-11-25-26v-63l50-51v89h79c5-13 14-24 27-35 13-9 28-14 43-14 20 0 38 7 54 22 15 16 22 33 22 52 0 20-7 38-22 54-16 15-34 22-54 22-15 0-30-5-43-14-12-10-21-22-27-36H256zM81 322c-41 0-75-33-75-74 0-43 32-76 75-76 32 0 58 22 70 51h42l-98 97c-5 1-10 2-14 2zm200-187l-50 50V73c0-8 2-14 7-18 5-5 11-7 18-7h104c6-15 15-27 27-36 9-6 19-10 28-12l-98 98h-36v37zm224-50c-7 31-30 57-62 61z"/>
</svg>