<svg xmlns="http://www.w3.org/2000/svg" viewBox="0 0 512 512">
	<path d="M414 354c-15 0-26-10-26-25s11-24 26-24h58c15 0 26 10 26 25v154c0 5-1 8-3 11-4 11-12 16-24 16h-56c-15 0-25-11-25-26s10-25 25-25h32v-27h-32c-15 0-25-11-25-26s10-26 25-26h32v-27h-33zm-196-24V27c0-15 10-26 25-26s24 11 24 26v303c0 15-9 26-24 26s-25-11-25-26zm-77 26c-15 0-26-11-26-26V179c0-15 11-25 26-25s25 10 25 25v151c0 15-10 26-25 26zm179 102V356c0-15 9-26 24-26s26 11 26 26v102c0 15-9 26-24 26s-26-11-26-26zM40 356c-15 0-26-11-26-26v-48c0-15 11-26 26-26s25 11 25 26v48c0 15-10 26-25 26z"/>
</svg>