<svg xmlns="http://www.w3.org/2000/svg" viewBox="0 0 512 512">
	<path d="M17 74C17 34 49 2 89 2h334c40 0 72 32 72 72v143c0 40-32 72-72 72h-48c-13 0-24-11-24-24s11-24 24-24h48c13 0 24-11 24-24V74c0-13-11-24-24-24H89c-13 0-24 11-24 24v143c0 13 11 24 24 24h48c15 0 23 11 23 24s-8 24-23 24H89c-40 0-72-32-72-72V74zm358 358c0-17 14-44 29-67 6-8 13-11 20-11 8 0 15 3 19 11 12 23 28 52 28 67 0 27-21 48-48 48s-48-21-48-48zm-119 48c-27 0-48-21-48-48 0-17 14-44 29-67 6-8 12-11 19-11s14 3 19 11c12 23 29 52 29 67 0 27-21 48-48 48zM41 432c0-19 23-78 47-78 7 0 15 3 20 11 12 23 28 52 28 67 0 27-20 48-47 48s-48-21-48-48zm191-143c-13 0-24-11-24-24s11-24 24-24h48c13 0 24 11 24 24s-11 24-24 24h-48z"/>
</svg>