<svg xmlns="http://www.w3.org/2000/svg" viewBox="0 0 512 512">
	<path d="M379.5 325c-7-11-3-25 8-32 39-24 62-66 62-113 0-72-60-131-133-131-37 0-71 16-96 43-9 9-24 12-35 1-9-9-10-24-1-33 33-39 81-59 132-59 99 0 181 80 181 179 0 63-32 118-84 153-5 3-10 4-14 4-8 0-16-5-20-12zm-76-149v-72c0-13 11-24 24-24s24 11 24 24v48h47c13 0 24 11 24 24 0 15-11 23-24 23h-71c-13 0-24-8-24-23zm-278 209l116-230c11-23 33-34 56-34 25 0 44 11 55 34l118 230c11 21 9 44-3 64-12 19-32 31-53 31h-233c-23 0-42-12-54-31-13-21-13-43-2-64zm56 47h233c7 0 9-4 12-7 4-5 4-12 1-19l-118-228c-3-7-7-10-12-10-3 0-9 2-13 10l-116 228c-3 7-4 14 0 19 1 5 6 7 13 7zm98-129v-53c0-11 7-19 18-19 12 0 18 6 18 19v53c0 13-6 19-18 19-11 0-18-8-18-19zm18 46c15 0 27 12 27 27s-12 26-27 26-28-11-28-26 13-27 28-27z"/>
</svg>