<svg xmlns="http://www.w3.org/2000/svg" viewBox="0 0 512 512">
	<path d="M304 121c14 0 24 10 24 25v95c0 14-10 24-24 24-15 0-25-10-25-24v-95c0-15 10-25 25-25zm0 168c14 0 24 9 24 24v72c0 15-10 24-24 24-15 0-25-9-25-24v-72c0-15 10-24 25-24zM112 1c15 0 24 9 24 24v72c0 15-9 24-24 24-14 0-24-9-24-24V25c0-15 10-24 24-24zm97 264c14 0 24 9 24 24v96c0 15-10 24-24 24-15 0-25-9-25-24v-96c0-15 10-24 25-24zm0-216c14 0 24 10 24 24v143c0 15-10 25-24 25-15 0-25-10-25-25V73c0-14 10-24 25-24zm-97 264c15 0 24 9 24 24v48c0 15-9 24-24 24-14 0-24-9-24-24v-48c0-15 10-24 24-24zm0-167c15 0 24 9 24 24v95c0 14-9 24-24 24-14 0-24-10-24-24v-95c0-15 10-24 24-24zm288 191c15 0 24 9 24 24v24c0 15-9 24-24 24s-24-9-24-24v-24c0-15 9-24 24-24zm0-109c15 0 24 10 24 25v24c0 14-9 24-24 24s-24-10-24-24v-24c0-15 9-25 24-25zM64 432h384c15 0 24 9 24 24s-9 24-24 24H64c-15 0-24-9-24-24s9-24 24-24z"/>
</svg>