<svg xmlns="http://www.w3.org/2000/svg" viewBox="0 0 512 512">
	<path d="M256 278v-76c0-12 11-22 24-22h71c15 0 24 10 24 22v76c0 12-9 22-24 22h-71c-13 0-24-10-24-22zm-71 104c0-12 11-21 24-21h71c15 0 24 9 24 21v75c0 12-9 23-24 23h-71c-13 0-24-11-24-23v-75zM145 98V23c0-12 10-23 25-23h51c15 0 26 11 26 23v75c0 12-11 21-26 21h-51c-15 0-25-9-25-21zM16 23C16 11 26 0 41 0h26c15 0 27 11 27 23v75c0 12-12 21-27 21H41c-15 0-25-9-25-21V23zm283 0c0-12 10-23 25-23h26c15 0 25 11 25 23v75c0 12-10 21-25 21h-26c-15 0-25-9-25-21V23zM135 278v-76c0-12 11-22 24-22h25c13 0 24 10 24 22v76c0 12-11 22-24 22h-25c-13 0-24-10-24-22zM88 480c-13 0-24-11-24-23v-75c0-12 11-21 24-21h25c13 0 24 9 24 21v75c0 12-11 23-24 23H88zm360-180c-15 0-24-10-24-22v-76c0-12 9-22 24-22h24c13 0 24 10 24 22v76c0 12-11 22-24 22h-24zm-71 180c-15 0-24-11-24-23v-75c0-12 9-21 24-21h24c13 0 24 9 24 21v75c0 12-11 23-24 23h-24z"/>
</svg>