<svg xmlns="http://www.w3.org/2000/svg" viewBox="0 0 512 512">
	<path d="M258.717 476c-12-7-15-21-8-32 58-95 35-136 3-187-34-55-75-122-3-244 3-7 10-11 19-11 5 0 9 1 13 3 11 7 15 20 8 32-56 99-29 143 3 194 34 55 71 118-3 238-5 7-12 11-20 11-5 0-9-1-12-4zm-120-471c13 8 17 19 10 32-56 99-31 143 1 194 34 55 74 118-1 238-6 7-13 11-20 11-6 0-11-1-14-4-11-7-14-21-7-32 60-94 35-137 3-187-35-56-73-121-4-244 5-7 12-11 21-11 5 0 8 1 11 3zm273 475c-5 0-9-1-12-4-11-7-15-21-8-32 61-96 35-136 3-187-35-56-72-121-3-244 5-7 12-11 21-11 5 0 8 1 11 3 11 7 16 20 9 32-56 99-30 143 2 194 34 55 72 118-2 238-5 7-12 11-21 11z"/>
</svg>