<svg xmlns="http://www.w3.org/2000/svg" viewBox="0 0 512 512">
	<path d="M0 340.114v-53.943C0 213.03 51.2 152.686 118.857 136.23c-6.4-7.315-8.228-16.458-8.228-26.515V80.457c0-10.057 4.571-14.628 12.8-14.628l23.771 7.314h11.886l23.771-7.314c10.057 0 14.629 4.571 14.629 14.628v29.257c0 10.057-2.743 19.2-9.143 26.515C256 152.686 307.2 213.029 307.2 286.17c0 11.886-10.057 21.943-21.943 21.943s-21.943-10.057-21.943-21.943c0-61.257-49.371-110.628-110.628-110.628-59.429 0-108.8 49.371-108.8 110.628v53.943c0 30.172 24.685 54.857 56.685 54.857h96.915c11.885 0 21.943 10.058 21.943 21.943s-10.058 21.943-21.943 21.943H100.57C46.63 438.857 0 394.971 0 340.114zm393.143-100.571c-65.829 0-118.857-54.857-118.857-120.686 0-11.886 10.057-21.943 21.943-21.943s21.942 10.057 21.942 21.943c0 42.972 32 76.8 74.972 76.8 41.143 0 75.886-33.828 75.886-76.8 0-41.143-34.743-74.057-75.886-74.057-13.714 0-21.943-10.057-21.943-21.943 0-13.714 8.229-21.943 21.943-21.943C458.97.914 512 53.03 512 118.857s-53.029 120.686-118.857 120.686zm-107.886 172.8c-7.314-7.314-7.314-19.2 0-26.514l7.314-7.315-7.314-7.314c-7.314-7.314-7.314-18.286 0-25.6 3.657-3.657 8.229-5.486 12.8-5.486s9.143 1.829 12.8 5.486l24.686 25.6c1.828 2.743 3.657 2.743 4.571 0 2.743-1.829 2.743-3.657 0-4.571l-9.143-10.058c-15.542-14.628-15.542-41.142 0-55.771 7.315-8.229 16.458-11.886 25.6-11.886 7.315 0 13.715 1.829 20.115 5.486l9.143-8.229c3.657-3.657 8.228-5.485 12.8-5.485s9.142 1.828 12.8 5.485c8.228 8.229 8.228 17.372 0 25.6l-7.315 7.315 7.315 7.314c8.228 8.229 8.228 16.457 0 24.686-3.658 3.657-8.229 5.485-12.8 5.485s-9.143-1.828-12.8-5.485L361.143 326.4c-.914-2.743-2.743-2.743-4.572 0-2.742.914-2.742 2.743 0 4.571l9.143 10.058c2.743 2.742 5.486 6.4 7.315 9.142 6.4 14.629 4.571 33.829-7.315 45.715-7.314 8.228-17.371 12.8-27.428 12.8-6.4 0-12.8-1.829-18.286-5.486l-9.143 9.143c-3.657 3.657-8.228 5.486-12.8 5.486s-9.143-1.829-12.8-5.486zM371.2 125.257V85.03c0-11.886 8.229-21.943 21.943-21.943 11.886 0 21.943 10.057 21.943 21.943v32l15.543 17.371c10.057 8.229 7.314 22.857-.915 31.086-3.657 3.657-8.228 5.485-14.628 5.485-5.486 0-10.972-2.742-17.372-7.314l-21.028-23.771c-3.657-3.657-5.486-8.229-5.486-14.629z"/>
</svg>