<svg xmlns="http://www.w3.org/2000/svg" viewBox="0 0 512 512">
	<path d="M317.5 85h41c77 0 140 63 140 140 0 13-8 24-23 24-13 0-24-11-24-24 0-52-41-93-93-93h-41l43 43c14 14 5 40-18 40-6 0-11-2-16-7l-83-83c-5-5-7-10-7-16s2-12 7-18l83-83c11-10 23-10 34 0 10 11 10 23 0 34zm41 248l39 23c13 7 17 20 10 33-7 12-21 16-32 9l-29-16-29 16v32c0 27-22 50-49 50h-45c-27 0-50-23-50-50v-31l-30-17-26 16c-23 13-53 6-68-17l-23-41c-13-23-5-54 18-67l28-15v-35l-28-16c-23-13-31-44-18-67l23-39c15-23 45-31 68-18l38 23c13 7 16 20 9 33-7 12-22 15-33 8l-39-22-24 39 39 24c8 4 12 14 12 22v62c0 9-4 16-12 20l-39 23 23 41 40-23c9-5 17-5 24 0l54 31c8 4 12 11 12 21v45l47 2 2-47c0-11 4-18 12-22l52-30c9-5 17-5 24 0z"/>
</svg>