<svg xmlns="http://www.w3.org/2000/svg" viewBox="0 0 512 512">
	<path d="M512 159.881c0 64.714-54.245 118.96-118.96 118.96s-118.958-54.246-118.958-118.96c0-65.665 54.245-119.91 118.959-119.91S512 94.215 512 159.88zm-118.96 75.182c41.874 0 75.183-33.308 75.183-75.182s-33.309-76.134-75.182-76.134-75.182 34.26-75.182 76.134 33.308 75.182 75.182 75.182zm21.89-78.037l16.178 17.13c8.565 8.565 6.662 22.84-1.904 31.405-3.806 3.807-8.565 5.71-14.275 5.71s-11.42-2.855-16.178-7.613l-21.889-22.84c-3.806-3.807-5.71-8.565-5.71-15.227V124.67c0-12.372 9.517-21.888 21.889-21.888s21.888 9.516 21.888 21.888v32.357zm-19.986 234.112v-46.632c0-12.372 9.517-21.889 21.889-21.889s21.888 9.517 21.888 21.889v46.632c0 37.115-28.55 65.665-65.665 65.665H65.666C28.55 456.803 0 428.253 0 391.138V172.253c0-37.115 28.55-66.617 65.665-66.617h142.751c12.372 0 21.889 9.516 21.889 21.888s-9.517 22.84-21.889 22.84H65.666c-4.759 0-8.566.952-10.469 1.904l154.171 96.119c8.565 4.758 16.178 4.758 23.792 0l12.372-6.662c10.468-6.662 22.84-.952 29.501 9.517s.952 22.84-9.516 29.501l-11.42 5.71c-10.469 6.662-21.889 9.517-32.357 9.517-12.372 0-24.744-3.806-35.212-10.468L43.777 196.996v194.142c0 12.371 9.517 21.888 21.888 21.888h307.39c12.373 0 21.89-9.517 21.89-21.888z"/>
</svg>