<svg xmlns="http://www.w3.org/2000/svg" viewBox="0 0 512 512">
	<path d="M6 250c0-45 36-81 80-81 36 0 66 24 77 57h68V82c0-15 10-24 25-24h92c11-35 41-58 77-58 45 0 81 36 81 81 0 44-36 80-81 80-36 0-65-23-76-55h-69v288h69c11-32 40-55 76-55 45 0 81 36 81 80 0 45-36 81-81 81-36 0-66-24-77-57h-92c-13 0-25-12-25-25V274h-68c-11 33-41 56-77 56-44 0-80-36-80-80zm80-32c-19 0-32 13-32 32s13 32 32 32c15 0 26-7 31-22l3-10-3-10c-5-15-16-22-31-22zm306 201l2 10c5 13 16 23 31 23 19 0 32-14 32-33 0-17-13-32-32-32-15 0-25 8-30 23zm2-347l-2 9 3 10c5 15 15 22 30 22 19 0 32-13 32-32s-13-32-32-32c-15 0-26 8-31 23z"/>
</svg>