<svg xmlns="http://www.w3.org/2000/svg" viewBox="0 0 512 512">
	<path d="M118.5 116l96-98c23-23 59-23 82 0l98 98c23 23 23 59 0 82l-98 98c-11 11-24 16-40 16-15 0-31-5-42-16l-96-98c-12-12-18-26-18-42 0-15 6-28 18-40zm33 48l97 97c5 5 10 5 14 1l98-98c5-5 5-9 0-14l-98-98c-1-2-3-3-6-3s-5 0-8 3l-97 98c-3 3-4 5-4 6 0 3 1 5 4 8zm80-25v-31c0-15 10-23 25-23 13 0 24 8 24 23v31c0 13-11 24-24 24-15 0-25-11-25-24zm49 63c0 15-11 25-24 25-15 0-25-10-25-25 0-13 10-23 25-23 13 0 24 10 24 23zm144 134c39 0 71 33 71 72s-32 72-71 72c-40 0-72-33-72-72s32-72 72-72zm-336 0c39 0 72 33 72 72s-33 72-72 72-72-33-72-72 33-72 72-72z"/>
</svg>