<svg xmlns="http://www.w3.org/2000/svg" viewBox="0 0 512 512">
	<path d="M51.022 206.912c-29.973 0-50.278-23.205-50.278-51.245V53.178c0-28.04 20.305-51.244 50.278-51.244h409.956c29.973 0 50.278 23.205 50.278 51.244v102.49c0 28.039-20.305 51.244-50.278 51.244H51.022zM.744 444.764c-2.9-11.603 2.9-23.205 13.536-29.973l40.61-19.338c10.635-4.834 21.27-7.735 32.873-7.735h27.073c12.57 0 24.172 2.9 35.774 7.735l28.04 14.503 29.973-14.503c10.636-4.834 21.271-7.735 32.874-7.735h27.072c12.57 0 24.172 2.9 34.808 7.735l29.006 14.503 29.007-14.503c11.602-4.834 23.205-7.735 33.84-7.735h27.073c12.57 0 24.172 2.9 34.808 7.735l40.609 19.338c10.635 6.768 16.436 18.37 13.536 29.973s-13.536 19.338-25.139 19.338h-461.2c-11.603 0-21.272-7.735-24.173-19.338zm101.522-82.185c-28.04 0-51.244-24.172-51.244-52.211s23.205-51.245 51.244-51.245c29.974 0 52.212 23.205 52.212 51.245s-22.238 52.211-52.212 52.211zm307.468 0c-28.04 0-52.212-24.172-52.212-52.211s24.172-51.245 52.212-51.245 51.244 23.205 51.244 51.245-23.205 52.211-51.244 52.211zm-204.979-52.211c0-28.04 23.206-51.245 51.245-51.245s51.245 23.205 51.245 51.245-23.206 52.211-51.245 52.211-51.245-24.172-51.245-52.211z"/>
</svg>