<svg xmlns="http://www.w3.org/2000/svg" viewBox="0 0 512 512">
	<path d="M59.125 193v239h383V265h-73v96c0 13-10 23-24 23h-95c-13 0-24-10-24-23v-72h-72c-13 0-24-11-24-24v-72h-71zm286 24h121c13 0 24 10 24 24v215c0 7-3 13-7 17s-11 7-17 7h-431c-13 0-24-11-24-24V25c0-13 11-24 24-24s24 11 24 24v121h95c13 0 24 9 24 22v73h72c14 0 24 10 24 24v72h49v-96c0-14 9-24 22-24zm149-139c9 9 9 24 0 33l-59 59c-1 1-1 1-3 1-1 1-4 3-5 4-3 1-7 1-10 1-2 0-6 0-9-1-1-1-4-3-5-4-2 0-2 0-3-1l-59-59c-9-9-9-24 0-33 10-10 26-10 35 0l17 17V25c0-13 11-24 24-24 14 0 25 11 25 24v70l17-17c9-10 25-10 35 0z"/>
</svg>