<svg xmlns="http://www.w3.org/2000/svg" viewBox="0 0 512 512">
	<path d="M145 392l33-33c5-5 12-8 18-8 7 0 13 3 18 8 11 10 11 26 0 36l-77 77c-5 5-11 8-18 8s-13-3-18-8l-77-77c-11-10-11-26 0-36 5-5 12-8 18-8 7 0 13 3 18 8l33 33V94c0-14 12-26 26-26s26 12 26 26v298zm325-273H290c-15 0-26-11-26-25s11-26 26-26h180c14 0 26 12 26 26s-12 25-26 25zm-180 65h180c14 0 26 11 26 26 0 14-12 25-26 25H290c-15 0-26-11-26-25 0-15 11-26 26-26zm0 129h180c14 0 26 11 26 25 0 15-12 26-26 26H290c-15 0-26-11-26-26 0-14 11-25 26-25zm0 115h180c14 0 26 12 26 26s-12 26-26 26H290c-15 0-26-12-26-26s11-26 26-26z"/>
</svg>