<svg xmlns="http://www.w3.org/2000/svg" viewBox="0 0 512 512">
	<path d="M68.808 366.977C30.581 366.977 0 336.396 0 298.17v-89.833c0-38.227 30.581-68.808 68.808-68.808h227.45c38.226 0 68.808 30.581 68.808 68.808v22.936h22.936c38.227 0 68.808 28.67 68.808 66.897v91.744c0 38.227-30.581 68.808-68.808 68.808h-227.45c-38.226 0-68.808-30.581-68.808-68.808v-22.936H68.808zm68.808 22.936c0 12.424 10.513 22.936 22.936 22.936h227.45c14.335 0 22.936-10.512 22.936-22.936V298.17c0-12.424-8.601-21.98-22.936-21.98h-227.45c-12.423 0-22.936 9.556-22.936 21.98v91.744zM45.872 298.17c0 12.424 10.513 22.936 22.936 22.936h22.936v-22.936c0-38.227 30.582-66.897 68.808-66.897h158.642v-22.936c0-14.335-8.601-22.936-22.936-22.936H68.808c-12.423 0-22.936 8.6-22.936 22.936v89.833zm315.371-191.134c-8.6-8.601-8.6-22.936 0-31.537 5.734-4.778 10.512-7.645 16.247-7.645s11.468 2.867 16.246 7.645l16.246 16.246v-65.94c0-12.425 10.513-22.937 22.936-22.937s22.936 10.512 22.936 22.936v65.941l18.158-16.246c4.778-4.778 10.512-6.69 16.247-6.69s11.468 1.912 15.29 6.69c8.601 8.6 8.601 22.936 0 31.537l-56.384 56.385c-3.823 3.822-9.557 7.645-16.247 7.645s-10.512-3.823-15.29-7.645z"/>
</svg>