<svg xmlns="http://www.w3.org/2000/svg" viewBox="0 0 512 512">
	<path d="M16.5 240c0-132 108-239 240-239s239 107 239 239-107 240-239 240-240-108-240-240zm48 0c0 105 87 192 192 192s191-87 191-192-86-191-191-191-192 86-192 191zm151-40l15 16c9 9 9 25 0 34-5 5-10 7-16 7s-12-2-17-7l-16-16-15 16c-5 5-11 7-17 7s-12-2-17-7c-9-9-9-25 0-34l15-16-15-15c-9-9-9-25 0-34s24-9 33 0l16 15 16-15c9-9 24-9 33 0s9 25 0 34zm163-48c9 9 9 25 0 34l-15 15 15 16c9 9 9 24 0 33-5 5-11 8-17 8s-12-3-17-8l-15-15-16 15c-5 5-11 8-17 8s-12-3-17-8c-9-9-9-24 0-33l16-16-16-15c-9-9-9-25 0-34s25-9 34 0l16 15 15-15c9-9 25-9 34 0zm-124 234c-27 0-49-22-49-49s22-49 49-49 50 22 50 49-23 49-50 49z"/>
</svg>