<svg xmlns="http://www.w3.org/2000/svg" viewBox="0 0 512 512">
	<path d="M256 263c48 0 89 22 115 58 8 10 5 26-4 34-10 7-27 4-34-5-17-24-46-39-77-39s-60 15-77 39c-7 9-24 12-33 5-10-8-12-24-5-34 26-36 67-58 115-58zm0-264c132 0 240 108 240 240S388 479 256 479 16 371 16 239 124-1 256-1zm0 432c106 0 192-86 192-192 0-105-86-192-192-192-105 0-192 87-192 192 0 106 87 192 192 192zm-48-252c0 20-16 36-36 36s-36-16-36-36 16-36 36-36 36 16 36 36zm132-36c20 0 36 16 36 36s-16 36-36 36-36-16-36-36 16-36 36-36z"/>
</svg>