<svg xmlns="http://www.w3.org/2000/svg" viewBox="0 0 512 512">
	<path d="M17 384c0-13 11-24 24-24v-23c-13 0-24-9-24-24 0-13 11-24 24-24v-99c-13 0-24-9-24-24 0-13 11-24 24-24v-21c-13 0-24-8-24-23 0-13 11-24 24-24 0-40 32-72 72-72h286c40 0 72 32 72 72 13 0 24 11 24 24v92c0 15-11 24-24 24v53c13 0 24 9 24 24v92c0 13-11 24-24 24v1c0 40-32 72-72 72H113c-40 0-72-32-72-72-13 0-24-11-24-24zm72 24c0 13 11 24 24 24h286c13 0 24-11 24-24V74c0-13-11-24-24-24H113c-13 0-24 11-24 24v334zm49-125c0-15 9-24 24-24h3c3-7 4-16 9-23l-6-8c-11-11-11-23 0-34 5-5 11-7 17-7s12 2 16 7l7 8c5-5 13-8 24-10v-2c0-15 9-24 24-24s24 9 24 24v2c7 3 17 5 24 10l7-8c5-5 11-7 17-7s12 2 16 7c10 11 10 23 0 34l-7 8c7 7 7 12 10 23h2c16 0 24 8 24 24 0 15-9 24-24 24h-2c-3 7-3 17-10 24l7 6c9 11 9 26 0 35-4 4-10 7-16 7s-12-3-17-7l-7-8c-7 5-15 6-24 9v3c0 16-8 24-24 24s-24-8-24-24v-3c-7-3-17-4-24-9l-7 8c-4 4-10 7-16 7s-12-3-17-7c-11-9-11-24 0-35l6-6c-5-7-6-15-9-24h-3c-15 0-24-9-24-24zm22-151c-15 0-23-11-23-24 0-15 8-24 23-24h192c13 0 23 9 23 24 0 13-10 24-23 24H160zm99 199c27 0 48-22 48-48 0-18-10-35-27-43-6-2-13-4-21-4-10 0-19 3-27 8-6 3-12 9-15 15-5 7-7 15-7 24 0 28 21 48 49 48z"/>
</svg>