<svg xmlns="http://www.w3.org/2000/svg" viewBox="0 0 512 512">
	<path d="M173.219 193l-14 32c-4 10-11 15-21 15h-49c-10 0-17-5-21-15l-15-35-26-51c-9-20-12-41-8-63 8-39 38-66 75-73 31-5 57 1 80 20 21 19 35 46 35 75 0 13-3 26-9 40zm-44-20l27-55c3-6 4-13 4-20 0-16-6-29-17-38-10-9-23-12-39-10-19 3-34 18-38 37-3 11 0 20 4 31l26 52 9 23h16zm15 211l117-229c11-21 33-33 56-33s44 12 55 33l117 229c11 21 10 46-3 66s-30 30-53 30h-233c-23 0-40-10-53-30-13-21-14-43-3-66zm56 48h233c7 0 9-4 12-7 4-6 4-12 1-18l-117-230c-4-8-9-8-12-8s-10 0-14 8l-116 230c-2 6-2 12 0 18 3 3 6 7 13 7zm134-182v54c0 11-6 18-17 18s-19-7-19-18v-54c0-13 6-19 19-19 11 0 17 6 17 19zm-196 47h-49c-13 0-24-11-24-24 0-15 11-25 24-25h49c13 0 22 10 22 25 0 13-9 24-22 24zm179 52c15 0 27 12 27 27s-12 27-27 27-27-12-27-27 12-27 27-27z"/>
</svg>