<svg xmlns="http://www.w3.org/2000/svg" viewBox="0 0 512 512">
	<path d="M42.5 336c-13 0-25-11-25-26v-31c0-13 12-25 25-25h20V75c0-15 10-24 25-24h89c11 0 18 4 22 13l109 202c2 3 3 7 3 12v32c0 15-11 26-24 26h-244zm288-311c0-13 11-24 24-24s23 11 23 24v261h95c13 0 24 8 24 23 0 13-11 24-24 24h-142V25zm-313 385c0-39 31-70 70-70s70 31 70 70-31 70-70 70-70-31-70-70zm223 70c-39 0-69-31-69-70s30-70 69-70 70 31 70 70-31 70-70 70zm-79-381h-50v155h135zm253 171c-8 0-14-7-14-15v-95c0-8 6-16 14-16h66c8 0 14 8 14 16v95c0 8-6 15-14 15h-66zm-196 140c0 12 10 22 22 22s22-10 22-22-10-22-22-22-22 10-22 22zm-153 0c0 12 10 22 22 22s22-10 22-22-10-22-22-22-22 10-22 22z"/>
</svg>