<svg xmlns="http://www.w3.org/2000/svg" viewBox="0 0 512 512">
	<path d="M330.5 333V25c0-13 11-24 24-24s23 11 23 24v261h95c13 0 24 9 24 23 0 13-11 24-24 24h-142zm-44 3h-244c-13 0-25-12-25-26v-31c0-13 12-25 25-25h20V75c0-14 11-24 25-24h89c10 0 18 5 22 13l109 202c3 4 3 8 3 12v32c0 14-11 26-24 26zm-40-82l-85-155h-50v155h135zm248-94v95c0 8-6 15-14 15h-66c-8 0-14-7-14-15v-95c0-8 6-16 14-16h66c8 0 14 8 14 16zm-254 180c39 0 70 32 70 70 0 39-31 70-70 70-38 0-69-31-69-70 0-38 31-70 69-70zm-223 70c0-38 31-70 70-70 38 0 70 32 70 70 0 39-32 70-70 70-39 0-70-31-70-70zm70 22c12 0 22-10 22-22s-10-22-22-22-22 10-22 22 10 22 22 22zm175-22c0-12-10-22-22-22s-22 10-22 22 10 22 22 22 22-10 22-22z"/>
</svg>