<svg xmlns="http://www.w3.org/2000/svg" viewBox="0 0 512 512">
	<path d="M474.5 50h-191c-13 0-24-11-24-24 0-14 11-24 24-24h191c13 0 24 10 24 24 0 13-11 24-24 24zm-143 60h143c13 0 24 9 24 23 0 13-11 24-24 24h-143c-13 0-24-11-24-24 0-14 11-23 24-23zm48 107h95c13 0 24 10 24 24 0 13-11 24-24 24h-95c-13 0-24-11-24-24 0-14 11-24 24-24zm76 91c12 6 15 21 8 33l-22 39c-14 24-43 32-67 18l-28-16-30 16v33c0 26-21 49-48 49h-45c-27 0-50-23-50-49v-33l-29-16-28 16c-12 7-25 9-38 4-12-4-22-10-29-22l-23-39c-13-24-5-53 19-67l27-16v-35l-27-16c-24-13-32-42-19-66l23-39c7-11 17-19 29-23 13-4 27-3 38 4l28 16 29-16V51c0-13 11-24 24-24 14 0 24 11 24 24v45c0 8-4 18-12 22l-53 29c-7 4-17 4-24 0l-40-22-24 40 40 24c8 4 12 13 12 21v62c0 8-4 17-12 21l-40 23 23 40 40-22c6-4 16-4 24 0l54 30c8 4 12 13 12 21v46l47 1 2-48c0-8 4-16 12-20l52-31c8-4 17-4 24 0l40 24 24-40c7-12 21-16 33-9z"/>
</svg>