<svg xmlns="http://www.w3.org/2000/svg" viewBox="0 0 512 512">
	<path d="M116 247c0-42 27-82 57-125 23-33 48-67 62-106 3-8 9-14 17-16s17 1 23 7c5 5 126 130 122 241-3 77-65 137-141 137-77 0-140-62-140-138zm97-97c-25 36-49 70-49 97 0 50 41 90 92 90 50 0 90-40 92-91 2-52-35-115-69-160 3 13 4 27 4 43 0 48-13 87-30 87-16 0-29-35-30-80-3 5-7 9-10 14zm209 308c-1 12-12 22-25 22H114c-13 0-24-11-24-24v-28c0-13 11-24 24-24s24 11 24 24v4h93v-1c0-13 11-24 24-24s25 11 25 24v1h94v-7c0-13 11-24 24-24s24 11 24 24v33z"/>
</svg>