<svg xmlns="http://www.w3.org/2000/svg" viewBox="0 0 512 512">
	<path d="M187.5 1c22 0 41 19 41 42 0 22-19 41-41 41-23 0-42-19-42-41 0-23 19-42 42-42zm137 83c-22 0-42-19-42-41 0-23 20-42 42-42s42 19 42 42c0 22-20 41-42 41zm0 54c22 0 42 20 42 42s-20 42-42 42-42-20-42-42 20-42 42-42zm0 139c22 0 42 20 42 42s-20 42-42 42-42-20-42-42 20-42 42-42zm0 138c22 0 42 19 42 41 0 23-20 42-42 42s-42-19-42-42c0-22 20-41 42-41zm-137-277c22 0 41 20 41 42s-19 42-41 42c-23 0-42-20-42-42s19-42 42-42zm0 139c22 0 41 20 41 42s-19 42-41 42c-23 0-42-20-42-42s19-42 42-42zm0 138c22 0 41 19 41 41 0 23-19 42-41 42-23 0-42-19-42-42 0-22 19-41 42-41z"/>
</svg>