<svg xmlns="http://www.w3.org/2000/svg" viewBox="0 0 512 512">
	<path d="M17 145V74C17 34 49 2 89 2h334c40 0 72 32 72 72v71c0 13-10 24-24 24-13 0-24-11-24-24V74c0-14-10-24-24-24H89c-13 0-24 10-24 24v71c0 13-11 24-24 24s-24-11-24-24zm346 139c-3 58-49 104-107 104-59 0-107-47-107-104 0-32 22-63 43-94 16-23 33-47 43-73 2-8 9-14 17-15s16 1 22 7c4 4 92 93 89 175zm-130-69c-1 2-1 2-2 3-18 25-34 48-34 66 0 30 27 56 59 56s58-26 59-58c1-30-19-69-40-99v16c0 34-9 62-21 62-10 0-18-19-21-46zm190 265H89c-40 0-72-32-72-72v-72c0-14 11-24 24-24s24 10 24 24v72c0 13 11 24 24 24h334c14 0 24-11 24-24v-72c0-14 11-24 24-24 14 0 24 10 24 24v72c0 40-32 72-72 72z"/>
</svg>