<svg xmlns="http://www.w3.org/2000/svg" viewBox="0 0 512 512">
	<path d="M307.295 372.037V217.933c0-13.678-9.119-21.884-22.796-21.884H65.654c-11.855 0-21.885 8.206-21.885 21.884v154.104c0 11.854 10.03 21.884 21.885 21.884h218.845c13.677 0 22.796-10.03 22.796-21.884zM65.654 151.367h218.845c37.386 0 66.565 29.18 66.565 66.566v154.104c0 36.474-29.18 65.653-66.565 65.653H65.654C29.179 437.69 0 408.51 0 372.037V217.933c0-37.386 29.18-66.565 65.654-66.565zM430.395 6.384l75.684 75.684c12.766 12.766 3.648 36.474-15.501 36.474-5.472 0-10.03-1.824-14.59-6.383L437.69 74.772v146.809c0 11.854-10.03 21.884-21.884 21.884-13.678 0-21.885-10.03-21.885-21.884V74.772l-38.298 37.386c-5.471 4.56-10.942 6.383-15.501 6.383-20.973 0-29.18-23.708-16.414-36.474l75.684-75.684c.912-.912 1.824-1.824 2.736-1.824.912-.912 3.647-.912 4.559-3.647C408.511 0 411.247 0 415.806 0s7.294 0 8.206.912l3.648 3.647c.912 0 1.823.912 2.735 1.824z"/>
</svg>