<svg xmlns="http://www.w3.org/2000/svg" viewBox="0 0 512 512">
	<path d="M426.5 97h47c14 0 24 10 24 24s-9 24-23 24v263c0 40-32 72-72 72h-291c-40 0-72-32-72-72V145c-15 0-24-10-24-24s10-24 24-24h48V73c0-40 32-72 72-72h195c40 0 72 32 72 72v24zm-267-48c-13 0-24 11-24 24v24h243V73c0-13-11-24-24-24h-195zm243 383c13 0 24-11 24-24V145h-339v263c0 13 11 24 24 24h291zm-236-270c26 0 48 22 48 48s-22 48-48 48-48-22-48-48 22-48 48-48zm195 53c26 0 48 22 48 48s-22 48-48 48-48-22-48-48 22-48 48-48zm-117 101c26 0 48 22 48 48s-22 48-48 48-48-22-48-48 22-48 48-48z"/>
</svg>