<svg xmlns="http://www.w3.org/2000/svg" viewBox="0 0 512 512">
	<path d="M15.5 121c0-15 9-24 24-24h48V73c0-40 32-72 72-72h195c40 0 72 32 72 72v24h47c15 0 24 9 24 24s-8 24-23 24v263c0 40-32 72-72 72h-291c-40 0-72-32-72-72V145c-15 0-24-9-24-24zm72 287c0 13 11 24 24 24h291c13 0 24-11 24-24V145h-339v263zm72-359c-13 0-24 11-24 24v24h243V73c0-13-11-24-24-24h-195zm37 315c0-27 21-48 48-48s48 21 48 48-21 48-48 48-48-21-48-48zm165-53c-27 0-48-21-48-48s21-48 48-48 48 21 48 48-21 48-48 48zm-243-101c0-27 21-48 48-48s48 21 48 48-21 48-48 48-48-21-48-48z"/>
</svg>