<svg xmlns="http://www.w3.org/2000/svg" viewBox="0 0 512 512">
	<path d="M14.71 343.589C4.352 340.136-2.554 328.913.899 318.553l28.489-97.551c.863-3.453 4.316-10.36 7.77-11.223l1.726-1.726h1.727c2.59-.864 3.453-1.727 6.043-1.727s3.453.863 6.043.863h.863l97.551 28.489c10.36 3.453 17.266 14.676 13.813 25.898-2.59 9.497-10.36 13.813-19.856 13.813h-6.043l-49.207-15.54 21.582 38.849c27.625 52.66 85.466 85.465 145.033 85.465 51.797 0 107.91-27.625 136.4-71.653 3.452-6.043 10.359-9.496 16.402-9.496 4.316 0 8.633 1.727 12.086 4.317 9.496 6.906 12.086 19.855 6.043 29.351-39.712 55.25-102.732 88.92-170.931 88.92-74.243 0-144.17-42.302-180.428-107.049l-20.719-38.848-15.539 49.208c-2.59 10.36-9.496 15.54-18.992 15.54-2.59 0-3.453-.864-6.043-.864zm76.834-214.096c-9.497-6.906-12.086-18.129-5.18-27.625 41.438-55.25 100.141-89.782 170.068-89.782 75.969 0 143.306 41.438 181.29 107.048l19.856 37.984 15.539-49.207c2.59-9.496 10.36-15.54 18.992-15.54 1.727 0 3.454 0 5.18.864 10.36 3.453 17.266 15.54 13.813 25.899l-27.626 97.551c-2.59 2.59-1.726 4.317-2.59 6.907l-6.042 5.18h-.864c-.863 0 0 .863-2.59.863l-.863.863c-2.59 0-3.453 1.727-6.043 1.727-.863 0-2.59-1.727-3.453-1.727h-2.59l-97.551-27.625c-10.36-3.453-17.266-15.54-13.813-25.899 2.59-8.633 12.086-15.54 20.719-15.54 1.726 0 3.453 0 5.18.864l49.207 14.676-20.719-37.985c-29.352-51.797-84.602-84.602-144.17-84.602-52.66 0-107.047 26.762-136.399 70.79-4.316 6.043-10.36 8.633-17.265 8.633-4.317 0-8.633-.864-12.086-4.317zm102.73 63.884c-2.589-30.215 16.403-51.798 41.439-56.114V115.68c0-12.95 6.906-19.856 20.719-19.856s20.719 6.906 20.719 19.856v21.582h20.718c12.95 0 19.856 6.906 19.856 19.855 0 13.813-6.906 20.72-19.856 20.72h-51.797c-6.043 0-10.36 4.316-10.36 10.359s3.454 9.496 10.36 9.496h18.13c4.316 0 8.632.863 12.949 1.727 20.718 6.043 38.848 23.308 40.574 45.754 2.59 30.215-16.402 50.07-40.574 56.114v20.719c0 14.675-6.907 21.582-20.72 21.582s-20.718-6.907-20.718-21.582v-20.72H214.13c-12.95 0-19.856-6.906-19.856-19.855 0-14.676 6.906-21.582 19.856-21.582h51.797c7.77 0 11.223-3.453 11.223-10.36 0-6.043-3.454-9.496-11.223-9.496h-17.266c-26.762 0-50.934-19.855-54.387-46.617z"/>
</svg>