<svg xmlns="http://www.w3.org/2000/svg" viewBox="0 0 512 512">
	<path d="M250 100c-12 0-25-7-33-15-5-5-5-11 1-16 5-6 10-6 17 1 1 1 4 3 8 5 5 3 10 2 17-2 7-6 9-13 6-21s-5-12-5-12v1c-3-3-4-5-5-7-1-3-3-5-5-7-1-1-1-2-1-2l-3-5c0-1 0-1-1-2-3-7-2-13 5-16 8-4 14-2 17 5 4 7 6 11 9 15l3 3c0 1 1 1 1 2 3 5 5 10 6 13 1 5 3 10 4 17 0 6-1 12-3 17-5 15-23 26-38 26zm194 34c-3 0-3-1-4-1h-3L323 83c-9-5-12-12-8-21s11-11 20-8l114 50c9 5 12 12 8 21-3 6-7 9-13 9zM48 124c-3-9 0-16 9-20l116-46c9-3 16 0 20 9s1 15-9 19L68 132h-1l-3 1c-7 0-13-3-16-9zm443 31c10 9 15 20 15 34v263c0 27-23 48-50 48H56c-13 0-25-5-36-14-9-9-14-21-14-34V189c0-28 22-48 50-48h400c14 0 26 5 35 14zm-35 297V189H56v263h400zm-285-77l25 9c4 1 7 3 9 8 2 3 2 7 1 11-1 8-9 13-17 9l-58-21c-4-1-7-3-9-8-2-3-2-6-1-11l15-60c1-4 3-7 6-9 5-1 8-1 11 0s6 4 8 7c2 5 3 9 2 12l-6 26 182-82-25-9c-5-2-8-5-9-8-1-4-2-8-1-11 1-4 4-7 7-9s6-2 10-1l59 22c5 2 7 4 8 7 2 5 3 9 2 12l-15 60c-1 4-4 7-7 9-2 2-5 2-10 0-4-2-7-4-9-7s-2-7-1-12l6-26z"/>
</svg>