<svg xmlns="http://www.w3.org/2000/svg" viewBox="0 0 512 512">
	<path d="M89 133l31 31c4 5 7 10 7 18 0 12-12 24-24 24-6 0-12-3-17-8l-73-72c-5-5-7-11-7-18 0-6 2-11 7-16l73-74c4-4 10-6 17-6s12 2 17 6c5 6 7 12 7 17 0 6-2 12-7 18L89 84h334l-32-31c-5-5-7-11-7-18 0-6 2-12 7-17 5-4 11-6 17-6 7 0 13 2 18 6l72 74c5 5 8 11 8 16 0 7-3 13-8 18l-72 72c-7 5-13 8-18 8s-10-3-17-8c-5-5-7-10-7-16 0-7 2-13 7-18l32-31H89zm338 323V286c0-7 2-13 6-18 4-4 10-6 17-6 16 0 24 8 24 24v170c0 16-8 24-24 24-7 0-13-2-17-6-4-5-6-11-6-18zM280 286v170c0 16-8 24-24 24-17 0-25-8-25-24V286c0-16 8-24 25-24 16 0 24 8 24 24zm-194 0v170c0 16-8 24-25 24-16 0-24-8-24-24V286c0-16 8-24 24-24 17 0 25 8 25 24zm291 48v122c0 16-8 24-24 24s-24-8-24-24V334c0-7 2-13 7-17 5-5 10-7 17-7s12 2 17 7c5 4 7 10 7 17zm-195 0v122c0 16-8 24-24 24s-24-8-24-24V334c0-7 2-13 6-17 6-5 12-7 18-7s12 2 18 7c4 4 6 10 6 17z"/>
</svg>