<svg xmlns="http://www.w3.org/2000/svg" viewBox="0 0 512 512">
	<path d="M160.5 265v167h191V265c0-14-10-24-24-24h-143c-13 0-24 10-24 24zm24-72h143c40 0 72 32 72 72v167c0 27-21 48-48 48h-191c-27 0-48-21-48-48V265c0-40 32-72 72-72zm95 120h20c14 0 24 11 24 24s-10 23-24 23h-20v20c0 13-11 24-24 24s-24-11-24-24v-20h-19c-13 0-24-10-24-23s11-24 24-24h19v-20c0-14 11-24 24-24s24 10 24 24v20zm72-144h-191c-13 0-24-11-24-25 0-13 11-24 24-24h72V25c0-13 10-24 23-24s24 11 24 24v97h72c14 0 24 9 24 22 0 14-10 25-24 25z"/>
</svg>