<svg xmlns="http://www.w3.org/2000/svg" viewBox="0 0 512 512">
	<path d="M46.5 471c-13 0-24-11-24-24v-24c0-128 105-233 234-233 128 0 233 105 233 233v24c0 13-9 24-22 24-15 0-24-11-24-24v-24c0-104-83-187-187-187-101 0-187 83-187 187v24c0 13-10 24-23 24zm176-24c-19-26-10-67 21-84l105-61c4-3 8-4 13-4 16 0 30 19 20 36l-62 106c-10 19-31 30-52 30-11 0-23-4-32-10-1 0-13-12-13-13zm-15-377v-4c0-4 1-8 1-11 5-12 9-14 20-14 11 1 16 9 15 20v9c0 15 12 27 27 27h81c15 0 28-12 28-27v-4c0-15-13-28-28-28h-29c-11 0-19-8-19-17 0-11 8-18 19-18h29c35 0 62 28 62 63v4c0 35-27 63-62 63h-81c-35 0-63-28-63-63zm-47 63c-35 0-62-28-62-63v-4c0-35 27-63 62-63h82c36 0 62 28 62 63v4c0 3-1 6-1 9-1 11-10 15-20 15-9-1-16-11-15-20v-8c0-15-11-28-26-28h-82c-15 0-27 13-27 28v4c0 15 12 27 27 27h30c9 0 17 8 17 17s-8 19-17 19h-30z"/>
</svg>