<svg xmlns="http://www.w3.org/2000/svg" viewBox="0 0 512 512">
	<path d="M6 99c0-15 7-22 21-22h132l-28-28c-5-4-7-9-7-15 0-7 2-12 7-16 5-5 9-7 14-7s10 2 16 7l66 66c4 5 6 10 6 15s-2 10-6 15l-66 66c-6 5-11 7-16 7s-9-2-14-7c-5-4-7-9-7-16 0-6 2-11 7-15l28-28H27c-14 0-21-7-21-22zm272 0c0-6 2-11 6-15l66-66c4-4 9-6 15-6 12 0 22 10 22 22 0 5-2 10-7 15l-28 28h131c7 0 12 2 16 7 5 4 7 9 7 15 0 7-2 12-7 16-4 4-9 6-16 6H352l28 29c5 4 7 9 7 15 0 11-11 22-22 22-5 0-10-2-15-7l-66-65c-4-4-6-9-6-16zm-47 357V286c0-17 8-25 25-25 16 0 24 8 24 25v170c0 16-8 24-24 24-17 0-25-8-25-24zm-194 0V286c0-17 8-25 24-25 17 0 25 8 25 25v170c0 16-8 24-25 24-16 0-24-8-24-24zm390 0V286c0-7 2-13 6-18 5-5 10-7 17-7 16 0 24 8 24 25v170c0 16-8 24-24 24-7 0-13-2-17-7-4-4-6-10-6-17zM134 334c0-16 8-24 24-24s24 8 24 24v122c0 16-8 24-24 24s-24-8-24-24V334zm195 0c0-7 2-13 7-17 4-5 10-7 17-7s13 2 17 7c5 4 7 10 7 17v122c0 7-2 13-7 17-4 5-10 7-17 7-16 0-24-8-24-24V334z"/>
</svg>