<svg xmlns="http://www.w3.org/2000/svg" viewBox="0 0 512 512">
	<path d="M64 456V168c0-7 2-12 7-17L215 7c5-5 10-7 17-7h192c13 0 24 11 24 24v432c0 12-9 24-24 24H88c-15 0-24-12-24-24zm58-288l-10 10v254h288V48H242l-10 10v62c0 27-21 48-48 48h-62zm32 196c-9 0-14-5-14-14v-70c0-8 6-15 14-15h32c7 0 11 3 12 10h20c7-7 17-12 28-14v-9h-7c-3 0-4-1-4-3v-9h-17c-3 0-5-2-5-5v-42c0-12 9-22 21-22h46c12 0 22 10 22 22v42c0 3-2 5-5 5h-17v9c0 2-1 3-4 3h-7v9c11 2 20 7 27 15h20c2-6 6-10 12-10h33c9 0 14 5 14 14v70c0 9-5 14-14 14h-33c-6 0-10-3-11-10h-22c-4 4-9 7-13 10-8 4-16 6-25 6s-18-2-26-6c-4-3-9-6-13-10h-20c-1 7-5 10-11 10h-33zm10-24h11c0-6 5-10 11-10h40c3 0 6 1 8 4l6 6c5 4 11 6 17 6 7 0 14-2 19-6 2-1 3-3 5-5 2-3 5-5 8-5h39c7 0 11 3 12 10h11v-50h-11c-1 7-5 10-12 10h-37c-5 0-8-2-10-5-6-7-14-11-24-11s-18 4-24 11c-2 2-5 3-9 4h-38c-6 0-10-3-11-10h-11v51zm98-125c0 7 5 12 12 12s12-5 12-12v-12c0-8-4-12-12-12s-12 4-12 12v12zm-33 0c0 7 5 12 12 12s12-5 12-12v-12c0-7-5-12-12-12-8 0-12 4-12 12v12z"/>
</svg>