<svg xmlns="http://www.w3.org/2000/svg" viewBox="0 0 512 512">
	<path d="M123.562 409.236h121.584c14.828 0 26.69 13.84 26.69 28.667s-11.862 26.689-26.69 26.689H123.562C56.344 464.592 0 409.236 0 342.019v-68.206C0 182.87 64.252 106.757 147.285 88.964c-7.907-10.873-11.861-21.746-11.861-32.62V19.77c0-10.874 7.908-17.793 18.781-17.793l26.69 7.908c5.93 1.977 11.861 1.977 16.804 0l28.666-7.908c8.896 0 18.781 6.92 18.781 17.793v36.574c0 9.885-2.965 19.77-7.908 28.666 43.494 0 59.31 9.885 97.861 48.437l13.84 12.85c10.873 10.873 13.838 27.678 2.965 38.551s-28.667 11.862-39.54.989l-13.839-13.84c-34.597-34.596-38.551-33.608-103.792-33.608h-4.942c-75.126 0-135.424 61.287-135.424 135.424v68.206c0 38.55 30.643 67.217 69.195 67.217zm360.8-125.538l14.827 8.896c14.828 8.896 15.816 27.678 7.908 40.528-7.908 14.828-25.7 17.793-40.528 9.885l-49.425-31.632c-3.954-.988-6.92-.988-8.896 1.977-.989 3.954 0 6.92 2.965 7.908l18.782 11.862c30.643 19.77 39.54 60.298 20.758 90.942-16.804 26.689-46.46 35.585-73.149 26.689l-10.873 17.793c-7.908 14.827-25.7 17.793-40.528 9.885s-17.793-27.678-9.885-42.505l9.885-14.828-14.828-8.896c-14.827-7.908-17.792-27.678-9.885-40.529 7.908-14.827 27.678-17.792 40.529-9.884l50.413 32.62c3.954.988 6.92 0 7.908-2.966.988-3.954.988-6.92-.989-7.908l-20.758-11.862c-29.655-18.78-38.551-61.286-19.77-90.94 15.816-26.69 47.448-35.587 74.137-26.69l10.873-17.793c7.908-14.828 25.701-16.804 40.529-7.908 14.827 7.908 17.793 25.7 9.885 40.528z"/>
</svg>