<svg xmlns="http://www.w3.org/2000/svg" viewBox="0 0 512 512">
	<path d="M389 479c-59 0-107-47-107-106s48-107 107-107 107 48 107 107-48 106-107 106zM17 80c0-8 6-19 11-22l81-54c4-3 10-4 15-4 6 0 11 1 15 4l81 54c8 5 11 14 11 22v81c0 8-6 18-11 21l-81 55c-4 2-9 4-15 4-5 0-11-2-15-4l-81-55c-7-5-11-12-11-21V80zm-1 373V293c0-16 11-26 27-26 17 0 26 9 26 26v43l8-8c5-5 11-8 18-8 4 0 9 1 14 3l38 18 40-40c6-6 12-8 19-8 6 0 13 2 18 8 11 11 11 27 0 38l-53 53c-5 5-11 8-18 8-4 0-9-1-14-3l-38-18-32 32v16h134c17 0 26 9 26 26 0 16-10 27-26 27H43c-15 0-27-12-27-27zM281 28c0-16 11-27 27-27s27 11 27 27v160c0 16-11 27-27 27s-27-11-27-27V28zm160 53c0-16 11-26 27-26s27 10 27 26v107c0 16-11 27-27 27s-27-11-27-27V81zM71 94l53 26-51 27 51 32 53-35V94l-53-35zm318 219c-29 0-53 25-53 54s24 53 53 53 53-24 53-53h-53v-54zm-28-125v-53c0-16 11-27 27-27s27 11 27 27v53c0 16-11 27-27 27s-27-11-27-27z"/>
</svg>