<svg xmlns="http://www.w3.org/2000/svg" viewBox="0 0 512 512">
	<path d="M51.373 291.442l131.396 131.396c8.891 8.892 24.698 8.892 35.566 0l130.408-131.396c3.952-4.94 7.903-9.879 7.903-16.795s-3.951-13.83-7.903-18.77L218.335 125.468c-10.868-8.891-26.675-8.891-35.566 0L51.373 255.877c-8.892 10.867-8.892 26.674 0 35.565zm148.19 182.77c-18.77 0-34.577-6.916-47.42-19.76L19.759 322.068C6.916 309.225 0 293.418 0 274.648c0-19.76 6.916-36.554 19.759-49.398L152.143 92.866c26.674-26.674 70.144-26.674 96.818 0L381.345 225.25c26.674 26.675 26.674 70.144 0 96.818L248.96 454.452c-12.843 12.844-29.638 19.76-49.397 19.76zm0-306.262c14.82 0 22.724 7.903 22.724 22.722v67.18c0 14.82-7.904 21.735-22.723 21.735s-21.735-6.916-21.735-21.735v-67.18c0-14.819 6.916-22.722 21.735-22.722zm0 145.227c18.772 0 33.59 13.831 33.59 32.602s-14.818 33.59-33.59 33.59-33.589-14.82-33.589-33.59 14.82-32.602 33.59-32.602zm144.24 147.203c-4.94 0-10.867-1.976-15.807-5.928-8.891-8.891-8.891-22.722 0-31.614L460.38 291.442c4.94-5.927 6.916-11.855 6.916-16.795 0-6.915-1.976-12.843-6.916-18.77L327.996 125.468c-8.891-8.891-8.891-23.71 0-32.602 10.867-9.879 21.735-9.879 31.614 0L491.994 225.25c26.675 26.675 26.675 70.144 0 96.818L359.61 454.452c-3.952 3.952-8.891 5.928-15.807 5.928z"/>
</svg>