<svg xmlns="http://www.w3.org/2000/svg" viewBox="0 0 512 512">
	<path d="M113.813 480c-13 0-24-11-24-24V353c0-15 11-24 24-24h103c15 0 24 9 24 24v103c0 13-9 24-24 24h-103zm-24-455c0-13 11-24 24-24h103c15 0 24 11 24 24v103c0 13-9 24-24 24h-103c-13 0-24-11-24-24V25zm205 256c3-5 7-8 12-10 1-1 3-1 6-1 2 0 4 1 7 3 3 1 3 4 6 5 1 1 2 4 2 7l8 33 6-15c13-31 17-62 13-93-4-33-15-62-33-89-3-3-2-5-5-8-1-3 0-5 0-8s2-5 3-8c3-3 5-4 7-5 3-1 5-3 8-3h8c3 2 6 3 7 4 3 3 4 5 5 7 23 35 36 73 39 115 2 42-6 82-24 119l29-11h8c3 0 5 1 7 2 3 1 4 4 5 5 2 1 3 3 3 7 1 6 0 11-3 15-2 3-6 6-11 8l-74 25c-2 1-5 1-8 1s-4-1-7-2c-3-3-3-3-6-4-1-3-2-5-2-7l-18-78c-1-6-1-11 2-14zm-180-90h101c13 0 24 11 24 24v52c0 15-11 24-24 24h-101c-13 0-24-9-24-24v-52c0-13 11-24 24-24zm23 186v55h55v-55h-55zm55-328h-55v55h55V49z"/>
</svg>