<svg xmlns="http://www.w3.org/2000/svg" viewBox="0 0 512 512">
	<path d="M266.5 73h167c43 0 77 33 77 76v254c0 42-34 77-77 77h-355c-42 0-77-35-77-77V99c0-43 35-77 77-77h128c6 0 13 2 18 8zm167 50h-177c-7 0-14-3-20-8l-40-42h-118c-14 0-26 12-26 26v304c0 14 12 26 26 26h355c15 0 26-12 26-26V149c0-14-11-26-26-26zm-25 155h-26v75h26c14 0 25 11 25 25s-11 25-25 25h-305c-14 0-25-11-25-25s11-25 25-25h25v-75h-25c-11 0-23-9-25-21-3-11 4-23 14-28l150-78c7-4 15-4 23 0l154 78c11 5 16 17 13 28-2 12-13 21-24 21zm-151-91c-14 0-26 11-26 26 0 14 12 25 26 25s27-11 27-25c0-15-13-26-27-26zm-27 91h-51v75h51v-75zm51 0v75h51v-75h-51z"/>
</svg>