<svg xmlns="http://www.w3.org/2000/svg" viewBox="0 0 512 512">
	<path d="M1.5 99c0-43 34-77 77-77h128c7 0 13 3 18 8l42 43h167c43 0 77 33 77 76v254c0 43-34 77-77 77h-355c-43 0-77-34-77-77V99zm77-26c-15 0-26 11-26 26v304c0 15 11 26 26 26h355c15 0 26-11 26-26V149c0-15-11-26-26-26h-177c-7 0-13-3-20-8l-40-42h-118zm0 184c-3-11 3-23 14-28l150-78c4-2 7-3 11-3s8 1 12 3l154 78c11 5 16 17 13 28-3 12-13 21-24 21h-26v75h26c15 0 25 10 25 25s-10 25-25 25h-305c-15 0-25-10-25-25s10-25 25-25h25v-75h-25c-11 0-22-9-25-21zm101 96h51v-75h-51v75zm102 0h51v-75h-51v75zm-50-140c0 15 11 25 26 25s27-10 27-25-12-26-27-26-26 11-26 26z"/>
</svg>