<svg xmlns="http://www.w3.org/2000/svg" viewBox="0 0 512 512">
	<path d="M459 34l1 77c0 3 0 5-1 8-1 2-3 3-4 5-6 6-8 6-13 7h-2l-77 1c-11 0-20-9-20-20s9-20 20-20l27-1-15-15c-47-47-124-46-171 2-8 8-20 8-28 0s-9-21-1-29c30-31 71-48 114-48 43-1 83 16 114 46l16 15V35c0-11 9-21 20-21s20 9 20 20zm-41 180v28c24 8 41 30 41 57 0 2 0 4-1 6l-41 121c-10 32-23 52-59 54H113c-34 0-61-27-61-61 0-1 1-3 1-4V175c0-34 27-61 61-61h40c5 0 8 1 11 2l78 38 114-1c34 0 61 27 61 61zm-304-60c-11 0-21 10-21 21v119l1-2c11-36 32-54 60-54h224v-24c0-11-10-20-21-20H239c-3 0-6-1-9-2l-79-38h-37zm265 259l39-117c-1-10-10-18-20-18H154c-4 0-14 1-22 27L93 422c1 10 10 17 20 17h244c10-1 14-1 22-26z"/>
</svg>