<svg xmlns="http://www.w3.org/2000/svg" viewBox="0 0 512 512">
	<path d="M296.5 41l137 70c5-2 11-3 18-3 27 0 49 22 49 49 0 23-14 40-33 47l-65 223c3 7 5 14 5 21 0 27-23 49-50 49-15 0-28-6-38-18-1 0-2-1-3-1l-139-41c-10 8-21 12-32 12-27 0-50-23-50-50 0-9 4-18 8-25l-49-77c-24-3-43-23-43-48 0-27 19-46 46-49l142-145v-4c0-27 22-50 49-50 24 0 43 17 48 40zm-103 349l120 36c8-16 25-28 46-28l59-204c-11-10-17-22-17-37 0-3 1-3 1-6l-122-63c-10 8-21 12-32 12-8 0-15-1-20-4l-125 127c5 8 7 17 7 26 0 11-3 20-10 29l46 72c24 0 43 17 47 40z"/>
</svg>