<svg xmlns="http://www.w3.org/2000/svg" viewBox="0 0 512 512">
	<path d="M296.5 41l137 70c5-2 12-3 18-3 27 0 49 22 49 49 0 22-14 40-33 47l-65 223c3 6 5 14 5 21 0 27-23 49-50 49-15 0-29-7-38-18-1 0-2-1-3-1l-139-41c-9 7-20 12-32 12-27 0-50-23-50-50 0-9 4-18 8-25l-49-77c-24-3-43-23-43-48 0-26 20-47 46-49l142-145v-4c0-27 22-50 49-50 24 0 43 17 48 40zm17 385c8-16 25-28 46-28l59-204c-10-9-17-22-17-37 0-2 1-4 1-6l-122-63c-9 7-20 12-32 12-7 0-14-1-20-4l-125 127c4 7 7 17 7 26 0 11-4 21-10 29l46 72c24 0 43 17 47 40z"/>
</svg>