<svg xmlns="http://www.w3.org/2000/svg" viewBox="0 0 512 512">
	<path d="M41 114c0-36 28-64 64-64h65V22c0-12 9-22 21-22s21 10 21 22v28h86V22c0-12 10-22 22-22s21 10 21 22v28h66c36 0 64 28 64 64v302c0 36-28 64-64 64H105c-36 0-64-28-64-64V114zm43 302c0 12 9 21 21 21h302c12 0 21-9 21-21V114c0-12-9-21-21-21h-66v29c0 12-9 22-21 22s-22-10-22-22V93h-86v29c0 12-9 22-21 22s-21-10-21-22V93h-65c-12 0-21 9-21 21v302zm74-129c-12 0-22-9-22-21s10-22 22-22h144l-37-37c-8-8-8-23 0-31 4-4 9-6 15-6 5 0 10 2 14 6l75 74c1 1 2 1 2 2 1 3 2 4 2 4 1 2 2 5 2 10 0 3-1 6-2 8 0 0-1 1-2 4 0 1-1 1-2 2l-75 74c-5 5-10 7-15 7s-9-2-14-7c-8-8-8-21 0-29l37-38H158z"/>
</svg>