<svg xmlns="http://www.w3.org/2000/svg" viewBox="0 0 512 512">
	<path d="M46.62 328.772c-39.162-18.214-56.466-60.108-40.984-99.27L82.137 51.002C96.71 23.679 121.3 1.82 153.174 1.82c30.054 0 58.286 19.126 70.126 48.269l26.411 54.643c11.84 0 25.5 0 35.518 6.376l4.554-10.018c13.66-25.5 40.072-48.269 70.126-48.269s59.197 20.036 70.126 48.269l77.411 176.68c2.733 9.108 4.554 19.126 4.554 30.054 0 44.626-34.608 77.412-79.233 77.412h-30.054c-10.018 28.233-36.43 51-71.947 51h-151.18c-57.377 0-88.341-53.732-73.77-102H76.673c-10.018 0-20.036-2.733-30.054-5.465zm10.017-81.965c-6.375 13.66 0 27.321 13.66 33.697 3.644.91 6.376 2.732 9.108 2.732h51l57.377-131.145c6.375-10.018 9.107-18.214 17.303-26.41l-25.5-56.466c-4.554-10.018-12.75-15.482-22.768-15.482-3.643 0-7.286.91-10.929 2.732-5.464 3.643-9.107 8.197-11.84 12.75zm279.593-124.77l-10.929 24.59c1.822 2.732 2.732 4.554 2.732 5.464l80.144 182.145H435.5c15.482 0 26.411-10.928 26.411-26.41 0-2.733-1.821-5.465-2.732-9.108l-77.412-176.68c-4.553-10.019-13.66-16.394-22.768-16.394-3.643 0-7.286.91-10.018 2.732-5.464 2.733-10.018 7.286-12.75 13.661z"/>
</svg>