<svg xmlns="http://www.w3.org/2000/svg" viewBox="0 0 512 512">
	<path d="M105 480c-36 0-64-28-64-64V114c0-36 28-64 64-64h65V22c0-12 9-21 21-21s21 9 21 21v28h86V22c0-12 9-21 22-21 12 0 21 9 21 21v28h66c36 0 64 28 64 64v302c0 36-28 64-64 64H105zm-21-64c0 12 9 21 21 21h302c12 0 21-9 21-21V114c0-12-9-21-21-21h-66v29c0 13-9 22-21 22-15 0-22-7-22-22V93h-86v29c0 13-9 22-21 22s-21-9-21-22V93h-65c-12 0-21 9-21 21v302zm186-208c0-12 9-21 21-21s22 9 22 21v165c0 12-10 21-22 21s-21-9-21-21V208zm92 186c-12 0-21-9-21-21V208c0-12 9-21 21-21s22 9 22 21v165c0 12-10 21-22 21zM199 208c0-12 9-21 21-21s22 9 22 21v165c0 12-10 21-22 21s-21-9-21-21V208zm-72 0c0-12 9-21 21-21s22 9 22 21v165c0 12-10 21-22 21s-21-9-21-21V208z"/>
</svg>