<svg xmlns="http://www.w3.org/2000/svg" viewBox="0 0 512 512">
	<path d="M466 217l-89 89c-5 5-12 7-18 7s-14-2-19-7l-88-89c-10-9-10-26 0-36 9-10 25-10 35 0l46 45v-2c0-71-58-128-129-128-70 0-127 57-127 128 0 14-11 25-26 25s-25-11-25-25c0-99 80-179 178-179 99 0 180 80 180 179v2l45-45c10-10 27-10 37 0 9 10 9 27 0 36zm-31 110c43 0 77 34 77 76 0 43-34 77-77 77-42 0-76-34-76-77 0-42 34-76 76-76zm-179 0c43 0 77 34 77 76 0 43-34 77-77 77-42 0-77-34-77-77 0-42 35-76 77-76zm-179 0c42 0 76 34 76 76 0 43-34 77-76 77-43 0-77-34-77-77 0-42 34-76 77-76zm358 102c15 0 26-11 26-26 0-14-11-25-26-25-14 0-25 11-25 25 0 15 11 26 25 26zm-179 0c15 0 26-11 26-26 0-14-11-25-26-25-14 0-25 11-25 25 0 15 11 26 25 26z"/>
</svg>