<svg xmlns="http://www.w3.org/2000/svg" viewBox="0 0 512 512">
	<path d="M466 217l-89 89c-5 5-11 7-18 7s-14-2-19-7l-88-89c-11-9-11-25 0-36 9-11 24-11 35 0l46 45v-2c0-71-57-128-129-128-69 0-127 57-127 128 0 15-11 25-26 25s-25-10-25-25c0-99 79-179 178-179 100 0 180 80 180 179v2l45-45c11-11 26-11 37 0 9 11 9 27 0 36zm-31 110c43 0 77 33 77 76s-34 77-77 77-76-34-76-77 33-76 76-76zm-179 0c43 0 77 33 77 76s-34 77-77 77-77-34-77-77 34-76 77-76zm-179 0c43 0 76 33 76 76s-33 77-76 77-77-34-77-77 34-76 77-76zm358 102c15 0 26-11 26-26s-11-25-26-25-25 10-25 25 10 26 25 26zm-179 0c15 0 26-11 26-26s-11-25-26-25-25 10-25 25 10 26 25 26z"/>
</svg>