<svg xmlns="http://www.w3.org/2000/svg" viewBox="0 0 512 512">
	<path d="M386 278c-7 0-13-2-18-7l-64-64c-24-24 13-61 37-37l19 19V43c0-15 11-26 26-26s26 11 26 26v146l20-19c24-24 61 13 37 37l-64 64c-4 4-12 7-19 7zM263 421c0-33 27-59 59-59s59 26 59 59c0 32-27 59-59 59s-59-27-59-59zm190-59c33 0 59 26 59 59 0 32-26 59-59 59-32 0-59-27-59-59 0-33 27-59 59-59zM0 421c0-33 27-59 59-59s59 26 59 59c0 32-27 59-59 59S0 453 0 421zm190 59c-32 0-59-27-59-59 0-33 27-59 59-59s59 26 59 59c0 32-27 59-59 59zm243-59c0 11 9 20 20 20s20-9 20-20-9-20-20-20-20 9-20 20zm-91 0c0-11-9-20-20-20s-20 9-20 20 9 20 20 20 20-9 20-20zm-263 0c0-11-9-20-20-20s-20 9-20 20 9 20 20 20 20-9 20-20z"/>
</svg>