<svg xmlns="http://www.w3.org/2000/svg" viewBox="0 0 512 512">
	<path d="M0 236.689c0-14.855 10.894-24.759 25.749-24.759h281.253V106.956c0-14.855 10.894-25.749 25.748-25.749h101.014c10.894 0 18.816 4.952 23.768 15.845l53.478 129.733c.99.99.99 4.952.99 9.904v45.555c0 38.623-26.739 69.323-62.39 76.255 6.932 11.884 11.883 24.758 11.883 39.613 0 42.584-34.661 77.246-77.245 77.246s-77.246-34.662-77.246-77.246c0-12.874 3.961-25.748 10.894-38.623H194.104c6.933 12.875 10.894 25.749 10.894 38.623 0 42.584-34.661 77.246-77.246 77.246s-76.255-34.662-76.255-77.246c0-13.864 3.961-26.739 10.894-39.613C26.739 351.567 0 320.867 0 282.244v-45.555zm51.497 45.555c0 14.855 10.894 26.739 25.749 26.739h359.489c14.855 0 24.758-11.884 24.758-26.74v-19.806H51.497v19.807zm-.99-193.114c0-2.971.99-5.942 2.97-8.913.991-2.971 2.972-5.942 4.952-7.923l62.391-62.39c5.942-5.943 12.874-7.923 19.807-7.923s13.864 1.98 17.826 7.922c10.893 8.913 10.893 24.759 0 35.652l-19.807 18.816h75.265c14.855 0 25.749 9.904 25.749 24.759s-10.894 26.738-25.749 26.738h-75.265l19.807 18.817c10.893 10.893 10.893 24.758 0 35.652-4.952 4.951-10.894 7.922-18.817 7.922-6.932 0-13.864-2.97-18.816-7.922l-62.39-62.391c-.99-.99-3.962-4.952-4.952-7.923-1.98-2.97-2.971-6.932-2.971-10.893zm366.421 44.564H359.49v78.236h89.13zM102.004 398.112c0 14.855 10.893 25.749 25.748 25.749s26.74-10.894 26.74-25.749-11.885-24.758-26.74-24.758-25.748 9.903-25.748 24.758zm257.485 0c0 14.855 9.904 25.749 24.759 25.749s25.748-10.894 25.748-25.749-10.893-24.758-25.748-24.758-24.759 9.903-24.759 24.758z"/>
</svg>