<svg xmlns="http://www.w3.org/2000/svg" viewBox="0 0 512 512">
	<path d="M0 270.472C0 255.5 9.98 245.52 24.951 245.52H307.4V121.762c0-14.97 9.98-24.951 24.95-24.951h100.804c10.979 0 20.96 5.988 23.953 16.967l52.897 147.711c.998 2.994 1.996 5.989 1.996 8.983v28.943c0 30.94-17.965 56.89-44.912 69.864 12.974 10.978 18.963 26.947 18.963 45.91 0 34.932-27.946 63.875-62.878 63.875-35.93 0-64.873-28.943-64.873-63.875 0-14.97 3.992-27.945 12.975-38.924h-91.82c8.982 10.979 13.972 23.953 13.972 38.924 0 34.932-28.944 63.875-63.875 63.875-35.93 0-64.874-28.943-64.874-63.875 0-14.97 5.989-27.945 13.973-38.924h-38.924c8.983 10.979 13.973 23.953 13.973 38.924 0 34.932-28.944 63.875-63.875 63.875-35.93 0-64.874-28.943-64.874-63.875 0-18.963 6.987-33.934 19.961-45.91C17.965 356.304 0 330.355 0 299.415v-28.943zm0-124.757c0-42.916 33.934-76.85 76.85-76.85h128.748c42.917 0 75.852 33.934 75.852 76.85s-32.935 76.85-75.852 76.85H76.85c-42.916 0-76.85-33.933-76.85-76.85zm51.899 153.7c0 14.971 9.98 25.95 24.95 25.95H435.15c14.97 0 25.95-10.979 25.95-25.95v-2.994H51.898v2.994zm0-153.7c0 14.971 9.98 24.952 24.95 24.952H205.6c12.974 0 24.95-9.98 24.95-24.952s-11.976-24.95-24.95-24.95H76.848c-14.97 0-24.95 9.98-24.95 24.95zM358.3 245.52h91.82l-34.93-97.808H358.3v97.808zm50.9 169.67c0 6.985 6.987 11.976 13.973 11.976 7.985 0 11.977-3.993 11.977-11.977 0-8.982-3.992-12.975-11.977-12.975-6.986 0-13.972 5.989-13.972 12.975zm-179.648-12.976c-8.983 0-12.975 3.993-12.975 12.975 0 7.984 3.992 11.977 12.975 11.977 7.984 0 11.976-3.993 11.976-11.977 0-8.982-3.992-12.975-11.976-12.975zM76.85 415.19c0 7.984 3.992 11.977 12.975 11.977 6.986 0 11.976-4.99 11.976-11.977s-4.99-12.975-11.976-12.975c-8.983 0-12.975 3.993-12.975 12.975z"/>
</svg>