<svg xmlns="http://www.w3.org/2000/svg" viewBox="0 0 512 512">
	<path d="M87.5 432h384c13 0 24 11 24 24s-11 24-24 24h-384c-40 0-72-32-72-72V25c0-13 11-24 24-24s24 11 24 24v383c0 13 11 24 24 24zm363-193c-26 0-47-21-47-46 0-26 21-47 47-47 25 0 46 21 46 47 0 25-21 46-46 46zm-291 143c-25 0-46-21-46-46 0-26 21-47 46-47 26 0 47 21 47 47 0 25-21 46-47 46zm97-287c-26 0-47-21-47-47 0-25 21-47 47-47 25 0 46 22 46 47 0 26-21 47-46 47zm95 287c-26 0-47-21-47-46 0-26 21-47 47-47 25 0 48 21 48 47 0 25-23 46-48 46zm-95-95c-26 0-47-21-47-46 0-26 21-47 47-47 25 0 46 21 46 47 0 25-21 46-46 46z"/>
</svg>