<svg xmlns="http://www.w3.org/2000/svg" viewBox="0 0 512 512">
	<path d="M143.618 391c-1-11 5-23 16-28l44-23c12-5 25-9 38-9h30c13 0 26 4 38 9l44 23c11 5 17 17 16 28-1 1-1 2-1 3-3 13-13 22-28 22h-168c-15 0-25-7-28-22 0-1 0-2-1-3zm-83-169c0-31 24-56 56-56 31 0 56 25 56 56 0 32-25 56-56 56-32 0-56-24-56-56zm196 81c-32 0-56-25-56-56 0-32 24-56 56-56 31 0 56 24 56 56 0 31-25 56-56 56zm142-25c-32 0-56-24-56-56 0-31 24-56 56-56 31 0 56 25 56 56 0 32-25 56-56 56zm-34 62l-34-17 15-8c12-5 25-9 38-9h30c13 0 26 4 38 9l44 23c12 5 18 19 15 31-3 13-13 22-28 22h-88c1-21-10-40-30-51zm-360 29c-3-12 3-26 14-31l45-23c12-5 25-9 38-9h30c13 0 26 4 38 9l14 7-35 18c-20 11-32 30-29 51h-87c-15 0-25-7-28-22z"/>
</svg>