<svg xmlns="http://www.w3.org/2000/svg" viewBox="0 0 512 512">
	<path d="M72.5 308h61c13 0 20 9 20 21s-7 20-20 20h-61c-35 0-62-27-62-61V63c0-34 27-62 62-62h183c35 0 62 28 62 62v20c0 13-8 21-20 21-13 0-21-8-21-21V63c0-12-8-21-21-21h-183c-13 0-21 9-21 21v225c0 12 8 20 21 20zm225-164h142c34 0 62 27 62 61v225c0 35-28 62-62 62h-184c-34 0-61-27-61-62V329c0-12 8-21 20-21 13 0 21 9 21 21v101c0 13 8 21 20 21h184c12 0 21-8 21-21V205c0-12-9-20-21-20h-142c-13 0-21-8-21-21 0-12 8-20 21-20zm-55-19c8 8 8 20 0 28l-81 83c-8 8-21 8-29 0l-41-41c-8-9-8-21 0-29s20-8 29 0l26 27 68-68c8-9 19-9 28 0zm49 245c-8-8-8-19 0-27l27-28-27-26c-8-8-8-20 0-29 8-8 21-8 29 0l27 26 26-26c9-8 21-8 29 0 8 9 8 21 0 29l-27 26 27 28c8 8 8 19 0 27s-20 8-29 0l-26-26-27 26c-8 8-21 8-29 0z"/>
</svg>