<svg xmlns="http://www.w3.org/2000/svg" viewBox="0 0 512 512">
	<path d="M135.5 240c0 7 2 13 7 17 5 5 10 7 17 7 15 0 24-9 24-24 0-7-2-12-6-17-5-5-11-7-18-7-14 0-24 10-24 24zm48 97h-48c-40 0-71 31-71 71 0 14 10 24 24 24h144c14 0 24-10 24-24 0-42-32-71-73-71zm160-123c0 11 10 18 20 18 5 0 10-2 14-5 3-3 5-8 5-13s-2-10-5-15c-4-4-9-6-14-6s-10 2-14 6c-4 5-6 10-6 15zm-111 266h-144c-40 0-72-32-72-72 0-57 38-105 94-117-15-13-22-30-22-51 0-40 31-71 71-71 20 0 37 7 52 20 14 14 21 31 21 51 0 21-7 38-22 51 56 13 94 59 94 117 0 40-32 72-72 72zm152-178h-43c-9 0-19 4-28 7-3 2-7 2-10 2-10 0-17-4-22-13-3-6-3-12-1-19 2-6 6-10 12-13 7-4 14-7 21-8-11-13-18-27-18-44 0-38 30-69 68-69 39 0 67 31 67 69 0 16-6 31-18 44 48 13 83 57 83 107 0 38-30 67-68 67h-76c-7 0-13-2-17-7-5-5-7-10-7-17 0-15 9-24 24-24h76c5 0 10-2 14-6 4-3 6-8 6-13 0-17-6-32-18-45-13-12-28-18-45-18zm86-287l24 74c1 2 1 4 1 7 0 8-6 12-13 14l-76 18c-13 0-18-2-23-14-1-1-1-3-1-6 0-9 4-14 13-15l32-8-13-5c-22-9-46-14-69-14-39 0-79 12-111 34-3 1-5 3-6 4s-3 1-4 0h-4c-11-3-17-8-18-16 0-4 0-7 1-8 2-7 5-11 10-12 34-22 73-37 114-39 46 0 73 2 116 24l-9-30c-1-1-2-3-2-6 0-8 8-13 14-15 2 0 5-1 7-1 3 0 6 1 8 2 5 4 8 8 9 12z"/>
</svg>