<svg xmlns="http://www.w3.org/2000/svg" viewBox="0 0 512 512">
	<path d="M135 240c0 14 10 24 24 24s25-10 25-24-11-24-25-24-24 10-24 24zm49 97h-49c-40 0-71 31-71 71 0 14 10 24 24 24h144c14 0 24-10 24-24 0-41-31-71-72-71zm159-124c0 5 2 10 6 13 4 4 9 6 14 6 13 0 19-6 19-19 0-5-2-10-5-14-4-4-9-6-14-6-11 0-20 9-20 20zM232 480H88c-40 0-72-32-72-72 0-57 38-105 94-117-15-13-22-30-22-51 0-40 31-71 71-71 41 0 73 29 73 71 0 21-7 38-22 51 56 13 94 59 94 117 0 40-32 72-72 72zm153-178h-43c-9 0-19 2-28 6-5 2-9 3-13 3-2 0-4 0-6-1-6-2-11-6-14-12s-3-12-1-19c2-6 6-10 12-13 7-4 15-7 22-8-10-15-18-26-18-45 0-37 30-68 67-68 38 0 67 30 67 68 0 21-5 29-17 45 48 13 83 57 83 107 0 38-32 67-69 67h-76c-14 0-24-10-24-24s10-25 24-25h76c5 0 10-2 15-5 4-3 6-8 6-13 0-17-6-32-18-45-13-12-28-18-45-18zM494 79c1 1 2 3 1 4s-1 3-1 4c-1 9-7 15-16 16-1 0-3 0-4 1s-3 0-4-1c-3-1-5-3-6-4-30-20-75-34-111-34-23 0-46 5-69 14l-15 6 34 8c7 2 13 6 13 14 0 3 0 5-1 7-1 3-4 7-9 11-6 3-8 3-14 3l-76-18c-5-2-14-9-14-15 0-3 1-5 2-6l24-74c1-4 4-8 9-12 2-2 5-3 8-3 8 0 20 7 20 16 0 3 0 5-1 7l-9 29c32-16 67-24 104-24 28 0 129 19 135 51z"/>
</svg>