<svg xmlns="http://www.w3.org/2000/svg" viewBox="0 0 512 512">
	<path d="M128.875 420c-32-33-32-84 0-119l18-19c4-4 9-6 14-6 4 0 8 1 11 4 8 8 8 16 0 24l-19 21c-20 19-20 52 0 72l73 76c2 2 4 3 7 3 2 0 5-1 6-3 1-4 2-7 1-8-4-7-3-17 4-22 3-3 6-4 9-4 5 0 10 3 13 6l6 6c2 1 4 2 6 2s4-1 5-2c3-3 3-7 0-10-7-7-6-16 1-23 3-3 7-5 11-5 5 0 9 2 13 6l8 8c2 1 4 2 7 2 2 0 5-1 6-2 4-4 4-9 0-14l-49-51c-11 5-21 8-32 8-8 0-17-2-25-5-24-8-33-27-36-30-2-7-1-14 3-20l35-36c3-3 6-4 10-4l77-13c2-1 5-1 7-1 12 0 25 6 31 8 0 2 38 39 38 42 7 19 2 42-9 57-7 8-16 14-28 19l1 3c17 17 17 44 0 61-8 9-17 13-28 13-3 0-6 0-9-1-7 15-21 24-37 24h-7c-7 15-23 23-38 23-11 0-21-4-30-13zm39-309V57c0-20 14-36 33-43l45-11c4-1 7-1 11-1s8 0 11 1l44 11c20 7 33 23 33 43v54c0 13-9 23-22 23h-19c11 1 19 11 19 22 0 12-9 22-22 22h-22v22h44c13 0 22 10 22 22 0 14-7 21-22 21h-133c-12 0-22-8-22-21 0-12 10-22 22-22h45v-22h-23c-12 0-22-10-22-22 0-11 9-21 20-22h-20c-12 0-22-10-22-23zm57 218c4 4 11 7 20 7 8 0 18-2 31-8 3-2 6-3 7-3 4 0 10 1 13 5l16 17c7 7 13 11 18 11 8 0 17-4 21-11 5-9 6-17 5-24l-23-23c-7-3-12-4-15-4l-72 11zm134-78c-7-8-7-16 0-23 4-4 8-6 12-6s8 2 12 6l46 48c7 8 7 16 0 24-3 3-7 4-12 4s-9-1-12-4zm-274 49c-8-8-8-16 0-24l46-48c4-4 8-6 12-6s8 2 11 6c8 7 8 15 0 23l-46 49c-3 3-8 4-12 4-5 0-8-1-11-4z"/>
</svg>