<svg xmlns="http://www.w3.org/2000/svg" viewBox="0 0 512 512">
	<path d="M452.303 302l50 111c3 5 3 10 1 16-1 7-7 13-14 16l-110 50c-2 1-6 1-11 1-11 0-18-5-22-15-5-12 0-25 12-32l57-25-49-18c-33-12-79-39-110-71-35 41-102 66-111 71l-48 18 56 25c12 7 19 20 12 32-5 12-20 19-32 14h-1l-31-15-79-35c-7-3-9-4-12-11-2-1-3-5-3-10 0-3 1-7 3-11l48-111c5-12 21-19 34-12 12 5 17 20 12 32l-26 56 48-19c56-21 105-57 105-79V25c0-13 12-25 25-25 15 0 25 12 25 25v255c0 22 48 58 103 79 19 7 35 14 48 19l-25-56c-7-12 1-27 13-32 12-7 27 0 32 12z"/>
</svg>