<svg xmlns="http://www.w3.org/2000/svg" viewBox="0 0 512 512">
	<path d="M399.5 191c-15 0-24-10-24-25V71c0-15 9-24 24-24s25 9 25 24v95c0 17-8 25-25 25zm-191 0c-16 0-24-8-24-25V71c0-15 9-24 24-24s24 9 24 24v95c0 17-8 25-24 25zm96 0c-15 0-24-10-24-25V97c0-15 9-24 24-24s23 8 23 24v69c0 17-8 25-23 25zm-193 0c-15 0-24-10-24-25V24c0-15 9-24 24-24s24 9 24 24v142c0 17-8 25-24 25zm-48 36h385c15 0 24 9 24 24s-9 24-24 24h-385c-16 0-24-8-24-24s8-24 24-24zm336 181c21 0 37 16 37 36s-16 36-37 36c-20 0-36-16-36-36s16-36 36-36zm-95 0c20 0 35 16 35 36s-15 36-35 36-36-16-36-36 16-36 36-36zm0-97c20 0 35 16 35 36s-15 37-35 37-36-17-36-37 16-36 36-36zm95 0c21 0 37 16 37 36s-16 37-37 37c-20 0-36-17-36-37s16-36 36-36zm-288 97c20 0 37 16 37 36s-17 36-37 36-36-16-36-36 16-36 36-36zm97 0c20 0 36 16 36 36s-16 36-36 36-36-16-36-36 16-36 36-36zm0-97c20 0 36 16 36 36s-16 37-36 37-36-17-36-37 16-36 36-36zm-97 0c20 0 37 16 37 36s-17 37-37 37-36-17-36-37 16-36 36-36z"/>
</svg>