<svg xmlns="http://www.w3.org/2000/svg" viewBox="0 0 512 512">
	<path d="M59.376 302c-13 0-24-11-24-24 0-15 11-25 24-25h237c12 0 23 10 23 25 0 13-11 24-23 24h-95v55c0 13-9 24-24 24-13 0-24-11-24-24v-55h-94zm-24-102c0-15 11-24 24-24h94v-55c0-15 11-24 24-24 15 0 24 9 24 24v55h95c12 0 23 9 23 24 0 13-11 24-23 24h-237c-13 0-24-11-24-24zm336-177c0-12 10-23 23-23 12 0 23 11 23 23v138l50 39c11 8 12 23 4 32-3 6-9 9-18 9-6 0-11-2-15-5l-58-46c-6-4-9-10-9-17V23zm0 267c0-12 10-23 23-23 12 0 23 11 23 23v167c0 12-11 23-23 23-13 0-23-11-23-23V290z"/>
</svg>