<svg xmlns="http://www.w3.org/2000/svg" viewBox="0 0 512 512">
	<path d="M0 228.374c0-19.338 9.209-28.547 28.547-28.547h454.906c19.338 0 28.547 9.209 28.547 28.547 0 17.497-11.05 29.468-28.547 29.468H372.95c17.496 19.338 23.942 44.201 23.942 69.985 0 73.67-67.223 128-140.892 128s-142.734-54.33-142.734-128c0-19.338 9.209-28.546 28.547-28.546 17.496 0 29.468 11.05 29.468 28.546 0 36.835 33.15 70.907 84.719 70.907s84.72-34.072 84.72-70.907-33.152-69.985-84.72-69.985H28.547C11.05 257.842 0 245.87 0 228.374zm113.266-98.532c0-71.828 79.194-115.108 142.734-115.108s140.892 45.122 140.892 115.108c0 17.496-10.13 27.626-27.626 27.626s-28.547-10.13-28.547-27.626c0-11.05-4.604-25.784-22.1-36.835-14.734-11.05-36.835-21.18-62.619-21.18-30.388 0-84.72 21.18-84.72 58.015 0 6.446-.92 9.208 1.842 15.654 6.446 14.734 0 30.389-14.734 36.835-3.683 1.842-8.287 2.763-11.97 2.763-11.051 0-20.26-5.526-24.864-16.576-5.525-11.05-8.288-23.942-8.288-38.676z"/>
</svg>