<svg xmlns="http://www.w3.org/2000/svg" viewBox="0 0 512 512">
	<path d="M136.068 297.83c-49.971 0-90.948-39.977-90.948-89.948s40.977-89.95 90.948-89.95 89.95 39.978 89.95 89.95-39.978 89.948-89.95 89.948zm285.837 180.897H90.095c-67.962 2-113.936-77.955-76.957-135.922l13.992-21.988c20.988-33.98 70.96-3.997 50.971 29.983L64.11 374.786c-11.993 18.99 3.998 43.975 25.986 43.975h331.81c12.993 0 25.986-8.994 28.984-21.987 1-7.995 1-15.99-2.998-21.988L280.986 101.942c-9.995-17.99-37.979-17.99-48.972-2.998-24.986 29.983-70.96-5.997-45.974-37.979 35.98-47.972 117.933-42.975 147.916 8.995l164.906 272.845c36.979 57.967-8.995 138.92-76.957 135.922z"/>
</svg>