<svg xmlns="http://www.w3.org/2000/svg" viewBox="0 0 512 512">
	<path d="M34.562 325c-40-125 35-260 159-297 23-7 46-11 69-11 101 0 196 68 226 170 5 13 0 25-15 29-3 1-5 2-8 2-10 0-18-8-21-18-24-83-102-136-184-136-18 0-36 3-54 8-102 29-157 138-128 238 24 82 102 135 185 135 18 0 36-2 53-7 3-1 5-2 8-2 10 0 18 8 22 18 5 15 0 25-15 30-22 7-45 10-68 10-102 0-199-66-229-169zm156-109c-5-35 16-61 47-68v-24c0-16 8-24 24-24s24 8 24 24v24h24c15 0 23 8 23 24 0 15-8 23-23 23h-60c-8 0-12 4-12 12s4 12 12 12h22c24 0 43 11 55 33 18 39-7 78-41 86v24c0 16-8 24-24 24s-24-8-24-24v-24h-24c-15 0-23-8-23-24 0-15 8-23 23-23h60c8 0 12-4 12-12s-4-12-12-12h-22c-31 0-57-19-61-51zm248 159c-16 0-24-8-24-24v-71c0-16 8-24 24-24s24 8 24 24v71c0 16-8 24-24 24zm-36 72c0-20 16-36 36-36 19 0 35 16 35 36 0 19-16 35-35 35-20 0-36-16-36-35z"/>
</svg>