<svg xmlns="http://www.w3.org/2000/svg" viewBox="0 0 512 512">
	<path d="M378.445 479l-161 1c-39 0-71-31-71-71l-2-199v-2c0-20 7-40 22-53l19-16c3-3 3-6 6-9l34-81c7-17 22-29 38-37l8-4c16-7 31-6 44 3 13 8 23 24 23 40l1 105 88 8c23 2 40 12 52 30 7 9 13 20 14 32 1 7-5 13-12 13h-94c-23 0-41 15-41 31s18 29 41 29h76c8 0 15 7 12 15l-8 27c-1 6-5 9-10 9h-70c-23 0-41 14-41 30s18 29 41 29h52c4 0 6 1 7 3 1 1 2 2 2 4 0 1 0 1-1 2-7 35-34 61-69 61zm-360-47V202c0-15 11-24 24-24h47c13 0 24 9 24 24v230c0 13-11 24-24 24h-47c-13 0-24-11-24-24z"/>
</svg>