<svg xmlns="http://www.w3.org/2000/svg" viewBox="0 0 512 512">
	<path d="M134.5 2l160-1c38 0 72 31 72 71l3 199v2c0 20-10 40-24 53l-18 16c-3 3-5 7-7 10l-33 80c-7 17-21 29-37 37l-9 4c-14 7-32 6-45-2s-21-24-21-41l-3-105-88-8c-22-2-41-12-53-30-6-9-10-20-12-32-1-7 4-13 11-13h95c23 0 42-15 42-31s-19-29-42-29h-78c-8 0-12-7-10-15l6-27c2-5 6-9 11-9h71c23 0 42-14 42-30s-19-29-42-29h-52c-3 0-7 0-8-3-3-3-2-7-2-7 7-34 37-60 71-60zm359 47v230c0 14-9 24-23 24h-48c-13 0-24-10-24-24V49c0-13 11-24 24-24h48c14 0 23 11 23 24z"/>
</svg>