<svg xmlns="http://www.w3.org/2000/svg" viewBox="0 0 512 512">
	<path d="M0 341.946v-54.233C0 214.176 49.637 154.427 118.578 138.8c-6.434-8.273-9.192-16.546-9.192-26.657V82.729c0-10.111 4.596-14.707 14.707-14.707l22.061 7.353h12.87l23.899-7.353c9.192 0 13.788 4.596 13.788 14.707v29.415c0 10.11-2.758 19.303-8.273 26.657 68.94 15.626 118.578 75.375 118.578 148.912v53.314c0 55.153-45.041 100.194-100.194 100.194H99.275C44.122 441.22 0 397.099 0 341.946zm273.925-219.691c0-65.264 52.395-119.497 118.578-119.497C457.767 2.758 512 56.99 512 122.255s-54.233 119.497-119.497 119.497c-66.183 0-118.578-54.233-118.578-119.497zm-120.417 56.072A109.06 109.06 0 0044.122 287.713v54.233c0 30.334 24.819 55.153 55.153 55.153h107.547c32.173 0 56.072-23.9 56.072-56.072v-53.314a109.06 109.06 0 00-109.386-109.386zM392.503 46.88c-41.365 0-75.376 34.01-75.376 75.375s34.011 75.375 75.376 75.375 75.375-34.01 75.375-75.375-34.01-75.375-75.375-75.375zM106.628 330.916c0-10.112 8.273-18.385 18.385-18.385h35.849c1.838 0 2.757-.919 2.757-3.676 0-1.839-.919-2.758-2.757-2.758h-14.708c-21.141 0-39.526-18.384-39.526-39.526 0-17.465 11.03-33.092 28.496-37.688v-11.95c0-10.11 8.273-18.384 18.384-18.384s17.465 8.273 17.465 18.385v10.11h11.03c10.112 0 17.466 8.274 17.466 18.385 0 11.95-5.516 17.465-17.465 17.465h-35.85c-2.757 0-3.676.92-3.676 3.677s.919 3.677 3.676 3.677h14.708c3.677 0 6.434.919 10.111.919 16.546 4.596 28.496 20.223 28.496 37.688s-11.03 33.091-28.496 37.687v12.87c0 11.949-5.515 17.464-17.465 17.464-10.111 0-18.384-7.354-18.384-17.465v-11.03h-10.111c-10.112 0-18.385-7.354-18.385-17.465zm264.733-202.227V87.325c0-11.95 9.192-22.061 21.142-22.061s22.06 10.111 22.06 22.061v32.172l15.627 17.465c8.273 10.112 9.192 22.98-.919 31.253-4.596 3.677-9.192 5.516-14.707 5.516-6.435 0-11.95-2.758-16.546-7.354l-21.142-22.98c-3.677-3.677-5.515-8.273-5.515-14.708z"/>
</svg>