<svg xmlns="http://www.w3.org/2000/svg" viewBox="0 0 512 512">
	<path d="M256.5 410c-22 0-41-18-41-40 0-21 19-40 41-40 21 0 40 19 40 40 0 22-19 40-40 40zm0-319c21 0 40 19 40 40s-19 40-40 40c-22 0-41-19-41-40s19-40 41-40zm107 319V91c0-16-11-27-27-27h-161c-16 0-25 11-25 27v319c0 17 9 27 25 27h161c16 0 27-10 27-27zm52-212h53c0 40-21 71-53 89v43h53c0 40-21 75-53 94-8 37-39 65-79 65h-161c-42 0-73-25-79-65-32-19-53-54-53-94h53v-43c-32-18-53-49-53-89h53v-43c-32-19-53-51-53-91h59c11-32 39-53 73-53h161c35 0 63 21 73 53h59c0 38-21 72-53 91v43zm-159 13c21 0 40 18 40 39s-19 40-40 40c-22 0-41-19-41-40s19-39 41-39zm0 119c21 0 40 19 40 40 0 22-19 40-40 40-22 0-41-18-41-40 0-21 19-40 41-40z"/>
</svg>