<svg xmlns="http://www.w3.org/2000/svg" viewBox="0 0 512 512">
	<path d="M16.5 301v-43c0-13 11-24 24-24h264v-98c0-13 9-24 24-24h93c11 0 18 5 22 15l51 122c1 1 1 4 1 9v43c0 35-24 62-59 69 7 11 11 24 11 38 0 40-31 72-71 72s-72-32-72-72c0-15 3-27 9-36h-115c6 9 9 21 9 36 0 40-30 72-71 72-40 0-72-32-72-72 0-14 4-27 11-38-35-7-59-34-59-69zm48 0c0 13 11 22 24 22h335c13 0 24-9 24-22v-19h-383v19zm20-190c-10-11-10-23 0-34 6-5 11-8 17-8s12 3 17 8l18 18V25c0-13 10-24 23-24 15 0 24 11 24 24v70l19-18c5-5 11-7 17-7s12 2 16 7c11 11 11 23 0 34l-58 59c-4 4-13 6-18 6-7 0-12-2-16-6zm268 123h83l-30-74h-53v74zm0 174c0 13 9 24 24 24 13 0 23-11 23-24 0-15-10-24-23-24-15 0-24 9-24 24zm-216-24c-13 0-24 9-24 24 0 13 11 24 24 24 15 0 23-11 23-24 0-15-8-24-23-24z"/>
</svg>