<svg xmlns="http://www.w3.org/2000/svg" viewBox="0 0 512 512">
	<path d="M66.5 258c0-13 11-24 24-24h215v-97c0-15 11-24 24-24h93c11 0 19 5 22 15l50 120c1 2 2 5 2 10v42c0 35-25 64-58 71 7 12 10 24 10 37 0 40-32 72-71 72-40 0-72-32-72-72 0-12 3-24 10-36h-68c7 12 10 24 10 36 0 40-32 72-72 72-39 0-72-32-72-72 0-13 4-25 11-36h-34c-13 0-24-11-24-24v-90zm-40-39c-11-8-11-24-2-33 23-27 54-41 89-41h24c-39 0-71-32-71-72 0-39 32-72 71-72 40 0 72 33 72 72 0 40-32 72-72 72h24c35 0 67 15 90 40 9 11 9 25-2 34-5 4-11 7-17 7s-12-3-17-9c-15-16-33-24-54-24h-48c-21 0-39 8-53 24-5 5-11 8-18 8s-12-2-16-6zm88 63v42h310c15 0 24-9 24-24v-18h-334zm239-48h84l-31-73h-53v73zm0 174c0 13 9 24 24 24 13 0 24-11 24-24s-11-24-24-24c-15 0-24 11-24 24zm-216-359c-13 0-24 11-24 24s11 24 24 24c15 0 24-11 24-24s-9-24-24-24zm48 335c-13 0-24 11-24 24s11 24 24 24 24-11 24-24-11-24-24-24z"/>
</svg>