<svg xmlns="http://www.w3.org/2000/svg" viewBox="0 0 512 512">
	<path d="M0 78.917C0 36.571 34.647 1.925 76.992 1.925h357.053C476.391 1.925 512 36.57 512 78.917v204.03c0 42.346-35.609 76.03-77.955 76.03h-51.007v51.97h25.985c14.436 0 25.022 10.587 25.022 25.023s-10.586 25.985-25.022 25.985H102.977c-14.436 0-25.985-11.549-25.985-25.985s11.55-25.023 25.985-25.023h24.06v-51.97H76.993C34.647 358.977 0 325.293 0 282.947V78.917zm51.008 0v204.03a25.877 25.877 0 0025.984 25.985h357.053a25.877 25.877 0 0025.985-25.985V78.917a25.877 25.877 0 00-25.985-25.985H76.992a25.877 25.877 0 00-25.984 25.985zm54.857 190.557c-10.587 0-16.361-4.812-16.361-15.399V106.827c0-10.586 5.774-15.398 16.36-15.398h300.271c10.587 0 15.399 4.812 15.399 15.398v147.248c0 10.587-4.812 15.399-15.399 15.399h-300.27zm73.143 141.473h153.984v-51.97H179.008v51.97z"/>
</svg>