<svg xmlns="http://www.w3.org/2000/svg" viewBox="0 0 512 512">
	<path d="M169.302 189c-8-12-3-27 9-34l98-48v-8c0-52 39-98 90-98 59 0 106 55 90 119-11 41-48 69-90 69-31 0-58-17-74-40l-94 48c-3 1-7 2-10 2-7 0-14-4-19-10zm9 126c-12-7-17-22-9-34 5-7 11-11 18-11 4 0 7 1 11 3l94 49c19-23 43-39 75-39 54 0 97 48 92 104-7 47-45 82-92 82-48 0-91-40-91-92v-12zm189 15c-25 0-45 20-45 47 0 25 20 47 45 47 27 0 46-22 46-47 0-27-19-47-46-47zm-45-235c0 25 20 47 45 47 27 0 46-22 46-47 0-27-19-47-46-47-25 0-45 20-45 47zm-259 47c0-16 8-24 23-24s22 8 22 24v94c0 13-9 23-22 23-15 0-23-10-23-23v-94zm23 235c-19 0-34-18-34-37 0-20 15-34 34-34s33 14 33 34c0 19-14 37-33 37z"/>
</svg>