<svg xmlns="http://www.w3.org/2000/svg" viewBox="0 0 512 512">
	<path d="M400.194 44.922c4.992 7.986 2.995 17.969-1.996 25.955L277.408 241.58v94.835c0 9.983-4.992 17.97-14.974 22.96l-100.825 50.912c-6.988 4.991-16.97 2.995-24.957 0-8.984-4.991-12.977-12.977-12.977-22.96V241.58L3.883 70.877c-2.995-4.991-6.988-14.974 0-25.955 4.991-6.988 10.98-12.978 21.962-12.978h352.387c10.981 0 16.971 5.99 21.962 12.978zM231.487 221.615l99.827-137.76H70.767l98.828 137.76c2.995 4.991 5.99 9.983 5.99 14.974v112.804l50.911-25.955v-86.85c0-4.99 1.997-9.982 4.991-14.973zm214.627 71.875l59.896 57.9c7.987 6.987 7.987 18.966 0 26.953-4.99 2.994-8.984 4.99-13.975 4.99s-9.983-1.996-14.974-4.99l-24.957-24.957V460.2c0 10.981-8.984 18.967-19.965 18.967s-19.966-7.986-19.966-18.967V353.386l-25.954 24.957c-4.992 2.994-8.985 4.99-13.976 4.99s-9.983-1.996-14.974-4.99c-6.988-7.987-6.988-19.966 0-26.954l59.896-57.899c3.993-3.993 8.984-5.99 14.974-5.99 4.991 0 9.982 1.997 13.975 5.99z"/>
</svg>