<svg xmlns="http://www.w3.org/2000/svg" viewBox="0 0 512 512">
	<path d="M92 455c-41 0-76-33-76-76V75C16 32 50 0 91 0h305c41 0 75 32 75 75v76c0 28-22 51-50 51H67v177c0 15 12 25 25 25h133c15 0 24 12 24 25s-9 26-24 26H92zm182-74c-15 0-26-9-26-24s11-26 26-26h2c3-8 3-17 10-25l-7-8c-9-11-9-26 0-35 6-6 12-9 18-9s12 3 17 9l8 8c8-7 14-8 25-11v-3c0-15 10-25 25-25s25 10 25 25v3c8 3 17 4 26 11l8-8c6-6 11-8 17-8s12 2 17 8c11 9 11 24 0 35l-6 8c5 8 6 14 9 25h3c15 0 25 11 25 26s-10 24-25 24h-3c-3 8-4 17-9 25l6 8c12 11 12 23 0 35-5 5-11 8-17 8s-11-3-17-8l-8-7c-9 7-15 7-26 10v3c0 15-10 25-25 25s-25-10-25-25v-3c-8-3-17-3-25-10l-8 7c-5 5-11 8-17 8s-12-3-18-8c-9-12-9-24 0-35l7-8c-7-8-7-14-10-25h-2zM92 51c-13 0-25 12-25 25v75h353V76c0-13-11-25-24-25h-51v25c0 15-11 24-26 24-17 0-25-8-25-24V51H193v25c0 15-10 24-25 24s-26-9-26-24V51H92zm282 355c28 0 51-21 51-49 0-10-3-18-7-26-5-8-12-15-21-20-7-3-15-5-23-5-18 0-34 10-43 25-4 8-6 16-6 26 0 27 21 49 49 49zM142 279c-13 0-25-11-25-24 0-15 12-26 25-26h75c15 0 24 11 24 26 0 13-9 24-24 24h-75zm-25 43c0-15 12-26 25-26h19c13 0 25 11 25 26 0 13-12 25-25 25h-19c-13 0-25-12-25-25z"/>
</svg>