<svg xmlns="http://www.w3.org/2000/svg" viewBox="0 0 512 512">
	<path d="M80.778 432h142c13 0 24 11 24 24s-11 24-24 24h-142c-40 0-72-32-72-72V73c0-40 32-72 72-72h142c13 0 24 11 24 24 0 14-11 24-24 24h-142c-13 0-24 11-24 24v335c0 13 11 24 24 24zm312-329l83 48c12 7 16 20 9 32l-144 249c-7 12-20 16-32 9l-83-48c-12-7-16-20-10-32l145-249c7-12 20-16 32-9zm-1-83l99 57c12 7 16 20 9 32s-21 17-34 10l-98-58c-2-1-3 0-5 0-1 0-1 2-2 3l-105 181c-4 8-13 12-21 12-4 0-8-2-12-4-12-7-15-20-8-33l104-180c7-12 19-22 32-26 14-4 29-1 41 6z"/>
</svg>