<svg xmlns="http://www.w3.org/2000/svg" viewBox="0 0 512 512">
	<path d="M11 159c0-13 11-24 24-24h139c13-21 34-36 58-43V61h-70c-7 7-16 11-26 11-20 0-36-16-36-36s16-37 36-37c11 0 20 5 28 14h72c5-9 11-13 20-13s16 4 21 13h73c7-9 16-13 27-13 20 0 36 17 36 37s-16 36-36 36c-10 0-19-4-27-12h-69v32c24 7 44 22 57 42h113c27 0 49 22 49 49v46l-1 74c0 13-11 25-24 25h-56c-13 0-24-12-24-25v-50c0-13-11-24-24-24h-28c-16 32-48 54-87 54s-71-22-87-54H35c-13 0-24-11-24-24v-47zm210 71c9 8 21 12 35 12s26-4 35-12c12-9 19-24 19-41 0-31-23-54-54-54s-54 23-54 54c0 17 7 32 19 41zm231 257c-27 0-49-22-49-49 0-17 14-45 29-68 6-8 13-11 20-11s14 3 19 11c12 23 30 53 30 68 0 27-22 49-49 49z"/>
</svg>