<svg xmlns="http://www.w3.org/2000/svg" viewBox="0 0 512 512">
	<path d="M412.221 144l-31 16 108 215c12 23 9 49-4 70-14 23-34 35-61 35h-333c-27 0-47-12-61-35-15-21-15-47-4-70l108-215-31-16c-12-7-18-20-11-33 7-12 20-17 32-10l31 16 38-75c12-25 37-40 65-40s53 15 65 40l36 75 31-15c12-7 25-3 32 9 7 13 2 26-10 33zm-155 28l61-32-37-77c-4-9-14-13-23-13s-19 4-23 13l-38 77zm117 81l-35-71-70 38c-5 1-9 2-12 2-4 0-7-1-11-2l-71-38-34 71 117 63zm-65 89l139 74c1-5 2-12-2-20l-50-100zm-241 74l138-74-87-46-49 100c-4 8-3 15-2 20zm71 16h238l-119-63z"/>
</svg>