<svg xmlns="http://www.w3.org/2000/svg" viewBox="0 0 512 512">
	<path d="M239.917 1.81l255.72 102.887c10.988 2.996 15.982 11.986 15.982 22.974v306.664c0 14.984-10.988 25.972-25.971 25.972s-24.973-10.988-24.973-25.972V145.652l-229.748-91.9-40.955 19.979 202.778 81.91c10.988 4.994 16.981 11.987 16.981 22.975v307.662c0 14.984-12.986 24.973-25.971 24.973-4.995 0-7.992-1-9.99-1.998l-75.916-29.967c-12.986-4.995-19.978-18.98-14.984-33.963 6.993-12.986 20.977-18.98 33.963-13.985l40.955 16.982V196.596l-203.777-81.91v51.943c0 14.983-10.987 24.972-25.971 24.972s-25.972-9.989-25.972-24.972V76.727c0-7.991 3.996-16.981 11.987-20.977 1-.999 25.972-13.984 52.942-26.97 14.984-6.992 32.964-15.983 51.943-25.972 6.993-2.996 13.985-3.995 20.977-.999zm51.943 239.737c3.996 7.99 2.997 14.983 0 18.979l-87.903 124.863v68.924c0 7.991-5.994 12.986-10.988 16.982l-73.92 36.96c-4.994 4.994-10.987 4.994-17.98 0-5.993-2.998-8.99-8.991-8.99-15.983V385.389L4.176 260.526c-3.996-4.995-5.994-11.987-1.998-18.98 4.994-5.993 9.989-8.99 15.982-8.99h257.718c5.993 0 10.988 2.997 15.982 8.99zM169.994 370.405l70.922-100.89H53.122l72.92 100.89c.999 3.996 2.997 7.991 2.997 11.987v81.91l37.958-18.979v-62.93c0-3.997 1-7.992 2.997-11.988z"/>
</svg>