<svg xmlns="http://www.w3.org/2000/svg" viewBox="0 0 512 512">
	<path d="M82.5 157h346v-45c0-12-9-21-21-21h-66v29c0 12-10 22-22 22s-21-10-21-22V91h-87v29c0 12-9 22-21 22s-22-10-22-22V91h-64c-12 0-22 9-22 21v45zm259 93h87v-50h-87v50zm0 93h87v-50h-87v50zm87 72v-28h-87v50h66c12 0 21-10 21-22zm-217-165h87v-50h-87v50zm0 93h87v-50h-87v50zm0 94h87v-50h-87v50zm-129-187h86v-50h-86v50zm0 93h86v-50h-86v50zm22 94h64v-50h-86v28c0 12 10 22 22 22zm237-390h66c36 0 65 29 65 65v303c0 37-29 65-65 65h-303c-37 0-65-28-65-65V112c0-36 28-65 65-65h64V19c0-12 10-21 22-21s21 9 21 21v28h87V19c0-12 9-21 21-21s22 9 22 21v28z"/>
</svg>