<svg viewBox="0 0 135 30" xmlns="http://www.w3.org/2000/svg">
  <linearGradient id="a" gradientUnits="userSpaceOnUse" x1="31.41" x2="31.41" y1="30">
    <stop offset="0" stop-color="#0d67b2" />
    <stop offset="1" stop-color="#29aae2" />
  </linearGradient>
  <path d="m0 30h32.81l30-30h-62.81z" fill="url(#a)" fill-rule="evenodd" />
  <g fill="#fff">
    <path
      d="m36.28 6h-5.74v13.7l-5.1-13.7h-4.93l-4.31 11.48c-.64-2.86-3.5-4-5.89-4.62-1.6-.47-3.19-1.27-3.19-2.07 0-.64 1-1.27 2.55-1.27a9.43 9.43 0 0 1 4.33 1.11l1.91-3.34a15.71 15.71 0 0 0 -6.53-1.6 8.15 8.15 0 0 0 -5.77 2.07 4.63 4.63 0 0 0 -1.43 3.35 4.66 4.66 0 0 0 1.91 4 12.88 12.88 0 0 0 4 1.75c1.59.48 2.87.95 2.87 1.91a2.27 2.27 0 0 1 -.32 1 2.37 2.37 0 0 1 -1.92.64 7.49 7.49 0 0 1 -4.78-1.44l-1.76 3.46a13 13 0 0 0 6.53 1.75h.29a8 8 0 0 0 5-1.59l.16-.16-.67 1.57h5.26l1-2.71a9.77 9.77 0 0 0 6.05 0l.8 2.71h8.61v-5.56h1.91c4.46 0 7.17-2.23 7.17-6.21.12-4.31-2.43-6.23-8.01-6.23zm-13.38 11.8a8.54 8.54 0 0 1 -1.9-.31l1.92-5.74 1.75 5.74a6.07 6.07 0 0 1 -1.77.31zm13.7-3.34h-1.28v-4.78h1.28c1.75 0 3 .64 3 2.23.03 1.91-1.25 2.55-3 2.55z"
      fill-rule="evenodd"
    />
    <path fill="#000" d="m75.15 13.81v10.19h-4.26v-1.7a5.17 5.17 0 0 1 -2.08 1.45 7.56 7.56 0 0 1 -2.76.5 9.25 9.25 0 0 1 -4.76-1.15 7.45 7.45 0 0 1 -3-3.2 10.44 10.44 0 0 1 -1-4.72 10.37 10.37 0 0 1 1.1-4.91 7.54 7.54 0 0 1 3.24-3.17 11.09 11.09 0 0 1 5.17-1.1 9.84 9.84 0 0 1 4.69 1 8.43 8.43 0 0 1 2.92 2.47l-3.64 3.05a5.83 5.83 0 0 0 -1.63-1.55 4.41 4.41 0 0 0 -2.36-.57 4.25 4.25 0 0 0 -2.28.58 3.72 3.72 0 0 0 -1.44 1.66 6.16 6.16 0 0 0 -.49 2.56 5.78 5.78 0 0 0 .52 2.55 3.74 3.74 0 0 0 1.48 1.66 4.38 4.38 0 0 0 2.28.57 4.48 4.48 0 0 0 2.07-.42 3.08 3.08 0 0 0 1.17-1 1.94 1.94 0 0 0 .36-1v-.07h-3.35v-3.68z" />
    <path fill="#000" d="m78.12 13.17c0-.56 0-1.15 0-1.77s-.12-1.1-.12-1.4h4.61a10.23 10.23 0 0 1 .14 1 9.89 9.89 0 0 1 .07 1 4.76 4.76 0 0 1 1.37-1.75 3.81 3.81 0 0 1 3.4-.37l-.21 4.46c-.26-.07-.51-.12-.74-.16a3.91 3.91 0 0 0 -.8-.07 2.8 2.8 0 0 0 -2.09.78 3.47 3.47 0 0 0 -.75 2.59v6.52h-4.88z" />
    <path fill="#000" d="m90.18 23.68a3.76 3.76 0 0 1 -1.5-1.56 4.79 4.79 0 0 1 -.52-2.28 4 4 0 0 1 1.36-3.27 6.5 6.5 0 0 1 4-1.18l2.76-.08v-.31c0-1-.64-1.52-1.93-1.52a3.72 3.72 0 0 0 -1.74.41 9.57 9.57 0 0 0 -1.56 1.06l-2.06-3a10.76 10.76 0 0 1 2.66-1.58 9.1 9.1 0 0 1 3.54-.63 6.91 6.91 0 0 1 4.58 1.34 5.49 5.49 0 0 1 1.57 4.37v3.14c0 2.18 0 4 .13 5.42h-4.75a18.45 18.45 0 0 1 -.1-1.85h-.08a4.62 4.62 0 0 1 -1.54 1.52 4.84 4.84 0 0 1 -2.5.57 4.44 4.44 0 0 1 -2.32-.57zm5.16-3.27a2.27 2.27 0 0 0 .69-1 3.49 3.49 0 0 0 .25-1.35v-.06h-1.49a2.27 2.27 0 0 0 -1.4.36 1.24 1.24 0 0 0 -.46 1 1.38 1.38 0 0 0 .36 1 1.43 1.43 0 0 0 1 .36 1.59 1.59 0 0 0 1.05-.31z" />
    <path fill="#000" d="m104.05 13.32c0-1 0-2.16-.15-3.37h4.79a6.42 6.42 0 0 1 .13.82 7.43 7.43 0 0 1 .07 1 5 5 0 0 1 1.66-1.46 5.16 5.16 0 0 1 2.52-.58 4.76 4.76 0 0 1 2.85.84 5.09 5.09 0 0 1 1.83 2.43 11 11 0 0 1 .61 3.91 10.75 10.75 0 0 1 -.66 4 5.44 5.44 0 0 1 -1.91 2.52 5.23 5.23 0 0 1 -3 .86 4.79 4.79 0 0 1 -2.34-.55 3.87 3.87 0 0 1 -1.5-1.33h-.07v.84s0 .69 0 1v5.13h-4.89zm8.55 6.27a4.7 4.7 0 0 0 .6-2.71 5.55 5.55 0 0 0 -.29-1.94 2.26 2.26 0 0 0 -.75-1.08 1.66 1.66 0 0 0 -1-.32 2 2 0 0 0 -1.6.76 4.1 4.1 0 0 0 -.67 2.69 4.24 4.24 0 0 0 .63 2.67 2 2 0 0 0 1.62.75 1.76 1.76 0 0 0 1.46-.82z" />
    <path fill="#000" d="m120.78 5.1h4.9v5c0 .82 0 1.49-.08 2h.05a4.66 4.66 0 0 1 1.79-1.79 5.55 5.55 0 0 1 2.67-.59 4.19 4.19 0 0 1 3.51 1.4 6.18 6.18 0 0 1 1.09 3.88v9h-4.9v-7.66a3.37 3.37 0 0 0 -.43-1.88 1.58 1.58 0 0 0 -1.43-.65 2 2 0 0 0 -1.69.75 3.33 3.33 0 0 0 -.58 2.11v7.33h-4.9z" />
  </g>
</svg>