<svg xmlns="http://www.w3.org/2000/svg" viewBox="0 0 512 512">
	<path d="M0 363V86c0-31 23-54 54-54h340c29 0 54 23 54 54v62l-32 28V86c0-12-10-22-22-22h-42v128c0 19-15 32-32 32H128c-19 0-32-13-32-32V64H54c-12 0-22 10-22 22v271l91 91h5V320c0-19 13-32 32-32h144l-32 32H160v128h16l-8 32h-51c-3 0-8-2-13-5L5 375c-3-3-5-7-5-12zM320 64H128v128h192V64zm-45 432l-77 16 16-77c0-3 1-5 2-6l229-228c1-2 4-3 7-3s6 1 8 3l48 48c3 3 4 5 4 8s-1 5-4 8L281 493c-2 2-4 3-6 3zm177-270l-45 44 32 32 45-46zM235 443l32 32 157-157-33-32z"/>
</svg>