<svg width="377" height="24" viewBox="0 0 377 24" fill="none" xmlns="http://www.w3.org/2000/svg">
<path d="M0.605469 2.48828H8C9.35156 2.48828 10.4844 2.69141 11.3984 3.09766C12.3125 3.50391 12.9961 4.08203 13.4492 4.83203C13.9102 5.58203 14.1406 6.48047 14.1406 7.52734C14.1406 8.35547 13.9844 9.09766 13.6719 9.75391C13.3672 10.4102 12.9414 10.957 12.3945 11.3945C11.8477 11.8242 11.2227 12.1289 10.5195 12.3086L14.9844 19H11.0938L7.26172 12.9766H4.0625V19H0.605469V2.48828ZM7.70703 10.0469C8.70703 10.0469 9.44922 9.83594 9.93359 9.41406C10.418 8.98438 10.6602 8.40234 10.6602 7.66797C10.6602 6.91016 10.4023 6.34766 9.88672 5.98047C9.37109 5.60547 8.62109 5.41797 7.63672 5.41797H4.0625V10.0469H7.70703ZM21.6181 19.2344C19.6728 19.2344 18.1572 18.6836 17.0712 17.582C15.9931 16.4805 15.4541 14.832 15.4541 12.6367C15.4541 11.168 15.7197 9.94531 16.2509 8.96875C16.79 7.98438 17.5087 7.25781 18.4072 6.78906C19.3134 6.32031 20.3212 6.08594 21.4306 6.08594C22.7197 6.08594 23.7822 6.36328 24.6181 6.91797C25.4619 7.47266 26.0752 8.21094 26.458 9.13281C26.8486 10.0469 27.0439 11.0703 27.0439 12.2031C27.0439 12.6484 27.0205 13.0898 26.9736 13.5273H18.9111C18.9111 14.5117 19.1416 15.293 19.6025 15.8711C20.0712 16.4492 20.8017 16.7383 21.7939 16.7383C22.2392 16.7383 22.6416 16.6914 23.0009 16.5977C23.3603 16.4961 23.7119 16.3516 24.0556 16.1641C24.3994 15.9766 24.8212 15.707 25.3212 15.3555L26.6572 17.4883C25.915 18.0508 25.165 18.4844 24.4072 18.7891C23.6494 19.0859 22.7197 19.2344 21.6181 19.2344ZM23.8564 11.2773C23.8252 10.3242 23.6025 9.62109 23.1884 9.16797C22.7744 8.71484 22.1806 8.48828 21.4072 8.48828C20.6728 8.48828 20.083 8.71875 19.6377 9.17969C19.2002 9.63281 18.9658 10.332 18.9345 11.2773H23.8564ZM28.5917 9.22656C28.5917 8.03125 28.5605 7.06641 28.498 6.33203H31.6972C31.7284 6.41016 31.7597 6.65625 31.7909 7.07031C31.8222 7.47656 31.8378 7.83594 31.8378 8.14844H31.8847C32.7206 6.75781 34.0644 6.0625 35.9159 6.0625C36.9394 6.0625 37.8105 6.34375 38.5292 6.90625C39.248 7.46094 39.7909 8.23047 40.1581 9.21484C40.5331 10.1914 40.7206 11.3164 40.7206 12.5898C40.7206 13.8867 40.5214 15.0391 40.123 16.0469C39.7245 17.0469 39.1386 17.8281 38.3652 18.3906C37.5995 18.9531 36.6855 19.2344 35.623 19.2344C34.8417 19.2344 34.1152 19.0742 33.4433 18.7539C32.7792 18.4336 32.2597 17.9219 31.8847 17.2188H31.8144C31.83 17.3047 31.8456 17.5625 31.8612 17.9922C31.8769 18.4141 31.8847 18.7891 31.8847 19.1172V23.9922H28.5917V9.22656ZM34.6386 16.6211C35.4433 16.6211 36.0839 16.2891 36.5605 15.625C37.0448 14.9609 37.287 13.9492 37.287 12.5898C37.287 11.3086 37.0527 10.3398 36.5839 9.68359C36.1152 9.02734 35.4784 8.69922 34.6737 8.69922C34.1816 8.69922 33.7206 8.82422 33.2909 9.07422C32.8691 9.32422 32.5214 9.74609 32.248 10.3398C31.9745 10.9336 31.8378 11.7148 31.8378 12.6836C31.8378 13.6367 31.9706 14.4062 32.2362 14.9922C32.5097 15.5781 32.8573 15.9961 33.2792 16.2461C33.7011 16.4961 34.1542 16.6211 34.6386 16.6211ZM48.0223 19.2344C46.6942 19.2344 45.5497 18.9453 44.5887 18.3672C43.6356 17.7891 42.913 17 42.4208 16C41.9286 15 41.6825 13.8789 41.6825 12.6367C41.6825 11.4258 41.9208 10.3242 42.3973 9.33203C42.8817 8.33984 43.6044 7.55078 44.5653 6.96484C45.5262 6.37891 46.702 6.08594 48.0927 6.08594C49.5536 6.08594 50.7567 6.37891 51.702 6.96484C52.6552 7.54297 53.3544 8.32422 53.7997 9.30859C54.245 10.2852 54.4677 11.3945 54.4677 12.6367C54.4677 13.8789 54.2216 15 53.7294 16C53.245 16.9922 52.5184 17.7812 51.5497 18.3672C50.5809 18.9453 49.4052 19.2344 48.0223 19.2344ZM47.9872 16.6211C48.9637 16.6211 49.7137 16.2773 50.2372 15.5898C50.7606 14.9023 51.0223 13.918 51.0223 12.6367C51.0223 11.3711 50.7762 10.3984 50.2841 9.71875C49.7919 9.03906 49.077 8.69922 48.1395 8.69922C47.1708 8.69922 46.4286 9.04297 45.913 9.73047C45.3973 10.4102 45.1395 11.3789 45.1395 12.6367C45.1395 13.4727 45.2567 14.1914 45.4911 14.793C45.7333 15.3867 46.0653 15.8398 46.4872 16.1523C46.9169 16.4648 47.4169 16.6211 47.9872 16.6211ZM60.41 19.2344C59.3162 19.2344 58.3397 19.0898 57.4803 18.8008C56.6287 18.5117 55.8123 18.0508 55.0311 17.418L56.5194 15.1562C57.2225 15.6953 57.8748 16.1016 58.4764 16.375C59.078 16.6406 59.7225 16.7734 60.41 16.7734C61.1053 16.7734 61.6444 16.6875 62.0272 16.5156C62.4178 16.3359 62.6131 16.0195 62.6131 15.5664C62.6131 15.2383 62.5116 14.9766 62.3084 14.7812C62.1053 14.5859 61.8436 14.4375 61.5233 14.3359C61.2108 14.2266 60.7655 14.1055 60.1873 13.9727L59.5662 13.8203C58.7147 13.6016 58.0037 13.3594 57.4334 13.0938C56.8709 12.8203 56.41 12.4297 56.0506 11.9219C55.6912 11.4141 55.5116 10.75 55.5116 9.92969C55.5116 9.13281 55.703 8.44922 56.0858 7.87891C56.4686 7.30078 57.0311 6.85938 57.7733 6.55469C58.5155 6.24219 59.41 6.08594 60.4569 6.08594C61.4569 6.08594 62.367 6.23828 63.1873 6.54297C64.0155 6.84766 64.7225 7.30469 65.3084 7.91406L63.6209 9.85938C62.7225 8.97656 61.6756 8.53516 60.4803 8.53516C59.1834 8.53516 58.535 8.91016 58.535 9.66016C58.535 9.94922 58.617 10.1797 58.7811 10.3516C58.953 10.5156 59.1756 10.6445 59.4491 10.7383C59.7225 10.832 60.117 10.9375 60.6327 11.0547L61.2303 11.1953C62.1678 11.4297 62.9373 11.6836 63.5389 11.957C64.1483 12.2227 64.6483 12.625 65.0389 13.1641C65.4373 13.7031 65.6366 14.418 65.6366 15.3086C65.6366 16.1133 65.4295 16.8125 65.0155 17.4062C64.6092 17.9922 64.0116 18.4453 63.2225 18.7656C62.4412 19.0781 61.5037 19.2344 60.41 19.2344ZM68.7664 4.64453C68.1883 4.64453 67.7352 4.48047 67.407 4.15234C67.0789 3.81641 66.9148 3.36719 66.9148 2.80469C66.9148 2.23437 67.0789 1.78516 67.407 1.45703C67.7352 1.12109 68.1883 0.953125 68.7664 0.953125C69.3211 0.953125 69.7625 1.12109 70.0906 1.45703C70.4187 1.78516 70.5828 2.23437 70.5828 2.80469C70.5828 3.35937 70.4148 3.80469 70.0789 4.14062C69.7508 4.47656 69.3133 4.64453 68.7664 4.64453ZM67.1023 6.33203H70.3953V19H67.1023V6.33203ZM76.3025 19.2109C75.2478 19.2109 74.4392 18.9258 73.8767 18.3555C73.322 17.7773 73.0447 16.9219 73.0447 15.7891V8.78125H71.4392V6.33203H73.2087L73.3728 3.47266L76.3025 3.22656V6.33203H78.822V8.78125H76.3025V14.8984C76.3025 15.4453 76.4002 15.8477 76.5955 16.1055C76.7908 16.3555 77.1033 16.4805 77.533 16.4805C77.8767 16.4805 78.2752 16.4336 78.7283 16.3398L78.9744 18.8359C78.0759 19.0859 77.1853 19.2109 76.3025 19.2109ZM85.573 19.2344C84.2448 19.2344 83.1003 18.9453 82.1394 18.3672C81.1862 17.7891 80.4636 17 79.9714 16C79.4792 15 79.2331 13.8789 79.2331 12.6367C79.2331 11.4258 79.4714 10.3242 79.948 9.33203C80.4323 8.33984 81.155 7.55078 82.1159 6.96484C83.0769 6.37891 84.2527 6.08594 85.6433 6.08594C87.1042 6.08594 88.3073 6.37891 89.2527 6.96484C90.2058 7.54297 90.905 8.32422 91.3503 9.30859C91.7956 10.2852 92.0183 11.3945 92.0183 12.6367C92.0183 13.8789 91.7722 15 91.28 16C90.7956 16.9922 90.0691 17.7812 89.1003 18.3672C88.1316 18.9453 86.9558 19.2344 85.573 19.2344ZM85.5378 16.6211C86.5144 16.6211 87.2644 16.2773 87.7878 15.5898C88.3112 14.9023 88.573 13.918 88.573 12.6367C88.573 11.3711 88.3269 10.3984 87.8347 9.71875C87.3425 9.03906 86.6277 8.69922 85.6902 8.69922C84.7214 8.69922 83.9792 9.04297 83.4636 9.73047C82.948 10.4102 82.6902 11.3789 82.6902 12.6367C82.6902 13.4727 82.8073 14.1914 83.0417 14.793C83.2839 15.3867 83.6159 15.8398 84.0378 16.1523C84.4675 16.4648 84.9675 16.6211 85.5378 16.6211ZM93.6833 9.30859C93.6833 8.76172 93.6716 8.17969 93.6481 7.5625C93.6325 6.9375 93.613 6.52734 93.5895 6.33203H96.7302C96.7614 6.47266 96.7927 6.80859 96.8239 7.33984C96.863 7.87109 96.8825 8.26953 96.8825 8.53516H96.9294C97.1794 7.94141 97.4177 7.47656 97.6442 7.14062C97.8708 6.80469 98.1637 6.54297 98.5231 6.35547C98.8825 6.16016 99.3512 6.0625 99.9294 6.0625C100.14 6.0625 100.343 6.08203 100.539 6.12109C100.742 6.16016 100.89 6.20703 100.984 6.26172L100.89 9.10938C100.781 9.09375 100.699 9.07812 100.644 9.0625C100.222 8.98438 99.863 8.94531 99.5661 8.94531C98.7536 8.94531 98.1169 9.27734 97.6559 9.94141C97.2028 10.5977 96.9762 11.5469 96.9762 12.7891V19H93.6833V9.30859ZM103.715 23.9922C102.895 23.9922 102.204 23.9297 101.641 23.8047L101.887 21.2266C102.27 21.2969 102.567 21.332 102.778 21.332C103.208 21.332 103.575 21.2734 103.88 21.1562C104.184 21.0391 104.454 20.8438 104.688 20.5703C104.93 20.2969 105.165 19.918 105.391 19.4336L105.602 18.8828L100.587 6.33203H104.09L106.083 12.2031C106.239 12.6953 106.458 13.3828 106.739 14.2656C107.02 15.1484 107.188 15.7031 107.243 15.9297C107.305 15.6484 107.469 15.0352 107.735 14.0898C108.001 13.1367 108.18 12.5273 108.274 12.2617L110.137 6.33203H113.618L108.602 19.668C108.18 20.6992 107.755 21.5234 107.325 22.1406C106.895 22.7656 106.391 23.2305 105.813 23.5352C105.235 23.8398 104.536 23.9922 103.715 23.9922ZM113.502 11.3477H119.595V14.1953H113.502V11.3477ZM128.385 19.2344C127.588 19.2344 126.846 19.0703 126.159 18.7422C125.471 18.4141 124.94 17.8984 124.565 17.1953H124.542C124.542 17.4922 124.522 17.8398 124.483 18.2383C124.452 18.6367 124.417 18.8906 124.378 19H121.178C121.241 18.2656 121.272 17.2969 121.272 16.0938V1.59766H124.565V6.47266C124.565 6.83203 124.557 7.19531 124.542 7.5625C124.534 7.92969 124.526 8.16797 124.518 8.27734H124.565C124.971 7.52734 125.522 6.97656 126.217 6.625C126.913 6.26562 127.706 6.08594 128.596 6.08594C129.62 6.08594 130.491 6.36328 131.21 6.91797C131.936 7.47266 132.483 8.24219 132.85 9.22656C133.217 10.2109 133.401 11.3398 133.401 12.6133C133.401 13.9102 133.206 15.0586 132.815 16.0586C132.432 17.0508 131.862 17.8281 131.104 18.3906C130.354 18.9531 129.448 19.2344 128.385 19.2344ZM127.319 16.6211C128.108 16.6211 128.745 16.2891 129.229 15.625C129.721 14.9609 129.967 13.957 129.967 12.6133C129.967 11.3398 129.733 10.375 129.264 9.71875C128.803 9.05469 128.167 8.72266 127.354 8.72266C126.557 8.72266 125.885 9.03125 125.338 9.64844C124.792 10.2656 124.518 11.2852 124.518 12.707C124.518 13.6602 124.651 14.4297 124.917 15.0156C125.182 15.5938 125.522 16.0078 125.936 16.2578C126.358 16.5 126.819 16.6211 127.319 16.6211ZM138.125 19.2344C137.343 19.2344 136.656 19.0859 136.062 18.7891C135.476 18.4922 135.019 18.0586 134.691 17.4883C134.363 16.9102 134.199 16.2227 134.199 15.4258C134.199 14.0195 134.652 13 135.558 12.3672C136.472 11.7266 137.691 11.3945 139.214 11.3711L141.945 11.3242V10.7148C141.945 9.94141 141.757 9.40234 141.382 9.09766C141.015 8.78516 140.507 8.62891 139.859 8.62891C138.742 8.62891 137.605 9.14062 136.449 10.1641L134.89 8.10156C136.406 6.75781 138.125 6.08594 140.046 6.08594C141.695 6.08594 142.972 6.47656 143.878 7.25781C144.785 8.03906 145.238 9.16016 145.238 10.6211V15.2617C145.238 16.6523 145.269 17.8984 145.332 19H142.214C142.16 18.4453 142.132 17.8516 142.132 17.2188H142.062C141.648 17.8672 141.109 18.3672 140.445 18.7188C139.789 19.0625 139.015 19.2344 138.125 19.2344ZM139.156 16.7383C139.695 16.7383 140.175 16.6094 140.597 16.3516C141.027 16.0938 141.359 15.7578 141.593 15.3438C141.828 14.9219 141.945 14.4766 141.945 14.0078V13.3633L140.246 13.3867C139.667 13.418 139.199 13.4766 138.839 13.5625C138.48 13.6406 138.187 13.8047 137.96 14.0547C137.734 14.2969 137.621 14.6641 137.621 15.1562C137.621 15.6719 137.757 16.0664 138.031 16.3398C138.312 16.6055 138.687 16.7383 139.156 16.7383ZM151.778 19.2344C150.684 19.2344 149.708 19.0898 148.848 18.8008C147.997 18.5117 147.18 18.0508 146.399 17.418L147.887 15.1562C148.59 15.6953 149.243 16.1016 149.844 16.375C150.446 16.6406 151.09 16.7734 151.778 16.7734C152.473 16.7734 153.012 16.6875 153.395 16.5156C153.786 16.3359 153.981 16.0195 153.981 15.5664C153.981 15.2383 153.879 14.9766 153.676 14.7812C153.473 14.5859 153.211 14.4375 152.891 14.3359C152.579 14.2266 152.133 14.1055 151.555 13.9727L150.934 13.8203C150.083 13.6016 149.372 13.3594 148.801 13.0938C148.239 12.8203 147.778 12.4297 147.418 11.9219C147.059 11.4141 146.879 10.75 146.879 9.92969C146.879 9.13281 147.071 8.44922 147.454 7.87891C147.836 7.30078 148.399 6.85938 149.141 6.55469C149.883 6.24219 150.778 6.08594 151.825 6.08594C152.825 6.08594 153.735 6.23828 154.555 6.54297C155.383 6.84766 156.09 7.30469 156.676 7.91406L154.989 9.85938C154.09 8.97656 153.043 8.53516 151.848 8.53516C150.551 8.53516 149.903 8.91016 149.903 9.66016C149.903 9.94922 149.985 10.1797 150.149 10.3516C150.321 10.5156 150.543 10.6445 150.817 10.7383C151.09 10.832 151.485 10.9375 152 11.0547L152.598 11.1953C153.536 11.4297 154.305 11.6836 154.907 11.957C155.516 12.2227 156.016 12.625 156.407 13.1641C156.805 13.7031 157.004 14.418 157.004 15.3086C157.004 16.1133 156.797 16.8125 156.383 17.4062C155.977 17.9922 155.379 18.4453 154.59 18.7656C153.809 19.0781 152.872 19.2344 151.778 19.2344ZM163.896 19.2344C161.951 19.2344 160.435 18.6836 159.349 17.582C158.271 16.4805 157.732 14.832 157.732 12.6367C157.732 11.168 157.997 9.94531 158.529 8.96875C159.068 7.98438 159.787 7.25781 160.685 6.78906C161.591 6.32031 162.599 6.08594 163.708 6.08594C164.997 6.08594 166.06 6.36328 166.896 6.91797C167.74 7.47266 168.353 8.21094 168.736 9.13281C169.126 10.0469 169.322 11.0703 169.322 12.2031C169.322 12.6484 169.298 13.0898 169.251 13.5273H161.189C161.189 14.5117 161.419 15.293 161.88 15.8711C162.349 16.4492 163.08 16.7383 164.072 16.7383C164.517 16.7383 164.919 16.6914 165.279 16.5977C165.638 16.4961 165.99 16.3516 166.333 16.1641C166.677 15.9766 167.099 15.707 167.599 15.3555L168.935 17.4883C168.193 18.0508 167.443 18.4844 166.685 18.7891C165.927 19.0859 164.997 19.2344 163.896 19.2344ZM166.134 11.2773C166.103 10.3242 165.88 9.62109 165.466 9.16797C165.052 8.71484 164.458 8.48828 163.685 8.48828C162.951 8.48828 162.361 8.71875 161.915 9.17969C161.478 9.63281 161.244 10.332 161.212 11.2773H166.134ZM175.194 19.2344C174.116 19.2344 173.198 18.957 172.44 18.4023C171.69 17.8398 171.123 17.0625 170.741 16.0703C170.366 15.0781 170.178 13.9414 170.178 12.6602C170.178 11.3711 170.377 10.2344 170.776 9.25C171.174 8.25781 171.768 7.48438 172.557 6.92969C173.346 6.36719 174.303 6.08594 175.428 6.08594C176.178 6.08594 176.877 6.25 177.526 6.57812C178.174 6.90625 178.67 7.40625 179.014 8.07812H179.038C179.038 7.875 179.034 7.69141 179.026 7.52734L179.014 6.22656V1.59766H182.295V16.2344C182.295 16.7734 182.303 17.2812 182.319 17.7578C182.342 18.2266 182.358 18.5117 182.366 18.6133C182.381 18.8164 182.389 18.9453 182.389 19H179.202C179.163 18.8906 179.123 18.6328 179.084 18.2266C179.053 17.8125 179.038 17.4609 179.038 17.1719H178.991C178.631 17.875 178.123 18.3945 177.467 18.7305C176.811 19.0664 176.053 19.2344 175.194 19.2344ZM176.225 16.6211C176.709 16.6211 177.166 16.4922 177.596 16.2344C178.026 15.9766 178.377 15.5469 178.651 14.9453C178.924 14.3438 179.061 13.5586 179.061 12.5898C179.061 11.1836 178.788 10.1797 178.241 9.57812C177.702 8.97656 177.038 8.67578 176.248 8.67578C175.452 8.67578 174.811 9.00391 174.327 9.66016C173.85 10.3164 173.612 11.3164 173.612 12.6602C173.612 13.9414 173.846 14.9219 174.315 15.6016C174.784 16.2812 175.42 16.6211 176.225 16.6211ZM194.696 19.2344C193.602 19.2344 192.625 19.0898 191.766 18.8008C190.914 18.5117 190.098 18.0508 189.317 17.418L190.805 15.1562C191.508 15.6953 192.16 16.1016 192.762 16.375C193.364 16.6406 194.008 16.7734 194.696 16.7734C195.391 16.7734 195.93 16.6875 196.313 16.5156C196.703 16.3359 196.899 16.0195 196.899 15.5664C196.899 15.2383 196.797 14.9766 196.594 14.7812C196.391 14.5859 196.129 14.4375 195.809 14.3359C195.496 14.2266 195.051 14.1055 194.473 13.9727L193.852 13.8203C193 13.6016 192.289 13.3594 191.719 13.0938C191.157 12.8203 190.696 12.4297 190.336 11.9219C189.977 11.4141 189.797 10.75 189.797 9.92969C189.797 9.13281 189.989 8.44922 190.371 7.87891C190.754 7.30078 191.317 6.85938 192.059 6.55469C192.801 6.24219 193.696 6.08594 194.743 6.08594C195.743 6.08594 196.653 6.23828 197.473 6.54297C198.301 6.84766 199.008 7.30469 199.594 7.91406L197.907 9.85938C197.008 8.97656 195.961 8.53516 194.766 8.53516C193.469 8.53516 192.821 8.91016 192.821 9.66016C192.821 9.94922 192.903 10.1797 193.067 10.3516C193.239 10.5156 193.461 10.6445 193.735 10.7383C194.008 10.832 194.403 10.9375 194.918 11.0547L195.516 11.1953C196.453 11.4297 197.223 11.6836 197.825 11.957C198.434 12.2227 198.934 12.625 199.325 13.1641C199.723 13.7031 199.922 14.418 199.922 15.3086C199.922 16.1133 199.715 16.8125 199.301 17.4062C198.895 17.9922 198.297 18.4453 197.508 18.7656C196.727 19.0781 195.789 19.2344 194.696 19.2344ZM201.388 1.59766H204.681V6.35547C204.681 6.88672 204.65 7.63672 204.587 8.60547H204.634C205.072 7.73828 205.626 7.10156 206.298 6.69531C206.97 6.28906 207.775 6.08594 208.712 6.08594C210.158 6.08594 211.212 6.52734 211.876 7.41016C212.548 8.29297 212.884 9.47656 212.884 10.9609V19H209.603V11.8984C209.603 10.9453 209.443 10.2109 209.122 9.69531C208.802 9.17969 208.251 8.92188 207.47 8.92188C206.947 8.92188 206.47 9.0625 206.04 9.34375C205.618 9.61719 205.286 10.0039 205.044 10.5039C204.802 11.0039 204.681 11.5703 204.681 12.2031V19H201.388V1.59766ZM216.764 4.64453C216.186 4.64453 215.733 4.48047 215.405 4.15234C215.076 3.81641 214.912 3.36719 214.912 2.80469C214.912 2.23437 215.076 1.78516 215.405 1.45703C215.733 1.12109 216.186 0.953125 216.764 0.953125C217.319 0.953125 217.76 1.12109 218.088 1.45703C218.416 1.78516 218.58 2.23437 218.58 2.80469C218.58 3.35937 218.412 3.80469 218.076 4.14062C217.748 4.47656 217.311 4.64453 216.764 4.64453ZM215.1 6.33203H218.393V19H215.1V6.33203ZM220.82 9.22656C220.82 8.03125 220.788 7.06641 220.726 6.33203H223.925C223.956 6.41016 223.988 6.65625 224.019 7.07031C224.05 7.47656 224.066 7.83594 224.066 8.14844H224.113C224.948 6.75781 226.292 6.0625 228.144 6.0625C229.167 6.0625 230.038 6.34375 230.757 6.90625C231.476 7.46094 232.019 8.23047 232.386 9.21484C232.761 10.1914 232.948 11.3164 232.948 12.5898C232.948 13.8867 232.749 15.0391 232.351 16.0469C231.952 17.0469 231.366 17.8281 230.593 18.3906C229.827 18.9531 228.913 19.2344 227.851 19.2344C227.07 19.2344 226.343 19.0742 225.671 18.7539C225.007 18.4336 224.488 17.9219 224.113 17.2188H224.042C224.058 17.3047 224.073 17.5625 224.089 17.9922C224.105 18.4141 224.113 18.7891 224.113 19.1172V23.9922H220.82V9.22656ZM226.866 16.6211C227.671 16.6211 228.312 16.2891 228.788 15.625C229.273 14.9609 229.515 13.9492 229.515 12.5898C229.515 11.3086 229.28 10.3398 228.812 9.68359C228.343 9.02734 227.706 8.69922 226.902 8.69922C226.409 8.69922 225.948 8.82422 225.519 9.07422C225.097 9.32422 224.749 9.74609 224.476 10.3398C224.202 10.9336 224.066 11.7148 224.066 12.6836C224.066 13.6367 224.198 14.4062 224.464 14.9922C224.738 15.5781 225.085 15.9961 225.507 16.2461C225.929 16.4961 226.382 16.6211 226.866 16.6211ZM234.649 9.15625C234.649 8.61719 234.637 8.0625 234.613 7.49219C234.598 6.92188 234.578 6.53516 234.555 6.33203H237.695C237.727 6.50391 237.758 6.85156 237.789 7.375C237.828 7.89062 237.848 8.30078 237.848 8.60547H237.895C238.293 7.73828 238.797 7.09766 239.406 6.68359C240.016 6.26953 240.742 6.0625 241.586 6.0625C242.539 6.0625 243.313 6.28125 243.906 6.71875C244.508 7.14844 244.91 7.77734 245.113 8.60547H245.184C245.613 7.67578 246.133 7.01953 246.742 6.63672C247.36 6.25391 248.121 6.0625 249.027 6.0625C250.34 6.0625 251.301 6.50781 251.91 7.39844C252.52 8.28906 252.824 9.47656 252.824 10.9609V19H249.555V11.8984C249.555 10.9453 249.418 10.2109 249.145 9.69531C248.871 9.17969 248.402 8.92188 247.738 8.92188C247.301 8.92188 246.906 9.05469 246.555 9.32031C246.203 9.57812 245.922 9.94531 245.711 10.4219C245.508 10.8906 245.399 11.4297 245.383 12.0391V19H242.113V11.8984C242.113 10.9453 241.977 10.2109 241.703 9.69531C241.43 9.17969 240.961 8.92188 240.297 8.92188C239.852 8.92188 239.449 9.0625 239.09 9.34375C238.731 9.61719 238.449 10.0039 238.246 10.5039C238.043 11.0039 237.942 11.5703 237.942 12.2031V19H234.649V9.15625ZM260.466 19.2344C258.521 19.2344 257.005 18.6836 255.919 17.582C254.841 16.4805 254.302 14.832 254.302 12.6367C254.302 11.168 254.568 9.94531 255.099 8.96875C255.638 7.98438 256.357 7.25781 257.255 6.78906C258.161 6.32031 259.169 6.08594 260.278 6.08594C261.568 6.08594 262.63 6.36328 263.466 6.91797C264.31 7.47266 264.923 8.21094 265.306 9.13281C265.696 10.0469 265.892 11.0703 265.892 12.2031C265.892 12.6484 265.868 13.0898 265.821 13.5273H257.759C257.759 14.5117 257.989 15.293 258.45 15.8711C258.919 16.4492 259.65 16.7383 260.642 16.7383C261.087 16.7383 261.489 16.6914 261.849 16.5977C262.208 16.4961 262.56 16.3516 262.903 16.1641C263.247 15.9766 263.669 15.707 264.169 15.3555L265.505 17.4883C264.763 18.0508 264.013 18.4844 263.255 18.7891C262.497 19.0859 261.568 19.2344 260.466 19.2344ZM262.704 11.2773C262.673 10.3242 262.45 9.62109 262.036 9.16797C261.622 8.71484 261.028 8.48828 260.255 8.48828C259.521 8.48828 258.931 8.71875 258.485 9.17969C258.048 9.63281 257.814 10.332 257.782 11.2773H262.704ZM267.44 9.15625C267.44 8.61719 267.428 8.0625 267.404 7.49219C267.389 6.92188 267.369 6.53516 267.346 6.33203H270.486C270.518 6.50391 270.549 6.85156 270.58 7.375C270.619 7.89062 270.639 8.30078 270.639 8.60547H270.686C271.131 7.73828 271.69 7.09766 272.361 6.68359C273.033 6.26953 273.834 6.0625 274.764 6.0625C276.209 6.0625 277.264 6.50781 277.928 7.39844C278.6 8.28125 278.936 9.46875 278.936 10.9609V19H275.654V11.8984C275.654 10.9453 275.494 10.207 275.174 9.68359C274.854 9.16016 274.303 8.89844 273.522 8.89844C272.99 8.89844 272.514 9.03906 272.092 9.32031C271.67 9.59375 271.338 9.98438 271.096 10.4922C270.854 10.9922 270.733 11.5625 270.733 12.2031V19H267.44V9.15625ZM284.632 19.2109C283.577 19.2109 282.769 18.9258 282.206 18.3555C281.651 17.7773 281.374 16.9219 281.374 15.7891V8.78125H279.769V6.33203H281.538L281.702 3.47266L284.632 3.22656V6.33203H287.151V8.78125H284.632V14.8984C284.632 15.4453 284.73 15.8477 284.925 16.1055C285.12 16.3555 285.433 16.4805 285.862 16.4805C286.206 16.4805 286.605 16.4336 287.058 16.3398L287.304 18.8359C286.405 19.0859 285.515 19.2109 284.632 19.2109ZM299.54 19.2344C298.204 19.2344 297.067 18.9648 296.13 18.4258C295.192 17.8867 294.481 17.1289 293.997 16.1523C293.52 15.1758 293.282 14.0352 293.282 12.7305C293.282 11.332 293.54 10.1367 294.056 9.14453C294.571 8.14453 295.306 7.38672 296.259 6.87109C297.212 6.34766 298.341 6.08594 299.645 6.08594C301.81 6.08594 303.438 6.97656 304.532 8.75781L302.235 10.3164C301.892 9.80078 301.52 9.40234 301.122 9.12109C300.731 8.83984 300.239 8.69922 299.645 8.69922C298.7 8.69922 297.978 9.03516 297.478 9.70703C296.985 10.3789 296.739 11.3398 296.739 12.5898C296.739 13.8945 296.993 14.8906 297.501 15.5781C298.017 16.2578 298.739 16.5977 299.669 16.5977C300.294 16.5977 300.833 16.457 301.286 16.1758C301.747 15.8867 302.231 15.4766 302.739 14.9453L304.708 16.8438C304.099 17.5938 303.36 18.1797 302.493 18.6016C301.634 19.0234 300.649 19.2344 299.54 19.2344ZM305.693 1.59766H308.986V6.35547C308.986 6.88672 308.955 7.63672 308.892 8.60547H308.939C309.377 7.73828 309.932 7.10156 310.603 6.69531C311.275 6.28906 312.08 6.08594 313.017 6.08594C314.463 6.08594 315.517 6.52734 316.182 7.41016C316.853 8.29297 317.189 9.47656 317.189 10.9609V19H313.908V11.8984C313.908 10.9453 313.748 10.2109 313.428 9.69531C313.107 9.17969 312.557 8.92188 311.775 8.92188C311.252 8.92188 310.775 9.0625 310.346 9.34375C309.924 9.61719 309.592 10.0039 309.35 10.5039C309.107 11.0039 308.986 11.5703 308.986 12.2031V19H305.693V1.59766ZM322.429 19.2344C321.647 19.2344 320.96 19.0859 320.366 18.7891C319.78 18.4922 319.323 18.0586 318.995 17.4883C318.667 16.9102 318.503 16.2227 318.503 15.4258C318.503 14.0195 318.956 13 319.862 12.3672C320.776 11.7266 321.995 11.3945 323.518 11.3711L326.249 11.3242V10.7148C326.249 9.94141 326.061 9.40234 325.686 9.09766C325.319 8.78516 324.811 8.62891 324.163 8.62891C323.046 8.62891 321.909 9.14062 320.753 10.1641L319.194 8.10156C320.71 6.75781 322.429 6.08594 324.35 6.08594C325.999 6.08594 327.276 6.47656 328.182 7.25781C329.089 8.03906 329.542 9.16016 329.542 10.6211V15.2617C329.542 16.6523 329.573 17.8984 329.636 19H326.518C326.464 18.4453 326.436 17.8516 326.436 17.2188H326.366C325.952 17.8672 325.413 18.3672 324.749 18.7188C324.093 19.0625 323.319 19.2344 322.429 19.2344ZM323.46 16.7383C323.999 16.7383 324.479 16.6094 324.901 16.3516C325.331 16.0938 325.663 15.7578 325.897 15.3438C326.132 14.9219 326.249 14.4766 326.249 14.0078V13.3633L324.55 13.3867C323.972 13.418 323.503 13.4766 323.143 13.5625C322.784 13.6406 322.491 13.8047 322.265 14.0547C322.038 14.2969 321.925 14.6641 321.925 15.1562C321.925 15.6719 322.061 16.0664 322.335 16.3398C322.616 16.6055 322.991 16.7383 323.46 16.7383ZM331.805 9.15625C331.805 8.61719 331.793 8.0625 331.769 7.49219C331.754 6.92188 331.734 6.53516 331.711 6.33203H334.851C334.883 6.50391 334.914 6.85156 334.945 7.375C334.984 7.89062 335.004 8.30078 335.004 8.60547H335.051C335.496 7.73828 336.055 7.09766 336.726 6.68359C337.398 6.26953 338.199 6.0625 339.129 6.0625C340.574 6.0625 341.629 6.50781 342.293 7.39844C342.965 8.28125 343.301 9.46875 343.301 10.9609V19H340.019V11.8984C340.019 10.9453 339.859 10.207 339.539 9.68359C339.219 9.16016 338.668 8.89844 337.887 8.89844C337.355 8.89844 336.879 9.03906 336.457 9.32031C336.035 9.59375 335.703 9.98438 335.461 10.4922C335.219 10.9922 335.098 11.5625 335.098 12.2031V19H331.805V9.15625ZM345.516 9.15625C345.516 8.61719 345.505 8.0625 345.481 7.49219C345.466 6.92188 345.446 6.53516 345.423 6.33203H348.563C348.595 6.50391 348.626 6.85156 348.657 7.375C348.696 7.89062 348.716 8.30078 348.716 8.60547H348.763C349.208 7.73828 349.766 7.09766 350.438 6.68359C351.11 6.26953 351.911 6.0625 352.841 6.0625C354.286 6.0625 355.341 6.50781 356.005 7.39844C356.677 8.28125 357.013 9.46875 357.013 10.9609V19H353.731V11.8984C353.731 10.9453 353.571 10.207 353.251 9.68359C352.93 9.16016 352.38 8.89844 351.598 8.89844C351.067 8.89844 350.591 9.03906 350.169 9.32031C349.747 9.59375 349.415 9.98438 349.173 10.4922C348.93 10.9922 348.809 11.5625 348.809 12.2031V19H345.516V9.15625ZM364.654 19.2344C362.709 19.2344 361.193 18.6836 360.107 17.582C359.029 16.4805 358.49 14.832 358.49 12.6367C358.49 11.168 358.756 9.94531 359.287 8.96875C359.826 7.98438 360.545 7.25781 361.443 6.78906C362.349 6.32031 363.357 6.08594 364.467 6.08594C365.756 6.08594 366.818 6.36328 367.654 6.91797C368.498 7.47266 369.111 8.21094 369.494 9.13281C369.885 10.0469 370.08 11.0703 370.08 12.2031C370.08 12.6484 370.056 13.0898 370.01 13.5273H361.947C361.947 14.5117 362.177 15.293 362.638 15.8711C363.107 16.4492 363.838 16.7383 364.83 16.7383C365.275 16.7383 365.677 16.6914 366.037 16.5977C366.396 16.4961 366.748 16.3516 367.092 16.1641C367.435 15.9766 367.857 15.707 368.357 15.3555L369.693 17.4883C368.951 18.0508 368.201 18.4844 367.443 18.7891C366.685 19.0859 365.756 19.2344 364.654 19.2344ZM366.892 11.2773C366.861 10.3242 366.638 9.62109 366.224 9.16797C365.81 8.71484 365.217 8.48828 364.443 8.48828C363.709 8.48828 363.119 8.71875 362.674 9.17969C362.236 9.63281 362.002 10.332 361.97 11.2773H366.892ZM374.897 19.1641C373.749 19.1641 372.897 18.8711 372.342 18.2852C371.788 17.6992 371.51 16.9141 371.51 15.9297V1.59766H374.803V15.1094C374.803 15.4766 374.831 15.7617 374.885 15.9648C374.948 16.1602 375.057 16.3047 375.214 16.3984C375.378 16.4844 375.616 16.5273 375.928 16.5273C376.116 16.5273 376.315 16.5039 376.526 16.457L376.643 19C376.081 19.1094 375.499 19.1641 374.897 19.1641Z" fill="black"/>
</svg>
