<svg xmlns="http://www.w3.org/2000/svg" viewBox="0 0 512 512">
	<path d="M411 361h48c13 0 24 11 24 24s-11 24-24 24h-48v47c0 13-11 24-25 24-13 0-22-11-22-24v-47h-48c-14 0-25-11-25-24s11-24 25-24h48v-48c0-14 9-23 22-23 14 0 25 9 25 23v48zm-283-72h182c14 0 24 10 24 24 0 13-10 24-24 24H128c-13 0-24-11-24-24 0-14 11-24 24-24zm0-71h182c14 0 24 9 24 22 0 14-10 24-24 24H128c-13 0-24-10-24-24 0-13 11-22 24-22zM77 430h166c15 0 24 10 24 25 0 14-9 24-24 24H53c-13 0-24-11-24-24V168c0-7 1-12 7-17L179 7c5-5 11-6 17-6h190c14 0 25 10 25 24v190c0 15-10 24-25 24-14 0-22-9-22-24V49H206l-10 9v62c0 27-21 48-48 48H87l-10 9v253z"/>
</svg>