<svg xmlns="http://www.w3.org/2000/svg" viewBox="0 0 512 512">
	<path d="M68 192h143v-48H68v48zM352 7l141 143c4 4 6 11 6 18v288c0 13-10 24-24 24-13 0-24-11-24-24V177l-7-6h-63c-26 0-48-22-48-49V57l-8-8H163v48h72c14 0 24 9 24 23v96c0 13-10 24-24 24h-95c11 0 20 6 26 16l89 177c11 22-2 47-25 47H51c-23 0-38-25-27-47l89-177c6-10 17-16 27-16H44c-14 0-24-11-24-24v-96c0-14 10-23 24-23h72V25c0-14 10-25 23-25h197c7 0 12 3 16 7zm-44 328h95c13 0 24 11 24 24 0 14-11 25-24 25h-95c-14 0-24-11-24-25 0-13 10-24 24-24zm0-71h95c13 0 24 11 24 24 0 14-11 25-24 25h-95c-14 0-24-11-24-25 0-13 10-24 24-24z"/>
</svg>