<svg xmlns="http://www.w3.org/2000/svg" viewBox="0 0 512 512">
	<path d="M440.84 388l48 50c10 9 10 23 0 33-4 4-11 7-16 7-6 0-13-3-17-7l-45-44c-39 40-91 63-152 63-59 0-115-25-153-63l-44 44c-5 4-11 7-17 7s-12-3-17-7c-9-10-9-24 0-33l49-49c-21-33-32-71-32-113 0-48 15-92 43-128-18 14-43 12-60-2-19-16-23-47-6-66 23-26 52-52 82-69 24-14 53-5 65 17 13 20 7 44-8 58 29-16 62-24 98-24 37 0 73 10 103 28-19-13-24-43-13-64 13-23 42-30 63-16 30 19 61 43 84 72 17 20 15 49-7 66-16 14-42 14-59 0 26 36 41 81 41 128 0 42-11 79-30 112zm-16-112c0-92-74-165-166-165-93 0-167 73-167 165 0 93 74 167 167 167 92 0 166-74 166-167zm-141-91v72h106c14 0 23 9 23 23 0 13-9 24-23 24h-131c-13 0-24-11-24-24v-95c0-14 11-23 24-23 14 0 25 9 25 23z"/>
</svg>