<svg xmlns="http://www.w3.org/2000/svg" viewBox="0 0 512 512">
	<path d="M32 416c-19 0-32-13-32-32v-96c0-5 2-11 5-16-3-5-5-11-5-16h288V96h51c60 0 116 46 127 107l8 53h6c17 0 32 13 32 32v96c0 19-15 32-32 32h-34c-7 37-39 64-78 64s-71-27-79-64h-67c-7 37-39 64-78 64s-71-27-79-64H32zM0 192V32C0 13 13 0 32 0h192c17 0 32 13 32 32v160c0 17-15 32-32 32H32c-19 0-32-15-32-32zM224 32H32v160h192V32zM32 288v96h33c8-36 40-64 79-64s71 28 78 64h67c8-36 40-64 79-64s71 28 78 64h34v-96H32zm288-32h122l-8-48c-8-47-48-80-95-80h-19v128zm3 128c-2 5-3 10-3 16s1 11 3 16c6 19 24 32 45 32s39-13 45-32c2-5 3-10 3-16s-1-11-3-16c-6-19-24-32-45-32s-39 13-45 32zm-224 0c-2 5-3 10-3 16s1 11 3 16c6 19 24 32 45 32s39-13 45-32c2-5 3-10 3-16s-1-11-3-16c-6-19-24-32-45-32s-39 13-45 32z"/>
</svg>