<svg xmlns="http://www.w3.org/2000/svg" viewBox="0 0 512 512">
	<path d="M0 448.496a126.62 126.62 0 01127.008-127.008h15.876c-44.651 0-79.38-35.72-79.38-79.38s34.729-79.38 79.38-79.38c43.659 0 79.38 35.722 79.38 79.38s-35.721 79.38-79.38 79.38h15.876c23.814 0 44.65 5.954 63.504 17.86v38.699c-16.869-16.869-38.698-24.807-63.504-24.807h-31.752c-52.59 0-95.256 42.667-95.256 95.256v31.752h190.512V512H0v-63.504zM285.767 339.35c18.853-11.907 40.683-17.86 63.504-17.86h15.876c-43.659 0-79.38-35.722-79.38-79.38s35.721-79.38 79.38-79.38c44.651 0 79.38 35.72 79.38 79.38s-34.729 79.38-79.38 79.38h15.876a126.62 126.62 0 01127.008 127.007V512H285.767v-31.752H476.28v-31.752c0-52.589-42.667-95.256-95.256-95.256h-31.752c-24.806 0-46.635 7.938-63.504 24.807v-38.698zM142.884 194.48c-26.791 0-47.628 20.837-47.628 47.628s20.837 47.627 47.628 47.627 47.628-20.837 47.628-47.627-20.838-47.628-47.628-47.628zm174.635 47.628c0 26.79 20.838 47.627 47.628 47.627s47.628-20.837 47.628-47.627-20.837-47.628-47.628-47.628-47.628 20.837-47.628 47.628zM396.9 46.636C396.9 25.798 420.713 0 455.442 0c31.752 0 52.589 16.868 52.589 43.659 0 15.876-11.907 25.798-20.837 36.713-11.907 14.884-18.853 14.884-18.853 41.675h-27.783c0-24.807.992-30.76 21.83-49.613 12.899-10.915 21.83-23.814 21.83-31.752 0-10.915-8.931-19.845-27.784-19.845-17.86 0-28.775 8.93-31.752 25.799H396.9zm42.667 111.131c0-11.907 5.953-17.86 17.86-17.86s17.86 5.953 17.86 17.86c0 12.9-5.953 18.853-17.86 18.853s-17.86-5.953-17.86-18.853z"/>
</svg>