<svg xmlns="http://www.w3.org/2000/svg" viewBox="0 0 512 512">
	<path d="M299.5 512H.5V32h97V0h30v32h33V0h31v32h130V0h31v32h33V0h31v32h95v221c-11-7-20-14-31-19v-74h-448v320h237c5 7 11 15 19 22zm108-31c-61 0-107-46-107-105 0-63 46-106 107-106 59 0 104 43 104 106 0 60-45 105-104 105zm-81-105c0 41 38 79 79 79 43 0 80-38 80-79 0-45-37-80-80-80-41 0-79 35-79 80zm-262 8h64v64h-64v-64zm64-128h-64v-64h64v64zm0 96h-64v-64h64v64zm32-96v-64h64v64h-64zm0 96v-64h64v64h-64zm0 96v-64h64v64h-64zm112-256h64v41c-13 7-26 15-40 24h-24v-65zm187 205h-79v-66h26v40h53v26zm-51-180c-9 0-17 1-24 2v-27h64v30c-13-3-25-5-40-5zm-56-153h-32v32h32V64zm-192 32h32V64h-32v32zm-32-32h-32v32h32V64zm288 0h-32v32h32V64z"/>
</svg>