<svg xmlns="http://www.w3.org/2000/svg" viewBox="0 0 512 512">
	<path d="M1 161h32v-32H1V97h32V34c0-10 3-18 9-23 6-6 14-9 23-9h382c9 0 17 3 23 9 6 5 9 13 9 23 9 0 17 3 23 8 6 6 9 14 9 23v64c0 19-13 32-32 32v32c19 0 32 13 32 32v64c0 9-3 16-9 23-6 5-14 8-23 8v32c19 0 32 13 32 32v64c0 19-13 32-32 32 0 19-13 32-32 32H65c-19 0-32-13-32-32v-64H1v-32h32v-32H1v-32h32V193H1v-32zm64-32v32h31v32H65v127h31v32H65v32h31v32H65v64h382V34H65v63h31v32H65zm129 223h-34v-32h34c2-11 5-21 11-28l-23-24 22-21 24 22c5-3 9-5 13-7 5-1 9-3 15-3v-34h32v33c4 0 9 2 14 3 6 2 11 4 15 8l24-22 21 21-22 24c3 3 5 8 6 13 2 5 3 10 4 15h34v32h-34c-2 9-5 18-10 28l23 24-22 22-24-23c-8 5-18 9-29 11v34h-32v-34c-9-2-18-6-28-11l-24 23-22-22 23-24c-3-5-5-9-7-13-1-4-3-10-4-15zM160 97h224v64H160V97zm68 255c4 14 14 25 28 29 5 2 10 3 16 3s11-1 16-3c6-2 12-6 17-11 6-5 10-11 12-18 2-5 3-10 3-16s-1-11-3-16c-3-13-16-24-29-28-5-2-11-3-16-3-6 0-11 1-16 3-6 2-12 5-17 10-5 6-9 12-11 18-2 5-3 10-3 16s1 11 3 16z"/>
</svg>