<svg xmlns="http://www.w3.org/2000/svg" viewBox="0 0 512 512">
	<path d="M219.19 246.039c-45.82-15.938-77.696-69.728-77.696-117.54C141.494 59.766 199.268 0 268.996 0c70.724 0 127.502 56.778 127.502 128.498 0 48.81-30.88 98.615-77.696 117.54-15.938 8.966-30.88 9.962-49.806 9.962s-33.868-.996-49.805-9.961zm-192.248-.996l98.614-65.743c20.919 59.766 75.705 103.595 143.44 103.595 56.778 0 105.588-31.876 132.483-78.693l96.622 42.833-190.257 126.506zM307.844 512L26.942 383.502l29.883-19.922 251.02 114.552 159.377-105.587 30.88 13.945zm0-67.735L26.942 316.763l29.883-20.919 251.02 115.549 159.377-106.584 30.88 13.946zm-85.665-332.7v16.933h93.634c0-14.942-1.992-35.86-6.973-48.81h-81.68c-.997 2.989-.997 6.973-1.993 10.958-.996 2.988-.996 7.969-1.992 11.953v2.989zm93.634 28.886H222.18c.996 10.958 1.992 18.926 2.988 27.891 1.993 7.97 3.985 14.942 5.977 20.919h73.712c6.973-11.954 9.961-33.868 10.957-48.81zm-84.669-71.72h73.712l-4.98-13.945c-4.981-10.957-9.962-17.93-15.938-22.91-4.98-4.981-9.961-9.962-14.942-12.95-14.942 6.973-29.883 25.899-34.864 40.84-2.988 4.981-1.992 5.977-2.988 8.966zm135.47 10.958h-40.84c4.98 15.937 5.977 31.875 5.977 48.81h46.817c0-18.927-3.984-34.865-11.953-48.81zm-204.202 21.914c-1.992 8.965-2.988 17.93-2.988 26.895h46.817c0-11.953 0-37.852 4.98-48.81h-40.84c-2.988 6.973-4.98 13.946-7.969 21.915zm162.366 76.7l-3.984 10.958h39.844c8.965-17.93 14.942-33.868 16.934-48.81h-45.821c-.996 10.958-.996 18.926-3.984 26.895-.997 3.985-1.993 7.97-2.989 10.958zm-165.354-37.852c2.988 16.934 7.969 30.88 15.938 45.821l1.992 2.989h36.856c-2.988-6.973-2.988-13.946-5.977-22.91-.996-7.97-1.992-16.935-1.992-25.9h-46.817zm76.7 59.767c3.985 9.961 8.965 16.934 13.946 21.914 4.98 6.973 9.961 12.95 16.934 15.938l1.992 1.992c6.973-4.98 11.953-10.957 16.934-17.93 4.98-3.984 8.965-10.957 13.945-21.914h-63.75zM360.639 68.732c-10.957-22.911-43.829-39.845-66.74-46.818.997.997 2.99 3.985 5.977 6.973s4.981 6.973 8.965 11.953l7.97 14.942c2.988 3.985 2.988 8.965 3.984 12.95h39.844zm-184.28 0h37.852l4.98-13.946c.997-.996.997-.996.997-1.992l4.98-8.965c.996-1.992.996-3.985 1.993-4.98 3.984-5.977 7.968-10.958 12.949-15.938-26.895 6.972-47.813 21.914-63.751 45.82zm119.533 166.35c10.957-.996 19.922-4.98 28.887-11.954 8.965-3.984 17.93-11.953 26.895-22.91H316.81c0 3.984-16.934 30.88-20.918 34.864zm-77.696-34.864h-31.876c6.973 10.957 15.938 17.93 24.903 24.903 8.965 4.98 17.93 8.965 27.89 9.96-2.987-.995-2.987-2.988-6.972-9.96-2.988-2.989-6.973-7.97-10.957-18.926z"/>
</svg>