<svg xmlns="http://www.w3.org/2000/svg" viewBox="0 0 512 512">
	<path d="M128 156.554L89.6 262.892h114.215l-38.4-107.323c-3.938-10.83-7.877-20.677-11.815-30.523s-5.908-16.738-6.892-20.677c-.985 3.939-3.939 10.831-7.877 21.662-3.939 9.846-6.893 19.692-10.831 30.523zm271.754 198.892c26.584 0 47.261-7.877 62.03-30.523 4.924-9.846 7.878-19.692 7.878-30.523v-22.646l-39.385.984c-29.539.985-75.815 5.908-75.815 45.293 0 11.815 4.923 20.677 11.815 27.569 8.861 6.892 19.692 9.846 33.477 9.846zM291.446 385.97h-44.308l-30.523-85.661h-140.8l-30.523 85.661H0L121.108 69.908h52.184zm98.462 3.939c-45.293 0-77.785-24.616-77.785-71.877 0-59.077 58.092-76.8 108.308-76.8l49.23-.985v-13.784c0-16.739-4.923-30.524-13.784-39.385-7.877-9.846-20.677-14.77-37.415-14.77-12.8 0-24.616 2.955-35.447 8.862-10.83 4.923-21.661 14.77-34.461 27.57l-26.585-25.6c25.6-29.539 58.093-44.308 97.477-44.308 52.185 0 90.585 27.569 90.585 83.692v111.262c0 19.692 0 36.43 1.969 52.184h-40.37c-.984-11.815-.984-23.63-.984-36.43h-.984c-8.862 12.8-19.693 23.63-32.493 29.538-11.815 7.877-27.569 10.83-47.261 10.83z"/>
</svg>