<svg xmlns="http://www.w3.org/2000/svg" viewBox="0 0 512 512">
	<path d="M39 480c-19 0-37-18-37-37V80c0-19 18-36 37-36h181l37 36h217c19 0 37 19 37 36v327c0 19-18 37-37 37H39zm0-364v290c0 36 0 37 36 37h363c36 0 36-1 36-37V153c0-37-1-37-37-37H238l-36-36H76c-36 0-37 0-37 36zm85 86l126-58 125 58v19h-21v19H145v-19h-21v-19zm250 214H124v-21h21v-15h208v15h21v21zm-109-64h-31v-51h31v51zm-37-148c0 1-1 6 7 11 3 3 6 5 10 6h9c13-3 17-15 17-20 0-10-9-20-19-20-13 0-24 14-24 23zm-67 148h-16v-80h16v80zm134-80h16v80h-16v-80zm-107 0h16v80h-16v-80zm149 80v-80h16v80h-16z"/>
</svg>