<svg xmlns="http://www.w3.org/2000/svg" viewBox="0 0 512 512">
	<path d="M0 256C0 116.89 114.958 0 256 0s256 116.89 256 256c0 142.974-116.89 256-256 256C113.026 512 0 395.11 0 256zm36.71-1.932c0 120.755 95.637 221.223 216.392 221.223 121.72 0 222.189-96.604 222.189-217.359 0-119.789-96.604-222.189-217.359-222.189-118.823 0-221.223 95.638-221.223 218.325zm104.332-67.623v-63.758h229.916v63.758H141.042zm0 38.642h229.916v63.758H141.042v-63.758zm229.916 166.158H141.042v-63.758h229.916v63.758z"/>
</svg>