<svg xmlns="http://www.w3.org/2000/svg" viewBox="0 0 512 512">
	<path d="M72.604 180.94V71.58C72.604 16.902 107.4 0 155.12 0h276.381c27.837 2.983 72.575 15.907 72.575 71.58v109.36c0 57.662-44.738 70.586-72.575 70.586h-31.814l-66.61 154.097h-70.586V251.526H144.184c-58.656 0-71.58-41.755-71.58-70.586zm35.79-110.354V180.94c0 27.837 18.89 32.808 35.79 35.79h153.103V368.84h17.896l59.65-152.109h56.668c15.907-2.982 35.79-6.96 35.79-35.79V70.586c0-27.836-19.883-33.802-35.79-34.796H156.115c-36.785.994-47.72 19.884-47.72 34.796zM120.324 512C59.68 512 13.948 466.268 13.948 407.612c0-62.633 45.732-105.383 106.376-105.383 58.657 0 103.394 42.75 103.394 105.383 0 59.65-44.737 104.388-103.394 104.388zM39.796 407.612c0 40.76 37.779 78.54 78.54 78.54 42.75 0 79.534-37.78 79.534-78.54 0-44.738-36.785-79.534-79.534-79.534-40.761 0-78.54 34.796-78.54 79.534zm384.746-299.247H155.12V81.522h269.422v26.843zM155.12 135.208h269.422v26.842H155.12v-26.842zM93.482 428.489v-65.615h25.848v39.767h52.691v25.848h-78.54z"/>
</svg>