<svg xmlns="http://www.w3.org/2000/svg" viewBox="0 0 512 512">
	<path d="M369.615 315.002H512v39.985H369.615c-39.985 0-74.118-34.134-74.118-74.118V8.777h39.01V280.87c0 19.504 16.579 34.133 35.108 34.133zM216.503 8.777V182.37c0 39.984-32.183 74.118-74.118 74.118H0v-39.985h142.385c19.505 0 35.108-14.629 35.108-34.133V8.777h39.01zm161.89 286.72V161.89c0-17.555-7.803-28.282-23.406-32.183V87.77c35.108 4.877 64.365 36.084 64.365 74.119v133.607h-40.96zM236.007 87.771h39.984v39.01h-39.984v-39.01zm-102.4 74.119v35.108H93.623V161.89c0-38.035 28.282-69.242 64.366-74.119v41.936c-16.58 3.9-24.381 14.628-24.381 32.183zm244.784 236.982v-24.38h40.96v24.38c0 39.985-34.133 74.118-74.118 74.118H167.741c-39.985 0-74.118-34.133-74.118-74.118v-122.88h39.985v122.88c0 19.505 14.628 35.109 34.133 35.109h177.493c18.53 0 33.158-15.604 33.158-35.109z"/>
</svg>