<svg xmlns="http://www.w3.org/2000/svg" viewBox="0 0 512 512">
	<path d="M371.2 164.43l131.938 237.293c5.908 10.83 8.862 20.677 8.862 29.539 0 7.876-1.97 15.753-5.908 22.646-9.846 15.754-25.6 23.63-47.261 23.63H54.154c-22.646 0-38.4-7.876-47.262-23.63C1.97 447.015 0 439.138 0 431.262c0-8.862 2.954-18.708 9.846-29.539l131.939-237.292-28.554-15.754c-8.862-4.923-10.831-13.785-10.831-18.708 0-1.969.985-3.938 2.954-6.892 3.938-6.892 8.861-10.83 15.754-10.83 2.954 0 6.892.984 11.815 2.953l27.57 14.77 52.184-91.57C223.507 18.708 237.292 8.862 256 8.862s32.492 9.846 43.323 29.538l52.185 91.57 28.554-14.77c2.953-1.97 4.923-2.954 7.876-2.954 4.924 0 13.785 1.97 18.708 10.83.985 2.955 1.97 5.909 1.97 8.862s.984 11.816-9.847 16.739zM246.154 57.109l-52.185 92.554 59.077 33.476 64-34.461-52.184-91.57c-2.954-5.907-5.908-8.86-8.862-8.86s-5.908 2.953-9.846 8.86zm-1.97 165.415l-67.938-38.4-30.523 54.154 108.308 57.108 111.261-59.077-29.538-53.17-73.846 40.37c-.985.984-3.939.984-8.862.984s-7.877-.984-8.861-1.969zm140.8 48.246l-88.615 47.262 163.446 85.661zm-172.307 47.262l-86.646-46.277-72.862 130.954zm229.415 120.123l-188.061-98.462-184.123 98.462h372.184z"/>
</svg>